<?xml version="1.0" encoding="utf-8"?>
<!-- Generator: Adobe Illustrator 16.0.0, SVG Export Plug-In . SVG Version: 6.00 Build 0)  -->
<!DOCTYPE svg PUBLIC "-//W3C//DTD SVG 1.1//EN" "http://www.w3.org/Graphics/SVG/1.1/DTD/svg11.dtd">
<svg version="1.1" id="Layer_1" xmlns="http://www.w3.org/2000/svg" xmlns:xlink="http://www.w3.org/1999/xlink" x="0px" y="0px"
	 width="2500px" height="1000px" viewBox="0 0 2500 1000" enable-background="new 0 0 2500 1000" xml:space="preserve">
<path fill="#C3996C" d="M621.964,564.174l-104.527-66.018l-34.974-101.204l-35.013,14.315c0,0,21.045,103.946,32.109,117.372
	c11.062,13.426,119.132,76.225,136.479,84.964"/>
<path opacity="0.07" fill="#3C2517" enable-background="new    " d="M490.786,516.655l0.162,0.369L490.786,516.655l-0.476-0.27
	L490.786,516.655l-40.523-91.956c6.103,28.551,20.706,93.518,29.295,103.939c11.062,13.426,119.132,76.225,136.479,84.964
	l2.906-24.237L490.786,516.655L490.786,516.655z"/>
<path fill="#FCB036" d="M880.977,770.651c0,0-52.565-2.814-117.416-2.814c-64.845,0-117.413,2.814-117.413,2.814v-89.577
	c0-64.848,52.567-117.416,117.413-117.416c64.848,0,117.416,52.568,117.416,117.416V770.651z"/>
<path fill="#764E2A" d="M646.152,770.651c0,0,52.567-2.814,117.413-2.814c64.848,0,117.416,2.814,117.416,2.814V751.09H646.152
	V770.651z"/>
<path fill="#C3996C" d="M680.517,1000V838.007c0-12.821,10.393-23.215,23.215-23.215c12.824,0,23.217,10.394,23.217,23.215v161.988
	L680.517,1000z"/>
<path fill="#C3996C" d="M797.511,1000V838.007c0-12.821,10.393-23.215,23.215-23.215c12.824,0,23.217,10.394,23.217,23.215v161.988
	L797.511,1000z"/>
<polygon fill="#3C2517" points="871.225,897.316 770.377,897.316 765.577,852.497 760.243,897.316 656.362,897.316 646.152,767.809 
	880.977,767.809 "/>
<path fill="#C3996C" d="M861.957,637.6l58.793,77.788l-63.954,68.702l10.321,30.704c0,0,116.487-95.583,106.575-109.878
	c-9.917-14.295-85.164-105.938-101.726-116.085"/>
<path fill="#FCB036" d="M738.114,562.556c0,0-30.278-0.891-64.786,3.569c-18.558,2.397-42.171-15.446-63.911-13.908
	c-15.621,1.103-23.557,69.326-16.186,71.465c19.573,5.666,45.623,25.42,65.45,25.42"/>
<path fill="#FCB036" d="M785.25,572.023c0,0,40.669-0.323,75.466,0.068c22.383,0.254,56.772,51.734,75.958,68.789
	c11.703,10.401-31.8,59.698-37.942,55.104c-21.958-16.418-28.266-34.565-38.78-44.559"/>
<circle fill="#E7A231" cx="761.076" cy="602.787" r="42.562"/>
<path fill="#C3996C" d="M795.203,600.676c0,18.843-15.281,34.121-34.128,34.121c-18.847,0-34.126-15.278-34.126-34.121v-79.725
	c0-18.847,15.279-34.126,34.126-34.126c18.847,0,34.128,15.279,34.128,34.126V600.676z"/>
<radialGradient id="SVGID_1_" cx="521.0757" cy="1441.3955" r="93.9194" gradientTransform="matrix(1 0 0 -1 240 2011.457)" gradientUnits="userSpaceOnUse">
	<stop  offset="0" style="stop-color:#603A17;stop-opacity:0.46"/>
	<stop  offset="0.09" style="stop-color:#603A17;stop-opacity:0.419"/>
	<stop  offset="1" style="stop-color:#603A17;stop-opacity:0"/>
</radialGradient>
<path opacity="0.74" fill="url(#SVGID_1_)" enable-background="new    " d="M795.203,600.676c0,18.843-15.281,34.121-34.128,34.121
	c-18.847,0-34.126-15.278-34.126-34.121v-79.725c0-18.847,15.279-34.126,34.126-34.126c18.847,0,34.128,15.279,34.128,34.126
	V600.676z"/>
<path fill="#C3996C" d="M962.901,358.36c0,117.217-90.494,212.24-202.125,212.24c-111.632,0-202.127-95.024-202.127-212.24
	c0-117.216,88.942-212.24,202.127-212.24C893.133,146.12,962.901,241.145,962.901,358.36z"/>
<polygon opacity="0.31" fill="#2D1A0E" enable-background="new    " points="560.556,327.799 610.337,327.955 610.337,339.594 "/>
<radialGradient id="SVGID_2_" cx="416.4854" cy="1691.9092" r="58.8306" gradientTransform="matrix(1 0 0 -1 240 2011.457)" gradientUnits="userSpaceOnUse">
	<stop  offset="0" style="stop-color:#3C2517;stop-opacity:0.95"/>
	<stop  offset="0.141" style="stop-color:#3C2517;stop-opacity:0.816"/>
	<stop  offset="1" style="stop-color:#3C2517;stop-opacity:0"/>
</radialGradient>
<path fill="url(#SVGID_2_)" d="M714.672,328.187c-23.503,2.257-26.052-39.798-58.187-39.798c-32.136,0-38.542,40.077-58.187,39.798
	c0-32.136,26.051-58.187,58.187-58.187C688.621,270,714.672,296.051,714.672,328.187z"/>
<radialGradient id="SVGID_3_" cx="537.3325" cy="1677.5586" r="70.3386" gradientTransform="matrix(1 0 0 -1 240 2011.457)" gradientUnits="userSpaceOnUse">
	<stop  offset="0" style="stop-color:#3C2517;stop-opacity:0.95"/>
	<stop  offset="0.141" style="stop-color:#3C2517;stop-opacity:0.816"/>
	<stop  offset="1" style="stop-color:#3C2517;stop-opacity:0"/>
</radialGradient>
<path fill="url(#SVGID_3_)" d="M837.129,328.187c-23.503,2.257-26.051-39.798-58.187-39.798c-32.136,0-38.543,40.077-58.188,39.798
	c0-32.136,26.051-58.187,58.188-58.187C811.078,270,837.129,296.051,837.129,328.187z"/>
<polygon opacity="0.31" fill="#2D1A0E" enable-background="new    " points="875.895,327.799 826.112,327.955 826.112,339.594 "/>
<path fill="#3C2517" d="M621.953,322.233l0.022-1.706c0.044-3.502-2.76-6.378-6.263-6.421l-52.572-0.665
	c-1.011,4.728-1.873,9.516-2.583,14.359l54.972,0.696C619.032,328.539,621.906,325.735,621.953,322.233z"/>
<path fill="#3C2517" d="M912.45,321.845c0,3.502-2.837,6.342-6.339,6.342h-88.299c-3.498,0-6.339-2.839-6.339-6.342v-1.707
	c0-3.501,2.835-6.341,6.339-6.341h88.299c3.502,0,6.339,2.84,6.339,6.341V321.845z"/>
<path fill="#2D1A0E" d="M778.75,278.315c-24.461,0-44.791,17.794-48.861,41.103h-24.858c-4.064-23.308-24.4-41.103-48.856-41.103
	c-27.37,0-49.638,22.268-49.638,49.64c0,27.373,22.268,49.64,49.638,49.64c24.457,0,44.792-17.792,48.856-41.102h24.858
	c4.067,23.31,24.4,41.102,48.861,41.102c27.37,0,49.636-22.267,49.636-49.64C828.387,300.583,806.123,278.315,778.75,278.315
	L778.75,278.315z M656.178,360.521c-17.957,0-32.563-14.608-32.563-32.566c0-17.957,14.607-32.566,32.563-32.566
	c17.958,0,32.571,14.609,32.571,32.566C688.749,345.913,674.136,360.521,656.178,360.521z M778.75,360.521
	c-17.957,0-32.568-14.608-32.568-32.566c0-17.957,14.611-32.566,32.568-32.566c17.955,0,32.562,14.609,32.562,32.566
	C811.312,345.913,796.707,360.521,778.75,360.521z"/>
<path fill="#3C2517" d="M728.792,396.856c-5.301-0.021-11.326,7.38-11.326,7.38s-6.029-7.399-11.334-7.38
	c-19.722,0.077-69.238,7.143-89.883,52.199c0,0,33.431-4.239,92.735-2.844l8.481-9.961l8.482,9.961
	c59.302-1.396,92.73,2.844,92.73,2.844C798.035,403.999,748.519,396.933,728.792,396.856L728.792,396.856z"/>
<path opacity="0.89" fill="#3C2517" enable-background="new    " d="M884.175,390.04v-9.359c14.406,0,26.13-11.72,26.13-26.125
	c0-14.407-11.721-26.126-26.13-26.126v-9.36c19.573,0,35.488,15.92,35.488,35.484C919.663,374.122,903.743,390.04,884.175,390.04
	L884.175,390.04z"/>
<path opacity="0.16" fill="#2D1A0E" enable-background="new    " d="M737.385,465.137c0,5.286-8.922,9.569-19.918,9.569
	c-11.004,0-19.923-4.286-19.923-9.569"/>
<path fill="#3C2517" d="M653.517,322.018c7.846,0,14.229,6.384,14.229,14.229h-8.538c0-3.137-2.553-5.692-5.691-5.692
	c-3.137,0-5.691,2.556-5.691,5.692h-8.539C639.287,328.401,645.672,322.018,653.517,322.018z"/>
<path fill="#3C2517" d="M780.849,322.018c7.845,0,14.229,6.384,14.229,14.229h-8.538c0-3.137-2.554-5.692-5.691-5.692
	c-3.14,0-5.694,2.556-5.694,5.692h-8.535C766.621,328.401,773.004,322.018,780.849,322.018L780.849,322.018z"/>
<path fill="#FFC922" d="M774.263,776.55h-21.392c-9.434,0-17.107-7.671-17.107-17.102c0-9.432,7.677-17.104,17.107-17.104h21.392
	c9.431,0,17.104,7.673,17.104,17.104S783.693,776.55,774.263,776.55z M752.871,750.879c-4.726,0-8.57,3.845-8.57,8.567
	c0,4.726,3.849,8.565,8.57,8.565h21.392c4.722,0,8.566-3.845,8.566-8.565c0-4.729-3.844-8.567-8.566-8.567H752.871z"/>
<path fill="#C3996C" d="M447.45,411.267c0,0-10.917-19.837-15.555-43.179c-4.637-23.344,38.21-40.61,42.21-17.748
	c3.996,22.863,5.114,24.303,9.444,49.93c3.689,21.845-26.501,13.542-26.501,13.542L447.45,411.267z"/>
<path fill="#C3996C" d="M481.992,394.132c0.899,3.405-1.133,6.895-4.54,7.794c-3.405,0.898-8.109-0.129-9.006-3.534l-17.918-105.807
	c-0.899-3.406,1.483-7.245,4.888-8.143c3.406-0.899,6.896,1.483,7.794,4.888L481.992,394.132z"/>
<path fill="#C3996C" d="M465.046,360.496c0.955,3.775-1.332,7.609-5.106,8.564l-0.256,0.064c-3.774,0.956-7.61-1.33-8.564-5.106
	l-17.032-71.203c-0.956-3.776,1.33-7.61,5.105-8.565c3.776-0.954,7.865,1.268,8.82,5.041L465.046,360.496z"/>
<path fill="#C3996C" d="M455.385,367.118c0.956,3.775-1.33,7.61-5.106,8.567l-0.255,0.064c-3.774,0.955-7.608-1.333-8.564-5.107
	l-21.364-67.08c-0.957-3.776,1.331-7.61,5.105-8.566l0.256-0.064c3.774-0.956,7.608,1.332,8.564,5.106L455.385,367.118z"/>
<path fill="#C3996C" d="M446.601,372.286c0.909,3.589-1.266,7.236-4.855,8.143l-0.243,0.062c-3.589,0.906-7.235-1.268-8.143-4.857
	l-19.782-47.836c-0.906-3.589,0.417-6.201,3.414-7.586l0.244-0.062c3.589-0.907,6.1,1.493,8.143,4.856L446.601,372.286z"/>
<path fill="#C3996C" d="M460.371,378.318c-0.909,3.589,1.265,7.236,4.855,8.143l0.243,0.062c3.589,0.907,7.235-1.268,8.144-4.857
	l20.044-52.876c0.906-3.588-0.418-6.2-3.414-7.586L490,321.142c-3.589-0.907-7.234,1.267-8.144,4.857L460.371,378.318
	L460.371,378.318z"/>
<path fill="#C3996C" d="M872.956,809.944c0,0-3.062,5.55-5.152,7.454l-1.858-5.494L872.956,809.944z"/>
<path opacity="0.07" fill="#3C2517" enable-background="new    " d="M860.623,795.473l5.51,16.379l-0.183,0.053l1.858,5.494
	c2.088-1.904,5.152-7.454,5.152-7.454c17.093-14.284,67.25-56.908,89.946-83.794L860.623,795.473z"/>
<linearGradient id="SVGID_4_" gradientUnits="userSpaceOnUse" x1="621.0361" y1="1209.7832" x2="631.804" y2="1214.4739" gradientTransform="matrix(1 0 0 -1 240 2011.457)">
	<stop  offset="0" style="stop-color:#311C10"/>
	<stop  offset="0.166" style="stop-color:#341F12;stop-opacity:0.834"/>
	<stop  offset="0.537" style="stop-color:#3A2316;stop-opacity:0.463"/>
	<stop  offset="1" style="stop-color:#3C2517;stop-opacity:0"/>
</linearGradient>
<polygon opacity="0.89" fill="url(#SVGID_4_)" enable-background="new    " points="853.984,776.55 870.61,825.698 872.956,814.794 
	859.199,779.026 "/>
<polygon fill="#4E3323" points="854.775,778.823 872.425,829.323 867.949,828.579 850.36,778.27 "/>
<path opacity="0.25" fill="#2D1A0E" enable-background="new    " d="M742.023,459.829c-0.484-1.211-2.051-3.216-3.586-3.216H696.95
	c-1.537,0-3.102,2.006-3.586,3.216c-0.484,1.212-0.697,2.375-0.697,2.375c1.089,0,1.942-0.025,3.479-0.025h43.096
	c1.536,0,2.389,0.025,3.479,0.025C742.721,462.202,742.506,461.041,742.023,459.829z"/>
<path opacity="0.05" fill="#2D1A0E" enable-background="new    " d="M918.671,216.976c20.767,34.627,31.366,76.937,31.366,122.616
	c0,117.216-90.494,212.241-202.126,212.241c-63.692,0-120.494-30.945-157.542-79.287c35.909,58.964,98.81,98.054,170.407,98.054
	c111.631,0,202.125-95.024,202.125-212.24C962.901,304.052,947.914,254.514,918.671,216.976z"/>
<path opacity="0.16" fill="#2D1A0E" enable-background="new    " d="M632.684,330.924c-0.653-5.472,1.338-11.345,5.287-15.547
	c1.942-2.134,4.379-3.81,7.035-4.996c2.673-1.164,5.596-1.746,8.51-1.774c2.909,0.025,5.842,0.612,8.511,1.77
	c2.656,1.187,5.099,2.863,7.037,4.996c3.949,4.204,5.942,10.08,5.284,15.551c-0.605-5.458-3.111-10.421-6.922-13.913
	c-3.799-3.488-8.831-5.478-13.91-5.436c-5.081-0.046-10.113,1.946-13.914,5.433C635.791,320.501,633.286,325.466,632.684,330.924z"
	/>
<path opacity="0.16" fill="#2D1A0E" enable-background="new    " d="M760.017,330.924c-0.653-5.472,1.339-11.345,5.288-15.547
	c1.939-2.134,4.377-3.81,7.033-4.996c2.673-1.164,5.598-1.746,8.509-1.774c2.907,0.025,5.843,0.612,8.509,1.77
	c2.654,1.187,5.099,2.863,7.037,4.996c3.949,4.204,5.942,10.08,5.286,15.551c-0.605-5.458-3.113-10.421-6.922-13.913
	c-3.801-3.488-8.829-5.478-13.91-5.436c-5.083-0.046-10.112,1.946-13.916,5.433C763.123,320.501,760.62,325.466,760.017,330.924
	L760.017,330.924z"/>
<path opacity="0.25" fill="#2D1A0E" enable-background="new    " d="M884.175,380.681h-4.428v13.106c0,0,28.202,6.234,38.094-28.009
	C917.836,365.778,908.066,380.418,884.175,380.681z"/>
<path opacity="0.32" fill="#2D1A0E" enable-background="new    " d="M701.728,347.572c0,0,4.672-7.978,15.738-7.978
	c11.064,0,14.39,5.108,15.739,7.978c1.348,2.868,2.747-18.117,2.747-18.117l-36.117-0.494L701.728,347.572z"/>
<path opacity="0.15" fill="#2D1A0E" enable-background="new    " d="M699.829,379.799c0,0,4.533,8.556,17.635,8.336
	c10.321-0.172,14.032-4.069,14.032-4.069s-4.547,8.906-14.032,8.906C706.262,392.973,699.778,384.994,699.829,379.799z"/>
<path opacity="0.25" fill="#FFFFFF" enable-background="new    " d="M823.152,190.177c0,0,62.959,1.732,81.27,66.238l-30.586-5.394
	C868.609,230.996,851.004,203.722,823.152,190.177L823.152,190.177z"/>
<path fill="#C3996C" d="M471.998,338.37c0,0,1.681,6.927,4.565,0.716l-1.708,13.012l-11.503-3.833L471.998,338.37z"/>
<path fill="#C3996C" d="M479.357,366.518c0,0-1.347,4.144-0.041,10.758l-14.053-4.817L479.357,366.518z"/>
<g>
	<path d="M1471.346,470.303c-23.049,0-42.213,16.771-46.043,38.741h-23.432c-3.833-21.97-22.999-38.741-46.045-38.741
		c-25.797,0-46.788,20.987-46.788,46.787c0,25.801,20.991,46.788,46.788,46.788c23.046,0,42.212-16.771,46.045-38.741h23.432
		c3.83,21.97,22.994,38.741,46.043,38.741c25.797,0,46.79-20.987,46.79-46.788C1518.136,491.29,1497.143,470.303,1471.346,470.303z
		 M1355.826,547.785c-16.926,0-30.695-13.769-30.695-30.695c0-16.923,13.77-30.694,30.695-30.694
		c16.924,0,30.694,13.771,30.694,30.694C1386.521,534.017,1372.75,547.785,1355.826,547.785z M1471.346,547.785
		c-16.927,0-30.692-13.769-30.692-30.695c0-16.923,13.766-30.694,30.692-30.694c16.926,0,30.697,13.771,30.697,30.694
		C1502.043,534.017,1488.271,547.785,1471.346,547.785z"/>
	<path d="M1424.266,582.029c-5-0.018-10.679,6.956-10.679,6.956s-5.681-6.974-10.681-6.956
		c-18.587,0.073-65.261,6.734-84.717,49.197c0,0,31.508-3.994,87.404-2.682l7.993-9.389l7.991,9.389
		c55.896-1.312,87.403,2.682,87.403,2.682C1489.525,588.764,1442.852,582.103,1424.266,582.029z"/>
	<path d="M1221.989,458.186c-7.865-6.687-20.412-10.031-37.639-10.031h-39.642v112.189h25.037v-31.298h14.926
		c16.584,0,28.915-3.21,36.996-9.631c8.076-6.418,12.117-16.556,12.117-30.414C1233.784,475.145,1229.851,464.873,1221.989,458.186z
		 M1203.609,502.322c-2.997,3.371-8.666,5.055-17.011,5.055h-16.854v-37.715h14.283c8.239,0,14.31,1.362,18.219,4.091
		c3.903,2.73,5.856,7.33,5.856,13.804C1208.104,494.033,1206.604,498.953,1203.609,502.322z"/>
	<path d="M1282.738,476.402c-4.655,2.461-8.535,5.458-11.637,8.987v-11.395h-24.076v86.349h24.076v-37.396
		c0-8.346,1.766-15.059,5.298-20.143c3.528-5.082,8.88-7.623,16.049-7.623h4.655l-0.161-22.631
		C1292.127,472.659,1287.393,473.943,1282.738,476.402z"/>
	<path d="M1568.257,469.02c0-3.424,0.804-6.018,2.409-7.784c1.603-1.766,3.635-2.648,6.097-2.648c4.28,0,8.187,2.034,11.719,6.099
		l8.666-16.21c-6.956-6.421-14.687-9.631-23.192-9.631c-8.505,0-15.625,2.757-21.347,8.266c-5.725,5.512-8.588,12.977-8.588,22.392
		v5.295h-10.11v17.335h10.11v68.212h24.236v-68.212h20.865v-17.335h-20.865V469.02z"/>
	<path d="M1669.379,483.305c-8.292-7.169-18.376-10.754-30.253-10.754s-22.175,4.012-30.896,12.038
		c-8.723,8.022-13.079,18.832-13.079,32.42c0,13.59,4.278,24.423,12.839,32.501c8.559,8.079,19.395,12.117,32.502,12.117
		c13.104,0,24.528-4.6,34.265-13.804l-13.481-14.604c-5.456,5.672-12.412,8.505-20.865,8.505c-5.242,0-9.95-1.497-14.122-4.493
		c-4.173-2.994-6.638-6.846-7.383-11.556h62.916v-12.839C1681.82,500.316,1677.671,490.475,1669.379,483.305z M1619.545,508.503
		c0.643-4.921,2.941-8.827,6.903-11.716c3.955-2.892,8.318-4.336,13.078-4.336s8.801,1.392,12.119,4.175
		c3.315,2.784,5.24,6.739,5.777,11.877H1619.545z"/>
	<path d="M1753.42,515.242c-3.211-1.927-5.968-3.342-8.266-4.251c-2.302-0.909-6.179-2.222-11.638-3.933
		c-5.455-1.711-9.362-3.211-11.716-4.494s-3.532-3.05-3.532-5.298c0-4.064,3.72-6.1,11.155-6.1c7.438,0,14.899,2.57,22.391,7.705
		l8.988-16.05c-10.166-6.848-20.33-10.271-30.496-10.271s-18.455,2.515-24.876,7.544s-9.632,11.528-9.632,19.499
		c0,7.974,3.264,13.991,9.792,18.058c3.211,2.032,6.07,3.585,8.588,4.652c2.512,1.073,6.151,2.356,10.912,3.854
		c4.76,1.5,8.399,3.105,10.914,4.815c2.512,1.711,3.772,3.585,3.772,5.617s-0.909,3.666-2.729,4.895
		c-1.821,1.23-4.28,1.845-7.383,1.845c-10.166,0-19.742-3.474-28.729-10.433l-10.594,15.088c5.562,4.494,11.821,7.891,18.78,10.192
		c6.953,2.298,13.64,3.45,20.061,3.45c9.632,0,17.575-2.567,23.836-7.705c6.257-5.134,9.389-11.955,9.389-20.464
		C1762.408,524.953,1759.411,518.883,1753.42,515.242z"/>
	<path d="M1832.697,515.242c-3.21-1.927-5.967-3.342-8.266-4.251c-2.301-0.909-6.178-2.222-11.637-3.933
		c-5.456-1.711-9.362-3.211-11.716-4.494s-3.532-3.05-3.532-5.298c0-4.064,3.719-6.1,11.154-6.1c7.438,0,14.9,2.57,22.392,7.705
		l8.987-16.05c-10.166-6.848-20.329-10.271-30.496-10.271c-10.166,0-18.455,2.515-24.876,7.544s-9.631,11.528-9.631,19.499
		c0,7.974,3.263,13.991,9.792,18.058c3.21,2.032,6.069,3.585,8.587,4.652c2.512,1.073,6.152,2.356,10.912,3.854
		c4.76,1.5,8.4,3.105,10.915,4.815c2.512,1.711,3.771,3.585,3.771,5.617s-0.909,3.666-2.728,4.895
		c-1.822,1.23-4.281,1.845-7.383,1.845c-10.167,0-19.742-3.474-28.73-10.433l-10.593,15.088c5.562,4.494,11.821,7.891,18.78,10.192
		c6.952,2.298,13.64,3.45,20.061,3.45c9.631,0,17.575-2.567,23.835-7.705c6.257-5.134,9.389-11.955,9.389-20.464
		C1841.686,524.953,1838.688,518.883,1832.697,515.242z"/>
	<path d="M1897.461,472.551c-13.11,0-23.996,4.307-32.662,12.921s-13,19.178-13,31.697c0,12.521,4.334,23.058,13,31.619
		s19.552,12.839,32.662,12.839c13.105,0,23.994-4.277,32.66-12.839s13.002-19.099,13.002-31.619c0-12.52-4.336-23.083-13.002-31.697
		S1910.566,472.551,1897.461,472.551z M1912.867,534.423c-4.012,4.441-9.148,6.661-15.406,6.661c-6.26,0-11.396-2.22-15.408-6.661
		c-4.012-4.438-6.021-10.192-6.021-17.254c0-7.061,2.009-12.841,6.021-17.335s9.148-6.74,15.408-6.74
		c6.258,0,11.395,2.246,15.406,6.74c4.015,4.494,6.021,10.274,6.021,17.335C1918.888,524.23,1916.882,529.984,1912.867,534.423z"/>
	<path d="M2004.989,472.551c-4.815,0.108-9.549,1.393-14.204,3.852c-4.654,2.461-8.534,5.458-11.637,8.987v-11.395h-24.075v86.349
		h24.075v-37.396c0-8.346,1.766-15.059,5.298-20.143c3.529-5.082,8.88-7.623,16.049-7.623h4.655L2004.989,472.551z"/>
</g>
</svg>
