<svg xmlns="http://www.w3.org/2000/svg" width="500" height="898.457"><path fill="#C49A6C" d="M174.942 377.766l-70.421-44.476-23.562-68.182-23.589 9.644s14.179 70.029 21.633 79.074c7.452 9.045 80.26 51.354 91.947 57.241"/><path opacity=".07" fill="#3C2415" enable-background="new" d="M86.566 345.753l.109.249-.109-.249-.321-.182.321.182-27.301-61.951c4.112 19.234 13.95 63.003 19.737 70.024 7.452 9.045 80.26 51.354 91.947 57.241l1.958-16.329-86.341-48.985z"/><path fill="#FBB036" d="M349.441 516.873s-35.414-1.896-79.104-1.896c-43.687 0-79.102 1.896-79.102 1.896v-60.35c0-43.688 35.415-79.104 79.102-79.104 43.688 0 79.104 35.416 79.104 79.104v60.35z"/><path fill="#754C29" d="M191.238 516.873s35.415-1.896 79.102-1.896c43.688 0 79.104 1.896 79.104 1.896v-13.18h-158.206v13.18z"/><path fill="#8B5E3C" d="M248.669 789.197l-.105 5.104s2.993 11.273 27.903 7.109c18.096-3.025 44.449-15.799 53.209-31.502v-7.941l-81.007 27.23z"/><path fill="#8B5E3C" d="M167.744 786.755l-.104 5.105s2.992 11.271 27.901 7.106c18.096-3.022 48.001-17.012 56.398-31.276v-6.429l-84.195 25.494z"/><path fill="#4C3122" d="M290.33 737.013s30.094-1.178 35.844 1.312c2.34 1.014-11.398 13.074-20.947 11.479-6.866-1.15-17.495-9.92-14.897-12.791z"/><path fill="#4C3122" d="M212.562 737.013s30.093-1.178 35.842 1.312c2.342 1.014-11.398 13.074-20.945 11.479-6.866-1.15-17.495-9.92-14.897-12.791z"/><path fill="#C49A6C" d="M323.111 746.263c0 8.638-7.004 6.412-15.643 6.412-8.639 0-15.641 2.226-15.641-6.412v-184.012c0-8.639 7.002-15.641 15.641-15.641s15.643 7.002 15.643 15.641v184.012z"/><radialGradient id="a" cx="262.123" cy="694.539" r="120.359" gradientTransform="translate(46 -94.544)" gradientUnits="userSpaceOnUse"><stop offset="0" stop-color="#603913" stop-opacity=".46"/><stop offset=".09" stop-color="#603913" stop-opacity=".419"/><stop offset="1" stop-color="#603913" stop-opacity="0"/></radialGradient><path opacity=".74" fill="url(#a)" enable-background="new" d="M323.111 746.263c0 8.638-7.004 6.412-15.643 6.412-8.639 0-15.641 2.226-15.641-6.412v-184.012c0-8.639 7.002-15.641 15.641-15.641s15.643 7.002 15.643 15.641v184.012z"/><path fill="#C49A6C" d="M245.671 746.326c0 8.639-7.002 6.35-15.641 6.35s-15.641 2.289-15.641-6.35v-184.075c0-8.639 7.002-15.641 15.641-15.641s15.641 7.002 15.641 15.641v184.075z"/><radialGradient id="b" cx="184.683" cy="696.877" r="125.58" gradientTransform="translate(46 -94.544)" gradientUnits="userSpaceOnUse"><stop offset="0" stop-color="#603913" stop-opacity=".46"/><stop offset=".09" stop-color="#603913" stop-opacity=".419"/><stop offset="1" stop-color="#603913" stop-opacity="0"/></radialGradient><path opacity=".74" fill="url(#b)" enable-background="new" d="M245.671 746.326c0 8.639-7.002 15.643-15.641 15.643v-9.293c-8.639 0-15.641 2.289-15.641-6.35v-184.075c0-8.639 7.002-15.641 15.641-15.641s15.641 7.002 15.641 15.641v184.075z"/><path opacity=".82" fill="#BCBEC0" enable-background="new" d="M291.83 694.664v51.6c0 8.64 7.002 6.412 15.641 6.412s15.643 2.228 15.643-6.412v-51.6h-31.284z"/><path opacity=".82" fill="#BCBEC0" enable-background="new" d="M214.39 694.664v51.662c0 8.639 7.002 6.35 15.641 6.35v9.293c8.639 0 15.641-7.004 15.641-15.643v-51.662h-31.282z"/><path opacity=".06" fill="#3C2415" enable-background="new" d="M214.39 737.287s30.624 13.356 31.281-18.814v31.812l-42.737-2.514 11.456-10.484z"/><polygon fill="#3C2415" points="342.871,602.208 274.93,602.208 271.695,572.013 268.102,602.208 198.116,602.208 191.238,514.957 349.441,514.957"/><path opacity=".06" fill="#3C2415" enable-background="new" d="M291.729 737.287s30.623 13.356 31.281-18.814v31.812l-42.738-2.514 11.457-10.484z"/><path fill="#3C2415" d="M326.174 738.324l-.109-.06-.203-.073c-.262-.08-.721-.211-.875-.25 0 0 .123.393.078.78-.051.308-.33.994-.336.998-1.244 2.181-1.209 4.929-16.713 4.929-12.365 0-15.975-3.959-17.035-6.187-.254-.65-.162-1.467-.162-1.467-.105 0-1.129.131-1.129.131l.004.004c-62.696 53.178-39.112 61.256-23.6 61.256 31.666 0 63.582-24.66 63.582-37.121 0-10.823-2.063-22.278-3.502-22.94z"/><path fill="#3C2415" d="M248.44 738.324l-.111-.06-.203-.073c-.26-.08-.719-.211-.875-.25 0 0 .123.393.078.78-.049.308-.33.994-.334.998-1.246 2.181-1.209 4.929-16.714 4.929-12.363 0-15.974-3.959-17.034-6.187-.254-.65-.162-1.467-.162-1.467-.108 0-1.129.131-1.129.131l.004.004c-64.051 43.832-44.287 59.578-28.773 59.541 28.809-.063 68.754-22.945 68.754-35.406-.002-10.823-2.061-22.278-3.501-22.94z"/><path fill="#C49A6C" d="M336.627 427.234l39.609 52.407-43.086 46.285 6.953 20.685s78.479-64.394 71.801-74.025c-6.68-9.631-57.375-71.371-68.533-78.207"/><path fill="#FBB036" d="M253.193 376.677s-20.398-.601-43.646 2.404c-12.503 1.615-28.411-10.406-43.058-9.37-10.523.743-15.87 46.706-10.904 48.146 13.187 3.818 30.737 17.126 44.094 17.126"/><path fill="#FBB036" d="M284.949 383.055s27.4-.218 50.842.046c15.08.171 38.248 34.854 51.174 46.343 7.885 7.008-21.424 40.22-25.562 37.125-14.793-11.06-19.043-23.287-26.127-30.019"/><circle fill="#E6A132" cx="268.663" cy="403.781" r="28.675"/><path fill="#C49A6C" d="M291.654 402.358c0 12.695-10.295 22.989-22.992 22.989-12.697 0-22.991-10.294-22.991-22.989v-53.711c0-12.697 10.294-22.991 22.991-22.991s22.992 10.294 22.992 22.991v53.711z"/><radialGradient id="c" cx="222.663" cy="476.277" r="63.275" gradientTransform="translate(46 -94.544)" gradientUnits="userSpaceOnUse"><stop offset="0" stop-color="#603913" stop-opacity=".46"/><stop offset=".09" stop-color="#603913" stop-opacity=".419"/><stop offset="1" stop-color="#603913" stop-opacity="0"/></radialGradient><path opacity=".74" fill="url(#c)" enable-background="new" d="M291.654 402.358c0 12.695-10.295 22.989-22.992 22.989-12.697 0-22.991-10.294-22.991-22.989v-53.711c0-12.697 10.294-22.991 22.991-22.991s22.992 10.294 22.992 22.991v53.711z"/><path fill="#C49A6C" d="M404.635 239.108c0 78.97-60.967 142.988-136.174 142.988s-136.175-64.019-136.175-142.988 59.921-142.988 136.175-142.988c89.17 0 136.174 64.019 136.174 142.988z"/><polygon opacity=".31" fill="#2E1705" enable-background="new" points="133.571,218.519 167.109,218.624 167.109,226.465"/><radialGradient id="d" cx="152.199" cy="307.502" r="39.634" gradientTransform="translate(46 -94.544)" gradientUnits="userSpaceOnUse"><stop offset="0" stop-color="#3C2415" stop-opacity=".95"/><stop offset=".141" stop-color="#3C2415" stop-opacity=".816"/><stop offset="1" stop-color="#3C2415" stop-opacity="0"/></radialGradient><path fill="url(#d)" d="M237.4 218.78c-15.834 1.521-17.551-26.812-39.201-26.812-21.65 0-25.966 27-39.201 26.812 0-21.65 17.551-39.201 39.201-39.201 21.65 0 39.201 17.551 39.201 39.201z"/><radialGradient id="e" cx="233.615" cy="317.17" r="47.387" gradientTransform="translate(46 -94.544)" gradientUnits="userSpaceOnUse"><stop offset="0" stop-color="#3C2415" stop-opacity=".95"/><stop offset=".141" stop-color="#3C2415" stop-opacity=".816"/><stop offset="1" stop-color="#3C2415" stop-opacity="0"/></radialGradient><path fill="url(#e)" d="M319.9 218.78c-15.834 1.521-17.551-26.812-39.201-26.812s-25.967 27-39.201 26.812c0-21.65 17.551-39.201 39.201-39.201s39.201 17.551 39.201 39.201z"/><polygon opacity=".31" fill="#2E1705" enable-background="new" points="346.018,218.519 312.479,218.624 312.479,226.465"/><path fill="#3C2415" d="M174.934 214.769l.015-1.149c.03-2.359-1.859-4.297-4.219-4.326l-35.418-.448c-.681 3.185-1.262 6.411-1.74 9.674l37.035.469c2.36.028 4.296-1.861 4.327-4.22z"/><path fill="#3C2415" d="M370.645 214.508c0 2.359-1.912 4.272-4.271 4.272h-59.488c-2.357 0-4.271-1.913-4.271-4.272v-1.15c0-2.359 1.911-4.272 4.271-4.272h59.488c2.359 0 4.271 1.913 4.271 4.272v1.15z"/><path fill="#2E1705" d="M280.57 185.181c-16.479 0-30.175 11.988-32.917 27.691h-16.748c-2.738-15.703-16.438-27.691-32.915-27.691-18.439 0-33.441 15.002-33.441 33.443s15.002 33.443 33.441 33.443c16.477 0 30.177-11.987 32.915-27.691h16.748c2.74 15.704 16.438 27.691 32.917 27.691 18.44 0 33.441-15.002 33.441-33.443s-14.999-33.443-33.441-33.443zm-82.578 55.383c-12.098 0-21.938-9.842-21.938-21.94s9.841-21.94 21.938-21.94c12.099 0 21.943 9.842 21.943 21.94s-9.844 21.94-21.943 21.94zm82.578 0c-12.098 0-21.941-9.842-21.941-21.94s9.844-21.94 21.941-21.94 21.938 9.842 21.938 21.94-9.84 21.94-21.938 21.94z"/><path fill="#3C2415" d="M246.913 265.043c-3.571-.014-7.631 4.972-7.631 4.972s-4.061-4.985-7.635-4.972c-13.287.052-46.647 4.812-60.555 35.167 0 0 22.522-2.856 62.477-1.916l5.713-6.711 5.715 6.711c39.952-.94 62.474 1.916 62.474 1.916-13.909-30.355-47.268-35.115-60.558-35.167z"/><path fill="#3C2415" d="M351.596 260.451v-6.305c9.705 0 17.604-7.896 17.604-17.601 0-9.706-7.896-17.601-17.604-17.601v-6.306c13.186 0 23.908 10.725 23.908 23.906 0 13.183-10.725 23.907-23.908 23.907z" opacity=".89"/><path fill="#2E1705" d="M252.702 311.045c0 3.561-6.01 6.446-13.419 6.446-7.413 0-13.422-2.887-13.422-6.446" opacity=".16"/><path fill="#3C2415" d="M196.199 214.624c5.286 0 9.586 4.301 9.586 9.586h-5.752c0-2.113-1.72-3.835-3.834-3.835-2.113 0-3.834 1.722-3.834 3.835h-5.752c0-5.285 4.301-9.586 9.586-9.586z"/><path fill="#3C2415" d="M281.984 214.624c5.285 0 9.586 4.301 9.586 9.586h-5.752c0-2.113-1.721-3.835-3.834-3.835-2.115 0-3.836 1.722-3.836 3.835h-5.75c0-5.285 4.301-9.586 9.586-9.586z"/><path fill="#FFC820" d="M277.547 520.847h-14.412c-6.355 0-11.525-5.168-11.525-11.522s5.171-11.523 11.525-11.523h14.412c6.354 0 11.523 5.17 11.523 11.523 0 6.354-5.17 11.522-11.523 11.522zm-14.412-17.295c-3.184 0-5.773 2.59-5.773 5.771 0 3.184 2.592 5.771 5.773 5.771h14.412c3.182 0 5.771-2.59 5.771-5.771 0-3.185-2.59-5.771-5.771-5.771h-14.412z"/><path fill="#C49A6C" d="M57.37 274.752s-7.355-13.364-10.479-29.09c-3.124-15.727 25.743-27.359 28.437-11.957 2.692 15.403 3.446 16.373 6.363 33.639 2.486 14.717-17.854 9.123-17.854 9.123l-6.467-1.715z"/><path fill="#C49A6C" d="M80.641 263.208c.606 2.294-.763 4.645-3.058 5.251-2.294.605-5.463-.087-6.068-2.381l-12.071-71.283c-.606-2.295.999-4.881 3.293-5.486 2.294-.606 4.646.999 5.251 3.293l12.653 70.606z"/><path fill="#C49A6C" d="M69.225 240.547c.643 2.543-.897 5.126-3.44 5.77l-.172.043c-2.543.644-5.127-.896-5.77-3.44l-11.475-47.97c-.644-2.544.896-5.127 3.439-5.77 2.544-.643 5.299.854 5.942 3.396l11.476 47.971z"/><path fill="#C49A6C" d="M62.716 245.009c.644 2.543-.896 5.127-3.44 5.771l-.172.043c-2.543.644-5.126-.897-5.77-3.44l-14.393-45.192c-.644-2.544.897-5.127 3.44-5.771l.172-.043c2.543-.644 5.126.897 5.77 3.44l14.393 45.192z"/><path fill="#C49A6C" d="M56.798 248.49c.612 2.418-.853 4.875-3.271 5.486l-.164.042c-2.418.611-4.874-.854-5.486-3.272l-13.327-32.228c-.611-2.418.281-4.177 2.3-5.111l.164-.042c2.418-.611 4.11 1.006 5.486 3.272l14.298 31.853z"/><path fill="#C49A6C" d="M66.075 252.554c-.612 2.418.853 4.875 3.271 5.486l.164.042c2.418.611 4.874-.854 5.486-3.272l13.504-35.623c.611-2.418-.281-4.177-2.3-5.111l-.164-.042c-2.418-.611-4.874.854-5.486 3.272l-14.475 35.248z"/><path fill="#C49A6C" d="M344.037 543.345s-2.062 3.738-3.471 5.021l-1.252-3.701 4.723-1.32z"/><path opacity=".07" fill="#3C2415" enable-background="new" d="M335.729 533.595l3.711 11.035-.123.035 1.252 3.701c1.408-1.283 3.471-5.021 3.471-5.021 11.516-9.623 45.307-38.34 60.598-56.453l-68.909 46.703z"/><linearGradient id="f" gradientUnits="userSpaceOnUse" x1="290.007" y1="632.316" x2="297.261" y2="629.156" gradientTransform="translate(46 -94.544)"><stop offset="0" stop-color="#311A09"/><stop offset=".166" stop-color="#351E0E" stop-opacity=".834"/><stop offset=".537" stop-color="#3A2213" stop-opacity=".463"/><stop offset="1" stop-color="#3C2415" stop-opacity="0"/></linearGradient><polygon opacity=".89" fill="url(#f)" enable-background="new" points="331.256,520.847 342.457,553.958 344.037,546.611 334.77,522.515"/><polygon fill="#4D3222" points="331.789,522.378 343.68,556.4 340.664,555.898 328.814,522.005"/><path opacity=".25" fill="#2E1705" enable-background="new" d="M255.827 307.469c-.326-.816-1.382-2.167-2.416-2.167h-27.950000000000003c-1.035 0-2.09 1.351-2.416 2.167-.326.816-.47 1.6-.47 1.6.734 0 1.309-.017 2.344-.017h29.034c1.035 0 1.609.017 2.344.017 0-.002-.145-.784-.47-1.6z"/><path opacity=".05" fill="#2E1705" enable-background="new" d="M374.836 143.856c13.991 23.329 21.132 51.833 21.132 82.608 0 78.969-60.967 142.988-136.174 142.988-42.91 0-81.178-20.848-106.138-53.416 24.192 39.725 66.569 66.06 114.805 66.06 75.207 0 136.174-64.019 136.174-142.988 0-36.588-10.098-69.962-29.799-95.252z"/><path fill="#2E1705" d="M182.164 220.624c-.44-3.686.902-7.643 3.562-10.474 1.308-1.438 2.951-2.567 4.74-3.366 1.801-.784 3.77-1.176 5.733-1.195 1.96.017 3.936.412 5.734 1.192 1.789.8 3.435 1.929 4.741 3.366 2.66 2.832 4.003 6.791 3.56 10.477-.408-3.677-2.096-7.021-4.663-9.373-2.56-2.35-5.95-3.691-9.372-3.662-3.423-.031-6.813 1.311-9.374 3.66-2.568 2.353-4.255 5.698-4.661 9.375z" opacity=".16"/><path fill="#2E1705" d="M267.949 220.624c-.44-3.686.902-7.643 3.562-10.474 1.308-1.438 2.95-2.567 4.739-3.366 1.801-.784 3.771-1.176 5.732-1.195 1.959.017 3.937.412 5.733 1.192 1.788.8 3.435 1.929 4.741 3.366 2.66 2.832 4.003 6.791 3.561 10.477-.408-3.677-2.097-7.021-4.664-9.373-2.56-2.35-5.948-3.691-9.371-3.662-3.424-.031-6.812 1.311-9.375 3.66-2.565 2.353-4.252 5.698-4.658 9.375z" opacity=".16"/><path opacity=".25" fill="#2E1705" enable-background="new" d="M351.596 254.146h-2.984v8.83s19 4.2 25.664-18.87c-.003 0-6.585 9.863-22.68 10.04z"/><path opacity=".32" fill="#2E1705" enable-background="new" d="M228.68 231.84s3.147-5.375 10.602-5.375 9.695 3.441 10.604 5.375c.908 1.932 1.851-12.205 1.851-12.205l-24.333-.333 1.276 12.538z"/><path opacity=".15" fill="#2E1705" enable-background="new" d="M227.401 253.552s3.053 5.764 11.88 5.616c6.953-.116 9.453-2.741 9.453-2.741s-3.063 6-9.453 6c-7.547 0-11.915-5.375-11.88-8.875z"/><path opacity=".25" fill="#fff" enable-background="new" d="M310.484 125.802s42.416 1.167 54.752 44.625l-20.606-3.634c-3.521-13.491-15.382-31.866-34.146-40.991z"/><path fill="#C49A6C" d="M73.908 225.64s1.133 4.667 3.076.483l-1.151 8.766-7.75-2.583 5.825-6.666z"/><path fill="#C49A6C" d="M78.866 244.604s-.907 2.792-.027 7.248l-9.468-3.245 9.495-4.003z"/></svg>