<?xml version="1.0" encoding="utf-8"?>
<!-- Generator: Adobe Illustrator 16.0.0, SVG Export Plug-In . SVG Version: 6.00 Build 0)  -->
<!DOCTYPE svg PUBLIC "-//W3C//DTD SVG 1.1//EN" "http://www.w3.org/Graphics/SVG/1.1/DTD/svg11.dtd">
<svg version="1.1" id="Layer_1" xmlns="http://www.w3.org/2000/svg" xmlns:xlink="http://www.w3.org/1999/xlink" x="0px" y="0px"
	 width="2500px" height="1000px" viewBox="0 0 2500 1000" enable-background="new 0 0 2500 1000" xml:space="preserve">
<circle fill="#F0B7D4" cx="913.561" cy="545.298" r="360.648"/>
<circle fill="#E56EA4" cx="913.561" cy="545.298" r="328.962"/>
<circle fill="#C75997" cx="913.561" cy="545.298" r="289.819"/>
<circle fill="#B03A7D" cx="913.561" cy="545.298" r="249.281"/>
<circle fill="#9E1F63" cx="913.561" cy="545.298" r="207.345"/>
<g>
	<defs>
		<path id="SVGID_1_" d="M451.895,451.419c0-199.181,263.069-393.285,462.249-393.285c199.181,0,438.019,318.986,438.019,518.166
			c0,58.034,48.585,109.863,24.231,158.433c-4.14,8.255-148.677-10.854-153.417-2.975
			c-63.079,104.857-177.978,175.006-309.262,175.004c-53.654,0-104.572-11.717-150.334-32.731
			c-12.44-5.712-141.423,70.906-153.054,63.868C505.923,874.716,451.895,582.358,451.895,451.419z"/>
	</defs>
	<clipPath id="SVGID_2_">
		<use xlink:href="#SVGID_1_"  overflow="visible"/>
	</clipPath>
	<g clip-path="url(#SVGID_2_)">
		<path fill="#68331C" stroke="#3E1E14" stroke-width="4.1766" stroke-miterlimit="10" d="M712.458,838.577
			c0,0,2.395,13.565-15.162,31.919c-17.556,18.355-35.911,18.355-35.911,18.355S555.248,771.542,555.248,752.39
			s7.98-16.27-4.788-32.074c-12.769-15.808-55.064-71.557-55.064-71.557l27.931-20.862l53.468,72.622
			c0,0,10.374,10.373,27.133,13.566c16.758,3.192,25.247,24.239,41.752,41.646C662.184,773.138,712.458,838.577,712.458,838.577z"/>
		<path fill="#DD802F" stroke="#3E1D14" stroke-width="4.1766" stroke-miterlimit="10" d="M625.06,729.78
			c0,0-5.86,15.161-21.075,28.594c-15.218,13.434-35.319,18.987-35.319,18.987l61.981,76.651c0,0,19.832-5.596,32.068-18.896
			c12.237-13.299,22.026-32.089,22.026-32.089L625.06,729.78z"/>
		<path fill="#FFEEA6" stroke="#918553" stroke-width="4.1766" stroke-miterlimit="10" d="M1175.221,838.238
			c0-14.456-10.627-26.398-24.496-28.521c3.832-5.32,6.107-11.825,6.107-18.883c0-17.891-14.505-32.395-32.395-32.395
			c-10.042,0-19.01,4.571-24.952,11.742c-4.74-9.472-14.514-15.992-25.822-15.992c-15.958,0-28.891,12.937-28.891,28.893
			c0,2.723,0.404,5.348,1.11,7.849c-0.644-0.021-1.266-0.097-1.918-0.097c-33.803,0-61.207,27.405-61.207,61.213
			c0,20.255,9.881,38.16,25.04,49.304c-0.148,1.116-0.243,2.248-0.243,3.409c0,14.626,11.857,26.486,26.487,26.486
			c3.321,0,6.484-0.639,9.414-1.753c3.859,13.042,15.914,22.559,30.207,22.559c17.409,0,31.518-14.108,31.518-31.52
			c0-2.404-0.295-4.739-0.809-6.991c5.522,4.368,12.484,6.991,20.065,6.991c17.89,0,32.395-14.503,32.395-32.391
			c0-8.087-2.98-15.468-7.883-21.146C1163.674,865.673,1175.221,853.31,1175.221,838.238z"/>
		<path fill="#F9E46B" stroke="#827436" stroke-width="4.1766" stroke-miterlimit="10" d="M934.709,309.491
			c0,0,36.042-48.946,37.108-80.868c1.067-31.92,3.645-50.489-33.599-79.217c-31.839-23.067-17.476-68.554-17.476-68.554
			s46.154,18.222,66.238,35.512c20.081,17.29,64.109,52.138,23.143,133.54c-52.138,91.508-44.689,100.02-44.689,100.02
			s21.547,37.959,42.562,78.204c16.49,48.944-11.175,115.445-4.258,122.363c6.918,6.917,86.415,32.324,120.9,39.103
			c34.487,6.779,81.799,25.538,105.739,19.952c23.94-5.587,31.389-52.139,55.063-46.287c23.676,5.853,0,52.67,0,52.67
			s37.509,11.173,57.459,29.528c19.949,18.354,11.172,43.891-6.385,55.86c-17.556,11.97-37.508,11.173-66.236,0
			c-28.729-11.172-101.885-50.656-149.768-57.837c-47.881-7.184-86.847-6.006-86.847-6.006s57.856,69.695,53.866,125.821
			c-3.989,56.129-24.738,80.867-24.738,102.415c0,21.546-11.173,100.553-7.184,145.241c3.99,44.69,44.69,124.492,44.69,146.036
			c0,21.549-19.152,99.756-45.487,98.957c-26.335-0.797-82.196-2.394-81.398-29.525c0.799-27.133,47.881-59.854,56.658-79.006
			c8.779-19.152-31.122-89.378-27.131-139.654c3.989-50.274,5.585-103.744,5.585-103.744s-21.545,15.163-56.658,19.95
			c-35.114,4.789-42.297,3.192-42.297,3.192s-34.313,124.494-74.216,135.665c-39.902,11.173-64.642-6.384-71.025-0.798
			c-6.384,5.585-29.528,102.146-46.285,113.32c-16.76,11.171-43.094,19.152-61.448-20.749
			c-18.354-39.9,26.335-90.975,37.506-114.118c11.174-23.141,37.508-38.304,61.448-24.737c23.941,13.566,71.027-4.789,82.197-45.489
			c11.174-40.698,31.921-71.822,31.921-71.822s-36.71-18.355-26.334-77.408c10.375-59.054,9.577-110.925,1.596-123.693
			c-7.979-12.77-27.93,62.246-42.295,68.629c-14.365,6.384-109.329,45.489-109.329,45.489l-24.74-31.923
			c0,0-26.334,24.74-35.911,9.578c-9.575-15.164,14.365-43.893,35.911-39.903c21.547,3.992,22.345,16.228,30.325,14.098
			c7.98-2.126,74.747-32.448,80.333-48.408c5.585-15.962,5.585-24.213,10.11-62.25c4.522-38.037,23.675-72.188,38.04-71.79
			c6.576-0.455,8.079-2.086,8.079-2.086s-7.282-5.127-35.213-19.492c-18.885-9.308-42.295-46.285-34.316-88.581
			c7.982-42.295,24.741-80.601,25.539-92.572c0.797-11.97,11.97-49.477,20.749-51.871s17.556-8.778,17.556-8.778
			s1.595-42.295-34.316-19.153s-87.783,84.59-147.635,41.498c-59.852-43.094-17.333-79.803-17.333-79.803
			s48.456,37.508,89.156,18.355c40.699-19.153,86.985-54.266,115.713-35.113c28.729,19.152,34.314,65.438,34.314,65.438
			s11.705-2.925,32.987-2.925C923.937,305.762,934.709,309.491,934.709,309.491z"/>
		<g>
			<path fill="#E7C329" d="M870.004,421.99c0,0,11.902,15.843-17.36,22.959c-29.259,7.115-21.078-17.357-21.078-17.357"/>
			<path fill="#6B5F2A" d="M870.004,421.99c0,0,0.184,0.21,0.486,0.64c0.297,0.432,0.735,1.075,1.144,1.977
				c0.413,0.896,0.836,2.038,1.073,3.423c0.238,1.379,0.229,3.025-0.259,4.729c-0.487,1.701-1.479,3.407-2.843,4.882
				c-1.359,1.485-3.051,2.773-4.919,3.84c-1.872,1.061-3.879,2.021-5.996,2.739c-1.046,0.4-2.13,0.693-3.204,1.041
				c-1.096,0.282-2.156,0.612-3.29,0.855c-2.134,0.497-4.472,0.862-6.698,1.048c-2.254,0.15-4.52,0.045-6.676-0.449
				c-2.142-0.494-4.203-1.465-5.657-2.972c-1.481-1.477-2.333-3.309-2.707-5.01c-0.404-1.707-0.428-3.299-0.338-4.678
				c0.087-1.383,0.315-2.563,0.537-3.521c0.22-0.959,0.465-1.691,0.632-2.188c0.171-0.496,0.278-0.753,0.278-0.753
				s-0.283,1.086-0.5,3.012c-0.107,0.961-0.183,2.134-0.147,3.465c0.045,1.329,0.222,2.824,0.696,4.344
				c0.463,1.521,1.33,3.024,2.625,4.199c1.285,1.195,3.066,1.912,4.978,2.307c1.928,0.391,4.015,0.376,6.128,0.234
				c2.14-0.209,4.207-0.548,6.406-1.076c1.046-0.211,2.119-0.53,3.173-0.788c1.038-0.325,2.094-0.597,3.099-0.97
				c2.038-0.681,3.983-1.49,5.767-2.439c1.775-0.957,3.399-2.043,4.696-3.317c1.29-1.272,2.275-2.701,2.828-4.177
				c0.529-1.48,0.708-2.958,0.625-4.269c-0.084-1.312-0.371-2.45-0.68-3.359C870.634,422.933,870.004,421.99,870.004,421.99z"/>
		</g>
		<g>
			<path fill="#FFFFFF" d="M869.247,405.713c-3.143-12.054-15.101-19.375-26.718-16.35c-11.619,3.023-18.489,15.248-15.353,27.302
				c3.141,12.054,15.1,19.376,26.718,16.351C865.511,429.992,872.383,417.767,869.247,405.713z"/>
			<path fill="#4A494A" d="M869.147,405.744c0,0-0.166-0.518-0.478-1.487c-0.083-0.241-0.156-0.518-0.271-0.808
				c-0.123-0.285-0.258-0.596-0.404-0.933c-0.145-0.336-0.3-0.698-0.484-1.075c-0.21-0.364-0.433-0.752-0.669-1.161
				c-0.948-1.624-2.341-3.484-4.332-5.167c-1.96-1.704-4.488-3.243-7.455-4.271c-2.97-1.002-6.384-1.465-9.937-1.047
				c-0.448,0.023-0.883,0.148-1.332,0.218c-0.428,0.093-0.934,0.142-1.309,0.272c-0.915,0.271-1.891,0.491-2.712,0.868
				c-1.74,0.632-3.45,1.655-5.023,2.842c-1.602,1.181-2.981,2.702-4.19,4.367l-0.852,1.298c-0.262,0.447-0.48,0.922-0.723,1.384
				c-0.255,0.458-0.454,0.942-0.639,1.434c-0.182,0.492-0.415,0.969-0.54,1.483c-0.657,2.01-0.922,4.141-0.975,6.264
				c-0.004,2.122,0.375,4.274,0.896,6.27c0.687,2.111,1.491,3.984,2.627,5.765c1.137,1.752,2.435,3.395,3.98,4.755
				c1.547,1.343,3.195,2.559,5.009,3.42c1.809,0.842,3.677,1.539,5.596,1.823c1.905,0.296,3.817,0.43,5.663,0.194
				c0.931-0.046,1.822-0.287,2.714-0.456l0.167-0.032c0.031-0.005,0.167-0.034,0.112-0.019l0.342-0.105l0.681-0.208
				c0.438-0.148,0.934-0.255,1.317-0.434c3.21-1.258,6.047-3.319,8.142-5.615c2.1-2.327,3.561-4.899,4.446-7.338
				c0.92-2.436,1.228-4.738,1.267-6.617c0.007-0.472,0.014-0.919,0.02-1.339c-0.022-0.419-0.063-0.812-0.1-1.177
				c-0.06-0.732-0.135-1.353-0.255-1.847c-0.197-0.995-0.302-1.525-0.302-1.525L869.147,405.744z M869.348,405.687
				c0,0,0.117,0.533,0.336,1.533c0.131,0.497,0.219,1.122,0.295,1.861c0.046,0.369,0.095,0.766,0.147,1.189
				c0.016,0.427,0.033,0.88,0.051,1.358c0.026,0.48,0.04,0.986-0.009,1.515c-0.029,0.529-0.037,1.088-0.088,1.667
				c-0.082,0.576-0.166,1.176-0.254,1.798c-0.094,0.623-0.275,1.251-0.417,1.914c-0.686,2.608-1.91,5.502-3.993,8.194
				c-2.101,2.689-5.054,5.018-8.786,6.542c-0.465,0.216-0.896,0.312-1.351,0.475l-0.677,0.222l-0.34,0.111
				c-0.23,0.065-0.275,0.064-0.422,0.1c-0.989,0.199-1.983,0.448-3.018,0.504c-2.052,0.251-4.186,0.116-6.284-0.286
				c-4.206-0.822-8.267-2.93-11.469-6.029c-1.609-1.545-2.935-3.374-4.066-5.3c-1.086-1.946-1.853-4.156-2.372-6.219
				c-0.461-2.236-0.701-4.415-0.584-6.631c0.135-2.194,0.466-4.374,1.146-6.438c1.328-4.13,3.709-7.845,6.832-10.639
				c1.582-1.375,3.273-2.56,5.173-3.403c0.945-0.491,1.854-0.763,2.76-1.087c0.53-0.194,0.981-0.242,1.473-0.369
				c0.483-0.095,0.956-0.244,1.441-0.29c3.865-0.539,7.648,0.006,10.771,1.311c3.132,1.313,5.614,3.237,7.486,5.174
				c0.448,0.508,0.912,0.968,1.298,1.465c0.38,0.5,0.747,0.982,1.099,1.445c0.327,0.479,0.606,0.963,0.89,1.41
				c0.302,0.438,0.537,0.885,0.748,1.316c0.218,0.426,0.425,0.83,0.619,1.209c0.162,0.396,0.313,0.767,0.455,1.111
				c0.297,0.685,0.526,1.272,0.654,1.766c0.298,0.975,0.457,1.494,0.457,1.494L869.348,405.687z"/>
		</g>
		<g>
			<path d="M849.08,424.686c-4.762,0-8.952-3.315-10.191-8.062c-0.716-2.752-0.354-5.611,1.017-8.051
				c1.387-2.467,3.638-4.212,6.339-4.915c0.833-0.218,1.692-0.328,2.551-0.328c4.767,0,8.958,3.316,10.19,8.063
				c0.715,2.75,0.354,5.609-1.019,8.05c-1.387,2.468-3.638,4.213-6.337,4.916C850.796,424.576,849.938,424.686,849.08,424.686
				C849.08,424.686,849.08,424.686,849.08,424.686z"/>
			<path fill="#6AADDF" d="M848.796,405.418c3.722,0,7.157,2.602,8.168,6.5c1.197,4.599-1.424,9.266-5.86,10.419
				c-0.676,0.176-1.354,0.261-2.024,0.261c-3.719,0-7.153-2.603-8.171-6.501c-1.196-4.599,1.421-9.263,5.861-10.417
				C847.446,405.503,848.125,405.418,848.796,405.418 M848.796,401.242c-1.036,0-2.072,0.133-3.08,0.396
				c-3.252,0.846-5.963,2.945-7.63,5.912c-1.638,2.914-2.071,6.322-1.218,9.599c1.48,5.669,6.502,9.626,12.213,9.626
				c1.036,0,2.071-0.133,3.078-0.396c3.25-0.846,5.961-2.945,7.629-5.913c1.639-2.915,2.072-6.324,1.219-9.6
				C859.536,405.201,854.514,401.242,848.796,401.242L848.796,401.242z"/>
		</g>
		<circle fill="#FFFFFF" cx="855.96" cy="415.271" r="5.038"/>
		<path fill="#E56EA4" stroke="#6D3351" stroke-width="2.0883" stroke-miterlimit="10" d="M958.323,116.145
			c0,0,7.111,27.35,20.144,39.055c13.034,11.706,11.973,15.961,13.302,35.779c1.327,19.817,7.089,40.997,9.131,41.313
			c1.427,0.221,12.709-23.782,11.58-47.565c-0.485-10.232-7.448-20.205-11.58-28.555
			C990.172,138.975,958.323,116.145,958.323,116.145z"/>
		<g>
			<path fill="#F9E46B" d="M800.641,421.286c0,0,16.889,3.647,36.84-5.663c19.951-9.31,25.008-20.35,25.008-20.35
				s-2.396-39.901-17.558-39.901c-15.162,0-11.64,11.44-29.128,19.951"/>
			<path fill="#827436" d="M800.641,421.286c1.461,0.181,2.93,0.24,4.394,0.261c1.465,0.011,2.926-0.014,4.383-0.095l2.181-0.161
				l2.171-0.227c1.441-0.198,2.884-0.368,4.305-0.667c1.428-0.253,2.839-0.582,4.246-0.915c1.408-0.327,2.788-0.767,4.173-1.162
				c1.358-0.491,2.743-0.892,4.073-1.451c1.336-0.537,2.689-1.023,3.981-1.662l1.956-0.904c0.586-0.273,1.283-0.665,1.919-0.992
				l1.947-1.029l1.843-1.08c1.244-0.677,2.439-1.489,3.653-2.247c1.181-0.807,2.37-1.605,3.495-2.48l1.684-1.314l1.619-1.382
				c1.049-0.952,2.083-1.914,3.061-2.923c0.977-1.009,1.9-2.062,2.745-3.155c0.426-0.546,0.822-1.104,1.202-1.667l0.529-0.847
				c0.157-0.267,0.342-0.6,0.423-0.771l-0.183,0.979c-0.121-1.647-0.298-3.367-0.501-5.05c-0.212-1.689-0.41-3.381-0.67-5.063
				c-0.506-3.364-1.133-6.709-1.959-9.982c-0.401-1.641-0.889-3.248-1.375-4.85c-0.527-1.582-1.076-3.159-1.755-4.653
				c-0.683-1.485-1.415-2.954-2.327-4.238c-0.904-1.286-1.939-2.434-3.114-3.271c-0.586-0.424-1.217-0.738-1.871-0.969
				c-0.336-0.074-0.659-0.229-1.007-0.258c-0.322-0.027-0.749-0.094-0.988-0.107c-0.859,0.025-1.743,0.03-2.581,0.073
				c-0.748,0.14-1.516,0.164-2.263,0.371c-1.528,0.344-2.929,0.983-4.23,1.863c-1.261,0.951-2.435,2.108-3.557,3.393
				c-1.13,1.281-2.268,2.606-3.491,3.877l-0.915,0.951l-0.967,0.906c-0.629,0.618-1.313,1.178-2.007,1.722
				c-0.671,0.571-1.406,1.058-2.134,1.549l-1.09,0.734l-1.141,0.649c-1.497,0.904-3.123,1.555-4.69,2.282
				c1.468-0.929,2.969-1.78,4.321-2.849l1.042-0.752l0.98-0.83c0.652-0.552,1.307-1.095,1.893-1.717
				c0.604-0.6,1.218-1.182,1.767-1.834l0.847-0.949l0.798-0.997c1.071-1.318,2.045-2.736,3.116-4.122
				c1.06-1.398,2.252-2.783,3.677-4.018c1.482-1.173,3.204-2.129,5.035-2.648c0.907-0.297,1.882-0.401,2.828-0.596
				c0.884-0.09,1.731-0.137,2.598-0.207c2.166-0.083,4.189,0.538,5.907,1.625c1.714,1.074,3.053,2.514,4.179,4.018
				c1.137,1.509,2.004,3.127,2.814,4.756c0.802,1.634,1.444,3.309,2.062,4.99c0.586,1.686,1.106,3.39,1.545,5.104
				c0.901,3.426,1.585,6.883,2.143,10.353c0.274,1.735,0.535,3.472,0.719,5.219c0.192,1.753,0.354,3.476,0.468,5.28l0.034,0.534
				l-0.217,0.446c-0.239,0.491-0.423,0.793-0.64,1.16c-0.212,0.349-0.431,0.679-0.649,1.016c-0.448,0.652-0.91,1.288-1.395,1.896
				c-0.965,1.223-1.995,2.373-3.074,3.464c-1.075,1.097-2.209,2.121-3.375,3.101l-1.78,1.427l-1.834,1.344
				c-1.224,0.893-2.503,1.698-3.773,2.509c-1.303,0.761-2.568,1.564-3.928,2.254l-2.018,1.05l-2.002,0.932
				c-0.688,0.31-1.287,0.614-2.048,0.929l-2.093,0.843c-1.38,0.595-2.821,1.035-4.239,1.522c-1.419,0.489-2.893,0.804-4.332,1.211
				c-1.466,0.311-2.922,0.663-4.399,0.898l-2.213,0.353c-0.739,0.105-1.486,0.16-2.227,0.241c-1.481,0.175-2.976,0.217-4.459,0.287
				l-2.23,0.029l-2.228-0.077c-1.483-0.083-2.961-0.2-4.429-0.397C803.527,421.908,802.067,421.656,800.641,421.286z"/>
		</g>
		<g>
			<path fill="#713757" d="M978.6,272.377c0,0,0.406-0.655,1.166-1.884c0.76-1.229,1.825-3.061,3.196-5.379
				c2.741-4.638,6.454-11.384,10.558-19.635c4.064-8.262,8.524-18.063,12.1-28.948c1.792-5.435,3.287-11.161,4.28-17.039
				c0.972-5.871,1.37-11.944,0.607-17.847l-0.383-2.188l-0.189-1.094l-0.287-1.066l-0.577-2.13l-0.762-2.12
				c-0.254-0.731-0.522-1.442-0.826-2.102l-0.874-2.025c-0.66-1.332-1.288-2.687-2.014-3.982
				c-2.872-5.204-6.219-10.068-9.817-14.503c-7.223-8.865-15.07-16.241-22.032-22.252c-6.999-5.982-13.118-10.657-17.508-13.778
				c-2.197-1.558-3.923-2.787-5.12-3.596c-1.201-0.803-1.842-1.231-1.842-1.231s0.672,0.378,1.932,1.087
				c1.25,0.726,3.093,1.782,5.37,3.234c4.55,2.904,11.028,7.132,18.311,12.895c3.646,2.874,7.507,6.109,11.397,9.756
				c3.896,3.638,7.861,7.653,11.62,12.129c3.741,4.483,7.349,9.385,10.343,14.807c0.764,1.346,1.428,2.753,2.13,4.153
				c0.608,1.445,1.344,2.923,1.823,4.353l0.809,2.212l0.646,2.319l0.317,1.162l0.214,1.18l0.422,2.362
				c0.781,6.345,0.309,12.699-0.731,18.772c-1.043,6.086-2.75,11.903-4.652,17.411c-1.902,5.513-4.106,10.694-6.343,15.526
				c-2.229,4.836-4.546,9.302-6.775,13.369c-4.445,8.144-8.657,14.625-11.631,19.129c-1.486,2.254-2.73,3.975-3.569,5.151
				C979.055,271.755,978.6,272.377,978.6,272.377z"/>
		</g>
		<g>
			<path fill="#827435" d="M958.651,320.658c0,0-1.604-0.841-4.494-2.092c-1.438-0.638-3.216-1.34-5.252-2.129
				c-2.036-0.79-4.372-1.576-6.918-2.408c-2.549-0.829-5.347-1.598-8.312-2.354c-2.966-0.756-6.123-1.419-9.403-1.981
				c-3.276-0.588-6.685-1.051-10.158-1.354c-3.473-0.312-7.01-0.512-10.548-0.509l-0.663-0.005h-0.289l-0.338,0.01l-1.351,0.039
				l-2.696,0.066c-1.815-0.01-3.526,0.148-5.269,0.229c-1.729,0.067-3.459,0.25-5.166,0.415c-0.854,0.076-1.703,0.152-2.546,0.228
				c-0.841,0.1-1.675,0.199-2.503,0.297c-0.828,0.1-1.649,0.199-2.462,0.297c-0.81,0.126-1.611,0.251-2.405,0.375
				c-0.794,0.119-1.581,0.236-2.357,0.353c-0.773,0.136-1.538,0.27-2.292,0.402c-0.754,0.133-1.499,0.265-2.232,0.395
				c-0.729,0.152-1.446,0.303-2.152,0.451c-0.708,0.145-1.403,0.286-2.085,0.426c-0.68,0.154-1.347,0.305-2,0.453
				c-1.312,0.283-2.557,0.599-3.74,0.911c-1.189,0.291-2.312,0.589-3.365,0.881c-2.106,0.583-3.933,1.139-5.436,1.608
				c-3,0.957-4.694,1.606-4.694,1.606s1.514-1.007,4.357-2.431c1.418-0.717,3.164-1.549,5.213-2.394
				c2.039-0.874,4.379-1.769,6.973-2.626c1.294-0.44,2.643-0.903,4.066-1.286c0.708-0.204,1.429-0.411,2.162-0.621
				c0.738-0.188,1.487-0.377,2.247-0.57c0.761-0.192,1.532-0.387,2.312-0.583c0.785-0.179,1.583-0.339,2.391-0.5
				c0.808-0.163,1.625-0.327,2.449-0.493c0.83-0.138,1.667-0.277,2.512-0.418c1.689-0.283,3.408-0.575,5.164-0.747
				c1.753-0.195,3.522-0.409,5.339-0.507c1.801-0.111,3.654-0.298,5.432-0.314l2.697-0.049l1.351-0.019l0.338-0.005l0.387,0.003
				l0.688,0.014c3.671,0.061,7.342,0.256,10.926,0.705c3.584,0.448,7.085,1.057,10.438,1.79c3.348,0.757,6.54,1.661,9.528,2.616
				c2.99,0.955,5.753,2.04,8.275,3.088c2.525,1.045,4.771,2.158,6.745,3.161c1.974,1.004,3.637,1.99,4.998,2.805
				C957.224,319.539,958.651,320.658,958.651,320.658z"/>
		</g>
		<g>
			<path fill="#E7C329" d="M944.954,415.252c0,0,1.856,26.174-30.296,29.368c-27.961,3.191-33.255-17.924-33.255-17.924"/>
			<path fill="#6B5F2A" d="M944.954,415.252c0,0,0.045,0.342,0.076,0.99c0.026,0.647,0.057,1.602-0.04,2.812
				c-0.2,2.403-0.697,5.924-2.49,9.77c-0.879,1.92-2.082,3.905-3.664,5.766c-1.564,1.871-3.496,3.618-5.72,5.088
				c-2.218,1.472-4.691,2.728-7.327,3.621c-2.631,0.906-5.379,1.562-8.154,1.994c-2.806,0.36-5.51,0.643-8.334,0.648
				c-2.771,0.003-5.508-0.297-8.099-0.871c-2.593-0.566-5.022-1.477-7.175-2.611c-2.161-1.126-4.02-2.514-5.566-3.95
				c-3.113-2.889-4.834-6.021-5.837-8.213c-0.504-1.106-0.788-2.02-0.975-2.639c-0.182-0.622-0.246-0.961-0.246-0.961
				s0.41,1.33,1.573,3.425c1.146,2.087,3.126,4.942,6.255,7.513c1.555,1.288,3.4,2.472,5.476,3.462
				c2.074,0.997,4.407,1.713,6.867,2.203c2.463,0.485,5.069,0.689,7.719,0.639c2.6-0.022,5.381-0.329,8.032-0.697
				c2.662-0.439,5.299-1.009,7.801-1.855c2.501-0.842,4.86-1.943,6.979-3.268c2.112-1.333,3.981-2.889,5.541-4.573
				c1.556-1.688,2.796-3.497,3.761-5.269c1.909-3.567,2.795-6.913,3.17-9.27C944.967,416.641,944.954,415.252,944.954,415.252z"/>
		</g>
		<path fill="#E56EA4" stroke="#6D3351" stroke-width="2.0883" stroke-miterlimit="10" d="M649.354,289.613
			c0,0-4.327,37.03,55.125,31.045c22.591-2.276,58.296-22.219,87.252-34.316c7.747-3.237,19.529-11.626,30.257-11.171
			c10.312,0.438,19.625,9.693,24.272,8.06c0,0-2.526-10.255-6.021-14.764c0,0-5.054-8.478-11.353-11.992
			c-6.301-3.515-13.152,0.553-13.152,0.553s-72.853,42.725-111.25,42.368C666.093,299.04,649.354,289.613,649.354,289.613z"/>
		<g>
			<ellipse fill="#FFFFFF" cx="909.472" cy="392.084" rx="39.468" ry="45.221"/>
			<path fill="#4A494A" d="M948.835,392.086c0,0-0.05-1.037-0.143-2.985c-0.023-0.487-0.05-1.031-0.078-1.63
				c-0.081-0.592-0.169-1.237-0.265-1.936c-0.1-0.697-0.207-1.446-0.32-2.246c-0.136-0.795-0.372-1.625-0.57-2.509
				c-0.766-3.542-2.309-7.721-4.771-12.094c-2.458-4.368-6.01-8.885-10.791-12.704c-4.733-3.859-10.861-6.801-17.755-7.872
				c-0.852-0.205-1.737-0.172-2.615-0.252l-1.327-0.085l-0.666-0.043c-0.125-0.005-0.429,0.019-0.635,0.027
				c-0.916,0.038-1.839,0.077-2.766,0.115c-0.231,0.012-0.467,0.013-0.695,0.034l-0.665,0.106l-1.339,0.211
				c-1.806,0.185-3.581,0.808-5.398,1.277c-1.734,0.716-3.563,1.292-5.223,2.272l-1.277,0.674c-0.213,0.115-0.431,0.221-0.64,0.343
				l-0.604,0.404c-0.807,0.54-1.617,1.082-2.431,1.626c-0.779,0.59-1.524,1.235-2.281,1.868c-0.369,0.327-0.772,0.619-1.117,0.975
				l-1.039,1.066l-1.042,1.07l-0.523,0.536l-0.472,0.583c-0.628,0.78-1.258,1.562-1.889,2.346c-0.605,0.804-1.127,1.671-1.698,2.507
				c-0.275,0.425-0.571,0.838-0.83,1.274l-0.707,1.351c-1.992,3.552-3.351,7.459-4.354,11.437l-0.633,3.02
				c-0.155,1.017-0.25,2.044-0.379,3.065l-0.182,1.533l-0.049,1.544l-0.091,3.061l0.19,3.115l0.1,1.556l0.23,1.514
				c0.161,1.007,0.288,2.016,0.473,3.016l0.722,2.979c1.062,3.929,2.472,7.773,4.498,11.246l0.719,1.321
				c0.264,0.425,0.549,0.836,0.822,1.254c0.562,0.825,1.077,1.681,1.672,2.474c0.622,0.773,1.242,1.544,1.861,2.314l0.464,0.575
				l0.515,0.528l1.027,1.055l1.022,1.052c0.339,0.352,0.735,0.639,1.1,0.961c0.749,0.62,1.469,1.271,2.23,1.859
				c0.795,0.545,1.587,1.088,2.376,1.629l0.59,0.406c0.204,0.122,0.417,0.229,0.625,0.345l1.252,0.679
				c1.623,0.991,3.422,1.567,5.121,2.31c1.787,0.491,3.521,1.139,5.332,1.356l1.339,0.233l0.667,0.117
				c0.223,0.023,0.449,0.028,0.673,0.043c0.896,0.052,1.789,0.104,2.675,0.155l0.602,0.038l0.684-0.036l1.361-0.072
				c0.893-0.071,1.837-0.034,2.65-0.228c6.754-0.981,13.008-3.832,17.705-7.703c4.775-3.814,8.34-8.315,10.799-12.682
				c2.463-4.371,4.006-8.548,4.774-12.087c0.199-0.884,0.437-1.712,0.573-2.508c0.114-0.8,0.222-1.55,0.322-2.248
				c0.097-0.699,0.186-1.345,0.268-1.937c0.029-0.597,0.057-1.14,0.08-1.625C948.784,393.121,948.835,392.086,948.835,392.086z
				 M949.044,392.082c0,0-0.04,1.044-0.116,2.997c-0.02,0.488-0.04,1.034-0.063,1.634c-0.076,0.596-0.159,1.247-0.249,1.95
				c-0.086,0.704-0.18,1.46-0.278,2.268c-0.116,0.805-0.331,1.644-0.507,2.54c-0.312,1.806-0.93,3.734-1.553,5.854
				c-0.322,1.057-0.803,2.104-1.223,3.223c-0.396,1.131-0.978,2.225-1.553,3.369c-2.314,4.548-5.666,9.43-10.527,13.58l-0.903,0.794
				l-0.986,0.71c-0.662,0.475-1.331,0.955-2.007,1.44c-0.682,0.475-1.439,0.848-2.167,1.282c-0.749,0.396-1.453,0.901-2.265,1.208
				c-1.584,0.692-3.182,1.447-4.923,1.885l-1.291,0.387c-0.43,0.134-0.862,0.266-1.323,0.33c-0.909,0.163-1.824,0.326-2.745,0.491
				c-0.937,0.212-1.81,0.178-2.721,0.261l-1.36,0.086l-0.684,0.043c0.029-0.001-0.135,0.008-0.15,0.004l-0.089-0.004l-0.177-0.009
				l-0.354-0.019c-0.945-0.055-1.896-0.109-2.853-0.165c-0.239-0.017-0.479-0.023-0.718-0.049l-0.711-0.124l-1.428-0.25
				c-1.93-0.241-3.777-0.922-5.679-1.457c-0.918-0.362-1.827-0.761-2.744-1.15c-0.935-0.354-1.798-0.861-2.672-1.354l-1.315-0.737
				c-0.218-0.125-0.441-0.242-0.656-0.375l-0.619-0.436c-0.825-0.582-1.653-1.167-2.484-1.753c-0.796-0.63-1.546-1.323-2.324-1.986
				c-0.378-0.343-0.79-0.653-1.142-1.025l-1.06-1.116l-1.062-1.12l-0.532-0.562l-0.479-0.607c-0.636-0.812-1.274-1.627-1.914-2.444
				c-0.611-0.836-1.139-1.734-1.713-2.602c-0.277-0.44-0.572-0.871-0.836-1.32l-0.719-1.39c-2.023-3.659-3.396-7.672-4.4-11.75
				l-0.641-3.092c-0.158-1.045-0.256-2.104-0.385-3.155l-0.182-1.578l-0.047-1.56l-0.085-3.12l0.184-3.174l0.098-1.571l0.23-1.558
				c0.161-1.037,0.29-2.077,0.478-3.106l0.73-3.051c1.062-4.03,2.486-7.978,4.543-11.559l0.731-1.36l0.828-1.3
				c0.566-0.856,1.084-1.744,1.687-2.569c0.63-0.806,1.258-1.61,1.885-2.412l0.472-0.6l0.523-0.553l1.046-1.105l1.043-1.102
				c0.347-0.368,0.752-0.672,1.125-1.011c0.769-0.649,1.496-1.347,2.273-1.977c0.812-0.587,1.622-1.173,2.429-1.756l0.605-0.438
				c0.21-0.133,0.429-0.25,0.643-0.376l1.289-0.742c1.676-1.07,3.536-1.741,5.315-2.543c1.87-0.557,3.676-1.263,5.612-1.537
				l1.428-0.272l0.712-0.134c0.233-0.029,0.464-0.038,0.696-0.059c0.926-0.068,1.846-0.136,2.761-0.204
				c0.252-0.012,0.406-0.035,0.737-0.038l0.7,0.036l1.396,0.073c0.925,0.073,1.856,0.035,2.755,0.236
				c0.904,0.153,1.803,0.305,2.694,0.456c0.45,0.057,0.883,0.184,1.312,0.312l1.289,0.372c1.74,0.418,3.341,1.152,4.926,1.831
				c0.812,0.3,1.52,0.797,2.27,1.187c0.73,0.428,1.49,0.794,2.175,1.263c0.676,0.482,1.346,0.96,2.008,1.434l0.985,0.709
				l0.902,0.793c4.855,4.146,8.221,9.011,10.536,13.557c0.575,1.144,1.156,2.237,1.554,3.368c0.42,1.118,0.899,2.166,1.223,3.221
				c0.623,2.12,1.241,4.047,1.556,5.852c0.177,0.896,0.392,1.734,0.508,2.539c0.101,0.808,0.194,1.565,0.281,2.27
				c0.091,0.704,0.175,1.355,0.252,1.951c0.024,0.599,0.046,1.143,0.065,1.63C949.002,391.04,949.044,392.082,949.044,392.082z"/>
		</g>
		<ellipse stroke="#6AADDF" stroke-width="4.1766" stroke-miterlimit="10" cx="914.658" cy="414.033" rx="13.838" ry="15.854"/>
		<g>
			<path fill="#F9E46B" d="M957.054,369.337c0,0-23.741,19.156-47.581,22.747c-23.842,3.591-46.983,3.189-46.983,3.189
				s-8.78-46.285,0.796-55.862c9.577-9.576,53.867,9.577,67.434,2.794"/>
			<path fill="#827436" d="M957.054,369.337c-1.585,1.368-3.223,2.678-4.889,3.952c-1.661,1.28-3.369,2.501-5.099,3.69
				c-1.72,1.207-3.484,2.35-5.271,3.459l-2.696,1.641l-2.747,1.561c-0.908,0.535-1.852,1.005-2.785,1.498
				c-0.938,0.482-1.862,0.994-2.828,1.424l-2.874,1.34c-0.961,0.444-1.952,0.819-2.928,1.232c-1.941,0.854-3.975,1.488-5.974,2.215
				c-1.015,0.322-2.048,0.592-3.074,0.885l-1.542,0.432l-1.572,0.333l-3.177,0.651l-3.103,0.463c-2.072,0.301-4.13,0.635-6.213,0.91
				l-6.296,0.702c-2.102,0.257-4.193,0.379-6.291,0.567c-2.096,0.183-4.192,0.347-6.293,0.457c-2.1,0.12-4.198,0.275-6.301,0.339
				c-2.102,0.072-4.204,0.156-6.31,0.181c-2.108,0.045-4.2,0.062-6.339,0.049l-1.662-0.01l-0.31-1.652
				c-0.493-2.631-0.919-5.219-1.318-7.835c-0.394-2.611-0.764-5.227-1.059-7.853c-0.603-5.251-1.049-10.529-1.229-15.843
				c-0.152-5.316-0.113-10.673,0.858-16.082c0.51-2.692,1.187-5.446,2.822-8.058c0.209-0.323,0.392-0.652,0.673-0.954l0.392-0.458
				l0.197-0.227l0.1-0.113l0.05-0.056l0.024-0.028c-0.108,0.096,0.176-0.163,0.155-0.142c0.53-0.408,0.925-0.812,1.799-1.264
				c1.552-0.873,2.901-1.154,4.35-1.424c2.836-0.426,5.569-0.33,8.252-0.115c2.684,0.223,5.314,0.62,7.923,1.071
				c5.218,0.907,10.332,2.113,15.45,3.232c5.114,1.127,10.211,2.297,15.364,3.074c2.573,0.394,5.163,0.701,7.762,0.751
				c2.585,0.045,5.232-0.113,7.67-1.123c-2.338,1.223-5.028,1.646-7.656,1.816c-2.645,0.145-5.292,0.027-7.924-0.178
				c-2.634-0.213-5.246-0.565-7.853-0.934c-2.606-0.374-5.203-0.787-7.789-1.236c-5.172-0.888-10.33-1.799-15.474-2.502
				c-2.57-0.354-5.143-0.65-7.69-0.772c-2.541-0.12-5.088-0.098-7.43,0.342c-0.577,0.119-1.136,0.272-1.678,0.431
				c-0.498,0.203-1.084,0.388-1.394,0.61c-0.33,0.097-0.892,0.608-1.385,1.018c-0.037,0.033,0.232-0.211,0.111-0.099l-0.015,0.019
				l-0.029,0.038l-0.059,0.075l-0.119,0.149l-0.241,0.293c-0.175,0.175-0.3,0.43-0.441,0.66c-1.136,1.866-1.758,4.309-2.15,6.756
				c-0.395,2.465-0.574,5.01-0.633,7.569c-0.074,2.559-0.047,5.136,0.052,7.717c0.211,5.164,0.683,10.339,1.312,15.499
				c0.324,2.579,0.651,5.16,1.025,7.734c0.373,2.568,0.782,5.157,1.237,7.682l-1.972-1.662c2.044,0.026,4.135,0.025,6.208-0.006
				c2.077-0.01,4.156-0.079,6.234-0.135c2.08-0.031,4.156-0.134,6.235-0.212c2.079-0.065,4.155-0.184,6.229-0.322
				c2.072-0.142,4.16-0.222,6.217-0.43l6.191-0.534c2.071-0.201,4.154-0.465,6.23-0.694l3.117-0.356l2.988-0.51l1.508-0.264
				l1.492-0.364l2.987-0.732c1.962-0.612,3.958-1.127,5.887-1.87c0.969-0.357,1.952-0.675,2.91-1.064l2.873-1.176
				c0.967-0.372,1.892-0.843,2.845-1.254c0.944-0.428,1.9-0.834,2.826-1.306l2.799-1.373l2.759-1.458
				c0.929-0.473,1.819-1.012,2.734-1.509c0.916-0.499,1.818-1.019,2.714-1.553c1.805-1.046,3.575-2.152,5.336-3.274
				C953.612,371.716,955.354,370.56,957.054,369.337z"/>
		</g>
		<path fill="#FFFFFF" stroke="#4A494A" stroke-width="2.0883" stroke-miterlimit="10" d="M858.224,528.795l17.81-0.442
			l18.774-8.986c0,0,13.298,43.094-11.309,45.886C858.897,568.046,858.224,528.795,858.224,528.795z"/>
		<path fill="#BCBCBC" d="M888.101,519.779l1.809,11.059l-29.128,7.481c0,0-0.899-6.372-0.7-8.274
			C860.282,528.144,886.235,523.709,888.101,519.779z"/>
		<path fill="#FFFFFF" stroke="#4A494A" stroke-width="2.0883" stroke-miterlimit="10" d="M929.792,500.448
			c0,0,15.145,52.034-11.441,60.814c-26.587,8.781-32.595-39.069-32.595-39.069l1.742-1.749l3.314-4.247
			c0,0,5.976,1.251,11.92-3.168C908.678,508.609,929.792,500.448,929.792,500.448z"/>
		<g>
			<path fill="#713757" d="M848.21,290.863c0,0-0.209-0.931-0.684-2.654c-0.476-1.722-1.235-4.231-2.343-7.368
				c-1.115-3.13-2.622-6.892-4.821-10.937c-1.115-2.011-2.413-4.088-4-6.085c-1.591-1.979-3.44-3.955-5.759-5.38
				c-2.292-1.431-5.033-2.343-7.894-2.083c-0.355,0.033-0.713,0.048-1.07,0.093l-1.068,0.224l-0.537,0.109
				c-0.107,0.013-0.354,0.104-0.525,0.152l-1.137,0.35c-1.481,0.49-2.896,1.06-4.393,1.71c-5.905,2.624-11.914,6.027-18.174,9.459
				c-6.254,3.455-12.706,7.09-19.41,10.529c-6.69,3.463-13.616,6.767-20.688,9.756c-7.082,2.966-14.355,5.515-21.663,7.539
				c-7.301,2.048-14.687,3.396-21.901,4.024c-1.804,0.154-3.593,0.303-5.374,0.334c-0.889,0.03-1.774,0.06-2.654,0.089
				c-0.881-0.016-1.758-0.032-2.63-0.047c-0.879-0.026-1.72-0.009-2.618-0.071c-0.849-0.054-1.693-0.107-2.532-0.16
				c-1.678-0.106-3.335-0.21-4.971-0.313c-1.633-0.087-3.264-0.318-4.858-0.467c-1.596-0.177-3.173-0.311-4.712-0.518
				c-1.533-0.238-3.041-0.471-4.521-0.701c-0.739-0.114-1.472-0.228-2.197-0.34c-0.72-0.145-1.434-0.288-2.14-0.429
				c-1.41-0.289-2.791-0.571-4.141-0.846c-1.342-0.312-2.643-0.667-3.912-1c-0.634-0.168-1.26-0.334-1.877-0.498
				c-0.615-0.173-1.211-0.385-1.805-0.572c-1.182-0.385-2.33-0.759-3.441-1.122c-4.397-1.617-8.099-3.36-10.997-5.058
				c-2.899-1.707-4.926-3.431-6.206-4.682c-1.281-1.262-1.783-2.085-1.783-2.085s0.553,0.791,1.899,1.961
				c1.339,1.173,3.465,2.708,6.388,4.275c2.938,1.542,6.665,3.09,11.065,4.481c1.113,0.307,2.261,0.623,3.444,0.948
				c0.593,0.157,1.187,0.338,1.801,0.48c0.617,0.133,1.242,0.269,1.875,0.405c1.269,0.262,2.557,0.581,3.891,0.841
				c1.34,0.228,2.712,0.46,4.113,0.698c0.7,0.116,1.408,0.234,2.123,0.353c0.72,0.087,1.448,0.175,2.182,0.264
				c1.468,0.178,2.963,0.358,4.483,0.542c3.054,0.25,6.187,0.547,9.446,0.731c1.637,0.064,3.297,0.128,4.977,0.194
				c0.84,0.033,1.685,0.065,2.536,0.099c0.801,0.037,1.673,0.001,2.513,0.006c0.848-0.005,1.701-0.01,2.558-0.015
				c0.857-0.042,1.718-0.083,2.583-0.125c1.732-0.054,3.474-0.226,5.229-0.401c3.513-0.337,7.059-0.925,10.631-1.596
				c3.559-0.753,7.148-1.58,10.723-2.597c7.153-2.017,14.29-4.56,21.264-7.513c6.991-2.916,13.859-6.15,20.519-9.557
				c6.661-3.403,13.17-6.869,19.472-10.256c6.31-3.373,12.439-6.627,18.581-9.188c0.782-0.302,1.531-0.625,2.323-0.903
				c0.791-0.262,1.593-0.578,2.357-0.787l1.145-0.323c0.21-0.054,0.334-0.106,0.615-0.162l0.62-0.113
				c0.412-0.073,0.822-0.146,1.231-0.219c0.415-0.039,0.833-0.047,1.246-0.07c3.335-0.188,6.501,0.995,8.974,2.667
				c2.509,1.675,4.411,3.829,5.977,5.973c1.56,2.161,2.792,4.354,3.834,6.457c2.052,4.226,3.392,8.082,4.369,11.283
				c0.99,3.199,1.548,5.771,1.932,7.518C848.059,289.921,848.21,290.863,848.21,290.863z"/>
		</g>
		<polygon fill="#CCCCCC" points="928.616,501.349 930.508,510.787 888.811,530.045 887.414,522.957 891.604,517.771 		"/>
		<path fill="none" stroke="#000000" stroke-width="2.0883" stroke-miterlimit="10" d="M824.656,255.354"/>
		<g>
			<path fill="#F9E46B" d="M827.376,516.574c13.834,12.104,13.167,8.378,33.102,12.768s30.335-13.146,30.335-13.146"/>
			<path fill="#827436" d="M827.376,516.574c0,0,0.934,0.629,2.535,1.77c1.622,1.087,3.885,2.765,6.754,4.321
				c1.427,0.794,3.028,1.438,4.784,1.902c1.761,0.461,3.722,0.697,5.786,0.988c2.068,0.279,4.243,0.523,6.431,0.901
				c2.192,0.366,4.411,0.788,6.622,1.245c0.993,0.198,2.218,0.485,3.181,0.583c0.504,0.079,1.02,0.136,1.548,0.163
				c0.523,0.046,1.044,0.079,1.564,0.073c2.077,0.02,4.127-0.132,6.068-0.564c1.937-0.432,3.78-1.035,5.461-1.793
				c1.677-0.765,3.211-1.634,4.567-2.544c2.708-1.831,4.744-3.728,6.096-5.124c1.355-1.399,2.038-2.3,2.038-2.3
				s-0.454,1.036-1.554,2.69c-1.103,1.642-2.856,3.922-5.494,6.165c-1.312,1.124-2.841,2.241-4.603,3.2
				c-1.753,0.969-3.72,1.824-5.859,2.384c-2.133,0.563-4.418,0.929-6.744,0.91c-0.583,0.015-1.164-0.013-1.747-0.053
				c-0.58-0.022-1.171-0.076-1.77-0.159c-1.256-0.129-2.216-0.347-3.418-0.571c-2.164-0.484-4.333-0.935-6.48-1.329
				c-2.158-0.395-4.282-0.783-6.337-1.159c-2.075-0.369-4.125-0.81-6.042-1.479c-1.921-0.654-3.633-1.592-5.033-2.602
				c-1.436-0.974-2.616-2.004-3.643-2.923c-1.037-0.91-1.874-1.774-2.581-2.457C828.139,517.402,827.376,516.574,827.376,516.574z"
				/>
		</g>
		<g>
			<path fill="#F9E46B" d="M887.938,490.943c0,0-7.494,25.631,5.274,25.631s34.614-12.57,43.193-22.146
				c8.579-9.577,6.684-10.971,10.674-25.338"/>
			<path fill="#827436" d="M887.938,490.943c0,0-0.348,1.649-0.751,4.549c-0.195,1.45-0.398,3.213-0.531,5.231
				c-0.108,2.015-0.167,4.299,0.111,6.708c0.141,1.201,0.395,2.429,0.808,3.597c0.409,1.164,1.021,2.267,1.896,3.023
				c0.873,0.757,2,1.15,3.286,1.181l0.451,0.004l0.571-0.027c0.39-0.013,0.765-0.037,1.104-0.082
				c0.69-0.061,1.441-0.181,2.178-0.311c1.479-0.264,2.978-0.659,4.478-1.119c1.505-0.443,3.018-0.96,4.521-1.549
				c3.012-1.164,5.996-2.574,8.935-4.073c2.941-1.5,5.777-3.202,8.533-4.927c2.752-1.733,5.346-3.611,7.76-5.525
				c1.2-0.965,2.351-1.95,3.404-2.976c1.026-1.009,2.056-2.125,2.98-3.182c1.863-2.119,3.454-4.259,4.461-6.46
				c1.048-2.188,1.571-4.439,2.123-6.401c0.535-1.972,1.01-3.697,1.424-5.108c0.426-1.409,0.775-2.509,1.025-3.257
				c0.244-0.749,0.374-1.147,0.374-1.147s-0.087,0.411-0.251,1.181c-0.169,0.768-0.4,1.898-0.675,3.34
				c-0.287,1.438-0.606,3.188-0.968,5.204c-0.399,2.003-0.762,4.318-1.711,6.76c-0.914,2.466-2.512,4.823-4.313,7.138
				c-0.45,0.594-0.917,1.151-1.388,1.721c-0.457,0.565-0.98,1.177-1.497,1.747c-1.049,1.153-2.187,2.253-3.374,3.332
				c-2.366,2.172-5.02,4.15-7.775,6.056c-2.753,1.915-5.696,3.634-8.7,5.24c-3.001,1.615-6.121,3.016-9.282,4.195
				c-3.156,1.19-6.379,2.129-9.629,2.597c-0.816,0.113-1.611,0.213-2.462,0.258c-0.429,0.035-0.821,0.045-1.196,0.045l-0.572,0.006
				l-0.686-0.027c-1.736-0.106-3.537-0.84-4.771-2.068c-1.243-1.224-1.912-2.726-2.321-4.13c-0.399-1.421-0.546-2.802-0.601-4.106
				c-0.104-2.612,0.171-4.952,0.507-6.996c0.33-2.044,0.753-3.792,1.134-5.22c0.375-1.428,0.741-2.529,0.99-3.278
				C887.799,491.34,887.938,490.943,887.938,490.943z"/>
		</g>
		<path fill="#E56EA4" stroke="#6D3351" stroke-width="2.0883" stroke-miterlimit="10" d="M907.376,465.847
			c-2.448-10.894-15.125-17.32-28.31-14.353c-13.19,2.967-21.89,14.202-19.44,25.095c2.452,10.893,15.125,17.32,28.311,14.354
			C901.124,487.976,909.827,476.741,907.376,465.847z"/>
		<g>
			<path fill="#B85486" d="M900.82,463.903c0,0-8.422,0.664-10.008,7.315c-1.59,6.651,0,11.837,0,11.837"/>
			<path fill="#713757" d="M900.82,463.903c0,0-0.386,0.118-1.031,0.36c-0.646,0.24-1.552,0.606-2.566,1.124
				c-0.506,0.261-1.032,0.573-1.561,0.921c-0.527,0.352-1.044,0.766-1.526,1.224c-0.241,0.23-0.485,0.462-0.684,0.736
				c-0.219,0.257-0.423,0.526-0.597,0.817l-0.281,0.425l-0.214,0.464l-0.218,0.464l-0.145,0.496l-0.166,0.489
				c-0.027,0.083-0.076,0.354-0.112,0.522c-0.078,0.384-0.157,0.766-0.234,1.145c-0.179,0.776-0.255,1.457-0.359,2.154
				c-0.118,0.683-0.155,1.38-0.225,2.033c-0.076,0.656-0.072,1.278-0.113,1.858c-0.086,2.313,0.024,3.92,0.024,3.92
				s-0.195-0.352-0.452-1.011c-0.11-0.331-0.283-0.732-0.397-1.208c-0.115-0.475-0.296-1.012-0.371-1.611
				c-0.092-0.598-0.235-1.25-0.249-1.946c-0.035-0.697-0.123-1.429-0.048-2.211c0.056-0.768,0.038-1.616,0.209-2.353
				c0.065-0.381,0.132-0.766,0.199-1.152c0.04-0.216,0.05-0.334,0.116-0.632l0.19-0.635l0.212-0.628l0.296-0.595l0.301-0.588
				l0.374-0.539c0.128-0.176,0.244-0.36,0.382-0.525l0.444-0.459c0.284-0.316,0.607-0.574,0.925-0.825
				c0.626-0.515,1.312-0.882,1.964-1.188c0.649-0.312,1.295-0.521,1.891-0.678c1.192-0.321,2.211-0.399,2.915-0.415
				C900.421,463.847,900.82,463.903,900.82,463.903z"/>
		</g>
		<g>
			<path fill="#B85486" d="M862.706,468.408c0,0,8.381-1.089,11.304,5.09c2.931,6.179,2.447,11.583,2.447,11.583"/>
			<path fill="#713757" d="M862.706,468.408c0,0,0.379-0.138,1.074-0.273c0.693-0.13,1.706-0.265,2.938-0.196
				c0.616,0.03,1.29,0.101,1.99,0.273c0.7,0.164,1.448,0.381,2.167,0.756c0.363,0.179,0.732,0.365,1.075,0.615l0.53,0.357
				c0.168,0.133,0.32,0.29,0.482,0.436l0.478,0.45l0.416,0.514l0.412,0.521l0.337,0.571l0.317,0.582
				c0.126,0.276,0.16,0.391,0.245,0.593c0.145,0.364,0.29,0.727,0.433,1.086c0.319,0.686,0.478,1.519,0.69,2.259
				c0.235,0.749,0.301,1.483,0.411,2.173c0.13,0.685,0.125,1.352,0.159,1.956c0.05,0.602-0.015,1.165-0.03,1.653
				c-0.014,0.489-0.099,0.917-0.139,1.265c-0.115,0.697-0.233,1.082-0.233,1.082s-0.225-1.596-0.786-3.841
				c-0.161-0.559-0.286-1.168-0.496-1.794c-0.202-0.625-0.383-1.299-0.639-1.943c-0.247-0.661-0.462-1.311-0.797-2.033
				c-0.154-0.355-0.31-0.712-0.466-1.072c-0.07-0.157-0.173-0.411-0.217-0.488l-0.263-0.444l-0.244-0.456l-0.309-0.409l-0.306-0.41
				l-0.362-0.357c-0.23-0.249-0.486-0.469-0.753-0.676c-0.25-0.228-0.537-0.404-0.821-0.579c-0.565-0.348-1.157-0.646-1.746-0.882
				c-0.589-0.231-1.169-0.427-1.718-0.578c-1.1-0.297-2.062-0.468-2.743-0.57C863.108,468.444,862.706,468.408,862.706,468.408z"/>
		</g>
		<g>
			<path fill="#827436" d="M938.302,454.726c0,0,0.245,0.7,0.766,1.874c0.259,0.587,0.597,1.288,0.993,2.081
				c0.406,0.79,0.901,1.656,1.459,2.582c0.288,0.458,0.611,0.919,0.931,1.402c0.346,0.462,0.703,0.941,1.071,1.433
				c0.781,0.941,1.649,1.888,2.634,2.756c0.502,0.422,0.992,0.875,1.563,1.228l0.833,0.57l0.889,0.489
				c0.302,0.154,0.586,0.348,0.903,0.472l0.953,0.376l0.478,0.19l0.119,0.048l0.029,0.012c-0.071-0.021,0,0-0.008-0.003l0.066,0.019
				l0.266,0.074l1.062,0.295c1.399,0.39,2.717,0.628,4.139,0.822c1.397,0.168,2.784,0.316,4.137,0.374
				c1.352,0.051,2.665,0.088,3.914,0.076c1.247-0.021,2.432-0.048,3.525-0.1c4.374-0.222,7.317-0.576,7.317-0.576
				c0,0-2.787,1.043-7.19,1.769c-2.197,0.369-4.796,0.656-7.605,0.67c-1.404-0.006-2.863-0.035-4.34-0.211
				c-1.449-0.167-3.036-0.433-4.474-0.819l-1.058-0.312l-0.264-0.078l-0.066-0.02l-0.073-0.023l-0.034-0.014l-0.136-0.056
				l-0.542-0.224l-1.077-0.449c-0.357-0.15-0.679-0.37-1.018-0.551c-0.332-0.193-0.671-0.374-0.992-0.577
				c-0.302-0.229-0.604-0.457-0.902-0.683c-0.618-0.43-1.138-0.954-1.666-1.447c-1.049-0.997-1.887-2.11-2.635-3.179
				c-0.353-0.549-0.688-1.086-0.997-1.613c-0.277-0.545-0.557-1.062-0.801-1.571c-0.479-1.021-0.852-1.981-1.143-2.843
				c-0.295-0.861-0.497-1.626-0.652-2.258C938.376,455.464,938.302,454.726,938.302,454.726z"/>
		</g>
		<path fill="#DCC75F" d="M844.755,693.279c0,0-9.828-29.105-4.824-40.262c0,0-8.567,7.332-7.235,21.963s4.125,21.28,4.125,21.28
			s2.25-3.247,4.756-3.429C844.084,692.649,844.755,693.279,844.755,693.279L844.755,693.279z"/>
		<g>
			<path fill="#827436" d="M830.51,504.603c0,0,0.321,2.162,0.107,5.435c-0.054,0.817-0.13,1.705-0.29,2.639
				c-0.148,0.935-0.33,1.927-0.654,2.935c-0.312,1.006-0.689,2.063-1.35,3.063c-0.177,0.246-0.322,0.505-0.533,0.74l-0.668,0.692
				c-0.493,0.403-0.87,0.675-1.311,1.019c-0.867,0.636-1.734,1.271-2.588,1.896c-0.863,0.621-1.778,1.158-2.627,1.716
				c-1.717,1.099-3.341,2.079-4.762,2.849c-2.822,1.587-4.817,2.46-4.817,2.46s1.613-1.463,4.152-3.458
				c0.631-0.503,1.328-1.035,2.057-1.593c0.726-0.562,1.484-1.161,2.292-1.747c0.803-0.592,1.633-1.203,2.477-1.824
				c0.839-0.644,1.692-1.298,2.545-1.952l1.253-0.925l0.453-0.452c0.15-0.154,0.268-0.365,0.406-0.542
				c0.142-0.175,0.257-0.38,0.369-0.593c0.115-0.208,0.242-0.405,0.349-0.62c0.191-0.446,0.419-0.863,0.57-1.324
				c0.338-0.895,0.633-1.797,0.871-2.667s0.448-1.706,0.627-2.482c0.35-1.557,0.613-2.875,0.793-3.801
				C830.408,505.134,830.51,504.603,830.51,504.603z"/>
		</g>
		<g>
			<path fill="#F9E46B" d="M929.94,926.53c0,0-32.937,5.415-44.907-9.747"/>
			<path fill="#827436" d="M929.94,926.53c0,0-0.709,0.299-1.985,0.687c-1.276,0.39-3.12,0.878-5.369,1.262
				c-2.246,0.417-4.898,0.724-7.762,0.815c-1.432,0.056-2.916,0.042-4.425-0.031c-1.51-0.063-3.042-0.22-4.572-0.42
				c-1.526-0.236-3.054-0.492-4.535-0.884c-0.745-0.171-1.477-0.384-2.193-0.616c-0.72-0.209-1.421-0.473-2.106-0.732
				c-1.371-0.521-2.657-1.142-3.842-1.789c-0.587-0.335-1.145-0.691-1.682-1.026c-0.526-0.358-1.019-0.733-1.489-1.083
				c-0.918-0.746-1.715-1.473-2.347-2.191c-0.676-0.665-1.128-1.381-1.534-1.912c-0.395-0.547-0.619-1.041-0.806-1.343
				c-0.17-0.314-0.26-0.482-0.26-0.482s0.154,0.114,0.444,0.328c0.286,0.214,0.688,0.539,1.216,0.918
				c0.553,0.354,1.174,0.819,1.953,1.255c0.749,0.469,1.653,0.901,2.613,1.373c0.978,0.452,2.051,0.891,3.201,1.306
				c1.159,0.401,2.389,0.787,3.684,1.127c2.586,0.682,5.405,1.218,8.264,1.618c5.719,0.81,11.582,1.113,16.032,1.388
				c2.241,0.125,4.108,0.229,5.416,0.301C929.175,926.472,929.94,926.53,929.94,926.53z"/>
		</g>
		<g>
			<path fill="#827436" d="M914.658,589.326c0,0-1.483,0.598-4.175,1.379c-2.69,0.777-6.593,1.713-11.363,2.428
				c-2.387,0.341-4.986,0.627-7.75,0.818c-2.764,0.192-5.69,0.229-8.72,0.167c-3.03-0.056-6.161-0.301-9.327-0.703
				c-3.163-0.412-6.377-0.926-9.53-1.727c-1.576-0.396-3.153-0.8-4.7-1.285c-1.52-0.462-3.034-0.923-4.536-1.38
				c-3.039-1.035-5.977-2.146-8.751-3.333c-2.78-1.193-5.396-2.489-7.859-3.74c-2.444-1.291-4.708-2.588-6.778-3.812
				c-2.045-1.27-3.916-2.43-5.527-3.532c-1.613-1.1-3.012-2.062-4.136-2.898c-2.267-1.641-3.521-2.644-3.521-2.644
				s1.492,0.603,4.028,1.775c1.266,0.583,2.803,1.292,4.567,2.104c1.763,0.805,3.727,1.75,5.9,2.709
				c2.156,0.991,4.495,2.048,6.991,3.098c2.475,1.096,5.114,2.174,7.858,3.229c2.727,1.118,5.589,2.101,8.481,3.072
				c1.486,0.479,2.983,0.963,4.486,1.448c1.471,0.481,2.973,0.886,4.476,1.283c3.014,0.766,6.055,1.455,9.089,1.94
				c3.031,0.495,6.041,0.838,8.965,1.103c2.926,0.258,5.769,0.349,8.47,0.396c2.702,0.049,5.262-0.02,7.624-0.142
				c4.729-0.212,8.668-0.667,11.42-1.05C913.094,589.651,914.658,589.326,914.658,589.326z"/>
		</g>
		<g>
			<path fill="#F9E46B" d="M850.23,720.315c0,0-3.438-24.055-10.355-43.207c-6.915-19.152,5.178-33.518,5.178-33.518"/>
			<path fill="#827436" d="M850.23,720.315c0,0-0.361-1.211-0.945-3.322c-0.281-1.057-0.673-2.333-1.051-3.806
				c-0.399-1.467-0.851-3.122-1.343-4.928c-0.49-1.8-1.021-3.751-1.583-5.814c-0.532-2.067-1.175-4.225-1.806-6.461
				c-0.309-1.119-0.623-2.257-0.94-3.408c-0.346-1.142-0.695-2.297-1.047-3.462c-0.344-1.166-0.691-2.341-1.04-3.521
				c-0.345-1.181-0.771-2.334-1.152-3.504c-0.38-1.17-0.761-2.34-1.14-3.506l-0.314-0.974l-0.26-0.892
				c-0.172-0.594-0.344-1.187-0.515-1.776c-0.082-0.3-0.179-0.578-0.248-0.895l-0.187-0.978c-0.116-0.65-0.231-1.297-0.345-1.94
				c-0.138-0.646-0.161-1.272-0.212-1.899c-0.043-0.625-0.086-1.246-0.129-1.861c-0.031-1.232,0.032-2.447,0.076-3.627
				c0.159-1.175,0.272-2.325,0.473-3.428c0.422-2.204,1.004-4.238,1.73-6.036c0.352-0.902,0.69-1.762,1.101-2.542
				c0.375-0.794,0.778-1.521,1.174-2.193c0.76-1.359,1.561-2.459,2.226-3.346c1.349-1.768,2.301-2.606,2.301-2.606
				s-0.162,0.271-0.449,0.782c-0.287,0.512-0.674,1.28-1.143,2.257c-0.458,0.983-0.977,2.19-1.489,3.595
				c-0.264,0.699-0.522,1.447-0.743,2.253c-0.257,0.792-0.483,1.635-0.689,2.52c-0.437,1.762-0.711,3.702-0.929,5.738
				c-0.083,1.021-0.08,2.076-0.124,3.143c0.086,1.07,0.067,2.161,0.183,3.262c0.074,0.548,0.148,1.101,0.224,1.658
				c0.073,0.555,0.119,1.125,0.267,1.653c0.122,0.537,0.245,1.077,0.368,1.62l0.172,0.818c0.067,0.278,0.181,0.579,0.269,0.869
				c0.37,1.139,0.743,2.287,1.117,3.44c0.401,1.194,0.804,2.394,1.206,3.593c0.38,1.206,0.807,2.401,1.147,3.61
				c0.326,1.213,0.65,2.421,0.971,3.62c0.321,1.198,0.634,2.389,0.923,3.569c0.255,1.187,0.508,2.358,0.756,3.512
				c0.238,1.154,0.489,2.286,0.698,3.401c0.189,1.117,0.375,2.211,0.556,3.276c0.372,2.126,0.677,4.144,0.892,6.016
				c0.498,3.733,0.73,6.867,0.867,9.062C850.229,719.058,850.23,720.315,850.23,720.315z"/>
		</g>
		<path fill="#E56EA4" stroke="#6D3351" stroke-width="2.0883" stroke-miterlimit="10" d="M1003.098,910.132
			c0,0,1.04-15.028-2.427-26.692c-8.836-29.736,50.354-132.91,24.353-192.497c-9.997-22.911-25.557-53.946-49.484-63.531
			c-39.92-15.993-91.824-1.013-97.228,0.485c-8.642,2.395-13.828,11.571-13.828,31.922c0,9.42,5.717,30.376,6.783,52.67
			c1.235,25.873-2.102,53.279-1.197,62.246c0.758,16.422-5.394,44.701-1.595,72.621c2.75,20.247,20.027,32.262,23.939,44.64
			c2.812,8.894,17.047,37.955,17.047,37.955s24.818,1.877,48.414-5.188C992.188,917.049,1003.098,910.132,1003.098,910.132z"/>
		<g>
			<path fill="#713757" d="M1009.061,715.932c0,0-2.541-0.383-6.988-1.053c-4.442-0.652-10.789-1.585-18.404-2.703
				c-3.807-0.525-7.932-1.094-12.294-1.695c-4.363-0.576-8.969-1.14-13.729-1.721c-4.762-0.568-9.69-1.059-14.691-1.559
				c-5.004-0.48-10.095-0.84-15.179-1.117c-5.084-0.289-10.17-0.437-15.155-0.342c-4.97,0.059-9.893,0.377-14.565,0.998
				c-4.693,0.627-9.211,1.436-13.418,2.535c-4.205,1.097-8.14,2.322-11.689,3.692c-3.541,1.388-6.733,2.818-9.488,4.243
				c-2.746,1.439-5.09,2.806-6.964,4.024c-1.867,1.228-3.305,2.248-4.251,2.989c-0.948,0.739-1.424,1.173-1.424,1.173
				s0.421-0.486,1.281-1.336c0.866-0.84,2.155-2.065,3.926-3.474c3.522-2.828,8.924-6.492,16.016-9.76
				c3.546-1.618,7.486-3.186,11.774-4.478c4.282-1.304,8.884-2.432,13.716-3.185c4.851-0.769,9.856-1.259,14.989-1.431
				c5.118-0.147,10.302-0.047,15.47,0.196c5.167,0.259,10.312,0.726,15.364,1.244c5.054,0.511,10,1.209,14.778,1.909
				c4.78,0.692,9.382,1.475,13.73,2.281c4.354,0.783,8.453,1.605,12.227,2.415c3.777,0.785,7.225,1.58,10.273,2.31
				c3.052,0.712,5.699,1.393,7.877,1.961c2.18,0.557,3.88,1.049,5.041,1.372C1008.442,715.755,1009.061,715.932,1009.061,715.932z"
				/>
		</g>
		<g>
			<path fill="#827436" d="M1273.806,633.483c0,0,0.054-0.135,0.153-0.387c0.113-0.243,0.249-0.622,0.453-1.072
				c0.2-0.456,0.437-1.006,0.733-1.616c0.281-0.626,0.595-1.33,0.967-2.074c0.753-1.48,1.567-3.239,2.574-5.021
				c0.459-0.92,0.947-1.858,1.468-2.797c0.506-0.945,1.082-1.871,1.561-2.849c0.52-0.955,1.032-1.913,1.576-2.837
				c0.271-0.463,0.54-0.923,0.806-1.376c0.243-0.464,0.479-0.925,0.731-1.368c0.488-0.896,0.986-1.753,1.472-2.563
				c0.493-0.808,0.979-1.565,1.354-2.296c0.811-1.439,1.553-2.632,2.11-3.463c0.552-0.832,0.916-1.299,0.916-1.299
				s-0.016,0.574-0.129,1.565c-0.108,0.992-0.316,2.403-0.647,4.089c-0.146,0.853-0.414,1.73-0.72,2.654
				c-0.303,0.924-0.636,1.897-1.008,2.895c-0.357,1.004-0.765,2.025-1.28,3.01c-0.479,1.004-1.007,2.005-1.527,3.009
				c-0.521,1.005-1.127,1.957-1.733,2.889c-0.6,0.936-1.215,1.84-1.823,2.704c-1.302,1.676-2.524,3.224-3.727,4.437
				c-1.181,1.223-2.233,2.188-3.021,2.815C1274.299,633.173,1273.806,633.483,1273.806,633.483z"/>
		</g>
		<path fill="#DCC75F" d="M1297.411,638.072c0,0,2.345,20.217-2.771,27.598c-5.115,7.383-28.826,17.163-28.826,17.163
			S1294.233,658.191,1297.411,638.072z"/>
		<path fill="none" stroke="#A08E41" stroke-width="4.1766" stroke-miterlimit="10" d="M1293.15,648.759
			c0,0,25.411,17.05,37.381,19.642"/>
		<path fill="none" stroke="#A08E41" stroke-width="4.1766" stroke-miterlimit="10" d="M1280.151,668.4
			c0,0,14.068,9.374,22.848,13.763c8.778,4.389,15.961,8.779,15.961,8.779"/>
		<path fill="#3E1E14" d="M490.651,648.393c2.931,4.165,12.939,2.174,22.355-4.454c9.419-6.627,14.679-15.375,11.745-19.54
			c-2.928-4.165-12.945-2.175-22.358,4.452C492.975,635.477,487.721,644.227,490.651,648.393z"/>
		<g>
			<path fill="#A08E41" d="M1297.411,633.483c0,0,0.015,0.251,0.011,0.718c-0.023,0.463,0.006,1.164-0.079,2.031
				c-0.072,0.87-0.126,1.941-0.327,3.143c-0.086,0.606-0.179,1.251-0.275,1.931c-0.125,0.674-0.291,1.375-0.445,2.113
				c-0.28,1.486-0.738,3.057-1.24,4.72c-0.223,0.843-0.543,1.675-0.876,2.527c-0.335,0.853-0.678,1.724-1.026,2.609
				c-0.361,0.882-0.842,1.731-1.277,2.614c-0.223,0.439-0.448,0.882-0.675,1.326l-0.347,0.665l-0.087,0.166l-0.156,0.242l-0.2,0.303
				c-0.539,0.808-1.082,1.621-1.627,2.438c-0.558,0.81-1.076,1.631-1.753,2.424c-1.309,1.563-2.579,3.217-3.927,4.653
				c-1.343,1.437-2.678,2.839-3.999,4.16c-1.348,1.29-2.669,2.518-3.93,3.671c-1.271,1.142-2.525,2.162-3.67,3.116
				c-1.129,0.97-2.233,1.783-3.194,2.52c-0.953,0.746-1.82,1.355-2.535,1.854c-1.423,1.006-2.279,1.527-2.279,1.527
				s0.613-0.793,1.715-2.137c0.555-0.667,1.228-1.477,2-2.405c0.779-0.915,1.659-1.948,2.618-3.075
				c0.952-1.132,2.001-2.337,3.107-3.609c1.092-1.285,2.25-2.629,3.468-3.998c1.185-1.395,2.384-2.85,3.647-4.289
				c1.239-1.456,2.361-2.941,3.575-4.407c0.622-0.694,1.171-1.535,1.736-2.335c0.57-0.799,1.139-1.595,1.703-2.385l0.212-0.295
				l0.054-0.073l0.026-0.037c-0.021,0.033,0.065-0.101-0.044,0.07l0.011-0.02l0.086-0.151l0.347-0.604
				c0.235-0.399,0.47-0.796,0.702-1.191c0.453-0.797,0.951-1.558,1.37-2.35c0.405-0.802,0.804-1.59,1.193-2.361
				c0.199-0.385,0.397-0.767,0.592-1.143c0.188-0.381,0.341-0.771,0.517-1.146c0.668-1.517,1.369-2.935,1.882-4.3
				c0.276-0.678,0.541-1.327,0.792-1.944c0.235-0.626,0.458-1.221,0.667-1.778c0.428-1.118,0.77-2.105,1.06-2.921
				C1297.092,634.424,1297.411,633.483,1297.411,633.483z"/>
		</g>
		<polygon fill="#DCC75F" points="694.104,807.322 703.616,803.503 668.967,774.734 		"/>
		<g>
			<path fill="#827436" d="M828.091,1064.583c0,0-0.675,0.108-1.859,0.137c-0.591,0.01-1.313,0.021-2.137-0.037
				c-0.823-0.052-1.757-0.126-2.768-0.286c-1.01-0.164-2.105-0.378-3.248-0.711c-1.147-0.311-2.341-0.758-3.552-1.322
				c-1.203-0.583-2.438-1.285-3.57-2.26l-0.426-0.364l-0.213-0.184l-0.054-0.046l-0.026-0.023l-0.102-0.106l-0.083-0.089
				l-0.336-0.357c-0.112-0.121-0.277-0.354-0.409-0.53c-0.561-0.764-0.873-1.41-1.21-2.135c-0.588-1.422-0.942-2.837-1.153-4.218
				c-0.224-1.379-0.302-2.725-0.318-4.012c-0.027-2.576,0.244-4.931,0.596-6.921c0.36-1.99,0.804-3.615,1.164-4.74
				c0.356-1.126,0.633-1.75,0.633-1.75s0.084,0.677,0.193,1.839c0.104,1.15,0.251,2.793,0.429,4.765
				c0.172,1.948,0.364,4.205,0.681,6.549c0.158,1.172,0.359,2.363,0.606,3.53c0.263,1.162,0.57,2.309,1.006,3.311
				c0.203,0.473,0.477,1.013,0.69,1.308c0.064,0.085,0.069,0.135,0.174,0.258l0.315,0.375l0.079,0.094l0.01,0.012
				c0.075,0.079-0.091-0.096-0.07-0.074l0.019,0.018l0.038,0.035l0.15,0.142l0.298,0.285c0.375,0.395,0.85,0.722,1.271,1.087
				c0.462,0.328,0.922,0.658,1.397,0.966c0.962,0.598,1.932,1.167,2.904,1.639c0.959,0.497,1.906,0.923,2.787,1.318
				c0.896,0.385,1.718,0.736,2.446,1.049c0.747,0.3,1.397,0.561,1.933,0.775C827.467,1064.337,828.091,1064.583,828.091,1064.583z"
				/>
		</g>
		<g>
			<path fill="#F9E46B" d="M663.3,1161.775c0,0,13.566-3.19,23.144-20.746c9.575-17.559,5.002-23.941,5.002-23.941"/>
			<path fill="#827436" d="M662.787,1159.751c0,0,0.179-0.043,0.513-0.123c0.356-0.097,0.886-0.259,1.568-0.499
				c0.681-0.249,1.502-0.585,2.435-1.015c0.461-0.23,0.951-0.476,1.467-0.734c0.505-0.286,1.037-0.587,1.591-0.9
				c0.54-0.344,1.102-0.702,1.684-1.073c0.562-0.405,1.144-0.823,1.741-1.254c0.575-0.465,1.165-0.941,1.768-1.43
				c0.598-0.497,1.163-1.059,1.766-1.601c0.615-0.53,1.145-1.167,1.736-1.76c0.596-0.59,1.136-1.244,1.684-1.902
				c1.137-1.284,2.129-2.726,3.149-4.147c0.472-0.739,0.944-1.479,1.415-2.214c0.465-0.686,0.88-1.521,1.318-2.268
				c0.896-1.531,1.613-3.039,2.335-4.532c0.333-0.758,0.659-1.503,0.979-2.232c0.279-0.746,0.552-1.475,0.817-2.186
				c0.239-0.718,0.442-1.426,0.656-2.108c0.186-0.688,0.329-1.361,0.486-2.006c0.116-0.649,0.219-1.276,0.308-1.873
				c0.044-0.6,0.127-1.171,0.132-1.708c0.029-1.075-0.018-2.02-0.157-2.781c-0.12-0.767-0.303-1.353-0.458-1.739
				c-0.148-0.391-0.275-0.577-0.275-0.577s0.14,0.177,0.318,0.559c0.185,0.377,0.413,0.954,0.591,1.722
				c0.198,0.764,0.316,1.718,0.367,2.816c0.036,0.55-0.006,1.133-0.007,1.752c-0.045,0.614-0.104,1.262-0.174,1.937
				c-0.112,0.666-0.208,1.367-0.347,2.085c-0.166,0.71-0.321,1.451-0.512,2.204c-0.218,0.745-0.442,1.511-0.671,2.293
				c-0.271,0.769-0.549,1.554-0.832,2.352c-0.62,1.569-1.277,3.24-2.045,4.804c-0.395,0.8-0.708,1.584-1.176,2.413
				c-0.431,0.796-0.863,1.596-1.295,2.396c-0.947,1.551-1.875,3.129-2.966,4.564c-0.525,0.732-1.044,1.462-1.625,2.132
				c-0.577,0.672-1.093,1.385-1.703,1.998c-0.597,0.624-1.158,1.266-1.758,1.844c-0.609,0.571-1.206,1.131-1.786,1.675
				c-0.612,0.512-1.208,1.011-1.784,1.493c-0.604,0.45-1.188,0.886-1.749,1.304c-0.584,0.39-1.144,0.763-1.676,1.118
				c-0.552,0.329-1.076,0.641-1.568,0.935c-1.006,0.558-1.911,1.007-2.675,1.352c-0.769,0.337-1.397,0.581-1.838,0.736
				c-0.469,0.15-0.72,0.23-0.72,0.23L662.787,1159.751z"/>
		</g>
		<g>
			<path fill="#F9E46B" d="M677.92,1180.105c0,0,15.56-1.542,25.137-19.098c9.577-17.558,9.512-31.923,9.512-31.923"/>
			<path fill="#827436" d="M677.678,1178.031c0,0,0.063-0.006,0.187-0.018c0.099-0.012,0.245-0.029,0.436-0.053
				c0.428-0.062,1.067-0.17,1.887-0.359c0.819-0.196,1.815-0.466,2.936-0.862c1.12-0.396,2.376-0.894,3.69-1.563
				c0.661-0.327,1.349-0.674,2.024-1.098c0.344-0.204,0.693-0.41,1.048-0.62c0.346-0.224,0.685-0.471,1.036-0.71
				c0.35-0.242,0.705-0.487,1.064-0.736c0.341-0.274,0.685-0.552,1.033-0.833c0.35-0.281,0.703-0.566,1.059-0.854
				c0.333-0.314,0.67-0.633,1.009-0.953c0.341-0.321,0.684-0.645,1.029-0.971c0.32-0.353,0.642-0.707,0.966-1.063
				c0.324-0.358,0.65-0.72,0.978-1.082c0.327-0.364,0.604-0.772,0.911-1.16c1.241-1.523,2.333-3.284,3.349-4.956
				c0.973-1.829,1.947-3.657,2.905-5.458c0.876-1.818,1.602-3.646,2.384-5.403c0.411-0.868,0.685-1.778,0.996-2.651
				c0.305-0.877,0.603-1.735,0.893-2.571c0.313-0.83,0.53-1.662,0.746-2.467c0.219-0.804,0.431-1.581,0.634-2.327
				c0.421-1.49,0.63-2.896,0.91-4.124c0.254-1.234,0.366-2.327,0.515-3.221c0.222-1.795,0.266-2.832,0.266-2.832
				c0,0,0.021,1.036-0.087,2.849c-0.092,0.902-0.136,2.009-0.312,3.262c-0.202,1.248-0.325,2.68-0.653,4.204
				c-0.158,0.765-0.321,1.562-0.491,2.386c-0.167,0.826-0.333,1.683-0.596,2.538c-0.24,0.863-0.487,1.75-0.739,2.656
				c-0.26,0.905-0.479,1.845-0.842,2.76c-0.681,1.838-1.323,3.788-2.099,5.693c-0.843,1.856-1.699,3.743-2.556,5.63
				c-1.006,1.937-1.997,3.769-3.222,5.495c-0.299,0.432-0.568,0.883-0.891,1.292c-0.325,0.409-0.647,0.816-0.968,1.221
				c-0.323,0.403-0.645,0.805-0.964,1.202c-0.349,0.374-0.695,0.745-1.038,1.113c-0.344,0.368-0.686,0.733-1.025,1.096
				c-0.365,0.336-0.727,0.668-1.085,0.997c-0.359,0.328-0.715,0.653-1.067,0.975c-0.374,0.296-0.743,0.588-1.107,0.876
				c-0.367,0.285-0.722,0.577-1.085,0.847c-0.374,0.255-0.742,0.506-1.104,0.753c-0.714,0.512-1.446,0.942-2.153,1.351
				c-1.406,0.83-2.766,1.474-3.994,1.996c-1.229,0.523-2.339,0.901-3.267,1.187c-0.93,0.278-1.686,0.457-2.213,0.567
				c-0.288,0.053-0.51,0.094-0.659,0.121c-0.125,0.02-0.19,0.029-0.19,0.029L677.678,1178.031z"/>
		</g>
		<g>
			<path fill="#F9E46B" d="M1030.304,1254.762c0,0-3.226-14.245,0-27.014c3.228-12.769,15.996-26.603,15.996-26.603"/>
			<path fill="#827436" d="M1028.264,1255.209c0,0-0.041-0.24-0.119-0.69c-0.071-0.442-0.167-1.089-0.274-1.906
				c-0.208-1.636-0.447-3.968-0.555-6.774c-0.051-1.404-0.076-2.925-0.036-4.534c0.039-1.608,0.121-3.305,0.309-5.054
				c0.081-0.875,0.186-1.762,0.332-2.656c0.116-0.897,0.289-1.799,0.478-2.705c0.159-0.909,0.413-1.812,0.644-2.718l0.176-0.68
				l0.229-0.692l0.436-1.301c0.289-0.868,0.707-1.761,1.053-2.631c0.379-0.859,0.804-1.674,1.199-2.503
				c0.424-0.811,0.873-1.598,1.3-2.383c0.462-0.764,0.917-1.519,1.365-2.26c0.933-1.46,1.869-2.842,2.793-4.125
				c0.93-1.279,1.831-2.469,2.689-3.546c3.433-4.309,6.02-6.905,6.02-6.905s-2.397,2.778-5.495,7.293
				c-0.773,1.128-1.581,2.369-2.408,3.696c-0.821,1.331-1.646,2.758-2.456,4.252c-0.386,0.756-0.778,1.523-1.176,2.302
				c-0.361,0.791-0.727,1.593-1.096,2.4c-0.321,0.822-0.68,1.646-0.976,2.478c-0.266,0.846-0.582,1.635-0.809,2.521l-0.343,1.328
				l-0.158,0.621l-0.119,0.656c-0.156,0.873-0.336,1.734-0.425,2.609c-0.117,0.869-0.22,1.731-0.269,2.593
				c-0.078,0.855-0.117,1.705-0.135,2.543c-0.06,1.671-0.021,3.292,0.05,4.825c0.072,1.534,0.2,2.982,0.344,4.314
				c0.293,2.666,0.68,4.867,0.985,6.39c0.155,0.761,0.287,1.352,0.381,1.751c0.096,0.388,0.147,0.596,0.147,0.596L1028.264,1255.209
				z"/>
		</g>
		<g>
			<path fill="#F9E46B" d="M995.932,1248.887c0,0-0.565-23.269,6.279-34.971c6.846-11.704,14.295-12.771,14.295-12.771"/>
			<path fill="#827436" d="M993.844,1248.927c0,0,0.006-0.223,0.016-0.64c0.016-0.417,0.039-1.029,0.069-1.808
				c0.072-1.545,0.216-3.743,0.472-6.372c0.124-1.314,0.295-2.735,0.487-4.235c0.215-1.499,0.436-3.079,0.741-4.704
				c0.137-0.814,0.295-1.64,0.48-2.472c0.182-0.833,0.338-1.677,0.567-2.52c0.397-1.691,0.906-3.39,1.442-5.076
				c0.307-0.833,0.613-1.666,0.918-2.496c0.344-0.817,0.723-1.618,1.079-2.417c0.378-0.791,0.847-1.538,1.258-2.292l0.158-0.28
				l0.04-0.07l0.066-0.1l0.092-0.127l0.361-0.506c0.24-0.336,0.479-0.67,0.716-1.001c0.474-0.662,0.939-1.312,1.396-1.95
				c0.496-0.619,1.054-1.188,1.556-1.759c0.523-0.554,0.981-1.14,1.514-1.614c0.538-0.467,1.058-0.917,1.557-1.35
				c0.248-0.215,0.491-0.426,0.729-0.632c0.262-0.177,0.518-0.349,0.768-0.517c0.497-0.335,0.969-0.651,1.412-0.95
				c0.463-0.265,0.918-0.478,1.325-0.691c0.407-0.216,0.784-0.406,1.151-0.524c0.357-0.134,0.676-0.253,0.953-0.357
				c0.284-0.085,0.53-0.141,0.727-0.194c0.196-0.055,0.35-0.088,0.454-0.101c0.104-0.018,0.157-0.026,0.157-0.026
				s-0.053,0.013-0.155,0.038c-0.103,0.021-0.252,0.065-0.443,0.135c-0.191,0.067-0.431,0.141-0.704,0.246
				c-0.267,0.123-0.573,0.266-0.916,0.425c-0.351,0.142-0.709,0.358-1.095,0.601c-0.385,0.242-0.813,0.482-1.246,0.774
				c-0.411,0.325-0.85,0.67-1.312,1.034c-0.229,0.182-0.466,0.367-0.707,0.557c-0.218,0.22-0.439,0.443-0.667,0.673
				c-0.452,0.456-0.923,0.931-1.411,1.422c-0.479,0.496-0.876,1.096-1.336,1.66c-0.441,0.584-0.924,1.146-1.359,1.782
				c-0.407,0.67-0.822,1.354-1.245,2.05c-0.211,0.348-0.424,0.698-0.639,1.052l-0.323,0.532l-0.081,0.134
				c-0.003,0.006-0.049,0.079-0.019,0.031l-0.032,0.069l-0.129,0.276c-0.333,0.744-0.718,1.468-1.02,2.243
				c-0.28,0.786-0.581,1.568-0.849,2.366c-0.232,0.813-0.465,1.63-0.697,2.446c-0.392,1.659-0.756,3.319-1.018,4.981
				c-0.159,0.823-0.248,1.656-0.363,2.472c-0.119,0.814-0.212,1.624-0.284,2.424c-0.179,1.593-0.276,3.143-0.375,4.609
				c-0.076,1.47-0.14,2.859-0.163,4.144c-0.057,2.568-0.035,4.708,0.008,6.199c0.027,0.74,0.049,1.321,0.062,1.718
				c0.021,0.396,0.031,0.607,0.031,0.607L993.844,1248.927z"/>
		</g>
		<circle fill="#FFFFFF" cx="922.441" cy="406.465" r="7.783"/>
		<circle fill="#FFFFFF" cx="911.981" cy="418.444" r="3.175"/>
		<g>
			<path fill="#827436" d="M1004.975,1039.166c0,0,0.095,0.124,0.285,0.33c0.177,0.215,0.49,0.491,0.854,0.833
				c0.393,0.324,0.867,0.696,1.444,1.05c0.568,0.363,1.254,0.682,1.998,0.972c0.383,0.128,0.758,0.289,1.184,0.379
				c0.407,0.122,0.839,0.215,1.287,0.287c0.887,0.171,1.849,0.228,2.84,0.263c0.5-0.009,1.009-0.019,1.523-0.027l0.717-0.085
				l0.863-0.088c0.533-0.078,0.942-0.228,1.425-0.305c0.473-0.097,1.012-0.293,1.516-0.432c1.028-0.319,2.056-0.701,3.066-1.122
				c1.011-0.41,2.009-0.86,2.971-1.313c1.929-0.9,3.734-1.821,5.297-2.621c1.588-0.799,2.912-1.465,3.839-1.931
				c0.939-0.471,1.501-0.728,1.501-0.728s-0.318,0.528-0.975,1.37c-0.651,0.845-1.648,1.991-2.959,3.259
				c-0.655,0.634-1.402,1.279-2.212,1.945c-0.826,0.644-1.708,1.315-2.681,1.937c-0.472,0.332-0.985,0.621-1.504,0.918
				c-0.513,0.307-1.043,0.6-1.605,0.854c-1.093,0.562-2.279,1.016-3.495,1.417c-0.636,0.165-1.215,0.362-1.895,0.493
				c-0.675,0.12-1.41,0.242-2.028,0.295l-0.867,0.029l-0.432,0.006l-0.214,0.003l-0.235,0.004l-0.117-0.01
				c-0.625-0.059-1.238-0.094-1.84-0.191c-1.208-0.204-2.363-0.501-3.412-0.944c-1.053-0.417-1.983-0.985-2.769-1.579
				c-0.781-0.604-1.405-1.261-1.874-1.894c-0.497-0.607-0.791-1.236-1.028-1.728
				C1005.008,1039.792,1004.975,1039.166,1004.975,1039.166z"/>
		</g>
	</g>
</g>
<g>
	<path fill-rule="evenodd" clip-rule="evenodd" d="M1479.546,500.155c25.689-2.06,34.796-1.168,54.918,7.38
		c-0.644-8.135,1.134-15.505,5.746-22.106c4.083-5.841,6.658-6.137,11.55-1.119c6.586,6.757,10.603,14.77,11.978,24.148
		c1.386,9.456,4.575,18.199,10.794,26.246c0.98-1.119,1.898-1.749,2.23-2.607c5.311-13.733,10.666-27.451,15.706-41.285
		c1.123-3.081,1.324-6.575,1.503-9.903c0.248-4.598,2.731-7.604,6.934-7.592c5.987,0.019,12.096,0.726,17.911,2.137
		c3.784,0.918,5.771,4.286,6.398,8.609c1.882,12.997,8.794,23.901,15.714,34.643c1.583,2.458,5.262,3.473,7.62,5.556
		c1.903,1.683,3.272,3.971,4.878,5.989c-2.094,1.507-4.016,3.935-6.311,4.363c-11.102,2.071-21.088-0.951-29.941-7.861
		c-1.066-0.832-2.073-1.736-3.598-3.021c-0.914,1.67-1.716,3.027-2.418,4.436c-1.695,3.406-3.31,6.853-5.019,10.251
		c-4.56,9.066-12.096,13.745-22.083,13.584c-15.868-0.254-30.826-3.056-40.123-18.106c-1.117-1.81-2.19-3.647-3.297-5.465
		c-0.071-0.119-0.243-0.178-0.731-0.514c-0.492,1.123-0.996,2.152-1.401,3.219c-7.059,18.581-20.388,32.14-36.139,43.251
		c-14.174,10.001-29.196,18.797-43.747,28.274c-1.38,0.898-2.769,2.789-2.942,4.354c-0.696,6.306-3.508,10.199-9.794,10.54
		c-4.891,0.268-10.102-0.286-14.71-1.839c-2.631-0.888-4.297-4.549-6.483-6.88c-1.281-1.367-2.545-2.928-4.147-3.775
		c-3.056-1.619-6.701-2.298-9.465-4.262c-4.658-3.311-4.031-7.948,1.183-10.28c2.59-1.157,5.505-1.587,9.177-2.593
		c-1.206-7.229-2.49-14.657-3.677-22.101c-3.928-24.646-8.069-49.262-11.571-73.968c-1.017-7.169-0.156-14.603-0.156-22.47
		c-5.839,2.581-11.479,5.082-17.127,7.569c-1.671,0.735-3.432,2.156-5.022,1.994c-2.831-0.289-6.181-0.87-8.114-2.639
		c-1.266-1.157-1.41-5.26-0.333-6.933c3.101-4.815,6.417-9.896,10.821-13.4c23.518-18.704,49.959-29.601,80.583-27.591
		c5.216,0.342,10.462,1.935,15.448,3.663c7.545,2.616,10.543,8.633,10.844,16.355c0.609,15.659-3.778,30.077-10.616,43.922
		c-1.076,2.178-2.079,4.394-3.079,6.609C1479.33,499.173,1479.48,499.522,1479.546,500.155z M1451.038,580.417
		c2.038-1.081,3.436-1.642,4.631-2.486c9.215-6.505,18.723-12.652,27.492-19.714c10.401-8.377,19.516-18.146,24.387-30.913
		c1.399-3.669,1.228-7.938,1.778-11.932c-4.013-0.193-8.141-1.095-12.017-0.46c-18.328,3-35.312,10.244-52.244,17.504
		c-1.157,0.496-2.493,2.746-2.285,3.922C1445.334,550.844,1448.16,565.303,1451.038,580.417z M1438.158,507.232
		c12.312-7.627,26.996-47.708,23.41-63.564c-10.593,1.519-20.438,5.208-30.009,9.914c-3.412,1.679-3.988,3.773-3.166,7.279
		c2.252,9.61,4.174,19.297,6.199,28.959C1435.795,495.561,1436.947,501.311,1438.158,507.232z"/>
	<path fill-rule="evenodd" clip-rule="evenodd" d="M1945.255,480.488c10.241-2.079,19.825-4.367,29.53-5.884
		c7.331-1.146,14.686-0.087,21.273,3.57c1.896,1.052,4.222,3.573,4.132,5.306c-0.085,1.645-2.9,3.424-4.843,4.605
		c-1.488,0.905-3.477,1.29-5.262,1.356c-11.699,0.431-22.172,4.992-32.749,9.33c-3.276,1.344-3.745,2.94-2.634,6.276
		c4.654,13.984,9.619,27.918,13.234,42.184c3.912,15.438,2.858,31.234-0.562,46.703c-3.511,15.874-14.085,25.225-30.319,27.535
		c-18.58,2.643-35.998-0.66-51.092-12.065c-18.805-14.209-24.772-40.057-15.78-64.211c6.105-16.397,17.987-28.084,31.189-38.669
		c4.985-3.996,10.313-7.601,15.704-11.041c2.545-1.623,3.155-2.996,1.918-5.83c-3.773-8.648-7.253-17.422-10.882-26.135
		c-0.503-1.207-1.196-2.335-2.187-4.239c-1.838,6.463-3.113,12.216-5.135,17.693c-1.989,5.392-4.447,10.665-7.223,15.701
		c-3.574,6.487-9.682,10.012-16.816,10.432c-21.092,1.242-34.506-4.51-43.397-23.267c-2.723-5.744-4.946-11.829-6.537-17.98
		c-3.06-11.817,1.421-22.2,7.572-31.925c2.128-3.364,5.081-2.917,7.359,1.36c3.79,7.116,7.297,14.406,10.476,21.814
		c3.416,7.963,6.247,16.176,9.491,24.215c0.871,2.163,2.315,4.096,4.201,7.35c1.965-4.471,3.634-7.658,4.799-11.019
		c6.821-19.672,10.271-40.078,12.674-60.667c0.55-4.703,2.542-7.202,7.115-8.039c6.721-1.23,13.062-0.317,18.929,3.161
		c1.378,0.816,2.756,2.086,3.475,3.487c5.48,10.679,11.021,21.336,16.1,32.208c4.956,10.612,9.377,21.474,14.064,32.214
		C1943.85,477.796,1944.774,479.509,1945.255,480.488z M1937.938,518.971c-4.025,3.521-7.471,6.465-10.837,9.495
		c-12.758,11.49-20.708,25.509-21.451,42.899c-0.54,12.622,2.462,24.199,12.415,33.001c9.699,8.578,20.062,6.909,24.998-5.046
		c2.895-7.007,4.082-14.9,4.967-22.52C1950.336,556.945,1945.49,538.186,1937.938,518.971z"/>
	<path fill-rule="evenodd" clip-rule="evenodd" d="M1128.141,317.127c-6.304,1.889-11.638,3.696-17.089,5.01
		c-2.008,0.484-4.296-0.198-6.456-0.348c0.189-2.171-0.364-4.855,0.71-6.417c3.07-4.462,6.046-9.641,10.403-12.454
		c20.858-13.459,42.063-26.456,66.162-33.563c10.754-3.171,21.657-3.08,32.541-0.443c9.991,2.42,13.278,7.672,11.589,17.707
		c-4.11,24.407-18.262,42.773-35.423,59.348c-1.029,0.995-2.573,1.455-3.877,2.163c0.424,0.44,0.848,0.88,1.273,1.32
		c8.305,0,16.65-0.515,24.902,0.145c8.315,0.667,16.688,1.909,24.766,3.96c12.719,3.229,17.414,12.636,14.25,26.664
		c-2.956,13.108-9.199,24.506-18.423,34.179c-16.803,17.623-35.945,31.984-58.655,41.269c-2.356,0.962-4.419,2.62-6.68,3.842
		c-1.724,0.931-3.502,2.292-5.328,2.418c-14.08,0.979-28.201,4.002-42.251,0.061c-3.308-0.928-6.581-2.378-9.478-4.208
		c-1.368-0.864-2.678-3.34-2.424-4.815c0.242-1.415,2.36-3.098,3.97-3.557c2.72-0.777,5.687-0.723,8.555-0.945
		c5.607-0.433,11.225-0.746,16.825-1.25c2.827-0.254,3.87-2.044,3.409-4.793c-2.74-16.363-5.383-32.744-8.354-49.064
		c-0.273-1.506-2.412-3.019-4.031-3.856c-2.807-1.45-6.091-2.019-8.805-3.593c-5.026-2.915-5.224-6.636-0.848-10.641
		c2.247-2.056,4.888-3.716,6.94-5.937c1.179-1.276,2.351-3.423,2.139-4.99C1126.364,348.908,1124.535,333.504,1128.141,317.127z
		 M1170.565,433.673c14.153-9.134,26.486-18.706,36.953-30.59c7.514-8.535,12.556-18.248,14.843-29.427
		c1.604-7.845,0.708-9.36-7.103-9.55c-18.134-0.442-35.24,4.343-52.044,10.562c-2.796,1.035-3.482,2.7-2.83,5.661
		c2.523,11.441,4.876,22.921,7.117,34.419C1168.657,420.679,1169.445,426.678,1170.565,433.673z M1156.313,343.295
		c17.877-16.399,34.449-33.42,39.725-58.834c-1.351,0.175-1.849,0.118-2.219,0.307c-15.734,7.994-31.477,15.972-47.127,24.128
		c-0.848,0.442-1.572,2.61-1.238,3.599C1148.852,322.557,1152.482,332.542,1156.313,343.295z"/>
	<path fill-rule="evenodd" clip-rule="evenodd" d="M1742.98,512.629c0.089,0.416,0.324,1.727,0.655,3.014
		c0.822,3.197-0.54,5.322-3.297,6.719c-10.03,5.081-23.63-1.203-28.307-11.328c-5.719-12.379-12.919-24.088-19.766-35.921
		c-1.903-3.291-3.921-2.833-4.97,1.205c-3.135,12.068-4.201,24.271-1.367,36.605c1.26,5.481,2.679,10.958,3.433,16.517
		c0.728,5.36-1.22,7.887-6.569,8.422c-4.177,0.418-8.551,0.292-12.674-0.478c-6.661-1.243-10.698-4.768-11.725-12.409
		c-1.207-8.979-3.724-17.881-6.557-26.525c-5.672-17.3,7.485-46.8,36.196-42.097c3.757,0.616,7.596,0.796,11.312,1.577
		c9.96,2.09,17.349,8.004,22.772,16.37c4.87,7.509,9.412,15.229,14.771,23.95c-0.469-9.253-1.197-17.315-1.191-25.377
		c0.006-6.964,0.008-14.112,1.503-20.849c2.56-11.53,11.96-15.887,22.392-18.176c10.687-2.346,21.262-0.778,31.624,2.079
		c13.499,3.722,20.279,14.334,25.843,26.027c6.808,14.309,9.503,29.81,12.662,45.139c0.342,1.656-1.48,4.662-3.134,5.664
		c-5.702,3.455-19.609,1.867-24.21-2.911c-2.052-2.129-3.203-5.452-3.967-8.437c-3.608-14.12-5.298-28.798-12.507-41.841
		c-1.179-2.134-2.075-4.505-3.613-6.337c-1.637-1.947-4.452-5.121-5.747-4.696c-3.153,1.034-6.571,3.316-8.289,6.085
		c-1.71,2.758-1.586,6.706-2.078,10.158c-1.925,13.503,0.008,26.726,3.04,39.858c1.77,7.66,0.054,10.574-7.773,10.549
		C1755.377,515.166,1749.316,513.566,1742.98,512.629z"/>
	<path fill-rule="evenodd" clip-rule="evenodd" d="M1375.078,388.599c-0.832,1.401-1.692,2.788-2.496,4.207
		c-5.859,10.366-14.514,16.87-26.611,16.165c-8.212-0.479-16.765-1.881-24.338-4.924c-11.607-4.667-17.199-14.463-16.031-27.073
		c1.561-16.855,4.382-33.49,11.199-49.213c7.569-17.456,21.562-24.005,39.338-17.372c6.007,2.242,11.475,6.089,16.879,9.67
		c1.355,0.898,1.514,3.603,2.222,5.478c-1.856,0.17-3.784,0.733-5.557,0.42c-2.976-0.528-5.841-1.655-8.773-2.455
		c-6.032-1.645-8.399-1.116-11.493,4.315c-2.759,4.844-5.357,10.052-6.603,15.43c-2.911,12.561-5.23,25.279-7.194,38.024
		c-0.551,3.579,0.967,7.474,1.535,11.224c0.688,0.139,1.376,0.277,2.063,0.417c2.038-2.67,4.792-5.053,5.991-8.057
		c4.729-11.842,9.006-23.865,13.369-35.852c1.611-4.428,3.167-8.892,4.426-13.428c1.06-3.814,3.719-5.634,7.206-6.026
		c3.296-0.37,6.776-0.444,10.009,0.194c10.23,2.017,12.278,4.66,12.164,15.136c-0.114,10.555,0.181,21.019,3.9,31.097
		c1.894,5.128,4.946,9.05,10.192,11.018c0.567,0.213,1.121,0.484,1.642,0.794c2.772,1.652,7.562,2.959,6.11,6.536
		c-0.928,2.286-6.021,4.265-9.084,4.049c-10.142-0.713-20.466-1.701-28.515-9.236
		C1376.336,388.865,1375.809,388.842,1375.078,388.599z"/>
	<path fill-rule="evenodd" clip-rule="evenodd" d="M1511.44,350.655c0,4.754-0.009,8.823,0.001,12.89
		c0.014,6.257,0.092,12.514,0.048,18.771c-0.063,9.072-3.044,12.123-12.155,11.811c-3.279-0.113-6.686-0.888-9.747-2.092
		c-7.165-2.815-8.313-5.017-8.234-12.858c0.23-22.874,1.249-45.784,0.304-68.61c-0.613-14.832,2.199-28.092,9.997-40.397
		c1.68-2.653,4.558-4.546,6.885-6.79c1.655,2.725,3.897,5.256,4.868,8.206c4.653,14.137,6.118,28.845,7.139,43.606
		c0.165,2.405,0.452,4.8,0.775,8.142c3.6-2.82,6.396-5.312,9.48-7.373c12.274-8.201,24.581-16.356,37.029-24.287
		c1.846-1.175,4.513-1.062,6.799-1.547c0.227,2.461,1.042,5.042,0.577,7.365c-2.094,10.48-7.179,19.308-15.376,26.319
		c-5.325,4.555-10.501,9.286-15.693,13.992c-2.76,2.5-2.097,4.192,0.912,6.341c11.287,8.062,22.4,16.374,33.442,24.772
		c2.662,2.024,6.721,4.146,5.158,8.245c-1.628,4.271-6.209,3.757-9.965,3.667c-9.637-0.233-17.349-4.905-24.671-10.709
		c-7.758-6.151-15.795-11.952-23.758-17.842C1514.366,351.618,1513.173,351.373,1511.44,350.655z"/>
	<path fill-rule="evenodd" clip-rule="evenodd" d="M1603.854,294.195c16.427,1.412,31.876,5.181,43.435,18.272
		c7.869,8.915,12.01,18.577,9.095,30.969c-2.819,11.994-7.52,22.824-15.554,32.075c-5.384,6.196-12.622,8.4-20.648,7.435
		c-4.82-0.58-9.61-1.637-14.331-2.811c-18.78-4.668-27.216-18.573-31.88-35.874c-1.679-6.227-1.181-11.978,2.206-17.572
		c0.655-1.082,0.539-3.204-0.089-4.383c-2.038-3.826-1.833-7.356,0.728-10.686c2.688-3.496,5.375-7.038,8.447-10.185
		C1590.289,296.289,1596.478,293.647,1603.854,294.195z"/>
	<path fill-rule="evenodd" clip-rule="evenodd" d="M1802.633,294.367c1.387-12.14,2.439-23.191,3.963-34.177
		c1.672-12.054,7.645-22.071,15.984-30.691c3.441-3.557,6.439-2.916,8.371,1.842c4.322,10.646,5.525,21.771,4.406,33.186
		c-1.04,10.601-1.996,21.209-3.058,32.534c7.526,1.353,14.489,2.597,21.448,3.856c6.592,1.194,13.246,2.134,19.744,3.716
		c3.633,0.884,7.191,2.534,10.411,4.461c1.552,0.93,3.212,3.396,3.047,4.981c-0.158,1.518-2.438,3.643-4.105,3.998
		c-3.489,0.744-7.29,1.116-10.786,0.548c-13.192-2.139-26.312-4.714-40.354-7.292c-0.404,5.995-1.198,11.367-1.049,16.711
		c0.487,17.371,1.36,34.729,1.979,52.096c0.113,3.178-0.033,6.411-0.504,9.553c-0.591,3.946-5.595,6.616-11.423,6.127
		c-2.86-0.24-5.737-0.816-8.497-1.618c-6.153-1.788-9.8-5.529-10.006-12.43c-0.714-23.904-3.058-47.796-0.444-71.711
		c0.342-3.14-0.889-4.274-3.666-5.134c-6.822-2.111-13.563-4.493-20.296-6.881c-1.477-0.524-2.779-1.536-4.163-2.323
		c0.079-0.451,0.158-0.901,0.238-1.351C1783.278,294.367,1792.685,294.367,1802.633,294.367z"/>
	<path fill-rule="evenodd" clip-rule="evenodd" d="M1704.668,362.455c3.625-6.277,6.812-11.418,9.628-16.757
		c5.943-11.265,13.05-22.051,14.948-35.053c0.594-4.06,3.565-5.65,7.113-5.831c3.454-0.174,7.049-0.059,10.402,0.708
		c9.937,2.276,11.804,5.026,12.136,15.079c0.49,14.86,1.975,29.615,10.104,42.587c2.146,3.424,5.865,5.863,8.867,8.748
		c0.105,0.102,0.3,0.112,0.398,0.217c2.182,2.288,6.456,4.994,6.105,6.799c-0.817,4.205-5.636,3.887-9.169,3.773
		c-15.148-0.484-27.432-6.301-35.327-19.819c-0.308-0.526-0.596-1.062-1.276-2.279c-3.208,5.59-6.109,10.182-8.553,15.006
		c-4.323,8.532-11.366,11.581-20.41,10.354c-8.749-1.188-18.203-1.881-24.105-9.356c-11.904-15.077-19.781-32.193-20.826-51.612
		c-0.521-9.677,5.508-16.846,12.644-22.756c3.237-2.682,6.126-0.802,7.374,2.284c2.998,7.423,6.502,14.879,7.893,22.662
		C1694.764,339.233,1699.255,350.213,1704.668,362.455z"/>
	<path fill-rule="evenodd" clip-rule="evenodd" d="M1287.974,414.21c-3.906-1.104-7.871-2.042-11.705-3.356
		c-4.228-1.451-6.987-4.604-7.487-9.018c-1.367-12.103-2.506-24.233-3.605-36.365c-2.43-26.855-4.756-53.721-7.176-80.577
		c-0.858-9.535-0.119-18.622,6.575-26.236c4.024-4.576,6.954-4.507,10.742,0.264c7.423,9.351,11.311,20.201,12.519,31.892
		c2.976,28.788,5.578,57.615,8.41,86.419c0.776,7.883,1.678,15.76,2.799,23.601C1300.674,412.228,1299.616,413.577,1287.974,414.21z
		"/>
	<path fill-rule="evenodd" clip-rule="evenodd" d="M1467.06,310.037c-4.198,0.698-7.165,0.942-9.969,1.752
		c-1.613,0.467-3.517,1.51-4.348,2.869c-10.178,16.644-14.075,35.215-16.099,54.287c-0.264,2.487,0.165,5.243,1.006,7.613
		c2.101,5.918,7.714,7.56,12.976,4.105c2.804-1.839,5.533-3.805,8.412-5.517c5.113-3.038,8.819-2.224,12.786,2.6
		c3.81,4.634,4.305,10.068,0.036,13.499c-3.648,2.932-8.262,5.668-12.767,6.338c-13.312,1.98-26.104-0.464-37.777-7.534
		c-10.706-6.484-16.494-15.192-14.329-28.476c2.435-14.938,5.39-29.639,11.888-43.429c8.617-18.288,28.851-20.418,45.038-11.72
		C1464.746,306.873,1465.254,307.926,1467.06,310.037z"/>
</g>
</svg>
