<?xml version="1.0" encoding="utf-8"?>
<!-- Generator: Adobe Illustrator 16.0.0, SVG Export Plug-In . SVG Version: 6.00 Build 0)  -->
<!DOCTYPE svg PUBLIC "-//W3C//DTD SVG 1.1//EN" "http://www.w3.org/Graphics/SVG/1.1/DTD/svg11.dtd">
<svg version="1.1" id="Layer_1" xmlns="http://www.w3.org/2000/svg" xmlns:xlink="http://www.w3.org/1999/xlink" x="0px" y="0px"
	 width="671.02px" height="563.379px" viewBox="0 0 671.02 563.379" enable-background="new 0 0 671.02 563.379"
	 xml:space="preserve">
<ellipse fill="#9DCD5B" cx="335.373" cy="286.402" rx="314.745" ry="238.866"/>
<polygon fill="#E6E7E8" points="186.754,291.462 189.64,240.45 484.895,249.352 485.857,292.665 "/>
<ellipse fill="#E6E7E8" cx="336.496" cy="284.638" rx="149.602" ry="111.567"/>
<ellipse fill="#808285" cx="336.666" cy="254.56" rx="147.988" ry="110.364"/>
<g>
	<defs>
		<ellipse id="SVGID_17_" cx="336.666" cy="254.56" rx="147.988" ry="110.364"/>
	</defs>
	<clipPath id="SVGID_2_">
		<use xlink:href="#SVGID_17_"  overflow="visible"/>
	</clipPath>
	<ellipse clip-path="url(#SVGID_2_)" fill="#5ABFE2" cx="337.388" cy="276.938" rx="147.988" ry="110.364"/>
</g>
<g>
	
		<path fill="#F0B7D4" stroke="#CE84AD" stroke-width="1.4438" stroke-linecap="round" stroke-linejoin="round" stroke-miterlimit="10" d="
		M284.757,208.059c2.549,0.36,4.415,2.192,4.343,4.286c-0.074,2.121-2.273,3.694-5.117,3.73c1.196,1.896,0.618,4.013-1.863,4.951
		c-2.663,1.006-6.396,0.331-7.881-1.631c-0.064-0.086-0.105-0.181-0.159-0.271c-0.099,0.128-0.18,0.265-0.301,0.386
		c-1.714,1.718-5.178,2.167-7.472,0.821c-2.167-1.273-2.464-3.652-0.965-5.423c-2.491-0.425-4.157-2.287-3.889-4.291
		c0.272-2.032,2.559-3.507,5.279-3.541c-0.935-1.797-0.061-3.754,2.435-4.663c2.634-0.959,5.933-0.361,7.186,1.469
		c0.023-0.022,0.038-0.052,0.063-0.077c1.721-1.684,5.021-2.203,7.247-0.982C285.771,203.98,286.188,206.273,284.757,208.059z"/>
</g>
<ellipse fill="#3193AD" cx="352.547" cy="261.504" rx="68.58" ry="50.171"/>
<ellipse fill="#808285" cx="337.692" cy="253.428" rx="62.388" ry="46.525"/>
<ellipse fill="#A7A9AC" cx="337.083" cy="241.254" rx="62.387" ry="46.526"/>
<path fill="#808285" d="M359.525,251.517c0,0,33.775,7.828,37.058,6.499c0,0,4.715-7.652,2.888-15.644
	c-1.829-7.988-10.148-8.685-15.688-15.976c-6.69-8.807-46.935-35.439-35.596-5.159C359.525,251.517,327.184,236.887,359.525,251.517
	z"/>
<ellipse fill="#808285" cx="336.847" cy="238.704" rx="35.914" ry="16.303"/>
<path fill="#BCBEC0" d="M357.121,124.946c0,0-40.67,12.881-48.248,51.855c-7.58,38.982-5.053,61.18-5.053,61.18
	s38.26,21.477,67.496-3.79l-0.722-51.977C370.595,182.215,385.518,130.48,357.121,124.946z"/>
<ellipse fill="#D1D3D4" cx="337.629" cy="169.823" rx="23.101" ry="31.402"/>
<g>
	
		<path fill="#DD802F" stroke="#AD6027" stroke-width="1.4438" stroke-linecap="round" stroke-linejoin="round" stroke-miterlimit="10" d="
		M265.075,295.549c-2.585-1.024-6.08-0.388-8.164,1.501c-2.108,1.91-1.807,4.458,0.632,5.99c-2.983,1.042-4.647,3.215-3.445,5.351
		c1.29,2.293,5.244,3.648,8.533,2.719c0.145-0.041,0.273-0.105,0.414-0.155c-0.047,0.165-0.109,0.331-0.129,0.5
		c-0.275,2.431,2.287,4.647,5.659,4.667c3.188,0.019,5.884-1.929,6.39-4.283c2.601,0.938,5.955,0.17,7.771-1.74
		c1.842-1.937,1.364-4.447-0.969-5.912c2.65-1.093,3.892-3.279,2.649-5.398c-1.311-2.237-4.796-3.458-7.759-2.501
		c0.003-0.034,0.022-0.065,0.027-0.1c0.339-2.372-2.123-4.594-5.312-4.69C268.357,291.409,265.657,293.215,265.075,295.549z"/>
</g>
<g>
	
		<path fill="#DD802F" stroke="#AD6027" stroke-width="1.4438" stroke-linecap="round" stroke-linejoin="round" stroke-miterlimit="10" d="
		M417.06,219.749c-1.862-0.737-4.38-0.278-5.878,1.086c-1.516,1.379-1.298,3.218,0.456,4.32c-2.145,0.756-3.336,2.332-2.474,3.869
		c0.927,1.652,3.768,2.613,6.133,1.943c0.104-0.029,0.201-0.075,0.302-0.111c-0.033,0.12-0.082,0.239-0.095,0.361
		c-0.188,1.745,1.646,3.344,4.077,3.356c2.297,0.011,4.239-1.388,4.605-3.085c1.875,0.676,4.29,0.12,5.599-1.261
		c1.325-1.399,0.98-3.209-0.699-4.261c1.91-0.793,2.804-2.378,1.91-3.904c-0.943-1.61-3.452-2.477-5.587-1.783
		c0.002-0.024,0.015-0.047,0.019-0.073c0.229-1.733-1.526-3.312-3.826-3.379C419.428,216.762,417.478,218.067,417.06,219.749z"/>
</g>
<g>
	
		<path fill="#F0B7D4" stroke="#CE84AD" stroke-width="1.4438" stroke-linecap="round" stroke-linejoin="round" stroke-miterlimit="10" d="
		M410.85,311.05c2.549,0.36,4.414,2.191,4.342,4.285c-0.074,2.121-2.275,3.694-5.119,3.731c1.196,1.896,0.618,4.013-1.863,4.95
		c-2.663,1.006-6.395,0.332-7.879-1.63c-0.064-0.086-0.105-0.181-0.159-0.271c-0.099,0.128-0.182,0.264-0.303,0.386
		c-1.714,1.718-5.176,2.168-7.47,0.822c-2.167-1.273-2.466-3.653-0.967-5.423c-2.491-0.425-4.158-2.288-3.889-4.292
		c0.272-2.032,2.559-3.505,5.279-3.54c-0.935-1.797-0.058-3.756,2.438-4.665c2.634-0.959,5.933-0.36,7.186,1.47
		c0.023-0.022,0.037-0.052,0.062-0.076c1.721-1.684,5.022-2.202,7.249-0.981C411.865,306.971,412.28,309.264,410.85,311.05z"/>
</g>
<g>
	
		<path fill="#F0B7D4" stroke="#CE84AD" stroke-width="1.4438" stroke-linecap="round" stroke-linejoin="round" stroke-miterlimit="10" d="
		M243.898,244.094c1.752-0.408,3.162-2.061,3.271-3.958c0.111-1.919-1.12-3.365-2.91-3.302c0.961-1.84,0.873-3.975-0.443-4.82
		c-1.411-0.905-3.89,0.046-5.272,2.01c-0.062,0.086-0.106,0.179-0.161,0.269c-0.037-0.121-0.062-0.248-0.113-0.36
		c-0.737-1.624-2.834-1.84-4.746-0.471c-1.807,1.293-2.544,3.479-1.804,5.058c-1.766,0.458-3.144,2.218-3.148,4.092
		c-0.005,1.9,1.321,3.213,3.092,3.108c-0.831,1.75-0.584,3.644,0.812,4.35c1.475,0.747,3.819-0.093,5.037-1.856
		c0.01,0.021,0.011,0.044,0.022,0.067c0.751,1.507,2.89,1.733,4.698,0.517C243.939,247.646,244.619,245.625,243.898,244.094z"/>
</g>
<path fill="#BCBEC0" d="M357.121,124.946l58.713-36.576l-40.906,64.007C374.928,152.377,351.347,139.383,357.121,124.946z"/>
<path fill="#BCBEC0" d="M445.599,199.336c0,0,7.295-2.164,3.939,3.165"/>
<path fill="#6D6E71" d="M363.224,184.332c0,0,5.206,29.397,37.478,19.16c0,0,17.798,5.106,20.104,9.047
	c2.305,3.941,6.092,1.861,10.431,1.44c4.337-0.421,31.829-3.944,7.911-26.45c0,0-36.114-24.365-36.932-30.586
	c-0.819-6.221-24.862-12.964-30.711-12.716"/>
<path fill="#BCBEC0" d="M363.224,181.926c0,0,5.206,29.396,37.478,19.16c0,0,17.798,5.106,20.104,9.047
	c2.305,3.941,8.499,7.636,12.838,7.215c4.336-0.421,29.422-9.719,5.504-32.225c0,0-36.114-24.364-36.932-30.586
	c-0.819-6.221-24.862-12.963-30.711-12.715"/>
<path fill="#6D6E71" d="M380.222,169.221c0,0,4.813-10.828,10.829-10.828c6.015,0,8.421,11.31,8.421,11.31"/>
<circle fill="#BCBEC0" cx="391.77" cy="168.5" r="4.572"/>
<path fill="#6D6E71" d="M439.896,202.91c0,0,4.332-6.256,5.054,0"/>
<path fill="#BCBEC0" d="M439.657,204.353c0,0,4.331-6.256,5.053,0"/>
<polygon fill="#E6E7E8" points="412.1,92.173 366.625,132.476 359.296,125.158 "/>
<polygon fill="#A7A9AC" points="412.497,91.889 379.258,142.873 370.498,137.847 "/>
<circle fill="#E6E7E8" cx="380.521" cy="180.23" r="5.595"/>
<path fill="#D1D3D4" d="M412.465,171.748l23.822,27.793c0,0,4.692-4.332,7.58-2.527S445.672,184.02,412.465,171.748z"/>
<path fill="#D1D3D4" d="M383.35,143.026c0,0-80.221-2.688-10.246,91.362c0,0-14.258,17.023-38.242,16.287
	c-25.229-0.774-35.733-19.463-35.733-19.463s4.703-112.195,59.436-101.935C358.563,129.278,366.854,128.37,383.35,143.026z"/>
<circle fill="#E6E7E8" cx="336.426" cy="168.018" r="15.16"/>
<g>
	<path fill="#62AA45" stroke="#629145" stroke-width="1.704" stroke-miterlimit="10" d="M187.956,305.9
		c0,0,2.166-20.935,5.775-15.882s0,27.432,0,27.432"/>
	<path fill="#62AA45" stroke="#629145" stroke-width="1.704" stroke-miterlimit="10" d="M181.82,284.965
		c0,0,2.165-20.935,5.775-15.882c3.609,5.053,0,27.432,0,27.432"/>
	<path fill="#62AA45" stroke="#629145" stroke-width="1.704" stroke-miterlimit="10" d="M197.271,326.835
		c0,0,2.842-20.935,7.579-15.881c4.738,5.053,0,27.432,0,27.432"/>
	<path fill="#62AA45" stroke="#629145" stroke-width="1.704" stroke-miterlimit="10" d="M211.578,346.972
		c0,0,1.535-21.208,8.244-16.829c6.71,4.381,2.85,27.284,2.85,27.284"/>
	<path fill="#62AA45" stroke="#629145" stroke-width="1.704" stroke-miterlimit="10" d="M230.548,366.178
		c0,0,0.722-22.379,8.399-20.285c7.73,2.108,5.006,26.973,5.006,26.973"/>
	<path fill="#62AA45" stroke="#629145" stroke-width="1.704" stroke-miterlimit="10" d="M256.268,380.389
		c0,0-0.296-22.511,8.288-21.151c8.645,1.366,6.851,26.563,6.851,26.563"/>
	<path fill="#62AA45" stroke="#629145" stroke-width="1.704" stroke-miterlimit="10" d="M282.605,390.613
		c0,0-0.465-22.196,9.083-21.554c9.616,0.645,7.774,25.663,7.774,25.663"/>
	<path fill="#62AA45" stroke="#629145" stroke-width="1.704" stroke-miterlimit="10" d="M311.039,396.498
		c0,0-0.361-23.461,9.887-23.468c9.637-0.007,9.243,25.634,9.243,25.634"/>
	<path fill="#62AA45" stroke="#629145" stroke-width="1.704" stroke-miterlimit="10" d="M341.009,396.758
		c0,0-2.229-23.357,7.984-24.18c9.606-0.776,11.257,24.815,11.257,24.815"/>
	<g>
		<path fill="#62AA45" stroke="#629145" stroke-width="1.704" stroke-miterlimit="10" d="M484.77,307.464
			c0,0-2.166-20.935-5.775-15.882s0,27.432,0,27.432"/>
		<path fill="#62AA45" stroke="#629145" stroke-width="1.704" stroke-miterlimit="10" d="M490.905,286.529
			c0,0-2.165-20.935-5.774-15.881s0,27.432,0,27.432"/>
		<path fill="#62AA45" stroke="#629145" stroke-width="1.704" stroke-miterlimit="10" d="M475.455,328.399
			c0,0-2.842-20.935-7.58-15.882c-4.736,5.053,0,27.432,0,27.432"/>
		<path fill="#62AA45" stroke="#629145" stroke-width="1.704" stroke-miterlimit="10" d="M461.147,348.536
			c0,0-1.536-21.208-8.244-16.829c-6.71,4.38-2.85,27.284-2.85,27.284"/>
		<path fill="#62AA45" stroke="#629145" stroke-width="1.704" stroke-miterlimit="10" d="M442.178,367.742
			c0,0-0.722-22.378-8.398-20.285c-7.731,2.108-5.007,26.972-5.007,26.972"/>
		<path fill="#62AA45" stroke="#629145" stroke-width="1.704" stroke-miterlimit="10" d="M416.457,381.953
			c0,0,0.297-22.511-8.287-21.15c-8.645,1.366-6.851,26.563-6.851,26.563"/>
		<path fill="#62AA45" stroke="#629145" stroke-width="1.704" stroke-miterlimit="10" d="M390.12,392.176
			c0,0,0.465-22.195-9.083-21.554c-9.616,0.644-7.774,25.662-7.774,25.662"/>
	</g>
</g>
<g>
	<path fill="#9DCD5B" d="M188.678,313.841c0,0,2.166-20.935,5.775-15.881s0,27.432,0,27.432"/>
	<path fill="#9DCD5B" d="M182.542,292.906c0,0,2.166-20.935,5.775-15.882s0,27.432,0,27.432"/>
	<path fill="#9DCD5B" d="M197.992,334.776c0,0,2.843-20.935,7.58-15.882s0,27.432,0,27.432"/>
	<path fill="#9DCD5B" d="M212.301,354.913c0,0,1.535-21.208,8.243-16.829c6.71,4.381,2.85,27.284,2.85,27.284"/>
	<path fill="#9DCD5B" d="M231.27,374.119c0,0,0.722-22.379,8.399-20.285c7.73,2.108,5.007,26.972,5.007,26.972"/>
	<path fill="#9DCD5B" d="M256.99,388.33c0,0-0.297-22.511,8.287-21.151c8.645,1.366,6.852,26.563,6.852,26.563"/>
	<path fill="#9DCD5B" d="M283.328,398.553c0,0-0.466-22.195,9.082-21.554c9.616,0.645,7.775,25.663,7.775,25.663"/>
	<path fill="#9DCD5B" d="M311.761,404.438c0,0-0.361-23.461,9.887-23.469c9.637-0.007,9.243,25.634,9.243,25.634"/>
	<path fill="#9DCD5B" d="M341.73,404.699c0,0-2.229-23.357,7.984-24.181c9.606-0.775,11.257,24.815,11.257,24.815"/>
	<g>
		<path fill="#9DCD5B" d="M485.491,315.405c0,0-2.165-20.935-5.774-15.882s0,27.432,0,27.432"/>
		<path fill="#9DCD5B" d="M491.627,294.47c0,0-2.165-20.935-5.774-15.882s0,27.432,0,27.432"/>
		<path fill="#9DCD5B" d="M476.178,336.339c0,0-2.843-20.935-7.58-15.881s0,27.432,0,27.432"/>
		<path fill="#9DCD5B" d="M461.869,356.477c0,0-1.535-21.208-8.244-16.829c-6.71,4.38-2.85,27.284-2.85,27.284"/>
		<path fill="#9DCD5B" d="M442.899,375.683c0,0-0.722-22.378-8.398-20.285c-7.731,2.107-5.007,26.972-5.007,26.972"/>
		<path fill="#9DCD5B" d="M417.18,389.894c0,0,0.296-22.511-8.288-21.151c-8.644,1.366-6.851,26.563-6.851,26.563"/>
		<path fill="#9DCD5B" d="M390.842,400.117c0,0,0.465-22.196-9.083-21.554c-9.616,0.645-7.774,25.663-7.774,25.663"/>
	</g>
</g>
<path fill="#3193AD" d="M460.832,277.024c0,11.563-11.932,10.106-28.876,10.106c-16.945,0-32.485,1.457-32.485-10.106
	c0-9.898,0.188-27.412,13.716-29.598c2.275-0.367,2.166-2.166,16.965,8.663C443.826,266.096,460.832,265.461,460.832,277.024z"/>
<g>
	<path fill="#F8E36B" stroke="#B9AB52" stroke-width="1.4438" stroke-miterlimit="10" d="M111.427,352.667
		c1.419,2.139,5.66,1.956,9.473-0.403l3.679-2.28c3.811-2.361,5.748-6.008,4.328-8.145l0,0c-1.42-2.139-5.658-1.958-9.473,0.405
		l-3.677,2.278C111.946,346.88,110.006,350.528,111.427,352.667L111.427,352.667z"/>
	<path fill="#F8E36B" stroke="#B9AB52" stroke-width="1.4438" stroke-miterlimit="10" d="M162.236,342.316
		c-1.498,2.088,0.31,5.797,4.032,8.288l3.594,2.399c3.724,2.487,7.955,2.812,9.451,0.722l0,0c1.497-2.087-0.31-5.798-4.033-8.288
		l-3.594-2.4C167.963,340.548,163.731,340.227,162.236,342.316L162.236,342.316z"/>
	<path fill="#F8E36B" stroke="#B9AB52" stroke-width="1.4438" stroke-miterlimit="10" d="M121.271,375.597
		c1.809,3.301,6.049,4.56,9.466,2.813l6.751-3.452c3.418-1.747,4.723-5.839,2.913-9.141l0,0c-1.808-3.299-6.046-4.56-9.466-2.814
		l-6.751,3.455C120.767,368.203,119.464,372.296,121.271,375.597L121.271,375.597z"/>
	<path fill="#F8E36B" stroke="#B9AB52" stroke-width="1.4438" stroke-miterlimit="10" d="M168.834,375.597
		c-1.807,3.301-6.047,4.56-9.466,2.813l-6.751-3.452c-3.416-1.747-4.721-5.839-2.911-9.141l0,0c1.809-3.299,6.046-4.56,9.465-2.814
		l6.751,3.455C169.339,368.203,170.645,372.296,168.834,375.597L168.834,375.597z"/>
	<path fill="#F8E36B" stroke="#B9AB52" stroke-width="1.4438" stroke-miterlimit="10" d="M166.485,350.419
		c0,8.148-6.841,14.755-15.278,14.755h-11.458c-8.437,0-15.277-6.607-15.277-14.755l0,0c0-8.148,6.841-14.754,15.277-14.754h11.458
		C159.645,335.666,166.485,342.271,166.485,350.419L166.485,350.419z"/>
	<path fill="#F8E36B" stroke="#B9AB52" stroke-width="1.4438" stroke-miterlimit="10" d="M168.605,326.237
		c0,8.828-6.174,15.983-13.789,15.983h-19.096c-7.617,0-13.791-7.155-13.791-15.983l0,0c0-8.828,6.174-15.985,13.791-15.985h19.096
		C162.432,310.252,168.605,317.41,168.605,326.237L168.605,326.237z"/>
	<path fill="#F8E36B" stroke="#B9AB52" stroke-width="1.4438" stroke-miterlimit="10" d="M134.598,311.915
		c0,0-1.046-14.974-19.32-15.225c-18.278-0.251-9.494,2.414-9.494,2.414s13.957,16.626,24.658,15.075
		C141.143,312.627,134.998,313.098,134.598,311.915z"/>
	<path fill="#F8E36B" stroke="#B9AB52" stroke-width="1.4438" stroke-miterlimit="10" d="M157.787,312.369
		c0,0,4.597-14.336,22.439-10.503c17.842,3.834,7.58,3.496,1.41,5.406c-6.173,1.911-10.307,12.124-20.349,8.227
		C151.247,311.602,157.115,313.432,157.787,312.369z"/>
	<path fill="#F8E36B" d="M167.985,326.415c0,8.547-5.977,15.473-13.348,15.473h-18.483c-7.374,0-13.349-6.926-13.349-15.473l0,0
		c0-8.544,5.975-15.47,13.349-15.47h18.483C162.009,310.945,167.985,317.871,167.985,326.415L167.985,326.415z"/>
	<g>
		<path fill="#FFFFFF" d="M144.418,341.301c0,1.528-1.284,2.766-2.864,2.766l0,0c-1.584,0-2.865-1.238-2.865-2.766v-3.074
			c0-1.527,1.281-2.767,2.865-2.767l0,0c1.58,0,2.864,1.24,2.864,2.767V341.301z"/>
		<path fill="#FFFFFF" d="M150.146,341.301c0,1.528-1.282,2.766-2.864,2.766l0,0c-1.582,0-2.864-1.238-2.864-2.766v-3.074
			c0-1.527,1.282-2.767,2.864-2.767l0,0c1.582,0,2.864,1.24,2.864,2.767V341.301z"/>
	</g>
	<path fill="#F8E36B" d="M152.479,333.106c0,3.336-2.8,6.043-6.256,6.043h-3.185c-3.457,0-6.261-2.707-6.261-6.043l0,0
		c0-3.34,2.804-6.047,6.261-6.047h3.185C149.679,327.059,152.479,329.766,152.479,333.106L152.479,333.106z"/>
	<path fill="#E56DA4" stroke="#8C5A60" stroke-width="1.4438" stroke-miterlimit="10" d="M137.204,364.561
		c-5.093-2.049-5.305-11.067-1.909-14.755c3.394-3.688,14.215-5.941,18.247,0.206s2.124,11.886-0.849,14.754
		C151.6,365.821,142.297,366.61,137.204,364.561z"/>
	<g>
		<path fill="#FFFFFF" d="M142.237,330.047c0,0,1.167-6.125-5.22-6.924c-6.383-0.802-6.584,5.772-6.584,5.772
			S132.326,333.587,142.237,330.047z"/>
		<path stroke="#1C75BC" stroke-width="1.4438" stroke-miterlimit="10" d="M138.873,328.826c0,1.4-1.176,2.535-2.625,2.535l0,0
			c-1.449,0-2.626-1.135-2.626-2.535l0,0c0-1.398,1.177-2.536,2.626-2.536l0,0C137.697,326.29,138.873,327.427,138.873,328.826
			L138.873,328.826z"/>
		<path fill="#F8E36B" stroke="#B9AB52" stroke-width="1.4438" stroke-miterlimit="10" d="M130.781,329.864
			c0,0,0.232,5.067,4.908,4.957c5.507-0.129,6.173-3.818,6.173-3.818S135.718,333.74,130.781,329.864z"/>
		<polyline fill="#F8E36B" points="132.666,320.296 140.147,322.831 138.238,324.523 131.474,325.752 132.827,319.912 		"/>
		<path fill="#F8E36B" stroke="#B9AB52" stroke-width="1.4438" stroke-miterlimit="10" d="M128.768,325.676
			c0,0,7.638,2.074,14.482-2.846"/>
	</g>
	<g>
		<path fill="#FFFFFF" d="M148.162,330.047c0,0-1.165-6.125,5.22-6.924c6.383-0.802,6.583,5.772,6.583,5.772
			S158.074,333.587,148.162,330.047z"/>
		<path stroke="#1C75BC" stroke-width="1.4438" stroke-miterlimit="10" d="M151.525,328.826c0,1.4,1.177,2.535,2.626,2.535l0,0
			c1.449,0,2.625-1.135,2.625-2.535l0,0c0-1.398-1.176-2.536-2.625-2.536l0,0C152.702,326.29,151.525,327.427,151.525,328.826
			L151.525,328.826z"/>
		<path fill="#F8E36B" stroke="#B9AB52" stroke-width="1.4438" stroke-miterlimit="10" d="M159.616,329.864
			c0,0-0.231,5.067-4.908,4.957c-5.506-0.129-6.171-3.818-6.171-3.818S154.682,333.74,159.616,329.864z"/>
		<polyline fill="#F8E36B" points="157.732,320.296 150.253,322.831 152.163,324.523 158.926,325.752 157.572,319.912 		"/>
		<path fill="#F8E36B" stroke="#B9AB52" stroke-width="1.4438" stroke-miterlimit="10" d="M161.63,325.676
			c0,0-7.637,2.074-14.48-2.846"/>
	</g>
	<path fill="#E56DA4" stroke="#8C5A60" stroke-width="1.4438" stroke-miterlimit="10" d="M128.928,311.34
		c0,0-10.214,0.55-17.93-10.767C110.998,300.573,126.762,301.552,128.928,311.34z"/>
	<path fill="#E56DA4" stroke="#8C5A60" stroke-width="1.4438" stroke-miterlimit="10" d="M164.751,311.895
		c0,0,6.613,0.948,8.841-1.418c2.229-2.366,8.859-5.288,11.92-5.386C186.411,305.061,174.629,298.676,164.751,311.895z"/>
	<path fill="#E56DA4" stroke="#8C5A60" stroke-width="1.4438" stroke-miterlimit="10" d="M147.787,336.973
		c0,1.314-1.105,2.38-2.468,2.38h-1.433c-1.362,0-2.467-1.066-2.467-2.38l0,0c0-1.317,1.104-2.383,2.467-2.383h1.433
		C146.682,334.59,147.787,335.656,147.787,336.973L147.787,336.973z"/>
</g>
<g>
	<ellipse fill="#86AD46" cx="147.516" cy="134.885" rx="16.964" ry="7.941"/>
	<ellipse fill="#FFFFFF" cx="147.155" cy="108.897" rx="18.738" ry="28.825"/>
	<path fill="#A7A9AC" d="M147.155,138.684c-10.862,0-19.698-13.362-19.698-29.787c0-16.425,8.836-29.787,19.698-29.787
		s19.696,13.362,19.696,29.787C166.852,125.321,158.018,138.684,147.155,138.684z M147.155,81.032
		c-9.802,0-17.776,12.499-17.776,27.865c0,15.365,7.975,27.863,17.776,27.863s17.775-12.498,17.775-27.863
		C164.931,93.531,156.957,81.032,147.155,81.032z"/>
</g>
<g>
	<ellipse fill="#86AD46" cx="147.516" cy="215.737" rx="16.964" ry="7.941"/>
	<ellipse fill="#FFFFFF" cx="147.155" cy="189.749" rx="18.738" ry="28.825"/>
	<path fill="#A7A9AC" d="M147.155,219.535c-10.862,0-19.698-13.362-19.698-29.786c0-16.425,8.836-29.787,19.698-29.787
		s19.696,13.362,19.696,29.787C166.852,206.173,158.018,219.535,147.155,219.535z M147.155,161.884
		c-9.802,0-17.776,12.499-17.776,27.865c0,15.365,7.975,27.863,17.776,27.863s17.775-12.498,17.775-27.863
		C164.931,174.383,156.957,161.884,147.155,161.884z"/>
</g>
<g>
	<ellipse fill="#86AD46" cx="147.516" cy="296.589" rx="16.964" ry="7.941"/>
	<ellipse fill="#FFFFFF" cx="147.155" cy="270.601" rx="18.738" ry="28.825"/>
	<path fill="#A7A9AC" d="M147.155,300.387c-10.862,0-19.698-13.362-19.698-29.787c0-16.424,8.836-29.786,19.698-29.786
		s19.696,13.362,19.696,29.786C166.852,287.025,158.018,300.387,147.155,300.387z M147.155,242.736
		c-9.802,0-17.776,12.5-17.776,27.865c0,15.366,7.975,27.864,17.776,27.864s17.775-12.498,17.775-27.864
		C164.931,255.235,156.957,242.736,147.155,242.736z"/>
</g>
<g>
	<path fill="#848484" stroke="#545554" stroke-width="0.693" stroke-miterlimit="10" d="M414.358,434.563
		c-6.128,9.734-12.822,21.943-12.822,21.943s-3.78,0.84-6.071,3.83c-2.289,2.989-2.036,4.235-2.036,4.235l5.263,2.531
		c0,0-0.062-1.222,1.686-3.792c2.608-3.653,6.418-4.275,6.418-4.275l23.592-36.652C430.387,422.383,420.486,424.829,414.358,434.563
		z"/>
	<g>
		<path fill="#DA3227" stroke="#9E2721" stroke-width="0.9216" stroke-miterlimit="10" d="M400.777,467.936l-9.303-4.475
			l-1.599,3.324l0.998,0.478l-13.154,27.353c0,0-0.729,2.649,2.482,4.195c3.212,1.544,4.826-0.68,4.826-0.68l13.155-27.353
			l0.995,0.481L400.777,467.936z"/>
		
			<line fill="#DA3227" stroke="#9E2721" stroke-width="0.9216" stroke-miterlimit="10" x1="398.184" y1="470.778" x2="392.479" y2="468.036"/>
	</g>
	<path fill="#848484" stroke="#545554" stroke-width="0.693" stroke-miterlimit="10" d="M389.213,433.949
		c6.128,9.734,12.822,22.27,12.822,22.27s3.78,0.842,6.07,3.831c2.291,2.987,2.037,4.234,2.037,4.234l-5.261,2.531
		c0,0,0.061-1.221-1.687-3.79c-2.609-3.656-6.419-4.278-6.419-4.278l-23.592-36.651
		C373.185,422.095,383.086,424.216,389.213,433.949z"/>
	<g>
		<path fill="#DA3227" stroke="#9E2721" stroke-width="0.9216" stroke-miterlimit="10" d="M402.794,467.648l9.303-4.474l1.598,3.323
			l-0.997,0.478l13.154,27.354c0,0,0.729,2.651-2.482,4.195c-3.213,1.543-4.826-0.678-4.826-0.678l-13.154-27.356l-0.997,0.481
			L402.794,467.648z"/>
		
			<line fill="#DA3227" stroke="#9E2721" stroke-width="0.9216" stroke-miterlimit="10" x1="405.389" y1="470.49" x2="411.093" y2="467.75"/>
	</g>
	<path fill="#B5B5B6" d="M426.537,425.371c0,0-5.105,1.843-8.607,6.451c-3.501,4.607-14.239,24.602-14.239,24.602l1.804,0.458
		L426.537,425.371z"/>
	<path fill="#B5B5B6" d="M377.79,425.956c0,0,5.105,1.84,8.607,6.451c3.501,4.607,14.239,24.599,14.239,24.599l-1.804,0.46
		L377.79,425.956z"/>
	<path fill="#545554" stroke="#4F4F4F" stroke-width="0.3687" stroke-miterlimit="10" d="M403.076,458.433
		c0-0.533-0.434-0.967-0.968-0.967s-0.967,0.434-0.967,0.967c0,0.537,0.433,0.97,0.967,0.97S403.076,458.97,403.076,458.433z"/>
	<path fill="#B73332" d="M422.66,496.958l-12.51-27.188l2.28-0.649l11.612,24.425C424.043,493.546,424.78,495.759,422.66,496.958z"
		/>
	<path fill="#B73332" d="M391.668,469.407l2.237,1.371l-13.729,26.18c-1.845-1.198-0.832-3.041-0.832-3.041L391.668,469.407z"/>
</g>
<g>
	<path fill="#C4BFBB" stroke="#827F7C" stroke-width="1.0152" stroke-miterlimit="10" d="M528.601,116.831
		c-4.061,0.608-10.151-3.249-10.151-3.249s-13.471,31.62,0.76,44.5c0,0,22.643-7.582,26.901-39.055c0,0-10.387,1.038-11.736-0.624
		L528.601,116.831z"/>
	<path fill="#827F7C" stroke="#827F7C" stroke-width="0.203" stroke-miterlimit="10" d="M530.225,111.069
		c-0.556,1.539-1.068,3.091-1.598,4.639c-0.935,2.742-1.844,5.565-2.482,8.393c-0.389,1.724-0.524,4.019,0.137,5.704
		c0.688,1.759,2.142,0.482,2.913-0.401c1.196-1.373,1.805-3.092,2.521-4.739c1.296-2.975,2.572-5.958,3.831-8.949
		c0.19-0.453,0.381-0.906,0.571-1.36c0.146-0.352,0.559-0.961,0.559-1.338C536.676,113.019,535.387,109.667,530.225,111.069z"/>
	
		<path fill="#DD802F" stroke="#AD6027" stroke-width="1.0152" stroke-linecap="round" stroke-linejoin="round" stroke-miterlimit="10" d="
		M536.676,113.018c4.156-6.309,8.979-13.582,10.104-21.25c0.309-2.109-0.333-4.852-2.395-5.986
		c-8.275-4.554-12.059,10.886-13.152,16.247c-1.7,6.703-1.008,9.041-1.008,9.041L536.676,113.018z"/>
	<path fill="none" stroke="#AE6127" stroke-width="1.2182" stroke-miterlimit="10" d="M530.15,108.03c0,0,5.119-0.653,8.521,2.696"
		/>
	
		<path fill="#DD802F" stroke="#AD6027" stroke-width="1.0152" stroke-linecap="round" stroke-linejoin="round" stroke-miterlimit="10" d="
		M530.668,104.506c0,0,5.482-0.843,9.654,2.844"/>
	<path opacity="0.5" fill="#827F7C" d="M518.459,158.082c-11.395-12.88-0.609-44.5-0.609-44.5s2.237,1.77,4.692,2.722
		c0,0-7.473,23.821-3.888,38.4L518.459,158.082z"/>
</g>
</svg>
