<?xml version="1.0" encoding="utf-8"?>
<!-- Generator: Adobe Illustrator 16.0.0, SVG Export Plug-In . SVG Version: 6.00 Build 0)  -->
<!DOCTYPE svg PUBLIC "-//W3C//DTD SVG 1.1//EN" "http://www.w3.org/Graphics/SVG/1.1/DTD/svg11.dtd">
<svg version="1.1" id="Layer_1" xmlns="http://www.w3.org/2000/svg" xmlns:xlink="http://www.w3.org/1999/xlink" x="0px" y="0px"
	 width="2500px" height="1000px" viewBox="0 0 2500 1000" enable-background="new 0 0 2500 1000" xml:space="preserve">
<g>
	<path opacity="0.4" fill="#737A58" d="M1669.978,471.512c0,0,209.087-249.77,224.794-290.32
		c15.715-40.546,165.876,80.676,55.143,155.621C1839.18,411.76,1702.809,475.838,1669.978,471.512z"/>
	<path opacity="0.4" fill="#737A58" d="M1613.83,501.323c0,0-216.209-243.631-233.078-283.708
		c-16.877-40.079-163.481,85.43-50.627,157.147C1442.974,446.478,1581.138,506.597,1613.83,501.323z"/>
	<path fill="#8EAA3D" d="M1608.185,434.995c0,0-160.184,285.897,15.735,335.89c175.916,49.994,181.634-168.726,121.566-254.651
		c-60.07-85.925-95.824-74.989-92.967-104.672C1655.383,381.877,1608.185,434.995,1608.185,434.995z"/>
	<path fill="#452A11" d="M1813.021,298.561c0,90.43-83.929,163.738-187.471,163.738c-103.533,0-187.471-73.308-187.471-163.738
		c0-90.432,83.938-163.74,187.471-163.74C1729.092,134.821,1813.021,208.129,1813.021,298.561z"/>
	
		<line fill="none" stroke="#000000" stroke-width="9.7081" stroke-miterlimit="10" x1="1688.042" y1="277.204" x2="1640.578" y2="305.68"/>
	<path fill="#8EAA3D" d="M1576.797,412.263c0.779,1.564-1.505,4.279-5.092,6.062c-3.593,1.783-7.13,1.961-7.905,0.396
		c-0.779-1.565,1.501-4.279,5.089-6.062C1572.479,410.876,1576.02,410.697,1576.797,412.263z"/>
	
		<line fill="none" stroke="#000000" stroke-width="9.7081" stroke-miterlimit="10" x1="1426.35" y1="270.349" x2="1507.889" y2="277.656"/>
	<path fill="#BCD86A" d="M1595.842,198.389c73.162-9.476,156.862,21.568,176.556,82.384c19.691,60.817,14.337,140.074-76.747,154.06
		c-91.09,13.983-189.921,10.486-218.006-54.755C1438.267,288.615,1522.672,207.863,1595.842,198.389z"/>
	<path fill="#FFFFFF" d="M1561.782,360.591c0,0,95.6,3.936,106.502,1.696c10.9-2.237,1.295,61.071-48.463,62.559
		C1566.286,426.442,1558.516,378.444,1561.782,360.591z"/>
	<path fill="#8EAA3D" d="M1750.141,245.081c0,0,13.515,50.887,4.287,104.044c-13.399,77.242-67.221,82.907-155.266,91.815
		c0,0,191.363,16.04,183.147-97.707C1782.31,343.234,1788.656,291.402,1750.141,245.081z"/>
	<path fill="#8EAA3D" d="M1601.201,340.513c-0.018,1.75-3.286,3.127-7.292,3.082c-4.011-0.044-7.239-1.496-7.225-3.243
		c0.022-1.747,3.288-3.126,7.296-3.083C1597.987,337.315,1601.221,338.767,1601.201,340.513z"/>
	<path fill="#8EAA3D" d="M1639.175,340.513c-0.021,1.75-3.284,3.127-7.294,3.082c-4.009-0.044-7.24-1.496-7.221-3.243
		c0.021-1.747,3.285-3.126,7.291-3.083C1635.963,337.315,1639.195,338.767,1639.175,340.513z"/>
	<path fill="none" stroke="#424A31" stroke-width="16.1801" stroke-linecap="round" stroke-miterlimit="10" d="M1561.464,707.948
		c0,0-36.519,68.519-18.966,99.231c6.326,11.073,50.414,33.755,88.504,69.4l-28.389,28.685"/>
	<path fill="none" stroke="#424A31" stroke-width="16.1801" stroke-linecap="round" stroke-miterlimit="10" d="M1714.422,483.394
		c0,0,55.887,10.545,41.647-112.852"/>
	<path fill="none" stroke="#424A31" stroke-width="16.1801" stroke-linecap="round" stroke-miterlimit="10" d="M1584.312,485.807
		c0,0-63.871-23.008-81.084,80.994"/>
	<path fill="none" stroke="#424A31" stroke-width="16.1801" stroke-linecap="round" stroke-miterlimit="10" d="M1758.992,676.351
		c0,0,74.173-34.113,95.273-23.729c29.123,14.333,49.068,120.101,49.068,120.101l34.344,5.161"/>
	<path fill="#BCD86A" d="M1633.931,495.922c0,0,7.148-9.372,31.463-7.811c24.314,1.563,95.823,60.93,75.802,165.603
		c-20.022,104.673-141.592,126.545-161.613,45.309C1559.555,617.782,1578.152,528.731,1633.931,495.922z"/>
	<g>
		<path fill="#452A11" d="M1504.558,180.298c30.233,0,63.915,13.34,96.606,34.975c4.154,1.85,9.542,3.559,15.256,3.559
			c2.892,0,5.868-0.438,8.809-1.517c3.104-2.106,6.221-4.14,9.343-6.097c0.157-0.156,0.32-0.295,0.472-0.459
			c1.211-1.264,2.089-1.841,2.702-1.841c0.147,0,0.28,0.034,0.398,0.1c29.551-17.921,59.541-28.718,86.741-28.718
			c31.108,0,58.567,14.123,77.547,47.862c42.472,75.506-15.157,143.971-90.465,143.971c-0.43,0-0.864-0.002-1.295-0.007
			c-67.253-0.7-88.592-60.118-88.592-60.118c-1.212-0.435-2.406-0.892-3.572-1.369c-0.043,0.188-0.074,0.316-0.074,0.316h-6.854
			l-0.102-0.544c-1.346,0.559-2.715,1.094-4.118,1.597c0,0-21.344,59.417-88.594,60.118c-0.436,0.004-0.86,0.007-1.295,0.007
			c-75.304,0-132.932-68.469-90.461-143.971C1445.989,194.42,1473.447,180.297,1504.558,180.298 M1504.558,171.668v8.629V171.668
			c-17.633,0-33.685,4.197-47.709,12.477c-14.882,8.785-27.451,22.17-37.359,39.785c-10.176,18.089-15.401,36.517-15.533,54.77
			c-0.123,17.154,4.204,33.358,12.862,48.164c19.443,33.245,58.012,53.897,100.653,53.897c0.464,0,0.919-0.002,1.385-0.007
			c37.825-0.394,62.086-18.222,75.777-33.109c10.142-11.027,16.077-22.037,18.876-28.062h2.421
			c2.798,6.025,8.733,17.035,18.874,28.062c13.69,14.887,37.95,32.715,75.777,33.109c0.461,0.005,0.926,0.007,1.385,0.007
			c42.645,0,81.214-20.652,100.657-53.896c8.658-14.805,12.986-31.009,12.862-48.163c-0.131-18.253-5.357-36.681-15.533-54.771
			c-9.908-17.614-22.479-31-37.359-39.784c-14.025-8.279-30.077-12.477-47.709-12.477c-26.836,0-57.715,9.98-89.412,28.884
			c-2.737,0.65-4.823,2.379-6.302,3.867c-2.605,1.645-5.223,3.352-7.803,5.088c-1.544,0.46-3.204,0.694-4.948,0.694
			c-3.374,0-7.208-0.877-11.125-2.542C1569.527,184.112,1534.706,171.669,1504.558,171.668L1504.558,171.668z"/>
	</g>
	<path fill="#452A11" d="M1474.972,272.227c0,0,26.395-78.872,303.246-15.591c0,0,41.134-9.492-30.061-50.624
		c-71.188-41.133-91.755-45.879-128.142-45.879c-36.389,0-120.232,31.64-148.71,69.609
		C1442.826,267.71,1426.435,343.188,1474.972,272.227z"/>
	<g>
		<path fill="#F26522" d="M1427.011,228.16c39.639-70.47,116.277-55.371,185.884-4.746c52.478,38.162,34.017,74.355-5.534,88.592
			c0,0-21.344,59.417-88.594,60.118C1442.826,372.915,1384.295,304.097,1427.011,228.16z"/>
	</g>
	<g>
		<path fill="#F26522" d="M1802.432,228.16c-39.637-70.47-116.279-55.371-185.891-4.746c-52.47,38.162-34.015,74.355,5.539,88.592
			c0,0,21.339,59.417,88.592,60.118C1786.609,372.915,1845.146,304.097,1802.432,228.16z"/>
	</g>
	<circle fill="#E4D41D" cx="1518.533" cy="280.055" r="83.847"/>
	<circle fill="#E4D41D" cx="1713.562" cy="282.056" r="83.847"/>
	<g>
		<path fill="#BCD86A" d="M1467.063,253.242c16.826-32.939,57.169-46.001,90.108-29.172c32.941,16.826,46,57.169,29.172,90.107
			c-16.828,32.939-57.166,46-90.104,29.174C1463.296,326.523,1450.236,286.182,1467.063,253.242z"/>
		<g>
			<g>
				<path fill="#FFFFFF" d="M1579.005,310.427c-14.758,28.882-50.135,40.333-79.018,25.579
					c-28.882-14.755-40.334-50.129-25.579-79.011c14.753-28.883,50.127-40.336,79.009-25.582
					C1582.305,246.168,1593.757,281.544,1579.005,310.427z"/>
				<circle fill="#1BA2C1" stroke="#156488" stroke-width="5.3934" stroke-miterlimit="10" cx="1526.704" cy="283.71" r="37.674"/>
				<path stroke="#156488" stroke-width="5.3934" stroke-miterlimit="10" d="M1542.266,291.661
					c-4.392,8.594-14.916,12.004-23.511,7.614c-8.599-4.392-12.002-14.919-7.616-23.515c4.394-8.595,14.921-12.004,23.515-7.613
					C1543.251,272.537,1546.659,283.065,1542.266,291.661z"/>
			</g>
			<path fill="#FFFFFF" d="M1556.398,268.435c-3.464,6.78-11.762,9.466-18.546,6.003c-6.773-3.461-9.467-11.762-5.997-18.541
				c3.461-6.777,11.762-9.464,18.537-6.002C1557.17,253.357,1559.858,261.66,1556.398,268.435z"/>
			<path fill="#FFFFFF" d="M1539.57,275.934c-1.525,2.98-5.175,4.163-8.16,2.639c-2.98-1.524-4.161-5.175-2.641-8.156
				c1.525-2.984,5.174-4.167,8.158-2.644C1539.911,269.296,1541.094,272.949,1539.57,275.934z"/>
		</g>
	</g>
	<g>
		<path fill="#BCD86A" d="M1653.605,254.383c16.82-32.94,57.17-46.001,90.107-29.174c32.936,16.826,45.997,57.169,29.175,90.108
			c-16.829,32.939-57.169,46-90.112,29.173C1649.839,327.665,1636.775,287.321,1653.605,254.383z"/>
		<g>
			<g>
				<circle fill="#FFFFFF" cx="1713.245" cy="284.85" r="58.726"/>
				<path fill="#1BA2C1" stroke="#156488" stroke-width="5.3934" stroke-miterlimit="10" d="M1746.791,301.989
					c-9.461,18.529-32.155,25.875-50.684,16.409c-18.534-9.464-25.879-32.159-16.414-50.686
					c9.469-18.529,32.163-25.876,50.688-16.412C1748.912,260.766,1756.263,283.461,1746.791,301.989z"/>
				<path stroke="#156488" stroke-width="5.3934" stroke-miterlimit="10" d="M1728.809,292.8
					c-4.394,8.596-14.919,12.004-23.515,7.614c-8.594-4.391-12.007-14.92-7.616-23.516c4.393-8.594,14.922-12.004,23.518-7.614
					C1729.793,273.676,1733.197,284.205,1728.809,292.8z"/>
			</g>
			<path fill="#FFFFFF" d="M1742.942,269.576c-3.465,6.778-11.769,9.465-18.546,6.002c-6.774-3.462-9.464-11.763-6.001-18.54
				c3.461-6.777,11.765-9.465,18.542-6.002C1743.713,254.498,1746.401,262.799,1742.942,269.576z"/>
			<path fill="#FFFFFF" d="M1726.107,277.072c-1.521,2.981-5.174,4.165-8.154,2.641c-2.985-1.523-4.166-5.176-2.642-8.159
				c1.521-2.983,5.174-4.165,8.159-2.641C1726.452,270.437,1727.633,274.088,1726.107,277.072z"/>
		</g>
	</g>
	<g>
		<path opacity="0.4" fill="#FFFFFF" d="M1583.004,225.488l-142.327,91.082c0,0-15.929-58.553,14.049-92.228
			C1484.707,190.674,1541.23,180.083,1583.004,225.488z"/>
		<path opacity="0.4" fill="#FFFFFF" d="M1778.079,226.361l-142.329,91.078c0,0-15.933-58.555,14.047-92.227
			C1679.778,191.544,1736.301,180.952,1778.079,226.361z"/>
	</g>
	<path fill="#F26522" d="M1593.12,210.758c0,0,24.522,18.194,41.923,0c6.727-7.028,3.308,7.038-0.108,24.638
		c-5.833,30.049-16.501,75.556-16.501,75.556l-6.854,0.001L1593.12,210.758z"/>
</g>
<g>
	<path fill="#F26522" d="M531.72,574.002c0-5.609,4.455-6.93,9.404-6.93c0.99,0,2.31,0,3.465,0.166
		c0.165-0.66,0.165-1.32,0.165-1.98c0.825-28.379,1.155-47.518,1.155-60.223c0-14.024-0.33-19.799-0.66-22.769h-6.93
		c-2.475,0-6.105-2.97-6.105-5.939c0-4.29,4.455-5.28,7.92-5.28c0.825,0,1.485,0.165,2.145,0.165h0.66
		c10.725,0,21.449,0.33,33.494,0.33c16.665,0,19.139-0.33,19.964-0.33c2.97,0,9.57,3.795,10.064,7.425v3.465
		c0,9.074-0.33,7.919-0.33,17.324c0,4.455-4.29,4.455-6.27,4.455c-2.31,0-3.3,0-5.61-4.125v-4.455c0-7.095,0.495-7.59,0.495-12.87
		h-38.608c-0.165,3.3-0.165,8.25-0.165,13.53c0,7.59,0.165,15.674,0.66,20.129h21.944v-13.034c0-4.125,3.63-4.125,4.785-4.125
		c2.97,0,6.105,1.98,6.435,5.444c0.495,7.26,0.495,15.015,0.495,22.274v12.54c0,3.959-4.455,4.949-6.27,4.949
		c-1.32,0-5.445-0.99-5.445-4.949v-12.045c-2.145-0.165-6.435-0.165-9.075-0.165c-5.445,0-10.89,0.165-13.529,0.33
		c0,1.485-0.165,2.97-0.165,4.454c0,2.971,0.165,6.105,0.165,9.57c0,8.25-0.165,17.489-0.33,26.234
		c5.28,0.164,11.55,0.989,11.55,5.939c0,4.949-2.31,5.609-6.435,5.609c-3.63,0-7.919-0.33-12.375-0.494
		c-5.445-0.166-12.209,0.494-14.354-1.65L531.72,574.002z"/>
	<path fill="#F26522" d="M640.784,567.402c4.125,0,6.765,2.971,6.765,5.775c0,3.96-2.31,4.455-4.455,4.785
		c-11.715,1.319-19.469,1.154-30.524,1.154c-8.084,0-9.24-2.31-9.24-4.949c0-5.775,5.775-5.939,11.055-6.436h0.825
		c0-11.549-0.66-22.438-0.66-33.988h-4.125c-4.125,0-9.404,0.33-9.404-6.104c0-2.97,0-4.29,4.785-5.61
		c5.445,0,6.765-0.33,12.375-0.33c5.775,0,6.435,5.28,7.095,9.24c2.97-5.445,9.734-9.9,16.499-9.9
		c4.455,0,15.015,3.465,15.015,10.561c0,6.104-5.445,12.374-11.879,12.374c-3.63,0-4.29-2.31-4.29-5.114
		c0-2.311,0.66-5.775,3.795-5.775c0-0.824-1.32-1.649-2.805-1.649c-9.405,0-14.189,10.395-16.004,14.024
		c0,4.785,0.33,19.799,0.66,21.943H640.784z"/>
	<path fill="#F26522" d="M708.763,565.918v-0.66c-2.475,8.415-7.92,15.345-19.634,15.345c-8.58,0-17.984-8.085-17.984-19.964
		v-26.069c-0.99,0,0.165,0.33-3.465,0.33c-3.3,0-8.58-0.825-8.58-6.271c0-5.114,4.95-6.27,10.229-6.27
		c3.135,0,5.94,0.495,7.095,0.495h0.99c4.62,0,13.034-0.329,13.034,6.271c0,5.939-8.58,6.104-8.084,6.104
		c-0.165,0-0.165,0-0.495-0.164v2.31c0,3.465,0.165,7.59,0.165,11.22c0,7.425-0.825,20.294,9.734,20.294
		c13.365,0,14.685-21.778,14.85-34.648c-1.32,0-2.31,0.33-4.125,0.33c-2.805,0-6.6-2.806-6.6-5.94c0-0.33-0.165-4.289,4.455-5.279
		c3.629-0.824,7.424-0.824,16.169-0.824c6.435,0,13.035,0.989,13.035,6.6c0,3.465-3.795,4.949-6.27,4.949
		c-1.485,0-3.959-0.33-5.609-0.33c0.99,10.89,1.98,22.109,2.805,32.998c1.815-0.329,3.795-0.824,4.785-0.824
		c3.465,0,7.095,1.484,7.095,5.939c0,4.95-11.054,6.93-13.199,6.93C714.043,578.787,708.763,578.457,708.763,565.918z"/>
	<path fill="#F26522" d="M745.889,578.953c-3.465,0-6.105-0.826-6.105-5.94c0-5.61,9.899-5.28,16.994-6.271
		c0-11.054-0.99-21.119-0.99-32.503c-2.64,0-6.435,0.989-10.395,0.989c-5.115,0-10.395,0-10.395-6.27
		c0-1.814,1.32-3.629,4.125-4.949c2.97,0,16.83-1.155,19.469-1.155c3.3,0,8.91,3.3,8.91,7.425c0,7.095-0.66,13.365-0.66,20.624
		c0,5.61,0.33,10.56,1.65,15.839h1.32c2.31,0,5.775-0.164,8.415-0.164c3.63,0,5.28,2.64,6.27,5.774
		c-0.495,1.979-2.805,5.114-9.735,5.94C767.172,579.282,752.983,578.953,745.889,578.953z M755.623,484.741
		c2.475,0,9.57,6.765,9.57,9.57c0,4.95-3.465,8.58-8.58,8.58c-5.939,0-8.084-4.29-8.084-9.57
		C748.528,489.031,749.354,484.741,755.623,484.741z"/>
	<path fill="#F26522" d="M809.741,533.579c-0.33,2.31-0.825,6.435-0.825,14.685c0,10.229,1.485,21.944,10.56,21.944
		c10.89,0,0-17.984,11.385-17.984c2.805,0,6.93,0.989,6.93,5.28c0,12.374-2.805,23.428-18.314,23.428
		c-19.139,0-22.604-16.168-22.604-32.173c0-6.765,0.66-11.22,0.66-15.015c-5.61,0-13.2,0.33-13.2-6.435
		c0-5.28,11.055-5.28,15.674-5.28c-0.495,0-0.495-14.354-0.33-17.324c0-5.444,0.825-10.889,6.27-10.889
		c1.815,0,6.27,2.145,6.27,5.445c-0.66,14.849-1.155,20.294-1.485,23.265v0.329c4.125,0.33,12.54,0,19.799,0
		c3.96,1.815,3.96,3.3,3.96,5.444c0,3.465-1.98,5.28-5.445,5.28H809.741z"/>
	<path fill="#F26522" d="M890.589,581.922c-0.33-4.784-0.66-21.779-0.66-27.059c0-2.805,2.475-7.26,5.775-7.26
		c5.445,0,5.115,8.415,5.28,12.869v1.98c3.795,3.63,13.529,5.279,19.799,5.279c10.725,0,22.439-6.27,22.439-16.829
		c0-8.415-9.075-15.015-38.773-27.884c-8.25-3.63-17.984-14.024-17.984-24.749c0-20.129,18.81-29.204,34.649-29.204
		c5.939,0,11.879,0,17.654,2.31c0.33-3.135,1.32-5.61,5.774-5.61c3.795,0,5.61,2.475,5.61,6.104l0.165,20.625
		c0.165,3.959-3.63,4.95-5.775,4.95c-9.899,0-1.65-11.22-8.745-14.685c-6.6-1.98-9.404-3.135-14.684-3.135
		c-9.405,0-22.274,5.28-22.274,17.324c0,6.434,4.95,13.035,10.229,15.344c30.029,12.869,47.188,21.614,47.188,37.619
		c0,21.119-24.419,29.533-37.289,29.533c-5.94,0-12.54-2.145-17.489-3.3v0.33c0,2.146,0.165,4.29,0.165,5.114
		c0,2.805-2.31,5.61-5.115,5.61c-2.805,0-4.785-1.649-5.94-4.95V581.922z"/>
	<path fill="#F26522" d="M985.627,533.579c-0.33,2.31-0.825,6.435-0.825,14.685c0,10.229,1.485,21.944,10.56,21.944
		c10.89,0,0-17.984,11.385-17.984c2.805,0,6.93,0.989,6.93,5.28c0,12.374-2.805,23.428-18.314,23.428
		c-19.139,0-22.604-16.168-22.604-32.173c0-6.765,0.66-11.22,0.66-15.015c-5.61,0-13.2,0.33-13.2-6.435
		c0-5.28,11.055-5.28,15.674-5.28c-0.495,0-0.495-14.354-0.33-17.324c0-5.444,0.825-10.889,6.27-10.889
		c1.815,0,6.27,2.145,6.27,5.445c-0.66,14.849-1.155,20.294-1.485,23.265v0.329c4.125,0.33,12.54,0,19.799,0
		c3.96,1.815,3.96,3.3,3.96,5.444c0,3.465-1.98,5.28-5.445,5.28H985.627z"/>
	<path fill="#F26522" d="M1055.255,521.699c13.694,0,26.729,14.686,26.729,29.534c0,18.479-16.169,28.214-31.184,28.214
		c-15.674,0-31.514-13.364-31.514-31.184C1019.286,526.154,1039.581,521.699,1055.255,521.699z M1052.615,568.062
		c8.909,0,16.994-6.6,16.994-16.829c0-7.26-3.96-12.21-9.735-15.839c-3.3-0.99-3.794,2.145-6.765,2.145
		c-2.805,0-1.98,0-11.714-3.795c-5.61,0.66-9.57,8.25-9.57,14.024C1031.826,560.309,1041.561,568.062,1052.615,568.062z"/>
	<path fill="#F26522" d="M1123.234,567.402c4.125,0,6.765,2.971,6.765,5.775c0,3.96-2.31,4.455-4.455,4.785
		c-11.715,1.319-19.469,1.154-30.524,1.154c-8.084,0-9.24-2.31-9.24-4.949c0-5.775,5.775-5.939,11.055-6.436h0.825
		c0-11.549-0.66-22.438-0.66-33.988h-4.125c-4.125,0-9.404,0.33-9.404-6.104c0-2.97,0-4.29,4.785-5.61
		c5.445,0,6.765-0.33,12.375-0.33c5.775,0,6.435,5.28,7.095,9.24c2.97-5.445,9.734-9.9,16.499-9.9
		c4.455,0,15.015,3.465,15.015,10.561c0,6.104-5.445,12.374-11.879,12.374c-3.63,0-4.29-2.31-4.29-5.114
		c0-2.311,0.66-5.775,3.795-5.775c0-0.824-1.32-1.649-2.805-1.649c-9.405,0-14.189,10.395-16.004,14.024
		c0,4.785,0.33,19.799,0.66,21.943H1123.234z"/>
	<path fill="#F26522" d="M1188.244,616.24c2.64,0,5.775,2.806,5.775,5.61c0,4.62-3.135,6.271-5.939,6.271
		c-5.115,0-23.759-0.33-33.329-0.33c-6.27,0-11.384,0.33-11.384-6.436c0-5.115,4.95-5.115,10.229-5.115c1.155,0,2.145,0,2.475,0.166
		l26.564-42.238c0.495-0.495,5.28-7.755,5.28-9.404c-2.805-2.971-29.699-29.039-31.514-30.524h-5.94c-2.805,0-6.93-0.66-6.93-4.95
		c0-5.939,7.26-6.6,14.52-6.6h6.93c0.165,0,18.149-2.145,18.149,6.6c0,4.785-3.465,4.455-6.435,4.455h-3.63l20.459,20.954
		c1.815-3.3,3.465-6.765,5.445-10.56l5.61-10.56c-3.96,0-7.59-0.989-7.59-6.27c0-3.795,4.785-5.774,6.765-5.774
		c8.58,0,8.58,1.154,19.635,1.154c1.649,0,3.795-0.164,6.27-0.164c2.64,0.989,5.609,4.124,5.609,7.094
		c0,3.795-3.135,4.95-7.919,4.95c-2.806,0-5.28-0.165-8.415-0.33c-1.32,2.805-3.465,5.94-4.125,6.93l-38.773,65.667
		c-2.145,4.62-2.97,5.445-5.28,10.23L1188.244,616.24z"/>
</g>
</svg>
