<?xml version="1.0" encoding="utf-8"?>
<!-- Generator: Adobe Illustrator 16.0.0, SVG Export Plug-In . SVG Version: 6.00 Build 0)  -->
<!DOCTYPE svg PUBLIC "-//W3C//DTD SVG 1.1//EN" "http://www.w3.org/Graphics/SVG/1.1/DTD/svg11.dtd">
<svg version="1.1" id="Layer_1" xmlns="http://www.w3.org/2000/svg" xmlns:xlink="http://www.w3.org/1999/xlink" x="0px" y="0px"
	 width="1000px" height="625px" viewBox="0 0 1000 625" enable-background="new 0 0 1000 625" xml:space="preserve">
<g>
	<g>
		<path fill="#8DC63F" d="M1533.834,1045.69c0,0-27.164-52.151-61.932-38.025c0,0,1.088,67.361,57.584,39.112"/>
	</g>
	<g>
		<path fill="#4B8A3F" d="M1496.102,1054.244c-5.918,0.002-11.236-1.422-15.926-4.269c-19.467-11.815-20.201-43.628-20.225-44.976
			l-0.035-2.231l2.068-0.84c15.535-6.312,31.979-1.315,47.549,14.445c11.352,11.489,18.213,24.546,18.498,25.095l-5.779,3.014
			l-0.002-0.002l0,0c-0.104-0.197-6.787-12.865-17.449-23.621c-12.979-13.095-25.82-17.688-38.203-13.679
			c0.535,7.122,3.279,28.932,16.975,37.231c8.77,5.313,20.803,4.215,35.766-3.266l2.914,5.83
			C1512.566,1051.82,1503.824,1054.244,1496.102,1054.244z"/>
	</g>
	<g>
		<path fill="#FFFFFF" d="M1539.266,1065.79c0,15.603-15.322,28.249-34.225,28.249c-18.9,0-34.225-12.646-34.225-28.249
			c0-15.599,15.324-28.247,34.225-28.247C1523.943,1037.542,1539.266,1050.191,1539.266,1065.79z"/>
	</g>
	<g>
		<path fill="#FFF200" d="M1539.959,1056.314c0,0-33.475-28.147-62.383,7.608c-22.998,28.444,21.725,104.338,54.014,85.205
			c20.539-12.172,26.465-0.761,31.953-0.761c28.906,0,69.988-48.688,47.926-92.053
			C1589.816,1013.753,1549.086,1038.057,1539.959,1056.314z"/>
	</g>
	<g>
		<path fill="#BE1E2D" d="M1539.959,1056.314c0,0-33.475-28.147-62.383,7.608c-22.998,28.444,21.725,104.338,54.014,85.205
			c20.539-12.172,26.465-0.761,31.953-0.761c28.906,0,69.988-48.688,47.926-92.053
			C1589.816,1013.753,1549.086,1038.057,1539.959,1056.314z"/>
	</g>
	<g>
		<path fill="#89241B" d="M1515.121,1156.418c-7.068,0-14.609-3.517-21.805-10.169c-6.396-5.914-12.359-14.084-17.248-23.631
			c-10.631-20.764-16.113-48.988-4.4-65.241c9.871-13.697,21.455-20.642,34.428-20.642c11.783,0,21.494,5.846,26.32,9.411
			c7.061-11.85,22.328-23.375,37.791-23.375c9.916,0,23.867,4.696,34.014,27.073c10.361,22.844,7.582,50.387-7.43,73.68
			c-11.291,17.517-27.375,28.836-40.977,28.836c-2.27,0-4.131-1.117-6.104-2.301c-2.346-1.407-4.77-2.862-8.332-2.862
			c-3.91,0-8.639,1.827-14.053,5.427C1523.539,1155.141,1519.432,1156.418,1515.121,1156.418z M1506.096,1043.252
			c-10.76,0-20.562,6.034-29.141,17.938c-4.432,6.149-6.178,15.229-5.047,26.252c1.053,10.278,4.592,21.716,9.963,32.206
			c9.408,18.377,22.459,30.252,33.25,30.252c3.004,0,5.896-0.91,8.596-2.704c6.596-4.386,12.373-6.516,17.662-6.516
			c5.367,0,9.02,2.191,11.688,3.79c0.965,0.58,2.285,1.371,2.748,1.371c11.268,0,25.531-10.388,35.498-25.85
			c13.807-21.422,16.414-46.639,6.973-67.453c-6.896-15.209-16.607-23.248-28.078-23.248c-15.281,0-29.436,13.49-33.775,23.228
			l-1.869,4.198l-3.344-3.153C1531.113,1053.463,1520.049,1043.252,1506.096,1043.252z"/>
	</g>
	<g>
		<path fill="#3C2415" d="M1534.852,1054.452c-1.213,0.001-2.375-0.679-2.938-1.844c-6.814-14.128-3.785-25.16-0.043-31.93
			c4.02-7.271,9.658-11.193,9.896-11.356c1.484-1.019,3.514-0.641,4.531,0.844c1.016,1.481,0.643,3.505-0.834,4.525
			c-0.758,0.526-18.295,13.077-7.68,35.084c0.781,1.623,0.102,3.57-1.52,4.353
			C1535.809,1054.347,1535.326,1054.452,1534.852,1054.452z"/>
	</g>
</g>
<g>
	<g>
		<path fill="#8DC63F" d="M664.863,752.301c-28.907,0-87.72,155.932,7.974,155.932C776.765,908.233,697.761,752.301,664.863,752.301
			"/>
	</g>
	<g>
		<path fill="#FFFFFF" d="M639.267,849.065c0-15.477,12.545-28.021,28.021-28.021c15.474,0,28.02,12.545,28.02,28.021
			s-12.546,28.021-28.02,28.021C651.812,877.086,639.267,864.542,639.267,849.065"/>
	</g>
	<g>
		<path fill="#603A17" d="M645.23,855.028c0-15.477,12.544-28.021,28.021-28.021c15.475,0,28.02,12.545,28.02,28.021
			c0,15.475-12.545,28.02-28.02,28.02C657.774,883.047,645.23,870.502,645.23,855.028"/>
	</g>
	<g>
		<path fill="#4B8A3F" d="M669.111,903.264c-19.334,0-33.969-6.123-43.497-18.199c-8.113-10.287-12.229-24.473-12.229-42.17
			c0-20.709,6.046-45.928,16.172-67.459c3.812-8.109,17.357-34.561,31.578-34.561c13.385,0,29.682,19.793,40.472,38.316
			c14.128,24.26,22.563,51.436,22.563,72.695c0,15.375-4.168,27.607-12.388,36.355C702.416,898.209,688.059,903.264,669.111,903.264
			z M661.136,747.334c-3.082,0-7.237,2.859-11.702,8.053c-4.782,5.561-9.632,13.443-14.03,22.797
			c-9.743,20.715-15.559,44.906-15.559,64.711c0,16.207,3.647,29.049,10.841,38.168c8.241,10.445,21.169,15.742,38.426,15.742
			c17.093,0,29.866-4.369,37.965-12.986c7.057-7.512,10.636-18.254,10.636-31.932c0-20.168-8.107-46.127-21.686-69.443
			C683.985,761.772,669.638,747.334,661.136,747.334z"/>
	</g>
	<g>
		<path fill="#3C2415" d="M667.288,880.317c-17.231,0-31.252-14.02-31.252-31.252c0-17.23,14.021-31.25,31.252-31.25
			c17.23,0,31.25,14.02,31.25,31.25C698.538,866.297,684.519,880.317,667.288,880.317z M667.288,824.274
			c-13.67,0-24.791,11.121-24.791,24.791s11.121,24.791,24.791,24.791s24.791-11.121,24.791-24.791S680.958,824.274,667.288,824.274
			z"/>
	</g>
</g>
<g>
	<g>
		<g>
			<g>
				<path fill="#8DC63F" d="M968.141,1054.675c0,0,30.146,46.178,61.297,29.799c0,0-7.206-62.771-57.34-31.213"/>
			</g>
		</g>
		<g>
			<g>
				<path fill="#4B8A3F" d="M988.951,1036.243c5.326-1.559,10.485-1.676,15.459-0.348c20.632,5.514,29.666,33.955,30.041,35.162
					l0.619,2.002l-1.641,1.301c-12.323,9.77-28.44,9.598-46.604-0.49c-13.242-7.357-22.854-17.305-23.257-17.723l4.41-4.234
					l0.001,0.002l0,0c0.146,0.15,9.496,9.793,21.925,16.67c15.129,8.373,27.896,9.127,37.99,2.26
					c-2.355-6.27-10.566-25.18-25.078-29.047c-9.295-2.475-19.836,1.68-31.336,12.352l-4.16-4.48
					C974.766,1042.759,981.997,1038.278,988.951,1036.243z"/>
			</g>
		</g>
	</g>
	<g>
		<g>
			<g>
				<path fill="#8DC63F" d="M966.986,1061.788c0,0,49.663-23.975,37.415-56.971c0,0-63.178-0.902-38.309,52.865"/>
			</g>
		</g>
		<g>
			<g>
				<path fill="#4B8A3F" d="M952.756,1030.706c0.168-5.547,1.652-10.49,4.455-14.807c11.633-17.912,41.475-17.691,42.739-17.674
					l2.093,0.029l0.729,1.963c5.474,14.742,0.32,30.014-14.897,44.16c-11.095,10.314-23.529,16.373-24.054,16.627l-2.658-5.506l0,0
					l0,0c0.189-0.092,12.254-5.996,22.641-15.686c12.646-11.793,17.316-23.697,13.914-35.422
					c-6.691,0.299-27.215,2.248-35.385,14.85c-5.232,8.07-4.546,19.383,2.039,33.623l-5.548,2.566
					C954.559,1046.212,952.536,1037.948,952.756,1030.706z"/>
			</g>
		</g>
	</g>
	<g>
		<path fill="#4B8A3F" d="M964.126,1128.271c-0.644,0-1.294-0.182-1.87-0.566c-1.555-1.033-1.977-3.133-0.943-4.688
			c11.273-16.949,14.457-33.561,9.467-49.375c-2.098-6.646-5.234-11.705-7.572-14.852c-4.988,9.443-14.057,21.295-30.23,29.977
			c-10.869,5.836-19.785,7.465-20.158,7.531c-1.842,0.328-3.595-0.898-3.922-2.738c-0.326-1.838,0.898-3.592,2.734-3.922
			c0.363-0.064,33.014-6.305,47.131-37.121c0.188-0.406,0.37-0.814,0.547-1.229c0.439-1.02,1.352-1.758,2.439-1.979
			c1.086-0.219,2.215,0.111,3.016,0.881c0.334,0.324,8.25,8.061,12.465,21.416c3.877,12.279,5.238,31.818-10.283,55.154
			C966.294,1127.741,965.219,1128.271,964.126,1128.271z"/>
	</g>
	<g>
		<path fill="#BE1E2D" d="M929.674,1111.905c0,13.592-11.024,24.615-24.617,24.615c-13.594,0-24.616-11.023-24.616-24.615
			c0-13.598,11.022-24.617,24.616-24.617C918.65,1087.288,929.674,1098.308,929.674,1111.905z"/>
	</g>
	<g>
		<path fill="#BE1E2D" d="M992.686,1136.521c0,13.596-11.021,24.615-24.617,24.615c-13.59,0-24.617-11.02-24.617-24.615
			c0-13.594,11.027-24.615,24.617-24.615C981.665,1111.905,992.686,1122.927,992.686,1136.521z"/>
	</g>
	<g>
		<path fill="#89241B" d="M898.034,1135.479c-15.438,0-27.998-12.559-27.998-27.996s12.561-27.998,27.998-27.998
			c15.439,0,28,12.561,28,27.998S913.473,1135.479,898.034,1135.479z M898.034,1086.249c-11.709,0-21.234,9.525-21.234,21.234
			c0,11.707,9.525,21.234,21.234,21.234c11.711,0,21.236-9.527,21.236-21.234C919.27,1095.774,909.745,1086.249,898.034,1086.249z"
			/>
	</g>
	<g>
		<path fill="#89241B" d="M961.045,1160.097c-15.437,0-27.997-12.561-27.997-27.998s12.561-27.996,27.997-27.996
			c15.439,0,28,12.559,28,27.996S976.485,1160.097,961.045,1160.097z M961.045,1110.866c-11.707,0-21.234,9.525-21.234,21.232
			c0,11.709,9.527,21.234,21.234,21.234c11.711,0,21.236-9.525,21.236-21.234C982.282,1120.392,972.756,1110.866,961.045,1110.866z"
			/>
	</g>
</g>
<g>
	<path fill="none" stroke="#3C2415" stroke-width="5" stroke-miterlimit="10" d="M1610.142,772.474c0,0-9.193-36.154-31.496-24.939
		c-22.303,11.217-16.721,37.16-7.68,42.498c9.039,5.34,31.281-14.621,18.602-25.594c-12.682-10.977-84-20-59.861,48.26"/>
	<path fill="#7F3F98" d="M1513.273,790.363c0.166,12.475-9.492,22.717-21.572,22.879c-12.086,0.154-22.01-9.828-22.176-22.305
		c-0.162-12.475,9.494-22.719,21.58-22.875C1503.187,767.902,1513.111,777.888,1513.273,790.363z"/>
	<path fill="#7F3F98" d="M1514.109,836.726c0.174,13.338-10.15,24.281-23.066,24.453c-12.908,0.172-23.521-10.504-23.697-23.836
		c-0.176-13.334,10.154-24.277,23.062-24.447C1503.324,812.726,1513.933,823.392,1514.109,836.726z"/>
	<path fill="#7F3F98" d="M1514.892,879.628c0.139,10.439-7.941,19-18.051,19.133c-10.104,0.135-18.406-8.213-18.545-18.648
		c-0.139-10.439,7.949-19.002,18.051-19.133C1506.455,860.847,1514.759,869.199,1514.892,879.628z"/>
	<g>
		<path fill="#452F8B" d="M1494.796,762.298c-11.75-5.793-23.67-2.387-29.842,9.701c-5.225,10.242-4.631,24.613,3.957,32.729
			c9.768,9.234,26.709,6.148,32.094-6.307c5.441-12.555,0.131-29.602-11.672-36.053c-3.896-2.129-7.264,4.008-3.367,6.135
			c8.914,4.875,12.027,16.598,9.174,26.15c-3.062,10.258-16.533,10.41-22.887,3.588c-5.412-5.807-4.41-16.113-1.35-22.76
			c4.012-8.717,12.299-11.104,20.525-7.049C1495.392,770.388,1498.779,764.255,1494.796,762.298L1494.796,762.298z"/>
	</g>
	<g>
		<path fill="#452F8B" d="M1494.871,808.798c-23.006-27.252-45.35,28.152-24.828,46.16c24.83,21.791,52.008-32.885,23.975-50.068
			c-4.418-2.713-8.311,4.434-3.914,7.127c18.781,11.512,1.1,50.783-15.746,35.998c-7.143-6.266-5.094-18.695-2.652-26.758
			c1.182-3.912,3.279-8.262,6.508-10.799c4.268-3.352,8.369,0.945,11.121,4.205C1492.705,818.654,1498.214,812.755,1494.871,808.798
			L1494.871,808.798z"/>
	</g>
	<path fill="#7F3F98" d="M1553.068,807.232c0.174,13.291-10.111,24.201-22.984,24.373c-12.875,0.166-23.447-10.469-23.623-23.762
		c-0.174-13.291,10.113-24.203,22.99-24.371C1542.324,783.302,1552.896,793.939,1553.068,807.232z"/>
	<path fill="#7F3F98" d="M1551.431,858.687c0.162,12.23-9.307,22.266-21.148,22.424c-11.84,0.158-21.57-9.631-21.73-21.859
		c-0.16-12.227,9.311-22.26,21.148-22.416C1541.544,836.679,1551.271,846.46,1551.431,858.687z"/>
	<g>
		<path fill="#452F8B" d="M1533.382,777.333c-12.52-6.174-25.217-2.545-31.791,10.334c-5.568,10.914-4.936,26.223,4.215,34.871
			c10.406,9.836,28.453,6.549,34.191-6.721c5.797-13.375,0.139-31.537-12.436-38.412c-4.15-2.266-7.738,4.27-3.588,6.537
			c9.498,5.193,12.814,17.684,9.773,27.859c-3.262,10.93-17.613,11.092-24.383,3.824c-5.764-6.186-4.697-17.166-1.438-24.248
			c4.275-9.285,13.102-11.83,21.869-7.512C1534.017,785.951,1537.625,779.416,1533.382,777.333L1533.382,777.333z"/>
	</g>
	<g>
		<path fill="#452F8B" d="M1530.023,831.613c-19.643-25.008-38.654,25.777-21.135,42.307c21.195,20.002,44.328-30.111,20.404-45.891
			c-3.77-2.49-7.086,4.059-3.332,6.531c16.027,10.574,0.98,46.566-13.4,32.996c-6.098-5.75-4.359-17.146-2.283-24.537
			c1.004-3.588,2.789-7.574,5.541-9.898c3.635-3.068,7.139,0.875,9.488,3.867C1528.185,840.648,1532.878,835.246,1530.023,831.613
			L1530.023,831.613z"/>
	</g>
	<g>
		<path fill="#452F8B" d="M1495.236,849.009c-24.521-9.764-39.621,36.85-15.922,46.033c24.613,9.535,33.721-31.971,19.254-46.508
			c-3.676-3.689-9.209,2.18-5.535,5.869c7.775,7.814,5.857,36.676-8.926,33.662c-16.713-3.41-7.479-37.734,9.119-31.125
			C1498.009,858.845,1499.951,850.888,1495.236,849.009L1495.236,849.009z"/>
	</g>
	<path fill="#7F3F98" d="M1583.964,834.958c0.139,10.438-7.939,19-18.051,19.131c-10.104,0.135-18.404-8.215-18.547-18.65
		c-0.135-10.436,7.953-19,18.053-19.131C1575.527,816.173,1583.832,824.527,1583.964,834.958z"/>
	<g>
		<path fill="#452F8B" d="M1564.308,804.339c-24.521-9.766-39.621,36.848-15.922,46.031c24.613,9.535,33.721-31.971,19.252-46.508
			c-3.672-3.689-9.207,2.18-5.535,5.867c7.777,7.816,5.859,36.678-8.924,33.664c-16.711-3.41-7.477-37.736,9.121-31.123
			C1567.082,814.173,1569.023,806.214,1564.308,804.339L1564.308,804.339z"/>
	</g>
</g>
<g>
	<path fill="#8DC63F" d="M2116.361,1049.73c0,0-21.846-30.356-4.844-44.545c0,0,21.52,24.628,15.023,41.663
		c0,0,42.281-24.26,52.824-0.728c0,0-9.814,29.289-41.809,22.502c0,0,42.496,9.636,37.604,34.62c0,0-37.389-0.731-43.004-28.564"/>
	<path fill="#BE1E2D" d="M2066.311,1016.46c-11.951,8.15-64.523,82.401-40.521,108.452c24,26.056,107.178-14.081,111.678-22.521
		C2151.281,1076.481,2090.477,999.973,2066.311,1016.46z"/>
	<g>
		<path fill="#89241B" d="M2081.719,1027.525c16.014,21.902,43.385,36.921,53.801,62.73c12.414,30.75-38.135,28.78-55.506,32.96
			c-11.385,2.741-21.82,8.959-33.02,12.446c-11.084,3.445-20.104,2.979-20.57-10.547c-0.605-17.236,7.723-35.508,15.467-50.449
			c8.26-15.932,19.498-31.156,34.656-41.098c4.348-2.852,0.189-9.783-4.176-6.922c-29.709,19.489-50.994,59.675-53.92,94.756
			c-0.877,10.537,2.357,22.281,14.201,24.095c11.885,1.821,24.793-4.768,35.389-9.229c14.201-5.981,28.248-7.514,43.336-9.986
			c11.984-1.96,26.033-5.023,31.92-16.944c6.076-12.308-1.229-26.296-8.424-36.259c-9.795-13.568-22.67-24.711-34.443-36.489
			c-4.176-4.172-8.301-8.464-11.789-13.235C2085.588,1019.177,2078.639,1023.318,2081.719,1027.525L2081.719,1027.525z"/>
	</g>
	<g>
		<path fill="#4B8A3F" d="M2109.594,1032.682c-7.295-8.579-3.48-20.104-0.111-29.536c-2.246,0.645-4.494,1.284-6.736,1.928
			c8.877,6.814,14.4,18.557,12.244,29.777c-0.441,2.313,1.277,5.425,4.029,5.016c18.252-2.727,35.383-6.26,53.855-3.068
			c-0.982-1.631-1.967-3.266-2.949-4.896c-2.029,15.026-20.793,18.543-31.109,26.598c-2.264,1.765-2.842,5.426,0.107,6.981
			c12.08,6.381,22.467,11.003,28.074,24.344c1.256-1.726,2.514-3.452,3.768-5.177c-10.803-0.084-22.879-2.074-28.021-12.765
			c-2.264-4.701-9.16-0.485-6.922,4.17c6.41,13.315,21.596,16.574,35.158,16.672c2.408,0.018,4.777-2.784,3.77-5.18
			c-6.584-15.665-17.475-21.51-31.865-29.114c0.035,2.332,0.066,4.66,0.105,6.99c12.32-9.619,32.332-13.436,34.781-31.576
			c0.277-2.054-0.611-4.488-2.957-4.893c-19.283-3.33-36.938-0.016-56.01,2.831c1.348,1.67,2.686,3.341,4.031,5.013
			c2.654-13.843-3.275-28.939-14.459-37.516c-2.547-1.957-5.641-1.147-6.738,1.93c-4.564,12.764-7.139,26.145,2.32,37.266
			C2107.342,1042.455,2112.938,1036.617,2109.594,1032.682L2109.594,1032.682z"/>
	</g>
</g>
<g>
	<g>
		<path fill="#FFDE17" d="M1189.223,784.077c0,0-22.393,129.189,103.354,115.41c0,0,18.086-9.475,3.444-18.087
			c0,0-74.069-30.145-85.266-94.74C1210.755,786.66,1198.698,738.429,1189.223,784.077z"/>
	</g>
	<g>
		<path fill="#EEAF21" d="M1267.711,903.099c0,0-0.005,0-0.008,0c-29.891-0.002-52.795-9.208-68.074-27.361
			c-15.385-18.285-19.955-42.381-21.08-59.376c-1.211-18.302,1.138-32.146,1.238-32.727l0.016-0.084
			c3.113-15.007,6.807-21.698,11.975-21.698c3.981,0,7.443,4.051,10.895,12.741c2.242,5.651,3.641,11.205,3.699,11.438l0.039,0.186
			c5.637,32.51,28,55.964,45.77,69.914c19.412,15.242,37.742,22.801,37.926,22.875l0.334,0.165c4.732,2.784,7.085,6.096,6.992,9.842
			c-0.175,7.125-9.486,12.205-10.547,12.762l-0.433,0.226l-0.485,0.054C1279.645,902.748,1273.502,903.099,1267.711,903.099z
			 M1184.873,784.554c-0.28,1.699-8.771,55.223,18.728,87.872c14.252,16.922,35.818,25.504,64.104,25.506c0.003,0,0.006,0,0.006,0
			c5.451,0,11.229-0.322,17.187-0.958c2.263-1.291,7.294-4.824,7.37-8.09c0.049-2.102-2.27-3.953-4.293-5.167
			c-2.102-0.873-19.723-8.423-38.871-23.43c-26.539-20.8-43.053-46.072-47.766-73.086c-0.186-0.719-1.51-5.776-3.484-10.742
			c-3.08-7.742-5.428-9.438-6.074-9.438C1191.745,767.021,1188.418,767.499,1184.873,784.554z"/>
	</g>
	<g>
		<path fill="#EEAF21" d="M1290.456,896.873c-25.644-4.008-46.941-13.408-63.303-27.941c-13.107-11.645-23.064-26.564-29.588-44.346
			c-11.06-30.141-8.445-57.697-8.326-58.854l5.141,0.518l-2.571-0.259l2.571,0.258c-0.027,0.274-2.605,27.685,8.1,56.727
			c6.24,16.936,15.726,31.121,28.188,42.168c15.597,13.821,35.981,22.779,60.585,26.623L1290.456,896.873z"/>
	</g>
	<g>
		<path fill="#603A17" d="M1187.497,768.021c0,0,10.91-4.02,15.504,2.297s-1.723-18.374-7.465-16.65
			C1189.795,755.389,1189.22,766.298,1187.497,768.021z"/>
	</g>
	<g>
		<path fill="#3C2415" d="M1201.292,771.068c-1.27,0-2.156-0.996-2.787-1.864c-1.318-1.811-3.551-2.729-6.641-2.729
			c-3.39,0-6.516,1.127-6.547,1.138c-0.887,0.323-1.877-0.011-2.385-0.807c-0.498-0.781-0.398-1.798,0.238-2.466
			c0.277-0.404,0.73-1.988,1.061-3.147c1.238-4.334,2.934-10.272,7.855-11.747c0.379-0.113,0.77-0.172,1.162-0.172
			c6.293,0,10.473,15.093,10.473,18.713c0,0.596-0.076,1.084-0.231,1.497C1203.124,770.46,1202.28,771.068,1201.292,771.068z
			 M1191.864,762.454c2.829,0,5.257,0.632,7.182,1.851c-0.892-3.297-2.588-7.714-4.514-9.986c-0.711-0.837-1.176-1.025-1.283-1.025
			c-2.822,0.847-4.17,5.561-5.152,9.004c-0.049,0.176-0.098,0.346-0.146,0.516C1189.122,762.607,1190.465,762.454,1191.864,762.454z
			"/>
	</g>
	<g>
		<path fill="#603A17" d="M1292.469,884.947c0,0,1.441,11.537-5.75,14.58c-7.193,3.043,18.286,2.485,17.91-3.497
			C1304.252,890.046,1293.756,887.015,1292.469,884.947z"/>
	</g>
	<g>
		<path fill="#3C2415" d="M1292.489,901.07h-0.002c-3.384,0-5.719-0.41-6.125-2.406c-0.273-1.357,0.555-2.456,2.463-3.264
			c5.634-2.385,4.551-12.379,4.537-12.48c-0.117-0.937,0.434-1.828,1.323-2.143c0.873-0.31,1.843,0.019,2.35,0.789
			c0.331,0.363,1.771,1.162,2.825,1.748c3.942,2.188,9.34,5.184,9.662,10.312c0.053,0.821-0.123,2.055-1.252,3.257
			C1305.161,900.194,1296.588,901.07,1292.489,901.07z M1297.444,886.57c-0.182,3.214-1.023,7.584-3.953,10.467
			c6.66-0.183,11.873-2.145,12.021-3.152c-0.187-2.939-4.473-5.317-7.603-7.056C1297.751,886.741,1297.596,886.655,1297.444,886.57z
			"/>
	</g>
</g>
<g>
	<g>
		<path fill="#8DC63F" d="M1287.303,1140.292c16.487-4.629,30.363-15.834,39.827-29.982c1.872-2.797,1.953-6.057-0.044-8.824
			c-5.818-8.072-12.944-14.734-21.727-19.414c-0.418-0.225-0.837-0.375-1.247-0.477c-13.64-12.242-27.233-24.502-40.555-37.129
			c-18.558-17.586-36.992-35.375-57.279-50.99c-2.549-1.967-7.021-1.699-8.855,1.201c-16.544,26.113-19.291,57.33-7.874,86.023
			c9.944,25,30.346,46.861,55.561,56.727C1258.402,1142.624,1273.474,1144.178,1287.303,1140.292z"/>
	</g>
	<path fill="#4B8A3F" d="M1244.629,1146.235l-0.003-0.002c-5.116-0.832-10.206-2.234-15.122-4.156
		c-24.218-9.477-44.76-30.422-54.946-56.031c-11.323-28.451-8.478-59.512,7.804-85.213c2.09-3.301,6.146-4.996,10.33-4.314
		c1.747,0.285,3.372,0.977,4.703,1.998c17.815,13.715,34.304,29.359,50.246,44.484l4.078,3.867
		c4.697,4.453,13.715,12.217,23.266,20.432c20.206,17.395,33.707,29.152,37.166,33.949c2.944,4.082,2.994,9.277,0.129,13.555
		c-10.017,14.971-24.253,25.668-40.1,30.117C1263.51,1147.36,1254.236,1147.799,1244.629,1146.235z M1191.214,1005.588
		c-0.577-0.094-1.015,0.08-1.092,0.164c-14.687,23.184-17.249,51.211-7.028,76.896c9.268,23.287,27.869,42.305,49.76,50.871
		c4.314,1.688,8.771,2.91,13.25,3.641h0.004c8.162,1.33,16.318,0.957,23.586-1.084c13.737-3.863,26.147-13.229,34.949-26.385
		c0.981-1.461,0.499-2.451,0.052-3.07c-3.079-4.271-21.173-19.844-35.706-32.355c-9.633-8.295-18.731-16.123-23.591-20.729
		l-4.083-3.869c-15.772-14.967-32.087-30.447-49.522-43.869C1191.695,1005.727,1191.497,1005.633,1191.214,1005.588z"/>
</g>
<g>
	<path fill="#F26522" d="M742.729,1061.249c8.784,37.893-12.937,75.298-48.51,83.541c-35.573,8.247-71.531-15.793-80.311-53.675
		c-8.778-37.892,12.938-75.296,48.514-83.544C697.993,999.331,733.948,1023.364,742.729,1061.249z"/>
	<path fill="#B94126" d="M744.772,1068.771c-11.355-35.745-46.69-62.729-86.974-62.999c-1.142-0.008-1.984,0.417-2.534,1.049
		c-11.818-0.319-23.481,2.03-33.345,8.694c-10.952,7.4-17.743,18.774-21.237,30.786c-7.771,26.736-0.244,58.184,18.011,79.829
		c22.016,26.104,58.694,32.43,91.036,19.942c15.87-6.129,28.261-17.286,34.576-32.258
		C750.321,1099.549,749.368,1083.243,744.772,1068.771z M735.284,1117.001c-8.761,15.816-26.166,24.183-44.209,27.603
		c-16.742,3.171-34.123,1.129-48.845-7.143c-13.119-7.373-22.646-19.209-28.961-32.053c-11.431-23.249-13.657-56.416,4.441-77.396
		c10.835-12.559,27.757-16.479,44.363-14.328c1.372,0.179,2.493-0.323,3.249-1.105c34.939,3.359,63.801,28.168,73.406,59.744
		C743.191,1086.992,742.887,1103.28,735.284,1117.001z"/>
</g>
<g>
	<g>
		<path fill="#FFDE17" d="M1811.149,1028.614c0,0-10.193-17.271-44.162,0c-33.971,17.27-44.021,84.353,16.984,117.435
			c50.955,27.633,91.721,5.181,107.008-31.086c6.572-15.592,13.023-45.33,6.793-64.33
			C1889.28,1024.727,1859.562,996.125,1811.149,1028.614z"/>
	</g>
	<g>
		<path fill="#EEAF21" d="M1822.149,1154.289c0,0-0.004,0-0.008,0c-14.781-0.002-30.219-4.239-45.881-12.592
			c-15.68-8.362-27.668-19.254-35.631-32.371c-7.018-11.561-10.637-24.623-10.463-37.772c0.299-22.646,11.678-42.874,28.994-51.531
			c10.514-5.257,19.959-7.923,28.074-7.923c10.059,0,15.727,4.072,18.357,6.736c14.207-8.98,27.793-13.531,40.418-13.531
			c26.92,0,43.334,20.587,49.209,38.215c6.791,20.369-0.658,51.242-6.947,65.92c-5.633,13.143-14.436,24.232-25.453,32.07
			C1851.063,1149.87,1837.001,1154.289,1822.149,1154.289z M1787.235,1017.677c-7.24,0-15.848,2.468-25.58,7.334
			c-15.469,7.735-25.641,26.033-25.912,46.614c-0.164,12.583,3.709,44.117,43.143,65.148c14.848,7.919,29.4,11.935,43.256,11.937
			c0.002,0,0.006,0,0.006,0c13.689,0.001,26.633-4.062,37.438-11.746c10.184-7.244,18.33-17.522,23.559-29.725
			c6.41-14.951,12.75-44.06,6.785-61.956c-5.291-15.87-19.967-34.401-43.918-34.401c-12.133,0-25.402,4.697-39.439,13.963
			l-2.428,1.604l-1.5-2.497C1802.497,1023.722,1798.546,1017.677,1787.235,1017.677z"/>
	</g>
	<g>
		<path fill="#EEAF21" d="M1798.979,1075.978c-1.592,0-2.951-1.217-3.1-2.835c-3.195-35.15,9.025-50.528,9.547-51.165
			c1.09-1.333,3.055-1.528,4.387-0.438c1.328,1.086,1.525,3.041,0.447,4.373c-0.164,0.208-11.105,14.395-8.172,46.665
			c0.156,1.715-1.107,3.23-2.822,3.386C1799.171,1075.973,1799.075,1075.978,1798.979,1075.978z"/>
	</g>
	<g>
		<line fill="#FFFFFF" x1="1807.153" y1="1022.896" x2="1805.269" y2="1013.17"/>
		<path fill="#603913" d="M1808.159,1026.403c-0.102,0.029-0.207,0.054-0.312,0.073c-1.977,0.384-3.893-0.908-4.273-2.885
			l-1.887-9.727c-0.383-1.979,0.908-3.899,2.887-4.275c1.979-0.383,3.893,0.91,4.277,2.887l1.883,9.727
			C1811.097,1024.074,1809.958,1025.888,1808.159,1026.403z"/>
	</g>
</g>
<g>
	<g>
		<polygon fill="#FFFFFF" points="2096.501,852.569 2091.817,799.126 2065.269,801.163 2046.53,815.415 2031.954,831.7 
			2026.749,861.731 2038.2,881.582 2048.093,890.744 		"/>
	</g>
	<g>
		<g>
			<path fill="#F26522" d="M2100.983,801.196c-6.811-0.205-10.488-3.007-34.951,9.51c-5.377,2.751-21.217,8.568-24.623,15.143
				c-12.074,23.326-3.93,63.685,33.107,75.964c33.502,11.105,59.012-1.983,70.018-28.268c4.734-11.3,3.48-28.631-1.002-42.401
				C2137.415,812.37,2107.796,801.398,2100.983,801.196z"/>
		</g>
	</g>
	<g>
		<path fill="#B94126" stroke="#B94126" stroke-width="3" stroke-miterlimit="10" d="M2088.694,899.417
			c-16.615,0-31.936-3.807-43.143-10.719c-13.209-8.148-20.191-20.222-20.191-34.915c0-14.842,7.162-29.862,19.65-41.21
			c12.193-11.083,27.926-17.439,43.164-17.439c18.387,0,35.545,7.162,45.895,19.16c8.137,9.431,11.459,21.022,9.607,33.521
			c-2.197,14.839-8.15,27.493-17.217,36.595C2116.681,894.228,2103.622,899.417,2088.694,899.417z M2088.175,798.953
			c-14.301,0-29.098,5.994-40.598,16.446c-11.693,10.627-18.398,24.616-18.398,38.385c0,13.3,6.354,24.25,18.377,31.665
			c10.613,6.546,25.223,10.15,41.139,10.15c13.891,0,26.014-4.801,35.061-13.883c8.484-8.519,14.068-20.435,16.146-34.46
			c1.684-11.367-1.332-21.902-8.721-30.469C2121.544,805.621,2105.468,798.953,2088.175,798.953z"/>
	</g>
	<polygon fill="#FFFFFF" points="2101.585,741.353 2108.694,748.882 2100.315,756.452 2094.638,747.26 	"/>
	<polygon fill="#FFFFFF" points="2131.827,802.716 2134.681,812.671 2123.759,815.54 2122.944,804.767 	"/>
	<g>
		<g>
			<g>
				<path fill="#8DC63F" d="M2098.19,788.826c0,0-19.521-31.485-0.855-45.218c0,0,36.014,22.703,2.822,43.278"/>
			</g>
		</g>
		<g>
			<g>
				<path fill="#4B8A3F" stroke="#4B8A3F" stroke-width="3" stroke-miterlimit="10" d="M2116.415,776.672
					c1.904-3.147,2.857-6.427,2.854-9.821c-0.021-14.258-16.963-25.046-17.684-25.498l-0.811-0.509l-0.77,0.572
					c-8.393,6.264-11.027,16.718-7.611,30.23c2.518,9.966,8.732,22.414,8.936,22.75l2.389-1.451
					c-0.049-0.079-6.223-12.472-8.631-22.039c-3.029-12.039-1.07-20.998,5.818-26.647c3.293,2.286,15.559,11.542,15.57,22.603
					c0.006,6.852-8.545,15.253-17.855,21.132l1.492,2.362C2105.903,786.7,2113.901,780.825,2116.415,776.672z"/>
			</g>
		</g>
		<g>
			<g>
				<g>
					<path fill="#8DC63F" d="M2096.979,790.634c0,0,37.016-10.713,46.047,12.16c0,0-32.43,29.959-44.596-9.606"/>
				</g>
			</g>
			<g>
				<g>
					<path fill="#4B8A3F" stroke="#4B8A3F" stroke-width="3" stroke-miterlimit="10" d="M2120.89,791.422
						c12.652,0.234,20.943,4.552,24.662,12.834c-3.131,2.633-15.506,12.229-26.393,9.289c-6.742-1.822-11.832-8.186-15.131-18.916
						l-2.723,0.838c2.053,6.675,4.803,11.82,8.221,15.399c2.586,2.714,5.559,4.528,8.898,5.43
						c14.035,3.782,29.168-10.005,29.807-10.594l0.715-0.663l-0.359-0.906c-3.92-9.93-13.502-15.312-27.709-15.559
						c-10.477-0.182-19.191,0.061-19.576,0.172l0.791,2.736"/>
				</g>
			</g>
			<g>
				<g>
					<path fill="#4B8A3F" stroke="#4B8A3F" stroke-width="3" stroke-miterlimit="10" d="M2109.526,810.867
						c2.586,2.714,5.559,4.528,8.898,5.43c14.035,3.782,29.168-10.005,29.807-10.594l0.715-0.663l-0.359-0.906
						c-3.92-9.93-13.502-15.312-27.709-15.559c-10.477-0.182-19.123-0.28-19.508-0.169l0.791,2.736
						c0.092-0.025,8.672,0.096,18.729,0.28c12.652,0.234,20.943,4.552,24.662,12.834c-3.131,2.633-15.506,12.229-26.393,9.289
						c-6.742-1.822-13.367-12.594-16.664-23.324l-3.402,0.701C2101.146,797.596,2106.108,807.288,2109.526,810.867z"/>
				</g>
			</g>
		</g>
		<g>
			<path fill="#4B8A3F" stroke="#4B8A3F" stroke-width="3" stroke-miterlimit="10" d="M2078.788,798.972l-2.08-2.332
				c0.223-0.199,5.551-4.885,13.799-6.777c10.162-2.332,23.775-1.696,26.402-1.544l-0.18,3.117
				c-2.553-0.146-15.773-0.766-25.525,1.472C2083.729,794.624,2078.837,798.928,2078.788,798.972z"/>
		</g>
	</g>
	<g>
		<g>
			<line fill="#3C2415" x1="2085.313" y1="795.016" x2="2078.731" y2="795.725"/>
		</g>
		<g>
			<path fill="#3C2415" d="M2076.343,796.197c-0.016-0.069-0.025-0.141-0.031-0.212c-0.146-1.338,0.824-2.54,2.16-2.684l6.582-0.707
				c1.338-0.145,2.543,0.825,2.684,2.162c0.143,1.339-0.824,2.539-2.164,2.683l-6.58,0.709
				C2077.726,798.284,2076.583,797.423,2076.343,796.197z"/>
		</g>
	</g>
</g>
<g>
	<g>
		<path fill="#8DC63F" d="M1784.894,806.87c0,0-2.785-45.549,20.426-48.033c23.213-2.484,21.355,53.831,33.426,63.77
			c12.07,9.938,27.322,23.209,25.998,39.75c-1.857,23.19-7.428,45.551-47.354,45.551c-34.816,0-46.422-31.954-45.496-50.519
			C1773.751,820.121,1785.821,817.636,1784.894,806.87z"/>
	</g>
	<g>
		<path fill="#4B8A3F" d="M1811.384,909.297c-12.861,0-23.598-4.419-31.91-13.134c-11.758-12.328-15.307-29.827-14.773-41.067
			c1.145-24.149,6.289-34.479,9.693-41.314c2-4.012,3.203-6.434,2.922-9.884l-0.004-0.06c-0.115-1.996-2.561-48.906,22.076-51.679
			c0.574-0.063,1.15-0.098,1.709-0.098c14.691,0,19.488,21.279,23.721,40.053c2.467,10.959,5.023,22.293,8.953,25.694
			c10.297,8.913,27.527,23.831,26.094,42.67c-0.902,11.84-2.691,24.084-9.615,33.426
			C1842.573,904.262,1829.858,909.297,1811.384,909.297z M1782.407,803.517c0.389,4.851-1.303,8.245-3.443,12.542
			c-3.213,6.451-8.068,16.202-9.162,39.279c-0.525,11.04,3.406,26.855,13.367,37.3c7.312,7.666,16.803,11.552,28.215,11.552
			c16.744,0,28.117-4.357,34.762-13.326c6.154-8.301,7.783-19.695,8.627-30.773c1.145-15.016-11.4-27.214-24.344-38.42
			c-5.201-4.502-7.701-15.593-10.594-28.433c-3.811-16.906-8.131-36.068-18.738-36.068c-0.369,0-0.752,0.021-1.137,0.064
			c-10.049,1.132-14.307,13.286-16.109,23.283C1781.823,791.755,1782.376,802.908,1782.407,803.517z"/>
	</g>
	<g>
		<path fill="#3C2415" d="M1799.671,757.027c-1.109,0-2.09-0.797-2.283-1.927c-0.18-1.039-1.619-10.286,2.652-15.354
			c1.734-2.06,4.203-3.146,7.137-3.146c1.281,0,2.322,1.039,2.322,2.321s-1.041,2.32-2.322,2.32c-1.584,0-2.723,0.474-3.584,1.491
			c-2.455,2.904-2.008,9.347-1.629,11.584c0.213,1.262-0.637,2.462-1.9,2.677C1799.933,757.016,1799.8,757.027,1799.671,757.027z"/>
	</g>
</g>
<g>
	<g>
		<path fill="#BE202E" d="M936.367,804.803c0,0-3.254-43.424,23.855-45.794c27.107-2.365,24.936,51.325,39.033,60.804
			c14.094,9.472,17.811,28.012,16.261,43.787c-2.167,22.105-7.587,38.719-54.212,38.719c-40.659,0-54.209-30.467-53.133-48.167
			C910.342,818.617,937.45,815.072,936.367,804.803z"/>
	</g>
	<g>
		<path fill="#89251B" d="M954.291,903.642c-15.02,0-27.558-4.214-37.262-12.521c-13.732-11.755-17.879-28.439-17.253-39.159
			c1.335-23.022,20.358-34.051,24.331-40.565c2.336-3.828,3.744-6.135,3.414-9.423l-0.005-0.058
			c-0.138-1.901-2.991-46.629,25.78-49.274c0.67-0.061,1.34-0.089,1.994-0.089c17.158,0,22.758,20.284,27.703,38.184
			c2.881,10.452,5.865,21.257,10.457,24.501c12.022,8.497,18.049,28.609,16.375,46.571c-1.053,11.286-3.145,22.96-11.227,31.872
			C989.631,903.551,975.865,903.642,954.291,903.642z M933.465,801.609c0.453,4.626-1.522,7.86-4.018,11.957
			c-3.755,6.151-22.438,16.624-23.715,38.627c-0.613,10.523,3.979,25.607,15.614,35.562c8.538,7.312,19.622,11.017,32.948,11.017
			c19.553,0,31.748,0.556,39.51-7.999c7.187-7.909,9.088-18.777,10.07-29.337c1.338-14.317,0.785-31.836-14.332-42.518
			c-6.072-4.296-8.994-14.867-12.373-27.111c-4.447-16.117-9.49-34.39-21.881-34.39c-0.43,0-0.877,0.021-1.326,0.062
			c-11.736,1.082-16.709,12.666-18.813,22.201C932.781,790.396,933.426,801.028,933.465,801.609z"/>
	</g>
	<g>
		<path fill="#3B2416" d="M949.412,760.661c-1.248,0.348-2.603-0.239-3.18-1.448c-0.523-1.11-5.061-11.053-1.855-18.094
			c1.301-2.866,3.734-4.868,7.033-5.791c1.441-0.406,2.938,0.435,3.342,1.873c0.404,1.443-0.438,2.939-1.877,3.344
			c-1.785,0.5-2.914,1.393-3.561,2.812c-1.846,4.036,0.688,11.138,1.82,13.535c0.639,1.353,0.057,2.967-1.293,3.608
			C949.701,760.563,949.557,760.619,949.412,760.661z"/>
	</g>
</g>
<g>
	<g>
		<g>
			
				<rect x="692.168" y="112.084" transform="matrix(0.5436 0.8393 -0.8393 0.5436 431.9524 -524.2674)" width="11.834" height="45.998"/>
		</g>
		<g>
			
				<rect x="479.192" y="219.78" transform="matrix(0.4054 0.9142 -0.9142 0.4054 520.4692 -292.5476)" width="11.833" height="68.036"/>
		</g>
		<g opacity="0.4">
			<path fill="#737A58" d="M690.349,348.014c0,0,15.235-270.275,5.561-305.095c-9.672-34.821,150.592-28.646,114.042,76.292
				C773.403,224.152,714.373,334.588,690.349,348.014z"/>
		</g>
		<g>
			<path fill="#424A31" d="M762.423,590.017c-1.504,0.052-3.026-0.466-4.22-1.567c-2.398-2.217-2.548-5.961-0.33-8.36l18.582-20.113
				c-15.933-13.264-32.437-23.88-45.935-32.559c-14.985-9.638-22.949-14.901-26.07-19.95c-7.33-11.859-7.324-30.578,0.018-55.632
				c5.244-17.894,12.32-32.431,12.619-33.041c1.434-2.933,4.979-4.147,7.913-2.712c2.935,1.436,4.15,4.979,2.714,7.915
				c-7.486,15.314-24.451,59.043-13.199,77.251c1.857,3.002,12.303,9.721,22.406,16.217c14.337,9.222,33.973,21.85,51.949,37.548
				l4.584,4.002l-26.89,29.104C765.448,589.328,763.945,589.965,762.423,590.017z"/>
		</g>
		<g>
			<path fill="#424A31" d="M638.445,460.564c-3.047,0.105-5.714-2.147-6.073-5.229c-3.475-29.859,0.725-51.93,12.482-65.601
				c10.572-12.293,23.425-12.874,23.966-12.893c3.267-0.112,6.004,2.444,6.116,5.71c0.112,3.246-2.414,5.971-5.652,6.114
				c-0.463,0.029-8.632,0.651-15.689,9.054c-9.201,10.954-12.477,30.404-9.469,56.247c0.377,3.246-1.949,6.182-5.193,6.56
				C638.769,460.545,638.606,460.557,638.445,460.564z"/>
		</g>
		<g>
			<path fill="#8EAA3D" d="M640.946,323.004c0,0,10.102,125.422,120.287,134.64c110.188,9.218,159.787-46.925,159.133-145.599
				c-0.42-63.13-193.381-9.351-207.421,2.698c-14.041,12.048-40.978-14.489-41.724-36.15
				C670.476,256.932,644.086,288.202,640.946,323.004z"/>
		</g>
		<g opacity="0.4">
			<path fill="#737A58" d="M711.426,331.518c0,0,172.608-208.536,185.483-242.306c12.867-33.771,138.217,66.281,46.539,129.075
				C851.767,281.079,738.731,334.962,711.426,331.518z"/>
		</g>
		<g opacity="0.2">
			<path fill="#737A58" d="M642.993,330.803c56.093-1.055,49.041-14.841,53.391-15.868c0,0-11.478-2.239-16.371-16.979
				c-3.867-11.657-59.835,17.852-56.872,29.142c0.564,2.152,11.274-10.433,17.196-9.798
				C642.642,317.547,639.701,330.865,642.993,330.803z"/>
		</g>
		<g>
			<path fill="#BCD86A" d="M548.147,146.939c49.344-36.396,122.684-47.594,161.521-11.344c38.835,36.25,66.913,96,6.366,142.899
				c-60.551,46.899-133.773,84.218-180.493,48.138C470.039,276.052,498.803,183.333,548.147,146.939z"/>
		</g>
		<g>
			<path fill="#424A31" d="M709.8,365.99c-3.129,0.107-5.824-2.254-6.094-5.407c-0.279-3.248,2.119-6.106,5.362-6.399
				c0.708-0.068,15.462-1.686,25.051-15.599c9.968-14.463,10.923-36.759,2.839-66.267c-0.863-3.151,0.992-6.406,4.143-7.269
				c3.153-0.865,6.406,0.992,7.269,4.143c9.089,33.177,7.522,58.857-4.661,76.33c-12.878,18.47-32.761,20.378-33.602,20.45
				C710.004,365.98,709.901,365.986,709.8,365.99z"/>
		</g>
		<g>
			<path fill="#FFFFFF" d="M588.817,278.539c0,0,71.055-35.697,78.077-41.72c7.02-6.024,25.568,43.854-9.987,65.002
				C618.652,324.57,593.646,292.828,588.817,278.539z"/>
		</g>
		<g>
			<g>
				<circle fill="#BCD86A" cx="532.323" cy="236.82" r="55.659"/>
			</g>
			<g>
				<g>
					<g>
						<circle fill="#FFFFFF" cx="532.323" cy="236.82" r="48.805"/>
					</g>
					<g>
						<circle fill="#1BA2C1" cx="532.323" cy="236.821" r="31.31"/>
						<path fill="#156488" d="M533.513,271.394c-19.066,0.657-35.111-14.318-35.768-33.383
							c-0.656-19.065,14.321-35.11,33.386-35.766c19.066-0.656,35.111,14.32,35.767,33.385
							C567.556,254.695,552.579,270.738,533.513,271.394z M531.358,208.815c-15.443,0.532-27.574,13.527-27.042,28.969
							c0.532,15.442,13.528,27.572,28.971,27.041c15.443-0.532,27.574-13.527,27.042-28.969
							C559.798,220.414,546.802,208.284,531.358,208.815z"/>
					</g>
					<g>
						<circle cx="532.323" cy="236.82" r="14.524"/>
						<path fill="#156488" d="M532.936,254.621c-9.815,0.337-18.075-7.372-18.414-17.188c-0.338-9.816,7.373-18.076,17.188-18.415
							c9.815-0.338,18.076,7.374,18.413,17.188C550.461,246.022,542.751,254.283,532.936,254.621z M531.936,225.589
							c-6.192,0.213-11.057,5.425-10.843,11.618c0.213,6.193,5.425,11.057,11.617,10.845c6.192-0.214,11.058-5.425,10.844-11.617
							C543.34,230.241,538.129,225.376,531.936,225.589z"/>
					</g>
				</g>
				<g>
					<circle fill="#FFFFFF" cx="536.294" cy="214.139" r="11.452"/>
				</g>
				<g>
					<circle fill="#FFFFFF" cx="533.499" cy="226.153" r="5.04"/>
				</g>
			</g>
		</g>
		<g>
			<path fill="#BCD86A" d="M650.228,362.566c0,0,184.771-8.115,218.268,73.172c0,0-53.711,44.821-144.236,13.735
				C724.259,449.473,668.257,427.723,650.228,362.566z"/>
		</g>
		<g>
			<path fill="#424A31" d="M901.169,531.305c-2.041,0.07-4.064-0.919-5.225-2.775l-13.102-20.934
				c-19.211,4.094-88.606,17.37-108.815,0.235c-16.23-13.767-15.815-73.316-15.567-85.113c0.066-3.267,2.742-5.873,6.039-5.791
				c3.268,0.069,5.859,2.772,5.791,6.039c-0.562,27.003,2.6,68.383,11.393,75.84c13.348,11.319,70.047,3.766,102.652-3.652
				l4.098-0.933l17.543,28.03c1.732,2.771,0.893,6.422-1.877,8.155C903.185,530.978,902.175,531.27,901.169,531.305z"/>
		</g>
		<g>
			<path fill="#424A31" d="M531.002,181.674c-5.263,0.181-10.442-0.796-14.838-3.028c-5.904-2.997-15.607-10.876-14.25-29.976
				c0.851-11.999,5.919-21.412,15.062-27.983c27.439-19.715,83.012-5.61,85.365-5c3.162,0.819,5.061,4.048,4.242,7.209
				c-0.817,3.162-4.042,5.065-7.21,4.245c-0.134-0.034-13.573-3.473-29.802-4.672c-20.647-1.529-36.449,1.182-45.699,7.835
				c-6.235,4.485-9.556,10.766-10.156,19.205c-0.457,6.44,0.526,14.893,7.803,18.586c6.646,3.374,17.133,1.819,23.375-3.464
				c3.828-3.239,5.125-6.937,3.854-10.992c-0.971-3.099-3.243-8.163-7.449-7.277c-3.086,0.649-5.823,3.905-5.525,6.574
				c0.362,3.248-1.976,6.174-5.224,6.536c-3.259,0.35-6.174-1.978-6.535-5.224c-0.983-8.805,5.678-17.538,14.847-19.466
				c7.423-1.563,16.894,1.642,21.177,15.32c2.708,8.646-0.025,17.234-7.501,23.56C546.663,178.635,538.741,181.408,531.002,181.674z
				"/>
		</g>
		<g>
			<path fill="#8EAA3D" d="M679.101,118.635c0,0,30.344,31.526,45.08,73.875c21.412,61.531-15.41,87.354-75.795,129.338
				c0,0,145.523-65.525,93.678-144.865C742.063,176.982,725.769,136.761,679.101,118.635z"/>
		</g>
		<g>
			<path fill="#E4D41D" d="M872.442,283c0,0,76.65-28.073,77.736,3.463c1.086,31.536-34.348,72.222-34.348,72.222
				S921.681,286.565,872.442,283z"/>
		</g>
		<g opacity="0.6">
			<g>
				<circle fill="#FFFFFF" cx="943.62" cy="293.374" r="9.202"/>
			</g>
			<g>
				<path fill="#FFFFFF" d="M933.655,303.255c0.092,2.661-1.99,4.891-4.652,4.983c-2.66,0.091-4.891-1.991-4.98-4.652
					c-0.094-2.66,1.988-4.892,4.648-4.983C931.333,298.511,933.562,300.595,933.655,303.255z"/>
			</g>
		</g>
		<g opacity="0.3">
			<g>
				<circle fill="#FFFFFF" cx="876.777" cy="319.684" r="19.284"/>
			</g>
			<g>
				<circle fill="#FFFFFF" cx="853.712" cy="337.58" r="6.574"/>
			</g>
		</g>
		<g>
			<g>
				<path fill="#BCD86A" d="M612.706,164.329c-1.058-30.721,22.988-56.482,53.708-57.54c30.722-1.058,56.483,22.989,57.542,53.71
					c1.057,30.721-22.99,56.482-53.713,57.54C639.526,219.097,613.763,195.05,612.706,164.329z"/>
			</g>
			<g>
				<g>
					<g>
						<circle fill="#FFFFFF" cx="668.329" cy="162.414" r="48.805"/>
					</g>
					<g>
						<circle fill="#1BA2C1" cx="668.33" cy="162.415" r="31.309"/>
						<path fill="#156488" d="M669.521,196.989c-19.065,0.656-35.109-14.319-35.766-33.384
							c-0.656-19.064,14.32-35.109,33.385-35.766c19.065-0.656,35.109,14.32,35.767,33.385
							C703.562,180.288,688.585,196.332,669.521,196.989z M667.364,134.409c-15.441,0.532-27.57,13.526-27.039,28.97
							c0.531,15.442,13.525,27.571,28.969,27.04c15.441-0.532,27.574-13.526,27.042-28.968
							C695.804,146.008,682.808,133.877,667.364,134.409z"/>
					</g>
					<g>
						<circle cx="668.329" cy="162.414" r="14.524"/>
						<path fill="#156488" d="M668.942,180.214c-9.815,0.338-18.075-7.372-18.413-17.188c-0.339-9.815,7.372-18.077,17.188-18.414
							c9.815-0.338,18.075,7.373,18.413,17.189C686.468,171.616,678.758,179.876,668.942,180.214z M667.942,151.183
							c-6.191,0.212-11.057,5.424-10.844,11.618c0.213,6.193,5.424,11.057,11.617,10.844c6.193-0.214,11.058-5.425,10.844-11.618
							C679.347,155.834,674.135,150.969,667.942,151.183z"/>
					</g>
				</g>
				<g>
					<circle fill="#FFFFFF" cx="672.302" cy="139.733" r="11.453"/>
				</g>
				<g>
					<circle fill="#FFFFFF" cx="669.505" cy="151.748" r="5.04"/>
				</g>
			</g>
		</g>
		<g>
			
				<ellipse transform="matrix(0.8797 -0.4756 0.4756 0.8797 -48.8571 315.1079)" fill="#8EAA3D" cx="598.311" cy="254.109" rx="6.032" ry="2.628"/>
		</g>
		<g>
			
				<ellipse transform="matrix(0.8797 -0.4755 0.4755 0.8797 -39.4999 325.4609)" fill="#8EAA3D" cx="623.547" cy="240.805" rx="6.031" ry="2.629"/>
		</g>
		<g>
			<g opacity="0.4">
				<path fill="#FFFFFF" d="M548.603,172.444l-66.688,123.587c0,0-35.19-36.122-26.989-72.682
					C463.134,186.793,499.933,156.3,548.603,172.444z"/>
			</g>
			<g>
				<path d="M522.495,310.5c-40.045,1.378-73.685-28.866-76.583-68.854c-2.963-40.845,27.854-76.487,68.699-79.451
					c41.263-2.984,76.478,27.763,79.45,68.701c2.963,40.845-27.854,76.487-68.699,79.451
					C524.404,310.417,523.446,310.467,522.495,310.5z M517.883,173.869c-0.803,0.027-1.609,0.069-2.416,0.127
					c-34.337,2.493-60.246,32.457-57.753,66.794c2.496,34.418,32.103,60.281,66.791,57.755
					c34.337-2.492,60.246-32.455,57.754-66.793C579.819,198.135,551.542,172.709,517.883,173.869z"/>
			</g>
			<g opacity="0.4">
				<path fill="#FFFFFF" d="M689.554,95.042l-66.691,123.583c0,0-35.191-36.122-26.987-72.681
					C604.081,109.388,640.88,78.896,689.554,95.042z"/>
			</g>
			<g>
				<path d="M589.466,215.02l-11.817-0.634c0.085-1.639,1.121-16.17,11.152-21.623c5.887-3.2,12.981-2.454,21.082,2.216
					l-5.909,10.251c-2.412-1.391-6.854-3.507-9.508-2.077C591.107,204.962,589.646,211.93,589.466,215.02z"/>
			</g>
			<g>
				<path d="M664.218,234.395c-40.041,1.378-73.682-28.864-76.587-68.851c-2.963-40.845,27.855-76.487,68.702-79.451
					c41.271-3.014,76.477,27.761,79.449,68.699c1.436,19.786-4.92,38.946-17.895,53.953c-12.977,15.007-31.018,24.062-50.805,25.497
					C666.126,234.311,665.167,234.362,664.218,234.395z M659.606,97.765c-0.803,0.027-1.61,0.071-2.418,0.129
					c-34.34,2.493-60.248,32.456-57.755,66.794c2.501,34.417,32.095,60.282,66.794,57.752c16.632-1.207,31.801-8.82,42.709-21.436
					c10.908-12.615,16.25-28.723,15.044-45.356C721.54,122.032,693.264,96.606,659.606,97.765z"/>
			</g>
		</g>
	</g>
	<g>
		<g>
			
				<ellipse transform="matrix(0.9836 0.1802 -0.1802 0.9836 19.5377 -34.9049)" fill="#EEAF21" cx="201.85" cy="90.063" rx="120.708" ry="27.714"/>
		</g>
		<g>
			<path fill="#A57F55" d="M179.738,77.797c45.048-3.566,87.659,3.491,117.386,18.578c52.128,26.456,53.73,62.531,58.703,89.642
				c8.978,48.953-26.485,122.228-98.22,123.706c-71.735,1.476-147.655-11.332-162.66-64.56
				C73.911,170.541,97.097,84.338,179.738,77.797z"/>
		</g>
		<g>
			<circle fill="#603913" cx="193.446" cy="354.62" r="97.717"/>
		</g>
		<g>
			<circle fill="#603913" cx="173.853" cy="482.309" r="127.086"/>
		</g>
		<g>
			<circle fill="#A57F55" cx="193.446" cy="354.62" r="93.61"/>
		</g>
		<g>
			<path fill="#A57F55" d="M260.156,563.11c-47.319,47.39-124.098,47.447-171.49,0.129c-47.391-47.319-47.449-124.096-0.128-171.486
				c47.317-47.392,124.097-47.449,171.485-0.131C307.417,438.942,307.476,515.718,260.156,563.11z"/>
		</g>
		<g>
			
				<rect x="328.205" y="179.535" transform="matrix(-0.0635 0.998 -0.998 -0.0635 555.6075 -119.2291)" width="11.085" height="43.093"/>
		</g>
		<g>
			
				<rect x="76.587" y="166.16" transform="matrix(0.9756 0.2193 -0.2193 0.9756 40.3036 -19.6081)" width="63.739" height="11.086"/>
		</g>
		<g>
			<path fill="#A57F55" d="M171.052,103.204c102.707-22.922,168.492,39.497,177.469,88.45c8.978,48.953-15.665,124.748-87.4,126.225
				c-71.735,1.476-147.655-11.331-162.66-64.559C77.425,178.698,93.078,120.605,171.052,103.204z"/>
		</g>
		<g>
			<path fill="#603913" d="M340.025,174.236c0,0-0.706,45.973-13.265,86.059c-18.243,58.245-71.867,54.56-140.732,52.429
				c0,0,131.723,37.75,155.286-58.945C341.313,253.779,365.014,213.928,340.025,174.236z"/>
		</g>
		<g>
			<g>
				<circle fill="#A57F55" cx="290.044" cy="203.918" r="52.143"/>
			</g>
			<g>
				<g>
					<g>
						<circle fill="#FFFFFF" cx="290.044" cy="203.919" r="45.722"/>
					</g>
					<g>
						<circle fill="#8DC63F" cx="290.044" cy="203.919" r="29.332"/>
						<path fill="#4B8A3F" d="M284.186,235.803c-4.519-0.828-8.742-2.58-12.55-5.209c-14.709-10.151-18.418-30.375-8.269-45.083
							c7.234-10.481,20.005-15.771,32.537-13.475c4.519,0.828,8.741,2.58,12.549,5.208c14.708,10.15,18.417,30.375,8.267,45.085
							C309.486,232.81,296.717,238.099,284.186,235.803z M294.794,178.093c-10.152-1.86-20.498,2.424-26.357,10.915
							c-8.222,11.913-5.217,28.294,6.697,36.517c3.086,2.13,6.506,3.551,10.162,4.221c10.151,1.86,20.495-2.425,26.354-10.916
							c8.221-11.914,5.218-28.295-6.696-36.518C301.868,180.183,298.449,178.763,294.794,178.093z"/>
					</g>
					<g>
						<circle cx="290.044" cy="203.919" r="13.607"/>
						<path fill="#4B8A3F" d="M287.029,220.333c-2.327-0.427-4.502-1.329-6.462-2.682c-3.668-2.531-6.131-6.339-6.936-10.722
							c-0.804-4.385,0.147-8.82,2.679-12.488c3.725-5.396,10.3-8.119,16.751-6.937c2.328,0.427,4.5,1.328,6.459,2.68
							c3.67,2.532,6.133,6.34,6.937,10.725c0.804,4.384-0.149,8.818-2.681,12.487C300.054,218.792,293.478,221.515,287.029,220.333z
							 M291.951,193.562c-4.071-0.746-8.222,0.972-10.573,4.377c-1.597,2.314-2.196,5.112-1.689,7.878
							c0.507,2.766,2.061,5.169,4.374,6.766c1.24,0.855,2.61,1.424,4.075,1.692c4.07,0.746,8.22-0.972,10.57-4.377
							c1.597-2.314,2.198-5.113,1.691-7.878c-0.507-2.767-2.062-5.169-4.377-6.767C294.785,194.399,293.417,193.831,291.951,193.562
							z"/>
					</g>
				</g>
				<g>
					<circle fill="#FFFFFF" cx="305.694" cy="189.073" r="10.729"/>
				</g>
				<g>
					<circle fill="#FFFFFF" cx="296.884" cy="196.551" r="4.721"/>
				</g>
			</g>
		</g>
		<g>
			<g>
				<circle fill="#A57F55" cx="146.476" cy="177.612" r="52.143"/>
			</g>
			<g>
				<g>
					<g>
						<circle fill="#FFFFFF" cx="146.476" cy="177.613" r="45.722"/>
					</g>
					<g>
						<circle fill="#8DC63F" cx="146.476" cy="177.613" r="29.332"/>
						<path fill="#4B8A3F" d="M140.618,209.497c-4.518-0.828-8.741-2.58-12.549-5.209c-14.709-10.151-18.419-30.376-8.269-45.083
							c7.234-10.482,20.005-15.771,32.537-13.475c4.519,0.828,8.74,2.58,12.548,5.208c14.708,10.15,18.417,30.375,8.268,45.085
							C165.918,206.504,153.149,211.792,140.618,209.497z M151.227,151.787c-10.153-1.86-20.498,2.424-26.357,10.915
							c-8.221,11.913-5.217,28.294,6.697,36.517c3.086,2.13,6.506,3.55,10.161,4.22c10.152,1.86,20.496-2.424,26.355-10.915
							c8.222-11.914,5.217-28.295-6.696-36.518C158.301,153.876,154.881,152.457,151.227,151.787z"/>
					</g>
					<g>
						<circle cx="146.476" cy="177.613" r="13.607"/>
						<path fill="#4B8A3F" d="M143.461,194.027c-2.327-0.426-4.502-1.329-6.462-2.681c-3.668-2.531-6.131-6.339-6.936-10.722
							c-0.804-4.385,0.148-8.819,2.679-12.488c3.726-5.396,10.301-8.119,16.751-6.937c2.327,0.426,4.5,1.328,6.459,2.68
							c3.669,2.532,6.133,6.34,6.936,10.725c0.804,4.384-0.148,8.818-2.68,12.487C156.486,192.486,149.91,195.208,143.461,194.027z
							 M148.384,167.256c-4.071-0.746-8.223,0.972-10.573,4.377c-1.597,2.314-2.196,5.112-1.69,7.878
							c0.507,2.766,2.061,5.169,4.375,6.766c1.24,0.854,2.611,1.424,4.075,1.692c4.07,0.746,8.22-0.972,10.571-4.377
							c1.597-2.314,2.198-5.113,1.69-7.878c-0.507-2.767-2.061-5.17-4.377-6.767C151.218,168.093,149.848,167.524,148.384,167.256z"
							/>
					</g>
				</g>
				<g>
					<circle fill="#FFFFFF" cx="162.127" cy="162.767" r="10.729"/>
				</g>
				<g>
					<circle fill="#FFFFFF" cx="153.316" cy="170.244" r="4.721"/>
				</g>
			</g>
		</g>
		<g>
			
				<ellipse transform="matrix(0.9898 0.1425 -0.1425 0.9898 35.6474 -25.8414)" fill="#603913" cx="198.291" cy="236.028" rx="5.65" ry="2.462"/>
		</g>
		<g>
			
				<ellipse transform="matrix(0.9898 0.1426 -0.1426 0.9898 36.5328 -29.5867)" fill="#603913" cx="224.703" cy="240.108" rx="5.65" ry="2.463"/>
		</g>
		<g>
			<path fill="#603913" d="M94.496,148.186c0,0,28.509-29.053,105.466-7.573c0,0-3.243-49.818-62.734-37.238
				C137.228,103.375,96.936,113.01,94.496,148.186z"/>
		</g>
		<g>
			<path fill="#603913" d="M351.619,199.774c0,0-16.356-37.273-95.929-44.475c0,0,20.695-45.433,71.861-12.576
				C327.551,142.723,361.808,166.018,351.619,199.774z"/>
		</g>
		<g>
			<path fill="#FFFFFF" d="M176.434,253.83l60.873,9.484c0,0-15.839,36.333-36.248,29.255S176.434,253.83,176.434,253.83z"/>
		</g>
		<g>
			<path fill="#603913" d="M126.101,378.177c0,0,0.459-0.222,1.339-0.597c0.882-0.372,2.175-0.927,3.864-1.519
				c3.362-1.222,8.264-2.739,14.296-3.981c3.015-0.608,6.304-1.208,9.818-1.591c3.504-0.439,7.229-0.717,11.092-0.817
				c1.93-0.013,3.896-0.078,5.884,0.003c0.995,0.027,1.995,0.055,3,0.083c1.004,0.072,2.013,0.145,3.027,0.217
				c2.027,0.108,4.057,0.418,6.103,0.625c2.035,0.291,4.078,0.594,6.112,0.955c4.05,0.815,8.08,1.756,11.96,2.973
				c0.97,0.299,1.938,0.597,2.901,0.894c0.952,0.331,1.888,0.698,2.822,1.041c0.931,0.35,1.858,0.696,2.778,1.041
				c0.903,0.39,1.798,0.776,2.687,1.158c0.888,0.384,1.768,0.763,2.64,1.14c0.85,0.424,1.691,0.845,2.525,1.26
				c0.828,0.419,1.649,0.835,2.46,1.245c0.807,0.415,1.574,0.888,2.346,1.319c1.519,0.908,3.063,1.672,4.43,2.625
				c1.388,0.916,2.727,1.8,4.015,2.649c1.252,0.895,2.433,1.781,3.556,2.619c1.125,0.839,2.185,1.64,3.124,2.465
				c1.896,1.625,3.601,2.969,4.865,4.241c2.581,2.481,4.02,3.915,4.02,3.915s-1.652-1.206-4.488-3.348
				c-0.696-0.551-1.5-1.121-2.395-1.71c-0.879-0.606-1.83-1.263-2.846-1.963c-1-0.725-2.116-1.415-3.298-2.133
				c-1.171-0.73-2.4-1.499-3.685-2.3c-2.648-1.473-5.475-3.119-8.591-4.623c-0.774-0.38-1.543-0.802-2.353-1.164
				c-0.81-0.357-1.632-0.719-2.46-1.084c-0.828-0.371-1.661-0.744-2.505-1.121c-0.86-0.339-1.729-0.681-2.603-1.025
				c-0.874-0.344-1.756-0.692-2.644-1.042c-0.905-0.306-1.815-0.613-2.732-0.922c-0.917-0.305-1.833-0.631-2.766-0.923
				c-0.938-0.277-1.879-0.555-2.823-0.835c-3.775-1.143-7.691-2.004-11.623-2.762c-1.966-0.371-3.946-0.687-5.918-0.99
				c-1.984-0.22-3.95-0.545-5.921-0.67c-3.928-0.374-7.816-0.561-11.581-0.609c-3.764,0.013-7.415,0.056-10.868,0.309
				c-3.454,0.219-6.713,0.564-9.72,0.938c-6.006,0.797-10.982,1.779-14.438,2.598C128.048,377.561,126.101,378.177,126.101,378.177z
				"/>
		</g>
		<g>
			<path fill="#603913" d="M98.495,424.043c0,0,0.462,0.507,1.377,1.403c0.908,0.906,2.279,2.191,4.053,3.79
				c1.761,1.61,3.995,3.458,6.566,5.552c2.608,2.051,5.589,4.31,8.941,6.622c3.366,2.295,7.073,4.685,11.121,6.983
				c4.018,2.351,8.427,4.514,13.023,6.633c2.33,0.999,4.673,2.06,7.127,2.937c2.42,0.966,4.928,1.774,7.444,2.615
				c1.251,0.448,2.539,0.786,3.826,1.149c1.287,0.358,2.579,0.715,3.87,1.076c1.311,0.295,2.621,0.591,3.935,0.886
				c1.31,0.309,2.624,0.599,3.958,0.796l3.977,0.704c1.322,0.262,2.666,0.35,3.995,0.533c1.334,0.154,2.661,0.334,3.989,0.467
				c1.332,0.083,2.663,0.165,3.985,0.248c2.647,0.226,5.278,0.186,7.88,0.227c2.605,0.104,5.17-0.144,7.698-0.235
				c2.535-0.046,4.996-0.463,7.427-0.667c2.437-0.186,4.784-0.625,7.08-0.999c1.147-0.188,2.282-0.374,3.397-0.557
				c1.108-0.218,2.189-0.494,3.262-0.717c2.135-0.493,4.227-0.872,6.189-1.41c1.963-0.553,3.842-1.082,5.63-1.585
				c1.809-0.453,3.474-1.033,5.042-1.572c3.131-1.098,5.928-1.905,8.119-2.853c4.463-1.731,7.012-2.722,7.012-2.722
				s-2.444,1.236-6.723,3.398c-2.123,1.136-4.839,2.195-7.92,3.505c-3.055,1.391-6.673,2.5-10.575,3.869
				c-1.959,0.654-4.056,1.155-6.199,1.774c-1.075,0.296-2.168,0.605-3.287,0.876c-1.13,0.231-2.276,0.466-3.438,0.706
				c-2.327,0.472-4.708,1.014-7.19,1.304c-2.471,0.329-4.993,0.77-7.586,0.895c-2.592,0.157-5.219,0.47-7.897,0.43
				c-2.672,0.036-5.383,0.119-8.108-0.104c-1.363-0.074-2.732-0.148-4.104-0.223c-1.369-0.125-2.736-0.298-4.11-0.448
				c-2.755-0.248-5.487-0.739-8.22-1.212c-1.372-0.216-2.724-0.524-4.072-0.852c-1.349-0.316-2.697-0.631-4.041-0.946
				c-1.329-0.38-2.654-0.759-3.974-1.137c-1.321-0.383-2.642-0.742-3.926-1.212c-1.288-0.445-2.574-0.888-3.851-1.328
				c-1.278-0.443-2.505-0.997-3.749-1.486c-2.496-0.959-4.875-2.104-7.233-3.182c-4.671-2.254-9.069-4.671-13.073-7.222
				c-4.045-2.48-7.678-5.118-10.954-7.635c-3.282-2.509-6.131-5.007-8.612-7.258c-2.457-2.28-4.527-4.337-6.161-6.099
				c-1.655-1.74-2.867-3.188-3.688-4.177C98.902,424.594,98.495,424.043,98.495,424.043z"/>
		</g>
		<g>
			<path fill="#603913" d="M72.253,494.368c0,0,0.505,0.662,1.51,1.849c0.99,1.203,2.519,2.901,4.459,5.056
				c1.967,2.133,4.384,4.692,7.296,7.486c2.907,2.797,6.271,5.861,10.062,9.046c3.76,3.229,8.067,6.43,12.655,9.742
				c2.366,1.554,4.719,3.265,7.281,4.766c1.268,0.772,2.547,1.555,3.839,2.344c1.32,0.738,2.653,1.484,3.998,2.235
				c1.33,0.778,2.721,1.464,4.123,2.152c1.405,0.685,2.8,1.417,4.236,2.079c1.451,0.627,2.913,1.257,4.381,1.892
				c1.452,0.671,2.956,1.233,4.469,1.787c1.515,0.557,3.02,1.153,4.551,1.682c1.551,0.476,3.108,0.952,4.666,1.431
				c0.779,0.233,1.554,0.487,2.341,0.707l2.383,0.566l4.769,1.137c6.42,1.203,12.907,2.189,19.348,2.303
				c1.607,0.048,3.21,0.095,4.804,0.142c1.596-0.062,3.182-0.123,4.758-0.184c1.576-0.093,3.15-0.052,4.699-0.251
				c1.549-0.179,3.085-0.356,4.612-0.531c3.068-0.247,6.015-0.929,8.931-1.452c1.446-0.3,2.91-0.475,4.305-0.869
				c1.399-0.372,2.782-0.739,4.147-1.101c1.364-0.363,2.714-0.72,4.041-1.072c1.313-0.399,2.579-0.884,3.843-1.297
				c1.262-0.427,2.503-0.848,3.718-1.26c1.215-0.424,2.43-0.78,3.555-1.298c4.534-1.973,8.821-3.531,12.379-5.437
				c3.603-1.807,6.82-3.267,9.284-4.805c2.503-1.462,4.507-2.561,5.861-3.333c1.358-0.766,2.082-1.175,2.082-1.175
				s-0.685,0.467-1.973,1.343c-1.292,0.87-3.168,2.18-5.602,3.783c-2.378,1.699-5.505,3.36-9.02,5.407
				c-3.462,2.154-7.674,3.998-12.196,6.176c-1.119,0.577-2.332,0.994-3.544,1.48c-1.219,0.475-2.458,0.959-3.719,1.453
				c-1.265,0.484-2.545,1.006-3.868,1.459c-1.341,0.404-2.702,0.813-4.084,1.229c-1.382,0.414-2.782,0.835-4.201,1.261
				c-1.413,0.449-2.9,0.678-4.377,1.033c-2.961,0.654-5.985,1.368-9.127,1.699c-1.565,0.211-3.142,0.424-4.732,0.638
				c-1.589,0.235-3.209,0.229-4.832,0.355c-1.625,0.093-3.258,0.189-4.9,0.284c-1.645-0.036-3.298-0.073-4.959-0.111
				c-6.646-0.079-13.351-1.042-19.984-2.255l-4.913-1.202l-2.451-0.601c-0.81-0.23-1.607-0.498-2.41-0.744
				c-1.601-0.502-3.201-1.004-4.794-1.505c-1.574-0.554-3.119-1.175-4.669-1.758c-3.135-1.096-6.07-2.592-9.039-3.905
				c-1.457-0.707-2.873-1.483-4.298-2.213c-1.42-0.732-2.833-1.463-4.177-2.286c-1.358-0.795-2.705-1.583-4.04-2.364
				c-1.316-0.809-2.582-1.67-3.849-2.496c-2.564-1.614-4.903-3.434-7.256-5.091c-4.576-3.496-8.788-6.941-12.439-10.382
				c-1.871-1.667-3.558-3.378-5.193-4.972c-1.576-1.651-3.096-3.192-4.453-4.706c-2.753-2.992-5.023-5.714-6.861-7.975
				c-1.829-2.269-3.17-4.125-4.071-5.398C72.702,495.069,72.253,494.368,72.253,494.368z"/>
		</g>
		<g>
			<path fill="#603913" d="M61.024,409.873c-1.449-0.266-2.788-1.104-3.652-2.436c-1.667-2.568-0.935-6,1.633-7.667l12.77-8.287
				c-6.756-12.829-23.667-47.059-21.308-64.07c3.088-22.285,51.854-24.346,61.597-24.533c3.053-0.056,5.588,2.374,5.647,5.434
				s-2.373,5.589-5.434,5.649c-20.496,0.404-49.562,5.832-50.829,14.973c-1.924,13.86,15.574,49.261,22.478,61.732l2.502,4.521
				l-21.389,13.879C63.802,409.872,62.367,410.119,61.024,409.873z"/>
		</g>
		<g>
			<polygon fill="#E6E7E8" points="113.236,279.817 94.6,292.681 194.917,326.089 			"/>
		</g>
		<g>
			<polygon fill="#E6E7E8" points="292.988,310.249 305.853,328.885 200.207,324.554 			"/>
		</g>
		<g>
			<g>
				<path fill="#FFDE17" d="M210.257,311.785c0,0,39.412-20.327,45.511-9.192c6.099,11.135,17.524,75.213-48.024,33.15
					C207.744,335.743,187.227,314.453,210.257,311.785z"/>
			</g>
			<g>
				<path fill="#FFDE17" d="M185.942,306.704c0,0-29.646-32.981-39.296-24.731s-43.053,64.113,33.15,48.023
					C179.796,329.996,206.529,317.363,185.942,306.704z"/>
			</g>
			<g>
				<path fill="#EEAF21" d="M208.147,323.294c0,0,43.764-20.156,32.78-4.637c0,0-22.982,9.25-0.341,8.702
					c16.727-0.404,13.55,20.015-36.467,0.832C196.933,325.436,208.147,323.294,208.147,323.294z"/>
			</g>
			<g>
				<path fill="#EEAF21" d="M186.418,319.67c0,0-34.271-33.87-29.236-15.537c0,0,14.704,17.735-2.646,8.299
					c-11.412-6.206-16.587,6.66-6.047,11.828c6.325,3.1,19.959,1.754,40.044,1.387C196.232,325.506,186.418,319.67,186.418,319.67z"
					/>
			</g>
			<g>
				<circle fill="#FFDE17" cx="194.325" cy="320.136" r="19.707"/>
			</g>
			<g>
				<defs>
					<circle id="SVGID_1_" cx="194.325" cy="320.136" r="19.707"/>
				</defs>
				<clipPath id="SVGID_2_">
					<use xlink:href="#SVGID_1_"  overflow="visible"/>
				</clipPath>
				<g clip-path="url(#SVGID_2_)">
					<path fill="#EEAF21" d="M197.877,300.75c0,0,16.74,4.32,8.929,24.177c-5.58,14.178-23.295,16.602-28.652,6.02
						c-4.051-8.002-5.915,27.717-5.915,27.717l41.192,7.548l2.013-62.242L197.877,300.75z"/>
				</g>
			</g>
		</g>
		<g>
			<g>
				<path fill="#FFDE17" d="M114.992,91.586c0,0,103.781,58.137,248.933,84.544c0,0,21.624-89.826-90.626-128.479
					C182.433,16.362,125.939,60.981,114.992,91.586z"/>
			</g>
			<g>
				<path fill="#FFDE17" d="M257.17,45.335c1.84-5.145,7.501-7.823,12.647-5.982c5.144,1.839,7.825,7.502,5.984,12.646
					c-1.841,5.145-4.7,2.185-9.844,0.346C260.812,50.504,255.33,50.48,257.17,45.335z"/>
			</g>
		</g>
		<g>
			<path fill="#EEAF21" d="M101.384,84.803c0,0,204.281,95.073,262.541,91.328"/>
		</g>
		<g>
			<g opacity="0.4">
				<path fill="#FFFFFF" d="M201.31,144.813L81.157,198.4c0,0-5.459-46.926,21.53-69.371
					C129.676,106.592,174.423,105.004,201.31,144.813z"/>
			</g>
			<g>
				<path d="M131.009,244.269c-9.228-1.691-17.904-5.191-25.791-10.403c-15.507-10.248-26.095-25.92-29.812-44.128
					c-3.718-18.21-0.121-36.779,10.129-52.284c15.407-23.314,43.127-35.124,70.618-30.086c9.227,1.691,17.904,5.191,25.791,10.403
					c32.007,21.156,40.835,64.405,19.682,96.411C186.219,237.496,158.5,249.306,131.009,244.269z M154.157,118.271
					c-23.114-4.235-46.419,5.693-59.373,25.295c-8.617,13.036-11.642,28.645-8.516,43.954c3.126,15.308,12.026,28.482,25.062,37.098
					c6.635,4.384,13.928,7.328,21.677,8.748c23.114,4.235,46.419-5.694,59.373-25.296c17.784-26.908,10.361-63.267-16.545-81.051
					C169.199,122.634,161.906,119.691,154.157,118.271z"/>
			</g>
			<g opacity="0.4">
				<path fill="#FFFFFF" d="M350.167,167.957l-120.15,53.586c0,0-5.464-46.929,21.528-69.37
					C278.536,129.736,323.281,128.147,350.167,167.957z"/>
			</g>
			<g>
				<path d="M207.295,199.771l-8.408-7.226c1-1.167,10.078-11.358,20.638-9.67c6.159,0.962,11.037,5.598,14.38,13.697l-10.247,4.229
					c-0.995-2.411-3.092-6.539-5.871-6.979C214.263,193.248,209.195,197.583,207.295,199.771z"/>
			</g>
			<g>
				<path d="M279.696,268.819c-9.227-1.691-17.903-5.191-25.79-10.402c-32.006-21.154-40.838-64.403-19.685-96.41
					c15.409-23.314,43.13-35.124,70.62-30.086c9.228,1.691,17.905,5.19,25.79,10.402c15.506,10.246,26.093,25.918,29.812,44.128
					c3.717,18.21,0.121,36.778-10.127,52.282C334.907,262.047,307.187,273.856,279.696,268.819z M302.842,142.824
					c-23.112-4.235-46.419,5.693-59.373,25.294c-17.782,26.907-10.359,63.267,16.548,81.05c6.635,4.383,13.927,7.326,21.676,8.747
					c23.114,4.235,46.42-5.693,59.374-25.294c8.615-13.034,11.638-28.644,8.512-43.952c-3.125-15.309-12.026-28.483-25.06-37.098
					C317.886,147.187,310.592,144.244,302.842,142.824z"/>
			</g>
		</g>
		<path fill="none" stroke="#603913" stroke-width="11" stroke-linecap="round" stroke-linejoin="round" stroke-miterlimit="10" d="
			M285.496,350.941c0,0,50.41,42.644,58.982,37.533c8.572-5.11,42.136-47.64,42.136-47.64l18.407-11.899"/>
	</g>
</g>
</svg>
