<?xml version="1.0" encoding="utf-8"?>
<!-- Generator: Adobe Illustrator 16.0.0, SVG Export Plug-In . SVG Version: 6.00 Build 0)  -->
<!DOCTYPE svg PUBLIC "-//W3C//DTD SVG 1.1//EN" "http://www.w3.org/Graphics/SVG/1.1/DTD/svg11.dtd">
<svg version="1.1" id="Layer_1" xmlns="http://www.w3.org/2000/svg" xmlns:xlink="http://www.w3.org/1999/xlink" x="0px" y="0px"
	 width="625.137px" height="587.59px" viewBox="0 0 625.137 587.59" enable-background="new 0 0 625.137 587.59"
	 xml:space="preserve">
<g>
	<g>
		<g>
			<circle fill="#FFDE17" cx="295.66" cy="226.323" r="7.059"/>
		</g>
		<g>
			<circle fill="#FFDE17" cx="305.608" cy="223.637" r="7.059"/>
		</g>
		<g>
			<circle fill="#FFDE17" cx="312.935" cy="230.883" r="7.059"/>
		</g>
		<g>
			<path fill="#FFDE17" d="M303.297,240.937c-0.042-3.896,3.086-7.092,6.984-7.136c3.898-0.044,7.095,3.083,7.136,6.98
				c0.045,3.898-3.081,7.095-6.979,7.139C306.539,247.963,303.341,244.836,303.297,240.937z"/>
		</g>
		<g>
			<circle fill="#FFDE17" cx="300.441" cy="243.654" r="7.06"/>
		</g>
		<g>
			<path fill="#FFDE17" d="M296.453,230.311c3.409,1.888,4.647,6.185,2.759,9.596c-1.887,3.413-6.184,4.649-9.595,2.76
				c-3.412-1.885-4.649-6.182-2.761-9.593C288.744,229.661,293.04,228.426,296.453,230.311z"/>
		</g>
		<g>
			<circle fill="#F7941E" cx="302.97" cy="233.632" r="6.123"/>
		</g>
	</g>
	<g>
		<g>
			<path d="M259.785,263.073h-23.451c0.12,9.654,4.919,15.052,11.215,15.052c4.438,0,7.077-1.02,9.957-2.698l0.54,0.96
				c-3.06,1.798-5.937,2.878-10.617,2.878c-6.477,0-12.354-5.457-12.354-16.432c0-10.437,5.578-16.375,12.474-16.375
				c7.138,0,12.294,5.759,12.294,15.955C259.844,262.653,259.844,262.833,259.785,263.073z M247.549,247.6
				c-6.058,0-10.976,5.038-11.215,14.394h22.25C258.403,252.637,253.906,247.6,247.549,247.6z"/>
		</g>
		<g>
			<path d="M290.073,278.605v-5.456c-2.58,3.477-6.238,6.116-10.916,6.116c-7.018,0-11.875-4.798-11.875-16.253
				c0-11.517,4.917-16.554,11.996-16.554c4.498,0,8.216,2.519,10.795,5.997v-40.572l1.319-0.721v67.442H290.073z M290.073,254.315
				c-2.4-3.838-6.357-6.716-10.676-6.716c-6.717,0-10.794,4.736-10.794,15.413c0,10.496,4.197,15.112,10.794,15.112
				c4.258,0,8.158-2.759,10.676-6.656V254.315z"/>
		</g>
		<g>
			<path d="M302.248,278.605v-31.486h1.319v31.486H302.248z"/>
		</g>
		<g>
			<path d="M315.741,211.163v41.415c2.58-3.48,6.239-6.117,10.915-6.117c7.018,0,11.877,4.797,11.877,16.253
				c0,11.515-4.917,16.553-11.994,16.553c-4.5,0-8.218-2.518-10.799-5.997v5.337h-1.316v-66.723L315.741,211.163z M315.741,271.409
				c2.4,3.84,6.358,6.716,10.676,6.716c6.718,0,10.797-4.737,10.797-15.413c0-10.495-4.199-15.112-10.797-15.112
				c-4.257,0-8.155,2.759-10.676,6.656V271.409z"/>
		</g>
		<g>
			<path d="M347.65,278.605v-66.722l1.32-0.721v67.442H347.65z"/>
		</g>
		<g>
			<path d="M382.796,263.073h-23.45c0.118,9.654,4.917,15.052,11.214,15.052c4.438,0,7.077-1.02,9.955-2.698l0.541,0.96
				c-3.06,1.798-5.938,2.878-10.614,2.878c-6.479,0-12.357-5.457-12.357-16.432c0-10.437,5.576-16.375,12.474-16.375
				c7.138,0,12.295,5.759,12.295,15.955C382.856,262.653,382.856,262.833,382.796,263.073z M370.561,247.6
				c-6.058,0-10.974,5.038-11.214,14.394h22.25C381.416,252.637,376.918,247.6,370.561,247.6z"/>
		</g>
	</g>
	<g>
		<rect x="234.121" y="285.736" fill="none" width="150.443" height="52.48"/>
	</g>
	<g enable-background="new    ">
		<path d="M243.86,303.228v-1.895c-0.96,1.223-2.422,2.158-4.27,2.158c-2.062,0-4.175-0.936-4.175-3.885
			c0-2.783,2.231-4.055,4.726-4.055c1.535,0,2.832,0.432,3.718,0.936v-1.871c0-2.398-1.055-3.357-3.287-3.357
			c-1.439,0-2.542,0.406-3.623,0.982l-0.383-0.863c1.104-0.576,2.447-1.008,4.078-1.008c2.734,0,4.27,1.104,4.27,4.127v8.73H243.86z
			 M243.86,297.351c-0.96-0.551-2.111-0.936-3.766-0.936c-2.111,0-3.646,1.08-3.646,3.143c0,2.23,1.535,3.07,3.311,3.07
			c1.774,0,3.19-0.983,4.102-2.351V297.351z"/>
		<path d="M255.256,291.737c-0.552-0.24-1.104-0.383-1.943-0.383c-1.63,0-3.31,1.246-3.31,4.293v7.58h-1.056v-12.594h1.056v2.279
			c0.479-1.584,1.991-2.543,3.526-2.543c0.912,0,1.559,0.121,1.991,0.336L255.256,291.737z"/>
		<path d="M264.756,291.737c-0.551-0.24-1.104-0.383-1.942-0.383c-1.632,0-3.312,1.246-3.312,4.293v7.58h-1.055v-12.594h1.055v2.279
			c0.48-1.584,1.992-2.543,3.527-2.543c0.911,0,1.559,0.121,1.992,0.336L264.756,291.737z"/>
		<path d="M274.785,303.228v-1.895c-0.96,1.223-2.422,2.158-4.27,2.158c-2.063,0-4.175-0.936-4.175-3.885
			c0-2.783,2.231-4.055,4.726-4.055c1.535,0,2.831,0.432,3.718,0.936v-1.871c0-2.398-1.055-3.357-3.287-3.357
			c-1.439,0-2.542,0.406-3.623,0.982l-0.383-0.863c1.103-0.576,2.447-1.008,4.078-1.008c2.735,0,4.27,1.104,4.27,4.127v8.73H274.785
			z M274.785,297.351c-0.96-0.551-2.111-0.936-3.766-0.936c-2.111,0-3.646,1.08-3.646,3.143c0,2.23,1.535,3.07,3.31,3.07
			c1.774,0,3.19-0.983,4.102-2.351V297.351z"/>
		<path d="M288.339,303.228v-7.531c0-3.07-1.343-4.391-3.622-4.391c-1.847,0-3.79,1.104-3.79,4.365v7.557h-1.056v-12.594h1.056
			v2.135c0.623-1.535,2.11-2.398,4.005-2.398c2.664,0,4.462,1.512,4.462,5.133v7.725H288.339z"/>
		<path d="M296.161,307.929l-0.359-0.887c4.366-0.12,5.709-1.416,5.709-4.822v-0.887c-0.912,1.247-2.35,2.158-4.126,2.158
			c-2.686,0-4.653-1.918-4.653-6.428c0-4.559,2.039-6.693,4.773-6.693c1.727,0,3.094,0.84,4.006,2.111v-1.848h1.056v11.467
			C302.566,306.011,300.911,307.81,296.161,307.929z M301.51,293.657c-0.84-1.344-2.255-2.352-3.91-2.352
			c-2.423,0-3.791,1.848-3.791,5.733c0,3.767,1.464,5.517,3.839,5.517c1.559,0,2.902-0.936,3.862-2.303V293.657z"/>
		<path d="M316.024,297.231h-8.971c0.096,3.382,1.75,5.324,4.078,5.324c1.631,0,2.614-0.407,3.766-1.127l0.48,0.768
			c-1.343,0.84-2.471,1.295-4.366,1.295c-2.47,0-5.013-1.967-5.013-6.596c0-4.102,2.23-6.525,5.085-6.525
			c3.046,0,4.99,2.424,4.99,6.285C316.073,296.919,316.049,297.087,316.024,297.231z M311.083,291.306
			c-2.206,0-3.886,1.727-4.03,5.062h8.012C314.968,293.177,313.482,291.306,311.083,291.306z"/>
	</g>
	<g enable-background="new    ">
		<path d="M319.601,295.001v-1.033h5.133v1.033H319.601z"/>
	</g>
	<g enable-background="new    ">
		<path d="M335.703,303.354v-7.531c0-3.165-1.343-4.391-3.43-4.391c-1.775,0-3.574,1.081-3.574,4.367v7.555h-1.055V295.8
			c0-3.168-1.392-4.367-3.455-4.367c-1.775,0-3.574,1.081-3.574,4.367v7.555h-1.056v-12.594h1.056v2.137
			c0.6-1.56,2.014-2.399,3.791-2.399c2.134,0,3.43,1.224,3.885,2.855c0.6-1.823,2.064-2.855,4.174-2.855
			c2.567,0,4.293,1.488,4.293,5.134v7.723H335.703z"/>
		<path d="M349.93,297.358h-8.971c0.096,3.383,1.751,5.325,4.077,5.325c1.632,0,2.616-0.407,3.767-1.127l0.479,0.767
			c-1.344,0.84-2.47,1.297-4.365,1.297c-2.472,0-5.015-1.969-5.015-6.598c0-4.102,2.231-6.524,5.086-6.524
			c3.046,0,4.989,2.423,4.989,6.285C349.978,297.046,349.954,297.214,349.93,297.358z M344.989,291.433
			c-2.207,0-3.886,1.728-4.03,5.062h8.012C348.875,293.304,347.387,291.433,344.989,291.433z"/>
		<path d="M361.974,303.354v-7.531c0-3.07-1.343-4.391-3.623-4.391c-1.846,0-3.791,1.104-3.791,4.367v7.555h-1.055v-12.594h1.055
			v2.137c0.625-1.535,2.112-2.399,4.007-2.399c2.662,0,4.461,1.512,4.461,5.134v7.723H361.974z"/>
		<path d="M371.762,303.116c-0.647,0.288-1.343,0.456-2.254,0.456c-1.391,0-2.134-0.769-2.134-2.448v-9.474h-1.632v-0.89h1.632
			v-4.293l1.055-0.599v4.892h3.333v0.89h-3.333v9.306c0,1.129,0.431,1.656,1.463,1.656c0.744,0,1.319-0.145,1.919-0.433
			L371.762,303.116z"/>
		<path d="M378.288,303.62c-1.655,0-2.854-0.528-4.053-1.465l0.576-0.767c0.983,0.814,2.11,1.318,3.501,1.318
			c1.944,0,3.046-0.888,3.046-2.423c0-1.294-0.743-1.989-3.214-3.046c-2.59-1.103-3.55-1.822-3.55-3.717
			c0-1.729,1.487-3.023,3.67-3.023c1.751,0,2.999,0.552,3.838,1.247l-0.6,0.769c-0.864-0.672-1.799-1.104-3.286-1.104
			c-1.632,0-2.591,0.913-2.591,2.039c0,1.344,0.697,1.919,3.071,2.926c2.471,1.058,3.67,1.848,3.67,3.887
			C382.366,302.491,380.567,303.62,378.288,303.62z"/>
	</g>
</g>
<g>
	<g>
		<path fill="#8DC63F" d="M560.354,403.38c0,0-10.061-0.043-10.119-6.527c0,0,4.658-1.672,7.84,1.765c0,0-0.34-5.43,5.324-7.358
			C563.397,391.259,566.548,398.427,560.354,403.38"/>
		<path fill="#CD3D57" d="M551.817,406.387c4.09,9.733,13.992,14.497,16.176,13.538c2.023-0.889,4.918-9.972,0.643-20.553
			C566.847,394.949,550.558,403.387,551.817,406.387z"/>
	</g>
	<path fill="#8DC63F" d="M555.091,518.085c0,0,11.029,1.486,15.922-8.239c4.889-9.724-1.822-18.582-1.822-18.582L555.091,518.085z"
		/>
	<path fill="#8DC63F" d="M501.714,411.33c0,0,11.03,1.489,15.921-8.236c4.889-9.723-1.822-18.579-1.822-18.579L501.714,411.33z"/>
	<g>
		<path fill="#FFDE17" d="M493.46,550.843c1.336,0.358,2.689,0.087,3.756-0.624c-0.1,1.281,0.326,2.597,1.294,3.588
			c1.779,1.824,4.703,1.862,6.529,0.082c0.989-0.969,1.448-2.268,1.382-3.55c1.05,0.743,2.397,1.051,3.744,0.725
			c2.48-0.597,4.007-3.09,3.41-5.568c-0.323-1.345-1.207-2.405-2.342-3.005c1.173-0.521,2.126-1.523,2.538-2.846
			c0.754-2.437-0.607-5.021-3.042-5.777c-1.656-0.515-3.383-0.047-4.554,1.07c0.401-1.571-0.036-3.311-1.298-4.504
			c-1.852-1.754-4.775-1.67-6.528,0.182c-0.95,1.004-1.358,2.322-1.24,3.6c-1.078-0.701-2.437-0.953-3.77-0.575
			c-2.455,0.695-3.878,3.248-3.185,5.701c0.375,1.331,1.3,2.357,2.459,2.907c-1.152,0.566-2.064,1.604-2.422,2.945
			C489.532,547.656,490.996,550.185,493.46,550.843z"/>
		<circle fill="#F7941E" cx="501.736" cy="542.466" r="4.103"/>
	</g>
	<g>
		<path fill="#FFDE17" d="M476.939,409.145c1.335,0.356,2.688,0.087,3.755-0.623c-0.1,1.277,0.326,2.595,1.294,3.586
			c1.78,1.822,4.702,1.864,6.529,0.082c0.99-0.969,1.45-2.268,1.384-3.549c1.049,0.74,2.398,1.05,3.743,0.726
			c2.48-0.599,4.007-3.091,3.411-5.57c-0.325-1.345-1.207-2.405-2.341-3.003c1.172-0.521,2.126-1.527,2.537-2.846
			c0.754-2.438-0.606-5.023-3.044-5.777c-1.655-0.517-3.382-0.048-4.552,1.068c0.402-1.572-0.037-3.306-1.298-4.502
			c-1.852-1.754-4.774-1.672-6.527,0.18c-0.952,1.002-1.359,2.32-1.242,3.6c-1.077-0.7-2.436-0.952-3.768-0.575
			c-2.457,0.693-3.879,3.247-3.187,5.7c0.377,1.334,1.302,2.356,2.459,2.908c-1.152,0.568-2.064,1.606-2.421,2.945
			C473.013,405.957,474.476,408.485,476.939,409.145z"/>
		<circle fill="#F7941E" cx="485.216" cy="400.768" r="4.104"/>
	</g>
	<g>
		<path fill="#8DC63F" d="M541.011,531.324c0,0,0.047-10.106,6.559-10.162c0,0,1.682,4.678-1.771,7.874c0,0,5.455-0.342,7.393,5.346
			C553.188,534.382,545.985,537.546,541.011,531.324"/>
		<path fill="#CD3D57" d="M537.993,522.75c-9.777,4.107-14.561,14.053-13.6,16.244c0.895,2.036,10.014,4.942,20.645,0.648
			C549.479,537.846,541.007,521.484,537.993,522.75z"/>
	</g>
	<path fill="#F7941E" d="M455.301,525.48c0,0-1.486,11.03,8.237,15.919c9.724,4.893,18.582-1.818,18.582-1.818L455.301,525.48z"/>
	<g>
		<path fill="#8DC63F" d="M534.022,408.054c0,0,0.045-10.106,6.559-10.165c0,0,1.678,4.679-1.773,7.875c0,0,5.453-0.339,7.391,5.346
			C546.198,411.109,538.995,414.272,534.022,408.054"/>
		<path fill="#CD3D57" d="M531.003,399.477c-9.777,4.107-14.561,14.056-13.599,16.246c0.894,2.035,10.013,4.94,20.644,0.646
			C542.489,414.574,534.015,398.212,531.003,399.477z"/>
	</g>
	<path fill="#F7941E" d="M448.312,402.211c0,0-1.486,11.029,8.237,15.922c9.724,4.889,18.582-1.825,18.582-1.825L448.312,402.211z"
		/>
	<path fill="#8DC63F" d="M497.794,501.752c0,0-11.029-1.485-15.919,8.237c-4.89,9.726,1.823,18.582,1.823,18.582L497.794,501.752z"
		/>
	<g>
		<path fill="#FFDE17" d="M522.571,503.939c-1.336-0.357-2.689-0.085-3.756,0.625c0.1-1.279-0.326-2.596-1.294-3.584
			c-1.78-1.828-4.704-1.865-6.529-0.082c-0.99,0.962-1.449,2.266-1.383,3.547c-1.048-0.742-2.397-1.05-3.745-0.726
			c-2.478,0.597-4.005,3.091-3.408,5.569c0.324,1.344,1.207,2.406,2.341,3.004c-1.172,0.521-2.126,1.525-2.536,2.846
			c-0.756,2.436,0.606,5.023,3.043,5.779c1.657,0.514,3.382,0.046,4.554-1.07c-0.402,1.572,0.035,3.309,1.297,4.502
			c1.852,1.754,4.775,1.672,6.528-0.182c0.949-1.002,1.357-2.32,1.238-3.6c1.078,0.702,2.438,0.954,3.77,0.575
			c2.457-0.695,3.881-3.247,3.186-5.699c-0.377-1.333-1.301-2.355-2.459-2.908c1.154-0.567,2.066-1.607,2.424-2.944
			C526.497,507.129,525.034,504.601,522.571,503.939z"/>
		<circle fill="#F7941E" cx="514.297" cy="512.318" r="4.104"/>
	</g>
	<g>
		<path fill="#8DC63F" d="M465.49,505.032c0,0-0.045,10.106-6.557,10.167c0,0-1.682-4.681,1.77-7.879c0,0-5.453,0.345-7.39-5.346
			C453.312,501.975,460.514,498.813,465.49,505.032"/>
		<path fill="#CD3D57" d="M468.507,513.607c9.778-4.106,14.562-14.054,13.598-16.244c-0.894-2.035-10.014-4.941-20.643-0.646
			C457.02,498.512,465.493,514.871,468.507,513.607z"/>
	</g>
	<path fill="#F7941E" d="M551.202,510.875c0,0,1.486-11.029-8.24-15.92c-9.721-4.889-18.58,1.823-18.58,1.823L551.202,510.875z"/>
	<g>
		<path fill="#8DC63F" d="M442.06,511.401c0,0,10.105,0.047,10.164,6.559c0,0-4.68,1.682-7.876-1.771c0,0,0.341,5.453-5.347,7.393
			C439.001,523.577,435.839,516.375,442.06,511.401"/>
		<path fill="#CD3D57" d="M450.635,508.384c-4.107-9.776-14.055-14.56-16.246-13.599c-2.036,0.896-4.942,10.014-0.646,20.644
			C435.535,519.873,451.898,511.396,450.635,508.384z"/>
	</g>
	<path fill="#8DC63F" d="M447.816,396.731c0,0-10.98-1.483-15.848,8.198c-4.869,9.682,1.814,18.501,1.814,18.501L447.816,396.731z"
		/>
	<g>
		<path fill="#FFDE17" d="M509.179,364.112c-1.331-0.356-2.68-0.087-3.742,0.622c0.102-1.276-0.322-2.585-1.285-3.571
			c-1.773-1.817-4.685-1.856-6.501-0.081c-0.986,0.961-1.443,2.256-1.377,3.53c-1.045-0.736-2.388-1.043-3.726-0.722
			c-2.471,0.597-3.99,3.079-3.396,5.547c0.322,1.339,1.202,2.396,2.33,2.988c-1.166,0.521-2.116,1.521-2.524,2.837
			c-0.752,2.424,0.604,5.003,3.03,5.751c1.65,0.512,3.367,0.048,4.532-1.063c-0.398,1.563,0.036,3.295,1.293,4.482
			c1.844,1.745,4.752,1.666,6.499-0.181c0.947-0.998,1.351-2.311,1.233-3.583c1.073,0.697,2.427,0.949,3.754,0.573
			c2.443-0.693,3.864-3.234,3.171-5.676c-0.375-1.327-1.296-2.346-2.446-2.896c1.146-0.565,2.053-1.6,2.411-2.933
			C513.087,367.284,511.631,364.769,509.179,364.112z"/>
		<circle fill="#F7941E" cx="500.939" cy="372.452" r="4.087"/>
	</g>
	<g>
		<path fill="#8DC63F" d="M461.834,383.547c0,0-0.046,10.062-6.529,10.12c0,0-1.674-4.66,1.764-7.843c0,0-5.43,0.343-7.359-5.321
			C449.711,380.503,456.882,377.35,461.834,383.547"/>
		<path fill="#CD3D57" d="M464.84,392.085c9.733-4.091,14.498-13.995,13.54-16.178c-0.89-2.026-9.971-4.917-20.556-0.642
			C453.404,377.052,461.84,393.342,464.84,392.085z"/>
	</g>
	<path fill="#F7941E" d="M547.173,389.362c0,0,1.479-10.981-8.205-15.849c-9.678-4.868-18.499,1.816-18.499,1.816L547.173,389.362z"
		/>
	<g>
		<path fill="#3C2415" d="M452.493,451.558c-0.356,1.54-0.914,2.906-1.677,4.091c-0.761,1.189-1.681,2.187-2.758,2.997
			c-1.077,0.813-2.294,1.427-3.65,1.843c-1.355,0.411-2.804,0.622-4.348,0.622c-2.077,0-3.971-0.336-5.683-1.008
			c-1.709-0.673-3.178-1.648-4.406-2.922c-1.225-1.276-2.176-2.836-2.847-4.674c-0.673-1.838-1.01-3.926-1.01-6.263
			c0-2.295,0.328-4.355,0.98-6.184c0.654-1.831,1.573-3.388,2.76-4.676c1.187-1.284,2.602-2.268,4.243-2.952
			c1.644-0.683,3.461-1.023,5.46-1.023c2.057,0,3.911,0.338,5.564,1.009c1.651,0.672,3.061,1.642,4.229,2.905
			c1.165,1.268,2.065,2.819,2.699,4.66c0.632,1.84,0.949,3.928,0.949,6.26v2.226h-19.523c0.355,2.234,1.123,3.913,2.301,5.03
			c1.177,1.114,2.604,1.675,4.287,1.675c0.535,0,1.073-0.08,1.617-0.238c0.545-0.156,1.049-0.39,1.513-0.697
			c0.464-0.307,0.871-0.684,1.217-1.125c0.347-0.447,0.599-0.965,0.757-1.559h7.328V451.558z M445.46,442.566
			c-0.454-1.74-1.196-3.046-2.224-3.917c-1.029-0.87-2.255-1.306-3.68-1.306c-1.404,0-2.631,0.436-3.68,1.306
			c-1.05,0.871-1.801,2.177-2.254,3.917H445.46z"/>
		<path fill="#3C2415" d="M476.022,458.943c-0.947,0.693-1.944,1.225-2.981,1.602c-1.038,0.375-2.14,0.565-3.308,0.565
			c-1.939,0-3.656-0.354-5.148-1.056s-2.745-1.695-3.753-2.982c-1.008-1.284-1.776-2.834-2.302-4.641
			c-0.522-1.812-0.785-3.814-0.785-6.009c0-2.334,0.311-4.426,0.935-6.275c0.623-1.85,1.483-3.424,2.58-4.72
			c1.1-1.295,2.395-2.289,3.888-2.981c1.493-0.693,3.1-1.038,4.82-1.038c1.128,0,2.196,0.13,3.205,0.386
			c1.009,0.257,1.958,0.632,2.848,1.128v-11.663h6.945v39.168h-6.945v-1.483H476.022z M476.022,439.867
			c-1.799-1.682-3.716-2.522-5.756-2.522c-1.621,0-2.918,0.75-3.885,2.255c-0.97,1.504-1.456,3.779-1.456,6.823
			c0,2.889,0.456,5.062,1.365,6.512c0.911,1.456,2.176,2.183,3.799,2.183c2.078,0,4.055-1.235,5.933-3.712V439.867z"/>
		<path fill="#3C2415" d="M497.921,428.56h-6.943v-7.299h6.943V428.56z M497.921,460.43h-6.943v-28.338h6.943V460.43z"/>
		<path fill="#3C2415" d="M512.903,433.517c1.86-1.404,3.957-2.107,6.291-2.107c1.9,0,3.592,0.351,5.074,1.053
			c1.484,0.703,2.734,1.694,3.752,2.968c1.02,1.276,1.791,2.814,2.316,4.614c0.523,1.802,0.787,3.797,0.787,5.992
			c0,2.276-0.312,4.344-0.936,6.202c-0.625,1.86-1.486,3.447-2.582,4.764c-1.098,1.316-2.387,2.328-3.871,3.041
			c-1.487,0.714-3.098,1.067-4.84,1.067c-1.188,0-2.26-0.124-3.221-0.372c-0.957-0.248-1.882-0.636-2.773-1.169v0.86h-6.972v-39.169
			h6.972v12.256H512.903z M512.903,452.654c0.872,0.83,1.781,1.459,2.73,1.883c0.949,0.428,1.949,0.639,2.998,0.639
			c1.621,0,2.912-0.77,3.874-2.314c0.956-1.543,1.437-3.817,1.437-6.825c0-2.889-0.455-5.058-1.365-6.515
			c-0.908-1.449-2.165-2.178-3.767-2.178c-2.037,0-4.006,1.247-5.905,3.738v11.572H512.903z"/>
		<path fill="#3C2415" d="M544.444,460.43h-6.941v-39.169h6.941V460.43z"/>
		<path fill="#3C2415" d="M577.206,451.558c-0.357,1.54-0.918,2.906-1.678,4.091c-0.76,1.189-1.684,2.187-2.76,2.997
			c-1.078,0.813-2.295,1.427-3.65,1.843c-1.355,0.411-2.805,0.622-4.346,0.622c-2.078,0-3.973-0.336-5.686-1.008
			c-1.709-0.673-3.178-1.648-4.404-2.922c-1.227-1.276-2.176-2.836-2.848-4.674c-0.674-1.838-1.008-3.926-1.008-6.263
			c0-2.295,0.326-4.355,0.979-6.184c0.652-1.831,1.572-3.388,2.76-4.676c1.186-1.284,2.602-2.268,4.242-2.952
			c1.643-0.683,3.461-1.023,5.459-1.023c2.059,0,3.912,0.338,5.566,1.009c1.648,0.672,3.057,1.642,4.227,2.905
			c1.168,1.268,2.066,2.819,2.699,4.66c0.631,1.84,0.949,3.928,0.949,6.26v2.226h-19.523c0.354,2.234,1.121,3.913,2.299,5.03
			c1.178,1.114,2.607,1.675,4.289,1.675c0.531,0,1.07-0.08,1.615-0.238c0.543-0.156,1.049-0.39,1.514-0.697
			c0.463-0.307,0.871-0.684,1.217-1.125c0.348-0.447,0.598-0.965,0.756-1.559h7.332V451.558z M570.171,442.566
			c-0.457-1.74-1.199-3.046-2.225-3.917c-1.029-0.87-2.254-1.306-3.68-1.306c-1.406,0-2.631,0.436-3.682,1.306
			c-1.047,0.871-1.799,2.177-2.254,3.917H570.171z"/>
		<path fill="#3C2415" d="M431.035,472.646c0.802,0,1.525,0.072,2.166,0.219c0.643,0.142,1.187,0.397,1.637,0.765
			c0.45,0.366,0.794,0.864,1.034,1.491c0.241,0.627,0.36,1.427,0.36,2.396v7.934h-3.062v-0.656
			c-0.507,0.307-1.056,0.541-1.644,0.707c-0.589,0.168-1.22,0.25-1.89,0.25c-0.629,0-1.215-0.096-1.756-0.284
			c-0.54-0.187-1.01-0.45-1.406-0.789c-0.397-0.343-0.709-0.745-0.938-1.22c-0.226-0.469-0.341-0.991-0.341-1.556
			c0-3.029,2.492-4.544,7.476-4.544h0.499c-0.01-0.342-0.037-0.638-0.085-0.896c-0.048-0.256-0.149-0.475-0.309-0.656
			c-0.156-0.177-0.383-0.313-0.678-0.403c-0.297-0.092-0.693-0.136-1.191-0.136c-0.622,0-1.112,0.092-1.473,0.287
			c-0.363,0.188-0.61,0.554-0.742,1.088h-3.154C425.901,473.979,427.734,472.646,431.035,472.646z M433.168,479.886h-0.903
			c-2.62,0-3.929,0.638-3.929,1.912c0,0.416,0.171,0.746,0.513,0.979c0.341,0.238,0.797,0.354,1.374,0.354
			c0.576,0,1.131-0.114,1.663-0.346c0.533-0.231,0.96-0.572,1.283-1.015L433.168,479.886L433.168,479.886z"/>
		<path fill="#3C2415" d="M446.782,476.009c-0.271-0.111-0.524-0.196-0.766-0.255c-0.241-0.054-0.569-0.082-0.99-0.082
			c-0.42,0-0.802,0.109-1.151,0.322c-0.35,0.21-0.693,0.542-1.033,0.985v8.472h-3.077V472.95h3.077v0.719
			c0.76-0.678,1.593-1.021,2.5-1.021c0.166,0,0.363,0.014,0.596,0.038c0.231,0.027,0.512,0.076,0.843,0.146v3.177H446.782z"/>
		<path fill="#3C2415" d="M455.762,476.009c-0.271-0.111-0.526-0.196-0.768-0.255c-0.238-0.054-0.569-0.082-0.987-0.082
			c-0.419,0-0.802,0.109-1.153,0.322c-0.349,0.21-0.692,0.542-1.034,0.985v8.472h-3.074V472.95h3.075v0.719
			c0.76-0.678,1.594-1.021,2.502-1.021c0.166,0,0.362,0.014,0.594,0.038c0.232,0.027,0.514,0.076,0.845,0.146V476.009
			L455.762,476.009z"/>
		<path fill="#3C2415" d="M462.842,472.646c0.804,0,1.527,0.072,2.167,0.219c0.643,0.142,1.189,0.397,1.639,0.765
			c0.449,0.366,0.793,0.864,1.034,1.491c0.241,0.627,0.359,1.427,0.359,2.396v7.934h-3.062v-0.656
			c-0.508,0.307-1.054,0.541-1.645,0.707c-0.586,0.168-1.219,0.25-1.89,0.25c-0.628,0-1.214-0.096-1.755-0.284
			c-0.542-0.187-1.009-0.45-1.407-0.789c-0.398-0.343-0.708-0.745-0.937-1.22c-0.228-0.469-0.341-0.991-0.341-1.556
			c0-3.029,2.491-4.544,7.474-4.544h0.498c-0.009-0.342-0.036-0.638-0.084-0.896c-0.049-0.256-0.152-0.475-0.308-0.656
			c-0.157-0.177-0.385-0.313-0.68-0.403c-0.298-0.092-0.694-0.136-1.192-0.136c-0.619,0-1.11,0.092-1.472,0.287
			c-0.363,0.188-0.61,0.554-0.738,1.088h-3.156C457.712,473.979,459.544,472.646,462.842,472.646z M464.978,479.886h-0.902
			c-2.619,0-3.928,0.638-3.928,1.912c0,0.416,0.17,0.746,0.511,0.979c0.34,0.238,0.798,0.354,1.375,0.354
			c0.575,0,1.13-0.114,1.661-0.346c0.533-0.231,0.959-0.572,1.283-1.015V479.886z"/>
		<path fill="#3C2415" d="M474.652,473.682c0.89-0.688,1.858-1.035,2.905-1.035c2.958,0,4.437,1.593,4.437,4.777v8.027h-3.114
			v-7.937c0-0.774-0.126-1.331-0.375-1.661c-0.247-0.331-0.661-0.497-1.236-0.497c-0.838,0-1.71,0.507-2.618,1.519v8.576h-3.078
			V472.95h3.078v0.731H474.652z"/>
		<path fill="#3C2415" d="M488.422,486.614c0.185,0.866,0.825,1.298,1.923,1.298c0.743,0,1.326-0.25,1.749-0.748
			c0.423-0.496,0.674-1.273,0.752-2.328c-0.418,0.305-0.854,0.533-1.302,0.685c-0.451,0.151-0.933,0.231-1.446,0.231
			c-0.855,0-1.612-0.157-2.272-0.465c-0.659-0.308-1.21-0.747-1.655-1.316c-0.446-0.566-0.784-1.251-1.014-2.046
			c-0.231-0.802-0.347-1.686-0.347-2.653c0-1.031,0.137-1.951,0.411-2.77c0.275-0.815,0.655-1.508,1.139-2.081
			c0.485-0.57,1.055-1.009,1.715-1.315c0.659-0.305,1.367-0.459,2.126-0.459c0.498,0,0.969,0.057,1.415,0.17
			s0.863,0.279,1.257,0.496v-0.362h3.063v11.517c0,4.039-1.841,6.062-5.526,6.062c-0.749,0-1.428-0.091-2.034-0.269
			c-0.606-0.179-1.135-0.438-1.585-0.772c-0.448-0.339-0.807-0.749-1.079-1.23c-0.269-0.487-0.437-1.032-0.498-1.644H488.422
			L488.422,486.614z M492.873,476.38c-0.794-0.743-1.641-1.112-2.54-1.112c-0.716,0-1.286,0.332-1.715,0.995
			c-0.427,0.664-0.64,1.667-0.64,3.009c0,1.275,0.2,2.237,0.602,2.886c0.402,0.652,0.96,0.975,1.676,0.975
			c0.916,0,1.788-0.544,2.618-1.635v-5.117H492.873z"/>
		<path fill="#3C2415" d="M510.388,481.535c-0.158,0.679-0.404,1.283-0.738,1.808c-0.336,0.522-0.741,0.964-1.218,1.321
			c-0.477,0.359-1.012,0.629-1.61,0.812c-0.598,0.185-1.237,0.275-1.918,0.275c-0.917,0-1.751-0.15-2.507-0.448
			c-0.755-0.295-1.403-0.725-1.944-1.286c-0.541-0.564-0.96-1.252-1.257-2.062c-0.297-0.812-0.444-1.734-0.444-2.764
			c0-1.012,0.143-1.922,0.432-2.731c0.287-0.803,0.693-1.49,1.217-2.061c0.524-0.567,1.148-1.002,1.871-1.303
			c0.726-0.3,1.529-0.451,2.409-0.451c0.908,0,1.727,0.148,2.455,0.444c0.729,0.298,1.351,0.725,1.867,1.282
			c0.515,0.56,0.913,1.245,1.192,2.057c0.279,0.811,0.419,1.73,0.419,2.762v0.98h-8.614c0.156,0.989,0.495,1.728,1.014,2.22
			c0.518,0.494,1.149,0.738,1.892,0.738c0.235,0,0.473-0.033,0.713-0.104c0.241-0.07,0.461-0.172,0.667-0.307
			c0.205-0.135,0.385-0.302,0.538-0.499c0.152-0.195,0.265-0.426,0.334-0.686H510.388z M507.286,477.57
			c-0.199-0.77-0.527-1.344-0.982-1.729c-0.454-0.385-0.996-0.573-1.624-0.573c-0.618,0-1.159,0.188-1.622,0.573
			c-0.461,0.386-0.793,0.96-0.995,1.729H507.286z"/>
		<path fill="#3C2415" d="M530.036,485.451h-3.115v-7.937c0-0.784-0.096-1.34-0.287-1.667c-0.193-0.327-0.516-0.491-0.971-0.491
			c-0.766,0-1.574,0.503-2.42,1.506v8.585h-3.062v-7.933c0-0.787-0.098-1.343-0.293-1.67c-0.199-0.327-0.523-0.491-0.977-0.491
			c-0.759,0-1.562,0.503-2.41,1.506v8.588h-3.076v-12.501h3.076v0.72c0.428-0.356,0.865-0.616,1.315-0.777
			c0.45-0.162,0.925-0.245,1.421-0.245c0.812,0,1.494,0.14,2.049,0.419s0.992,0.699,1.316,1.256c0.35-0.365,0.67-0.658,0.961-0.877
			c0.293-0.22,0.57-0.387,0.832-0.503c0.262-0.12,0.52-0.197,0.773-0.237c0.252-0.039,0.516-0.058,0.785-0.058
			c2.725,0,4.084,1.593,4.084,4.777v8.03H530.036z"/>
		<path fill="#3C2415" d="M544.487,481.535c-0.156,0.679-0.404,1.283-0.738,1.808c-0.336,0.522-0.742,0.964-1.219,1.321
			c-0.475,0.359-1.012,0.629-1.607,0.812c-0.598,0.185-1.236,0.275-1.918,0.275c-0.916,0-1.754-0.15-2.508-0.448
			c-0.756-0.295-1.404-0.725-1.945-1.286c-0.541-0.564-0.959-1.252-1.256-2.062c-0.297-0.812-0.445-1.734-0.445-2.764
			c0-1.012,0.143-1.922,0.432-2.731c0.289-0.803,0.691-1.49,1.217-2.061c0.527-0.567,1.15-1.002,1.871-1.303
			c0.727-0.3,1.529-0.451,2.41-0.451c0.906,0,1.725,0.148,2.455,0.444c0.729,0.298,1.35,0.725,1.867,1.282
			c0.516,0.56,0.91,1.245,1.189,2.057c0.279,0.811,0.418,1.73,0.418,2.762v0.98h-8.613c0.158,0.989,0.496,1.728,1.016,2.22
			c0.518,0.494,1.15,0.738,1.893,0.738c0.234,0,0.471-0.033,0.711-0.104c0.242-0.07,0.465-0.172,0.67-0.307
			c0.203-0.135,0.383-0.302,0.537-0.499c0.15-0.195,0.262-0.426,0.332-0.686H544.487z M541.386,477.57
			c-0.199-0.77-0.525-1.344-0.98-1.729c-0.455-0.385-0.996-0.573-1.623-0.573c-0.621,0-1.162,0.188-1.623,0.573
			c-0.461,0.386-0.795,0.96-0.996,1.729H541.386z"/>
		<path fill="#3C2415" d="M550.604,473.682c0.889-0.688,1.855-1.035,2.906-1.035c2.955,0,4.436,1.593,4.436,4.777v8.027h-3.117
			v-7.937c0-0.774-0.125-1.331-0.371-1.661c-0.25-0.331-0.664-0.497-1.238-0.497c-0.84,0-1.709,0.507-2.617,1.519v8.576h-3.078
			V472.95h3.078v0.731H550.604z"/>
		<path fill="#3C2415" d="M566.767,485.477c-0.391,0.096-0.75,0.164-1.076,0.211c-0.33,0.041-0.631,0.064-0.912,0.064
			c-0.725,0-1.303-0.085-1.734-0.255c-0.432-0.171-0.762-0.424-0.988-0.76c-0.229-0.336-0.373-0.758-0.438-1.265
			c-0.066-0.507-0.098-1.096-0.098-1.768v-6.164h-1.416v-2.591h1.416v-3.114h3.115v3.114h1.859v2.591h-1.859v6.257
			c0,0.29,0.012,0.52,0.037,0.693c0.027,0.177,0.062,0.311,0.111,0.406c0.049,0.097,0.109,0.161,0.184,0.19
			c0.074,0.028,0.16,0.044,0.254,0.044c0.191,0,0.42-0.016,0.682-0.044c0.262-0.029,0.551-0.072,0.863-0.123V485.477
			L566.767,485.477z"/>
		<path fill="#3C2415" d="M575.147,476.456c-0.211-0.794-0.842-1.19-1.898-1.19c-0.271,0-0.518,0.023-0.744,0.064
			c-0.229,0.044-0.426,0.111-0.598,0.196c-0.172,0.087-0.301,0.196-0.396,0.327c-0.098,0.132-0.145,0.28-0.145,0.446
			c0,0.132,0.025,0.241,0.07,0.334c0.049,0.088,0.168,0.182,0.355,0.267c0.184,0.088,0.461,0.185,0.828,0.283
			c0.367,0.1,0.863,0.229,1.492,0.387c0.77,0.183,1.436,0.374,1.996,0.576c0.562,0.198,1.033,0.45,1.408,0.745
			c0.373,0.298,0.652,0.657,0.838,1.085c0.186,0.427,0.275,0.959,0.275,1.6c0,0.594-0.123,1.142-0.365,1.648
			c-0.246,0.507-0.59,0.948-1.035,1.322c-0.445,0.377-0.984,0.673-1.617,0.885c-0.631,0.213-1.344,0.321-2.129,0.321
			c-3.281,0-5.104-1.414-5.471-4.244h3.143c0.164,1.085,0.934,1.623,2.301,1.623c0.682,0,1.199-0.129,1.553-0.393
			c0.354-0.26,0.531-0.578,0.531-0.955c0-0.173-0.037-0.319-0.111-0.437c-0.078-0.12-0.221-0.227-0.439-0.327
			c-0.221-0.103-0.52-0.204-0.904-0.307c-0.383-0.106-0.881-0.237-1.49-0.396c-0.752-0.184-1.396-0.368-1.938-0.557
			c-0.541-0.186-0.986-0.418-1.334-0.692s-0.611-0.62-0.779-1.028c-0.172-0.41-0.256-0.93-0.256-1.556
			c0-0.541,0.115-1.045,0.342-1.513s0.549-0.873,0.967-1.219c0.418-0.345,0.928-0.615,1.518-0.81
			c0.596-0.198,1.258-0.298,1.99-0.298c3.186,0,4.895,1.271,5.121,3.81H575.147L575.147,476.456z"/>
	</g>
</g>
<g>
	<g>
		<path fill="#FFDE17" d="M111.635,485.116c-4.171-1.112-8.392-0.271-11.719,1.951c0.315-3.995-1.017-8.101-4.033-11.192
			c-5.557-5.698-14.677-5.812-20.375-0.256c-3.089,3.014-4.524,7.075-4.315,11.07c-3.274-2.314-7.482-3.27-11.686-2.26
			c-7.738,1.863-12.497,9.643-10.637,17.379c1.01,4.195,3.765,7.505,7.304,9.369c-3.662,1.63-6.635,4.758-7.917,8.884
			c-2.354,7.602,1.894,15.673,9.496,18.029c5.168,1.604,10.553,0.146,14.208-3.338c-1.253,4.903,0.112,10.319,4.049,14.048
			c5.778,5.471,14.895,5.22,20.367-0.562c2.968-3.13,4.237-7.246,3.872-11.229c3.36,2.183,7.603,2.971,11.762,1.793
			c7.657-2.168,12.104-10.133,9.939-17.788c-1.178-4.152-4.062-7.351-7.669-9.07c3.593-1.772,6.437-5.015,7.554-9.19
			C123.89,495.065,119.325,487.17,111.635,485.116z"/>
		<path fill="#F7941E" d="M78.683,521.892c-5.876-3.938-7.445-11.895-3.505-17.771c3.94-5.872,11.897-7.443,17.774-3.503
			c5.871,3.937,7.441,11.895,3.5,17.77C92.513,524.262,84.558,525.831,78.683,521.892z"/>
	</g>
	<rect x="79.526" y="499.103" fill="none" width="83.106" height="23.02"/>
	<g enable-background="new    ">
		<path fill="#3C2415" d="M92.236,511.91h-8.838c0.28,2.572,1.732,3.667,3.362,3.667c1.121,0,2.012-0.407,2.904-1.069l1.554,1.681
			c-1.172,1.122-2.573,1.758-4.611,1.758c-3.132,0-5.782-2.521-5.782-6.954c0-4.533,2.395-6.979,5.859-6.979
			c3.795,0,5.629,3.082,5.629,6.698C92.312,511.196,92.261,511.63,92.236,511.91z M86.505,506.382c-1.757,0-2.828,1.224-3.057,3.362
			h6.215C89.536,507.91,88.67,506.382,86.505,506.382z"/>
		<path fill="#3C2415" d="M103.618,517.666v-1.273c-0.968,0.892-2.089,1.554-3.489,1.554c-2.878,0-5.146-2.089-5.146-7.183
			c0-4.585,2.496-6.75,5.272-6.75c1.351,0,2.624,0.713,3.362,1.527v-5.094l2.598-1.35v18.568H103.618z M103.644,508.19
			c-0.586-0.79-1.809-1.758-3.133-1.758c-1.885,0-2.904,1.427-2.904,4.254c0,3.363,1.07,4.84,3.006,4.84
			c1.248,0,2.343-0.841,3.031-1.706V508.19z"/>
		<path fill="#3C2415" d="M111.536,502.561c-0.942,0-1.707-0.763-1.707-1.681c0-0.942,0.764-1.706,1.707-1.706
			c0.917,0,1.681,0.764,1.681,1.706C113.217,501.798,112.454,502.561,111.536,502.561z M110.212,517.666v-13.372h2.624v13.372
			H110.212z"/>
		<path fill="#3C2415" d="M122.793,517.946c-1.35,0-2.624-0.714-3.362-1.528v1.248h-2.598v-17.219l2.598-1.35v6.469
			c0.968-0.891,2.088-1.553,3.49-1.553c2.878,0,5.145,2.089,5.145,7.183C128.066,515.781,125.57,517.946,122.793,517.946z
			 M122.437,506.433c-1.248,0-2.343,0.841-3.031,1.707v5.629c0.585,0.79,1.809,1.758,3.133,1.758c1.885,0,2.904-1.426,2.904-4.254
			C125.442,507.91,124.373,506.433,122.437,506.433z"/>
		<path fill="#3C2415" d="M131.475,517.666v-17.193l2.624-1.375v18.568H131.475z"/>
		<path fill="#3C2415" d="M148.871,511.91h-8.838c0.28,2.572,1.732,3.667,3.362,3.667c1.121,0,2.012-0.407,2.904-1.069l1.554,1.681
			c-1.171,1.122-2.573,1.758-4.61,1.758c-3.133,0-5.782-2.521-5.782-6.954c0-4.533,2.395-6.979,5.859-6.979
			c3.795,0,5.629,3.082,5.629,6.698C148.947,511.196,148.896,511.63,148.871,511.91z M143.14,506.382
			c-1.757,0-2.827,1.224-3.056,3.362h6.215C146.171,507.91,145.305,506.382,143.14,506.382z"/>
	</g>
	<rect x="151.538" y="499.525" fill="none" width="160.636" height="23.021"/>
	<g enable-background="new    ">
		<path fill="#F7941E" d="M162.261,518.09v-2.267c-1.069,1.452-2.725,2.547-4.763,2.547c-2.267,0-4.56-0.968-4.56-3.999
			c0-2.929,2.242-4.355,4.968-4.355c1.808,0,3.311,0.535,4.355,1.12v-2.215c0-2.98-1.223-3.974-3.897-3.974
			c-1.604,0-2.802,0.458-3.974,1.044l-0.204-0.483c1.171-0.586,2.497-1.07,4.203-1.07c2.929,0,4.432,1.121,4.432,4.407v9.245
			H162.261z M162.261,511.646c-1.12-0.637-2.547-1.146-4.381-1.146c-2.471,0-4.381,1.273-4.381,3.846
			c0,2.675,1.987,3.541,4.075,3.541c1.809,0,3.693-1.096,4.687-2.803V511.646z"/>
		<path fill="#F7941E" d="M173.797,505.354c-0.51-0.203-1.044-0.381-2.088-0.381c-1.63,0-3.948,1.146-3.948,4.916v8.201H167.2
			v-13.372h0.561v2.929c0.433-2.113,2.267-3.209,4.05-3.209c1.019,0,1.758,0.178,2.216,0.408L173.797,505.354z"/>
		<path fill="#F7941E" d="M183.652,505.354c-0.51-0.203-1.044-0.381-2.088-0.381c-1.63,0-3.948,1.146-3.948,4.916v8.201h-0.561
			v-13.372h0.561v2.929c0.433-2.113,2.267-3.209,4.05-3.209c1.019,0,1.757,0.178,2.216,0.408L183.652,505.354z"/>
		<path fill="#F7941E" d="M194.5,518.09v-2.267c-1.069,1.452-2.725,2.547-4.763,2.547c-2.267,0-4.56-0.968-4.56-3.999
			c0-2.929,2.242-4.355,4.967-4.355c1.809,0,3.312,0.535,4.355,1.12v-2.215c0-2.98-1.223-3.974-3.897-3.974
			c-1.604,0-2.802,0.458-3.974,1.044l-0.204-0.483c1.172-0.586,2.497-1.07,4.203-1.07c2.929,0,4.432,1.121,4.432,4.407v9.245H194.5z
			 M194.5,511.646c-1.12-0.637-2.547-1.146-4.381-1.146c-2.471,0-4.381,1.273-4.381,3.846c0,2.675,1.987,3.541,4.075,3.541
			c1.809,0,3.693-1.096,4.687-2.803V511.646z"/>
		<path fill="#F7941E" d="M208.864,518.09v-8.15c0-3.54-1.681-5.018-4.331-5.018c-2.063,0-4.534,1.12-4.534,4.992v8.176h-0.561
			v-13.372H200v2.903c0.509-2.113,2.369-3.184,4.636-3.184c2.853,0,4.789,1.554,4.789,5.4v8.252H208.864z"/>
		<path fill="#F7941E" d="M216.527,523.031l-0.229-0.535c4.738-0.051,6.444-1.477,6.444-5.45v-1.273
			c-1.095,1.478-2.648,2.598-4.635,2.598c-2.98,0-5.043-2.037-5.043-6.902c0-4.891,2.089-7.03,5.094-7.03
			c1.911,0,3.49,1.07,4.584,2.547v-2.267h0.561v12.303C223.303,521.249,221.417,522.98,216.527,523.031z M222.742,507.773
			c-1.019-1.63-2.7-2.852-4.534-2.852c-2.853,0-4.585,2.012-4.585,6.546c0,4.457,1.783,6.419,4.585,6.419
			c1.809,0,3.464-1.172,4.534-2.828V507.773z"/>
		<path fill="#F7941E" d="M237.538,511.493h-9.959c0.051,4.101,2.089,6.394,4.764,6.394c1.884,0,3.005-0.434,4.228-1.146
			l0.229,0.408c-1.299,0.764-2.522,1.222-4.509,1.222c-2.751,0-5.247-2.317-5.247-6.979c0-4.433,2.369-6.954,5.298-6.954
			c3.031,0,5.222,2.445,5.222,6.775C237.563,511.315,237.563,511.392,237.538,511.493z M232.342,504.922
			c-2.573,0-4.662,2.139-4.764,6.112h9.45C236.952,507.061,235.042,504.922,232.342,504.922z"/>
		<path fill="#F7941E" d="M259.797,518.09v-8.15c0-3.592-1.707-5.018-4.203-5.018c-1.987,0-4.407,1.095-4.407,4.992v8.176h-0.56
			v-8.176c0-3.617-1.732-4.992-4.203-4.992c-1.987,0-4.407,1.095-4.407,4.992v8.176h-0.56v-13.372h0.56v2.903
			c0.484-2.113,2.369-3.184,4.483-3.184c2.522,0,4.126,1.478,4.458,3.77c0.51-2.598,2.445-3.77,4.712-3.77
			c2.726,0,4.687,1.554,4.687,5.4v8.252H259.797z"/>
		<path fill="#F7941E" d="M274.106,511.493h-9.959c0.051,4.101,2.089,6.394,4.763,6.394c1.885,0,3.006-0.434,4.229-1.146
			l0.229,0.408c-1.3,0.764-2.522,1.222-4.509,1.222c-2.751,0-5.247-2.317-5.247-6.979c0-4.433,2.369-6.954,5.298-6.954
			c3.031,0,5.222,2.445,5.222,6.775C274.132,511.315,274.132,511.392,274.106,511.493z M268.91,504.922
			c-2.573,0-4.661,2.139-4.763,6.112h9.45C273.52,507.061,271.61,504.922,268.91,504.922z"/>
		<path fill="#F7941E" d="M287.45,518.09v-8.15c0-3.54-1.681-5.018-4.33-5.018c-2.063,0-4.534,1.12-4.534,4.992v8.176h-0.561
			v-13.372h0.561v2.903c0.509-2.113,2.369-3.184,4.636-3.184c2.853,0,4.789,1.554,4.789,5.4v8.252H287.45z"/>
		<path fill="#F7941E" d="M296.998,517.811c-0.636,0.33-1.35,0.483-2.292,0.483c-1.351,0-2.038-0.815-2.038-2.293v-10.825h-1.783
			v-0.458h1.783v-4.891l0.561-0.306v5.196h3.668v0.458h-3.668v10.774c0,1.173,0.535,1.835,1.656,1.835
			c0.84,0,1.528-0.205,2.165-0.51L296.998,517.811z"/>
		<path fill="#F7941E" d="M303.594,518.37c-1.732,0-3.031-0.585-4.101-1.426l0.28-0.408c1.044,0.79,2.241,1.351,3.821,1.351
			c2.267,0,3.617-1.07,3.617-2.93c0-1.604-0.739-2.395-3.541-3.565c-2.828-1.173-3.77-1.937-3.77-3.897
			c0-1.707,1.35-3.057,3.694-3.057c1.859,0,3.082,0.561,3.897,1.223l-0.306,0.407c-0.815-0.662-1.961-1.146-3.617-1.146
			c-1.961,0-3.133,1.171-3.133,2.547c0,1.655,0.79,2.293,3.49,3.438c2.904,1.248,3.821,2.013,3.821,4.05
			C307.746,517.148,306.09,518.37,303.594,518.37z"/>
	</g>
</g>
<g>
	<path fill="#8DC63F" d="M265.774,38.497c0,0-9.168,11.649-3.438,22.039c5.728,10.388,18.877,7.181,18.877,7.181L265.774,38.497z"/>
	<path fill="#D1D3D4" d="M280.042,32.787l1.682,17.198c0,0,9.75,1.864,17.06-1.669l-1.684-17.198
		C297.1,31.119,288.981,27.3,280.042,32.787z"/>
	<path fill="#3C2415" d="M280.042,32.787l0.802,7.599c0,0,17.241,1.5,16.938-2.298c-0.304-3.794-0.681-6.97-0.681-6.97
		S288.981,27.3,280.042,32.787z"/>
	<g>
		<path fill="#FFDE17" d="M319.016,73.537c-0.785-1.724-2.25-2.919-3.929-3.428c1.441-1.008,2.462-2.602,2.67-4.489
			c0.382-3.474-2.123-6.599-5.595-6.98c-1.883-0.206-3.661,0.438-4.957,1.623c-0.126-1.755-0.977-3.449-2.493-4.591
			c-2.788-2.105-6.754-1.55-8.857,1.237c-1.143,1.513-1.498,3.371-1.141,5.091c-1.573-0.787-3.463-0.923-5.221-0.207
			c-3.234,1.321-4.787,5.013-3.465,8.248c0.897,2.2,2.891,3.619,5.094,3.888c-2.014,0.942-3.471,2.915-3.636,5.289
			c-0.244,3.487,2.383,6.508,5.868,6.752c1.892,0.132,3.639-0.585,4.889-1.82c0.196,1.749,1.113,3.406,2.672,4.488
			c2.87,1.994,6.811,1.282,8.803-1.589c1.08-1.556,1.359-3.424,0.938-5.129c1.603,0.725,3.495,0.785,5.223,0
			C319.06,80.469,320.462,76.718,319.016,73.537z"/>
		<circle fill="#F7941E" cx="302.952" cy="72.071" r="5.624"/>
		<path fill="#3C2415" d="M319.016,73.537c-0.785-1.724-2.25-2.919-3.929-3.428c1.441-1.008,2.462-2.602,2.67-4.489
			c0.382-3.474-2.123-6.599-5.595-6.98c-1.883-0.206-3.661,0.438-4.957,1.623c-0.126-1.755-0.977-3.449-2.493-4.591
			c-2.788-2.105-6.754-1.55-8.857,1.237C294.712,58.421,320.462,76.718,319.016,73.537z"/>
	</g>
	<g>
		
			<ellipse transform="matrix(0.1864 -0.9825 0.9825 0.1864 220.0218 342.3263)" fill="#73608A" cx="316.709" cy="38.313" rx="4.327" ry="3.326"/>
		
			<ellipse transform="matrix(0.1862 -0.9825 0.9825 0.1862 229.6507 337.1202)" fill="#73608A" cx="318.334" cy="29.927" rx="4.326" ry="3.326"/>
		
			<ellipse transform="matrix(0.1863 -0.9825 0.9825 0.1863 210.4115 347.6416)" fill="#73608A" cx="315.092" cy="46.786" rx="4.326" ry="3.328"/>
	</g>
	<path fill="#F7941E" d="M312.318,99.527c0,0,14.122,5.749,23.939-5.473c9.817-11.222,3.947-25.27,3.947-25.27L312.318,99.527z"/>
	<path fill="#CD3D57" d="M269.034,103.176c0,0,29.198,8.596,64.602,3.048c0,0-5.352,34.629-11.314,38.542
		c-8.03,5.267-39.935,3.041-45.258-3.327C272.535,136.021,269.034,103.176,269.034,103.176z"/>
	<g>
		<path fill="#8DC63F" d="M331.326,58.989c0,0,6.355,7.074,1.854,11.228c0,0-4.128-2.198-3.743-6.608c0,0-3.584,3.682-8.528,0.943
			C320.908,64.553,323.928,57.796,331.326,58.989"/>
		<path fill="#CD3D57" d="M338.848,63.059c4.22-9.039,1.271-18.997-0.786-19.918c-1.909-0.852-10.103,2.886-14.798,12.595
			C321.303,59.792,337.548,65.844,338.848,63.059z"/>
		<path fill="#3C2415" d="M340.928,54.924c0.444-6.077-1.429-11.138-2.867-11.783c-1.286-0.573-5.419,0.935-9.417,4.943
			C326.978,49.757,340.737,57.538,340.928,54.924z"/>
	</g>
	<g>
		<path fill="#8DC63F" d="M276.506,88.663c0,0,10.224-3.863,12.801,2.693c0,0-4.075,3.507-8.639,1.255c0,0,2.451,5.377-2.543,9.532
			C278.125,102.143,272.145,96.094,276.506,88.663"/>
		<path fill="#CD3D57" d="M284,82.301c-7.929-8.29-19.827-9.277-21.668-7.458c-1.711,1.691-1.118,12.027,7.33,21.104
			C273.19,99.738,286.44,84.854,284,82.301z"/>
		<path fill="#3C2415" d="M276.148,76.681c-6.326-3.008-12.532-3.107-13.818-1.836c-1.151,1.14-1.259,6.199,1.373,12.151
			C264.8,89.478,278.871,77.975,276.148,76.681z"/>
	</g>
	<path fill="#3C2415" d="M265.774,38.497c0,0-9.168,11.649-3.438,22.039c5.728,10.388,9.331-10.885,9.331-10.885L265.774,38.497z"/>
	<path fill="#3C2415" d="M336.256,94.054c10.053-11.01,3.947-25.27,3.947-25.27l-13.046,14.383
		C327.16,83.167,331.567,99.191,336.256,94.054z"/>
</g>
<g>
	<path fill="#FFDE17" d="M464.524,237.009c0,0-13.826-3.64-9.405-13.082c0,0,6.187-7.645,14.585,0c0,0,0.443-10.343,9.284-8.543
		c0,0,10.608,0.898,6.189,10.342c0,0,10.606-3.148,12.375,0.45c1.769,3.598,5.834,11.184-7.428,11.635
		c0,0,11.808,4.986,10.241,9.616c-1.569,4.63-7.233,12.475-14.748,5.279c0,0,0.884,11.692-10.166,9.442
		c0,0-8.399-4.495-4.863-11.691c0,0-14.042,6.94-16.356-0.449C451.921,242.617,456.126,239.707,464.524,237.009z"/>
	<circle fill="#F26522" cx="478.211" cy="239.333" r="6.517"/>
	<circle fill="#7F3F98" cx="502.749" cy="213.993" r="5.353"/>
	<circle fill="#7F3F98" cx="503.963" cy="223.505" r="4.189"/>
	<path fill="#8DC63F" d="M522.546,230.018c0,0-7.449-6.053-4.19-10.706c0,0,6.983,4.654,6.519,9.311c0,0,8.842-8.846,13.033-3.726
		c0,0-0.467,7.912-8.844,8.379c0,0,11.168-0.465,11.635,6.051c0,0-9.311,2.327-12.568-4.188"/>
	<path fill="#F26522" d="M479.621,272.199c0,0,35.945-16.866,46.729-1.383l-10.482,44.515c0,0-13.974,12.444-27.076,0.277
		L479.621,272.199z"/>
	<path fill="#BE1E2D" d="M512.756,227.077c-2.277,2.571-10.118,22.771-3.136,27.426c6.981,4.654,23.779-9.401,24.332-11.612
		C535.649,236.101,517.361,221.875,512.756,227.077z"/>
	<g>
		<g>
			<path fill="#EEAF21" d="M461.646,236.776c-4.265-0.908-7.673-4.702-8.792-8.818c-0.894-3.285,1.391-6.104,4.439-6.937
				c3.133-0.856,6.349,1.396,7.743,4.005c0.38,0.711,1.393,0.634,1.792,0c2.227-3.544,4.305-7.514,7.885-9.879
				c3.025-1.996,6.417-0.12,7.612,2.94c0.966,2.481,0.806,5.458,0.819,8.074c0.003,0.797,0.874,1.278,1.56,0.895
				c4.137-2.316,8.62-1.833,10.951,2.593c2.451,4.658-0.938,8.727-5.668,9.162c-1.192,0.11-1.378,1.608-0.275,2.037
				c4.754,1.85,10.061,6.047,6.842,11.569c-2.853,4.895-8.844,3.512-12.055-0.03c-0.599-0.662-1.811-0.155-1.77,0.733
				c0.193,4.233-1.009,10.615-6.228,11.028c-6.998,0.555-7.04-8.367-7.045-13.103c0-0.709-0.657-1.13-1.312-0.999
				c-4.322,0.867-8.766,2.78-13.236,1.999c-4.635-0.811-3.79-5.872-1.488-8.521c2.073-2.385,5.294-3.805,8.224-4.752
				c1.267-0.409,0.726-2.411-0.551-1.998c-5.972,1.928-14.9,7.47-10.574,14.795c3.376,5.714,13.514,1.413,18.176,0.477
				c-0.437-0.333-0.875-0.667-1.312-0.999c0.006,5.848,0.473,14.771,8.273,15.136c6.977,0.327,9.41-7.271,9.146-13.062
				c-0.591,0.244-1.18,0.488-1.77,0.733c4.031,4.446,11.22,5.626,15,0.067c4.624-6.801-1.611-12.675-7.772-15.072
				c-0.091,0.679-0.183,1.358-0.275,2.037c5.958-0.549,9.848-4.992,7.989-11.007c-2.004-6.483-8.979-7.603-14.318-4.614
				c0.521,0.299,1.04,0.597,1.56,0.896c-0.025-4.943-0.283-13.723-7.251-13.891c-6.438-0.157-9.994,7.04-12.929,11.708
				c0.596,0,1.193,0,1.791,0c-3.258-6.098-12.275-7.13-15.576-0.5c-3.113,6.252,4.06,14.064,9.841,15.295
				C462.399,239.053,462.954,237.055,461.646,236.776L461.646,236.776z"/>
		</g>
	</g>
	<g>
		<g>
			<path fill="#452F8B" d="M504.823,209.254c-5.916-6.972-11.943,6.97-6.644,11.596c6.41,5.595,13.701-8.146,6.434-12.587
				c-1.144-0.699-2.185,1.094-1.047,1.791c4.867,2.975,0.112,12.852-4.237,9.054c-1.844-1.609-1.266-4.746-0.601-6.778
				c0.323-0.986,0.885-2.079,1.737-2.71c1.126-0.833,2.183,0.267,2.892,1.103C504.223,211.741,505.683,210.266,504.823,209.254
				L504.823,209.254z"/>
		</g>
	</g>
	<g>
		<g>
			<path fill="#452F8B" d="M504.781,219.43c-6.372-2.553-10.477,9.19-4.318,11.592c6.398,2.494,8.921-7.977,5.19-11.702
				c-0.947-0.945-2.414,0.521-1.466,1.467c2.005,2.002,1.403,9.298-2.448,8.486c-4.354-0.918-1.822-9.571,2.492-7.844
				C505.472,221.926,506.006,219.919,504.781,219.43L504.781,219.43z"/>
		</g>
	</g>
	<g>
		<g>
			<path fill="#B94126" d="M481.598,232.479c-3.288-2.977-7.675-3.404-10.734,0.137c-2.609,3.022-2.852,7.617-0.172,10.639
				c3.331,3.756,9.668,3.5,12.621-0.399c3.063-4.045,1.299-10.152-3.169-12.196c-1.207-0.553-2.261,1.235-1.047,1.791
				c3.549,1.621,4.553,5.634,2.682,8.966c-2.029,3.609-7.682,2.932-9.975-0.042c-1.654-2.146-1.035-5.289,0.526-7.292
				c2.164-2.774,5.398-2.312,7.802-0.137C481.12,234.841,482.592,233.38,481.598,232.479L481.598,232.479z"/>
		</g>
	</g>
	<g>
		<g>
			<path fill="#89241B" d="M515.855,226.896c5.128,4.198,11.651,6.405,16.345,11.181c6.994,7.112-5.662,10.262-10.305,12.467
				c-3.246,1.545-11.739,10.76-13.788,4.099c-1.241-4.03-0.282-8.972,0.595-12.967c1.034-4.712,2.979-9.352,6.235-12.956
				c0.895-0.989-0.568-2.461-1.466-1.466c-6.274,6.94-9.423,18.781-7.365,27.941c1.795,7.984,9.91,1.975,13.571-0.764
				c4.775-3.573,16.729-4.813,16.65-12.458c-0.037-3.659-3.627-6.473-6.26-8.421c-4.051-2.998-8.842-4.926-12.746-8.123
				C516.297,224.589,514.821,226.047,515.855,226.896L515.855,226.896z"/>
		</g>
	</g>
	<g>
		<g>
			<path fill="#10552E" d="M523.327,226.622c-2.447-1.929-2.32-4.715-2.059-7.51c-0.52,0.297-1.041,0.596-1.561,0.894
				c2.688,1.286,4.605,3.635,4.887,6.662c0.055,0.594,0.635,1.281,1.312,1.001c4.389-1.826,8.418-3.696,13.225-4.086
				c-0.346-0.346-0.691-0.692-1.037-1.037c0.273,3.88-3.953,5.902-6.109,8.541c-0.467,0.572-0.363,1.533,0.459,1.733
				c3.428,0.838,6.207,1.364,8.492,4.333c0.207-0.508,0.414-1.016,0.621-1.522c-2.787,0.634-5.68,0.857-7.766-1.45
				c-0.9-0.994-2.363,0.477-1.467,1.466c2.59,2.862,6.26,2.786,9.783,1.984c0.598-0.137,1.025-0.998,0.621-1.522
				c-2.662-3.455-5.631-4.284-9.734-5.286c0.152,0.578,0.305,1.155,0.457,1.732c2.605-3.188,7.047-5.315,6.719-10.007
				c-0.037-0.529-0.447-1.085-1.037-1.038c-5.004,0.405-9.201,2.258-13.777,4.16c0.436,0.333,0.873,0.667,1.312,0.999
				c-0.346-3.729-2.529-6.834-5.916-8.452c-0.744-0.356-1.483,0.082-1.558,0.896c-0.319,3.407-0.202,6.717,2.665,8.976
				C522.899,228.908,524.376,227.45,523.327,226.622L523.327,226.622z"/>
		</g>
	</g>
	<g>
		<g>
			<path fill="#B94126" d="M481.133,269.686c-0.424,12.443-0.137,25.121,2.753,37.287c1.048,4.415,2.339,8.816,6.115,11.619
				c3.419,2.539,8.457,2.323,12.458,2.086c4.511-0.267,9.794-0.197,13.75-2.655c3.163-1.963,4.385-5.809,5.016-9.252
				c1.012-5.525,1.008-11.25,1.803-16.815c1.061-7.431,2.305-14.794,4.459-21.996c0.123-0.405-0.064-0.985-0.477-1.17
				c-6.859-3.052-14.584-3.66-22.006-3.744c-7.876-0.088-15.956,0.696-23.584,2.71c-1.292,0.34-0.743,2.342,0.551,1.999
				c7.14-1.886,14.554-2.555,21.921-2.635c7.347-0.082,15.274,0.438,22.073,3.46c-0.158-0.391-0.318-0.78-0.477-1.171
				c-3.049,10.188-4.861,21.078-5.576,31.685c-0.275,4.106-0.394,8.452-2.236,12.217c-2.42,4.943-8.483,4.706-13.177,5.133
				c-4.235,0.385-8.872,0.772-12.777-1.227c-4.705-2.408-5.639-9.565-6.588-14.205c-2.226-10.889-2.303-22.261-1.926-33.327
				C483.252,268.347,481.178,268.352,481.133,269.686L481.133,269.686z"/>
		</g>
	</g>
</g>
<g>
	<path fill="#8DC63F" d="M136.667,236.92c0,0-7.749-13.997,1.203-19.107c0,0,5.937,5.163,3.637,12.249c0,0,7.272-4.686,14.343,1.674
		C155.848,231.734,148.343,241.67,136.667,236.92"/>
	<path fill="#CD3D57" d="M125.871,227.406c-10.333,13.227-9.255,30.667-6.234,32.952c2.809,2.118,17.652-0.916,29.018-15.061
		C153.403,239.387,129.054,223.334,125.871,227.406z"/>
	<path fill="#8DC63F" d="M83.599,266.285c0,0,20.975,9.676,46.407,3.434c0,0-9.333,9.623-10.926,20.332
		c-1.479,9.939,5.082,21.171,2.801,23.051c-10.158,8.359-28.833,4.396-32.512-3.746c-1.265-2.799,4.396-10.921,3.396-19.869
		C91.515,278.294,83.599,266.285,83.599,266.285z"/>
	<g>
		<g>
			<path fill="#FFDE17" d="M68.824,254.857c2.884-0.039,5.443-1.349,7.178-3.378c0.525,2.624,2.122,5.021,4.622,6.463
				c4.606,2.655,10.49,1.076,13.146-3.528c1.438-2.497,1.625-5.37,0.768-7.898c2.523,0.895,5.402,0.747,7.919-0.668
				c4.636-2.598,6.289-8.461,3.691-13.098c-1.408-2.516-3.78-4.145-6.394-4.699c2.06-1.711,3.403-4.261,3.478-7.146
				c0.137-5.314-4.058-9.731-9.37-9.871c-3.615-0.093-6.811,1.82-8.531,4.723c-0.083-3.379-1.941-6.614-5.148-8.294
				c-4.706-2.472-10.522-0.658-12.992,4.048c-1.34,2.552-1.41,5.427-0.453,7.922c-2.556-0.795-5.428-0.53-7.887,0.979
				c-4.529,2.78-5.945,8.705-3.166,13.234c1.509,2.456,3.941,3.99,6.573,4.441c-1.987,1.793-3.23,4.392-3.192,7.277
				C59.143,250.683,63.508,254.932,68.824,254.857z"/>
			<circle fill="#F7941E" cx="80.686" cy="233.375" r="8.553"/>
		</g>
		<g opacity="0.4">
			<g>
				<defs>
					
						<rect id="SVGID_1_" x="78.485" y="173.188" transform="matrix(0.9558 -0.2941 0.2941 0.9558 -61.1145 37.8102)" width="33.389" height="97.903"/>
				</defs>
				<clipPath id="SVGID_2_">
					<use xlink:href="#SVGID_1_"  overflow="visible"/>
				</clipPath>
				<g clip-path="url(#SVGID_2_)">
					<path fill="#939598" d="M68.824,254.857c2.884-0.039,5.443-1.349,7.178-3.378c0.525,2.624,2.122,5.021,4.622,6.463
						c4.606,2.655,10.49,1.076,13.146-3.528c1.438-2.497,1.625-5.37,0.768-7.898c2.523,0.895,5.402,0.747,7.919-0.668
						c4.636-2.598,6.289-8.461,3.691-13.098c-1.408-2.516-3.78-4.145-6.394-4.699c2.058-1.711,3.403-4.261,3.478-7.146
						c0.137-5.314-4.058-9.731-9.37-9.871c-3.615-0.093-6.811,1.82-8.531,4.723c-0.083-3.379-1.941-6.614-5.148-8.294
						c-4.706-2.472-10.522-0.658-12.992,4.048c-1.34,2.552-1.41,5.427-0.453,7.922c-2.556-0.795-5.428-0.53-7.887,0.979
						c-4.529,2.78-5.945,8.705-3.166,13.234c1.508,2.456,3.941,3.99,6.573,4.441c-1.988,1.793-3.23,4.392-3.192,7.277
						C59.142,250.683,63.508,254.932,68.824,254.857z"/>
				</g>
			</g>
		</g>
	</g>
	<g>
		<g>
			<path fill="#73608A" d="M121.013,214.097c-0.459,3.76-3.175,6.522-6.066,6.168c-2.892-0.353-4.865-3.686-4.405-7.448
				c0.458-3.758,3.175-6.519,6.066-6.166C119.498,207.002,121.471,210.336,121.013,214.097z"/>
			<path fill="#73608A" d="M122.745,200.636c-0.46,3.759-3.174,6.521-6.068,6.169c-2.891-0.353-4.864-3.689-4.404-7.448
				c0.458-3.759,3.174-6.521,6.068-6.168C121.23,193.54,123.207,196.877,122.745,200.636z"/>
			<path fill="#73608A" d="M119.351,227.71c-0.457,3.761-3.177,6.522-6.066,6.17c-2.892-0.353-4.863-3.689-4.407-7.448
				c0.461-3.758,3.177-6.52,6.069-6.167C117.837,220.619,119.81,223.953,119.351,227.71z"/>
		</g>
		<g>
			<g>
				<defs>
					
						<rect id="SVGID_3_" x="115.295" y="182.221" transform="matrix(0.9946 0.1035 -0.1035 0.9946 23.1885 -11.6968)" width="18.012" height="70.735"/>
				</defs>
				<clipPath id="SVGID_4_">
					<use xlink:href="#SVGID_3_"  overflow="visible"/>
				</clipPath>
				<g clip-path="url(#SVGID_4_)">
					<path fill="#472989" d="M121.013,214.097c-0.459,3.76-3.175,6.522-6.066,6.168c-2.894-0.353-4.865-3.686-4.405-7.448
						c0.458-3.758,3.174-6.519,6.066-6.166C119.498,207.002,121.471,210.336,121.013,214.097z"/>
					<path fill="#472989" d="M122.745,200.636c-0.46,3.759-3.174,6.521-6.068,6.169c-2.891-0.353-4.864-3.689-4.404-7.448
						c0.458-3.759,3.174-6.521,6.068-6.168C121.23,193.54,123.207,196.877,122.745,200.636z"/>
					<path fill="#472989" d="M119.351,227.71c-0.458,3.761-3.177,6.522-6.066,6.17c-2.892-0.353-4.863-3.689-4.407-7.448
						c0.461-3.758,3.175-6.52,6.069-6.167C117.837,220.619,119.81,223.953,119.351,227.71z"/>
				</g>
			</g>
		</g>
	</g>
	<g>
		<g>
			<defs>
				
					<rect id="SVGID_5_" x="130.983" y="217.039" transform="matrix(0.8309 0.5564 -0.5564 0.8309 163.3483 -38.6536)" width="28.579" height="64.796"/>
			</defs>
			<clipPath id="SVGID_6_">
				<use xlink:href="#SVGID_5_"  overflow="visible"/>
			</clipPath>
			<g clip-path="url(#SVGID_6_)">
				<path fill="#317016" d="M136.667,236.918c0,0-7.749-13.995,1.203-19.105c0,0,5.937,5.163,3.637,12.249
					c0,0,7.272-4.688,14.341,1.674C155.848,231.734,148.343,241.668,136.667,236.918"/>
				<path fill="#821914" d="M125.87,227.406c-10.331,13.227-9.253,30.667-6.232,32.952c2.808,2.117,17.652-0.916,29.018-15.061
					C153.403,239.387,129.054,223.332,125.87,227.406z"/>
			</g>
		</g>
	</g>
	<g>
		<g>
			<defs>
				
					<rect id="SVGID_7_" x="106.338" y="255.974" transform="matrix(0.9995 0.0316 -0.0316 0.9995 9.4021 -3.9309)" width="45.536" height="79.23"/>
			</defs>
			<clipPath id="SVGID_8_">
				<use xlink:href="#SVGID_7_"  overflow="visible"/>
			</clipPath>
			<path clip-path="url(#SVGID_8_)" fill="#146B08" d="M83.599,266.285c0,0,20.975,9.676,46.405,3.434
				c0,0-9.332,9.623-10.924,20.332c-1.479,9.939,5.082,21.171,2.801,23.051c-10.158,8.359-28.833,4.396-32.513-3.746
				c-1.264-2.799,4.396-10.921,3.396-19.869C91.515,278.294,83.599,266.285,83.599,266.285z"/>
		</g>
	</g>
</g>
<g>
	<g>
		<path fill="#CD3D57" d="M105.365,90.142H77.258c0.145,11.573,5.895,18.043,13.442,18.043c5.319,0,8.483-1.221,11.932-3.235
			l0.647,1.148c-3.667,2.158-7.116,3.452-12.724,3.452c-7.763,0-14.807-6.542-14.807-19.697c0-12.506,6.685-19.623,14.951-19.623
			c8.556,0,14.736,6.9,14.736,19.121C105.436,89.638,105.436,89.854,105.365,90.142z M90.7,71.596
			c-7.259,0-13.155,6.039-13.443,17.252h26.669C103.712,77.635,98.32,71.596,90.7,71.596z"/>
		<path fill="#CD3D57" d="M139.869,108.76v-6.397c-3.02,4.098-7.69,7.188-13.441,7.188c-6.397,0-12.867-2.731-12.867-11.285
			c0-8.267,6.324-12.291,14.018-12.291c5.103,0,9.346,1.509,12.291,3.162v-6.252c0-8.412-3.449-11.215-10.997-11.215
			c-4.529,0-7.907,1.294-11.214,2.947l-0.575-1.364c3.308-1.653,7.044-3.02,11.858-3.02c8.27,0,12.51,3.162,12.51,12.436v26.094
			h-1.582V108.76z M139.869,90.573c-3.163-1.797-7.188-3.235-12.364-3.235c-6.971,0-12.362,3.595-12.362,10.854
			c0,7.547,5.607,9.993,11.5,9.993c5.104,0,10.423-3.093,13.227-7.907V90.573L139.869,90.573z"/>
	</g>
	<g>
		<path fill="#FFDE17" d="M176.324,95.524c0.297-1.106,0.071-2.226-0.518-3.108c1.061,0.085,2.149-0.269,2.969-1.067
			c1.51-1.473,1.541-3.892,0.066-5.403c-0.799-0.817-1.875-1.198-2.934-1.144c0.613-0.866,0.867-1.982,0.598-3.097
			c-0.492-2.052-2.555-3.313-4.607-2.819c-1.111,0.268-1.99,0.997-2.483,1.936c-0.433-0.969-1.261-1.758-2.354-2.099
			c-2.016-0.624-4.156,0.504-4.78,2.518c-0.425,1.37-0.039,2.797,0.886,3.768c-1.3-0.333-2.736,0.028-3.724,1.071
			c-1.452,1.533-1.384,3.95,0.147,5.4c0.831,0.787,1.92,1.123,2.977,1.027c-0.578,0.891-0.787,2.016-0.475,3.119
			c0.575,2.03,2.686,3.208,4.716,2.635c1.103-0.312,1.949-1.077,2.405-2.033c0.471,0.953,1.33,1.706,2.438,2.001
			C173.688,98.771,175.779,97.562,176.324,95.524z"/>
		<circle fill="#F7941E" cx="169.396" cy="88.678" r="3.395"/>
	</g>
	<g>
		<path fill="#8DC63F" d="M160.176,56.188c0,0-8.359-0.038-8.409-5.425c0,0,3.871-1.391,6.518,1.466c0,0-0.283-4.511,4.422-6.115
			C162.707,46.113,165.324,52.073,160.176,56.188"/>
		<path fill="#CD3D57" d="M153.083,58.685c3.398,8.087,11.625,12.046,13.44,11.25c1.683-0.74,4.087-8.286,0.534-17.079
			C165.572,49.181,152.037,56.191,153.083,58.685z"/>
	</g>
	<path fill="#8DC63F" d="M155.345,127.092c0,0,9.125,1.229,13.17-6.815c4.045-8.043-1.51-15.371-1.51-15.371L155.345,127.092z"/>
	<g>
		<path fill="#FFDE17" d="M104.362,154.193c1.103,0.295,2.224,0.071,3.105-0.519c-0.084,1.06,0.271,2.148,1.069,2.968
			c1.474,1.51,3.891,1.54,5.402,0.068c0.818-0.8,1.2-1.877,1.143-2.935c0.868,0.612,1.984,0.866,3.098,0.598
			c2.052-0.493,3.312-2.556,2.821-4.607c-0.269-1.113-0.999-1.99-1.937-2.484c0.969-0.432,1.758-1.262,2.098-2.355
			c0.625-2.016-0.502-4.155-2.516-4.779c-1.371-0.425-2.799-0.038-3.768,0.886c0.334-1.3-0.029-2.736-1.073-3.724
			c-1.533-1.45-3.948-1.385-5.399,0.147c-0.785,0.831-1.123,1.921-1.027,2.978c-0.89-0.579-2.015-0.787-3.118-0.476
			c-2.03,0.575-3.209,2.687-2.635,4.716c0.312,1.102,1.076,1.949,2.033,2.405c-0.953,0.47-1.708,1.329-2.002,2.438
			C101.111,151.556,102.322,153.649,104.362,154.193z"/>
		<circle fill="#F7941E" cx="111.206" cy="147.263" r="3.396"/>
	</g>
	<g>
		<path fill="#8DC63F" d="M143.698,138.045c0,0,0.038-8.359,5.425-8.408c0,0,1.39,3.871-1.467,6.514c0,0,4.512-0.28,6.113,4.425
			C153.769,140.575,147.812,143.19,143.698,138.045"/>
		<path fill="#CD3D57" d="M141.201,130.952c-8.088,3.398-12.047,11.625-11.25,13.439c0.74,1.684,8.285,4.088,17.077,0.535
			C150.704,143.44,143.693,129.905,141.201,130.952z"/>
	</g>
	<path fill="#F7941E" d="M72.792,133.213c0,0-1.229,9.123,6.814,13.169c8.044,4.045,15.372-1.509,15.372-1.509L72.792,133.213z"/>
	<g>
		<path fill="#FFDE17" d="M45.691,82.229c-0.297,1.104-0.072,2.226,0.517,3.105c-1.059-0.082-2.146,0.271-2.967,1.069
			c-1.51,1.475-1.541,3.892-0.068,5.402c0.799,0.818,1.876,1.199,2.935,1.145c-0.613,0.866-0.866,1.984-0.598,3.096
			c0.493,2.052,2.555,3.313,4.607,2.821c1.114-0.268,1.99-0.998,2.484-1.937c0.432,0.971,1.26,1.759,2.355,2.099
			c2.014,0.624,4.153-0.502,4.779-2.518c0.424-1.37,0.039-2.797-0.886-3.767c1.3,0.334,2.736-0.029,3.725-1.072
			c1.451-1.533,1.383-3.949-0.148-5.4c-0.83-0.787-1.921-1.124-2.977-1.025c0.58-0.893,0.786-2.018,0.475-3.12
			c-0.575-2.03-2.686-3.21-4.716-2.635c-1.101,0.312-1.947,1.076-2.406,2.033c-0.469-0.952-1.329-1.706-2.437-2.002
			C48.329,78.979,46.236,80.189,45.691,82.229z"/>
		<circle fill="#F7941E" cx="52.62" cy="89.074" r="3.396"/>
	</g>
	<g>
		<path fill="#8DC63F" d="M61.84,121.563c0,0,8.361,0.039,8.408,5.426c0,0-3.871,1.392-6.516-1.466c0,0,0.282,4.511-4.422,6.114
			C59.31,131.639,56.692,125.679,61.84,121.563"/>
		<path fill="#CD3D57" d="M68.933,119.066c-3.397-8.086-11.626-12.046-13.439-11.248c-1.684,0.74-4.086,8.285-0.535,17.077
			C56.443,128.571,69.979,121.561,68.933,119.066z"/>
	</g>
	<path fill="#8DC63F" d="M66.67,50.659c0,0-9.123-1.229-13.169,6.814c-4.044,8.045,1.507,15.373,1.507,15.373L66.67,50.659z"/>
	<g>
		<path fill="#FFDE17" d="M117.655,23.559c-1.104-0.295-2.224-0.072-3.107,0.518c0.084-1.061-0.269-2.148-1.069-2.969
			c-1.473-1.509-3.892-1.54-5.402-0.067c-0.819,0.8-1.2,1.876-1.144,2.937c-0.869-0.614-1.984-0.866-3.098-0.601
			c-2.051,0.496-3.313,2.558-2.82,4.608c0.268,1.112,0.997,1.99,1.936,2.484c-0.971,0.431-1.759,1.262-2.098,2.354
			c-0.625,2.016,0.502,4.156,2.515,4.781c1.372,0.424,2.8,0.039,3.77-0.886c-0.333,1.3,0.029,2.734,1.072,3.725
			c1.533,1.45,3.95,1.384,5.401-0.15c0.785-0.828,1.123-1.92,1.025-2.977c0.892,0.578,2.015,0.787,3.119,0.477
			c2.032-0.575,3.209-2.688,2.635-4.718c-0.312-1.101-1.077-1.947-2.034-2.404c0.953-0.47,1.708-1.329,2.004-2.438
			C120.904,26.196,119.694,24.104,117.655,23.559z"/>
		<circle fill="#F7941E" cx="110.81" cy="30.488" r="3.395"/>
	</g>
	<g>
		<path fill="#8DC63F" d="M78.319,39.706c0,0-0.039,8.361-5.425,8.409c0,0-1.39-3.87,1.466-6.515c0,0-4.511,0.28-6.114-4.424
			C68.246,37.177,74.205,34.561,78.319,39.706"/>
		<path fill="#CD3D57" d="M80.816,46.801c8.087-3.398,12.045-11.627,11.249-13.441c-0.74-1.684-8.284-4.087-17.077-0.533
			C71.313,34.311,78.323,47.846,80.816,46.801z"/>
	</g>
	<path fill="#F7941E" d="M149.224,44.54c0,0,1.229-9.125-6.815-13.17c-8.044-4.044-15.37,1.509-15.37,1.509L149.224,44.54z"/>
</g>
<g>
	<g>
		<path fill="#00A14B" d="M501.345,58.921c0,0,15.831,7.038,11.433,17.297c0,0-8.5-0.588-11.137-8.208c0,0-3.227,8.794-13.485,7.914
			C488.154,75.925,488.154,62.44,501.345,58.921"/>
	</g>
	<g>
		<path fill="#FFDE17" d="M473.392,54.207c-0.768-2.244-2.443-3.911-4.476-4.75c1.919-1.079,3.384-2.942,3.874-5.265
			c0.897-4.277-1.84-8.474-6.117-9.374c-2.32-0.487-4.612,0.101-6.371,1.418c0.055-2.202-0.796-4.414-2.543-6.022
			c-3.218-2.961-8.224-2.752-11.184,0.463c-1.606,1.744-2.272,4.014-2.04,6.199c-1.864-1.171-4.2-1.572-6.475-0.894
			c-4.189,1.25-6.571,5.66-5.322,9.85c0.85,2.848,3.162,4.858,5.871,5.46c-2.62,0.928-4.675,3.208-5.171,6.145
			c-0.728,4.311,2.176,8.394,6.486,9.122c2.337,0.395,4.602-0.283,6.309-1.67c0.032,2.203,0.97,4.379,2.78,5.916
			c3.332,2.831,8.326,2.423,11.158-0.906c1.535-1.807,2.109-4.102,1.791-6.275c1.908,1.097,4.259,1.403,6.505,0.635
			C472.602,62.84,474.807,58.34,473.392,54.207z"/>
	</g>
	<g>
		<circle fill="#F7941E" cx="453.568" cy="50.422" r="7.035"/>
	</g>
	<g>
		<path fill="#CD3D57" d="M516.882,60.096c0.294-18.174-12.018-32.539-16.122-32.539c-3.812,0-14.658,12.311-15.244,31.95
			C485.27,67.718,516.792,65.694,516.882,60.096z"/>
	</g>
	<g>
		<path fill="#D1D3D4" d="M531.396,32.353v35.906c0,0,19.786,5.822,35.615,0V32.353C567.012,32.353,550.995,22.811,531.396,32.353z"
			/>
	</g>
	<g>
		<path fill="#3C2415" d="M513.687,43.438c-3.871-9.561-10.203-15.881-12.926-15.881c-2.75,0-9.157,6.402-12.736,17.342
			C486.641,49.126,515.653,48.29,513.687,43.438z"/>
	</g>
	<g>
		<path fill="#3C2415" d="M468.917,49.457c1.919-1.079,3.384-2.942,3.874-5.265c0.897-4.277-1.84-8.474-6.117-9.374
			c-2.32-0.487-4.612,0.101-6.371,1.418c0.055-2.202-0.796-4.414-2.543-6.022c-3.218-2.961-8.224-2.752-11.184,0.463
			c-1.606,1.744-2.272,4.014-2.04,6.199c-1.864-1.171-4.2-1.572-6.475-0.894c-4.189,1.25-6.571,5.66-5.322,9.85
			C433.588,48.678,470.949,50.295,468.917,49.457z"/>
	</g>
	<g>
		<path fill="#754C29" d="M446.753,48.663c0.782-3.033,3.535-5.276,6.814-5.276c3.886,0,6.596,3.078,6.817,6.375
			c0.073,1.103-3.364,1.848-6.804,1.369C450.132,50.651,446.682,48.945,446.753,48.663z"/>
	</g>
	<g>
		<path fill="#3C2415" d="M531.396,32.353v14.14c0,0,19.786,5.822,35.615,0v-14.14C567.012,32.353,550.995,22.811,531.396,32.353z"
			/>
	</g>
	<g>
		<rect x="419.124" y="89.705" fill="none" width="162.398" height="87.354"/>
	</g>
	<g enable-background="new    ">
		<path fill="#CD3D57" d="M451.692,119.519c-0.35,1.518-0.9,2.861-1.649,4.029c-0.75,1.168-1.655,2.152-2.716,2.949
			c-1.061,0.799-2.258,1.402-3.591,1.811c-1.333,0.409-2.759,0.613-4.278,0.613c-2.043,0-3.908-0.332-5.592-0.993
			s-3.129-1.62-4.336-2.876c-1.207-1.255-2.142-2.788-2.803-4.599c-0.662-1.81-0.993-3.863-0.993-6.161
			c0-2.258,0.322-4.287,0.964-6.087c0.642-1.801,1.547-3.333,2.715-4.599c1.168-1.265,2.56-2.234,4.175-2.906
			c1.616-0.672,3.406-1.007,5.373-1.007c2.024,0,3.85,0.331,5.475,0.992c1.625,0.662,3.012,1.616,4.161,2.862
			c1.148,1.246,2.034,2.774,2.657,4.584c0.623,1.81,0.934,3.864,0.934,6.16v2.19h-19.213c0.351,2.2,1.105,3.85,2.263,4.95
			c1.158,1.099,2.564,1.65,4.219,1.65c0.526,0,1.056-0.078,1.592-0.234c0.535-0.155,1.031-0.384,1.489-0.686
			c0.457-0.301,0.856-0.672,1.197-1.109c0.34-0.438,0.588-0.949,0.745-1.533H451.692z M444.772,110.671
			c-0.448-1.713-1.178-2.997-2.19-3.854c-1.013-0.856-2.219-1.284-3.621-1.284c-1.383,0-2.589,0.428-3.621,1.284
			c-1.032,0.857-1.771,2.142-2.219,3.854H444.772z"/>
		<path fill="#CD3D57" d="M474.848,126.789c-0.934,0.681-1.913,1.207-2.935,1.577c-1.022,0.369-2.107,0.555-3.256,0.555
			c-1.908,0-3.596-0.346-5.066-1.037c-1.47-0.691-2.701-1.669-3.693-2.935c-0.993-1.265-1.748-2.789-2.263-4.57
			c-0.516-1.781-0.774-3.751-0.774-5.913c0-2.297,0.307-4.355,0.92-6.176c0.613-1.82,1.46-3.367,2.54-4.643
			c1.081-1.275,2.355-2.253,3.826-2.935c1.469-0.682,3.051-1.021,4.745-1.021c1.109,0,2.161,0.126,3.153,0.379
			c0.993,0.254,1.927,0.624,2.803,1.109V89.706h6.833v38.543h-6.833V126.789z M474.848,108.014c-1.772-1.655-3.66-2.481-5.665-2.481
			c-1.597,0-2.872,0.739-3.825,2.219c-0.954,1.479-1.431,3.718-1.431,6.716c0,2.842,0.448,4.979,1.343,6.409
			c0.896,1.431,2.141,2.147,3.738,2.147c2.044,0,3.99-1.216,5.84-3.65V108.014z"/>
		<path fill="#CD3D57" d="M496.396,96.889h-6.833v-7.183h6.833V96.889z M496.396,128.249h-6.833v-27.886h6.833V128.249z"/>
		<path fill="#CD3D57" d="M511.142,101.766c1.829-1.383,3.893-2.073,6.19-2.073c1.87,0,3.534,0.345,4.992,1.037
			c1.461,0.691,2.692,1.664,3.694,2.919c1.003,1.256,1.762,2.769,2.279,4.54c0.514,1.772,0.773,3.738,0.773,5.898
			c0,2.239-0.308,4.273-0.922,6.103c-0.612,1.83-1.459,3.393-2.539,4.687s-2.352,2.292-3.811,2.992
			c-1.46,0.702-3.047,1.052-4.76,1.052c-1.168,0-2.224-0.122-3.168-0.365c-0.943-0.244-1.854-0.628-2.729-1.153v0.847h-6.862V89.706
			h6.862V101.766z M511.142,120.598c0.856,0.818,1.752,1.436,2.685,1.854c0.935,0.419,1.919,0.629,2.95,0.629
			c1.597,0,2.866-0.759,3.81-2.278c0.945-1.519,1.417-3.757,1.417-6.716c0-2.842-0.448-4.978-1.344-6.409
			c-0.896-1.431-2.13-2.146-3.708-2.146c-2.005,0-3.941,1.227-5.81,3.678V120.598z"/>
		<path fill="#CD3D57" d="M542.181,128.249h-6.834V89.706h6.834V128.249z"/>
		<path fill="#CD3D57" d="M574.416,119.519c-0.35,1.518-0.899,2.861-1.649,4.029c-0.749,1.168-1.655,2.152-2.715,2.949
			c-1.061,0.799-2.258,1.402-3.592,1.811c-1.333,0.409-2.76,0.613-4.277,0.613c-2.045,0-3.909-0.332-5.592-0.993
			c-1.685-0.662-3.13-1.62-4.336-2.876c-1.208-1.255-2.143-2.788-2.805-4.599c-0.661-1.81-0.992-3.863-0.992-6.161
			c0-2.258,0.322-4.287,0.964-6.087c0.644-1.801,1.548-3.333,2.716-4.599c1.169-1.265,2.561-2.234,4.175-2.906
			c1.616-0.672,3.406-1.007,5.374-1.007c2.023,0,3.85,0.331,5.475,0.992c1.625,0.662,3.012,1.616,4.16,2.862
			c1.148,1.246,2.035,2.774,2.657,4.584c0.622,1.81,0.935,3.864,0.935,6.16v2.19H555.7c0.352,2.2,1.104,3.85,2.263,4.95
			c1.159,1.099,2.565,1.65,4.22,1.65c0.525,0,1.057-0.078,1.59-0.234c0.537-0.155,1.032-0.384,1.49-0.686
			c0.458-0.301,0.856-0.672,1.197-1.109c0.342-0.438,0.589-0.949,0.745-1.533H574.416z M567.497,110.671
			c-0.448-1.713-1.178-2.997-2.19-3.854c-1.013-0.856-2.219-1.284-3.62-1.284c-1.383,0-2.59,0.428-3.621,1.284
			c-1.031,0.857-1.771,2.142-2.219,3.854H567.497z"/>
	</g>
	<g enable-background="new    ">
		<path fill="#CD3D57" d="M430.574,140.273c0.79,0,1.5,0.071,2.132,0.213c0.631,0.142,1.168,0.393,1.61,0.753
			c0.442,0.361,0.781,0.851,1.018,1.469c0.236,0.618,0.354,1.404,0.354,2.357v7.807h-3.015v-0.644
			c-0.498,0.3-1.037,0.533-1.617,0.695c-0.58,0.163-1.2,0.244-1.862,0.244c-0.618,0-1.194-0.092-1.726-0.276
			c-0.532-0.185-0.994-0.444-1.384-0.779c-0.391-0.335-0.698-0.734-0.921-1.198c-0.223-0.463-0.335-0.975-0.335-1.533
			c0-2.979,2.452-4.47,7.356-4.47h0.489c-0.008-0.335-0.037-0.629-0.084-0.882c-0.047-0.254-0.148-0.468-0.302-0.645
			c-0.155-0.176-0.378-0.309-0.67-0.4c-0.292-0.09-0.683-0.135-1.172-0.135c-0.61,0-1.093,0.094-1.449,0.283
			c-0.356,0.189-0.599,0.545-0.728,1.07h-3.104C425.524,141.583,427.328,140.273,430.574,140.273z M432.674,147.397h-0.889
			c-2.577,0-3.865,0.626-3.865,1.881c0,0.412,0.167,0.734,0.502,0.966c0.335,0.231,0.786,0.348,1.353,0.348s1.112-0.114,1.636-0.342
			c0.524-0.227,0.945-0.56,1.263-0.999V147.397z"/>
		<path fill="#CD3D57" d="M446.071,143.585c-0.267-0.112-0.518-0.196-0.754-0.252c-0.236-0.056-0.56-0.083-0.972-0.083
			s-0.791,0.105-1.134,0.316c-0.343,0.21-0.683,0.534-1.018,0.972v8.335h-3.027V140.57h3.027v0.708
			c0.747-0.67,1.567-1.005,2.46-1.005c0.163,0,0.358,0.013,0.586,0.039c0.228,0.025,0.504,0.073,0.831,0.142V143.585z"/>
		<path fill="#CD3D57" d="M454.908,143.585c-0.267-0.112-0.518-0.196-0.754-0.252s-0.56-0.083-0.972-0.083
			c-0.413,0-0.791,0.105-1.134,0.316c-0.343,0.21-0.683,0.534-1.018,0.972v8.335h-3.027V140.57h3.027v0.708
			c0.748-0.67,1.567-1.005,2.461-1.005c0.163,0,0.358,0.013,0.586,0.039c0.228,0.025,0.504,0.073,0.831,0.142V143.585z"/>
		<path fill="#CD3D57" d="M461.877,140.273c0.79,0,1.5,0.071,2.132,0.213s1.168,0.393,1.61,0.753
			c0.442,0.361,0.781,0.851,1.018,1.469c0.236,0.618,0.354,1.404,0.354,2.357v7.807h-3.015v-0.644
			c-0.498,0.3-1.037,0.533-1.617,0.695c-0.58,0.163-1.2,0.244-1.862,0.244c-0.618,0-1.194-0.092-1.726-0.276
			c-0.532-0.185-0.994-0.444-1.384-0.779c-0.391-0.335-0.698-0.734-0.921-1.198c-0.224-0.463-0.335-0.975-0.335-1.533
			c0-2.979,2.452-4.47,7.356-4.47h0.489c-0.008-0.335-0.037-0.629-0.084-0.882c-0.047-0.254-0.148-0.468-0.302-0.645
			c-0.155-0.176-0.378-0.309-0.67-0.4c-0.292-0.09-0.683-0.135-1.172-0.135c-0.61,0-1.093,0.094-1.449,0.283
			c-0.356,0.189-0.599,0.545-0.728,1.07h-3.104C456.827,141.583,458.631,140.273,461.877,140.273z M463.977,147.397h-0.889
			c-2.577,0-3.865,0.626-3.865,1.881c0,0.412,0.167,0.734,0.502,0.966c0.335,0.231,0.786,0.348,1.353,0.348s1.112-0.114,1.636-0.342
			c0.524-0.227,0.945-0.56,1.263-0.999V147.397z"/>
		<path fill="#CD3D57" d="M473.497,141.291c0.876-0.678,1.829-1.018,2.859-1.018c2.912,0,4.368,1.567,4.368,4.702v7.896h-3.066
			v-7.807c0-0.764-0.122-1.31-0.367-1.636s-0.65-0.49-1.218-0.49c-0.824,0-1.683,0.498-2.576,1.495v8.438h-3.027V140.57h3.027
			V141.291z"/>
		<path fill="#CD3D57" d="M487.049,154.019c0.18,0.85,0.811,1.275,1.894,1.275c0.73,0,1.303-0.245,1.72-0.734
			c0.417-0.49,0.664-1.254,0.741-2.293c-0.412,0.301-0.84,0.526-1.282,0.677c-0.442,0.15-0.917,0.225-1.423,0.225
			c-0.842,0-1.587-0.152-2.235-0.457c-0.649-0.304-1.192-0.736-1.63-1.294c-0.438-0.559-0.771-1.231-0.999-2.017
			c-0.228-0.786-0.341-1.655-0.341-2.609c0-1.013,0.135-1.921,0.406-2.724s0.645-1.486,1.121-2.048
			c0.477-0.562,1.039-0.994,1.688-1.294s1.346-0.451,2.093-0.451c0.489,0,0.953,0.056,1.391,0.168
			c0.438,0.111,0.85,0.275,1.237,0.489v-0.36h3.014v11.336c0,3.976-1.812,5.964-5.436,5.964c-0.739,0-1.406-0.088-2.003-0.264
			c-0.597-0.176-1.116-0.43-1.559-0.761c-0.442-0.33-0.797-0.733-1.062-1.21c-0.267-0.477-0.43-1.016-0.49-1.617H487.049z
			 M491.429,143.945c-0.782-0.73-1.615-1.095-2.499-1.095c-0.705,0-1.267,0.327-1.688,0.979c-0.42,0.653-0.631,1.64-0.631,2.962
			c0,1.254,0.197,2.201,0.592,2.841c0.396,0.64,0.945,0.96,1.649,0.96c0.902,0,1.76-0.537,2.577-1.611V143.945z"/>
		<path fill="#CD3D57" d="M508.665,149.021c-0.154,0.67-0.398,1.262-0.728,1.778c-0.331,0.515-0.73,0.949-1.199,1.301
			s-0.996,0.618-1.584,0.798c-0.588,0.181-1.217,0.271-1.887,0.271c-0.902,0-1.724-0.146-2.467-0.438
			c-0.743-0.292-1.381-0.715-1.913-1.269c-0.533-0.554-0.945-1.231-1.237-2.029c-0.292-0.799-0.438-1.705-0.438-2.718
			c0-0.996,0.142-1.891,0.425-2.685c0.284-0.795,0.683-1.471,1.198-2.03c0.515-0.558,1.129-0.985,1.842-1.282
			c0.713-0.296,1.503-0.444,2.37-0.444c0.893,0,1.699,0.146,2.416,0.438s1.329,0.712,1.835,1.262
			c0.506,0.549,0.897,1.224,1.173,2.023c0.274,0.798,0.412,1.705,0.412,2.717v0.966h-8.477c0.155,0.971,0.487,1.699,0.998,2.184
			c0.511,0.485,1.131,0.728,1.862,0.728c0.231,0,0.466-0.035,0.702-0.104c0.236-0.069,0.455-0.169,0.657-0.303
			c0.202-0.133,0.377-0.296,0.527-0.489c0.151-0.193,0.26-0.418,0.329-0.676H508.665z M505.612,145.117
			c-0.198-0.756-0.52-1.322-0.967-1.7c-0.446-0.378-0.979-0.567-1.597-0.567c-0.61,0-1.142,0.189-1.597,0.567
			c-0.456,0.378-0.782,0.944-0.979,1.7H505.612z"/>
		<path fill="#CD3D57" d="M528.001,152.872h-3.066v-7.807c0-0.772-0.094-1.32-0.283-1.642c-0.189-0.323-0.507-0.484-0.953-0.484
			c-0.756,0-1.551,0.494-2.383,1.482v8.45h-3.015v-7.807c0-0.772-0.097-1.32-0.29-1.642c-0.193-0.323-0.514-0.484-0.961-0.484
			c-0.746,0-1.536,0.494-2.369,1.482v8.45h-3.028V140.57h3.028v0.708c0.421-0.352,0.852-0.607,1.295-0.767
			c0.442-0.159,0.906-0.238,1.396-0.238c0.8,0,1.472,0.137,2.016,0.412c0.547,0.275,0.978,0.687,1.297,1.237
			c0.342-0.361,0.658-0.648,0.946-0.863c0.286-0.214,0.56-0.38,0.817-0.496s0.511-0.193,0.76-0.231
			c0.25-0.039,0.508-0.059,0.773-0.059c2.679,0,4.02,1.567,4.02,4.702V152.872z"/>
		<path fill="#CD3D57" d="M542.223,149.021c-0.154,0.67-0.398,1.262-0.728,1.778c-0.331,0.515-0.731,0.949-1.199,1.301
			c-0.469,0.352-0.996,0.618-1.584,0.798c-0.59,0.181-1.217,0.271-1.887,0.271c-0.902,0-1.726-0.146-2.467-0.438
			c-0.743-0.292-1.381-0.715-1.914-1.269c-0.532-0.554-0.944-1.231-1.236-2.029c-0.291-0.799-0.438-1.705-0.438-2.718
			c0-0.996,0.141-1.891,0.424-2.685c0.283-0.795,0.684-1.471,1.197-2.03c0.517-0.558,1.131-0.985,1.843-1.282
			c0.714-0.296,1.503-0.444,2.372-0.444c0.893,0,1.697,0.146,2.415,0.438c0.716,0.292,1.329,0.712,1.835,1.262
			c0.506,0.549,0.898,1.224,1.173,2.023c0.274,0.798,0.412,1.705,0.412,2.717v0.966h-8.477c0.154,0.971,0.487,1.699,0.997,2.184
			c0.513,0.485,1.132,0.728,1.863,0.728c0.23,0,0.465-0.035,0.702-0.104c0.235-0.069,0.454-0.169,0.656-0.303
			s0.378-0.296,0.528-0.489s0.259-0.418,0.328-0.676H542.223z M539.169,145.117c-0.198-0.756-0.519-1.322-0.967-1.7
			c-0.445-0.378-0.979-0.567-1.596-0.567c-0.611,0-1.144,0.189-1.598,0.567c-0.455,0.378-0.783,0.944-0.979,1.7H539.169z"/>
		<path fill="#CD3D57" d="M548.237,141.291c0.877-0.678,1.829-1.018,2.861-1.018c2.91,0,4.365,1.567,4.365,4.702v7.896h-3.064
			v-7.807c0-0.764-0.123-1.31-0.367-1.636c-0.246-0.326-0.65-0.49-1.218-0.49c-0.824,0-1.683,0.498-2.577,1.495v8.438h-3.025V140.57
			h3.025V141.291z"/>
		<path fill="#CD3D57" d="M564.147,152.897c-0.387,0.095-0.74,0.164-1.062,0.206c-0.322,0.043-0.621,0.064-0.896,0.064
			c-0.713,0-1.28-0.083-1.706-0.251c-0.425-0.167-0.748-0.416-0.972-0.747c-0.225-0.33-0.367-0.745-0.432-1.243
			c-0.064-0.498-0.097-1.078-0.097-1.74v-6.067h-1.393v-2.55h1.393v-3.066h3.065v3.066h1.828v2.55h-1.828v6.158
			c0,0.283,0.014,0.511,0.039,0.683c0.025,0.171,0.061,0.304,0.108,0.398c0.048,0.095,0.108,0.157,0.182,0.188
			c0.073,0.03,0.156,0.045,0.251,0.045c0.188,0,0.412-0.015,0.67-0.045c0.256-0.031,0.541-0.071,0.85-0.123V152.897z"/>
		<path fill="#CD3D57" d="M572.392,144.022c-0.206-0.781-0.828-1.172-1.867-1.172c-0.266,0-0.512,0.021-0.734,0.064
			c-0.224,0.043-0.419,0.107-0.587,0.193c-0.166,0.086-0.298,0.193-0.392,0.322c-0.096,0.129-0.143,0.274-0.143,0.438
			c0,0.129,0.023,0.238,0.071,0.328s0.163,0.178,0.348,0.264c0.185,0.086,0.458,0.179,0.817,0.277
			c0.361,0.099,0.85,0.226,1.469,0.38c0.756,0.181,1.41,0.369,1.965,0.567s1.016,0.443,1.384,0.734
			c0.37,0.292,0.646,0.648,0.825,1.069c0.182,0.421,0.271,0.945,0.271,1.571c0,0.584-0.121,1.126-0.361,1.624
			c-0.241,0.498-0.58,0.932-1.018,1.301c-0.438,0.37-0.969,0.659-1.592,0.869c-0.623,0.21-1.32,0.315-2.094,0.315
			c-3.228,0-5.022-1.391-5.384-4.174h3.093c0.162,1.065,0.918,1.598,2.266,1.598c0.67,0,1.18-0.129,1.527-0.387
			s0.522-0.571,0.522-0.941c0-0.171-0.038-0.315-0.11-0.431c-0.073-0.116-0.217-0.224-0.432-0.322s-0.512-0.2-0.889-0.303
			c-0.378-0.104-0.868-0.231-1.469-0.387c-0.738-0.18-1.374-0.362-1.906-0.547c-0.533-0.185-0.971-0.413-1.313-0.683
			c-0.345-0.271-0.601-0.607-0.767-1.011c-0.168-0.403-0.251-0.915-0.251-1.533c0-0.532,0.11-1.028,0.334-1.488
			c0.224-0.459,0.541-0.858,0.954-1.198c0.412-0.339,0.91-0.605,1.494-0.799s1.236-0.29,1.957-0.29c3.135,0,4.814,1.25,5.037,3.749
			H572.392z"/>
	</g>
</g>
<g>
	<g>
		<path fill="#8DC63F" d="M74.232,427.508c-1.875,1.246-3.566,2.508-5.386,3.551c-3.559,2.045-7.152,4.079-11.491,3.78
			c-0.556-0.038-1.145-0.075-1.65-0.278c-1.349-0.548-2.688-1.269-2.5-2.999c0.199-1.825,1.831-1.81,3.176-2.211
			c2.594-0.775,5.336-1.348,7.667-2.634c3.01-1.658,5.736-3.863,8.458-6c0.728-0.569,1.296-1.704,1.41-2.643
			c0.911-7.554,3.099-14.707,7.752-20.738c3.572-4.627,7.705-8.884,14.01-9.901c3.325-0.536,5.622,1.004,6.45,4.36
			c0.926,3.76-0.035,7.036-1.966,10.281c-4.57,7.68-11.024,13.568-17.83,19.13c-1.305,1.065-1.887,2.227-1.627,3.845
			c0.244,1.526,0.321,3.112,0.799,4.564c1.269,3.862,4.511,5.209,8.248,3.56c4.382-1.935,7.198-5.614,10.078-9.19
			c1.725-2.146,3.258-4.446,4.977-6.599c0.923-1.153,1.719-2.641,3.746-2.119c0.309,0.078,1.099-0.95,1.367-1.591
			c2.103-5.015,5.097-9.464,8.837-13.344c2.041-2.118,4.435-3.951,6.88-5.604c3.21-2.171,6.802-3.064,10.907-1.656
			c0.399-1.612,0.749-3.021,1.099-4.431c2.279-9.21,4.075-18.581,8.806-26.981c0.645-1.146,1.423-2.421,2.484-3.076
			c1.4-0.866,3.291-1.874,4.707-1.574c2.499,0.525,4.253,2.457,4.437,5.287c0.069,1.054,0.037,2.12-0.051,3.174
			c-0.468,5.555-0.532,11.188-1.549,16.643c-2.015,10.814-5.065,21.342-10.638,30.993c-3.115,5.395-2.735,9.266,0.877,12.82
			c2.024,1.994,3.169,2.189,5.226,0.258c1.937-1.822,3.98-3.751,5.23-6.042c2.591-4.74,4.848-9.682,6.931-14.672
			c1.48-3.542,2.116-4.159,5.769-3.435c1.778,0.352,2.552,1.482,2.298,3.358c-0.639,4.745-1.429,9.477-1.853,14.241
			c-0.198,2.213,0.165,4.514,0.548,6.728c0.361,2.092,1.726,3.11,3.985,3.379c6.56,0.771,11.66-2.176,16.317-6.18
			c0.756-0.647,1.046-2.14,1.093-3.259c0.285-6.693-0.061-13.452,0.758-20.071c1.009-8.153,2.863-16.21,4.527-24.271
			c0.952-4.613,3.225-8.38,7.846-10.332c2.3-0.972,4.743-0.17,5.397,2.273c0.836,3.126,1.537,6.32,1.926,9.529
			c1.399,11.544-0.278,22.577-5.638,33.017c-2.18,4.248-3.589,8.855-6.931,12.514c-1.866,2.043-0.734,5.144,1.963,5.859
			c5.082,1.349,10.164,1.8,14.266-2.4c2.838-2.906,4.272-6.665,4.829-10.604c0.319-2.263-0.135-4.638-0.292-6.958
			c-0.032-0.468-0.15-1.096-0.468-1.352c-2.233-1.795-0.867-3.665,0.096-5.23c0.393-0.638,1.928-0.775,2.94-0.765
			c0.685,0.007,1.455,0.561,2.033,1.05c2.752,2.33,5.996,2.522,9.39,2.479c2.017-0.026,2.868-0.968,3.372-2.753
			c1.204-4.269,2.221-8.627,3.868-12.724c1.91-4.757,4.281-9.345,6.699-13.874c2.297-4.298,6.671-5.385,10.995-6.305
			c1.239-0.263,3.641,1.925,3.803,3.489c0.179,1.727,0.229,3.51,0.018,5.229c-1.42,11.521-7.283,20.593-16.508,27.179
			c-3.851,2.748-4.171,6.172-4.632,9.921c-0.76,6.196,0.499,12.073,3.141,17.707c0.701,1.497,1.764,2.072,3.201,1.64
			c1.675-0.506,3.441-1.056,4.812-2.066c0.74-0.545,1.03-2.099,1.022-3.191c-0.068-9.708,2.825-18.247,10.144-24.831
			c1.791-1.612,4.366-2.467,6.711-3.308c1.691-0.604,3.801,0.925,4.061,2.773c0.866,6.176,1.007,12.266-2.796,17.725
			c-2.252,3.234-4.482,6.482-6.689,9.748c-0.465,0.688-0.779,1.478-1.434,2.747c2.048-0.096,3.737,0.081,5.297-0.289
			c8.124-1.927,15.202-5.977,21.544-11.287c2.25-1.883,4.148-4.197,6.124-6.389c1.425-1.58,3.037-1.919,4.643-0.767
			c1.481,1.061,1.823,2.48,0.299,4.188c-2.426,2.723-5.043,5.337-7.88,7.618c-6.199,4.98-12.909,9.131-20.725,11.153
			c-4.897,1.268-9.617,1.213-14.125-1.549c-0.749-0.46-2.163-0.328-3.063,0.039c-3.299,1.347-6.517,2.536-10.236,1.849
			c-2.172-0.401-3.606-1.491-4.706-3.207c-4.061-6.328-5.867-13.256-5.426-20.766c0.086-1.48,0.121-2.963,0.162-4.445
			c0.003-0.123-0.112-0.248-0.151-0.33c-2.676-0.142-5.326-0.283-8.389-0.447c-0.227,1.607-0.863,3.363-0.637,5
			c1.035,7.499-4.55,16.72-12.66,19.198c-6.174,1.887-12.153,1.266-17.581-2.478c-1.083-0.746-1.941-1.819-2.681-2.53
			c-3.554,1.647-6.921,3.837-10.604,4.73c-3.528,0.856-7.434,0.796-11.078,0.354c-4.354-0.526-7.314-4.065-8.078-8.422
			c-0.227-1.288-0.441-2.579-0.67-3.934c-1.934,2.321-3.548,4.671-5.581,6.572c-1.743,1.629-3.8,3.311-6.014,3.964
			c-3.902,1.151-7.136-0.913-9.829-3.638c-1.281-1.296-2.343-2.808-3.41-4.105c-3.253,2.982-6.444,6.063-9.806,8.947
			c-3.531,3.026-7.779,4.595-12.36,3.822c-5.111-0.862-8.102-3.239-9.141-9.133c-0.159-0.891-0.299-1.785-0.463-2.77
			c-2.652,3.098-5.018,6.27-7.8,9.018c-4.656,4.599-10.207,6.493-16.666,4.187c-3.796-1.355-6.48-3.914-7.815-7.779
			C74.859,429.594,74.588,428.648,74.232,427.508z M136.23,405.693c0.045-0.003,0.09-0.004,0.132-0.006
			c0-1.484,0.112-2.979-0.031-4.449c-0.146-1.514,0.939-3.402-0.918-4.459c-2.042-1.161-3.627,0.337-5.251,1.252
			c-0.734,0.413-1.407,0.947-2.062,1.482c-6.228,5.103-10.397,11.587-13.005,19.169c-1.113,3.237-1.208,6.471-0.68,9.788
			c0.625,3.925,2.202,4.584,6.41,3.522c0.459-0.117,0.859-0.474,1.284-0.719c5.64-3.234,9.935-7.883,13.567-13.16
			c0.696-1.009,0.976-2.489,0.979-3.753C136.669,411.473,136.392,408.584,136.23,405.693z M198.575,413.989
			c7.194-13.934,11.843-27.81,8.338-43.455C202.092,374.614,198.112,404.58,198.575,413.989z M142.992,404.779
			c6.657-12.872,8.676-26.768,9.186-41.003C146.361,376.817,142.625,390.336,142.992,404.779z M245.469,399.492
			c0.214,0.086,0.43,0.168,0.646,0.253c7.028-7.213,11.406-15.762,13.192-25.617c-0.306-0.242-0.613-0.484-0.919-0.727
			c-1.105,1.044-2.592,1.893-3.25,3.167c-2.536,4.926-4.917,9.94-7.13,15.019C246.909,394.113,246.301,396.852,245.469,399.492z
			 M82.228,413.25c1.758-1.717,3.331-3.194,4.841-4.733c3.517-3.589,6.72-7.429,8.692-12.11c0.496-1.177,0.544-2.543,0.86-4.132
			C89.004,395.239,82.432,406.661,82.228,413.25z M270.322,406.892c-6.663,5.798-8.059,13.56-10.183,21.422
			C265.095,425.631,271.027,413.106,270.322,406.892z"/>
	</g>
	<g>
		<path fill="none" stroke="#39B54A" stroke-width="2.1222" stroke-miterlimit="10" d="M76.154,429.236
			c-1.874,1.246-3.566,2.508-5.385,3.551c-3.56,2.043-7.151,4.077-11.491,3.78c-0.556-0.038-1.145-0.075-1.65-0.278
			c-1.35-0.548-2.689-1.269-2.501-3c0.2-1.824,1.833-1.809,3.178-2.211c2.593-0.774,5.335-1.348,7.667-2.633
			c3.009-1.658,5.737-3.864,8.456-6c0.728-0.57,1.297-1.703,1.411-2.643c0.911-7.554,3.099-14.707,7.753-20.738
			c3.572-4.627,7.705-8.885,14.01-9.901c3.325-0.536,5.622,1.003,6.449,4.359c0.926,3.76-0.035,7.036-1.966,10.283
			c-4.57,7.679-11.024,13.566-17.83,19.128c-1.304,1.066-1.886,2.227-1.627,3.845c0.245,1.527,0.321,3.112,0.798,4.565
			c1.269,3.862,4.511,5.209,8.249,3.56c4.381-1.936,7.197-5.614,10.077-9.191c1.727-2.146,3.259-4.448,4.976-6.598
			c0.923-1.153,1.72-2.641,3.747-2.122c0.309,0.081,1.098-0.947,1.368-1.591c2.103-5.012,5.097-9.461,8.836-13.341
			c2.04-2.118,4.435-3.951,6.88-5.604c3.212-2.171,6.801-3.064,10.907-1.656c0.4-1.612,0.75-3.021,1.099-4.432
			c2.279-9.209,4.075-18.58,8.805-26.981c0.645-1.146,1.423-2.42,2.485-3.075c1.4-0.866,3.291-1.875,4.708-1.575
			c2.498,0.526,4.253,2.458,4.436,5.288c0.069,1.054,0.038,2.12-0.052,3.173c-0.467,5.556-0.53,11.188-1.548,16.644
			c-2.015,10.815-5.065,21.342-10.638,30.992c-3.115,5.395-2.734,9.266,0.876,12.821c2.025,1.994,3.17,2.19,5.226,0.258
			c1.939-1.823,3.982-3.753,5.232-6.042c2.59-4.74,4.847-9.682,6.931-14.672c1.479-3.544,2.114-4.16,5.768-3.436
			c1.778,0.352,2.551,1.48,2.298,3.359c-0.639,4.744-1.429,9.477-1.853,14.241c-0.197,2.213,0.166,4.514,0.548,6.727
			c0.363,2.093,1.726,3.111,3.986,3.378c6.56,0.771,11.66-2.173,16.317-6.179c0.755-0.649,1.045-2.139,1.092-3.26
			c0.286-6.692-0.06-13.45,0.758-20.069c1.01-8.153,2.863-16.21,4.527-24.271c0.953-4.612,3.225-8.379,7.847-10.331
			c2.301-0.972,4.743-0.17,5.397,2.272c0.836,3.127,1.538,6.32,1.926,9.53c1.398,11.544-0.278,22.577-5.638,33.017
			c-2.18,4.246-3.59,8.854-6.932,12.514c-1.867,2.043-0.734,5.144,1.964,5.859c5.083,1.349,10.164,1.798,14.265-2.402
			c2.839-2.904,4.272-6.663,4.831-10.604c0.318-2.262-0.137-4.636-0.294-6.958c-0.03-0.467-0.15-1.096-0.468-1.352
			c-2.232-1.795-0.867-3.665,0.097-5.229c0.394-0.639,1.928-0.774,2.94-0.765c0.686,0.007,1.456,0.561,2.035,1.049
			c2.752,2.33,5.994,2.523,9.39,2.48c2.017-0.026,2.868-0.968,3.371-2.752c1.205-4.27,2.222-8.628,3.869-12.726
			c1.91-4.756,4.28-9.345,6.698-13.873c2.297-4.298,6.672-5.387,10.995-6.305c1.239-0.264,3.642,1.925,3.803,3.489
			c0.18,1.726,0.228,3.509,0.017,5.229c-1.419,11.521-7.283,20.593-16.508,27.178c-3.851,2.75-4.171,6.173-4.632,9.922
			c-0.76,6.196,0.501,12.073,3.141,17.707c0.702,1.496,1.765,2.071,3.201,1.639c1.675-0.505,3.441-1.055,4.814-2.065
			c0.739-0.545,1.028-2.099,1.021-3.192c-0.068-9.708,2.827-18.246,10.144-24.833c1.791-1.609,4.366-2.465,6.711-3.305
			c1.689-0.605,3.8,0.925,4.061,2.774c0.867,6.175,1.007,12.265-2.796,17.724c-2.252,3.234-4.483,6.482-6.688,9.748
			c-0.466,0.688-0.78,1.478-1.435,2.745c2.049-0.094,3.737,0.083,5.296-0.287c8.124-1.928,15.203-5.977,21.546-11.287
			c2.249-1.883,4.147-4.196,6.124-6.39c1.422-1.579,3.037-1.918,4.641-0.768c1.48,1.063,1.823,2.482,0.3,4.19
			c-2.426,2.721-5.042,5.337-7.88,7.618c-6.198,4.98-12.908,9.131-20.725,11.153c-4.897,1.267-9.618,1.213-14.124-1.55
			c-0.749-0.459-2.164-0.327-3.062,0.039c-3.3,1.348-6.518,2.537-10.239,1.85c-2.171-0.401-3.604-1.493-4.705-3.207
			c-4.061-6.329-5.866-13.256-5.426-20.766c0.086-1.48,0.12-2.963,0.163-4.445c0.003-0.124-0.111-0.248-0.149-0.329
			c-2.678-0.143-5.327-0.284-8.39-0.448c-0.226,1.607-0.864,3.362-0.638,5c1.036,7.499-4.549,16.72-12.658,19.197
			c-6.175,1.887-12.155,1.267-17.582-2.477c-1.083-0.746-1.941-1.819-2.681-2.53c-3.554,1.647-6.922,3.837-10.604,4.729
			c-3.528,0.856-7.435,0.797-11.077,0.355c-4.355-0.526-7.317-4.065-8.081-8.422c-0.225-1.288-0.439-2.579-0.669-3.933
			c-1.935,2.32-3.548,4.67-5.581,6.57c-1.743,1.63-3.799,3.312-6.014,3.965c-3.902,1.149-7.135-0.913-9.829-3.638
			c-1.281-1.296-2.343-2.808-3.409-4.105c-3.253,2.981-6.444,6.063-9.807,8.945c-3.53,3.028-7.778,4.597-12.359,3.824
			c-5.112-0.862-8.102-3.239-9.143-9.134c-0.157-0.89-0.299-1.784-0.461-2.769c-2.654,3.098-5.018,6.27-7.801,9.019
			c-4.656,4.599-10.206,6.492-16.665,4.186c-3.796-1.354-6.48-3.914-7.815-7.779C76.781,431.322,76.511,430.377,76.154,429.236z
			 M138.152,407.423c0.045-0.003,0.089-0.005,0.132-0.007c0-1.484,0.113-2.979-0.031-4.449c-0.147-1.513,0.939-3.401-0.92-4.46
			c-2.039-1.16-3.625,0.338-5.251,1.254c-0.733,0.412-1.407,0.946-2.061,1.482c-6.228,5.103-10.397,11.586-13.004,19.169
			c-1.113,3.237-1.208,6.47-0.68,9.788c0.625,3.925,2.202,4.584,6.409,3.521c0.459-0.117,0.859-0.472,1.285-0.718
			c5.639-3.235,9.935-7.885,13.568-13.16c0.695-1.011,0.974-2.49,0.978-3.754C138.591,413.2,138.312,410.31,138.152,407.423z
			 M200.498,415.718c7.194-13.933,11.843-27.81,8.337-43.454C204.015,376.344,200.034,406.309,200.498,415.718z M144.914,406.507
			c6.655-12.871,8.675-26.767,9.185-41.003C148.283,378.547,144.547,392.064,144.914,406.507z M247.39,401.221
			c0.215,0.086,0.432,0.168,0.646,0.253c7.029-7.213,11.408-15.762,13.194-25.618c-0.307-0.241-0.614-0.484-0.921-0.727
			c-1.104,1.045-2.592,1.894-3.249,3.168c-2.536,4.926-4.917,9.938-7.129,15.02C248.833,395.842,248.222,398.58,247.39,401.221z
			 M84.149,414.979c1.759-1.717,3.332-3.194,4.84-4.733c3.518-3.589,6.722-7.43,8.693-12.11c0.496-1.177,0.544-2.543,0.859-4.132
			C90.927,396.969,84.353,408.39,84.149,414.979z M272.245,408.621c-6.663,5.798-8.06,13.559-10.183,21.422
			C267.016,427.359,272.95,414.834,272.245,408.621z"/>
	</g>
	<path fill="#F9ED32" d="M182.782,363.125c0,0,6.97-14.318,16.33-7.443c0,0,7.011,8.414-3.16,15.937c0,0,11.203,2.723,7.324,11.991
		c0,0-3.277,11.396-12.639,4.522c0,0,1.141,12.271-3.172,13.425c-4.313,1.152-13.481,3.95-11.104-10.635
		c0,0-8.004,11.82-12.723,9.106c-4.719-2.718-12.064-10.605-2.575-17.257c0,0-12.967-1.566-8.118-13.152
		c0,0,6.732-8.203,13.828-2.78c0,0-4.543-16.846,4.033-17.773C179.383,348.139,181.653,353.363,182.782,363.125z"/>
	<circle fill="#F37240" cx="179.292" cy="378.039" r="7.518"/>
	<g>
		<path fill="#F3D311" d="M186.123,361.94c1.806-4.519,7.812-7.977,12.604-6.818c2.966,0.718,4.397,3.941,3.963,6.737
			c-0.44,2.826-2.764,5.09-5.449,5.823c-0.802,0.219-0.897,1.283-0.354,1.796c3.279,3.111,8.234,6.734,8.714,11.59
			c0.256,2.599-1.848,4.603-4.163,5.229c-2.812,0.762-6.166-0.124-8.939-0.667c-0.792-0.154-1.468,0.627-1.209,1.389
			c1.572,4.611-0.021,9.528-5.194,10.575c-5.025,1.017-8.227-2.794-7.655-7.61c0.144-1.217-1.354-1.705-1.989-0.682
			c-2.75,4.417-8.267,8.995-13.068,4.477c-4.139-3.894-1.741-9.527,2.52-12.005c0.788-0.458,0.514-1.797-0.383-1.923
			c-4.474-0.626-11.045-3.501-9.685-9.078c1.581-6.487,9.68-4.768,14.407-3.831c0.716,0.142,1.26-0.438,1.264-1.119
			c0.023-4.594-1.645-10.957,1.366-14.927c2.212-2.917,5.959-1.231,7.802,1.03c2.159,2.649,3.089,6.287,3.44,9.614
			c0.143,1.357,2.261,1.21,2.117-0.155c-0.652-6.178-4.638-16.704-12.748-13.557c-6.416,2.487-4.072,13.046-4.094,18.15
			c0.419-0.374,0.843-0.747,1.264-1.12c-6.486-1.284-14.443-2.272-16.901,5.502c-2.118,6.687,6.044,10.831,11.353,11.572
			c-0.126-0.642-0.255-1.283-0.383-1.924c-5.604,3.26-7.565,10.104-2.966,15.139c1.933,2.115,4.942,3.021,7.726,2.485
			c3.995-0.767,6.822-4.1,8.862-7.382c-0.663-0.227-1.326-0.453-1.99-0.68c-0.721,6.072,3.197,11.038,9.584,10.19
			c6.752-0.896,9.39-7.463,7.353-13.438c-0.403,0.463-0.806,0.926-1.208,1.388c5.641,1.104,13.307,2.27,15.443-4.72
			c1.83-5.991-5.561-11.616-9.239-15.104c-0.119,0.599-0.237,1.197-0.355,1.797c6.641-1.812,10.062-11.833,3.229-15.782
			c-5.852-3.381-14.588,1.2-16.94,7.084C183.72,362.252,185.615,363.209,186.123,361.94L186.123,361.94z"/>
	</g>
	<g>
		<path fill="#DD452A" d="M186.467,382.821c3.64-2.677,4.953-7.052,2-10.798c-2.516-3.192-7.073-4.414-10.638-2.299
			c-4.413,2.619-5.506,9.065-2.081,12.794c3.472,3.782,9.915,3.325,12.834-0.796c0.784-1.104-0.799-2.52-1.589-1.405
			c-2.31,3.26-6.633,3.457-9.569,0.876c-3.175-2.791-1.354-7.961,1.867-9.874c2.448-1.451,5.717-0.099,7.411,1.884
			c2.33,2.729,1.267,5.881-1.418,7.855C184.185,381.865,185.361,383.633,186.467,382.821L186.467,382.821z"/>
	</g>
</g>
</svg>
