<?xml version="1.0" encoding="utf-8"?>
<!-- Generator: Adobe Illustrator 16.0.0, SVG Export Plug-In . SVG Version: 6.00 Build 0)  -->
<!DOCTYPE svg PUBLIC "-//W3C//DTD SVG 1.1//EN" "http://www.w3.org/Graphics/SVG/1.1/DTD/svg11.dtd">
<svg version="1.1" id="Layer_1" xmlns="http://www.w3.org/2000/svg" xmlns:xlink="http://www.w3.org/1999/xlink" x="0px" y="0px"
	 width="1029.103px" height="390.039px" viewBox="0 0 1029.103 390.039" enable-background="new 0 0 1029.103 390.039"
	 xml:space="preserve">
<g>
	<g>
		<g>
			<circle fill="#FFDE17" cx="908.18" cy="46.536" r="8.128"/>
			<circle fill="#FFDE17" cx="919.634" cy="43.444" r="8.128"/>
			<circle fill="#FFDE17" cx="928.07" cy="51.787" r="8.128"/>
			<path fill="#FFDE17" d="M916.974,63.362c-0.048-4.486,3.552-8.166,8.041-8.215c4.488-0.051,8.168,3.549,8.215,8.037
				c0.052,4.488-3.547,8.168-8.036,8.218C920.706,71.452,917.024,67.852,916.974,63.362z"/>
			<circle fill="#FFDE17" cx="913.685" cy="66.491" r="8.128"/>
			<path fill="#FFDE17" d="M909.093,51.128c3.925,2.173,5.35,7.12,3.176,11.048c-2.172,3.93-7.119,5.353-11.046,3.178
				c-3.928-2.171-5.353-7.117-3.179-11.045C900.218,50.38,905.163,48.957,909.093,51.128z"/>
			<circle fill="#F7941E" cx="916.597" cy="54.952" r="7.049"/>
		</g>
		<g>
			<path d="M866.875,88.849h-27c0.138,11.116,5.663,17.331,12.912,17.331c5.109,0,8.148-1.174,11.464-3.107l0.621,1.105
				c-3.523,2.07-6.836,3.314-12.223,3.314c-7.458,0-14.225-6.283-14.225-18.92c0-12.016,6.422-18.852,14.362-18.852
				c8.219,0,14.155,6.629,14.155,18.369C866.942,88.366,866.942,88.573,866.875,88.849z M852.787,71.033
				c-6.975,0-12.637,5.801-12.912,16.573h25.618C865.284,76.833,860.105,71.033,852.787,71.033z"/>
			<path d="M901.747,106.733v-6.283c-2.97,4.004-7.183,7.043-12.568,7.043c-8.08,0-13.672-5.524-13.672-18.713
				c0-13.26,5.662-19.059,13.811-19.059c5.179,0,9.46,2.899,12.43,6.904V29.911l1.519-0.829v77.651H901.747z M901.747,78.766
				c-2.764-4.419-7.319-7.733-12.292-7.733c-7.733,0-12.429,5.454-12.429,17.747c0,12.084,4.833,17.4,12.429,17.4
				c4.902,0,9.393-3.177,12.292-7.664V78.766z"/>
			<path d="M915.765,106.733V70.481h1.519v36.252H915.765z"/>
			<path d="M931.301,29.082v47.683c2.971-4.006,7.183-7.043,12.567-7.043c8.08,0,13.675,5.523,13.675,18.713
				c0,13.258-5.662,19.059-13.81,19.059c-5.181,0-9.462-2.898-12.433-6.905v6.146h-1.516V29.911L931.301,29.082z M931.301,98.447
				c2.764,4.421,7.321,7.733,12.292,7.733c7.735,0,12.431-5.455,12.431-17.746c0-12.084-4.835-17.401-12.431-17.401
				c-4.902,0-9.39,3.177-12.292,7.664V98.447z"/>
			<path d="M968.04,106.733V29.911l1.52-0.829v77.651H968.04z"/>
			<path d="M1008.506,88.849h-26.999c0.136,11.116,5.662,17.331,12.911,17.331c5.11,0,8.149-1.174,11.462-3.107l0.623,1.105
				c-3.523,2.07-6.836,3.314-12.221,3.314c-7.46,0-14.227-6.283-14.227-18.92c0-12.016,6.42-18.852,14.362-18.852
				c8.219,0,14.156,6.629,14.156,18.369C1008.575,88.366,1008.575,88.573,1008.506,88.849z M994.418,71.033
				c-6.975,0-12.635,5.801-12.911,16.573h25.617C1006.917,76.833,1001.738,71.033,994.418,71.033z"/>
		</g>
		<rect x="837.326" y="114.944" fill="none" width="173.215" height="60.423"/>
		<text transform="matrix(1 0 0 1 837.3267 135.0815)"><tspan x="0" y="0" font-family="'Interstate-ExtraLight'" font-size="27.6224">arrange</tspan><tspan x="97.01" y="0" font-family="'Interstate-ExtraLight'" font-size="27.6224">-</tspan><tspan x="0" y="33.146" font-family="'Interstate-ExtraLight'" font-size="27.6224">ments</tspan></text>
	</g>
	<g>
		<g>
			<path fill="#8DC63F" d="M120.452,63.313c0,0-7.737-0.034-7.781-5.021c0,0,3.582-1.285,6.029,1.357c0,0-0.262-4.176,4.094-5.659
				C122.793,53.99,125.215,59.504,120.452,63.313"/>
			<path fill="#CD3D57" d="M113.887,65.624c3.145,7.486,10.76,11.15,12.439,10.412c1.558-0.684,3.782-7.668,0.494-15.807
				C125.446,56.828,112.918,63.317,113.887,65.624z"/>
		</g>
		<path fill="#8DC63F" d="M116.405,151.526c0,0,8.482,1.143,12.243-6.336c3.761-7.478-1.401-14.29-1.401-14.29L116.405,151.526z"/>
		<path fill="#8DC63F" d="M75.356,69.428c0,0,8.482,1.143,12.244-6.336c3.76-7.478-1.402-14.289-1.402-14.289L75.356,69.428z"/>
		<g>
			<path fill="#FFDE17" d="M69.008,176.719c1.027,0.275,2.067,0.066,2.888-0.48c-0.077,0.984,0.251,1.996,0.995,2.758
				c1.369,1.404,3.617,1.433,5.021,0.063c0.761-0.743,1.114-1.743,1.063-2.729c0.807,0.571,1.844,0.808,2.88,0.558
				c1.907-0.459,3.081-2.377,2.622-4.283c-0.249-1.035-0.928-1.85-1.801-2.31c0.902-0.401,1.635-1.173,1.951-2.19
				c0.58-1.873-0.467-3.861-2.34-4.442c-1.274-0.396-2.602-0.036-3.502,0.822c0.309-1.208-0.027-2.544-0.998-3.462
				c-1.424-1.349-3.672-1.286-5.02,0.139c-0.731,0.771-1.045,1.785-0.954,2.768c-0.829-0.539-1.874-0.733-2.899-0.443
				c-1.888,0.535-2.983,2.498-2.449,4.385c0.289,1.023,1,1.812,1.891,2.235c-0.886,0.437-1.588,1.236-1.863,2.266
				C65.987,174.268,67.113,176.213,69.008,176.719z"/>
			<circle fill="#F7941E" cx="75.372" cy="170.277" r="3.156"/>
		</g>
		<g>
			<path fill="#FFDE17" d="M56.302,67.745c1.027,0.275,2.067,0.067,2.888-0.48c-0.077,0.984,0.251,1.997,0.995,2.759
				c1.369,1.403,3.617,1.433,5.021,0.063c0.762-0.744,1.115-1.744,1.064-2.729c0.807,0.57,1.844,0.807,2.879,0.557
				c1.907-0.459,3.081-2.377,2.623-4.283c-0.25-1.034-0.928-1.85-1.801-2.31c0.902-0.4,1.635-1.173,1.951-2.188
				c0.58-1.875-0.467-3.863-2.341-4.444c-1.273-0.396-2.601-0.036-3.501,0.823c0.309-1.209-0.028-2.543-0.998-3.463
				c-1.425-1.348-3.672-1.286-5.02,0.139c-0.732,0.771-1.045,1.785-0.955,2.768c-0.828-0.538-1.873-0.732-2.898-0.443
				c-1.889,0.535-2.983,2.498-2.45,4.385c0.29,1.024,1.001,1.812,1.891,2.236c-0.886,0.436-1.587,1.235-1.862,2.266
				C53.282,65.293,54.407,67.239,56.302,67.745z"/>
			<circle fill="#F7941E" cx="62.667" cy="61.304" r="3.156"/>
		</g>
		<g>
			<path fill="#8DC63F" d="M105.577,161.708c0,0,0.035-7.772,5.043-7.816c0,0,1.293,3.598-1.362,6.057c0,0,4.194-0.264,5.684,4.111
				C114.941,164.059,109.402,166.493,105.577,161.708"/>
			<path fill="#CD3D57" d="M103.255,155.114c-7.519,3.158-11.198,10.807-10.458,12.493c0.688,1.565,7.701,3.8,15.876,0.497
				C112.09,166.723,105.573,154.141,103.255,155.114z"/>
		</g>
		<path fill="#F7941E" d="M39.661,157.215c0,0-1.143,8.482,6.335,12.242c7.478,3.761,14.29-1.4,14.29-1.4L39.661,157.215z"/>
		<g>
			<path fill="#8DC63F" d="M100.202,66.905c0,0,0.035-7.771,5.043-7.816c0,0,1.291,3.599-1.363,6.057c0,0,4.194-0.262,5.684,4.111
				C109.565,69.256,104.026,71.69,100.202,66.905"/>
			<path fill="#CD3D57" d="M97.88,60.311c-7.519,3.158-11.198,10.809-10.458,12.494c0.688,1.564,7.701,3.799,15.876,0.497
				C106.714,71.921,100.197,59.338,97.88,60.311z"/>
		</g>
		<path fill="#F7941E" d="M34.286,62.413c0,0-1.143,8.482,6.335,12.244c7.478,3.76,14.29-1.402,14.29-1.402L34.286,62.413z"/>
		<path fill="#8DC63F" d="M72.341,138.965c0,0-8.482-1.143-12.243,6.336c-3.76,7.479,1.402,14.29,1.402,14.29L72.341,138.965z"/>
		<g>
			<path fill="#FFDE17" d="M91.395,140.648c-1.027-0.274-2.068-0.065-2.888,0.481c0.077-0.984-0.251-1.997-0.995-2.758
				c-1.369-1.404-3.617-1.434-5.021-0.063c-0.761,0.741-1.114,1.743-1.063,2.728c-0.806-0.57-1.844-0.807-2.88-0.557
				c-1.906,0.459-3.08,2.377-2.621,4.283c0.249,1.033,0.928,1.85,1.8,2.31c-0.901,0.401-1.635,1.173-1.95,2.188
				c-0.581,1.874,0.466,3.864,2.34,4.445c1.274,0.395,2.601,0.035,3.502-0.823c-0.309,1.208,0.027,2.544,0.998,3.462
				c1.424,1.349,3.672,1.286,5.02-0.139c0.73-0.771,1.045-1.785,0.953-2.768c0.829,0.539,1.875,0.732,2.899,0.441
				c1.889-0.533,2.984-2.496,2.45-4.383c-0.29-1.024-1.001-1.812-1.891-2.236c0.887-0.436,1.588-1.236,1.863-2.265
				C94.416,143.1,93.29,141.155,91.395,140.648z"/>
			<circle fill="#F7941E" cx="85.032" cy="147.091" r="3.156"/>
		</g>
		<g>
			<path fill="#8DC63F" d="M47.497,141.489c0,0-0.035,7.771-5.043,7.817c0,0-1.293-3.599,1.362-6.058c0,0-4.194,0.264-5.684-4.111
				C38.132,139.137,43.671,136.705,47.497,141.489"/>
			<path fill="#CD3D57" d="M49.817,148.083c7.52-3.158,11.199-10.808,10.458-12.492c-0.687-1.566-7.701-3.801-15.875-0.498
				C40.983,136.473,47.5,149.055,49.817,148.083z"/>
		</g>
		<path fill="#F7941E" d="M113.413,145.981c0,0,1.143-8.481-6.336-12.243c-7.477-3.76-14.289,1.402-14.289,1.402L113.413,145.981z"
			/>
		<g>
			<path fill="#8DC63F" d="M29.478,146.387c0,0,7.772,0.035,7.817,5.043c0,0-3.599,1.293-6.057-1.363c0,0,0.262,4.194-4.112,5.685
				C27.126,155.751,24.694,150.212,29.478,146.387"/>
			<path fill="#CD3D57" d="M36.073,144.065c-3.159-7.518-10.809-11.197-12.494-10.457c-1.565,0.688-3.8,7.701-0.497,15.875
				C24.461,152.901,37.045,146.383,36.073,144.065z"/>
		</g>
		<path fill="#8DC63F" d="M33.905,58.198c0,0-8.445-1.139-12.188,6.307c-3.745,7.445,1.396,14.228,1.396,14.228L33.905,58.198z"/>
		<g>
			<path fill="#FFDE17" d="M81.096,33.113c-1.023-0.273-2.061-0.067-2.877,0.479c0.078-0.981-0.248-1.988-0.989-2.747
				c-1.364-1.398-3.603-1.427-5-0.062c-0.758,0.738-1.11,1.734-1.059,2.715c-0.804-0.567-1.837-0.803-2.866-0.555
				c-1.9,0.459-3.068,2.367-2.611,4.266c0.248,1.029,0.924,1.841,1.792,2.298c-0.897,0.4-1.628,1.169-1.942,2.181
				c-0.578,1.865,0.465,3.847,2.33,4.424c1.269,0.394,2.59,0.035,3.486-0.818c-0.307,1.203,0.027,2.533,0.994,3.447
				c1.418,1.342,3.655,1.281,4.998-0.139c0.728-0.768,1.039-1.777,0.949-2.755c0.825,0.536,1.866,0.729,2.887,0.44
				c1.879-0.532,2.971-2.486,2.439-4.365c-0.289-1.02-0.997-1.804-1.882-2.227c0.881-0.434,1.579-1.23,1.854-2.255
				C84.102,35.553,82.982,33.618,81.096,33.113z"/>
			<circle fill="#F7941E" cx="74.76" cy="39.527" r="3.143"/>
		</g>
		<g>
			<path fill="#8DC63F" d="M44.686,48.06c0,0-0.035,7.737-5.021,7.782c0,0-1.287-3.583,1.356-6.031c0,0-4.176,0.262-5.659-4.093
				C35.363,45.718,40.877,43.295,44.686,48.06"/>
			<path fill="#CD3D57" d="M46.997,54.625c7.486-3.146,11.15-10.762,10.413-12.441c-0.685-1.558-7.668-3.781-15.808-0.494
				C38.202,43.065,44.69,55.593,46.997,54.625z"/>
		</g>
		<path fill="#F7941E" d="M110.315,52.532c0,0,1.137-8.445-6.309-12.189c-7.444-3.743-14.227,1.396-14.227,1.396L110.315,52.532z"/>
		<g>
			<path fill="#3C2415" d="M37.502,100.362c-0.274,1.187-0.703,2.236-1.29,3.148c-0.585,0.914-1.292,1.682-2.121,2.305
				c-0.829,0.625-1.765,1.097-2.808,1.416c-1.042,0.318-2.156,0.479-3.343,0.479c-1.597,0-3.054-0.258-4.37-0.775
				c-1.315-0.518-2.445-1.268-3.389-2.248c-0.942-0.981-1.673-2.18-2.189-3.594c-0.518-1.414-0.777-3.02-0.777-4.815
				c0-1.765,0.252-3.35,0.754-4.757c0.502-1.408,1.209-2.605,2.122-3.595c0.913-0.988,2.001-1.745,3.263-2.271
				c1.264-0.524,2.662-0.787,4.199-0.787c1.582,0,3.008,0.259,4.279,0.776c1.27,0.517,2.354,1.263,3.252,2.235
				c0.896,0.974,1.588,2.168,2.075,3.583s0.73,3.021,0.73,4.814v1.711H22.875c0.273,1.72,0.863,3.01,1.769,3.869
				c0.905,0.858,2.003,1.289,3.297,1.289c0.411,0,0.825-0.062,1.243-0.184c0.419-0.12,0.807-0.3,1.164-0.536
				c0.357-0.235,0.67-0.525,0.936-0.866c0.267-0.343,0.461-0.741,0.582-1.198H37.502z M32.094,93.448
				c-0.35-1.338-0.92-2.342-1.711-3.012s-1.734-1.004-2.83-1.004c-1.08,0-2.023,0.334-2.83,1.004s-1.385,1.674-1.733,3.012H32.094z"
				/>
			<path fill="#3C2415" d="M55.597,106.043c-0.729,0.533-1.495,0.943-2.293,1.232s-1.646,0.434-2.544,0.434
				c-1.491,0-2.811-0.271-3.959-0.811c-1.148-0.539-2.111-1.304-2.887-2.293c-0.775-0.988-1.365-2.18-1.77-3.57
				c-0.402-1.393-0.604-2.933-0.604-4.621c0-1.795,0.239-3.403,0.719-4.826c0.479-1.422,1.141-2.632,1.984-3.629
				c0.846-0.996,1.842-1.761,2.99-2.293c1.148-0.533,2.384-0.799,3.707-0.799c0.867,0,1.689,0.1,2.465,0.297
				c0.776,0.197,1.506,0.486,2.19,0.867v-8.969h5.341v30.122h-5.341V106.043z M55.597,91.372c-1.384-1.293-2.858-1.939-4.427-1.939
				c-1.247,0-2.244,0.578-2.988,1.734c-0.746,1.156-1.119,2.906-1.119,5.248c0,2.221,0.35,3.891,1.05,5.008
				c0.7,1.119,1.673,1.678,2.921,1.678c1.598,0,3.119-0.95,4.563-2.854V91.372z"/>
			<path fill="#3C2415" d="M72.438,82.677h-5.34v-5.614h5.34V82.677z M72.438,107.185h-5.34V85.393h5.34V107.185z"/>
			<path fill="#3C2415" d="M83.961,86.488c1.43-1.08,3.043-1.62,4.838-1.62c1.461,0,2.762,0.27,3.902,0.81
				c1.141,0.541,2.103,1.302,2.886,2.282c0.784,0.981,1.377,2.165,1.78,3.549c0.403,1.385,0.605,2.92,0.605,4.609
				c0,1.75-0.24,3.34-0.719,4.77c-0.48,1.43-1.142,2.65-1.986,3.662c-0.844,1.012-1.836,1.791-2.977,2.339
				c-1.143,0.548-2.382,0.821-3.721,0.821c-0.913,0-1.738-0.096-2.476-0.285c-0.737-0.191-1.448-0.49-2.134-0.901v0.662h-5.362
				V77.063h5.362V86.488z M83.961,101.206c0.67,0.64,1.369,1.123,2.1,1.449c0.73,0.328,1.498,0.491,2.305,0.491
				c1.247,0,2.239-0.593,2.979-1.78c0.736-1.187,1.105-2.936,1.105-5.248c0-2.222-0.35-3.891-1.049-5.01
				c-0.7-1.117-1.666-1.676-2.898-1.676c-1.566,0-3.08,0.959-4.541,2.875V101.206z"/>
			<path fill="#3C2415" d="M108.218,107.185h-5.34V77.063h5.34V107.185z"/>
			<path fill="#3C2415" d="M133.411,100.362c-0.274,1.187-0.704,2.236-1.29,3.148c-0.585,0.914-1.294,1.682-2.122,2.305
				c-0.829,0.625-1.764,1.097-2.807,1.416c-1.042,0.318-2.156,0.479-3.342,0.479c-1.598,0-3.055-0.258-4.371-0.775
				s-2.445-1.268-3.389-2.248c-0.943-0.981-1.674-2.18-2.189-3.594c-0.518-1.414-0.776-3.02-0.776-4.815
				c0-1.765,0.251-3.35,0.753-4.757c0.502-1.408,1.209-2.605,2.122-3.595c0.913-0.988,2.001-1.745,3.263-2.271
				c1.264-0.524,2.662-0.787,4.199-0.787c1.582,0,3.008,0.259,4.279,0.776c1.269,0.517,2.353,1.263,3.251,2.235
				c0.897,0.974,1.589,2.168,2.077,3.583c0.485,1.415,0.73,3.021,0.73,4.814v1.711h-15.016c0.273,1.72,0.862,3.01,1.769,3.869
				c0.905,0.858,2.004,1.289,3.298,1.289c0.41,0,0.824-0.062,1.243-0.184c0.418-0.12,0.806-0.3,1.163-0.536
				c0.357-0.235,0.67-0.525,0.936-0.866c0.267-0.343,0.46-0.741,0.582-1.198H133.411z M128.002,93.448
				c-0.351-1.338-0.922-2.342-1.711-3.012c-0.791-0.67-1.734-1.004-2.83-1.004c-1.081,0-2.023,0.334-2.83,1.004
				s-1.385,1.674-1.734,3.012H128.002z"/>
			<path fill="#3C2415" d="M20.999,116.582c0.617,0,1.173,0.056,1.666,0.167c0.494,0.11,0.913,0.307,1.259,0.589
				s0.61,0.664,0.795,1.147c0.185,0.482,0.276,1.097,0.276,1.842v6.102H22.64v-0.504c-0.39,0.235-0.812,0.416-1.264,0.543
				c-0.453,0.129-0.938,0.192-1.454,0.192c-0.484,0-0.934-0.073-1.35-0.217s-0.777-0.347-1.082-0.609
				c-0.306-0.262-0.545-0.573-0.721-0.937c-0.174-0.361-0.262-0.762-0.262-1.197c0-2.329,1.916-3.493,5.749-3.493h0.383
				c-0.007-0.263-0.028-0.491-0.065-0.69c-0.037-0.197-0.115-0.365-0.237-0.504c-0.12-0.137-0.295-0.241-0.522-0.311
				c-0.229-0.071-0.533-0.105-0.916-0.105c-0.478,0-0.855,0.072-1.133,0.221c-0.279,0.146-0.469,0.426-0.57,0.836H16.77
				C17.052,117.606,18.461,116.582,20.999,116.582z M22.64,122.149h-0.694c-2.015,0-3.021,0.49-3.021,1.47
				c0,0.321,0.131,0.574,0.394,0.755c0.262,0.182,0.613,0.271,1.056,0.271c0.443,0,0.87-0.088,1.279-0.265
				c0.41-0.179,0.738-0.44,0.987-0.781V122.149z"/>
			<path fill="#3C2415" d="M33.11,119.168c-0.208-0.086-0.404-0.151-0.589-0.196c-0.185-0.042-0.438-0.064-0.761-0.064
				s-0.617,0.083-0.886,0.247s-0.533,0.418-0.795,0.759v6.515h-2.366v-9.613h2.366v0.553c0.585-0.523,1.225-0.786,1.923-0.786
				c0.127,0,0.279,0.011,0.458,0.03c0.178,0.021,0.394,0.058,0.649,0.111V119.168z"/>
			<path fill="#3C2415" d="M40.016,119.168c-0.209-0.086-0.404-0.151-0.59-0.196c-0.184-0.042-0.438-0.064-0.76-0.064
				s-0.617,0.083-0.886,0.247s-0.533,0.418-0.796,0.759v6.515H34.62v-9.613h2.365v0.553c0.584-0.523,1.225-0.786,1.924-0.786
				c0.127,0,0.279,0.011,0.457,0.03c0.179,0.021,0.395,0.058,0.65,0.111V119.168z"/>
			<path fill="#3C2415" d="M45.461,116.582c0.618,0,1.174,0.056,1.666,0.167c0.494,0.11,0.914,0.307,1.26,0.589
				c0.345,0.282,0.61,0.664,0.795,1.147c0.185,0.482,0.276,1.097,0.276,1.842v6.102h-2.355v-0.504
				c-0.39,0.235-0.811,0.416-1.265,0.543c-0.451,0.129-0.937,0.192-1.453,0.192c-0.483,0-0.934-0.073-1.35-0.217
				s-0.776-0.347-1.082-0.609c-0.306-0.262-0.545-0.573-0.72-0.937c-0.175-0.361-0.262-0.762-0.262-1.197
				c0-2.329,1.916-3.493,5.748-3.493h0.383c-0.007-0.263-0.028-0.491-0.065-0.69c-0.037-0.197-0.116-0.365-0.236-0.504
				c-0.121-0.137-0.296-0.241-0.523-0.311c-0.229-0.071-0.534-0.105-0.917-0.105c-0.476,0-0.854,0.072-1.132,0.221
				c-0.279,0.146-0.469,0.426-0.568,0.836h-2.427C41.516,117.606,42.925,116.582,45.461,116.582z M47.103,122.149h-0.694
				c-2.014,0-3.021,0.49-3.021,1.47c0,0.321,0.131,0.574,0.393,0.755c0.262,0.182,0.614,0.271,1.058,0.271
				c0.442,0,0.869-0.088,1.277-0.265c0.41-0.179,0.738-0.44,0.987-0.781V122.149z"/>
			<path fill="#3C2415" d="M54.543,117.377c0.684-0.529,1.429-0.796,2.234-0.796c2.275,0,3.412,1.226,3.412,3.675v6.172h-2.395
				v-6.102c0-0.597-0.097-1.023-0.288-1.278c-0.19-0.255-0.509-0.383-0.951-0.383c-0.645,0-1.315,0.39-2.013,1.169v6.594h-2.367
				v-9.613h2.367V117.377z"/>
			<path fill="#3C2415" d="M65.133,127.324c0.142,0.665,0.634,0.997,1.479,0.997c0.571,0,1.02-0.191,1.345-0.574
				c0.325-0.382,0.518-0.98,0.578-1.791c-0.321,0.234-0.656,0.41-1.001,0.527c-0.347,0.117-0.717,0.177-1.112,0.177
				c-0.658,0-1.24-0.12-1.747-0.358c-0.507-0.236-0.931-0.574-1.273-1.012c-0.343-0.436-0.603-0.961-0.78-1.574
				c-0.178-0.615-0.267-1.294-0.267-2.039c0-0.793,0.106-1.501,0.316-2.129c0.212-0.628,0.504-1.161,0.876-1.602
				c0.373-0.439,0.812-0.776,1.319-1.011c0.507-0.235,1.052-0.354,1.636-0.354c0.383,0,0.745,0.044,1.088,0.132
				c0.342,0.087,0.664,0.214,0.966,0.382v-0.28h2.356v8.857c0,3.107-1.416,4.662-4.25,4.662c-0.576,0-1.098-0.07-1.564-0.207
				s-0.873-0.336-1.219-0.594c-0.345-0.259-0.621-0.574-0.83-0.945c-0.207-0.375-0.336-0.795-0.383-1.265H65.133z M68.556,119.452
				c-0.61-0.571-1.262-0.855-1.953-0.855c-0.55,0-0.989,0.255-1.319,0.765c-0.328,0.511-0.492,1.282-0.492,2.315
				c0,0.98,0.154,1.72,0.463,2.22c0.309,0.501,0.738,0.749,1.289,0.749c0.704,0,1.375-0.419,2.013-1.258V119.452z"/>
			<path fill="#3C2415" d="M82.026,123.417c-0.121,0.522-0.311,0.987-0.568,1.39c-0.259,0.402-0.57,0.742-0.937,1.016
				c-0.366,0.277-0.778,0.484-1.238,0.625c-0.46,0.142-0.951,0.212-1.475,0.212c-0.705,0-1.347-0.114-1.928-0.343
				c-0.581-0.228-1.079-0.559-1.495-0.99c-0.416-0.435-0.738-0.963-0.967-1.586c-0.228-0.625-0.342-1.333-0.342-2.125
				c0-0.778,0.11-1.478,0.332-2.1c0.221-0.619,0.533-1.148,0.936-1.585c0.403-0.437,0.883-0.771,1.439-1.002
				c0.558-0.231,1.176-0.348,1.853-0.348c0.698,0,1.328,0.115,1.888,0.343c0.561,0.229,1.039,0.557,1.435,0.986
				c0.396,0.43,0.702,0.957,0.917,1.581s0.322,1.332,0.322,2.124v0.755h-6.625c0.121,0.759,0.381,1.327,0.78,1.707
				s0.884,0.567,1.455,0.567c0.181,0,0.364-0.025,0.549-0.08c0.185-0.053,0.354-0.132,0.513-0.236
				c0.158-0.104,0.296-0.231,0.413-0.383c0.118-0.15,0.204-0.327,0.257-0.528H82.026z M79.64,120.368
				c-0.153-0.592-0.405-1.033-0.755-1.33c-0.349-0.295-0.766-0.441-1.249-0.441c-0.476,0-0.892,0.146-1.248,0.441
				c-0.355,0.297-0.61,0.738-0.765,1.33H79.64z"/>
			<path fill="#3C2415" d="M97.137,126.428h-2.396v-6.102c0-0.604-0.074-1.031-0.221-1.283c-0.148-0.252-0.396-0.378-0.746-0.378
				c-0.59,0-1.211,0.387-1.862,1.158v6.604h-2.355v-6.102c0-0.604-0.075-1.031-0.226-1.283c-0.152-0.252-0.402-0.378-0.75-0.378
				c-0.584,0-1.201,0.387-1.854,1.158v6.604h-2.365v-9.613h2.365v0.553c0.329-0.275,0.666-0.475,1.012-0.599
				s0.711-0.188,1.093-0.188c0.624,0,1.149,0.108,1.575,0.323c0.427,0.215,0.764,0.537,1.012,0.966
				c0.27-0.282,0.516-0.507,0.74-0.675s0.438-0.297,0.639-0.387c0.201-0.092,0.4-0.152,0.595-0.182
				c0.194-0.03,0.396-0.046,0.604-0.046c2.094,0,3.141,1.226,3.141,3.675V126.428z"/>
			<path fill="#3C2415" d="M108.25,123.417c-0.12,0.522-0.31,0.987-0.568,1.39c-0.258,0.402-0.57,0.742-0.937,1.016
				c-0.365,0.277-0.778,0.484-1.237,0.625c-0.46,0.142-0.951,0.212-1.475,0.212c-0.705,0-1.348-0.114-1.928-0.343
				c-0.582-0.228-1.08-0.559-1.496-0.99c-0.416-0.435-0.738-0.963-0.966-1.586c-0.228-0.625-0.343-1.333-0.343-2.125
				c0-0.778,0.11-1.478,0.332-2.1c0.222-0.619,0.533-1.148,0.937-1.585s0.883-0.771,1.439-1.002
				c0.558-0.231,1.175-0.348,1.853-0.348c0.698,0,1.327,0.115,1.888,0.343c0.561,0.229,1.038,0.557,1.435,0.986
				s0.701,0.957,0.916,1.581s0.322,1.332,0.322,2.124v0.755h-6.625c0.121,0.759,0.382,1.327,0.781,1.707
				c0.398,0.38,0.885,0.567,1.455,0.567c0.181,0,0.363-0.025,0.547-0.08c0.186-0.053,0.357-0.132,0.515-0.236
				c0.157-0.104,0.296-0.231,0.413-0.383c0.117-0.15,0.203-0.327,0.256-0.528H108.25z M105.865,120.368
				c-0.153-0.592-0.405-1.033-0.755-1.33c-0.349-0.295-0.765-0.441-1.248-0.441c-0.477,0-0.893,0.146-1.248,0.441
				c-0.355,0.297-0.611,0.738-0.766,1.33H105.865z"/>
			<path fill="#3C2415" d="M112.954,117.377c0.684-0.529,1.428-0.796,2.234-0.796c2.274,0,3.412,1.226,3.412,3.675v6.172h-2.396
				v-6.102c0-0.597-0.097-1.023-0.286-1.278c-0.193-0.255-0.51-0.383-0.953-0.383c-0.645,0-1.314,0.39-2.012,1.169v6.594h-2.367
				v-9.613h2.367V117.377z"/>
			<path fill="#3C2415" d="M125.385,126.448c-0.302,0.074-0.579,0.127-0.83,0.162c-0.252,0.033-0.485,0.05-0.7,0.05
				c-0.558,0-1.002-0.065-1.333-0.196c-0.333-0.131-0.586-0.326-0.761-0.584s-0.286-0.583-0.337-0.973
				c-0.051-0.389-0.076-0.841-0.076-1.358v-4.741h-1.087v-1.992h1.087v-2.396h2.396v2.396h1.43v1.992h-1.43v4.812
				c0,0.222,0.01,0.399,0.03,0.533c0.021,0.136,0.048,0.239,0.085,0.312c0.037,0.074,0.084,0.124,0.141,0.146
				c0.057,0.024,0.123,0.035,0.197,0.035c0.146,0,0.322-0.011,0.523-0.035c0.201-0.021,0.422-0.055,0.664-0.094V126.448z"/>
			<path fill="#3C2415" d="M131.829,119.511c-0.162-0.61-0.648-0.915-1.461-0.915c-0.207,0-0.398,0.017-0.572,0.05
				c-0.176,0.033-0.327,0.085-0.459,0.151c-0.131,0.066-0.232,0.15-0.306,0.251c-0.075,0.101-0.11,0.216-0.11,0.343
				c0,0.101,0.018,0.186,0.054,0.258c0.037,0.068,0.128,0.138,0.272,0.205c0.143,0.067,0.357,0.14,0.639,0.217
				c0.281,0.076,0.664,0.176,1.148,0.297c0.59,0.141,1.102,0.288,1.535,0.443c0.432,0.153,0.793,0.346,1.082,0.574
				c0.288,0.228,0.502,0.506,0.645,0.834c0.141,0.329,0.211,0.738,0.211,1.229c0,0.457-0.094,0.879-0.281,1.27
				c-0.189,0.389-0.453,0.728-0.796,1.016c-0.343,0.289-0.757,0.516-1.243,0.68c-0.487,0.164-1.032,0.247-1.637,0.247
				c-2.523,0-3.926-1.088-4.208-3.263h2.417c0.127,0.833,0.718,1.248,1.771,1.248c0.523,0,0.921-0.1,1.193-0.301
				c0.271-0.201,0.407-0.446,0.407-0.736c0-0.133-0.028-0.246-0.085-0.336c-0.059-0.091-0.17-0.174-0.338-0.252
				c-0.168-0.077-0.399-0.156-0.695-0.236c-0.295-0.081-0.678-0.182-1.146-0.303c-0.578-0.141-1.074-0.283-1.49-0.428
				c-0.416-0.144-0.759-0.322-1.027-0.533c-0.268-0.211-0.469-0.475-0.598-0.79c-0.133-0.315-0.197-0.716-0.197-1.198
				c0-0.416,0.088-0.803,0.262-1.163c0.175-0.358,0.423-0.671,0.745-0.936c0.321-0.266,0.712-0.474,1.167-0.624
				c0.457-0.152,0.967-0.228,1.53-0.228c2.45,0,3.763,0.978,3.938,2.93H131.829z"/>
		</g>
	</g>
	<g>
		<g>
			<path fill="#FFDE17" d="M93.465,270.85c-4.803-1.282-9.662-0.312-13.493,2.246c0.363-4.6-1.17-9.326-4.644-12.887
				c-6.398-6.56-16.899-6.691-23.459-0.294c-3.557,3.47-5.209,8.146-4.968,12.745c-3.77-2.664-8.615-3.764-13.454-2.602
				c-8.91,2.146-14.389,11.103-12.247,20.01c1.163,4.83,4.335,8.641,8.41,10.787c-4.216,1.877-7.64,5.478-9.115,10.229
				c-2.711,8.752,2.181,18.046,10.933,20.759c5.951,1.847,12.15,0.167,16.359-3.844c-1.443,5.645,0.129,11.882,4.662,16.174
				c6.653,6.299,17.15,6.01,23.45-0.646c3.417-3.604,4.878-8.343,4.458-12.929c3.869,2.512,8.754,3.42,13.543,2.064
				c8.816-2.496,13.936-11.666,11.444-20.48c-1.356-4.781-4.677-8.463-8.831-10.444c4.137-2.041,7.412-5.774,8.698-10.581
				C107.574,282.305,102.318,273.214,93.465,270.85z"/>
			<path fill="#F7941E" d="M55.524,313.192c-6.765-4.536-8.572-13.696-4.036-20.461c4.537-6.761,13.698-8.57,20.464-4.034
				c6.76,4.534,8.568,13.696,4.031,20.46C71.448,315.92,62.289,317.727,55.524,313.192z"/>
		</g>
		<rect x="56.495" y="286.952" fill="none" width="95.686" height="26.504"/>
		<text transform="matrix(1 0 0 1 56.4946 308.3257)" fill="#3C2415" font-family="'InterstateMono'" font-size="29.3204">edible</text>
		<rect x="139.407" y="287.44" fill="none" width="184.951" height="26.505"/>
		<text transform="matrix(1 0 0 1 139.4072 308.8149)" fill="#F7941E" font-family="'Interstate-Thin'" font-size="29.3204">arrangements</text>
	</g>
	<g>
		<path fill="#8DC63F" d="M923.308,247.702c0,0-10.557,13.412-3.958,25.375c6.594,11.961,21.734,8.269,21.734,8.269L923.308,247.702
			z"/>
		<path fill="#D1D3D4" d="M939.735,241.129l1.937,19.801c0,0,11.226,2.145,19.642-1.922l-1.938-19.801
			C959.375,239.208,950.027,234.811,939.735,241.129z"/>
		<path fill="#3C2415" d="M939.735,241.129l0.924,8.749c0,0,19.851,1.727,19.501-2.645c-0.349-4.37-0.784-8.026-0.784-8.026
			S950.027,234.811,939.735,241.129z"/>
		<g>
			<path fill="#FFDE17" d="M984.607,288.047c-0.903-1.984-2.589-3.361-4.523-3.947c1.659-1.16,2.835-2.997,3.074-5.168
				c0.44-4-2.444-7.598-6.441-8.038c-2.168-0.237-4.215,0.505-5.707,1.869c-0.146-2.021-1.125-3.971-2.87-5.286
				c-3.21-2.425-7.777-1.785-10.199,1.424c-1.315,1.741-1.724,3.88-1.313,5.861c-1.812-0.906-3.987-1.063-6.012-0.238
				c-3.723,1.52-5.511,5.771-3.989,9.495c1.033,2.534,3.329,4.166,5.865,4.476c-2.318,1.085-3.996,3.357-4.186,6.09
				c-0.281,4.014,2.744,7.493,6.756,7.775c2.178,0.151,4.19-0.674,5.629-2.096c0.226,2.014,1.282,3.922,3.076,5.168
				c3.305,2.294,7.842,1.475,10.136-1.83c1.243-1.791,1.566-3.943,1.08-5.906c1.846,0.834,4.025,0.904,6.014,0
				C984.658,296.027,986.274,291.709,984.607,288.047z"/>
			<circle fill="#F7941E" cx="966.112" cy="286.359" r="6.475"/>
			<path fill="#3C2415" d="M984.607,288.047c-0.903-1.984-2.589-3.361-4.523-3.947c1.659-1.16,2.835-2.997,3.074-5.168
				c0.44-4-2.444-7.598-6.441-8.038c-2.168-0.237-4.215,0.505-5.707,1.869c-0.146-2.021-1.125-3.971-2.87-5.286
				c-3.21-2.425-7.777-1.785-10.199,1.424C956.625,270.642,986.274,291.709,984.607,288.047z"/>
		</g>
		<g>
			
				<ellipse transform="matrix(0.9825 0.1864 -0.1864 0.9825 63.3248 -178.6718)" fill="#73608A" cx="981.938" cy="247.46" rx="3.83" ry="4.981"/>
			
				<ellipse transform="matrix(0.9825 0.1863 -0.1863 0.9825 61.5032 -179.0798)" fill="#73608A" cx="983.837" cy="237.788" rx="3.83" ry="4.981"/>
			
				<ellipse transform="matrix(0.9825 0.1863 -0.1863 0.9825 65.0853 -178.0892)" fill="#73608A" cx="980.082" cy="257.248" rx="3.832" ry="4.981"/>
		</g>
		<path fill="#F7941E" d="M976.897,317.971c0,0,16.259,6.618,27.562-6.302c11.303-12.921,4.545-29.095,4.545-29.095L976.897,317.971
			z"/>
		<path fill="#CD3D57" d="M927.061,322.172c0,0,33.618,9.896,74.38,3.51c0,0-6.162,39.871-13.026,44.375
			c-9.246,6.064-45.979,3.502-52.109-3.83C931.091,359.989,927.061,322.172,927.061,322.172z"/>
		<g>
			<path fill="#8DC63F" d="M998.781,271.297c0,0,7.317,8.145,2.134,12.927c0,0-4.753-2.531-4.309-7.608c0,0-4.128,4.24-9.82,1.086
				C986.786,277.702,990.264,269.923,998.781,271.297"/>
			<path fill="#CD3D57" d="M1007.441,275.982c4.86-10.407,1.464-21.872-0.904-22.933c-2.198-0.981-11.632,3.322-17.038,14.502
				C987.241,272.222,1005.945,279.189,1007.441,275.982z"/>
			<path fill="#3C2415" d="M1009.837,266.616c0.512-6.997-1.646-12.824-3.301-13.566c-1.48-0.66-6.24,1.076-10.843,5.691
				C993.775,260.667,1009.617,269.626,1009.837,266.616z"/>
		</g>
		<g>
			<path fill="#8DC63F" d="M935.664,305.462c0,0,11.772-4.448,14.738,3.101c0,0-4.692,4.037-9.946,1.445
				c0,0,2.822,6.191-2.928,10.975C937.528,320.983,930.642,314.017,935.664,305.462"/>
			<path fill="#CD3D57" d="M944.291,298.137c-9.129-9.545-22.828-10.682-24.948-8.586c-1.97,1.947-1.287,13.848,8.439,24.299
				C931.846,318.214,947.102,301.076,944.291,298.137z"/>
			<path fill="#3C2415" d="M935.251,291.666c-7.283-3.463-14.429-3.577-15.909-2.114c-1.325,1.312-1.45,7.137,1.58,13.99
				C922.186,306.4,938.386,293.156,935.251,291.666z"/>
		</g>
		<path fill="#3C2415" d="M923.308,247.702c0,0-10.557,13.412-3.958,25.375c6.594,11.961,10.743-12.532,10.743-12.532
			L923.308,247.702z"/>
		<path fill="#3C2415" d="M1004.458,311.669c11.575-12.677,4.545-29.095,4.545-29.095l-15.02,16.561
			C993.984,299.135,999.059,317.584,1004.458,311.669z"/>
	</g>
	<g>
		<path fill="#FFDE17" d="M245.619,62.803c0,0-18.396-4.842-12.515-17.406c0,0,8.232-10.172,19.407,0
			c0,0,0.589-13.761,12.351-11.367c0,0,14.115,1.195,8.235,13.76c0,0,14.113-4.188,16.466,0.6
			c2.354,4.786,7.762,14.881-9.883,15.479c0,0,15.711,6.635,13.626,12.796c-2.087,6.16-9.624,16.598-19.622,7.024
			c0,0,1.177,15.557-13.526,12.564c0,0-11.175-5.982-6.47-15.556c0,0-18.683,9.234-21.761-0.599S234.444,66.393,245.619,62.803z"/>
		<circle fill="#F26522" cx="263.828" cy="65.894" r="8.671"/>
		<circle fill="#7F3F98" cx="296.477" cy="32.18" r="7.123"/>
		<circle fill="#7F3F98" cx="298.093" cy="44.836" r="5.573"/>
		<path fill="#8DC63F" d="M322.817,53.5c0,0-9.91-8.053-5.574-14.244c0,0,9.291,6.193,8.671,12.387c0,0,11.767-11.769,17.341-4.955
			c0,0-0.619,10.527-11.767,11.147c0,0,14.862-0.618,15.483,8.052c0,0-12.389,3.096-16.723-5.573"/>
		<path fill="#F26522" d="M265.705,109.624c0,0,47.826-22.439,62.175-1.838l-13.946,59.229c0,0-18.594,16.556-36.026,0.368
			L265.705,109.624z"/>
		<path fill="#BE1E2D" d="M309.792,49.589c-3.03,3.421-13.463,30.298-4.172,36.491c9.289,6.193,31.639-12.509,32.374-15.451
			C340.252,61.596,315.92,42.668,309.792,49.589z"/>
		<g>
			<g>
				<path fill="#EEAF21" d="M241.789,62.493c-5.675-1.209-10.209-6.256-11.698-11.732c-1.188-4.372,1.851-8.121,5.908-9.23
					c4.169-1.14,8.447,1.857,10.302,5.329c0.505,0.946,1.853,0.843,2.383,0c2.963-4.714,5.729-9.998,10.492-13.143
					c4.025-2.657,8.539-0.161,10.127,3.911c1.287,3.301,1.073,7.262,1.091,10.743c0.005,1.059,1.164,1.702,2.076,1.191
					c5.504-3.082,11.47-2.44,14.571,3.45c3.261,6.196-1.248,11.611-7.542,12.19c-1.586,0.146-1.834,2.14-0.367,2.71
					c6.325,2.461,13.387,8.046,9.104,15.393c-3.796,6.512-11.766,4.673-16.039-0.04c-0.798-0.88-2.409-0.206-2.355,0.976
					c0.257,5.633-1.342,14.124-8.285,14.674c-9.311,0.738-9.367-11.134-9.375-17.433c-0.001-0.944-0.875-1.505-1.746-1.33
					c-5.75,1.154-11.663,3.699-17.611,2.659c-6.167-1.078-5.042-7.813-1.98-11.335c2.759-3.175,7.044-5.063,10.943-6.323
					c1.686-0.544,0.965-3.209-0.733-2.66c-7.946,2.565-19.826,9.939-14.068,19.686c4.491,7.602,17.98,1.88,24.183,0.634
					c-0.582-0.443-1.164-0.887-1.746-1.33c0.008,7.782,0.629,19.654,11.007,20.14c9.284,0.434,12.521-9.675,12.169-17.381
					c-0.785,0.325-1.57,0.65-2.355,0.976c5.364,5.916,14.93,7.485,19.958,0.09c6.153-9.049-2.144-16.865-10.34-20.054
					c-0.122,0.903-0.245,1.807-0.367,2.71c7.927-0.73,13.104-6.643,10.63-14.644c-2.667-8.628-11.948-10.117-19.051-6.14
					c0.692,0.397,1.384,0.794,2.076,1.191c-0.035-6.577-0.377-18.259-9.649-18.482c-8.565-0.208-13.298,9.367-17.203,15.578
					c0.794,0,1.588,0,2.383,0c-4.335-8.112-16.331-9.486-20.723-0.665c-4.142,8.318,5.402,18.713,13.094,20.352
					C242.791,65.523,243.529,62.863,241.789,62.493L241.789,62.493z"/>
			</g>
		</g>
		<g>
			<g>
				<path fill="#452F8B" d="M299.238,25.874c-7.872-9.276-15.892,9.273-8.84,15.428c8.529,7.445,18.229-10.838,8.561-16.747
					c-1.522-0.931-2.908,1.456-1.393,2.383c6.476,3.958,0.149,17.099-5.638,12.047c-2.454-2.142-1.685-6.315-0.8-9.019
					c0.43-1.313,1.177-2.767,2.312-3.606c1.499-1.109,2.904,0.355,3.847,1.466C298.439,29.183,300.381,27.221,299.238,25.874
					L299.238,25.874z"/>
			</g>
		</g>
		<g>
			<g>
				<path fill="#452F8B" d="M299.182,39.413c-8.479-3.397-13.941,12.228-5.746,15.424c8.512,3.318,11.869-10.613,6.906-15.57
					c-1.26-1.258-3.211,0.692-1.951,1.951c2.668,2.665,1.868,12.372-3.256,11.292c-5.794-1.222-2.425-12.735,3.314-10.437
					C300.101,42.735,300.812,40.065,299.182,39.413L299.182,39.413z"/>
			</g>
		</g>
		<g>
			<g>
				<path fill="#B94126" d="M268.335,56.777c-4.375-3.961-10.213-4.53-14.282,0.182c-3.472,4.021-3.794,10.134-0.229,14.154
					c4.432,4.997,12.863,4.658,16.792-0.53c4.076-5.383,1.729-13.509-4.216-16.229c-1.605-0.734-3.009,1.644-1.393,2.383
					c4.722,2.159,6.059,7.496,3.568,11.93c-2.698,4.803-10.221,3.9-13.271-0.057c-2.201-2.854-1.377-7.037,0.7-9.701
					c2.879-3.691,7.182-3.076,10.38-0.181C267.7,59.918,269.657,57.973,268.335,56.777L268.335,56.777z"/>
			</g>
		</g>
		<g>
			<g>
				<path fill="#89241B" d="M313.917,49.346c6.821,5.586,15.5,8.523,21.746,14.877c9.305,9.463-7.536,13.653-13.71,16.589
					c-4.32,2.054-15.619,14.315-18.346,5.452c-1.65-5.362-0.375-11.937,0.792-17.252c1.377-6.271,3.964-12.443,8.298-17.239
					c1.189-1.316-0.756-3.274-1.951-1.951c-8.348,9.236-12.538,24.99-9.799,37.177c2.388,10.624,13.186,2.628,18.054-1.015
					c6.355-4.755,22.259-6.405,22.155-16.577c-0.049-4.867-4.825-8.611-8.328-11.204c-5.39-3.989-11.765-6.553-16.959-10.808
					C314.504,46.278,312.54,48.218,313.917,49.346L313.917,49.346z"/>
			</g>
		</g>
		<g>
			<g>
				<path fill="#10552E" d="M323.857,48.984c-3.256-2.566-3.086-6.274-2.74-9.994c-0.692,0.397-1.384,0.794-2.076,1.191
					c3.576,1.71,6.128,4.835,6.501,8.864c0.073,0.789,0.846,1.704,1.746,1.33c5.842-2.428,11.202-4.917,17.598-5.436
					c-0.46-0.46-0.92-0.92-1.379-1.38c0.361,5.163-5.26,7.853-8.129,11.365c-0.622,0.761-0.483,2.039,0.609,2.306
					c4.561,1.115,8.258,1.815,11.301,5.766c0.275-0.676,0.55-1.352,0.825-2.026c-3.708,0.844-7.556,1.14-10.334-1.931
					c-1.196-1.322-3.142,0.636-1.951,1.951c3.447,3.809,8.33,3.707,13.019,2.64c0.795-0.181,1.363-1.327,0.825-2.026
					c-3.54-4.595-7.491-5.699-12.951-7.033c0.203,0.769,0.406,1.537,0.609,2.306c3.466-4.242,9.375-7.073,8.937-13.316
					c-0.049-0.702-0.592-1.443-1.379-1.38c-6.658,0.54-12.242,3.004-18.332,5.535c0.582,0.443,1.164,0.887,1.746,1.33
					c-0.459-4.961-3.364-9.094-7.868-11.247c-0.992-0.474-1.975,0.11-2.076,1.191c-0.423,4.534-0.266,8.939,3.547,11.945
					C323.287,52.024,325.254,50.084,323.857,48.984L323.857,48.984z"/>
			</g>
		</g>
		<g>
			<g>
				<path fill="#B94126" d="M267.717,106.281c-0.565,16.556-0.182,33.425,3.662,49.61c1.395,5.875,3.112,11.732,8.137,15.462
					c4.55,3.378,11.252,3.09,16.575,2.775c6.003-0.355,13.032-0.263,18.295-3.532c4.208-2.613,5.833-7.729,6.672-12.312
					c1.347-7.351,1.341-14.968,2.399-22.374c1.412-9.886,3.067-19.682,5.934-29.264c0.162-0.541-0.086-1.313-0.634-1.558
					c-9.128-4.06-19.405-4.87-29.28-4.981c-10.481-0.118-21.23,0.925-31.38,3.605c-1.719,0.453-0.989,3.115,0.733,2.66
					c9.5-2.509,19.365-3.398,29.167-3.506c9.776-0.108,20.322,0.582,29.367,4.604c-0.211-0.52-0.423-1.039-0.634-1.558
					c-4.056,13.554-6.465,28.046-7.417,42.158c-0.369,5.463-0.523,11.246-2.976,16.254c-3.221,6.577-11.287,6.262-17.533,6.83
					c-5.635,0.512-11.804,1.029-17-1.631c-6.26-3.206-7.504-12.728-8.766-18.902c-2.961-14.487-3.065-29.619-2.563-44.343
					C270.537,104.5,267.777,104.506,267.717,106.281L267.717,106.281z"/>
			</g>
		</g>
	</g>
	<g>
		<path fill="#8DC63F" d="M737.112,78.122c0,0-8.922-16.115,1.385-22c0,0,6.835,5.945,4.188,14.102c0,0,8.373-5.393,16.512,1.928
			C759.196,72.151,750.556,83.59,737.112,78.122"/>
		<path fill="#CD3D57" d="M724.682,67.168c-11.896,15.229-10.657,35.309-7.177,37.939c3.233,2.44,20.324-1.053,33.41-17.34
			C756.382,80.962,728.346,62.479,724.682,67.168z"/>
		<path fill="#8DC63F" d="M676.011,111.932c0,0,24.15,11.141,53.43,3.953c0,0-10.745,11.08-12.58,23.411
			c-1.702,11.442,5.853,24.374,3.225,26.538c-11.695,9.625-33.197,5.063-37.433-4.312c-1.456-3.222,5.061-12.575,3.91-22.878
			C685.125,125.758,676.011,111.932,676.011,111.932z"/>
		<g>
			<g>
				<path fill="#FFDE17" d="M659,98.774c3.32-0.045,6.268-1.553,8.265-3.889c0.604,3.021,2.443,5.781,5.321,7.441
					c5.304,3.057,12.078,1.238,15.136-4.062c1.656-2.875,1.871-6.183,0.884-9.093c2.905,1.029,6.219,0.858,9.117-0.77
					c5.339-2.99,7.24-9.742,4.25-15.08c-1.621-2.896-4.352-4.771-7.362-5.41c2.371-1.971,3.918-4.906,4.005-8.229
					c0.158-6.119-4.673-11.206-10.788-11.365c-4.162-0.107-7.842,2.096-9.822,5.438c-0.095-3.891-2.235-7.616-5.927-9.552
					c-5.419-2.845-12.115-0.757-14.959,4.662c-1.543,2.938-1.623,6.249-0.521,9.122c-2.943-0.916-6.249-0.612-9.081,1.126
					c-5.215,3.202-6.845,10.024-3.645,15.239c1.737,2.828,4.538,4.594,7.569,5.113c-2.289,2.064-3.719,5.057-3.675,8.379
					C647.853,93.968,652.879,98.86,659,98.774z"/>
				<circle fill="#F7941E" cx="672.657" cy="74.04" r="9.848"/>
			</g>
			<g opacity="0.4">
				<defs>
					
						<rect id="SVGID_16_" x="670.14" y="4.742" transform="matrix(-0.9558 0.2941 -0.2941 -0.9558 1366.2063 -83.2357)" opacity="0.4" width="38.442" height="112.721"/>
				</defs>
				<clipPath id="SVGID_2_">
					<use xlink:href="#SVGID_16_"  overflow="visible"/>
				</clipPath>
				<g clip-path="url(#SVGID_2_)">
					<path fill="#939598" d="M659,98.774c3.32-0.045,6.268-1.553,8.265-3.889c0.604,3.021,2.443,5.781,5.321,7.441
						c5.304,3.057,12.078,1.238,15.136-4.062c1.656-2.875,1.871-6.183,0.884-9.093c2.905,1.029,6.219,0.858,9.117-0.77
						c5.339-2.99,7.24-9.742,4.25-15.08c-1.621-2.896-4.352-4.771-7.362-5.41c2.371-1.971,3.918-4.906,4.005-8.229
						c0.158-6.119-4.673-11.206-10.788-11.365c-4.162-0.107-7.842,2.096-9.822,5.438c-0.095-3.891-2.235-7.616-5.927-9.552
						c-5.419-2.845-12.115-0.757-14.959,4.662c-1.543,2.938-1.623,6.249-0.521,9.122c-2.943-0.916-6.249-0.612-9.081,1.126
						c-5.215,3.202-6.845,10.024-3.645,15.239c1.737,2.828,4.538,4.594,7.569,5.113c-2.289,2.064-3.719,5.057-3.675,8.379
						C647.853,93.968,652.879,98.86,659,98.774z"/>
				</g>
			</g>
		</g>
		<g>
			<g>
				<path fill="#73608A" d="M719.089,51.844c-0.529,4.328-3.656,7.509-6.985,7.102c-3.331-0.407-5.602-4.244-5.073-8.576
					c0.528-4.326,3.656-7.507,6.985-7.1C717.345,43.675,719.616,47.514,719.089,51.844z"/>
				<path fill="#73608A" d="M721.083,36.344c-0.529,4.328-3.655,7.508-6.987,7.103c-3.328-0.406-5.6-4.247-5.07-8.575
					c0.527-4.328,3.654-7.508,6.986-7.101C719.339,28.174,721.614,32.016,721.083,36.344z"/>
				<path fill="#73608A" d="M717.175,67.518c-0.527,4.33-3.658,7.509-6.985,7.104c-3.331-0.406-5.6-4.248-5.075-8.576
					c0.532-4.326,3.658-7.507,6.989-7.1C715.433,59.353,717.704,63.192,717.175,67.518z"/>
			</g>
			<g>
				<defs>
					
						<rect id="SVGID_18_" x="712.478" y="15.17" transform="matrix(-0.9946 -0.1035 0.1035 -0.9946 1436.033 186.2696)" width="20.738" height="81.446"/>
				</defs>
				<clipPath id="SVGID_4_">
					<use xlink:href="#SVGID_18_"  overflow="visible"/>
				</clipPath>
				<g clip-path="url(#SVGID_4_)">
					<path fill="#939598" d="M719.089,51.844c-0.529,4.328-3.656,7.509-6.985,7.102c-3.331-0.407-5.602-4.244-5.073-8.576
						c0.528-4.326,3.656-7.507,6.985-7.1C717.345,43.675,719.616,47.514,719.089,51.844z"/>
					<path fill="#939598" d="M721.083,36.344c-0.529,4.328-3.655,7.508-6.987,7.103c-3.328-0.406-5.6-4.247-5.07-8.575
						c0.527-4.328,3.654-7.508,6.986-7.101C719.339,28.174,721.614,32.016,721.083,36.344z"/>
					<path fill="#939598" d="M717.175,67.518c-0.527,4.33-3.658,7.509-6.985,7.104c-3.331-0.406-5.6-4.248-5.075-8.576
						c0.532-4.326,3.658-7.507,6.989-7.1C715.433,59.353,717.704,63.192,717.175,67.518z"/>
				</g>
			</g>
		</g>
		<g>
			<defs>
				
					<rect id="SVGID_20_" x="730.543" y="55.245" transform="matrix(-0.8309 -0.5564 0.5564 -0.8309 1316.2051 585.0599)" width="32.905" height="74.605"/>
			</defs>
			<clipPath id="SVGID_5_">
				<use xlink:href="#SVGID_20_"  overflow="visible"/>
			</clipPath>
			<g clip-path="url(#SVGID_5_)">
				<path fill="#939598" d="M737.111,78.12c0,0-8.922-16.113,1.385-21.998c0,0,6.836,5.945,4.188,14.102
					c0,0,8.373-5.395,16.512,1.928C759.196,72.151,750.556,83.588,737.111,78.12"/>
				<path fill="#939598" d="M724.681,67.168c-11.896,15.229-10.656,35.309-7.176,37.939c3.232,2.439,20.323-1.054,33.409-17.34
					C756.382,80.961,728.346,62.477,724.681,67.168z"/>
			</g>
		</g>
		<g>
			<defs>
				
					<rect id="SVGID_22_" x="702.196" y="100.039" transform="matrix(-0.9995 -0.0316 0.0316 -0.9995 1451.8491 314.2664)" width="52.428" height="91.222"/>
			</defs>
			<clipPath id="SVGID_7_">
				<use xlink:href="#SVGID_22_"  overflow="visible"/>
			</clipPath>
			<path clip-path="url(#SVGID_7_)" fill="#939598" d="M676.011,111.932c0,0,24.15,11.141,53.43,3.953
				c0,0-10.745,11.08-12.58,23.411c-1.702,11.442,5.853,24.374,3.225,26.538c-11.695,9.625-33.197,5.063-37.433-4.312
				c-1.456-3.222,5.061-12.575,3.91-22.878C685.125,125.758,676.011,111.932,676.011,111.932z"/>
		</g>
	</g>
	<g>
		<g>
			<path fill="#CD3D57" d="M768.819,301.046h-32.361c0.167,13.325,6.787,20.774,15.478,20.774c6.124,0,9.767-1.406,13.738-3.725
				l0.745,1.322c-4.222,2.485-8.193,3.975-14.649,3.975c-8.938,0-17.048-7.532-17.048-22.678c0-14.399,7.696-22.594,17.214-22.594
				c9.85,0,16.966,7.945,16.966,22.016C768.901,300.466,768.901,300.715,768.819,301.046z M751.935,279.694
				c-8.358,0-15.146,6.953-15.478,19.863h30.706C766.916,286.647,760.708,279.694,751.935,279.694z"/>
			<path fill="#CD3D57" d="M808.546,322.483v-7.366c-3.476,4.718-8.856,8.276-15.476,8.276c-7.366,0-14.815-3.146-14.815-12.995
				c0-9.517,7.282-14.151,16.14-14.151c5.875,0,10.758,1.737,14.151,3.641v-7.199c0-9.684-3.973-12.911-12.662-12.911
				c-5.215,0-9.104,1.489-12.911,3.393l-0.662-1.571c3.807-1.904,8.11-3.477,13.654-3.477c9.52,0,14.401,3.641,14.401,14.318v30.043
				H808.546z M808.546,301.543c-3.643-2.069-8.276-3.725-14.236-3.725c-8.026,0-14.234,4.139-14.234,12.496
				c0,8.69,6.456,11.506,13.242,11.506c5.875,0,12-3.561,15.229-9.104V301.543z"/>
		</g>
		<g>
			<path fill="#FFDE17" d="M850.52,307.243c0.341-1.273,0.082-2.562-0.596-3.578c1.221,0.098,2.474-0.309,3.418-1.23
				c1.738-1.695,1.772-4.48,0.076-6.22c-0.92-0.942-2.158-1.38-3.378-1.317c0.705-0.998,0.999-2.283,0.689-3.565
				c-0.568-2.362-2.942-3.815-5.305-3.247c-1.28,0.309-2.291,1.148-2.86,2.229c-0.498-1.116-1.451-2.024-2.711-2.416
				c-2.321-0.719-4.785,0.579-5.504,2.898c-0.489,1.578-0.045,3.221,1.019,4.338c-1.496-0.383-3.149,0.033-4.287,1.234
				c-1.671,1.765-1.594,4.548,0.17,6.218c0.957,0.906,2.212,1.293,3.428,1.182c-0.665,1.026-0.906,2.321-0.547,3.591
				c0.662,2.338,3.092,3.695,5.43,3.035c1.269-0.36,2.244-1.241,2.769-2.342c0.542,1.097,1.532,1.965,2.807,2.305
				C847.484,310.983,849.893,309.589,850.52,307.243z"/>
			<circle fill="#F7941E" cx="842.542" cy="299.361" r="3.909"/>
		</g>
		<g>
			<path fill="#8DC63F" d="M831.928,261.952c0,0-9.626-0.043-9.682-6.246c0,0,4.457-1.6,7.503,1.688c0,0-0.326-5.194,5.092-7.04
				C834.841,250.354,837.853,257.215,831.928,261.952"/>
			<path fill="#CD3D57" d="M823.762,264.827c3.911,9.312,13.384,13.869,15.473,12.953c1.938-0.852,4.706-9.54,0.616-19.664
				C838.141,253.885,822.556,261.957,823.762,264.827z"/>
		</g>
		<path fill="#8DC63F" d="M826.365,343.589c0,0,10.506,1.415,15.163-7.847c4.657-9.26-1.737-17.697-1.737-17.697L826.365,343.589z"
			/>
		<g>
			<path fill="#FFDE17" d="M767.664,374.793c1.271,0.34,2.561,0.082,3.575-0.597c-0.096,1.22,0.312,2.474,1.232,3.417
				c1.696,1.739,4.479,1.774,6.219,0.078c0.943-0.92,1.382-2.16,1.317-3.379c0.999,0.706,2.284,0.998,3.566,0.689
				c2.363-0.568,3.815-2.943,3.248-5.305c-0.309-1.281-1.15-2.291-2.229-2.86c1.116-0.497,2.024-1.452,2.416-2.712
				c0.719-2.32-0.578-4.784-2.898-5.503c-1.578-0.489-3.222-0.044-4.338,1.019c0.384-1.496-0.034-3.15-1.236-4.287
				c-1.764-1.67-4.546-1.594-6.217,0.17c-0.904,0.957-1.293,2.212-1.182,3.428c-1.025-0.666-2.32-0.906-3.59-0.547
				c-2.338,0.662-3.695,3.093-3.034,5.43c0.359,1.268,1.239,2.244,2.341,2.769c-1.097,0.542-1.966,1.531-2.306,2.806
				C763.922,371.756,765.315,374.167,767.664,374.793z"/>
			<circle fill="#F7941E" cx="775.544" cy="366.814" r="3.91"/>
		</g>
		<g>
			<path fill="#8DC63F" d="M812.955,356.2c0,0,0.042-9.625,6.245-9.68c0,0,1.601,4.456-1.688,7.5c0,0,5.195-0.324,7.039,5.094
				C824.55,359.114,817.69,362.125,812.955,356.2"/>
			<path fill="#CD3D57" d="M810.08,348.034c-9.313,3.912-13.871,13.385-12.953,15.474c0.851,1.938,9.538,4.706,19.661,0.616
				C821.021,362.413,812.949,346.829,810.08,348.034z"/>
		</g>
		<path fill="#F7941E" d="M731.316,350.637c0,0-1.415,10.504,7.846,15.162c9.262,4.657,17.699-1.736,17.699-1.736L731.316,350.637z"
			/>
		<g>
			<path fill="#FFDE17" d="M700.113,291.935c-0.341,1.272-0.083,2.562,0.595,3.576c-1.219-0.095-2.472,0.312-3.416,1.231
				c-1.738,1.697-1.773,4.481-0.078,6.22c0.92,0.942,2.16,1.381,3.379,1.317c-0.706,0.999-0.997,2.285-0.689,3.566
				c0.569,2.361,2.943,3.814,5.305,3.248c1.282-0.309,2.291-1.149,2.86-2.23c0.497,1.117,1.452,2.025,2.712,2.416
				c2.32,0.719,4.783-0.578,5.503-2.898c0.489-1.578,0.045-3.221-1.02-4.337c1.497,0.384,3.15-0.034,4.289-1.235
				c1.67-1.765,1.593-4.547-0.171-6.217c-0.956-0.906-2.212-1.295-3.428-1.182c0.667-1.027,0.906-2.322,0.547-3.592
				c-0.662-2.338-3.093-3.695-5.43-3.033c-1.267,0.359-2.242,1.239-2.77,2.341c-0.54-1.097-1.53-1.965-2.806-2.306
				C703.149,288.194,700.74,289.588,700.113,291.935z"/>
			<circle fill="#F7941E" cx="708.091" cy="299.817" r="3.909"/>
		</g>
		<g>
			<path fill="#8DC63F" d="M718.706,337.225c0,0,9.626,0.044,9.681,6.246c0,0-4.457,1.602-7.502-1.688c0,0,0.325,5.194-5.091,7.04
				C715.793,348.824,712.779,341.963,718.706,337.225"/>
			<path fill="#CD3D57" d="M726.872,334.35c-3.911-9.311-13.386-13.869-15.474-12.951c-1.938,0.852-4.705,9.539-0.615,19.662
				C712.492,345.293,728.077,337.221,726.872,334.35z"/>
		</g>
		<path fill="#8DC63F" d="M724.268,255.588c0,0-10.504-1.416-15.163,7.846c-4.656,9.262,1.736,17.699,1.736,17.699L724.268,255.588z
			"/>
		<g>
			<path fill="#FFDE17" d="M782.97,224.385c-1.272-0.34-2.561-0.083-3.577,0.595c0.097-1.22-0.31-2.473-1.231-3.417
				c-1.696-1.738-4.48-1.773-6.22-0.078c-0.942,0.92-1.38,2.16-1.316,3.381c-1-0.707-2.284-0.998-3.566-0.691
				c-2.362,0.57-3.816,2.944-3.247,5.306c0.308,1.28,1.148,2.29,2.229,2.86c-1.118,0.496-2.025,1.452-2.416,2.711
				c-0.72,2.32,0.578,4.785,2.896,5.504c1.579,0.489,3.223,0.045,4.339-1.019c-0.382,1.496,0.034,3.149,1.235,4.288
				c1.764,1.67,4.548,1.593,6.218-0.172c0.904-0.955,1.293-2.211,1.181-3.428c1.026,0.666,2.32,0.906,3.591,0.548
				c2.339-0.662,3.695-3.093,3.034-5.431c-0.359-1.268-1.24-2.242-2.342-2.769c1.097-0.541,1.966-1.53,2.308-2.805
				C786.71,227.422,785.317,225.012,782.97,224.385z"/>
			<circle fill="#F7941E" cx="775.089" cy="232.363" r="3.909"/>
		</g>
		<g>
			<path fill="#8DC63F" d="M737.68,242.977c0,0-0.045,9.626-6.246,9.681c0,0-1.601-4.456,1.687-7.501c0,0-5.193,0.324-7.039-5.092
				C726.082,240.065,732.942,237.052,737.68,242.977"/>
			<path fill="#CD3D57" d="M740.555,251.144c9.311-3.911,13.868-13.386,12.951-15.475c-0.852-1.938-9.538-4.705-19.662-0.614
				C729.613,236.764,737.685,252.348,740.555,251.144z"/>
		</g>
		<path fill="#F7941E" d="M819.317,248.542c0,0,1.415-10.506-7.847-15.164c-9.261-4.656-17.697,1.737-17.697,1.737L819.317,248.542z
			"/>
	</g>
	<g>
		<path fill="#00A14B" d="M500.897,57.669c0,0,18.227,8.103,13.164,19.915c0,0-9.788-0.677-12.825-9.451
			c0,0-3.714,10.125-15.526,9.112C485.709,77.246,485.709,61.721,500.897,57.669"/>
		<path fill="#FFDE17" d="M468.713,52.24c-0.885-2.583-2.814-4.503-5.153-5.468c2.209-1.242,3.896-3.387,4.459-6.062
			c1.034-4.925-2.119-9.757-7.042-10.793c-2.672-0.561-5.311,0.116-7.336,1.633c0.063-2.535-0.916-5.082-2.928-6.934
			c-3.705-3.409-9.469-3.169-12.877,0.533c-1.85,2.008-2.616,4.621-2.349,7.137c-2.146-1.349-4.836-1.81-7.455-1.029
			c-4.823,1.439-7.566,6.516-6.128,11.34c0.979,3.279,3.641,5.594,6.76,6.287c-3.017,1.068-5.383,3.693-5.954,7.074
			c-0.838,4.964,2.505,9.664,7.468,10.503c2.691,0.454,5.299-0.326,7.263-1.923c0.038,2.536,1.118,5.042,3.202,6.812
			c3.836,3.259,9.586,2.79,12.846-1.044c1.767-2.08,2.429-4.722,2.062-7.225c2.196,1.263,4.903,1.615,7.49,0.731
			C467.803,62.18,470.342,57,468.713,52.24z"/>
		<circle fill="#F7941E" cx="445.888" cy="47.883" r="8.1"/>
		<path fill="#CD3D57" d="M518.786,59.021c0.338-20.925-13.838-37.464-18.562-37.464c-4.389,0-16.877,14.175-17.552,36.787
			C482.389,67.797,518.683,65.467,518.786,59.021z"/>
		<path fill="#D1D3D4" d="M535.497,27.079v41.341c0,0,22.781,6.703,41.007,0V27.079C576.503,27.079,558.063,16.092,535.497,27.079z"
			/>
		<path fill="#3C2415" d="M515.107,39.842c-4.457-11.008-11.748-18.285-14.883-18.285c-3.166,0-10.543,7.372-14.664,19.967
			C483.967,46.391,517.37,45.428,515.107,39.842z"/>
		<path fill="#3C2415" d="M463.56,46.772c2.209-1.242,3.896-3.387,4.459-6.062c1.034-4.925-2.119-9.757-7.042-10.793
			c-2.672-0.561-5.311,0.116-7.336,1.633c0.063-2.535-0.916-5.082-2.928-6.934c-3.705-3.409-9.469-3.169-12.877,0.533
			c-1.85,2.008-2.616,4.621-2.349,7.137c-2.146-1.349-4.836-1.81-7.455-1.029c-4.823,1.439-7.566,6.516-6.128,11.34
			C422.884,45.875,465.899,47.737,463.56,46.772z"/>
		<path fill="#754C29" d="M438.042,45.858c0.9-3.493,4.07-6.075,7.846-6.075c4.474,0,7.594,3.544,7.848,7.341
			c0.084,1.269-3.873,2.128-7.834,1.576C441.932,48.147,437.959,46.182,438.042,45.858z"/>
		<path fill="#3C2415" d="M535.497,27.079v16.28c0,0,22.781,6.703,41.007,0v-16.28C576.503,27.079,558.063,16.092,535.497,27.079z"
			/>
		<rect x="406.231" y="93.112" fill="none" width="186.979" height="100.577"/>
		<text transform="matrix(1 0 0 1 411.1519 137.4897)"><tspan x="0" y="0" fill="#CD3D57" font-family="'Vrinda-Bold'" font-size="68.8517">edible</tspan><tspan x="0.46" y="28.351" fill="#CD3D57" font-family="'Vrinda-Bold'" font-size="30.3758">arrangements</tspan></text>
	</g>
	<g>
		<g>
			<path fill-rule="evenodd" clip-rule="evenodd" fill="#8DC63F" d="M385.137,339.199c-2.158,1.435-4.107,2.888-6.201,4.089
				c-4.098,2.354-8.235,4.697-13.23,4.353c-0.641-0.044-1.318-0.087-1.9-0.321c-1.553-0.631-3.096-1.461-2.878-3.453
				c0.229-2.101,2.108-2.084,3.657-2.546c2.986-0.892,6.143-1.551,8.828-3.032c3.466-1.91,6.605-4.448,9.737-6.908
				c0.838-0.657,1.493-1.962,1.624-3.043c1.049-8.697,3.568-16.934,8.926-23.877c4.113-5.328,8.871-10.229,16.131-11.4
				c3.828-0.617,6.473,1.156,7.426,5.02c1.066,4.329-0.04,8.101-2.264,11.838c-5.262,8.842-12.693,15.621-20.529,22.025
				c-1.502,1.227-2.172,2.564-1.873,4.427c0.281,1.757,0.369,3.583,0.92,5.255c1.461,4.447,5.193,5.997,9.496,4.099
				c5.045-2.228,8.287-6.465,11.603-10.583c1.987-2.469,3.751-5.119,5.73-7.597c1.062-1.328,1.979-3.04,4.313-2.44
				c0.356,0.09,1.265-1.094,1.574-1.832c2.42-5.773,5.868-10.896,10.174-15.363c2.35-2.438,5.107-4.549,7.922-6.451
				c3.697-2.5,7.831-3.529,12.558-1.907c0.46-1.857,0.862-3.479,1.264-5.102c2.624-10.603,4.692-21.393,10.139-31.065
				c0.742-1.32,1.639-2.787,2.86-3.542c1.613-0.997,3.789-2.157,5.42-1.813c2.877,0.605,4.897,2.83,5.109,6.088
				c0.079,1.213,0.043,2.441-0.059,3.654c-0.539,6.396-0.612,12.881-1.783,19.162c-2.32,12.452-5.832,24.572-12.248,35.684
				c-3.586,6.211-3.15,10.668,1.01,14.761c2.331,2.296,3.649,2.522,6.016,0.297c2.23-2.098,4.583-4.319,6.023-6.956
				c2.983-5.458,5.582-11.148,7.979-16.893c1.704-4.078,2.437-4.789,6.642-3.955c2.047,0.405,2.938,1.707,2.646,3.867
				c-0.735,5.463-1.645,10.912-2.134,16.397c-0.227,2.548,0.19,5.197,0.632,7.746c0.416,2.408,1.987,3.581,4.588,3.889
				c7.553,0.888,13.425-2.503,18.787-7.114c0.87-0.746,1.204-2.463,1.259-3.752c0.328-7.707-0.07-15.488,0.873-23.109
				c1.162-9.388,3.297-18.664,5.212-27.945c1.096-5.311,3.713-9.648,9.034-11.896c2.649-1.119,5.461-0.195,6.214,2.618
				c0.963,3.599,1.77,7.276,2.218,10.972c1.61,13.291-0.32,25.994-6.491,38.014c-2.51,4.89-4.132,10.196-7.981,14.408
				c-2.148,2.352-0.844,5.922,2.261,6.746c5.852,1.553,11.702,2.072,16.425-2.764c3.268-3.346,4.919-7.674,5.56-12.21
				c0.368-2.604-0.155-5.339-0.337-8.011c-0.037-0.538-0.172-1.261-0.539-1.556c-2.571-2.067-0.998-4.22,0.111-6.021
				c0.452-0.735,2.22-0.893,3.385-0.881c0.79,0.008,1.675,0.645,2.341,1.208c3.169,2.683,6.904,2.905,10.812,2.855
				c2.322-0.03,3.302-1.114,3.882-3.169c1.386-4.915,2.557-9.933,4.453-14.65c2.199-5.477,4.929-10.759,7.713-15.974
				c2.644-4.948,7.68-6.2,12.659-7.259c1.427-0.303,4.192,2.216,4.379,4.017c0.206,1.988,0.262,4.041,0.02,6.021
				c-1.635,13.264-8.386,23.709-19.007,31.292c-4.433,3.165-4.802,7.106-5.333,11.422c-0.875,7.135,0.575,13.901,3.617,20.388
				c0.807,1.723,2.031,2.385,3.685,1.887c1.929-0.581,3.962-1.215,5.541-2.379c0.852-0.627,1.186-2.416,1.177-3.674
				c-0.078-11.178,3.253-21.009,11.68-28.59c2.061-1.856,5.026-2.84,7.726-3.808c1.947-0.696,4.377,1.065,4.676,3.194
				c0.997,7.11,1.159,14.121-3.219,20.407c-2.594,3.724-5.161,7.463-7.702,11.223c-0.535,0.792-0.897,1.702-1.651,3.163
				c2.358-0.109,4.302,0.094,6.098-0.332c9.354-2.219,17.503-6.882,24.806-12.996c2.591-2.168,4.776-4.832,7.051-7.356
				c1.64-1.819,3.497-2.209,5.345-0.883c1.705,1.222,2.099,2.856,0.345,4.823c-2.793,3.134-5.806,6.144-9.073,8.771
				c-7.138,5.735-14.863,10.513-23.862,12.842c-5.639,1.459-11.073,1.396-16.263-1.783c-0.862-0.529-2.49-0.378-3.526,0.044
				c-3.799,1.551-7.503,2.921-11.787,2.129c-2.501-0.462-4.151-1.717-5.418-3.693c-4.675-7.286-6.754-15.261-6.247-23.909
				c0.1-1.704,0.139-3.411,0.187-5.118c0.004-0.141-0.129-0.285-0.174-0.379c-3.081-0.164-6.132-0.326-9.658-0.516
				c-0.262,1.851-0.994,3.873-0.734,5.757c1.192,8.634-5.238,19.251-14.576,22.104c-7.108,2.172-13.993,1.458-20.242-2.852
				c-1.247-0.859-2.235-2.095-3.087-2.913c-4.092,1.896-7.969,4.417-12.209,5.446c-4.061,0.985-8.558,0.916-12.755,0.408
				c-5.013-0.607-8.422-4.682-9.301-9.698c-0.261-1.483-0.507-2.969-0.771-4.528c-2.227,2.672-4.085,5.377-6.426,7.566
				c-2.007,1.876-4.375,3.812-6.924,4.564c-4.493,1.326-8.215-1.051-11.316-4.188c-1.475-1.492-2.697-3.232-3.926-4.727
				c-3.745,3.434-7.42,6.981-11.29,10.301c-4.065,3.485-8.956,5.292-14.231,4.402c-5.885-0.993-9.328-3.73-10.525-10.516
				c-0.182-1.025-0.344-2.055-0.533-3.188c-3.054,3.566-5.777,7.218-8.98,10.383c-5.361,5.295-11.752,7.475-19.189,4.82
				c-4.371-1.561-7.461-4.507-8.998-8.957C385.859,341.602,385.547,340.513,385.137,339.199z M456.52,314.083
				c0.051-0.003,0.103-0.005,0.152-0.007c0-1.709,0.129-3.43-0.036-5.123c-0.169-1.742,1.081-3.917-1.058-5.134
				c-2.35-1.336-4.176,0.389-6.046,1.442c-0.845,0.475-1.62,1.09-2.374,1.707c-7.17,5.875-11.971,13.34-14.973,22.07
				c-1.282,3.728-1.391,7.45-0.783,11.271c0.719,4.518,2.536,5.277,7.38,4.054c0.529-0.134,0.989-0.544,1.479-0.827
				c6.493-3.724,11.438-9.076,15.621-15.152c0.801-1.162,1.123-2.867,1.128-4.322C457.024,320.737,456.706,317.411,456.52,314.083z
				 M528.302,323.635c8.283-16.043,13.635-32.02,9.599-50.033C532.351,278.3,527.769,312.801,528.302,323.635z M464.305,313.03
				c7.664-14.82,9.989-30.819,10.576-47.209C468.184,280.836,463.883,296.4,464.305,313.03z M582.293,306.944
				c0.247,0.098,0.495,0.193,0.743,0.29c8.092-8.304,13.133-18.147,15.19-29.495c-0.353-0.278-0.706-0.558-1.059-0.836
				c-1.272,1.203-2.984,2.179-3.741,3.647c-2.92,5.671-5.662,11.444-8.21,17.292C583.951,300.75,583.251,303.903,582.293,306.944z
				 M394.343,322.783c2.024-1.976,3.835-3.677,5.573-5.449c4.049-4.133,7.737-8.554,10.008-13.944
				c0.571-1.355,0.627-2.928,0.99-4.757C402.145,302.047,394.578,315.197,394.343,322.783z M610.908,315.463
				c-7.671,6.675-9.279,15.611-11.724,24.664C604.89,337.038,611.721,322.618,610.908,315.463z"/>
		</g>
		<g>
			<path fill-rule="evenodd" clip-rule="evenodd" fill="none" stroke="#39B54A" stroke-width="2.4434" stroke-miterlimit="10" d="
				M387.35,341.189c-2.158,1.435-4.107,2.888-6.201,4.089c-4.098,2.352-8.234,4.695-13.23,4.353c-0.64-0.044-1.318-0.087-1.9-0.321
				c-1.553-0.631-3.096-1.461-2.879-3.454c0.229-2.1,2.109-2.083,3.658-2.545c2.986-0.892,6.143-1.552,8.828-3.032
				c3.465-1.91,6.605-4.449,9.736-6.908c0.838-0.657,1.493-1.962,1.624-3.043c1.049-8.697,3.569-16.934,8.927-23.877
				c4.112-5.328,8.871-10.229,16.131-11.4c3.828-0.617,6.473,1.154,7.425,5.02c1.066,4.328-0.04,8.1-2.264,11.838
				c-5.262,8.842-12.692,15.621-20.528,22.024c-1.501,1.228-2.172,2.564-1.873,4.427c0.282,1.758,0.369,3.584,0.919,5.256
				c1.461,4.447,5.194,5.997,9.497,4.099c5.045-2.228,8.286-6.465,11.602-10.583c1.988-2.471,3.752-5.121,5.73-7.597
				c1.062-1.328,1.98-3.04,4.313-2.442c0.356,0.092,1.265-1.092,1.575-1.832c2.421-5.771,5.869-10.894,10.174-15.361
				c2.349-2.438,5.107-4.549,7.921-6.451c3.698-2.5,7.831-3.529,12.558-1.907c0.461-1.857,0.863-3.479,1.265-5.102
				c2.624-10.603,4.692-21.393,10.138-31.066c0.742-1.319,1.639-2.786,2.861-3.541c1.613-0.997,3.789-2.159,5.421-1.813
				c2.876,0.605,4.897,2.83,5.108,6.088c0.079,1.213,0.043,2.441-0.06,3.653c-0.538,6.396-0.61,12.882-1.782,19.163
				c-2.32,12.452-5.832,24.572-12.248,35.684c-3.587,6.211-3.149,10.668,1.009,14.761c2.331,2.296,3.649,2.522,6.016,0.297
				c2.233-2.099,4.585-4.321,6.024-6.956c2.982-5.458,5.581-11.148,7.98-16.893c1.702-4.08,2.435-4.789,6.641-3.956
				c2.047,0.405,2.937,1.706,2.646,3.867c-0.735,5.464-1.645,10.913-2.133,16.398c-0.227,2.548,0.19,5.197,0.63,7.745
				c0.418,2.409,1.988,3.582,4.59,3.889c7.553,0.889,13.425-2.502,18.787-7.113c0.869-0.748,1.203-2.463,1.258-3.754
				c0.329-7.705-0.069-15.487,0.873-23.107c1.163-9.388,3.297-18.664,5.212-27.945c1.098-5.311,3.713-9.648,9.035-11.896
				c2.65-1.119,5.461-0.195,6.214,2.618c0.963,3.599,1.771,7.276,2.218,10.972c1.609,13.291-0.32,25.994-6.491,38.014
				c-2.51,4.889-4.133,10.195-7.981,14.408c-2.149,2.352-0.845,5.922,2.261,6.746c5.853,1.553,11.702,2.071,16.425-2.766
				c3.268-3.344,4.919-7.672,5.561-12.208c0.367-2.604-0.157-5.339-0.338-8.011c-0.036-0.538-0.173-1.262-0.539-1.557
				c-2.571-2.066-0.999-4.219,0.111-6.02c0.453-0.736,2.22-0.893,3.385-0.881c0.79,0.008,1.675,0.645,2.342,1.208
				c3.169,2.683,6.902,2.905,10.811,2.855c2.322-0.03,3.303-1.114,3.882-3.169c1.386-4.915,2.557-9.933,4.454-14.651
				c2.199-5.476,4.928-10.759,7.712-15.973c2.644-4.948,7.681-6.202,12.659-7.259c1.427-0.303,4.192,2.216,4.379,4.017
				c0.207,1.988,0.262,4.04,0.019,6.021c-1.633,13.264-8.385,23.709-19.006,31.291c-4.434,3.166-4.803,7.107-5.333,11.423
				c-0.875,7.135,0.577,13.901,3.616,20.388c0.808,1.723,2.032,2.385,3.685,1.887c1.929-0.581,3.962-1.215,5.543-2.379
				c0.851-0.627,1.184-2.416,1.176-3.675c-0.078-11.177,3.255-21.008,11.68-28.591c2.061-1.854,5.026-2.838,7.727-3.806
				c1.945-0.696,4.375,1.065,4.675,3.194c0.998,7.11,1.159,14.121-3.22,20.407c-2.592,3.724-5.161,7.463-7.7,11.223
				c-0.536,0.792-0.897,1.702-1.652,3.161c2.359-0.107,4.303,0.096,6.097-0.33c9.354-2.22,17.504-6.882,24.808-12.996
				c2.589-2.168,4.775-4.832,7.051-7.357c1.638-1.818,3.496-2.208,5.344-0.883c1.704,1.223,2.098,2.857,0.344,4.824
				c-2.793,3.133-5.804,6.144-9.072,8.771c-7.137,5.735-14.862,10.513-23.862,12.842c-5.639,1.458-11.073,1.396-16.262-1.784
				c-0.862-0.529-2.491-0.377-3.526,0.045c-3.8,1.551-7.505,2.921-11.789,2.129c-2.5-0.462-4.15-1.719-5.417-3.693
				c-4.675-7.287-6.754-15.261-6.247-23.909c0.099-1.704,0.138-3.411,0.187-5.118c0.004-0.143-0.128-0.285-0.172-0.379
				c-3.084-0.164-6.134-0.326-9.66-0.516c-0.26,1.851-0.995,3.871-0.734,5.757c1.192,8.634-5.238,19.251-14.575,22.104
				c-7.109,2.172-13.995,1.458-20.243-2.852c-1.247-0.859-2.235-2.095-3.087-2.913c-4.092,1.896-7.969,4.417-12.209,5.444
				c-4.062,0.986-8.559,0.918-12.754,0.41c-5.014-0.607-8.424-4.682-9.303-9.698c-0.259-1.483-0.506-2.969-0.771-4.528
				c-2.227,2.672-4.085,5.377-6.426,7.565c-2.006,1.877-4.374,3.813-6.923,4.565c-4.494,1.324-8.215-1.051-11.317-4.188
				c-1.474-1.492-2.697-3.232-3.925-4.727c-3.746,3.432-7.42,6.981-11.291,10.3c-4.064,3.486-8.955,5.293-14.23,4.403
				c-5.886-0.993-9.328-3.73-10.526-10.516c-0.181-1.025-0.344-2.055-0.532-3.188c-3.055,3.566-5.777,7.218-8.981,10.383
				c-5.361,5.295-11.751,7.475-19.188,4.82c-4.371-1.561-7.461-4.507-8.998-8.957C388.071,343.592,387.761,342.503,387.35,341.189z
				 M458.732,316.074c0.052-0.003,0.103-0.005,0.153-0.007c0-1.709,0.13-3.43-0.035-5.123c-0.17-1.742,1.081-3.917-1.06-5.135
				c-2.348-1.336-4.174,0.389-6.046,1.443c-0.844,0.475-1.62,1.09-2.373,1.707c-7.171,5.875-11.971,13.34-14.973,22.07
				c-1.281,3.728-1.391,7.45-0.783,11.271c0.719,4.518,2.535,5.277,7.379,4.054c0.529-0.135,0.989-0.544,1.48-0.827
				c6.492-3.724,11.438-9.078,15.622-15.152c0.8-1.163,1.121-2.867,1.126-4.322C459.237,322.727,458.917,319.399,458.732,316.074z
				 M530.515,325.625c8.283-16.042,13.635-32.019,9.599-50.032C534.564,280.291,529.981,314.792,530.515,325.625z M466.518,315.02
				c7.663-14.82,9.988-30.819,10.575-47.209C470.397,282.827,466.096,298.39,466.518,315.02z M584.505,308.934
				c0.248,0.098,0.497,0.193,0.743,0.29c8.093-8.304,13.135-18.147,15.191-29.495c-0.353-0.278-0.707-0.558-1.06-0.837
				c-1.271,1.203-2.984,2.18-3.74,3.648c-2.92,5.671-5.661,11.443-8.209,17.292C586.166,302.74,585.463,305.893,584.505,308.934z
				 M396.555,324.773c2.025-1.976,3.836-3.677,5.573-5.449c4.05-4.133,7.739-8.554,10.009-13.944
				c0.57-1.355,0.627-2.928,0.989-4.757C404.358,304.038,396.79,317.187,396.555,324.773z M613.122,317.454
				c-7.672,6.675-9.28,15.611-11.725,24.664C607.102,339.028,613.934,324.608,613.122,317.454z"/>
		</g>
		<path fill="#F9ED32" d="M510.118,265.071c0,0,8.025-16.486,18.802-8.57c0,0,8.072,9.688-3.638,18.348
			c0,0,12.899,3.135,8.433,13.807c0,0-3.774,13.121-14.552,5.207c0,0,1.314,14.129-3.652,15.457
			c-4.966,1.327-15.523,4.548-12.784-12.244c0,0-9.216,13.609-14.649,10.484c-5.434-3.128-13.891-12.211-2.965-19.869
			c0,0-14.929-1.803-9.346-15.143c0,0,7.751-9.444,15.92-3.201c0,0-5.23-19.395,4.644-20.463
			C506.204,247.817,508.817,253.832,510.118,265.071z"/>
		<circle fill="#F37240" cx="506.1" cy="282.243" r="8.655"/>
		<g>
			<path fill="#F3D311" d="M513.964,263.707c2.079-5.202,8.995-9.183,14.513-7.849c3.415,0.826,5.062,4.536,4.562,7.756
				c-0.507,3.254-3.183,5.86-6.273,6.705c-0.924,0.251-1.034,1.477-0.409,2.068c3.776,3.582,9.481,7.754,10.034,13.343
				c0.295,2.993-2.128,5.3-4.793,6.022c-3.239,0.877-7.099-0.143-10.292-0.767c-0.911-0.179-1.691,0.72-1.393,1.597
				c1.81,5.31-0.024,10.971-5.98,12.177c-5.787,1.17-9.473-3.217-8.814-8.763c0.165-1.4-1.558-1.963-2.29-0.785
				c-3.166,5.086-9.518,10.357-15.046,5.154c-4.765-4.482-2.005-10.968,2.902-13.821c0.907-0.528,0.591-2.069-0.442-2.214
				c-5.15-0.72-12.717-4.031-11.15-10.452c1.82-7.47,11.145-5.489,16.588-4.411c0.825,0.162,1.451-0.504,1.455-1.289
				c0.026-5.289-1.894-12.615,1.573-17.186c2.547-3.359,6.861-1.418,8.983,1.186c2.486,3.051,3.557,7.239,3.961,11.07
				c0.164,1.562,2.604,1.393,2.438-0.179c-0.751-7.113-5.34-19.233-14.677-15.609c-7.387,2.864-4.688,15.021-4.714,20.897
				c0.484-0.43,0.971-0.859,1.455-1.289c-7.467-1.478-16.629-2.616-19.459,6.335c-2.438,7.699,6.959,12.47,13.072,13.323
				c-0.146-0.738-0.294-1.476-0.441-2.214c-6.453,3.753-8.711,11.632-3.415,17.429c2.226,2.436,5.691,3.479,8.896,2.863
				c4.599-0.883,7.854-4.721,10.204-8.499c-0.764-0.262-1.527-0.522-2.291-0.784c-0.83,6.992,3.68,12.71,11.035,11.734
				c7.774-1.032,10.811-8.593,8.466-15.473c-0.464,0.533-0.928,1.066-1.391,1.598c6.495,1.271,15.321,2.613,17.781-5.434
				c2.107-6.898-6.402-13.375-10.637-17.391c-0.137,0.689-0.273,1.379-0.41,2.069c7.647-2.087,11.585-13.624,3.719-18.171
				c-6.738-3.893-16.797,1.381-19.505,8.156C511.198,264.067,513.38,265.168,513.964,263.707L513.964,263.707z"/>
		</g>
		<g>
			<path fill="#DD452A" d="M514.36,287.749c4.191-3.082,5.703-8.119,2.303-12.433c-2.896-3.675-8.143-5.081-12.248-2.646
				c-5.081,3.015-6.34,10.437-2.395,14.731c3.998,4.354,11.416,3.828,14.777-0.916c0.902-1.273-0.92-2.902-1.83-1.619
				c-2.659,3.753-7.637,3.981-11.018,1.009c-3.655-3.214-1.559-9.167,2.15-11.369c2.819-1.671,6.583-0.114,8.533,2.169
				c2.682,3.142,1.459,6.771-1.633,9.045C511.733,286.649,513.087,288.684,514.36,287.749L514.36,287.749z"/>
		</g>
	</g>
</g>
</svg>
