<?xml version="1.0" encoding="utf-8"?>
<!-- Generator: Adobe Illustrator 16.0.0, SVG Export Plug-In . SVG Version: 6.00 Build 0)  -->
<!DOCTYPE svg PUBLIC "-//W3C//DTD SVG 1.1//EN" "http://www.w3.org/Graphics/SVG/1.1/DTD/svg11.dtd">
<svg version="1.1" id="Layer_1" xmlns="http://www.w3.org/2000/svg" xmlns:xlink="http://www.w3.org/1999/xlink" x="0px" y="0px"
	 width="1688px" height="524px" viewBox="0 0 1688 524" enable-background="new 0 0 1688 524" xml:space="preserve">
<g>
	<g>
		<path fill="#8DC63F" d="M996.834,360.69c0,0-27.164-52.151-61.932-38.025c0,0,1.088,67.361,57.584,39.112"/>
	</g>
	<g>
		<path fill="#4B8A3F" d="M959.102,369.244c-5.918,0.002-11.236-1.422-15.926-4.269c-19.467-11.815-20.201-43.628-20.225-44.976
			l-0.035-2.231l2.068-0.84c15.535-6.312,31.979-1.315,47.549,14.445c11.352,11.489,18.213,24.546,18.498,25.095l-5.779,3.014
			l-0.002-0.002l0,0c-0.104-0.197-6.787-12.865-17.449-23.621c-12.979-13.095-25.82-17.688-38.203-13.679
			c0.535,7.122,3.279,28.932,16.975,37.231c8.77,5.313,20.803,4.215,35.766-3.266l2.914,5.83
			C975.566,366.82,966.824,369.244,959.102,369.244z"/>
	</g>
	<g>
		<path fill="#FFFFFF" d="M1002.266,380.79c0,15.603-15.322,28.249-34.225,28.249c-18.9,0-34.225-12.646-34.225-28.249
			c0-15.599,15.324-28.247,34.225-28.247C986.943,352.542,1002.266,365.191,1002.266,380.79z"/>
	</g>
	<g>
		<path fill="#FFF200" d="M1002.959,371.314c0,0-33.475-28.147-62.383,7.608c-22.998,28.444,21.725,104.338,54.014,85.205
			c20.539-12.172,26.465-0.761,31.953-0.761c28.906,0,69.988-48.688,47.926-92.053
			C1052.816,328.753,1012.086,353.057,1002.959,371.314z"/>
	</g>
	<g>
		<path fill="#BE1E2D" d="M1002.959,371.314c0,0-33.475-28.147-62.383,7.608c-22.998,28.444,21.725,104.338,54.014,85.205
			c20.539-12.172,26.465-0.761,31.953-0.761c28.906,0,69.988-48.688,47.926-92.053
			C1052.816,328.753,1012.086,353.057,1002.959,371.314z"/>
	</g>
	<g>
		<path fill="#89241B" d="M978.121,471.418c-7.068,0-14.609-3.517-21.805-10.169c-6.396-5.914-12.359-14.084-17.248-23.631
			c-10.631-20.764-16.113-48.988-4.4-65.241c9.871-13.697,21.455-20.642,34.428-20.642c11.783,0,21.494,5.846,26.32,9.411
			c7.061-11.85,22.328-23.375,37.791-23.375c9.916,0,23.867,4.696,34.014,27.073c10.361,22.844,7.582,50.387-7.43,73.68
			c-11.291,17.517-27.375,28.836-40.977,28.836c-2.27,0-4.131-1.117-6.104-2.301c-2.346-1.407-4.77-2.862-8.332-2.862
			c-3.91,0-8.639,1.827-14.053,5.427C986.539,470.141,982.432,471.418,978.121,471.418z M969.096,358.252
			c-10.76,0-20.562,6.034-29.141,17.938c-4.432,6.149-6.178,15.229-5.047,26.252c1.053,10.278,4.592,21.716,9.963,32.206
			c9.408,18.377,22.459,30.252,33.25,30.252c3.004,0,5.896-0.91,8.596-2.704c6.596-4.386,12.373-6.516,17.662-6.516
			c5.367,0,9.02,2.191,11.688,3.79c0.965,0.58,2.285,1.371,2.748,1.371c11.268,0,25.531-10.388,35.498-25.85
			c13.807-21.422,16.414-46.639,6.973-67.453c-6.896-15.209-16.607-23.248-28.078-23.248c-15.281,0-29.436,13.49-33.775,23.228
			l-1.869,4.198l-3.344-3.153C994.113,368.463,983.049,358.252,969.096,358.252z"/>
	</g>
	<g>
		<path fill="#3C2415" d="M997.852,369.452c-1.213,0.001-2.375-0.679-2.938-1.844c-6.814-14.128-3.785-25.16-0.043-31.93
			c4.02-7.271,9.658-11.193,9.896-11.356c1.484-1.019,3.514-0.641,4.531,0.844c1.016,1.481,0.643,3.505-0.834,4.525
			c-0.758,0.526-18.295,13.077-7.68,35.084c0.781,1.623,0.102,3.57-1.52,4.353C998.809,369.347,998.326,369.452,997.852,369.452z"/>
	</g>
</g>
<g>
	<g>
		<path fill="#8DC63F" d="M127.863,67.301c-28.907,0-87.72,155.932,7.974,155.932C239.765,223.233,160.761,67.301,127.863,67.301"/>
	</g>
	<g>
		<path fill="#FFFFFF" d="M102.267,164.065c0-15.477,12.545-28.021,28.021-28.021c15.474,0,28.02,12.545,28.02,28.021
			s-12.546,28.021-28.02,28.021C114.812,192.086,102.267,179.542,102.267,164.065"/>
	</g>
	<g>
		<path fill="#603A17" d="M108.23,170.028c0-15.477,12.544-28.021,28.021-28.021c15.475,0,28.02,12.545,28.02,28.021
			c0,15.475-12.545,28.02-28.02,28.02C120.774,198.047,108.23,185.502,108.23,170.028"/>
	</g>
	<g>
		<path fill="#4B8A3F" d="M132.111,218.264c-19.334,0-33.969-6.123-43.497-18.199c-8.113-10.287-12.229-24.473-12.229-42.17
			c0-20.709,6.046-45.928,16.172-67.459c3.812-8.109,17.357-34.561,31.578-34.561c13.385,0,29.682,19.793,40.472,38.316
			c14.128,24.26,22.563,51.436,22.563,72.695c0,15.375-4.168,27.607-12.388,36.355C165.416,213.209,151.059,218.264,132.111,218.264
			z M124.136,62.334c-3.082,0-7.237,2.859-11.702,8.053c-4.782,5.561-9.632,13.443-14.03,22.797
			c-9.743,20.715-15.559,44.906-15.559,64.711c0,16.207,3.647,29.049,10.841,38.168c8.241,10.445,21.169,15.742,38.426,15.742
			c17.093,0,29.866-4.369,37.965-12.986c7.057-7.512,10.636-18.254,10.636-31.932c0-20.168-8.107-46.127-21.686-69.443
			C146.985,76.772,132.638,62.334,124.136,62.334z"/>
	</g>
	<g>
		<path fill="#3C2415" d="M130.288,195.317c-17.231,0-31.252-14.02-31.252-31.252c0-17.23,14.021-31.25,31.252-31.25
			c17.23,0,31.25,14.02,31.25,31.25C161.538,181.297,147.519,195.317,130.288,195.317z M130.288,139.274
			c-13.67,0-24.791,11.121-24.791,24.791s11.121,24.791,24.791,24.791s24.791-11.121,24.791-24.791S143.958,139.274,130.288,139.274
			z"/>
	</g>
</g>
<g>
	<g>
		<g>
			<g>
				<path fill="#8DC63F" d="M431.141,369.675c0,0,30.146,46.178,61.297,29.799c0,0-7.206-62.771-57.34-31.213"/>
			</g>
		</g>
		<g>
			<g>
				<path fill="#4B8A3F" d="M451.951,351.243c5.326-1.559,10.485-1.676,15.459-0.348c20.632,5.514,29.666,33.955,30.041,35.162
					l0.619,2.002l-1.641,1.301c-12.323,9.77-28.44,9.598-46.604-0.49c-13.242-7.357-22.854-17.305-23.257-17.723l4.41-4.234
					l0.001,0.002l0,0c0.146,0.15,9.496,9.793,21.925,16.67c15.129,8.373,27.896,9.127,37.99,2.26
					c-2.355-6.27-10.566-25.18-25.078-29.047c-9.295-2.475-19.836,1.68-31.336,12.352l-4.16-4.48
					C437.766,357.759,444.997,353.278,451.951,351.243z"/>
			</g>
		</g>
	</g>
	<g>
		<g>
			<g>
				<path fill="#8DC63F" d="M429.986,376.788c0,0,49.663-23.975,37.415-56.971c0,0-63.178-0.902-38.309,52.865"/>
			</g>
		</g>
		<g>
			<g>
				<path fill="#4B8A3F" d="M415.756,345.706c0.168-5.547,1.652-10.49,4.455-14.807c11.633-17.912,41.475-17.691,42.739-17.674
					l2.093,0.029l0.729,1.963c5.474,14.742,0.32,30.014-14.897,44.16c-11.095,10.314-23.529,16.373-24.054,16.627l-2.658-5.506l0,0
					l0,0c0.189-0.092,12.254-5.996,22.641-15.686c12.646-11.793,17.316-23.697,13.914-35.422
					c-6.691,0.299-27.215,2.248-35.385,14.85c-5.232,8.07-4.546,19.383,2.039,33.623l-5.548,2.566
					C417.559,361.212,415.536,352.948,415.756,345.706z"/>
			</g>
		</g>
	</g>
	<g>
		<path fill="#4B8A3F" d="M427.126,443.271c-0.644,0-1.294-0.182-1.87-0.566c-1.555-1.033-1.977-3.133-0.943-4.688
			c11.273-16.949,14.457-33.561,9.467-49.375c-2.098-6.646-5.234-11.705-7.572-14.852c-4.988,9.443-14.057,21.295-30.23,29.977
			c-10.869,5.836-19.785,7.465-20.158,7.531c-1.842,0.328-3.595-0.898-3.922-2.738c-0.326-1.838,0.898-3.592,2.734-3.922
			c0.363-0.064,33.014-6.305,47.131-37.121c0.188-0.406,0.37-0.814,0.547-1.229c0.439-1.02,1.352-1.758,2.439-1.979
			c1.086-0.219,2.215,0.111,3.016,0.881c0.334,0.324,8.25,8.061,12.465,21.416c3.877,12.279,5.238,31.818-10.283,55.154
			C429.294,442.741,428.219,443.271,427.126,443.271z"/>
	</g>
	<g>
		<path fill="#BE1E2D" d="M392.674,426.905c0,13.592-11.024,24.615-24.617,24.615c-13.594,0-24.616-11.023-24.616-24.615
			c0-13.598,11.022-24.617,24.616-24.617C381.65,402.288,392.674,413.308,392.674,426.905z"/>
	</g>
	<g>
		<path fill="#BE1E2D" d="M455.686,451.521c0,13.596-11.021,24.615-24.617,24.615c-13.59,0-24.617-11.02-24.617-24.615
			c0-13.594,11.027-24.615,24.617-24.615C444.665,426.905,455.686,437.927,455.686,451.521z"/>
	</g>
	<g>
		<path fill="#89241B" d="M361.034,450.479c-15.438,0-27.998-12.559-27.998-27.996s12.561-27.998,27.998-27.998
			c15.439,0,28,12.561,28,27.998S376.473,450.479,361.034,450.479z M361.034,401.249c-11.709,0-21.234,9.525-21.234,21.234
			c0,11.707,9.525,21.234,21.234,21.234c11.711,0,21.236-9.527,21.236-21.234C382.27,410.774,372.745,401.249,361.034,401.249z"/>
	</g>
	<g>
		<path fill="#89241B" d="M424.045,475.097c-15.437,0-27.997-12.561-27.997-27.998s12.561-27.996,27.997-27.996
			c15.439,0,28,12.559,28,27.996S439.485,475.097,424.045,475.097z M424.045,425.866c-11.707,0-21.234,9.525-21.234,21.232
			c0,11.709,9.527,21.234,21.234,21.234c11.711,0,21.236-9.525,21.236-21.234C445.282,435.392,435.756,425.866,424.045,425.866z"/>
	</g>
</g>
<g>
	<path fill="none" stroke="#3C2415" stroke-width="5" stroke-miterlimit="10" d="M1073.142,87.474c0,0-9.193-36.154-31.496-24.939
		c-22.303,11.217-16.721,37.16-7.68,42.498c9.039,5.34,31.281-14.621,18.602-25.594c-12.682-10.977-84-20-59.861,48.26"/>
	<path fill="#7F3F98" d="M976.273,105.363c0.166,12.475-9.492,22.717-21.572,22.879c-12.086,0.154-22.01-9.828-22.176-22.305
		c-0.162-12.475,9.494-22.719,21.58-22.875C966.187,82.902,976.111,92.888,976.273,105.363z"/>
	<path fill="#7F3F98" d="M977.109,151.726c0.174,13.338-10.15,24.281-23.066,24.453c-12.908,0.172-23.521-10.504-23.697-23.836
		c-0.176-13.334,10.154-24.277,23.062-24.447C966.324,127.726,976.933,138.392,977.109,151.726z"/>
	<path fill="#7F3F98" d="M977.892,194.628c0.139,10.439-7.941,19-18.051,19.133c-10.104,0.135-18.406-8.213-18.545-18.648
		c-0.139-10.439,7.949-19.002,18.051-19.133C969.455,175.847,977.759,184.199,977.892,194.628z"/>
	<g>
		<path fill="#452F8B" d="M957.796,77.298c-11.75-5.793-23.67-2.387-29.842,9.701c-5.225,10.242-4.631,24.613,3.957,32.729
			c9.768,9.234,26.709,6.148,32.094-6.307c5.441-12.555,0.131-29.602-11.672-36.053c-3.896-2.129-7.264,4.008-3.367,6.135
			c8.914,4.875,12.027,16.598,9.174,26.15c-3.062,10.258-16.533,10.41-22.887,3.588c-5.412-5.807-4.41-16.113-1.35-22.76
			c4.012-8.717,12.299-11.104,20.525-7.049C958.392,85.388,961.779,79.255,957.796,77.298L957.796,77.298z"/>
	</g>
	<g>
		<path fill="#452F8B" d="M957.871,123.798c-23.006-27.252-45.35,28.152-24.828,46.16c24.83,21.791,52.008-32.885,23.975-50.068
			c-4.418-2.713-8.311,4.434-3.914,7.127c18.781,11.512,1.1,50.783-15.746,35.998c-7.143-6.266-5.094-18.695-2.652-26.758
			c1.182-3.912,3.279-8.262,6.508-10.799c4.268-3.352,8.369,0.945,11.121,4.205C955.705,133.654,961.214,127.755,957.871,123.798
			L957.871,123.798z"/>
	</g>
	<path fill="#7F3F98" d="M1016.068,122.232c0.174,13.291-10.111,24.201-22.984,24.373c-12.875,0.166-23.447-10.469-23.623-23.762
		c-0.174-13.291,10.113-24.203,22.99-24.371C1005.324,98.302,1015.896,108.939,1016.068,122.232z"/>
	<path fill="#7F3F98" d="M1014.431,173.687c0.162,12.23-9.307,22.266-21.148,22.424c-11.84,0.158-21.57-9.631-21.73-21.859
		c-0.16-12.227,9.311-22.26,21.148-22.416C1004.544,151.679,1014.271,161.46,1014.431,173.687z"/>
	<g>
		<path fill="#452F8B" d="M996.382,92.333c-12.52-6.174-25.217-2.545-31.791,10.334c-5.568,10.914-4.936,26.223,4.215,34.871
			c10.406,9.836,28.453,6.549,34.191-6.721c5.797-13.375,0.139-31.537-12.436-38.412c-4.15-2.266-7.738,4.27-3.588,6.537
			c9.498,5.193,12.814,17.684,9.773,27.859c-3.262,10.93-17.613,11.092-24.383,3.824c-5.764-6.186-4.697-17.166-1.438-24.248
			c4.275-9.285,13.102-11.83,21.869-7.512C997.017,100.951,1000.625,94.416,996.382,92.333L996.382,92.333z"/>
	</g>
	<g>
		<path fill="#452F8B" d="M993.023,146.613c-19.643-25.008-38.654,25.777-21.135,42.307c21.195,20.002,44.328-30.111,20.404-45.891
			c-3.77-2.49-7.086,4.059-3.332,6.531c16.027,10.574,0.98,46.566-13.4,32.996c-6.098-5.75-4.359-17.146-2.283-24.537
			c1.004-3.588,2.789-7.574,5.541-9.898c3.635-3.068,7.139,0.875,9.488,3.867C991.185,155.648,995.878,150.246,993.023,146.613
			L993.023,146.613z"/>
	</g>
	<g>
		<path fill="#452F8B" d="M958.236,164.009c-24.521-9.764-39.621,36.85-15.922,46.033c24.613,9.535,33.721-31.971,19.254-46.508
			c-3.676-3.689-9.209,2.18-5.535,5.869c7.775,7.814,5.857,36.676-8.926,33.662c-16.713-3.41-7.479-37.734,9.119-31.125
			C961.009,173.845,962.951,165.888,958.236,164.009L958.236,164.009z"/>
	</g>
	<path fill="#7F3F98" d="M1046.964,149.958c0.139,10.438-7.939,19-18.051,19.131c-10.104,0.135-18.404-8.215-18.547-18.65
		c-0.135-10.436,7.953-19,18.053-19.131C1038.527,131.173,1046.832,139.527,1046.964,149.958z"/>
	<g>
		<path fill="#452F8B" d="M1027.308,119.339c-24.521-9.766-39.621,36.848-15.922,46.031c24.613,9.535,33.721-31.971,19.252-46.508
			c-3.672-3.689-9.207,2.18-5.535,5.867c7.777,7.816,5.859,36.678-8.924,33.664c-16.711-3.41-7.477-37.736,9.121-31.123
			C1030.082,129.173,1032.023,121.214,1027.308,119.339L1027.308,119.339z"/>
	</g>
</g>
<g>
	<path fill="#8DC63F" d="M1579.361,364.73c0,0-21.846-30.356-4.844-44.545c0,0,21.52,24.628,15.023,41.663
		c0,0,42.281-24.26,52.824-0.728c0,0-9.814,29.289-41.809,22.502c0,0,42.496,9.636,37.604,34.62c0,0-37.389-0.731-43.004-28.564"/>
	<path fill="#BE1E2D" d="M1529.311,331.46c-11.951,8.15-64.523,82.401-40.521,108.452c24,26.056,107.178-14.081,111.678-22.521
		C1614.281,391.481,1553.477,314.973,1529.311,331.46z"/>
	<g>
		<path fill="#89241B" d="M1544.719,342.525c16.014,21.902,43.385,36.921,53.801,62.73c12.414,30.75-38.135,28.78-55.506,32.96
			c-11.385,2.741-21.82,8.959-33.02,12.446c-11.084,3.445-20.104,2.979-20.57-10.547c-0.605-17.236,7.723-35.508,15.467-50.449
			c8.26-15.932,19.498-31.156,34.656-41.098c4.348-2.852,0.189-9.783-4.176-6.922c-29.709,19.489-50.994,59.675-53.92,94.756
			c-0.877,10.537,2.357,22.281,14.201,24.095c11.885,1.821,24.793-4.768,35.389-9.229c14.201-5.981,28.248-7.514,43.336-9.986
			c11.984-1.96,26.033-5.023,31.92-16.944c6.076-12.308-1.229-26.296-8.424-36.259c-9.795-13.568-22.67-24.711-34.443-36.489
			c-4.176-4.172-8.301-8.464-11.789-13.235C1548.588,334.177,1541.639,338.318,1544.719,342.525L1544.719,342.525z"/>
	</g>
	<g>
		<path fill="#4B8A3F" d="M1572.594,347.682c-7.295-8.579-3.48-20.104-0.111-29.536c-2.246,0.645-4.494,1.284-6.736,1.928
			c8.877,6.814,14.4,18.557,12.244,29.777c-0.441,2.313,1.277,5.425,4.029,5.016c18.252-2.727,35.383-6.26,53.855-3.068
			c-0.982-1.631-1.967-3.266-2.949-4.896c-2.029,15.026-20.793,18.543-31.109,26.598c-2.264,1.765-2.842,5.426,0.107,6.981
			c12.08,6.381,22.467,11.003,28.074,24.344c1.256-1.726,2.514-3.452,3.768-5.177c-10.803-0.084-22.879-2.074-28.021-12.765
			c-2.264-4.701-9.16-0.485-6.922,4.17c6.41,13.315,21.596,16.574,35.158,16.672c2.408,0.018,4.777-2.784,3.77-5.18
			c-6.584-15.665-17.475-21.51-31.865-29.114c0.035,2.332,0.066,4.66,0.105,6.99c12.32-9.619,32.332-13.436,34.781-31.576
			c0.277-2.054-0.611-4.488-2.957-4.893c-19.283-3.33-36.938-0.016-56.01,2.831c1.348,1.67,2.686,3.341,4.031,5.013
			c2.654-13.843-3.275-28.939-14.459-37.516c-2.547-1.957-5.641-1.147-6.738,1.93c-4.564,12.764-7.139,26.145,2.32,37.266
			C1570.342,357.455,1575.938,351.617,1572.594,347.682L1572.594,347.682z"/>
	</g>
</g>
<g>
	<g>
		<path fill="#FFDE17" d="M652.223,99.077c0,0-22.393,129.189,103.354,115.41c0,0,18.086-9.475,3.444-18.087
			c0,0-74.069-30.145-85.266-94.74C673.755,101.66,661.698,53.429,652.223,99.077z"/>
	</g>
	<g>
		<path fill="#EEAF21" d="M730.711,218.099c0,0-0.005,0-0.008,0c-29.891-0.002-52.795-9.208-68.074-27.361
			c-15.385-18.285-19.955-42.381-21.08-59.376c-1.211-18.302,1.138-32.146,1.238-32.727l0.016-0.084
			c3.113-15.007,6.807-21.698,11.975-21.698c3.981,0,7.443,4.051,10.895,12.741c2.242,5.651,3.641,11.205,3.699,11.438l0.039,0.186
			c5.637,32.51,28,55.964,45.77,69.914c19.412,15.242,37.742,22.801,37.926,22.875l0.334,0.165c4.732,2.784,7.085,6.096,6.992,9.842
			c-0.175,7.125-9.486,12.205-10.547,12.762l-0.433,0.226l-0.485,0.054C742.645,217.748,736.502,218.099,730.711,218.099z
			 M647.873,99.554c-0.28,1.699-8.771,55.223,18.728,87.872c14.252,16.922,35.818,25.504,64.104,25.506c0.003,0,0.006,0,0.006,0
			c5.451,0,11.229-0.322,17.187-0.958c2.263-1.291,7.294-4.824,7.37-8.09c0.049-2.102-2.27-3.953-4.293-5.167
			c-2.102-0.873-19.723-8.423-38.871-23.43c-26.539-20.8-43.053-46.072-47.766-73.086c-0.186-0.719-1.51-5.776-3.484-10.742
			c-3.08-7.742-5.428-9.438-6.074-9.438C654.745,82.021,651.418,82.499,647.873,99.554z"/>
	</g>
	<g>
		<path fill="#EEAF21" d="M753.456,211.873c-25.644-4.008-46.941-13.408-63.303-27.941c-13.107-11.645-23.064-26.564-29.588-44.346
			c-11.06-30.141-8.445-57.697-8.326-58.854l5.141,0.518l-2.571-0.259l2.571,0.258c-0.027,0.274-2.605,27.685,8.1,56.727
			c6.24,16.936,15.726,31.121,28.188,42.168c15.597,13.821,35.981,22.779,60.585,26.623L753.456,211.873z"/>
	</g>
	<g>
		<path fill="#603A17" d="M650.497,83.021c0,0,10.91-4.02,15.504,2.297s-1.723-18.374-7.465-16.65
			C652.795,70.389,652.22,81.298,650.497,83.021z"/>
	</g>
	<g>
		<path fill="#3C2415" d="M664.292,86.068c-1.27,0-2.156-0.996-2.787-1.864c-1.318-1.811-3.551-2.729-6.641-2.729
			c-3.39,0-6.516,1.127-6.547,1.138c-0.887,0.323-1.877-0.011-2.385-0.807c-0.498-0.781-0.398-1.798,0.238-2.466
			c0.277-0.404,0.73-1.988,1.061-3.147c1.238-4.334,2.934-10.272,7.855-11.747c0.379-0.113,0.77-0.172,1.162-0.172
			c6.293,0,10.473,15.093,10.473,18.713c0,0.596-0.076,1.084-0.231,1.497C666.124,85.46,665.28,86.068,664.292,86.068z
			 M654.864,77.454c2.829,0,5.257,0.632,7.182,1.851c-0.892-3.297-2.588-7.714-4.514-9.986c-0.711-0.837-1.176-1.025-1.283-1.025
			c-2.822,0.847-4.17,5.561-5.152,9.004c-0.049,0.176-0.098,0.346-0.146,0.516C652.122,77.607,653.465,77.454,654.864,77.454z"/>
	</g>
	<g>
		<path fill="#603A17" d="M755.469,199.947c0,0,1.441,11.537-5.75,14.58c-7.193,3.043,18.286,2.485,17.91-3.497
			C767.252,205.046,756.756,202.015,755.469,199.947z"/>
	</g>
	<g>
		<path fill="#3C2415" d="M755.489,216.07h-0.002c-3.384,0-5.719-0.41-6.125-2.406c-0.273-1.357,0.555-2.456,2.463-3.264
			c5.634-2.385,4.551-12.379,4.537-12.48c-0.117-0.937,0.434-1.828,1.323-2.143c0.873-0.31,1.843,0.019,2.35,0.789
			c0.331,0.363,1.771,1.162,2.825,1.748c3.942,2.188,9.34,5.184,9.662,10.312c0.053,0.821-0.123,2.055-1.252,3.257
			C768.161,215.194,759.588,216.07,755.489,216.07z M760.444,201.57c-0.182,3.214-1.023,7.584-3.953,10.467
			c6.66-0.183,11.873-2.145,12.021-3.152c-0.187-2.939-4.473-5.317-7.603-7.056C760.751,201.741,760.596,201.655,760.444,201.57z"/>
	</g>
</g>
<g>
	<g>
		<path fill="#8DC63F" d="M750.303,455.292c16.487-4.629,30.363-15.834,39.827-29.982c1.872-2.797,1.953-6.057-0.044-8.824
			c-5.818-8.072-12.944-14.734-21.727-19.414c-0.418-0.225-0.837-0.375-1.247-0.477c-13.64-12.242-27.233-24.502-40.555-37.129
			c-18.558-17.586-36.992-35.375-57.279-50.99c-2.549-1.967-7.021-1.699-8.855,1.201c-16.544,26.113-19.291,57.33-7.874,86.023
			c9.944,25,30.346,46.861,55.561,56.727C721.402,457.624,736.474,459.178,750.303,455.292z"/>
	</g>
	<path fill="#4B8A3F" d="M707.629,461.235l-0.003-0.002c-5.116-0.832-10.206-2.234-15.122-4.156
		c-24.218-9.477-44.76-30.422-54.946-56.031c-11.323-28.451-8.478-59.512,7.804-85.213c2.09-3.301,6.146-4.996,10.33-4.314
		c1.747,0.285,3.372,0.977,4.703,1.998c17.815,13.715,34.304,29.359,50.246,44.484l4.078,3.867
		c4.697,4.453,13.715,12.217,23.266,20.432c20.206,17.395,33.707,29.152,37.166,33.949c2.944,4.082,2.994,9.277,0.129,13.555
		c-10.017,14.971-24.253,25.668-40.1,30.117C726.51,462.36,717.236,462.799,707.629,461.235z M654.214,320.588
		c-0.577-0.094-1.015,0.08-1.092,0.164c-14.687,23.184-17.249,51.211-7.028,76.896c9.268,23.287,27.869,42.305,49.76,50.871
		c4.314,1.688,8.771,2.91,13.25,3.641h0.004c8.162,1.33,16.318,0.957,23.586-1.084c13.737-3.863,26.147-13.229,34.949-26.385
		c0.981-1.461,0.499-2.451,0.052-3.07c-3.079-4.271-21.173-19.844-35.706-32.355c-9.633-8.295-18.731-16.123-23.591-20.729
		l-4.083-3.869c-15.772-14.967-32.087-30.447-49.522-43.869C654.695,320.727,654.497,320.633,654.214,320.588z"/>
</g>
<g>
	<path fill="#F26522" d="M205.729,376.249c8.784,37.893-12.937,75.298-48.51,83.541c-35.573,8.247-71.531-15.793-80.311-53.675
		c-8.778-37.892,12.938-75.296,48.514-83.544C160.993,314.331,196.948,338.364,205.729,376.249z"/>
	<path fill="#B94126" d="M207.772,383.771c-11.355-35.745-46.69-62.729-86.974-62.999c-1.142-0.008-1.984,0.417-2.534,1.049
		c-11.818-0.319-23.481,2.03-33.345,8.694c-10.952,7.4-17.743,18.774-21.237,30.786c-7.771,26.736-0.244,58.184,18.011,79.829
		c22.016,26.104,58.694,32.43,91.036,19.942c15.87-6.129,28.261-17.286,34.576-32.258
		C213.321,414.549,212.368,398.243,207.772,383.771z M198.284,432.001c-8.761,15.816-26.166,24.183-44.209,27.603
		c-16.742,3.171-34.123,1.129-48.845-7.143c-13.119-7.373-22.646-19.209-28.961-32.053c-11.431-23.249-13.657-56.416,4.441-77.396
		c10.835-12.559,27.757-16.479,44.363-14.328c1.372,0.179,2.493-0.323,3.249-1.105c34.939,3.359,63.801,28.168,73.406,59.744
		C206.191,401.992,205.887,418.28,198.284,432.001z"/>
</g>
<g>
	<g>
		<path fill="#FFDE17" d="M1274.149,343.614c0,0-10.193-17.271-44.162,0c-33.971,17.27-44.021,84.353,16.984,117.435
			c50.955,27.633,91.721,5.181,107.008-31.086c6.572-15.592,13.023-45.33,6.793-64.33
			C1352.28,339.727,1322.562,311.125,1274.149,343.614z"/>
	</g>
	<g>
		<path fill="#EEAF21" d="M1285.149,469.289c0,0-0.004,0-0.008,0c-14.781-0.002-30.219-4.239-45.881-12.592
			c-15.68-8.362-27.668-19.254-35.631-32.371c-7.018-11.561-10.637-24.623-10.463-37.772c0.299-22.646,11.678-42.874,28.994-51.531
			c10.514-5.257,19.959-7.923,28.074-7.923c10.059,0,15.727,4.072,18.357,6.736c14.207-8.98,27.793-13.531,40.418-13.531
			c26.92,0,43.334,20.587,49.209,38.215c6.791,20.369-0.658,51.242-6.947,65.92c-5.633,13.143-14.436,24.232-25.453,32.07
			C1314.063,464.87,1300.001,469.289,1285.149,469.289z M1250.235,332.677c-7.24,0-15.848,2.468-25.58,7.334
			c-15.469,7.735-25.641,26.033-25.912,46.614c-0.164,12.583,3.709,44.117,43.143,65.148c14.848,7.919,29.4,11.935,43.256,11.937
			c0.002,0,0.006,0,0.006,0c13.689,0.001,26.633-4.062,37.438-11.746c10.184-7.244,18.33-17.522,23.559-29.725
			c6.41-14.951,12.75-44.06,6.785-61.956c-5.291-15.87-19.967-34.401-43.918-34.401c-12.133,0-25.402,4.697-39.439,13.963
			l-2.428,1.604l-1.5-2.497C1265.497,338.722,1261.546,332.677,1250.235,332.677z"/>
	</g>
	<g>
		<path fill="#EEAF21" d="M1261.979,390.978c-1.592,0-2.951-1.217-3.1-2.835c-3.195-35.15,9.025-50.528,9.547-51.165
			c1.09-1.333,3.055-1.528,4.387-0.438c1.328,1.086,1.525,3.041,0.447,4.373c-0.164,0.208-11.105,14.395-8.172,46.665
			c0.156,1.715-1.107,3.23-2.822,3.386C1262.171,390.973,1262.075,390.978,1261.979,390.978z"/>
	</g>
	<g>
		<line fill="#FFFFFF" x1="1270.153" y1="337.896" x2="1268.269" y2="328.17"/>
		<path fill="#603913" d="M1271.159,341.403c-0.102,0.029-0.207,0.054-0.312,0.073c-1.977,0.384-3.893-0.908-4.273-2.885
			l-1.887-9.727c-0.383-1.979,0.908-3.899,2.887-4.275c1.979-0.383,3.893,0.91,4.277,2.887l1.883,9.727
			C1274.097,339.074,1272.958,340.888,1271.159,341.403z"/>
	</g>
</g>
<g>
	<g>
		<polygon fill="#FFFFFF" points="1559.501,167.569 1554.817,114.126 1528.269,116.163 1509.53,130.415 1494.954,146.7 
			1489.749,176.731 1501.2,196.582 1511.093,205.744 		"/>
	</g>
	<g>
		<g>
			<path fill="#F26522" d="M1563.983,116.196c-6.811-0.205-10.488-3.007-34.951,9.51c-5.377,2.751-21.217,8.568-24.623,15.143
				c-12.074,23.326-3.93,63.685,33.107,75.964c33.502,11.105,59.012-1.983,70.018-28.268c4.734-11.3,3.48-28.631-1.002-42.401
				C1600.415,127.37,1570.796,116.398,1563.983,116.196z"/>
		</g>
	</g>
	<g>
		<path fill="#B94126" stroke="#B94126" stroke-width="3" stroke-miterlimit="10" d="M1551.694,214.417
			c-16.615,0-31.936-3.807-43.143-10.719c-13.209-8.148-20.191-20.222-20.191-34.915c0-14.842,7.162-29.862,19.65-41.21
			c12.193-11.083,27.926-17.439,43.164-17.439c18.387,0,35.545,7.162,45.895,19.16c8.137,9.431,11.459,21.022,9.607,33.521
			c-2.197,14.839-8.15,27.493-17.217,36.595C1579.681,209.228,1566.622,214.417,1551.694,214.417z M1551.175,113.953
			c-14.301,0-29.098,5.994-40.598,16.446c-11.693,10.627-18.398,24.616-18.398,38.385c0,13.3,6.354,24.25,18.377,31.665
			c10.613,6.546,25.223,10.15,41.139,10.15c13.891,0,26.014-4.801,35.061-13.883c8.484-8.519,14.068-20.435,16.146-34.46
			c1.684-11.367-1.332-21.902-8.721-30.469C1584.544,120.621,1568.468,113.953,1551.175,113.953z"/>
	</g>
	<polygon fill="#FFFFFF" points="1564.585,56.353 1571.694,63.882 1563.315,71.452 1557.638,62.26 	"/>
	<polygon fill="#FFFFFF" points="1594.827,117.716 1597.681,127.671 1586.759,130.54 1585.944,119.767 	"/>
	<g>
		<g>
			<g>
				<path fill="#8DC63F" d="M1561.19,103.826c0,0-19.521-31.485-0.855-45.218c0,0,36.014,22.703,2.822,43.278"/>
			</g>
		</g>
		<g>
			<g>
				<path fill="#4B8A3F" stroke="#4B8A3F" stroke-width="3" stroke-miterlimit="10" d="M1579.415,91.672
					c1.904-3.147,2.857-6.427,2.854-9.821c-0.021-14.258-16.963-25.046-17.684-25.498l-0.811-0.509l-0.77,0.572
					c-8.393,6.264-11.027,16.718-7.611,30.23c2.518,9.966,8.732,22.414,8.936,22.75l2.389-1.451
					c-0.049-0.079-6.223-12.472-8.631-22.039c-3.029-12.039-1.07-20.998,5.818-26.647c3.293,2.286,15.559,11.542,15.57,22.603
					c0.006,6.852-8.545,15.253-17.855,21.132l1.492,2.362C1568.903,101.7,1576.901,95.825,1579.415,91.672z"/>
			</g>
		</g>
		<g>
			<g>
				<g>
					<path fill="#8DC63F" d="M1559.979,105.634c0,0,37.016-10.713,46.047,12.16c0,0-32.43,29.959-44.596-9.606"/>
				</g>
			</g>
			<g>
				<g>
					<path fill="#4B8A3F" stroke="#4B8A3F" stroke-width="3" stroke-miterlimit="10" d="M1583.89,106.422
						c12.652,0.234,20.943,4.552,24.662,12.834c-3.131,2.633-15.506,12.229-26.393,9.289c-6.742-1.822-11.832-8.186-15.131-18.916
						l-2.723,0.838c2.053,6.675,4.803,11.82,8.221,15.399c2.586,2.714,5.559,4.528,8.898,5.43
						c14.035,3.782,29.168-10.005,29.807-10.594l0.715-0.663l-0.359-0.906c-3.92-9.93-13.502-15.312-27.709-15.559
						c-10.477-0.182-19.191,0.061-19.576,0.172l0.791,2.736"/>
				</g>
			</g>
			<g>
				<g>
					<path fill="#4B8A3F" stroke="#4B8A3F" stroke-width="3" stroke-miterlimit="10" d="M1572.526,125.867
						c2.586,2.714,5.559,4.528,8.898,5.43c14.035,3.782,29.168-10.005,29.807-10.594l0.715-0.663l-0.359-0.906
						c-3.92-9.93-13.502-15.312-27.709-15.559c-10.477-0.182-19.123-0.28-19.508-0.169l0.791,2.736
						c0.092-0.025,8.672,0.096,18.729,0.28c12.652,0.234,20.943,4.552,24.662,12.834c-3.131,2.633-15.506,12.229-26.393,9.289
						c-6.742-1.822-13.367-12.594-16.664-23.324l-3.402,0.701C1564.146,112.596,1569.108,122.288,1572.526,125.867z"/>
				</g>
			</g>
		</g>
		<g>
			<path fill="#4B8A3F" stroke="#4B8A3F" stroke-width="3" stroke-miterlimit="10" d="M1541.788,113.972l-2.08-2.332
				c0.223-0.199,5.551-4.885,13.799-6.777c10.162-2.332,23.775-1.696,26.402-1.544l-0.18,3.117
				c-2.553-0.146-15.773-0.766-25.525,1.472C1546.729,109.624,1541.837,113.928,1541.788,113.972z"/>
		</g>
	</g>
	<g>
		<g>
			<line fill="#3C2415" x1="1548.313" y1="110.016" x2="1541.731" y2="110.725"/>
		</g>
		<g>
			<path fill="#3C2415" d="M1539.343,111.197c-0.016-0.069-0.025-0.141-0.031-0.212c-0.146-1.338,0.824-2.54,2.16-2.684l6.582-0.707
				c1.338-0.145,2.543,0.825,2.684,2.162c0.143,1.339-0.824,2.539-2.164,2.683l-6.58,0.709
				C1540.726,113.284,1539.583,112.423,1539.343,111.197z"/>
		</g>
	</g>
</g>
<g>
	<g>
		<path fill="#8DC63F" d="M1247.894,121.87c0,0-2.785-45.549,20.426-48.033c23.213-2.484,21.355,53.831,33.426,63.77
			c12.07,9.938,27.322,23.209,25.998,39.75c-1.857,23.19-7.428,45.551-47.354,45.551c-34.816,0-46.422-31.954-45.496-50.519
			C1236.751,135.121,1248.821,132.636,1247.894,121.87z"/>
	</g>
	<g>
		<path fill="#4B8A3F" d="M1274.384,224.297c-12.861,0-23.598-4.419-31.91-13.134c-11.758-12.328-15.307-29.827-14.773-41.067
			c1.145-24.149,6.289-34.479,9.693-41.314c2-4.012,3.203-6.434,2.922-9.884l-0.004-0.06c-0.115-1.996-2.561-48.906,22.076-51.679
			c0.574-0.063,1.15-0.098,1.709-0.098c14.691,0,19.488,21.279,23.721,40.053c2.467,10.959,5.023,22.293,8.953,25.694
			c10.297,8.913,27.527,23.831,26.094,42.67c-0.902,11.84-2.691,24.084-9.615,33.426
			C1305.573,219.262,1292.858,224.297,1274.384,224.297z M1245.407,118.517c0.389,4.851-1.303,8.245-3.443,12.542
			c-3.213,6.451-8.068,16.202-9.162,39.279c-0.525,11.04,3.406,26.855,13.367,37.3c7.312,7.666,16.803,11.552,28.215,11.552
			c16.744,0,28.117-4.357,34.762-13.326c6.154-8.301,7.783-19.695,8.627-30.773c1.145-15.016-11.4-27.214-24.344-38.42
			c-5.201-4.502-7.701-15.593-10.594-28.433c-3.811-16.906-8.131-36.068-18.738-36.068c-0.369,0-0.752,0.021-1.137,0.064
			c-10.049,1.132-14.307,13.286-16.109,23.283C1244.823,106.755,1245.376,117.908,1245.407,118.517z"/>
	</g>
	<g>
		<path fill="#3C2415" d="M1262.671,72.027c-1.109,0-2.09-0.797-2.283-1.927c-0.18-1.039-1.619-10.286,2.652-15.354
			c1.734-2.06,4.203-3.146,7.137-3.146c1.281,0,2.322,1.039,2.322,2.321s-1.041,2.32-2.322,2.32c-1.584,0-2.723,0.474-3.584,1.491
			c-2.455,2.904-2.008,9.347-1.629,11.584c0.213,1.262-0.637,2.462-1.9,2.677C1262.933,72.016,1262.8,72.027,1262.671,72.027z"/>
	</g>
</g>
<g>
	
		<circle fill="none" stroke="#F26522" stroke-width="2" stroke-miterlimit="10" stroke-dasharray="12.118,12.118" cx="1275.753" cy="133.891" r="108"/>
</g>
<g>
	
		<circle fill="none" stroke="#F26522" stroke-width="2" stroke-miterlimit="10" stroke-dasharray="12.118,12.118" cx="1279.319" cy="388.915" r="108"/>
</g>
<g>
	
		<circle fill="none" stroke="#F26522" stroke-width="2" stroke-miterlimit="10" stroke-dasharray="12.118,12.118" cx="1555.78" cy="133.891" r="108"/>
</g>
<g>
	
		<circle fill="none" stroke="#F26522" stroke-width="2" stroke-miterlimit="10" stroke-dasharray="12.118,12.118" cx="1559.347" cy="388.915" r="108"/>
</g>
<g>
	
		<circle fill="none" stroke="#F26522" stroke-width="2" stroke-miterlimit="10" stroke-dasharray="12.118,12.118" cx="989.753" cy="133.891" r="108"/>
</g>
<g>
	
		<circle fill="none" stroke="#F26522" stroke-width="2" stroke-miterlimit="10" stroke-dasharray="12.118,12.118" cx="993.319" cy="388.915" r="108"/>
</g>
<g>
	
		<circle fill="none" stroke="#F26522" stroke-width="2" stroke-miterlimit="10" stroke-dasharray="12.118,12.118" cx="703.752" cy="133.891" r="108"/>
</g>
<g>
	
		<circle fill="none" stroke="#F26522" stroke-width="2" stroke-miterlimit="10" stroke-dasharray="12.118,12.118" cx="707.32" cy="388.915" r="108"/>
</g>
<g>
	
		<circle fill="none" stroke="#F26522" stroke-width="2" stroke-miterlimit="10" stroke-dasharray="12.118,12.118" cx="417.752" cy="133.891" r="108"/>
</g>
<g>
	
		<circle fill="none" stroke="#F26522" stroke-width="2" stroke-miterlimit="10" stroke-dasharray="12.118,12.118" cx="421.32" cy="388.915" r="108"/>
</g>
<g>
	
		<circle fill="none" stroke="#F26522" stroke-width="2" stroke-miterlimit="10" stroke-dasharray="12.118,12.118" cx="131.752" cy="133.891" r="108"/>
</g>
<g>
	
		<circle fill="none" stroke="#F26522" stroke-width="2" stroke-miterlimit="10" stroke-dasharray="12.118,12.118" cx="135.32" cy="388.915" r="108"/>
</g>
<g>
	<g>
		<path fill="#BE202E" d="M399.367,119.803c0,0-3.254-43.424,23.855-45.794c27.107-2.365,24.936,51.325,39.033,60.804
			c14.094,9.472,17.811,28.012,16.261,43.787c-2.167,22.105-7.587,38.719-54.212,38.719c-40.659,0-54.209-30.467-53.133-48.167
			C373.342,133.617,400.45,130.072,399.367,119.803z"/>
	</g>
	<g>
		<path fill="#89251B" d="M417.291,218.642c-15.02,0-27.558-4.214-37.262-12.521c-13.732-11.755-17.879-28.439-17.253-39.159
			c1.335-23.022,20.358-34.051,24.331-40.565c2.336-3.828,3.744-6.135,3.414-9.423l-0.005-0.058
			c-0.138-1.901-2.991-46.629,25.78-49.274c0.67-0.061,1.34-0.089,1.994-0.089c17.158,0,22.758,20.284,27.703,38.184
			c2.881,10.452,5.865,21.257,10.457,24.501c12.022,8.497,18.049,28.609,16.375,46.571c-1.053,11.286-3.145,22.96-11.227,31.872
			C452.631,218.551,438.865,218.642,417.291,218.642z M396.465,116.609c0.453,4.626-1.522,7.86-4.018,11.957
			c-3.755,6.151-22.438,16.624-23.715,38.627c-0.613,10.523,3.979,25.607,15.614,35.562c8.538,7.312,19.622,11.017,32.948,11.017
			c19.553,0,31.748,0.556,39.51-7.999c7.187-7.909,9.088-18.777,10.07-29.337c1.338-14.317,0.785-31.836-14.332-42.518
			c-6.072-4.296-8.994-14.867-12.373-27.111c-4.447-16.117-9.49-34.39-21.881-34.39c-0.43,0-0.877,0.021-1.326,0.062
			c-11.736,1.082-16.709,12.666-18.813,22.201C395.781,105.396,396.426,116.028,396.465,116.609z"/>
	</g>
	<g>
		<path fill="#3B2416" d="M412.412,75.661c-1.248,0.348-2.603-0.239-3.18-1.448c-0.523-1.11-5.061-11.053-1.855-18.094
			c1.301-2.866,3.734-4.868,7.033-5.791c1.441-0.406,2.938,0.435,3.342,1.873c0.404,1.443-0.438,2.939-1.877,3.344
			c-1.785,0.5-2.914,1.393-3.561,2.812c-1.846,4.036,0.688,11.138,1.82,13.535c0.639,1.353,0.057,2.967-1.293,3.608
			C412.701,75.563,412.557,75.619,412.412,75.661z"/>
	</g>
</g>
</svg>
