<?xml version="1.0" encoding="utf-8"?>
<!-- Generator: Adobe Illustrator 16.0.0, SVG Export Plug-In . SVG Version: 6.00 Build 0)  -->
<!DOCTYPE svg PUBLIC "-//W3C//DTD SVG 1.1//EN" "http://www.w3.org/Graphics/SVG/1.1/DTD/svg11.dtd">
<svg version="1.1" id="Layer_1" xmlns="http://www.w3.org/2000/svg" xmlns:xlink="http://www.w3.org/1999/xlink" x="0px" y="0px"
	 width="2500px" height="1000px" viewBox="0 0 2500 1000" enable-background="new 0 0 2500 1000" xml:space="preserve">
<g>
	<path fill="#FFFFFF" d="M879.052,419.571c0,0-48.952,98.109,38.471,163.675c0,0,82.592,58.746,119.003-2.198L879.052,419.571z"/>
	<polygon fill="#FFFFFF" points="1031.653,218.985 1082.648,218.985 1104.967,245.911 1143.359,204.417 1179.933,190.108 
		1199.547,225.647 1207.787,278.584 1272.063,320.979 1247.782,362.26 1208.926,362.26 1221.068,461.823 1189.501,452.112 
		1164.864,434.142 1153.073,478.823 1119.076,493.394 1087.506,478.823 1085.077,439.969 1090.244,404.044 1026.936,410.066 
		982.391,388.374 987.943,359.832 1019.511,335.547 1056.843,324.489 1026.796,299.123 1012.225,257.84 	"/>
	<polygon fill="#FFFFFF" points="1383.079,137.149 1358.254,137.149 1333.431,168.448 1347.462,199.75 1332.35,253.717 
		1339.907,282.86 1321.558,309.842 1334.509,335.747 1361.491,326.032 1369.05,282.86 	"/>
	<polygon fill="#FFFFFF" points="1454.36,376.563 1447.201,316.859 1467.265,330.348 1472.663,364.888 1550.419,347.516 
		1548.215,365.966 1516.913,394.031 1554.691,424.25 1512.597,433.964 1517.991,465.267 1475.9,492.249 1358.254,533.266 
		1344.224,511.678 	"/>
	<polygon fill="#FFFFFF" points="1561.167,532.188 1566.562,499.806 1603.261,487.933 1630.243,503.045 1607.577,547.296 
		1568.807,549.74 1520.151,587.233 1498.563,572.122 1507.199,547.296 	"/>
	<g>
		<path fill="#BE1E2D" d="M1009.695,854.303c-2.413,0-4.604-0.958-6.571-2.858h-0.382c-1.461,0-3.238,0.095-5.335,0.285
			c-2.792,0.253-4.541,0.382-5.236,0.382c-4.319,0-7.972-0.983-10.954-2.953c-3.494-2.286-5.239-5.461-5.239-9.524
			c0-4.445,2.539-7.684,7.621-9.717l9.619-1.904c1.776-0.315,4.92-0.951,9.429-1.906c0.127-0.38,0.19-0.667,0.19-0.857
			c0-5.461-1.872-8.189-5.619-8.189c-2.033,0-4.763,1.43-8.19,4.285l-7.241,6.476l-1.998-0.759
			c-1.142-1.208-1.907-2.735-2.286-4.572c1.078-3.052,3.681-5.986,7.811-8.811c4.126-2.83,7.811-4.243,11.048-4.243
			c0.446,0,2.605,0.417,6.477,1.243c5.527,1.204,9.16,2.852,10.909,4.951c1.742,2.094,2.618,5.936,2.618,11.523
			c0,1.145-0.13,3.908-0.383,8.288c-0.189,3.301-0.284,6.033-0.284,8.192c0-0.256,0.189,1.616,0.572,5.616
			c0.063,0.636,0.095,1.18,0.095,1.625c0,2.283-1.654,3.428-4.955,3.428H1009.695z M1001.312,835.726
			c-1.841,0-4.285,0.417-7.333,1.239c-3.428,0.892-5.654,1.844-6.666,2.858l-0.667,0.664c-0.762,0.766-1.145,1.274-1.145,1.527
			c0,1.461,2.729,2.188,8.193,2.188c1.078,0,2.602-0.187,4.572-0.569c2.223-0.383,3.586-0.797,4.095-1.239
			c0.506-0.442,0.762-1.683,0.762-3.712C1003.124,836.712,1002.521,835.726,1001.312,835.726z"/>
		<path fill="#BE1E2D" d="M1038.986,812.771c3.927-2.454,6.567-3.684,7.918-3.684c4.974,0,7.459,1.78,7.459,5.341l-0.275,2.118
			l-2.026,1.195c-0.307,0-1.028-0.215-2.166-0.645c-1.136-0.427-1.916-0.642-2.347-0.642c-2.887,0-5.28,3.497-7.181,10.498
			c-1.474,5.397-2.211,10.217-2.211,14.454c0,1.104,0.092,2.517,0.275,4.233c0.247,2.337,0.37,3.748,0.37,4.234
			c0,2.087-1.322,3.134-3.959,3.134c-6.631,0-9.945-1.571-9.945-4.715c0-0.743,0.124-1.834,0.37-3.285
			c0.243-1.448,0.367-2.543,0.367-3.279v-8.048c0-10.105-0.646-17.442-1.936-22.005c1.167-1.727,4.513-2.59,10.037-2.59
			C1037.114,809.088,1038.862,810.317,1038.986,812.771z"/>
		<path fill="#BE1E2D" d="M1073.235,812.771c3.93-2.454,6.57-3.684,7.921-3.684c4.971,0,7.459,1.78,7.459,5.341l-0.278,2.118
			l-2.023,1.195c-0.31,0-1.031-0.215-2.166-0.645c-1.135-0.427-1.92-0.642-2.347-0.642c-2.887,0-5.28,3.497-7.181,10.498
			c-1.477,5.397-2.211,10.217-2.211,14.454c0,1.104,0.092,2.517,0.275,4.233c0.247,2.337,0.37,3.748,0.37,4.234
			c0,2.087-1.321,3.134-3.962,3.134c-6.628,0-9.945-1.571-9.945-4.715c0-0.743,0.124-1.834,0.37-3.285
			c0.247-1.448,0.37-2.543,0.37-3.279v-8.048c0-10.105-0.646-17.442-1.936-22.005c1.167-1.727,4.513-2.59,10.037-2.59
			C1071.363,809.088,1073.115,810.317,1073.235,812.771z"/>
		<path fill="#BE1E2D" d="M1124.205,854.303c-2.416,0-4.604-0.958-6.574-2.858h-0.379c-1.461,0-3.238,0.095-5.335,0.285
			c-2.795,0.253-4.541,0.382-5.239,0.382c-4.319,0-7.969-0.983-10.954-2.953c-3.494-2.286-5.239-5.461-5.239-9.524
			c0-4.445,2.539-7.684,7.621-9.717l9.619-1.904c1.776-0.315,4.923-0.951,9.433-1.906c0.126-0.38,0.189-0.667,0.189-0.857
			c0-5.461-1.872-8.189-5.619-8.189c-2.033,0-4.763,1.43-8.193,4.285l-7.238,6.476l-2.001-0.759
			c-1.142-1.208-1.904-2.735-2.286-4.572c1.078-3.052,3.684-5.986,7.813-8.811c4.126-2.83,7.811-4.243,11.048-4.243
			c0.443,0,2.603,0.417,6.477,1.243c5.524,1.204,9.157,2.852,10.906,4.951c1.745,2.094,2.621,5.936,2.621,11.523
			c0,1.145-0.13,3.908-0.383,8.288c-0.189,3.301-0.284,6.033-0.284,8.192c0-0.256,0.189,1.616,0.569,5.616
			c0.062,0.636,0.098,1.18,0.098,1.625c0,2.283-1.653,3.428-4.955,3.428H1124.205z M1115.822,835.726
			c-1.844,0-4.284,0.417-7.333,1.239c-3.428,0.892-5.653,1.844-6.669,2.858l-0.667,0.664c-0.762,0.766-1.145,1.274-1.145,1.527
			c0,1.461,2.731,2.188,8.193,2.188c1.078,0,2.602-0.187,4.572-0.569c2.223-0.383,3.589-0.797,4.095-1.239
			c0.509-0.442,0.762-1.683,0.762-3.712C1117.631,836.712,1117.027,835.726,1115.822,835.726z"/>
		<path fill="#BE1E2D" d="M1180.691,849.917c-0.066,1.714-2.416,2.574-7.049,2.574c-1.271,0-2.795-0.225-4.572-0.667
			c-2.223-0.569-3.336-1.363-3.336-2.378c0-1.717,0.171-3.716,0.509-6.002c0.541-3.494,0.812-5.464,0.812-5.907
			c0.136-1.015,0.206-2.062,0.206-3.146v-3.235c0-10.033-2.015-15.052-6.04-15.052c-5.944,0-8.917,8.117-8.917,24.354
			c0,2.84,0.256,6.033,0.762,9.569l-1.047,1.894c-1.65,0.38-2.987,0.569-4,0.569h-1.523c-5.146,0-7.716-1.201-7.716-3.602
			c0-1.961,0.092-3.953,0.284-5.977c0.572-6.005,0.857-9.325,0.857-9.957v-2.653c0-7.843-0.509-14.104-1.524-18.78
			c0.506-1.454,1.777-2.309,3.801-2.561h5.133c1.015,0,3.326,0.667,6.94,1.998c-0.319,0,1.616-0.187,5.796-0.566
			c0.699-0.062,1.233-0.098,1.616-0.098c7.032,0,12.02,1.43,14.966,4.284c2.951,2.858,4.421,7.779,4.421,14.765v4.192
			c0,0.19,0,1.363,0,3.522L1180.691,849.917z"/>
		<path fill="#BE1E2D" d="M1228.407,827.532c0,2.988,0.162,6.926,0.478,11.814l0.763,11.811c0.062,1.015,0.095,3.111,0.095,6.286
			c0,4.636-2.188,8.225-6.571,10.764c-3.557,2.097-7.842,3.144-12.857,3.144c-13.145,0-20.86-2.729-23.146-8.19
			c0.636-1.019,1.65-1.875,3.049-2.574c1.395-0.698,2.697-1.046,3.904-1.046c0.316,0,2.334,1.033,6.047,3.099
			c3.715,2.059,6.428,3.093,8.146,3.093c3.111,0,5.303-0.854,6.57-2.571c1.016-1.464,1.524-3.811,1.524-7.048
			c0-3.049-1.65-4.573-4.952-4.573c-1.142,0-3.111,0.127-5.903,0.38c-0.702,0.063-1.239,0.095-1.622,0.095
			c-10.729,0-16.096-5.903-16.096-17.718c0-6.217,1.269-11.87,3.808-16.952c3.175-6.346,7.558-9.524,13.145-9.524
			c1.335,0,2.764,0.222,4.288,0.664c3.681,1.085,5.745,1.623,6.191,1.623c0.19,0,0.937-0.301,2.235-0.904
			c1.303-0.604,2.271-0.908,2.906-0.908c2.795,0,6.033,0.51,9.717,1.521l0.572,1.717
			C1229.173,815.915,1228.407,821.249,1228.407,827.532z M1215.266,820.582c-0.189-3.491-1.334-5.239-3.428-5.239
			c-2.988,0-5.527,2.7-7.624,8.095c-1.84,4.702-2.76,8.927-2.76,12.671c0,7.238,1.938,10.858,5.812,10.858
			c2.536,0,4.538-1.521,5.999-4.572c1.204-2.413,1.812-5.05,1.812-7.905v-0.383c0.189-4.506,0.284-7.969,0.284-10.381v-1.236
			C1215.36,822.236,1215.329,821.601,1215.266,820.582z"/>
		<path fill="#BE1E2D" d="M1268.51,852.969c-4.319,1.204-7.558,1.809-9.714,1.809c-14.803,0-22.198-6.235-22.198-18.707
			c0-4.263,0.856-8.848,2.573-13.746c1.904-5.536,4.316-9.385,7.238-11.548c1.588-1.208,4.254-1.814,8-1.814
			c5.777,0,10.701,1.337,14.765,4.009c4.765,3.058,7.146,7.327,7.146,12.801c0,5.097-0.99,9.233-2.957,12.417
			c-2.35,3.884-5.903,5.828-10.666,5.828c-1.461,0-3.636-0.319-6.523-0.955c-2.89-0.636-5.068-0.955-6.526-0.955
			c-0.189,0-0.285,0.165-0.285,0.478c0,3.811,2.888,5.718,8.668,5.718c1.65,0,4.063-0.446,7.238-1.335
			c3.175-0.886,5.588-1.334,7.241-1.334c2.539,0,3.811,0.859,3.811,2.573C1276.32,849.917,1273.714,851.508,1268.51,852.969z
			 M1259.172,815.44c-2.094,0-4.19,2.261-6.286,6.792c-1.78,3.89-2.666,7.175-2.666,9.851c0,1.66,0.762,2.997,2.286,4.019
			c1.335,0.896,2.855,1.341,4.572,1.341c2.22,0,4.063-1.85,5.524-5.549c1.205-3.062,1.809-6.154,1.809-9.278
			c0-1.85-0.411-3.446-1.239-4.787C1262.224,816.234,1260.886,815.44,1259.172,815.44z"/>
		<path fill="#BE1E2D" d="M1347.281,852.491c-3.94,0-7.431-0.478-10.479-1.43l-1.523-2.096c1.078-5.079,1.618-11.586,1.618-19.523
			c0-8.319-1.397-12.48-4.189-12.48c-3.684,0-6.286,3.569-7.811,10.707c-0.952,4.483-1.429,9.347-1.429,14.59
			c0,2.023,0.126,4.483,0.379,7.39c-0.949,1.894-3.807,2.843-8.569,2.843c-2.226,0-3.972-0.601-5.239-1.799l-0.572-0.852
			c-0.19-0.379-0.285-0.762-0.285-1.138c0-1.265,0.155-2.685,0.475-4.266c0.766-3.852,1.145-6.186,1.145-7.008v-4.263
			c0-10.611-1.938-15.918-5.812-15.918c-3.237,0-5.523,3.479-6.855,10.438c-0.765,4.022-1.145,8.62-1.145,13.79
			c0,3.001,0.127,5.97,0.38,8.904l-1.236,1.629c-1.015,0-2.523,0.079-4.525,0.243c-1.998,0.158-3.51,0.237-4.524,0.237
			c-2.666,0-4-0.927-4-2.776c0-2.868,0.126-6.375,0.382-10.523c0.569-9.31,0.857-15.179,0.857-17.601
			c0-3.57-0.509-6.697-1.524-9.376c1.205-1.979,3.393-2.966,6.571-2.966c4.063,0,7.017,0.636,8.86,1.9l0.474,1.145
			c4.825-0.885,7.874-1.334,9.146-1.334c2.412,0,4.667,0.414,6.764,1.239c0.253,0.13,0.825,0.38,1.714,0.763l4.383,1.906
			l7.045-2.858c2.669-1.078,5.495-1.616,8.48-1.616c5.205,0,8.937,1.157,11.191,3.476c2.251,2.317,3.38,6.077,3.38,11.285
			c0,0.572-0.031,2.224-0.095,4.952v3.238c0,0.762-0.095,1.366-0.284,1.812c0,0.442,0,0.569,0,0.38c0,0.445,0.06,1.397,0.189,2.855
			l0.667,7.811c0.06,0.765,0.095,1.717,0.095,2.861c0,0.948-0.43,1.758-1.287,2.429
			C1349.235,852.156,1348.293,852.491,1347.281,852.491z"/>
		<path fill="#BE1E2D" d="M1389.382,852.969c-4.319,1.204-7.558,1.809-9.714,1.809c-14.802,0-22.198-6.235-22.198-18.707
			c0-4.263,0.859-8.848,2.574-13.746c1.906-5.536,4.316-9.385,7.237-11.548c1.588-1.208,4.253-1.814,8.001-1.814
			c5.777,0,10.7,1.337,14.764,4.009c4.766,3.058,7.146,7.327,7.146,12.801c0,5.097-0.986,9.233-2.957,12.417
			c-2.346,3.884-5.903,5.828-10.666,5.828c-1.461,0-3.636-0.319-6.523-0.955c-2.89-0.636-5.065-0.955-6.526-0.955
			c-0.189,0-0.284,0.165-0.284,0.478c0,3.811,2.887,5.718,8.667,5.718c1.65,0,4.063-0.446,7.238-1.335
			c3.175-0.886,5.587-1.334,7.241-1.334c2.539,0,3.811,0.859,3.811,2.573C1397.192,849.917,1394.587,851.508,1389.382,852.969z
			 M1380.044,815.44c-2.094,0-4.189,2.261-6.286,6.792c-1.777,3.89-2.666,7.175-2.666,9.851c0,1.66,0.763,2.997,2.286,4.019
			c1.335,0.896,2.855,1.341,4.572,1.341c2.221,0,4.063-1.85,5.524-5.549c1.205-3.062,1.809-6.154,1.809-9.278
			c0-1.85-0.411-3.446-1.236-4.787C1383.096,816.234,1381.758,815.44,1380.044,815.44z"/>
		<path fill="#BE1E2D" d="M1446.054,849.917c-0.066,1.714-2.416,2.574-7.052,2.574c-1.271,0-2.796-0.225-4.573-0.667
			c-2.219-0.569-3.332-1.363-3.332-2.378c0-1.717,0.167-3.716,0.509-6.002c0.541-3.494,0.812-5.464,0.812-5.907
			c0.133-1.015,0.202-2.062,0.202-3.146v-3.235c0-10.033-2.011-15.052-6.039-15.052c-5.941,0-8.914,8.117-8.914,24.354
			c0,2.84,0.253,6.033,0.762,9.569l-1.05,1.894c-1.65,0.38-2.985,0.569-3.997,0.569h-1.523c-5.145,0-7.716-1.201-7.716-3.602
			c0-1.961,0.095-3.953,0.284-5.977c0.572-6.005,0.857-9.325,0.857-9.957v-2.653c0-7.843-0.51-14.104-1.524-18.78
			c0.506-1.454,1.774-2.309,3.801-2.561h5.132c1.016,0,3.327,0.667,6.938,1.998c-0.316,0,1.615-0.187,5.799-0.566
			c0.699-0.062,1.236-0.098,1.616-0.098c7.029,0,12.02,1.43,14.966,4.284c2.947,2.858,4.421,7.779,4.421,14.765v4.192
			c0,0.19,0,1.363,0,3.522L1446.054,849.917z"/>
		<path fill="#BE1E2D" d="M1480.764,817.154c-2.482,0.442-4.904,0.825-7.26,1.142c-0.525,0.509-0.788,2.729-0.788,6.669
			c0,5.331,0.162,10.318,0.479,14.954l0.192,10.476c0.06,1.65-1.941,2.479-6.015,2.479c-2.381,0-4.825-0.702-7.326-2.097
			c-0.313-0.952-0.472-2.476-0.472-4.575c0,0.575,0-0.029,0-1.806v-7.526c0-0.442,0-1.242,0-2.381l0.383-16.383l-0.383-0.285
			l-3.807,0.187c-2.16,0.133-3.972-0.664-5.43-2.378c0.439-1.776,1.445-2.984,3.017-3.62l4.146-1.145
			c1.385-0.38,2.074-1.205,2.074-2.477c0,0.892-0.253-2.57-0.762-10.381c0.063-1.078,0.098-1.967,0.098-2.666
			c0-3.175,2.41-4.765,7.235-4.765h1.43c4.509,0,6.76,1.207,6.76,3.62c0,1.208-0.092,2.191-0.284,2.954l-0.664,8.284
			c0,1.587,0,2.605,0,3.048c0,1.401,1.173,2.097,3.522,2.097c2.729,0,4.604,1.556,5.616,4.668L1480.764,817.154z"/>
		<path fill="#BE1E2D" d="M1511.674,853.063c-0.829,0-2.033-0.082-3.621-0.24c-1.587-0.158-2.792-0.237-3.617-0.237
			c-3.94,0-7.685-0.284-11.241-0.856c-5.967-0.952-8.952-2.603-8.952-4.952c0-1.527,0.478-2.824,1.429-3.905
			c0.952-1.082,2.157-1.619,3.621-1.619c5.584,3.684,9.964,5.524,13.139,5.524c0.895,0,2.064-0.256,3.532-0.766
			c1.774-0.565,2.665-1.173,2.665-1.809c0-0.759-2.479-2.001-7.431-3.716c-1.97-0.695-4.955-1.714-8.955-3.045
			c-4.253-2.479-6.378-6.097-6.378-10.858c0-4.509,0.917-8.604,2.758-12.288c2.286-4.636,5.523-6.953,9.717-6.953
			c1.334,0,3.238,0.253,5.714,0.762l5.524,1.145c4.445,0.889,7.475,2.283,9.094,4.189c1.619,1.904,2.432,5.079,2.432,9.524
			c0,2.732-0.382,4.702-1.145,5.904c-0.951,1.527-2.7,2.289-5.236,2.289c-4.512,0-6.764-3.144-6.764-9.433v-2.286
			c0-3.554-0.633-5.331-1.903-5.331c-1.527,0-2.954,1.556-4.288,4.664c-1.142,2.735-1.717,4.989-1.717,6.764
			c0,3.428,1.973,6.036,5.913,7.811c1.837,0.828,5.486,2.511,10.947,5.047c3.94,1.847,5.907,3.975,5.907,6.384
			c0,2.097-1.366,4.032-4.096,5.812C1516.243,852.238,1513.896,853.063,1511.674,853.063z"/>
	</g>
	<g>
		<path fill="#BE1E2D" d="M1554.564,714.556c-3.845-0.844-3.443,11.82-16.955,29.478c-4.774,4.298-11.795,8.747-20.668,9.079
			c-11.374,0.417-18.956-8.007-23.175-14.771c-7.709-12.383-10.245-23.429-10.245-23.429s21.344-4.208,31.735-15.165
			c14.109-14.878,15.595-41.506-9.619-43.309c-34.873-2.491-55.533,32.196-55.533,57.352c-0.238-0.035-1.174,13.427,5.635,27.017
			c2.141,4.791,6.561,10.192,7.791,11.741c1.23,1.55,8.978,9.246,13.54,11.871c5.397,3.102,11.466,4.316,15.381,5.262
			c12.68,1.619,25.304,0.278,36.566-5.856c4.873-2.656,15.337-12.117,21.487-24.181
			C1555.453,729.931,1561.869,716.159,1554.564,714.556z M1517.628,668.604c4.016,3.545,0.8,19.213-7.706,26.369
			c-12.354,10.394-27.023,11.121-27.238,11.238C1482.876,699.533,1499.838,652.914,1517.628,668.604z"/>
		<path fill="#BE1E2D" d="M1457.475,739.629c-5.666,6.577-14.065,13.458-21.351,14.065c-6.947,0.578-12.857-9.639-15.102-14.328
			c-8.226-17.183-10.126-39.368-9.348-57.873c0.189-4.472,0.743-5.088,0.743-5.088s17.28-15.466,28.196-33.006
			c12.462-20.032,35.473-76.799-0.041-93.229c-36.706-16.98-50.506,48.005-56.975,72.141c-1.974,7.438-7.713,31.679-7.479,59.587
			c-4.083,3.137-8.162,6.147-12.102,8.797c-5.9-35.09-65.877-37.078-76.824-6.795c2.546-7.039,16.5-34.727,19.678-41.92
			c6.944-15.773,13.66-32.928,16.162-50.088c2.432-16.671,2.675-39.378-9.034-45.939c-13.43-7.514-28.134-1.401-35.649,7.987
			c-14.717,18.324-26.016,49.911-28.432,79.897c-3.547,43.988,6.388,81.928,6.388,81.928s-14.015,32.148-21.468,31.216
			c-10.577-1.325-6.2-42.717-5.299-49.832c0.872-6.925,2.858-18.574,2.248-26.97c-0.721-9.872-30.967,12.513-31.147,21.92
			c-0.177,9.407,1.821,28.734-9.683,47.321c-6.479,10.464-12.892,6.495-17.594-2.517c-5.862-16.655-7.361-38.228-6.501-54.37
			c0.439-8.541,1.821-14.631,1.821-14.631s11.747-14.217,16.781-22.277c12.51-20,46.167-80.131,10.296-94.415
			c-37.572-14.959-50.512,48.002-56.979,72.141c-1.306,4.911-4.244,17.187-6.031,32.972c-29.177-8.401-65.181,8.627-73.24,49.599
			c-2.868,14.593,1.214,29.974,3.229,35.023c-1.945,2.258-9.028,10.115-18.382,11.734c-8.354,1.445-17.598-4.945-24.408-13.635
			c-9.037-11.529-10.293-23.526-10.293-23.526s21.439-4.225,31.871-15.229c14.17-14.944,15.659-41.684-9.66-43.492
			c-31.871-2.28-51.919,26.366-55.268,50.581c-6.34-1.18-11.576-2.782-16.361-6.865c-7.934-6.77-13.515-17.068-12.897-27.924
			c0.531-9.439,7.114-24.32,16.774-28.26c10.024-4.086,18.957,0.872,18.809-1.613c-0.5-8.104-16.725-7.772-24.017-3.131
			c-10.204,6.492-16.14,15.406-17.879,27.479c-3.127,21.739,6.433,38.284,27.748,45.554c2.833,0.961,5.369,1.84,7.2,2.482
			c-0.266,3.257-0.263,15.832,6.824,29.284c3.266,6.194,8.266,15.011,21.856,21.944c11.333,5.781,20.215,5.933,33.818,1.851
			c10.502-3.153,23.792-15.558,27.501-18.872l0,0c18.229,36.105,58.284,19.969,72.619-12.151
			c3.162,11.661,7.887,22.036,15.476,28.051c1.72,1.774,3.62,3.118,5.717,3.816c1.174,0.393,2.327,0.639,3.469,0.807
			c0.155,0.041,0.288,0.11,0.443,0.146c1.109,0.263,2.302,0.237,3.528,0c13.218-0.81,24.029-15.111,30.55-26.002
			c0,0,2.726,21.705,12.937,25.091c7.374,2.426,11.532,1.818,17.688-0.386c15.874-5.679,27.792-34.477,33.263-43.608
			c6.504,9.04,3.193,7.87,9.625,10.018c2.03,0.674,5.116-0.202,5.262-1.951c0.146-1.745-0.243-4.345-0.967-6.963
			c-0.155-2.694,0.069-10.286,4.989-24.602c4.339-9.321,10.564-17.537,19.378-23.371c20.907-13.85,38.605,11.782,32.199,28.87
			c0,0-13.43,6.106-20.449,10.679c-13.142,8.579-28.346,23.47-19.526,38.65c7.169,12.332,31.691,18.303,44.179,10.448
			c17.717-11.153,28.237-25.189,28.24-65.399c4.055-2.406,8.096-4.99,12.017-7.665c0.215,2.935,0.478,5.885,0.856,8.848
			c4.38,34.221,14.338,78.99,57.155,65.854c8.725-2.679,21.449-13.828,28.719-21.977
			C1461.421,744.306,1458.927,742.174,1457.475,739.629z M1447.053,572.789c4.12,2.396,3.364,25.736-4.88,44.491
			c-13.255,30.147-22.22,40.934-29.236,45.613C1412.418,640.021,1439.511,568.412,1447.053,572.789z M1202.244,573.832
			c7.542,4.38-21.673,64.83-31.118,75.455C1171.126,631.728,1194.702,569.453,1202.244,573.832z M1043.906,669.013
			c4.035,3.561,0.807,19.295-7.737,26.479c-12.408,10.44-27.138,11.168-27.355,11.285
			C1009.006,700.07,1026.043,653.255,1043.906,669.013z M1105.488,742.946c-12.582-3.938-13.91-18.793-11.956-36.384
			c1.56-14.034,10.047-25.708,14.04-31.533c10.315-15.045,23.03-10.432,24.061-9.843c0.013,0.948,0.041,1.95,0.086,2.997
			c-0.687,11.08-0.633,23.226,0.936,35.491c0.848,6.604,1.8,13.815,3.125,20.979
			C1128.534,733.788,1113.015,745.295,1105.488,742.946z M1291.915,607.664c0.494-1.512,18.3-51.482,21.965-41.886
			c5.729,15.096-3.393,39.131-8.222,53.684c-3.874,11.757-21.452,49.892-22.16,50.262
			C1282.708,648.101,1285.174,628.249,1291.915,607.664z M1303.245,754.155c-8.74-1.834-6.22-13.29,3.09-21.913
			c8.383-7.767,23.789-14.727,24.595-14.492C1328.232,727.824,1319.129,757.479,1303.245,754.155z"/>
		<path fill="#BE1E2D" d="M1202.569,642.333c-0.923,11.153,10.686,17.325,20.44,11.956c9.645-5.306,11.399-14.138,12.563-24.174
			c-0.291,2.507-0.39-1.43-0.092-0.405C1230.962,607.139,1203.819,627.281,1202.569,642.333z"/>
	</g>
	<g>
		<g>
			<path fill="#8DC63F" d="M1047.021,593.747c21.889-10.179,38.654-28.911,48.615-50.739c1.97-4.319,1.344-8.873-2.062-12.269
				c-9.926-9.914-21.354-17.566-34.628-22.091c-0.636-0.215-1.249-0.332-1.844-0.376c-21.752-13.94-43.441-27.919-64.839-42.465
				c-29.81-20.253-59.483-40.829-91.24-57.952c-3.997-2.156-10.16-0.774-12.057,3.678c-17.095,40.077-13.838,84.135,8.553,121.467
				c19.504,32.522,52.833,58.312,90.152,66.322C1007.343,603.544,1028.662,602.288,1047.021,593.747z"/>
		</g>
		<path fill="#FFDE17" d="M1077.377,317.684c0,0-75.299-35.963-39.64-85.276c0,0,43.83-37.075,83.632,15.931
			c0,0,13.827-58.809,62.551-38.846c0,0,59.84,16.74,24.187,66.057c0,0,64.258-6.457,70.468,16.098
			c6.208,22.556,21.228,70.493-55.292,58.592c0,0,62.252,41.48,48.206,66.321c-14.046,24.833-55.097,63.622-90.316,14.167
			c0,0-7.7,67.998-68.604,43.036c0,0-43.245-34.957-15.108-72.343c0,0-88.087,24.459-93.276-20.443
			C998.988,336.082,1026.277,323.983,1077.377,317.684z"/>
		<path fill="#F26522" d="M1190.667,353.068c-3.93,20.637-23.845,34.177-44.481,30.249c-20.637-3.931-34.177-23.846-30.246-44.484
			c3.934-20.633,23.847-34.174,44.485-30.242C1181.058,312.52,1194.599,332.432,1190.667,353.068z"/>
		<path fill="#7F3F98" d="M1613.196,560.165c-16.322,9.24-37.041,3.501-46.28-12.818c-9.243-16.323-3.501-37.045,12.815-46.278
			c16.323-9.247,37.045-3.507,46.284,12.816C1635.256,530.204,1629.517,550.923,1613.196,560.165z"/>
		<path fill="#7F3F98" d="M1557.016,592.318c-15.018,8.503-34.079,3.222-42.578-11.792c-8.5-15.014-3.22-34.078,11.791-42.584
			c15.018-8.5,34.079-3.213,42.578,11.798C1577.31,564.76,1572.032,583.815,1557.016,592.318z"/>
		<g>
			<path fill="#EEAF21" d="M1060.071,312.78c-25.452-9.648-45.706-46.031-37.927-72.436c4.784-16.23,22.644-24.414,38.464-21.492
				c15.514,2.865,28.583,15.175,32.649,30.287c1.16,4.31,7.01,6.029,10.146,2.678c9.528-10.176,18.729-20.627,28.975-30.1
				c10.519-9.718,23.625-19.871,38.528-20.449c14.533-0.566,25.465,11.199,28.64,24.379c3.833,15.899-0.516,34.044-3.469,49.709
				c-0.784,4.164,2.745,9.148,7.469,7.469c14.138-5.027,29.332-6.447,42.629,1.584c10.261,6.198,16.278,17.404,18.546,28.873
				c2.103,10.645-0.111,22.895-7.121,31.356c-9.167,11.064-23.912,12.639-37.326,11.067c-6.321-0.74-7.829,8.417-3.064,11.314
				c15.874,9.647,31.631,22.618,36.267,41.436c3.001,12.188-1.603,24.627-10.138,33.405c-8.613,8.856-20.927,12.945-33.104,12.022
				c-15.546-1.18-27.441-13.158-34.885-25.869c-3.333-5.695-10.594-2.549-11.314,3.063c-3.352,26.151-21.585,64.043-53.703,53.668
				c-34.195-11.049-25.161-54.054-20.089-80.701c0.728-3.835-1.67-7.681-5.856-7.687c-14.653-0.02-29.259,1.786-43.915,1.964
				c-14.06,0.174-31.521-0.231-42.756-9.936c-13.622-11.77-7.582-30.385,3.526-41.069c14.723-14.16,37.439-20.481,57.215-22.613
				c7.7-0.828,7.782-12.98,0-12.143c-34.9,3.76-99.704,29.139-76.067,75.812c8.155,16.104,28.257,20.354,44.545,21.692
				c19.185,1.577,38.286-1.591,57.452-1.565c-1.951-2.562-3.902-5.123-5.854-7.685c-3.592,18.882-7.022,37.958-4.202,57.178
				c2.878,19.634,16.295,33.136,34.796,39.112c39.588,12.792,63.006-34.471,67.051-66.028c-3.77,1.021-7.542,2.043-11.314,3.064
				c9.585,16.367,24.548,29.654,44.008,31.735c15.938,1.707,31.646-4.336,43.053-15.429c11.775-11.453,16.386-27.817,13.564-43.786
				c-3.962-22.432-23.811-38.982-42.15-50.129c-1.021,3.772-2.043,7.545-3.064,11.314c16.737,1.964,34.354-1.524,45.911-14.625
				c10.163-11.517,12.696-27.251,10.444-42.024c-2.258-14.814-11.023-28.219-23.312-36.62c-15.617-10.68-35.925-9.534-53-3.463
				c2.488,2.488,4.978,4.977,7.469,7.469c5.926-31.428,12.978-78.045-27.854-88.477c-34.673-8.857-64.856,31.485-85.113,53.124
				c3.384,0.892,6.764,1.783,10.147,2.679c-10.919-40.58-70.512-56.463-91.885-15.318c-17.351,33.405,11.409,81.634,43.761,93.896
				C1064.179,327.268,1067.318,315.528,1060.071,312.78L1060.071,312.78z"/>
		</g>
		<g>
			<path fill="#452F8B" d="M1640.224,518.96c-1.05-21.547-14.673-36.915-36.507-38.252c-18.482-1.133-39.631,9.312-47.274,26.667
				c-9.556,21.695,5.335,48.719,28.953,51.248c25.565,2.735,50.641-23.412,50.06-48.086c-0.184-7.816-12.326-7.836-12.143,0
				c0.446,18.875-17.746,35.998-36.361,36.022c-17.157,0.025-25.819-22.562-18.492-36.193c6.353-11.821,21.253-17.607,34.047-17.556
				c15.528,0.062,24.848,11.204,25.575,26.151C1628.46,526.751,1640.606,526.789,1640.224,518.96L1640.224,518.96z"/>
		</g>
		<g>
			<path fill="#452F8B" d="M1571.685,562.038c3.599-9.465,4.411-20.311-3.248-27.995c-6.71-6.731-17.701-7.548-26.605-6.744
				c-20.355,1.834-44.751,12.989-48.32,35.185c-3.716,23.108,17.584,35.271,37.961,34.964c22.717-0.342,44.197-15.396,44.64-39.41
				c0.146-7.835-11.997-7.819-12.143,0c-0.313,17.006-15.624,26.167-31.188,27.214c-13.027,0.876-29.9-4.996-27.339-20.924
				c2.488-15.479,20.49-22.116,34.053-24.566c6.232-1.126,13.701-1.236,19.311,2.074c5.954,3.51,3.058,12.01,1.171,16.975
				C1557.187,566.139,1568.927,569.278,1571.685,562.038L1571.685,562.038z"/>
		</g>
		<g>
			<path fill="#7F3F98" d="M1409.534,186.762c-4.26,18.266-22.515,29.62-40.779,25.361c-18.268-4.26-29.619-22.521-25.356-40.779
				c4.256-18.271,22.517-29.623,40.778-25.363C1402.441,150.243,1413.79,168.499,1409.534,186.762z"/>
			<path fill="#7F3F98" d="M1395.13,249.873c-3.92,16.804-20.715,27.248-37.521,23.33c-16.8-3.921-27.248-20.718-23.333-37.522
				c3.921-16.803,20.722-27.244,37.519-23.326C1388.604,216.275,1399.045,233.066,1395.13,249.873z"/>
			<path fill="#7F3F98" d="M1382.805,304.004c-3.064,13.151-16.209,21.322-29.364,18.252c-13.145-3.061-21.318-16.205-18.254-29.357
				c3.066-13.15,16.212-21.315,29.359-18.254C1377.698,277.711,1385.872,290.856,1382.805,304.004z"/>
			<g>
				<path fill="#452F8B" d="M1397.717,139.141c-17.733-14.761-40.193-14.277-55.612,3.558
					c-12.854,14.871-18.283,39.074-6.491,56.105c13.218,19.093,43.45,21.895,57.812,2.979c14.081-18.552,12.76-49.202-5.138-64.839
					c-5.869-5.129-14.492,3.424-8.586,8.585c13.057,11.405,14.088,32.067,5.711,46.562c-8.684,15.023-30.714,13.01-40.045-0.467
					c-8.326-12.029-3.188-28.672,4.62-39.474c9.951-13.768,26.4-15.029,39.144-4.424
					C1395.103,152.698,1403.737,144.153,1397.717,139.141L1397.717,139.141z"/>
			</g>
			<g>
				<path fill="#452F8B" d="M1382.88,218.715c-4.458-8.875-11.465-16.676-22.062-16.759c-9.784-0.079-18.186,7.747-23.731,14.979
					c-12.507,16.304-21.072,42.227-6.6,59.85c14.618,17.796,37.598,10.504,51.046-4.598c15.017-16.864,18.799-42.787,1.496-59.414
					c-5.642-5.426-14.239,3.15-8.585,8.586c12.133,11.658,9.17,28.812-0.548,41.11c-8.274,10.47-23.118,18.647-33.831,6.932
					c-10.549-11.529-2.97-30.101,4.019-41.401c3.271-5.291,8.028-11.119,14.056-13.326c7.162-2.624,11.526,4.737,14.255,10.17
					C1375.908,231.845,1386.384,225.695,1382.88,218.715L1382.88,218.715z"/>
			</g>
			<g>
				<path fill="#452F8B" d="M1369.22,276.438c-32.437-23.207-71.571,37.284-40.706,59.668c32.747,23.751,62.519-32.787,45.74-59.08
					c-4.199-6.578-14.713-0.494-10.485,6.128c8.721,13.667-4.143,55.04-24.788,45.25c-23.877-11.32,2.321-57.07,24.111-41.481
					C1369.476,291.489,1375.528,280.953,1369.22,276.438L1369.22,276.438z"/>
			</g>
		</g>
		<g>
			<path fill="#B94126" d="M1180.447,310.702c-14.861-20.123-39.35-28.544-60.618-12.303c-17.892,13.66-26.091,38.546-15.529,59.156
				c12.36,24.124,48.738,34.594,70.453,17.635c21.325-16.651,24.971-49.195,7.428-69.746c-2.612-3.062-5.926-5.531-9.23-7.792
				c-6.482-4.433-12.548,6.094-6.128,10.485c17.958,12.291,18.694,37.49,4.936,53.342c-15.193,17.513-43.645,10.043-55.571-7.677
				c-9.794-14.55-2.878-33.376,9.043-44.235c14.904-13.575,33.634-7.766,44.732,7.264
				C1174.56,323.057,1185.105,317.01,1180.447,310.702L1180.447,310.702z"/>
		</g>
		<g>
			<path fill="#8DC63F" d="M1454.36,376.563c0,0-37.867-41.275-15.093-65.381c0,0,36.367,32.814,29.724,59.294
				c0,0,58.575-43.556,78.414-10.429c0,0-9.407,45.294-58.183,40.867c0,0,64.896,6.802,62.047,44.829
				c0,0-55.732,5.524-69.007-34.872"/>
			<path fill="#BE1E2D" d="M1395.791,356.414c-15.336,12.911-77.772,122.893-41.411,155.701
				c36.358,32.813,145.29-34.076,150.359-46.379C1520.306,427.979,1426.802,330.297,1395.791,356.414z"/>
			<g>
				<path fill="#89241B" d="M1418.954,353.527c22.754,25.743,53.883,42.686,76.893,68.346c9.329,10.397,18.929,24.604,14.986,39.224
					c-3.346,12.404-18.746,17.546-29.551,20.892c-14.615,4.519-29.771,7.026-44.44,11.365c-13.505,3.993-25.348,11.15-37.728,17.648
					c-10.232,5.369-21.629,11.652-33.359,12.658c-11.353,0.971-14.799-8.247-15.786-18.116
					c-2.548-25.437,6.283-52.583,15.532-75.919c10.091-25.465,25.076-50.376,46.727-67.588c6.132-4.872-2.523-13.404-8.582-8.585
					c-30.087,23.909-47.779,61.551-58.354,97.678c-5.135,17.544-8.812,36.067-7.466,54.415c0.784,10.717,4.25,22.745,14.609,27.874
					c9.41,4.661,20.651,1.897,29.989-1.464c12.598-4.534,24.383-11.241,36.118-17.601c26.068-14.123,56.545-14.363,83.027-27.27
					c11.539-5.623,20.712-15.583,22.11-28.703c1.628-15.333-6.246-28.873-15.378-40.5c-22.625-28.816-56.681-45.693-80.764-72.938
					C1422.344,339.063,1413.79,347.686,1418.954,353.527L1418.954,353.527z"/>
			</g>
			<g>
				<path fill="#4B8A3F" d="M1461.196,356.942c-12.376-11.58-8.815-29.016-5.075-43.713c-2.972,1.211-5.947,2.418-8.92,3.63
					c14.276,8.582,23.621,26.366,21.755,42.985c-0.455,4.066,4.203,6.723,7.688,5.856c26.888-6.688,51.773-14.299,79.847-12.114
					c-2.023-2.023-4.048-4.047-6.071-6.07c-0.414,21.96-29.635,30.735-43.135,43.817c-3.602,3.487-1.34,8.49,2.679,10.146
					c8.68,3.577,17.657,6.559,25.86,11.175c8.752,4.927,14.428,12.845,19.048,21.554c1.746-3.045,3.494-6.091,5.243-9.136
					c-15.552,1.468-35.204,0.769-43.973-14.372c-3.924-6.77-14.419-0.66-10.485,6.129c11.042,19.061,34.328,22.286,54.458,20.386
					c4.601-0.437,7.535-4.815,5.242-9.135c-5.388-10.157-12.202-18.704-21.9-25c-9.18-5.964-20.215-9.167-30.265-13.31
					c0.892,3.384,1.783,6.767,2.679,10.147c16.999-16.469,46.163-24.384,46.691-52.402c0.066-3.501-2.82-5.818-6.071-6.072
					c-29.133-2.27-55.163,5.607-83.075,12.548c2.562,1.951,5.123,3.902,7.684,5.853c2.328-20.733-10.15-42.881-27.77-53.471
					c-3.32-1.996-7.956-0.152-8.917,3.627c-4.851,19.061-7.593,40.753,8.199,55.526
					C1458.322,370.868,1466.927,362.301,1461.196,356.942L1461.196,356.942z"/>
			</g>
		</g>
		<g>
			<path fill="#4B8A3F" d="M889.538,425.699c-1.284,1.695-3.631,2.299-2.954,2.337c-2.001-0.113,0.763,0.244,1.373,0.421
				c2.864,0.841,4.882,1.84,7.548,3.114c8.288,3.963,16.247,8.639,24.137,13.328c22.056,13.114,43.488,27.299,64.754,41.652
				c20.051,13.533,39.934,27.343,59.467,41.617c5.653,4.133,11.32,8.272,16.746,12.706c1.224,0.999,2.473,2.011,3.555,3.171
				c-1.654-1.773-0.756-4.338-1.54-1.309c-3.726,14.368-15.029,28.352-26.098,38.312c-19.209,17.291-44.681,22.471-69.579,16.744
				c-48.096-11.067-86.73-52.729-94.478-101.467C868.51,471.42,876.491,446.696,889.538,425.699
				c4.146-6.669-6.362-12.762-10.486-6.128c-18.817,30.283-24.974,65.263-13.499,99.389c7.539,22.413,21.692,42.616,38.524,59.056
				c17.215,16.813,41.712,28.149,65.143,32.646c25.219,4.842,50.74-1.119,70.955-16.936c14.183-11.097,25.506-26.037,32.393-42.67
				c1.642-3.962,3.918-9.733,1.534-13.838c-1.977-3.399-6.059-5.894-9.066-8.237c-37.057-28.835-76.535-55.066-116.119-80.264
				c-14.368-9.148-28.883-18.246-44.052-26.024c-6.836-3.51-19.573-11.355-25.812-3.121
				C874.321,425.816,884.874,431.856,889.538,425.699z"/>
		</g>
	</g>
</g>
</svg>
