<?xml version="1.0" encoding="utf-8"?>
<!-- Generator: Adobe Illustrator 16.0.0, SVG Export Plug-In . SVG Version: 6.00 Build 0)  -->
<!DOCTYPE svg PUBLIC "-//W3C//DTD SVG 1.1//EN" "http://www.w3.org/Graphics/SVG/1.1/DTD/svg11.dtd">
<svg version="1.1" id="Layer_1" xmlns="http://www.w3.org/2000/svg" xmlns:xlink="http://www.w3.org/1999/xlink" x="0px" y="0px"
	 width="820px" height="848px" viewBox="0 0 820 848" enable-background="new 0 0 820 848" xml:space="preserve">
<g id="Layer_2">
</g>
<g id="Layer_1_1_">
	<rect x="78.006" y="63.44" fill="#F26522" width="555.994" height="555.994"/>
	
		<line opacity="0.5" fill="none" stroke="#000000" stroke-miterlimit="10" stroke-dasharray="12" enable-background="new    " x1="34.168" y1="620.5" x2="715.168" y2="620.5"/>
	
		<line opacity="0.5" fill="none" stroke="#000000" stroke-miterlimit="10" stroke-dasharray="12" enable-background="new    " x1="34.168" y1="62.5" x2="715.168" y2="62.5"/>
	
		<rect x="114.378" y="20.805" opacity="0.5" fill="none" stroke="#000000" stroke-miterlimit="10" stroke-dasharray="12" enable-background="new    " width="483.25" height="678.268"/>
	<rect x="598.668" y="715.334" fill="none" width="157" height="21.5"/>
	<text transform="matrix(1 0 0 1 598.668 733.5742)" font-family="'OpenSans'" font-size="24">½x</text>
	<rect x="738.668" y="31.334" fill="none" width="157" height="21.5"/>
	<text transform="matrix(1 0 0 1 738.668 49.5742)" font-family="'OpenSans'" font-size="24">½x</text>
	<rect x="328.669" y="722.834" fill="none" width="157" height="21.5"/>
	<text transform="matrix(1 0 0 1 328.6689 741.0742)" font-family="'OpenSans'" font-size="24">6½x</text>
	<rect x="328.669" y="808.328" fill="none" width="157" height="21.5"/>
	<text transform="matrix(1 0 0 1 328.6689 826.5684)" font-family="'OpenSans'" font-size="24">8½x</text>
	<rect x="759.669" y="338.328" fill="none" width="157" height="21.5"/>
	<text transform="matrix(1 0 0 1 759.6689 356.5684)" font-family="'OpenSans'" font-size="24">7½x</text>
	<path fill="#FFFFFF" d="M126.457,292.368c0,0-30.237,60.598,23.761,101.095c0,0,51.016,36.285,73.505-1.356L126.457,292.368z"/>
	<polygon fill="#FFFFFF" points="220.714,168.474 252.212,168.474 265.997,185.104 289.71,159.475 312.299,150.637 324.414,172.588 
		329.504,205.285 369.206,231.471 354.207,256.97 330.208,256.97 337.707,318.466 318.209,312.467 302.992,301.368 295.71,328.966 
		274.711,337.965 255.212,328.966 253.712,304.967 256.903,282.777 217.8,286.497 190.286,273.099 193.715,255.47 213.214,240.47 
		236.272,233.639 217.714,217.972 208.714,192.473 	"/>
	<polygon fill="#FFFFFF" points="437.775,117.926 422.442,117.926 407.109,137.259 415.775,156.593 406.442,189.926 
		411.109,207.926 399.775,224.593 407.775,240.593 424.442,234.593 429.109,207.926 	"/>
	<polygon fill="#FFFFFF" points="481.805,265.804 477.383,228.926 489.775,237.259 493.109,258.593 541.136,247.862 
		539.774,259.259 520.44,276.593 543.774,295.259 517.774,301.259 521.106,320.593 495.109,337.259 422.442,362.593 
		413.775,349.259 	"/>
	<polygon fill="#FFFFFF" points="547.774,361.926 551.106,341.926 573.774,334.593 590.44,343.926 576.44,371.259 552.493,372.768 
		522.44,395.926 509.106,386.593 514.44,371.259 	"/>
	<g>
		<path fill="#FFFFFF" d="M207.151,560.885c-1.491,0-2.844-0.591-4.059-1.766h-0.236c-0.902,0-2,0.059-3.295,0.176
			c-1.725,0.157-2.805,0.236-3.234,0.236c-2.668,0-4.924-0.606-6.766-1.824c-2.158-1.412-3.236-3.372-3.236-5.883
			c0-2.746,1.567-4.745,4.707-6.002l5.941-1.175c1.098-0.196,3.039-0.589,5.824-1.18c0.078-0.233,0.117-0.411,0.117-0.527
			c0-3.373-1.156-5.061-3.471-5.061c-1.256,0-2.941,0.883-5.06,2.646l-4.472,4l-1.234-0.47c-0.706-0.744-1.178-1.688-1.413-2.823
			c0.667-1.884,2.274-3.696,4.825-5.441c2.549-1.747,4.824-2.62,6.824-2.62c0.275,0,1.608,0.257,4,0.768
			c3.414,0.745,5.657,1.763,6.737,3.059c1.077,1.294,1.618,3.667,1.618,7.117c0,0.707-0.08,2.414-0.236,5.12
			c-0.117,2.039-0.176,3.727-0.176,5.06c0-0.156,0.117,0.999,0.354,3.471c0.038,0.393,0.059,0.729,0.059,1.003
			c0,1.409-1.021,2.116-3.061,2.116H207.151L207.151,560.885z M201.974,549.411c-1.137,0-2.646,0.257-4.529,0.766
			c-2.117,0.55-3.492,1.139-4.118,1.767l-0.411,0.409c-0.471,0.474-0.707,0.786-0.707,0.943c0,0.901,1.686,1.353,5.06,1.353
			c0.667,0,1.608-0.116,2.824-0.354c1.373-0.235,2.216-0.491,2.53-0.765c0.312-0.273,0.471-1.039,0.471-2.294
			C203.093,550.021,202.72,549.411,201.974,549.411z"/>
		<path fill="#FFFFFF" d="M225.243,535.233c2.426-1.518,4.057-2.275,4.891-2.275c3.071,0,4.607,1.1,4.607,3.298l-0.171,1.309
			l-1.251,0.738c-0.189,0-0.635-0.132-1.338-0.396c-0.701-0.266-1.185-0.397-1.449-0.397c-1.783,0-3.262,2.161-4.437,6.484
			c-0.909,3.335-1.364,6.312-1.364,8.928c0,0.682,0.057,1.555,0.17,2.616c0.152,1.441,0.229,2.312,0.229,2.615
			c0,1.289-0.816,1.935-2.445,1.935c-4.096,0-6.143-0.971-6.143-2.912c0-0.458,0.075-1.133,0.229-2.028
			c0.15-0.895,0.227-1.57,0.227-2.025v-4.97c0-6.243-0.398-10.774-1.195-13.593c0.721-1.065,2.787-1.6,6.199-1.6
			C224.087,532.958,225.167,533.717,225.243,535.233z"/>
		<path fill="#FFFFFF" d="M246.397,535.233c2.428-1.518,4.059-2.275,4.892-2.275c3.071,0,4.607,1.1,4.607,3.298l-0.171,1.309
			l-1.251,0.738c-0.19,0-0.636-0.132-1.337-0.396c-0.702-0.266-1.186-0.397-1.449-0.397c-1.783,0-3.262,2.161-4.437,6.484
			c-0.911,3.335-1.364,6.312-1.364,8.928c0,0.682,0.057,1.555,0.17,2.616c0.151,1.441,0.228,2.312,0.228,2.615
			c0,1.289-0.815,1.935-2.446,1.935c-4.094,0-6.143-0.971-6.143-2.912c0-0.458,0.076-1.133,0.229-2.028
			c0.151-0.895,0.229-1.57,0.229-2.025v-4.97c0-6.243-0.399-10.774-1.195-13.593c0.72-1.065,2.787-1.6,6.199-1.6
			C245.241,532.958,246.323,533.717,246.397,535.233z"/>
		<path fill="#FFFFFF" d="M277.88,560.885c-1.492,0-2.845-0.591-4.061-1.766h-0.234c-0.903,0-2.001,0.059-3.295,0.176
			c-1.727,0.157-2.805,0.236-3.236,0.236c-2.668,0-4.922-0.606-6.766-1.824c-2.158-1.412-3.236-3.372-3.236-5.883
			c0-2.746,1.568-4.745,4.707-6.002l5.941-1.175c1.098-0.196,3.041-0.589,5.825-1.18c0.078-0.233,0.118-0.411,0.118-0.527
			c0-3.373-1.157-5.061-3.471-5.061c-1.256,0-2.941,0.883-5.061,2.646l-4.471,4l-1.236-0.47c-0.705-0.744-1.176-1.688-1.412-2.823
			c0.666-1.884,2.274-3.696,4.825-5.441c2.55-1.747,4.824-2.62,6.825-2.62c0.273,0,1.607,0.257,4,0.768
			c3.412,0.745,5.656,1.763,6.736,3.059c1.078,1.294,1.618,3.667,1.618,7.117c0,0.707-0.08,2.414-0.235,5.12
			c-0.118,2.039-0.177,3.727-0.177,5.06c0-0.156,0.118,0.999,0.353,3.471c0.039,0.393,0.06,0.729,0.06,1.003
			c0,1.409-1.021,2.116-3.06,2.116H277.88L277.88,560.885z M272.701,549.411c-1.138,0-2.646,0.257-4.528,0.766
			c-2.118,0.55-3.492,1.139-4.119,1.767l-0.412,0.409c-0.471,0.474-0.707,0.786-0.707,0.943c0,0.901,1.688,1.353,5.061,1.353
			c0.666,0,1.607-0.116,2.824-0.354c1.373-0.235,2.216-0.491,2.529-0.765c0.314-0.273,0.471-1.039,0.471-2.294
			C273.819,550.021,273.446,549.411,272.701,549.411z"/>
		<path fill="#FFFFFF" d="M312.768,558.177c-0.04,1.06-1.491,1.59-4.354,1.59c-0.785,0-1.727-0.139-2.824-0.411
			c-1.373-0.353-2.06-0.844-2.06-1.471c0-1.061,0.104-2.295,0.313-3.707c0.334-2.157,0.502-3.374,0.502-3.647
			c0.084-0.627,0.127-1.273,0.127-1.942v-1.999c0-6.197-1.244-9.296-3.73-9.296c-3.672,0-5.508,5.014-5.508,15.042
			c0,1.755,0.158,3.729,0.471,5.911l-0.646,1.17c-1.021,0.233-1.846,0.352-2.471,0.352h-0.941c-3.178,0-4.766-0.741-4.766-2.226
			c0-1.211,0.057-2.441,0.176-3.69c0.354-3.709,0.529-5.76,0.529-6.15v-1.639c0-4.845-0.314-8.711-0.941-11.601
			c0.312-0.897,1.097-1.426,2.348-1.581h3.17c0.627,0,2.055,0.412,4.286,1.234c-0.196,0,0.998-0.116,3.581-0.352
			c0.431-0.039,0.762-0.061,0.997-0.061c4.344,0,7.425,0.883,9.246,2.646c1.82,1.768,2.729,4.807,2.729,9.12v2.59
			c0,0.116,0,0.843,0,2.177L312.768,558.177z"/>
		<path fill="#FFFFFF" d="M342.241,544.351c0,1.846,0.099,4.276,0.294,7.298l0.472,7.295c0.038,0.627,0.06,1.921,0.06,3.883
			c0,2.861-1.354,5.079-4.061,6.647c-2.196,1.295-4.844,1.94-7.94,1.94c-8.119,0-12.886-1.686-14.298-5.058
			c0.394-0.63,1.021-1.158,1.884-1.591c0.86-0.432,1.666-0.646,2.411-0.646c0.195,0,1.441,0.639,3.735,1.914
			c2.294,1.271,3.971,1.911,5.03,1.911c1.922,0,3.274-0.528,4.06-1.588c0.626-0.905,0.941-2.354,0.941-4.354
			c0-1.883-1.021-2.824-3.061-2.824c-0.704,0-1.922,0.079-3.646,0.235c-0.434,0.039-0.766,0.059-1.002,0.059
			c-6.627,0-9.941-3.646-9.941-10.942c0-3.841,0.783-7.333,2.354-10.473c1.96-3.92,4.667-5.883,8.118-5.883
			c0.823,0,1.707,0.138,2.647,0.411c2.274,0.669,3.549,1.002,3.824,1.002c0.117,0,0.578-0.187,1.382-0.559
			c0.804-0.374,1.402-0.562,1.795-0.562c1.727,0,3.727,0.314,6.001,0.939l0.354,1.061
			C342.713,537.174,342.241,540.47,342.241,544.351z M334.123,540.057c-0.117-2.155-0.824-3.234-2.117-3.234
			c-1.845,0-3.413,1.668-4.708,5c-1.138,2.903-1.705,5.513-1.705,7.826c0,4.471,1.196,6.705,3.589,6.705
			c1.566,0,2.805-0.938,3.705-2.822c0.745-1.49,1.119-3.119,1.119-4.883v-0.236c0.117-2.784,0.176-4.922,0.176-6.413v-0.764
			C334.182,541.078,334.162,540.686,334.123,540.057z"/>
		<path fill="#FFFFFF" d="M367.01,560.061c-2.668,0.744-4.668,1.117-6,1.117c-9.143,0-13.711-3.851-13.711-11.555
			c0-2.632,0.53-5.464,1.59-8.489c1.177-3.42,2.666-5.797,4.472-7.134c0.979-0.746,2.627-1.12,4.94-1.12
			c3.568,0,6.609,0.825,9.119,2.478c2.943,1.888,4.414,4.524,4.414,7.904c0,3.148-0.611,5.703-1.826,7.67
			c-1.451,2.398-3.646,3.601-6.588,3.601c-0.902,0-2.246-0.196-4.029-0.589c-1.784-0.394-3.131-0.591-4.03-0.591
			c-0.117,0-0.177,0.102-0.177,0.296c0,2.353,1.783,3.529,5.354,3.529c1.02,0,2.51-0.273,4.471-0.824
			c1.961-0.547,3.451-0.823,4.474-0.823c1.567,0,2.354,0.532,2.354,1.59S370.225,559.158,367.01,560.061z M361.242,536.881
			c-1.293,0-2.588,1.397-3.883,4.196c-1.101,2.4-1.646,4.432-1.646,6.084c0,1.023,0.471,1.852,1.412,2.481
			c0.824,0.553,1.764,0.827,2.824,0.827c1.371,0,2.51-1.142,3.412-3.427c0.744-1.891,1.116-3.802,1.116-5.731
			c0-1.143-0.254-2.128-0.766-2.956C363.127,537.372,362.301,536.881,361.242,536.881z"/>
		<path fill="#FFFFFF" d="M415.664,559.767c-2.434,0-4.59-0.295-6.473-0.883l-0.941-1.295c0.666-3.138,1-7.156,1-12.06
			c0-5.14-0.863-7.708-2.588-7.708c-2.275,0-3.883,2.204-4.824,6.611c-0.588,2.771-0.883,5.774-0.883,9.014
			c0,1.249,0.078,2.77,0.234,4.562c-0.587,1.17-2.353,1.757-5.293,1.757c-1.375,0-2.453-0.37-3.236-1.11l-0.354-0.526
			c-0.116-0.234-0.176-0.47-0.176-0.703c0-0.779,0.096-1.658,0.293-2.634c0.474-2.38,0.707-3.821,0.707-4.329v-2.633
			c0-6.554-1.197-9.831-3.59-9.831c-2,0-3.412,2.148-4.234,6.446c-0.473,2.484-0.707,5.324-0.707,8.518
			c0,1.854,0.078,3.688,0.234,5.501l-0.764,1.006c-0.627,0-1.56,0.05-2.795,0.149c-1.234,0.098-2.168,0.146-2.796,0.146
			c-1.646,0-2.471-0.572-2.471-1.715c0-1.771,0.078-3.938,0.236-6.5c0.352-5.751,0.529-9.375,0.529-10.871
			c0-2.206-0.314-4.138-0.941-5.792c0.744-1.222,2.096-1.832,4.059-1.832c2.511,0,4.334,0.394,5.474,1.176l0.293,0.706
			c2.979-0.548,4.862-0.823,5.647-0.823c1.49,0,2.883,0.256,4.179,0.765c0.155,0.08,0.51,0.235,1.059,0.472l2.707,1.179l4.352-1.768
			c1.648-0.665,3.396-0.998,5.238-0.998c3.215,0,5.521,0.717,6.912,2.146c1.391,1.433,2.088,3.755,2.088,6.971
			c0,0.354-0.02,1.374-0.059,3.061v2c0,0.471-0.06,0.844-0.177,1.117c0,0.274,0,0.354,0,0.235c0,0.274,0.037,0.862,0.117,1.764
			l0.412,4.824c0.037,0.472,0.06,1.062,0.06,1.767c0,0.588-0.267,1.088-0.796,1.5C416.871,559.56,416.289,559.767,415.664,559.767z"
			/>
		<path fill="#FFFFFF" d="M441.668,560.061c-2.668,0.744-4.668,1.117-6,1.117c-9.143,0-13.711-3.851-13.711-11.555
			c0-2.632,0.531-5.464,1.59-8.489c1.178-3.42,2.666-5.797,4.471-7.134c0.98-0.746,2.627-1.12,4.941-1.12
			c3.568,0,6.609,0.825,9.119,2.478c2.943,1.888,4.414,4.524,4.414,7.904c0,3.148-0.609,5.703-1.826,7.67
			c-1.449,2.398-3.646,3.601-6.588,3.601c-0.902,0-2.246-0.196-4.029-0.589c-1.785-0.394-3.129-0.591-4.031-0.591
			c-0.116,0-0.176,0.102-0.176,0.296c0,2.353,1.783,3.529,5.354,3.529c1.02,0,2.51-0.273,4.471-0.824
			c1.961-0.547,3.451-0.823,4.473-0.823c1.568,0,2.354,0.532,2.354,1.59S444.883,559.158,441.668,560.061z M435.9,536.881
			c-1.293,0-2.589,1.397-3.884,4.196c-1.098,2.4-1.646,4.432-1.646,6.084c0,1.023,0.471,1.852,1.412,2.481
			c0.824,0.553,1.764,0.827,2.824,0.827c1.37,0,2.51-1.142,3.411-3.427c0.744-1.891,1.117-3.802,1.117-5.731
			c0-1.143-0.254-2.128-0.764-2.956C437.785,537.372,436.959,536.881,435.9,536.881z"/>
		<path fill="#FFFFFF" d="M476.674,558.177c-0.041,1.06-1.492,1.59-4.354,1.59c-0.785,0-1.728-0.139-2.824-0.411
			c-1.371-0.353-2.06-0.844-2.06-1.471c0-1.061,0.104-2.295,0.314-3.707c0.334-2.157,0.502-3.374,0.502-3.647
			c0.082-0.627,0.125-1.273,0.125-1.942v-1.999c0-6.197-1.242-9.296-3.729-9.296c-3.671,0-5.507,5.014-5.507,15.042
			c0,1.755,0.156,3.729,0.472,5.911l-0.648,1.17c-1.02,0.233-1.844,0.352-2.469,0.352h-0.941c-3.178,0-4.766-0.741-4.766-2.226
			c0-1.211,0.059-2.441,0.176-3.69c0.354-3.709,0.529-5.76,0.529-6.15v-1.639c0-4.845-0.314-8.711-0.941-11.601
			c0.312-0.897,1.097-1.426,2.349-1.581h3.17c0.627,0,2.055,0.412,4.285,1.234c-0.195,0,0.997-0.116,3.581-0.352
			c0.433-0.039,0.765-0.061,0.998-0.061c4.343,0,7.425,0.883,9.244,2.646c1.82,1.768,2.73,4.807,2.73,9.12v2.59
			c0,0.116,0,0.843,0,2.177L476.674,558.177z"/>
		<path fill="#FFFFFF" d="M498.113,537.939c-1.533,0.273-3.029,0.51-4.484,0.705c-0.324,0.314-0.486,1.687-0.486,4.118
			c0,3.294,0.101,6.374,0.296,9.237l0.118,6.47c0.037,1.021-1.198,1.531-3.715,1.531c-1.471,0-2.979-0.433-4.524-1.295
			c-0.193-0.587-0.291-1.529-0.291-2.825c0,0.354,0-0.019,0-1.116v-4.646c0-0.274,0-0.769,0-1.471l0.235-10.119l-0.235-0.178
			l-2.353,0.115c-1.334,0.082-2.453-0.41-3.354-1.469c0.271-1.098,0.893-1.844,1.862-2.236l2.562-0.706
			c0.854-0.234,1.281-0.744,1.281-1.528c0,0.55-0.156-1.589-0.472-6.412c0.039-0.666,0.062-1.215,0.062-1.647
			c0-1.961,1.488-2.941,4.469-2.941h0.883c2.785,0,4.176,0.746,4.176,2.234c0,0.747-0.057,1.354-0.176,1.825l-0.41,5.117
			c0,0.979,0,1.607,0,1.883c0,0.864,0.726,1.294,2.177,1.294c1.686,0,2.844,0.962,3.469,2.883L498.113,537.939z"/>
		<path fill="#FFFFFF" d="M517.204,560.119c-0.512,0-1.256-0.051-2.236-0.147c-0.979-0.098-1.725-0.146-2.233-0.146
			c-2.435,0-4.746-0.177-6.943-0.53c-3.686-0.588-5.528-1.605-5.528-3.059c0-0.942,0.295-1.744,0.883-2.412
			c0.589-0.667,1.332-0.999,2.236-0.999c3.448,2.273,6.153,3.411,8.114,3.411c0.553,0,1.274-0.157,2.182-0.473
			c1.096-0.351,1.646-0.725,1.646-1.116c0-0.471-1.531-1.236-4.59-2.295c-1.218-0.432-3.062-1.06-5.531-1.883
			c-2.626-1.529-3.938-3.766-3.938-6.707c0-2.783,0.566-5.313,1.703-7.59c1.412-2.861,3.411-4.294,6.001-4.294
			c0.824,0,2,0.156,3.529,0.47l3.412,0.707c2.746,0.551,4.617,1.411,5.617,2.589c1,1.177,1.502,3.137,1.502,5.884
			c0,1.688-0.236,2.902-0.707,3.646c-0.588,0.942-1.668,1.413-3.234,1.413c-2.787,0-4.178-1.939-4.178-5.825v-1.412
			c0-2.195-0.392-3.293-1.176-3.293c-0.943,0-1.824,0.961-2.648,2.881c-0.705,1.688-1.061,3.081-1.061,4.179
			c0,2.117,1.219,3.728,3.651,4.823c1.135,0.512,3.39,1.551,6.763,3.117c2.434,1.141,3.647,2.454,3.647,3.943
			c0,1.294-0.844,2.49-2.529,3.59C520.026,559.609,518.577,560.119,517.204,560.119z"/>
	</g>
	<g>
		<path fill="#FFFFFF" d="M543.696,474.568c-2.375-0.521-2.127,7.302-10.474,18.207c-2.948,2.653-7.285,5.401-12.766,5.606
			c-7.025,0.258-11.709-4.944-14.314-9.123c-4.761-7.647-6.326-14.47-6.326-14.47s13.183-2.6,19.601-9.367
			c8.715-9.189,9.633-25.637-5.941-26.751c-21.537-1.539-34.3,19.888-34.3,35.425c-0.146-0.021-0.725,8.292,3.48,16.688
			c1.322,2.959,4.053,6.295,4.812,7.252s5.545,5.712,8.363,7.332c3.334,1.917,7.082,2.667,9.499,3.25
			c7.832,1,15.629,0.173,22.586-3.617c3.01-1.64,9.473-7.484,13.271-14.935C544.245,484.064,548.208,475.559,543.696,474.568z
			 M520.882,446.186c2.48,2.19,0.494,11.868-4.76,16.287c-7.631,6.42-16.69,6.869-16.823,6.941
			C499.418,465.289,509.894,436.495,520.882,446.186z"/>
		<path fill="#FFFFFF" d="M483.729,490.055c-3.5,4.062-8.688,8.312-13.188,8.688c-4.291,0.356-7.941-5.952-9.328-8.85
			c-5.08-10.612-6.254-24.315-5.772-35.747c0.116-2.762,0.459-3.143,0.459-3.143s10.674-9.552,17.416-20.387
			c7.696-12.372,21.909-47.435-0.025-57.583c-22.672-10.488-31.197,29.648-35.193,44.558c-1.219,4.594-4.764,19.566-4.618,36.807
			c-2.521,1.937-5.041,3.797-7.476,5.434c-3.645-21.675-40.688-22.903-47.451-4.197c1.572-4.349,10.191-21.45,12.154-25.894
			c4.289-9.741,8.438-20.337,9.982-30.938c1.502-10.298,1.651-24.322-5.58-28.375c-8.295-4.642-17.377-0.865-22.021,4.933
			c-9.09,11.318-16.067,30.83-17.561,49.35c-2.191,27.17,3.944,50.604,3.944,50.604s-8.655,19.856-13.26,19.279
			c-6.533-0.816-3.829-26.385-3.272-30.777c0.539-4.277,1.767-11.475,1.389-16.658c-0.444-6.1-19.127,7.728-19.237,13.539
			c-0.109,5.811,1.125,17.748-5.98,29.229c-4.001,6.462-7.962,4.012-10.867-1.556c-3.621-10.286-4.547-23.61-4.015-33.582
			c0.271-5.274,1.124-9.037,1.124-9.037s7.256-8.781,10.365-13.76c7.728-12.354,28.517-49.494,6.36-58.316
			c-23.208-9.24-31.199,29.649-35.194,44.561c-0.806,3.031-2.62,10.614-3.724,20.363c-18.022-5.188-40.26,5.328-45.238,30.637
			c-1.772,9.013,0.75,18.514,1.994,21.632c-1.201,1.395-5.577,6.248-11.354,7.249c-5.16,0.893-10.869-3.056-15.076-8.422
			c-5.582-7.122-6.357-14.531-6.357-14.531s13.241-2.61,19.685-9.407c8.753-9.229,9.673-25.745-5.967-26.863
			c-19.686-1.406-32.067,16.286-34.136,31.243c-3.916-0.729-7.151-1.72-10.105-4.239c-4.9-4.183-8.348-10.543-7.968-17.249
			c0.329-5.83,4.395-15.021,10.362-17.455c6.191-2.523,11.709,0.539,11.616-0.996c-0.308-5.006-10.329-4.8-14.834-1.934
			c-6.302,4.011-9.968,9.516-11.042,16.973c-1.934,13.429,3.973,23.646,17.139,28.137c1.75,0.595,3.316,1.137,4.447,1.533
			c-0.165,2.013-0.162,9.778,4.215,18.088c2.017,3.827,5.105,9.271,13.5,13.555c7,3.57,12.485,3.664,20.888,1.144
			c6.487-1.947,14.696-9.608,16.987-11.655l0,0c11.26,22.3,36,12.333,44.854-7.507c1.952,7.203,4.871,13.61,9.558,17.327
			c1.062,1.095,2.236,1.926,3.531,2.355c0.725,0.242,1.438,0.396,2.143,0.498c0.096,0.025,0.178,0.068,0.273,0.091
			c0.686,0.161,1.422,0.146,2.18,0c8.165-0.501,14.843-9.334,18.869-16.061c0,0,1.684,13.404,7.991,15.497
			c4.554,1.499,7.121,1.123,10.925-0.237c9.805-3.508,17.166-21.295,20.545-26.937c4.018,5.585,1.973,4.861,5.944,6.188
			c1.255,0.417,3.16-0.125,3.25-1.205c0.091-1.077-0.149-2.683-0.598-4.3c-0.096-1.665,0.043-6.354,3.082-15.195
			c2.68-5.759,6.525-10.832,11.969-14.436c12.914-8.556,23.847,7.275,19.89,17.832c0,0-8.295,3.771-12.631,6.596
			c-8.117,5.298-17.509,14.495-12.062,23.872c4.428,7.618,19.574,11.305,27.287,6.453c10.943-6.888,17.441-15.56,17.443-40.396
			c2.504-1.485,5-3.081,7.422-4.733c0.133,1.812,0.295,3.636,0.528,5.466c2.705,21.137,8.855,48.788,35.306,40.675
			c5.389-1.653,13.248-8.541,17.737-13.574C486.166,492.943,484.625,491.628,483.729,490.055z M477.291,387.005
			c2.545,1.479,2.078,15.896-3.014,27.48c-8.188,18.62-13.726,25.282-18.06,28.173C455.898,428.531,472.633,384.301,477.291,387.005
			z M326.08,387.648c4.658,2.706-13.387,40.044-19.22,46.606C306.86,423.409,321.422,384.943,326.08,387.648z M228.282,446.438
			c2.492,2.199,0.497,11.92-4.779,16.356c-7.664,6.448-16.762,6.898-16.896,6.97C206.726,465.622,217.249,436.705,228.282,446.438z
			 M266.318,492.104c-7.771-2.432-8.592-11.605-7.384-22.473c0.963-8.667,6.205-15.878,8.672-19.477
			c6.371-9.292,14.225-6.443,14.86-6.08c0.009,0.587,0.026,1.206,0.054,1.852c-0.424,6.846-0.391,14.348,0.578,21.922
			c0.522,4.079,1.111,8.533,1.93,12.957C280.553,486.448,270.968,493.555,266.318,492.104z M381.467,408.545
			c0.306-0.934,11.303-31.799,13.566-25.871c3.539,9.324-2.096,24.17-5.078,33.159c-2.393,7.261-13.25,30.815-13.688,31.045
			C375.779,433.521,377.303,421.26,381.467,408.545z M388.465,499.027c-5.397-1.134-3.842-8.209,1.908-13.534
			c5.178-4.798,14.693-9.096,15.191-8.951C403.898,482.765,398.275,501.081,388.465,499.027z"/>
		<path fill="#FFFFFF" d="M326.282,429.96c-0.571,6.888,6.599,10.7,12.625,7.384c5.957-3.276,7.04-8.73,7.759-14.932
			c-0.179,1.55-0.24-0.883-0.057-0.249C343.818,408.221,327.054,420.662,326.282,429.96z"/>
	</g>
	<g>
		<g>
			<path fill="#8DC63F" d="M230.206,399.95c13.52-6.287,23.875-17.857,30.027-31.34c1.217-2.668,0.83-5.48-1.273-7.578
				c-6.131-6.123-13.189-10.85-21.389-13.645c-0.393-0.133-0.771-0.205-1.139-0.232c-13.436-8.609-26.832-17.244-40.049-26.229
				c-18.412-12.51-36.742-25.219-56.357-35.795c-2.469-1.332-6.275-0.479-7.447,2.271c-10.559,24.754-8.547,51.967,5.283,75.025
				c12.047,20.088,32.635,36.018,55.686,40.964C205.698,406.001,218.866,405.226,230.206,399.95z"/>
		</g>
		<path fill="#FFDE17" d="M248.956,229.437c0,0-46.51-22.213-24.484-52.672c0,0,27.072-22.9,51.656,9.84
			c0,0,8.541-36.324,38.634-23.994c0,0,36.961,10.34,14.939,40.801c0,0,39.688-3.988,43.524,9.943
			c3.834,13.932,13.111,43.541-34.151,36.189c0,0,38.451,25.621,29.774,40.965c-8.676,15.338-34.03,39.297-55.784,8.75
			c0,0-4.757,42-42.373,26.582c0,0-26.711-21.592-9.332-44.684c0,0-54.408,15.107-57.613-12.627
			C200.538,240.8,217.394,233.327,248.956,229.437z"/>
		<circle fill="#F26522" cx="295.852" cy="246.896" r="23.493"/>
		<path fill="#7F3F98" d="M579.911,379.207c-10.082,5.707-22.879,2.163-28.586-7.917c-5.709-10.082-2.162-22.882,7.916-28.584
			c10.082-5.711,22.881-2.166,28.588,7.915S589.991,373.499,579.911,379.207z"/>
		<path fill="#7F3F98" d="M545.21,399.067c-9.275,5.252-21.049,1.988-26.299-7.284s-1.988-21.049,7.283-26.302
			c9.274-5.251,21.049-1.985,26.299,7.286C557.745,382.045,554.485,393.815,545.21,399.067z"/>
		<g>
			<path fill="#EEAF21" d="M238.267,226.406c-15.721-5.959-28.231-28.432-23.426-44.739c2.954-10.026,13.985-15.081,23.758-13.276
				c9.582,1.77,17.654,9.373,20.166,18.707c0.717,2.662,4.33,3.726,6.268,1.654c5.885-6.284,11.568-12.74,17.896-18.591
				c6.496-6.003,14.591-12.274,23.795-12.632c8.978-0.349,15.729,6.919,17.689,15.059c2.367,9.82-0.318,21.027-2.143,30.703
				c-0.484,2.572,1.694,5.65,4.612,4.613c8.732-3.105,18.117-3.981,26.33,0.979c6.338,3.828,10.055,10.75,11.455,17.833
				c1.299,6.575-0.068,14.142-4.398,19.368c-5.661,6.833-14.77,7.807-23.055,6.836c-3.904-0.458-4.836,5.199-1.893,6.988
				c9.805,5.958,19.537,13.97,22.399,25.594c1.854,7.527-0.989,15.211-6.262,20.633c-5.32,5.471-12.926,7.995-20.447,7.425
				c-9.602-0.729-16.948-8.126-21.547-15.978c-2.059-3.518-6.543-1.575-6.988,1.893c-2.07,16.151-13.331,39.556-33.169,33.147
				c-21.121-6.823-15.541-33.386-12.408-49.846c0.449-2.369-1.031-4.743-3.617-4.747c-9.052-0.013-18.072,1.103-27.126,1.213
				c-8.683,0.106-19.468-0.143-26.407-6.137c-8.414-7.27-4.684-18.769,2.178-25.367c9.094-8.746,23.125-12.651,35.34-13.967
				c4.756-0.513,4.806-8.018,0-7.5c-21.557,2.322-61.585,17.998-46.984,46.826c5.037,9.947,17.453,12.571,27.514,13.398
				c11.85,0.975,23.648-0.983,35.486-0.967c-1.205-1.582-2.41-3.165-3.615-4.747c-2.219,11.663-4.338,23.446-2.596,35.316
				c1.777,12.127,10.064,20.468,21.492,24.159c24.451,7.899,38.916-21.292,41.413-40.783c-2.327,0.631-4.658,1.262-6.987,1.893
				c5.92,10.109,15.162,18.315,27.182,19.602c9.844,1.054,19.547-2.679,26.592-9.53c7.273-7.073,10.121-17.181,8.379-27.045
				c-2.446-13.854-14.707-24.078-26.034-30.962c-0.632,2.33-1.263,4.659-1.894,6.988c10.338,1.212,21.219-0.941,28.357-9.033
				c6.276-7.114,7.842-16.833,6.451-25.958c-1.396-9.149-6.81-17.429-14.398-22.619c-9.646-6.595-22.189-5.889-32.736-2.139
				c1.537,1.538,3.074,3.075,4.613,4.613c3.66-19.412,8.016-48.205-17.205-54.648c-21.415-5.471-40.058,19.448-52.569,32.812
				c2.09,0.552,4.178,1.103,6.268,1.654c-6.744-25.064-43.553-34.875-56.754-9.46c-10.718,20.633,7.046,50.421,27.029,57.995
				C240.804,235.355,242.743,228.104,238.267,226.406L238.267,226.406z"/>
		</g>
		<g>
			<path fill="#452F8B" d="M596.604,353.756c-0.647-13.309-9.062-22.801-22.549-23.627c-11.416-0.699-24.479,5.753-29.198,16.472
				c-5.902,13.4,3.295,30.091,17.883,31.653c15.791,1.69,31.278-14.46,30.92-29.7c-0.113-4.828-7.613-4.84-7.5,0
				c0.274,11.658-10.961,22.233-22.459,22.249c-10.599,0.016-15.947-13.935-11.422-22.354c3.924-7.301,13.127-10.875,21.028-10.844
				c9.593,0.038,15.349,6.92,15.797,16.151C589.339,358.569,596.841,358.593,596.604,353.756L596.604,353.756z"/>
		</g>
		<g>
			<path fill="#452F8B" d="M554.271,380.363c2.223-5.846,2.725-12.544-2.007-17.29c-4.145-4.159-10.934-4.663-16.434-4.167
				c-12.572,1.134-27.641,8.023-29.846,21.733c-2.294,14.272,10.86,21.784,23.446,21.595c14.031-0.21,27.3-9.509,27.572-24.342
				c0.09-4.839-7.41-4.83-7.5,0c-0.193,10.505-9.65,16.162-19.264,16.809c-8.047,0.541-18.469-3.085-16.887-12.923
				c1.536-9.561,12.655-13.66,21.032-15.174c3.851-0.695,8.463-0.764,11.929,1.28c3.678,2.169,1.889,7.419,0.723,10.484
				C545.315,382.897,552.567,384.837,554.271,380.363L554.271,380.363z"/>
		</g>
		<g>
			<path fill="#7F3F98" d="M454.117,148.571c-2.631,11.281-13.908,18.295-25.189,15.664c-11.283-2.631-18.295-13.91-15.662-25.188
				c2.629-11.285,13.908-18.297,25.188-15.666C449.734,126.015,456.746,137.29,454.117,148.571z"/>
			<path fill="#7F3F98" d="M445.219,187.552c-2.422,10.379-12.795,16.83-23.176,14.41c-10.377-2.422-16.83-12.797-14.412-23.176
				c2.422-10.379,12.799-16.828,23.174-14.408C441.188,166.8,447.637,177.171,445.219,187.552z"/>
			<path fill="#7F3F98" d="M437.605,220.987c-1.894,8.123-10.013,13.17-18.138,11.273c-8.119-1.891-13.168-10.01-11.274-18.133
				c1.895-8.123,10.014-13.166,18.135-11.275C434.451,204.747,439.5,212.866,437.605,220.987z"/>
			<g>
				<path fill="#452F8B" d="M446.816,119.156c-10.953-9.116-24.826-8.817-34.351,2.198c-7.938,9.185-11.293,24.135-4.01,34.654
					c8.164,11.792,26.838,13.522,35.709,1.839c8.699-11.458,7.883-30.39-3.174-40.049c-3.625-3.167-8.951,2.115-5.304,5.303
					c8.064,7.045,8.701,19.808,3.527,28.76c-5.363,9.279-18.971,8.036-24.734-0.289c-5.143-7.429-1.969-17.708,2.854-24.381
					c6.146-8.504,16.307-9.282,24.178-2.732C445.201,127.529,450.537,122.253,446.816,119.156L446.816,119.156z"/>
			</g>
			<g>
				<path fill="#452F8B" d="M437.652,168.308c-2.754-5.482-7.082-10.301-13.627-10.353c-6.043-0.048-11.232,4.786-14.658,9.252
					c-7.726,10.071-13.017,26.083-4.076,36.967c9.029,10.993,23.223,6.488,31.529-2.839c9.274-10.417,11.61-26.429,0.924-36.698
					c-3.484-3.351-8.795,1.946-5.303,5.303c7.493,7.202,5.664,17.797-0.339,25.393c-5.11,6.468-14.278,11.519-20.896,4.282
					c-6.516-7.121-1.834-18.593,2.482-25.572c2.02-3.269,4.959-6.868,8.682-8.231c4.424-1.62,7.119,2.926,8.805,6.282
					C433.346,176.416,439.816,172.617,437.652,168.308L437.652,168.308z"/>
			</g>
			<g>
				<path fill="#452F8B" d="M429.215,203.96c-20.035-14.335-44.207,23.029-25.143,36.855c20.227,14.67,38.614-20.253,28.252-36.492
					c-2.594-4.062-9.088-0.305-6.478,3.785c5.388,8.44-2.559,33.996-15.311,27.949c-14.748-6.993,1.434-35.251,14.893-25.621
					C429.373,213.257,433.111,206.748,429.215,203.96L429.215,203.96z"/>
			</g>
		</g>
		<g>
			<path fill="#B94126" d="M312.617,225.124c-9.18-12.431-24.304-17.631-37.44-7.601c-11.051,8.438-16.115,23.809-9.592,36.539
				c7.635,14.901,30.103,21.368,43.515,10.894c13.172-10.286,15.425-30.388,4.588-43.08c-1.612-1.892-3.659-3.416-5.7-4.812
				c-4.004-2.739-7.75,3.763-3.785,6.477c11.092,7.592,11.547,23.155,3.049,32.947c-9.385,10.814-26.956,6.202-34.323-4.743
				c-6.049-8.986-1.777-20.615,5.586-27.321c9.205-8.385,20.772-4.798,27.627,4.486C308.98,232.755,315.494,229.021,312.617,225.124
				L312.617,225.124z"/>
		</g>
		<g>
			<path fill="#8DC63F" d="M481.805,265.804c0,0-23.389-25.495-9.321-40.384c0,0,22.463,20.269,18.358,36.624
				c0,0,36.18-26.902,48.434-6.442c0,0-5.812,27.978-35.938,25.242c0,0,40.083,4.202,38.323,27.689c0,0-34.424,3.412-42.622-21.538"
				/>
			<path fill="#BE1E2D" d="M445.627,253.357c-9.473,7.976-48.037,75.906-25.578,96.171c22.457,20.268,89.741-21.047,92.872-28.646
				C522.536,297.562,464.783,237.228,445.627,253.357z"/>
			<g>
				<path fill="#89241B" d="M459.936,251.575c14.056,15.899,33.281,26.364,47.493,42.214c5.763,6.423,11.691,15.197,9.256,24.228
					c-2.065,7.662-11.576,10.838-18.251,12.903c-9.026,2.792-18.389,4.34-27.448,7.02c-8.343,2.467-15.656,6.887-23.306,10.901
					c-6.319,3.316-13.358,7.197-20.604,7.817c-7.013,0.601-9.142-5.094-9.75-11.189c-1.574-15.71,3.881-32.479,9.594-46.892
					c6.232-15.729,15.488-31.116,28.863-41.747c3.787-3.009-1.56-8.278-5.304-5.303c-18.584,14.769-29.512,38.018-36.043,60.333
					c-3.172,10.836-5.442,22.276-4.61,33.608c0.483,6.619,2.625,14.05,9.022,17.218c5.812,2.879,12.756,1.171,18.523-0.905
					c7.781-2.8,15.062-6.942,22.311-10.87c16.103-8.723,34.927-8.871,51.282-16.844c7.127-3.474,12.793-9.625,13.656-17.729
					c1.006-9.471-3.857-17.834-9.498-25.016c-13.974-17.798-35.009-28.223-49.884-45.05
					C462.029,242.642,456.746,247.967,459.936,251.575L459.936,251.575z"/>
			</g>
			<g>
				<path fill="#4B8A3F" d="M486.027,253.684c-7.646-7.152-5.445-17.922-3.136-26.999c-1.836,0.747-3.674,1.494-5.51,2.241
					c8.818,5.301,14.59,16.285,13.438,26.552c-0.281,2.512,2.596,4.151,4.748,3.616c16.605-4.13,31.978-8.832,49.316-7.481
					c-1.25-1.25-2.5-2.5-3.75-3.75c-0.256,13.564-18.305,18.984-26.643,27.064c-2.226,2.154-0.828,5.244,1.653,6.268
					c5.361,2.209,10.906,4.05,15.974,6.902c5.406,3.043,8.912,7.934,11.766,13.312c1.078-1.881,2.158-3.762,3.238-5.643
					c-9.605,0.907-21.744,0.475-27.16-8.876c-2.424-4.183-8.906-0.408-6.477,3.785c6.819,11.772,21.203,13.766,33.637,12.591
					c2.842-0.269,4.654-2.974,3.238-5.643c-3.328-6.272-7.537-11.553-13.527-15.441c-5.67-3.684-12.486-5.661-18.693-8.22
					c0.552,2.09,1.103,4.179,1.654,6.268c10.5-10.173,28.514-15.062,28.84-32.367c0.041-2.163-1.742-3.594-3.75-3.75
					c-17.994-1.402-34.071,3.462-51.312,7.749c1.582,1.205,3.164,2.411,4.746,3.616c1.438-12.808-6.271-26.486-17.152-33.028
					c-2.051-1.232-4.914-0.093-5.508,2.241c-2.996,11.772-4.689,25.171,5.063,34.296
					C484.252,262.286,489.566,256.994,486.027,253.684L486.027,253.684z"/>
			</g>
		</g>
		<g>
			<path fill="#4B8A3F" d="M132.933,296.153c-0.792,1.046-2.241,1.419-1.824,1.443c-1.235-0.07,0.471,0.149,0.848,0.26
				c1.77,0.519,3.017,1.136,4.662,1.923c5.119,2.448,10.035,5.336,14.908,8.232c13.625,8.1,26.863,16.861,39.998,25.727
				c12.385,8.36,24.666,16.89,36.73,25.706c3.492,2.552,6.992,5.109,10.343,7.847c0.757,0.618,1.528,1.243,2.196,1.959
				c-1.021-1.095-0.467-2.679-0.951-0.808c-2.301,8.875-9.284,17.512-16.12,23.664c-11.864,10.679-27.597,13.879-42.976,10.341
				c-29.709-6.835-53.572-32.567-58.357-62.671C119.945,324.394,124.874,309.121,132.933,296.153c2.561-4.12-3.93-7.883-6.476-3.785
				c-11.624,18.705-15.427,40.311-8.338,61.388c4.656,13.845,13.397,26.322,23.794,36.478
				c10.633,10.384,25.766,17.386,40.238,20.165c15.576,2.988,31.339-0.691,43.826-10.463c8.759-6.854,15.753-16.081,20.008-26.354
				c1.014-2.447,2.42-6.012,0.947-8.547c-1.221-2.101-3.742-3.642-5.601-5.088c-22.889-17.811-47.272-34.012-71.722-49.576
				c-8.876-5.65-17.842-11.27-27.211-16.075c-4.223-2.167-12.089-7.014-15.942-1.927
				C123.534,296.226,130.052,299.956,132.933,296.153z"/>
		</g>
	</g>
	<polyline fill="none" stroke="#000000" stroke-width="2" stroke-miterlimit="10" points="635.25,663.256 635.25,699.485 
		597.084,699.485 597.084,662.188 	"/>
	<rect x="77.693" y="715.334" fill="none" width="157" height="21.5"/>
	<text transform="matrix(1 0 0 1 77.6934 733.5742)" font-family="'OpenSans'" font-size="24">½x</text>
	<polyline fill="none" stroke="#000000" stroke-width="2" stroke-miterlimit="10" points="114.275,663.256 114.275,699.485 
		76.109,699.485 76.109,662.188 	"/>
	<polyline fill="none" stroke="#000000" stroke-width="2" stroke-miterlimit="10" points="678.424,21.752 714.654,21.752 
		714.654,61.418 677.355,61.418 	"/>
	<rect x="738.668" y="631.334" fill="none" width="157" height="21.5"/>
	<text transform="matrix(1 0 0 1 738.668 649.5742)" font-family="'OpenSans'" font-size="24">½x</text>
	<polyline fill="none" stroke="#000000" stroke-width="2" stroke-miterlimit="10" points="678.424,621.752 714.654,621.752 
		714.654,661.418 677.355,661.418 	"/>
	<polyline fill="none" stroke="#000000" stroke-width="2" stroke-miterlimit="10" points="596.762,663.26 596.762,699.489 
		114.096,699.489 114.096,662.191 	"/>
	<polyline fill="none" stroke="#000000" stroke-width="2" stroke-miterlimit="10" points="678.443,62.002 715.168,62.002 
		715.168,620.406 677.359,620.406 	"/>
	<polyline fill="none" stroke="#000000" stroke-width="2" stroke-miterlimit="10" points="675.998,743.27 675.998,779.995 
		35.098,779.995 35.098,742.188 	"/>
	
		<rect x="36.006" y="21.44" opacity="0.5" fill="none" stroke="#000000" stroke-miterlimit="10" stroke-dasharray="12" enable-background="new    " width="639.994" height="639.994"/>
	
		<rect x="36.006" y="21.44" opacity="0.5" fill="none" stroke="#000000" stroke-miterlimit="10" stroke-dasharray="12" enable-background="new    " width="639.994" height="758.482"/>
	
		<rect x="77.379" y="20.805" opacity="0.5" fill="none" stroke="#000000" stroke-miterlimit="10" stroke-dasharray="12" enable-background="new    " width="558.247" height="678.268"/>
</g>
</svg>
