<?xml version="1.0" encoding="utf-8"?>
<!-- Generator: Adobe Illustrator 16.0.0, SVG Export Plug-In . SVG Version: 6.00 Build 0)  -->
<!DOCTYPE svg PUBLIC "-//W3C//DTD SVG 1.1//EN" "http://www.w3.org/Graphics/SVG/1.1/DTD/svg11.dtd">
<svg version="1.1" xmlns="http://www.w3.org/2000/svg" xmlns:xlink="http://www.w3.org/1999/xlink" x="0px" y="0px" width="841px"
	 height="785.507px" viewBox="0 0 841 785.507" enable-background="new 0 0 841 785.507" xml:space="preserve">
<g id="Layer_2">
</g>
<g id="Layer_1">
	<g>
		<path fill="#BE1E2D" d="M214.738,511.211c-1.492,0-2.845-0.591-4.06-1.766h-0.236c-0.902,0-2,0.059-3.294,0.176
			c-1.725,0.157-2.805,0.236-3.235,0.236c-2.668,0-4.923-0.606-6.766-1.824c-2.158-1.412-3.236-3.372-3.236-5.883
			c0-2.746,1.568-4.745,4.707-6.002l5.941-1.175c1.098-0.196,3.04-0.589,5.825-1.179c0.079-0.234,0.118-0.411,0.118-0.528
			c0-3.373-1.156-5.06-3.471-5.06c-1.256,0-2.941,0.883-5.06,2.646l-4.471,4l-1.235-0.469c-0.706-0.745-1.177-1.688-1.413-2.824
			c0.667-1.884,2.274-3.696,4.825-5.441c2.549-1.747,4.824-2.62,6.825-2.62c0.274,0,1.608,0.257,4,0.767
			c3.413,0.745,5.657,1.763,6.737,3.059c1.078,1.294,1.618,3.667,1.618,7.117c0,0.707-0.08,2.414-0.236,5.12
			c-0.118,2.039-0.176,3.727-0.176,5.06c0-0.157,0.118,0.999,0.353,3.47c0.039,0.393,0.059,0.729,0.059,1.003
			c0,1.41-1.021,2.117-3.06,2.117H214.738z M209.56,499.738c-1.137,0-2.646,0.257-4.529,0.766c-2.118,0.55-3.492,1.138-4.119,1.766
			l-0.411,0.41c-0.471,0.473-0.707,0.786-0.707,0.943c0,0.901,1.686,1.352,5.06,1.352c0.667,0,1.608-0.116,2.824-0.353
			c1.373-0.235,2.215-0.491,2.53-0.765c0.313-0.273,0.471-1.039,0.471-2.294C210.679,500.347,210.306,499.738,209.56,499.738z"/>
		<path fill="#BE1E2D" d="M232.83,485.56c2.426-1.517,4.057-2.275,4.891-2.275c3.071,0,4.606,1.1,4.606,3.298l-0.17,1.309
			l-1.251,0.738c-0.189,0-0.635-0.132-1.337-0.397c-0.702-0.265-1.185-0.397-1.45-0.397c-1.783,0-3.261,2.161-4.436,6.484
			c-0.909,3.335-1.364,6.312-1.364,8.928c0,0.682,0.057,1.555,0.17,2.616c0.151,1.442,0.229,2.313,0.229,2.615
			c0,1.289-0.816,1.935-2.446,1.935c-4.095,0-6.143-0.971-6.143-2.912c0-0.458,0.076-1.133,0.229-2.028
			c0.151-0.895,0.227-1.571,0.227-2.026v-4.97c0-6.243-0.398-10.774-1.195-13.592c0.721-1.066,2.788-1.6,6.2-1.6
			C231.673,483.285,232.753,484.043,232.83,485.56z"/>
		<path fill="#BE1E2D" d="M253.984,485.56c2.427-1.517,4.058-2.275,4.891-2.275c3.071,0,4.607,1.1,4.607,3.298l-0.17,1.309
			l-1.251,0.738c-0.19,0-0.635-0.132-1.337-0.397c-0.702-0.265-1.185-0.397-1.45-0.397c-1.783,0-3.262,2.161-4.436,6.484
			c-0.911,3.335-1.365,6.312-1.365,8.928c0,0.682,0.057,1.555,0.17,2.616c0.152,1.442,0.228,2.313,0.228,2.615
			c0,1.289-0.816,1.935-2.446,1.935c-4.095,0-6.143-0.971-6.143-2.912c0-0.458,0.076-1.133,0.228-2.028
			c0.151-0.895,0.228-1.571,0.228-2.026v-4.97c0-6.243-0.399-10.774-1.195-13.592c0.72-1.066,2.787-1.6,6.2-1.6
			C252.828,483.285,253.909,484.043,253.984,485.56z"/>
		<path fill="#BE1E2D" d="M285.466,511.211c-1.491,0-2.844-0.591-4.06-1.766h-0.235c-0.903,0-2,0.059-3.295,0.176
			c-1.726,0.157-2.805,0.236-3.235,0.236c-2.668,0-4.923-0.606-6.766-1.824c-2.158-1.412-3.236-3.372-3.236-5.883
			c0-2.746,1.568-4.745,4.707-6.002l5.941-1.175c1.098-0.196,3.04-0.589,5.825-1.179c0.078-0.234,0.118-0.411,0.118-0.528
			c0-3.373-1.157-5.06-3.471-5.06c-1.256,0-2.941,0.883-5.06,2.646l-4.472,4l-1.235-0.469c-0.706-0.745-1.177-1.688-1.413-2.824
			c0.667-1.884,2.274-3.696,4.825-5.441c2.549-1.747,4.824-2.62,6.825-2.62c0.273,0,1.608,0.257,4,0.767
			c3.413,0.745,5.657,1.763,6.736,3.059c1.078,1.294,1.619,3.667,1.619,7.117c0,0.707-0.08,2.414-0.236,5.12
			c-0.118,2.039-0.176,3.727-0.176,5.06c0-0.157,0.118,0.999,0.353,3.47c0.038,0.393,0.059,0.729,0.059,1.003
			c0,1.41-1.021,2.117-3.06,2.117H285.466z M280.288,499.738c-1.137,0-2.646,0.257-4.529,0.766c-2.118,0.55-3.492,1.138-4.119,1.766
			l-0.412,0.41c-0.471,0.473-0.707,0.786-0.707,0.943c0,0.901,1.687,1.352,5.06,1.352c0.666,0,1.608-0.116,2.824-0.353
			c1.373-0.235,2.216-0.491,2.53-0.765c0.313-0.273,0.471-1.039,0.471-2.294C281.406,500.347,281.033,499.738,280.288,499.738z"/>
		<path fill="#BE1E2D" d="M320.354,508.503c-0.041,1.059-1.492,1.59-4.354,1.59c-0.785,0-1.727-0.139-2.824-0.412
			c-1.373-0.352-2.06-0.843-2.06-1.47c0-1.061,0.104-2.295,0.314-3.707c0.334-2.158,0.502-3.374,0.502-3.648
			c0.083-0.627,0.126-1.273,0.126-1.942v-1.999c0-6.197-1.244-9.296-3.73-9.296c-3.671,0-5.507,5.014-5.507,15.042
			c0,1.755,0.157,3.728,0.471,5.911l-0.646,1.17c-1.02,0.233-1.845,0.352-2.471,0.352h-0.941c-3.177,0-4.766-0.742-4.766-2.226
			c0-1.211,0.058-2.441,0.176-3.69c0.354-3.709,0.53-5.76,0.53-6.151v-1.639c0-4.844-0.314-8.71-0.941-11.6
			c0.312-0.898,1.096-1.426,2.348-1.581h3.17c0.626,0,2.054,0.412,4.285,1.234c-0.196,0,0.998-0.116,3.582-0.351
			c0.43-0.039,0.762-0.061,0.997-0.061c4.343,0,7.425,0.883,9.245,2.646c1.821,1.767,2.73,4.806,2.73,9.12v2.59
			c0,0.116,0,0.842,0,2.176L320.354,508.503z"/>
		<path fill="#BE1E2D" d="M349.828,494.677c0,1.845,0.098,4.276,0.294,7.297l0.471,7.295c0.039,0.627,0.059,1.921,0.059,3.883
			c0,2.862-1.353,5.079-4.059,6.648c-2.197,1.295-4.845,1.94-7.942,1.94c-8.119,0-12.885-1.686-14.296-5.058
			c0.392-0.629,1.019-1.158,1.882-1.59c0.861-0.432,1.666-0.647,2.412-0.647c0.195,0,1.441,0.639,3.735,1.914
			c2.294,1.272,3.971,1.911,5.03,1.911c1.922,0,3.275-0.528,4.06-1.588c0.626-0.905,0.941-2.354,0.941-4.354
			c0-1.883-1.021-2.824-3.06-2.824c-0.706,0-1.922,0.079-3.647,0.235c-0.433,0.039-0.766,0.059-1.001,0.059
			c-6.628,0-9.942-3.646-9.942-10.943c0-3.841,0.784-7.333,2.353-10.472c1.96-3.92,4.667-5.883,8.119-5.883
			c0.823,0,1.707,0.137,2.648,0.411c2.274,0.669,3.549,1.002,3.825,1.002c0.117,0,0.578-0.187,1.381-0.559
			c0.803-0.374,1.402-0.561,1.795-0.561c1.725,0,3.726,0.314,6.001,0.939l0.354,1.061C350.3,487.5,349.828,490.796,349.828,494.677z
			 M341.71,490.383c-0.118-2.156-0.824-3.235-2.118-3.235c-1.844,0-3.413,1.668-4.708,5c-1.138,2.904-1.705,5.513-1.705,7.826
			c0,4.471,1.196,6.706,3.588,6.706c1.567,0,2.804-0.939,3.706-2.823c0.745-1.49,1.119-3.119,1.119-4.883v-0.236
			c0.118-2.784,0.176-4.922,0.176-6.413v-0.764C341.768,491.405,341.748,491.012,341.71,490.383z"/>
		<path fill="#BE1E2D" d="M374.596,510.387c-2.668,0.744-4.668,1.117-6,1.117c-9.142,0-13.71-3.851-13.71-11.555
			c0-2.632,0.53-5.464,1.589-8.489c1.177-3.42,2.667-5.797,4.471-7.134c0.98-0.746,2.627-1.12,4.941-1.12
			c3.569,0,6.609,0.825,9.12,2.477c2.942,1.888,4.413,4.525,4.413,7.905c0,3.148-0.61,5.703-1.825,7.67
			c-1.451,2.398-3.646,3.6-6.588,3.6c-0.903,0-2.246-0.196-4.03-0.589c-1.785-0.393-3.13-0.59-4.03-0.59
			c-0.117,0-0.177,0.101-0.177,0.295c0,2.353,1.784,3.53,5.354,3.53c1.019,0,2.51-0.274,4.471-0.824
			c1.961-0.547,3.45-0.824,4.472-0.824c1.568,0,2.354,0.532,2.354,1.59S377.811,509.485,374.596,510.387z M368.829,487.208
			c-1.294,0-2.588,1.397-3.883,4.196c-1.1,2.401-1.647,4.432-1.647,6.084c0,1.024,0.472,1.852,1.413,2.482
			c0.823,0.552,1.764,0.827,2.823,0.827c1.372,0,2.51-1.142,3.412-3.427c0.745-1.891,1.118-3.802,1.118-5.731
			c0-1.143-0.255-2.128-0.766-2.956C370.713,487.699,369.888,487.208,368.829,487.208z"/>
		<path fill="#BE1E2D" d="M423.25,510.093c-2.434,0-4.59-0.295-6.473-0.883l-0.94-1.295c0.666-3.138,1-7.156,1-12.06
			c0-5.139-0.863-7.708-2.589-7.708c-2.274,0-3.883,2.204-4.824,6.612c-0.588,2.771-0.882,5.774-0.882,9.013
			c0,1.249,0.078,2.77,0.234,4.563c-0.587,1.17-2.353,1.757-5.294,1.757c-1.374,0-2.452-0.371-3.235-1.111l-0.354-0.526
			c-0.117-0.234-0.177-0.47-0.177-0.703c0-0.78,0.097-1.658,0.294-2.634c0.472-2.38,0.706-3.821,0.706-4.329v-2.633
			c0-6.554-1.197-9.831-3.589-9.831c-2.001,0-3.413,2.148-4.235,6.446c-0.472,2.485-0.706,5.324-0.706,8.518
			c0,1.854,0.077,3.688,0.234,5.501l-0.765,1.006c-0.627,0-1.558,0.049-2.794,0.149c-1.235,0.098-2.168,0.147-2.795,0.147
			c-1.647,0-2.472-0.573-2.472-1.715c0-1.771,0.079-3.938,0.236-6.5c0.353-5.751,0.529-9.375,0.529-10.871
			c0-2.206-0.314-4.138-0.94-5.792c0.744-1.222,2.096-1.832,4.059-1.832c2.51,0,4.334,0.393,5.473,1.175l0.293,0.707
			c2.98-0.548,4.863-0.824,5.648-0.824c1.49,0,2.883,0.256,4.178,0.765c0.155,0.08,0.509,0.235,1.059,0.472l2.706,1.178l4.353-1.767
			c1.647-0.665,3.394-0.998,5.237-0.998c3.215,0,5.52,0.716,6.913,2.146c1.391,1.433,2.088,3.755,2.088,6.971
			c0,0.354-0.02,1.374-0.06,3.06v2c0,0.471-0.059,0.844-0.176,1.118c0,0.274,0,0.353,0,0.235c0,0.274,0.038,0.862,0.117,1.764
			l0.413,4.824c0.037,0.472,0.059,1.061,0.059,1.767c0,0.587-0.266,1.087-0.795,1.5C424.457,509.886,423.876,510.093,423.25,510.093
			z"/>
		<path fill="#BE1E2D" d="M449.255,510.387c-2.669,0.744-4.669,1.117-6.001,1.117c-9.142,0-13.71-3.851-13.71-11.555
			c0-2.632,0.53-5.464,1.589-8.489c1.178-3.42,2.667-5.797,4.471-7.134c0.98-0.746,2.628-1.12,4.941-1.12
			c3.569,0,6.61,0.825,9.12,2.477c2.942,1.888,4.413,4.525,4.413,7.905c0,3.148-0.609,5.703-1.825,7.67
			c-1.45,2.398-3.646,3.6-6.588,3.6c-0.903,0-2.246-0.196-4.03-0.589c-1.785-0.393-3.129-0.59-4.03-0.59
			c-0.117,0-0.177,0.101-0.177,0.295c0,2.353,1.784,3.53,5.354,3.53c1.02,0,2.51-0.274,4.471-0.824
			c1.961-0.547,3.45-0.824,4.472-0.824c1.568,0,2.354,0.532,2.354,1.59S452.47,509.485,449.255,510.387z M443.487,487.208
			c-1.294,0-2.588,1.397-3.883,4.196c-1.099,2.401-1.647,4.432-1.647,6.084c0,1.024,0.472,1.852,1.413,2.482
			c0.823,0.552,1.764,0.827,2.823,0.827c1.372,0,2.51-1.142,3.412-3.427c0.745-1.891,1.118-3.802,1.118-5.731
			c0-1.143-0.255-2.128-0.765-2.956C445.371,487.699,444.546,487.208,443.487,487.208z"/>
		<path fill="#BE1E2D" d="M484.26,508.503c-0.04,1.059-1.492,1.59-4.354,1.59c-0.785,0-1.727-0.139-2.824-0.412
			c-1.372-0.352-2.06-0.843-2.06-1.47c0-1.061,0.104-2.295,0.314-3.707c0.334-2.158,0.502-3.374,0.502-3.648
			c0.083-0.627,0.126-1.273,0.126-1.942v-1.999c0-6.197-1.243-9.296-3.73-9.296c-3.671,0-5.507,5.014-5.507,15.042
			c0,1.755,0.156,3.728,0.471,5.911l-0.647,1.17c-1.02,0.233-1.844,0.352-2.47,0.352h-0.941c-3.177,0-4.766-0.742-4.766-2.226
			c0-1.211,0.059-2.441,0.176-3.69c0.354-3.709,0.529-5.76,0.529-6.151v-1.639c0-4.844-0.313-8.71-0.941-11.6
			c0.313-0.898,1.096-1.426,2.349-1.581h3.17c0.626,0,2.054,0.412,4.285,1.234c-0.196,0,0.998-0.116,3.581-0.351
			c0.432-0.039,0.764-0.061,0.998-0.061c4.343,0,7.425,0.883,9.244,2.646c1.821,1.767,2.73,4.806,2.73,9.12v2.59
			c0,0.116,0,0.842,0,2.176L484.26,508.503z"/>
		<path fill="#BE1E2D" d="M505.699,488.266c-1.533,0.274-3.029,0.51-4.483,0.705c-0.325,0.315-0.486,1.687-0.486,4.119
			c0,3.294,0.1,6.374,0.294,9.237l0.12,6.47c0.037,1.021-1.199,1.531-3.716,1.531c-1.471,0-2.979-0.433-4.524-1.295
			c-0.193-0.587-0.291-1.529-0.291-2.825c0,0.354,0-0.019,0-1.116v-4.647c0-0.274,0-0.768,0-1.471l0.235-10.119l-0.235-0.177
			l-2.353,0.115c-1.334,0.082-2.453-0.41-3.354-1.469c0.272-1.098,0.893-1.844,1.864-2.236l2.56-0.706
			c0.855-0.235,1.282-0.744,1.282-1.529c0,0.55-0.156-1.588-0.471-6.412c0.038-0.666,0.06-1.215,0.06-1.647
			c0-1.961,1.488-2.942,4.47-2.942h0.883c2.785,0,4.175,0.746,4.175,2.235c0,0.747-0.057,1.354-0.176,1.825l-0.409,5.117
			c0,0.98,0,1.608,0,1.883c0,0.864,0.724,1.294,2.175,1.294c1.687,0,2.844,0.962,3.47,2.883L505.699,488.266z"/>
		<path fill="#BE1E2D" d="M524.792,510.446c-0.511,0-1.255-0.051-2.236-0.147c-0.98-0.098-1.725-0.146-2.233-0.146
			c-2.434,0-4.747-0.177-6.943-0.53c-3.688-0.588-5.53-1.606-5.53-3.059c0-0.942,0.294-1.744,0.883-2.412
			c0.587-0.667,1.332-0.999,2.236-0.999c3.45,2.274,6.155,3.411,8.116,3.411c0.552,0,1.275-0.157,2.181-0.472
			c1.096-0.351,1.646-0.725,1.646-1.117c0-0.47-1.53-1.236-4.59-2.295c-1.217-0.431-3.061-1.059-5.53-1.882
			c-2.628-1.53-3.94-3.766-3.94-6.707c0-2.784,0.566-5.314,1.704-7.59c1.412-2.862,3.412-4.294,6.001-4.294
			c0.824,0,2,0.156,3.53,0.47l3.411,0.707c2.746,0.55,4.618,1.411,5.618,2.589c1,1.176,1.502,3.136,1.502,5.883
			c0,1.688-0.236,2.903-0.707,3.646c-0.588,0.942-1.668,1.413-3.235,1.413c-2.786,0-4.178-1.94-4.178-5.825v-1.412
			c0-2.196-0.391-3.293-1.175-3.293c-0.943,0-1.824,0.961-2.648,2.881c-0.706,1.688-1.061,3.081-1.061,4.178
			c0,2.117,1.218,3.728,3.651,4.824c1.135,0.511,3.389,1.55,6.763,3.117c2.433,1.14,3.648,2.454,3.648,3.943
			c0,1.294-0.844,2.49-2.529,3.59C527.615,509.936,526.165,510.446,524.792,510.446z"/>
	</g>
	<g>
		<path fill="#BE1E2D" d="M551.284,424.895c-2.375-0.521-2.126,7.302-10.472,18.207c-2.949,2.654-7.286,5.402-12.766,5.607
			c-7.026,0.258-11.71-4.944-14.314-9.123c-4.764-7.648-6.33-14.47-6.33-14.47s13.186-2.6,19.604-9.367
			c8.715-9.19,9.632-25.637-5.942-26.751c-21.54-1.539-34.302,19.888-34.302,35.425c-0.146-0.022-0.725,8.292,3.48,16.687
			c1.322,2.959,4.053,6.295,4.812,7.252s5.546,5.712,8.364,7.332c3.334,1.917,7.083,2.667,9.5,3.25
			c7.833,1,15.63,0.173,22.586-3.617c3.01-1.64,9.474-7.484,13.271-14.935C551.833,434.391,555.797,425.885,551.284,424.895z
			 M528.47,396.512c2.481,2.19,0.494,11.868-4.759,16.287c-7.631,6.42-16.692,6.869-16.826,6.941
			C507.005,415.616,517.481,386.822,528.47,396.512z"/>
		<path fill="#BE1E2D" d="M491.314,440.381c-3.5,4.062-8.688,8.312-13.188,8.688c-4.29,0.357-7.941-5.952-9.328-8.849
			c-5.08-10.613-6.254-24.316-5.773-35.747c0.117-2.762,0.459-3.143,0.459-3.143s10.674-9.552,17.416-20.387
			c7.697-12.372,21.91-47.435-0.025-57.583c-22.672-10.488-31.197,29.649-35.193,44.558c-1.219,4.594-4.763,19.566-4.619,36.806
			c-2.521,1.937-5.04,3.797-7.474,5.434c-3.646-21.675-40.69-22.903-47.452-4.197c1.573-4.349,10.192-21.45,12.154-25.894
			c4.289-9.741,8.438-20.337,9.983-30.937c1.501-10.298,1.651-24.322-5.581-28.375c-8.295-4.642-17.377-0.865-22.02,4.933
			c-9.089,11.318-16.068,30.829-17.561,49.35c-2.19,27.17,3.945,50.604,3.945,50.604s-8.656,19.857-13.259,19.28
			c-6.533-0.817-3.829-26.385-3.273-30.778c0.539-4.277,1.766-11.474,1.388-16.658c-0.444-6.099-19.127,7.728-19.237,13.539
			c-0.11,5.811,1.125,17.748-5.982,29.229c-4,6.462-7.961,4.011-10.867-1.556c-3.62-10.286-4.546-23.61-4.014-33.582
			c0.271-5.274,1.124-9.037,1.124-9.037s7.255-8.781,10.365-13.76c7.727-12.354,28.516-49.494,6.361-58.316
			c-23.208-9.24-31.199,29.649-35.194,44.56c-0.805,3.032-2.62,10.615-3.723,20.364c-18.023-5.189-40.26,5.328-45.239,30.636
			c-1.772,9.013,0.751,18.514,1.995,21.632c-1.201,1.395-5.578,6.248-11.354,7.249c-5.161,0.893-10.869-3.055-15.077-8.422
			c-5.581-7.122-6.357-14.531-6.357-14.531s13.241-2.61,19.685-9.407c8.752-9.229,9.673-25.745-5.967-26.863
			c-19.686-1.407-32.068,16.286-34.135,31.243c-3.917-0.729-7.152-1.72-10.106-4.24c-4.9-4.182-8.347-10.543-7.967-17.249
			c0.33-5.83,4.395-15.021,10.362-17.455c6.191-2.523,11.709,0.539,11.616-0.996c-0.307-5.006-10.33-4.8-14.834-1.933
			c-6.302,4.01-9.968,9.515-11.042,16.972c-1.933,13.429,3.973,23.647,17.139,28.137c1.749,0.595,3.316,1.137,4.447,1.533
			c-0.166,2.013-0.162,9.779,4.215,18.088c2.016,3.827,5.105,9.272,13.5,13.555c7,3.57,12.485,3.664,20.887,1.143
			c6.488-1.947,14.696-9.608,16.988-11.655l0,0c11.26,22.3,36,12.333,44.853-7.507c1.953,7.203,4.872,13.611,9.558,17.327
			c1.063,1.095,2.236,1.926,3.532,2.356c0.724,0.242,1.437,0.395,2.143,0.498c0.095,0.025,0.177,0.068,0.272,0.091
			c0.687,0.161,1.422,0.146,2.18,0c8.166-0.501,14.843-9.334,18.87-16.061c0,0,1.684,13.405,7.991,15.497
			c4.554,1.499,7.123,1.123,10.924-0.237c9.805-3.508,17.167-21.295,20.546-26.937c4.017,5.585,1.972,4.862,5.944,6.188
			c1.254,0.417,3.16-0.125,3.25-1.205c0.09-1.077-0.15-2.683-0.597-4.3c-0.097-1.665,0.043-6.354,3.081-15.195
			c2.68-5.759,6.526-10.832,11.969-14.436c12.914-8.555,23.846,7.276,19.889,17.832c0,0-8.294,3.771-12.63,6.596
			c-8.118,5.298-17.508,14.495-12.062,23.872c4.428,7.618,19.575,11.305,27.287,6.453c10.944-6.888,17.441-15.559,17.443-40.395
			c2.505-1.486,5-3.081,7.422-4.734c0.133,1.813,0.296,3.636,0.529,5.466c2.705,21.137,8.855,48.788,35.305,40.675
			c5.39-1.653,13.249-8.541,17.738-13.574C493.752,443.27,492.212,441.955,491.314,440.381z M484.877,337.332
			c2.545,1.479,2.078,15.896-3.014,27.48c-8.188,18.62-13.725,25.283-18.059,28.173
			C463.484,378.858,480.219,334.627,484.877,337.332z M333.666,337.975c4.659,2.706-13.386,40.044-19.219,46.606
			C314.447,373.736,329.008,335.27,333.666,337.975z M235.869,396.764c2.492,2.199,0.497,11.919-4.779,16.356
			c-7.664,6.448-16.762,6.898-16.897,6.97C214.312,415.949,224.836,387.032,235.869,396.764z M273.905,442.43
			c-7.771-2.432-8.592-11.606-7.384-22.473c0.963-8.667,6.206-15.878,8.672-19.477c6.372-9.292,14.225-6.443,14.861-6.08
			c0.008,0.587,0.026,1.206,0.054,1.852c-0.423,6.845-0.391,14.347,0.579,21.922c0.522,4.079,1.11,8.533,1.929,12.957
			C288.139,436.775,278.554,443.881,273.905,442.43z M389.053,358.872c0.305-0.934,11.303-31.799,13.566-25.871
			c3.539,9.324-2.096,24.17-5.078,33.159c-2.392,7.261-13.249,30.815-13.688,31.045
			C383.365,383.848,384.889,371.586,389.053,358.872z M396.051,449.354c-5.398-1.133-3.842-8.209,1.908-13.534
			c5.178-4.798,14.694-9.096,15.191-8.951C411.485,433.091,405.862,451.408,396.051,449.354z"/>
		<path fill="#BE1E2D" d="M333.869,380.287c-0.571,6.888,6.598,10.7,12.625,7.384c5.957-3.277,7.041-8.731,7.759-14.932
			c-0.179,1.55-0.241-0.883-0.057-0.249C351.405,358.547,334.64,370.989,333.869,380.287z"/>
	</g>
	<g opacity="0.5">
		<g>
			<line fill="none" stroke="#000000" stroke-miterlimit="10" x1="97.442" y1="315.234" x2="103.442" y2="315.234"/>
			
				<line fill="none" stroke="#000000" stroke-miterlimit="10" stroke-dasharray="12.1392,12.1392" x1="115.582" y1="315.234" x2="619.358" y2="315.234"/>
			<line fill="none" stroke="#000000" stroke-miterlimit="10" x1="625.428" y1="315.234" x2="631.428" y2="315.234"/>
		</g>
	</g>
	<g opacity="0.5">
		<g>
			<line fill="none" stroke="#000000" stroke-miterlimit="10" x1="97.442" y1="244.234" x2="103.442" y2="244.234"/>
			
				<line fill="none" stroke="#000000" stroke-miterlimit="10" stroke-dasharray="12.1392,12.1392" x1="115.582" y1="244.234" x2="619.358" y2="244.234"/>
			<line fill="none" stroke="#000000" stroke-miterlimit="10" x1="625.428" y1="244.234" x2="631.428" y2="244.234"/>
		</g>
	</g>
	<g opacity="0.5">
		<g>
			<line fill="none" stroke="#000000" stroke-miterlimit="10" x1="97.442" y1="172.234" x2="103.442" y2="172.234"/>
			
				<line fill="none" stroke="#000000" stroke-miterlimit="10" stroke-dasharray="12.1392,12.1392" x1="115.582" y1="172.234" x2="619.358" y2="172.234"/>
			<line fill="none" stroke="#000000" stroke-miterlimit="10" x1="625.428" y1="172.234" x2="631.428" y2="172.234"/>
		</g>
	</g>
	<g opacity="0.5">
		<g>
			<line fill="none" stroke="#000000" stroke-miterlimit="10" x1="97.442" y1="100.234" x2="103.442" y2="100.234"/>
			
				<line fill="none" stroke="#000000" stroke-miterlimit="10" stroke-dasharray="12.1392,12.1392" x1="115.582" y1="100.234" x2="619.358" y2="100.234"/>
			<line fill="none" stroke="#000000" stroke-miterlimit="10" x1="625.428" y1="100.234" x2="631.428" y2="100.234"/>
		</g>
	</g>
	<g opacity="0.5">
		<g>
			<line fill="none" stroke="#000000" stroke-miterlimit="10" x1="97.442" y1="63.234" x2="103.442" y2="63.234"/>
			
				<line fill="none" stroke="#000000" stroke-miterlimit="10" stroke-dasharray="12.1392,12.1392" x1="115.582" y1="63.234" x2="619.358" y2="63.234"/>
			<line fill="none" stroke="#000000" stroke-miterlimit="10" x1="625.428" y1="63.234" x2="631.428" y2="63.234"/>
		</g>
	</g>
	<g opacity="0.5">
		<g>
			<line fill="none" stroke="#000000" stroke-miterlimit="10" x1="100.109" y1="279.234" x2="106.109" y2="279.234"/>
			
				<line fill="none" stroke="#000000" stroke-miterlimit="10" stroke-dasharray="12.1392,12.1392" x1="118.249" y1="279.234" x2="622.025" y2="279.234"/>
			<line fill="none" stroke="#000000" stroke-miterlimit="10" x1="628.095" y1="279.234" x2="634.095" y2="279.234"/>
		</g>
	</g>
	<polyline fill="none" stroke="#000000" stroke-width="2" stroke-miterlimit="10" points="614.227,388.027 633.17,388.027 
		633.17,460.027 613.669,460.027 	"/>
	<polyline fill="none" stroke="#000000" stroke-width="2" stroke-miterlimit="10" points="614.227,515.027 633.17,515.027 
		633.17,532.027 613.669,532.027 	"/>
	<polyline fill="none" stroke="#000000" stroke-width="2" stroke-miterlimit="10" points="614.227,460.027 633.17,460.027 
		633.17,477.027 613.669,477.027 	"/>
	<polyline fill="none" stroke="#000000" stroke-width="2" stroke-miterlimit="10" points="193.669,543.484 193.669,559.027 
		171.669,559.027 171.669,543.027 	"/>
	<polyline fill="none" stroke="#000000" stroke-width="2" stroke-miterlimit="10" points="554.67,543.484 554.67,559.027 
		532.67,559.027 532.67,543.027 	"/>
	<polyline fill="none" stroke="#000000" stroke-width="2" stroke-miterlimit="10" points="614.227,316.027 633.17,316.027 
		633.17,388.027 613.669,388.027 	"/>
	<polyline fill="none" stroke="#000000" stroke-width="2" stroke-miterlimit="10" points="614.227,171.527 633.17,171.527 
		633.17,316.027 613.669,316.027 	"/>
	<polyline fill="none" stroke="#000000" stroke-width="2" stroke-miterlimit="10" points="614.227,100.027 633.17,100.027 
		633.17,172.027 613.669,172.027 	"/>
	<polyline fill="none" stroke="#000000" stroke-width="2" stroke-miterlimit="10" points="604.169,540.778 604.169,623.278 
		532.169,623.278 532.169,595.778 	"/>
	<polyline fill="none" stroke="#000000" stroke-width="2" stroke-miterlimit="10" points="193.502,596.563 193.502,623.278 
		121.502,623.278 121.502,542.48 	"/>
	<polyline fill="none" stroke="#000000" stroke-width="2" stroke-miterlimit="10" points="614.227,63.361 633.17,63.361 
		633.17,100.027 613.669,100.027 	"/>
	<polyline fill="none" stroke="#000000" stroke-width="2" stroke-miterlimit="10" points="614.227,279.361 633.17,279.361 
		633.17,316.027 613.669,316.027 	"/>
	<polyline fill="none" stroke="#000000" stroke-width="2" stroke-miterlimit="10" points="108.184,388.027 79.529,388.027 
		79.529,460.027 109.026,460.027 	"/>
	<polyline fill="none" stroke="#000000" stroke-width="2" stroke-miterlimit="10" points="733.003,57.527 767.003,57.527 
		767.003,533.193 732.003,533.193 	"/>
	<rect x="781.497" y="292.024" fill="none" width="157" height="37"/>
	<text transform="matrix(1 0 0 1 781.4971 310.2632)" font-family="'OpenSans'" font-size="24">6½x</text>
	<rect x="349.497" y="734.024" fill="none" width="157" height="37"/>
	<text transform="matrix(1 0 0 1 349.4971 752.2632)" font-family="'OpenSans'" font-size="24">6½x</text>
	<polyline fill="none" stroke="#000000" stroke-width="2" stroke-miterlimit="10" points="603.083,679.113 603.083,713.113 
		121.417,713.113 121.417,678.113 	"/>
	<rect x="343.163" y="646.859" fill="none" width="157" height="37"/>
	<text transform="matrix(1 0 0 1 343.1631 665.0991)" font-family="'OpenSans'" font-size="24">4½x</text>
	<rect x="661.502" y="212.037" fill="none" width="157" height="37"/>
	<text transform="matrix(1 0 0 1 661.502 230.2769)" font-family="'OpenSans'" font-size="24">2x</text>
	<rect x="660.002" y="68.044" fill="none" width="157" height="37"/>
	<text transform="matrix(1 0 0 1 660.002 86.2837)" font-family="'OpenSans'" font-size="24">½x</text>
	<rect x="51.002" y="414.527" fill="none" width="19.264" height="37"/>
	<text transform="matrix(1 0 0 1 51.002 432.7671)" font-family="'OpenSans'" font-size="24">x</text>
	<polyline fill="none" stroke="#000000" stroke-width="2" stroke-miterlimit="10" points="108.184,477.027 79.529,477.027 
		79.529,515.027 109.026,515.027 	"/>
	<rect x="20.002" y="487.527" fill="none" width="59.998" height="21"/>
	<text transform="matrix(1 0 0 1 20.002 505.7671)" font-family="'OpenSans'" font-size="24">½x</text>
	<rect x="150.002" y="635.529" fill="none" width="19.264" height="37"/>
	<text transform="matrix(1 0 0 1 150.002 653.769)" font-family="'OpenSans'" font-size="24">x</text>
	<rect x="563.002" y="637.029" fill="none" width="19.264" height="37"/>
	<text transform="matrix(1 0 0 1 563.002 655.269)" font-family="'OpenSans'" font-size="24">x</text>
	<rect x="667.668" y="457.861" fill="none" width="157" height="21.5"/>
	<text transform="matrix(1 0 0 1 667.668 476.1011)" font-family="'OpenSans'" font-size="24">¼x</text>
	<rect x="162.192" y="565.854" fill="none" width="157" height="21.5"/>
	<text transform="matrix(1 0 0 1 162.1924 584.0933)" font-family="'OpenSans'" font-size="24">½x</text>
	<rect x="667.668" y="514.528" fill="none" width="157" height="37"/>
	<text transform="matrix(1 0 0 1 667.668 532.7671)" font-family="'OpenSans'" font-size="24">¼x</text>
	
		<line opacity="0.5" fill="none" stroke="#000000" stroke-miterlimit="10" stroke-dasharray="12" x1="194.002" y1="40.544" x2="194.002" y2="559.027"/>
	
		<line opacity="0.5" fill="none" stroke="#000000" stroke-miterlimit="10" stroke-dasharray="12" x1="121.669" y1="40.544" x2="121.669" y2="569.193"/>
	
		<line opacity="0.5" fill="none" stroke="#000000" stroke-miterlimit="10" stroke-dasharray="12" x1="171.335" y1="40.544" x2="171.335" y2="559.027"/>
	
		<line opacity="0.5" fill="none" stroke="#000000" stroke-miterlimit="10" stroke-dasharray="12" x1="554.669" y1="40.544" x2="554.669" y2="558.527"/>
	
		<line opacity="0.5" fill="none" stroke="#000000" stroke-miterlimit="10" stroke-dasharray="12" x1="532.002" y1="40.544" x2="532.002" y2="558.527"/>
	
		<line opacity="0.5" fill="none" stroke="#000000" stroke-miterlimit="10" stroke-dasharray="12" x1="604.002" y1="40.544" x2="604.002" y2="569.193"/>
	<polyline fill="none" stroke="#000000" stroke-width="2" stroke-miterlimit="10" points="532.506,595.778 532.506,623.278 
		193.506,623.278 193.506,594.992 	"/>
	<g>
		<g>
			<path fill="#8DC63F" d="M237.793,350.277c13.519-6.287,23.874-17.857,30.027-31.34c1.216-2.668,0.829-5.48-1.273-7.578
				c-6.132-6.123-13.189-10.85-21.389-13.645c-0.394-0.133-0.772-0.205-1.14-0.232c-13.435-8.609-26.831-17.244-40.049-26.229
				c-18.411-12.51-36.741-25.219-56.357-35.795c-2.468-1.332-6.274-0.479-7.446,2.271c-10.559,24.754-8.547,51.967,5.282,75.025
				c12.047,20.088,32.635,36.018,55.686,40.965C213.284,356.328,226.452,355.552,237.793,350.277z"/>
		</g>
		<path fill="#FFDE17" d="M256.543,179.763c0,0-46.51-22.213-24.484-52.672c0,0,27.071-22.9,51.655,9.84
			c0,0,8.541-36.324,38.635-23.994c0,0,36.961,10.34,14.939,40.801c0,0,39.688-3.988,43.524,9.943
			c3.835,13.932,13.111,43.541-34.152,36.189c0,0,38.452,25.621,29.776,40.965c-8.676,15.338-34.031,39.297-55.786,8.75
			c0,0-4.755,42-42.372,26.582c0,0-26.71-21.592-9.331-44.684c0,0-54.409,15.107-57.614-12.627
			C208.124,191.126,224.979,183.654,256.543,179.763z"/>
		<circle fill="#F26522" cx="303.438" cy="197.222" r="23.493"/>
		<path fill="#7F3F98" d="M587.5,329.534c-10.082,5.707-22.88,2.163-28.587-7.917c-5.708-10.082-2.162-22.882,7.917-28.584
			c10.082-5.711,22.88-2.166,28.587,7.915S597.579,323.826,587.5,329.534z"/>
		<path fill="#7F3F98" d="M552.798,349.394c-9.275,5.252-21.048,1.989-26.299-7.284c-5.249-9.272-1.988-21.049,7.283-26.302
			c9.276-5.251,21.05-1.985,26.299,7.286C565.333,332.372,562.074,344.142,552.798,349.394z"/>
		<g>
			<g>
				<path fill="#EEAF21" d="M245.854,176.733c-15.722-5.959-28.232-28.432-23.427-44.739c2.955-10.026,13.986-15.081,23.758-13.276
					c9.582,1.77,17.655,9.373,20.167,18.707c0.717,2.662,4.329,3.726,6.268,1.654c5.884-6.284,11.567-12.74,17.896-18.591
					c6.496-6.003,14.59-12.274,23.796-12.632c8.977-0.349,15.729,6.919,17.689,15.059c2.366,9.82-0.318,21.027-2.144,30.703
					c-0.484,2.572,1.695,5.65,4.613,4.613c8.733-3.105,18.118-3.981,26.33,0.979c6.338,3.828,10.055,10.75,11.455,17.833
					c1.3,6.575-0.067,14.142-4.398,19.368c-5.662,6.833-14.77,7.807-23.055,6.836c-3.904-0.458-4.836,5.199-1.893,6.988
					c9.806,5.958,19.537,13.97,22.4,25.594c1.854,7.527-0.989,15.211-6.262,20.633c-5.32,5.471-12.925,7.995-20.446,7.425
					c-9.602-0.729-16.949-8.126-21.547-15.978c-2.06-3.518-6.544-1.575-6.988,1.893c-2.07,16.151-13.332,39.556-33.169,33.147
					c-21.122-6.823-15.542-33.386-12.409-49.846c0.45-2.369-1.03-4.743-3.616-4.747c-9.052-0.013-18.073,1.103-27.126,1.213
					c-8.683,0.106-19.468-0.143-26.407-6.137c-8.415-7.27-4.685-18.769,2.177-25.367c9.094-8.746,23.125-12.651,35.339-13.967
					c4.756-0.513,4.806-8.018,0-7.5c-21.556,2.322-61.584,17.998-46.984,46.826c5.038,9.947,17.454,12.571,27.514,13.398
					c11.849,0.975,23.648-0.983,35.486-0.967c-1.205-1.582-2.411-3.165-3.616-4.747c-2.219,11.663-4.337,23.446-2.596,35.316
					c1.778,12.127,10.065,20.468,21.492,24.159c24.452,7.899,38.915-21.292,41.414-40.783c-2.329,0.631-4.659,1.262-6.988,1.893
					c5.92,10.109,15.161,18.315,27.182,19.602c9.844,1.054,19.546-2.679,26.592-9.53c7.272-7.073,10.12-17.181,8.378-27.045
					c-2.447-13.854-14.706-24.078-26.035-30.962c-0.631,2.33-1.262,4.659-1.893,6.988c10.338,1.212,21.22-0.941,28.358-9.033
					c6.276-7.114,7.841-16.833,6.45-25.958c-1.395-9.149-6.808-17.429-14.398-22.619c-9.646-6.595-22.188-5.889-32.736-2.139
					c1.538,1.538,3.075,3.075,4.613,4.613c3.661-19.412,8.017-48.205-17.204-54.648c-21.416-5.471-40.059,19.448-52.569,32.812
					c2.089,0.552,4.178,1.103,6.268,1.654c-6.745-25.064-43.553-34.875-56.754-9.46c-10.718,20.633,7.046,50.421,27.03,57.995
					C248.391,185.682,250.33,178.43,245.854,176.733L245.854,176.733z"/>
			</g>
		</g>
		<g>
			<g>
				<path fill="#452F8B" d="M604.193,304.083c-0.648-13.309-9.062-22.801-22.549-23.627c-11.416-0.699-24.479,5.753-29.2,16.472
					c-5.902,13.4,3.296,30.091,17.884,31.653c15.79,1.69,31.279-14.46,30.92-29.7c-0.113-4.828-7.614-4.84-7.5,0
					c0.274,11.658-10.962,22.233-22.46,22.249c-10.598,0.016-15.947-13.935-11.422-22.354c3.924-7.301,13.128-10.875,21.03-10.844
					c9.592,0.038,15.347,6.92,15.797,16.151C596.928,308.896,604.429,308.919,604.193,304.083L604.193,304.083z"/>
			</g>
		</g>
		<g>
			<g>
				<path fill="#452F8B" d="M561.858,330.69c2.224-5.846,2.726-12.544-2.005-17.29c-4.146-4.159-10.934-4.663-16.435-4.167
					c-12.572,1.134-27.641,8.023-29.845,21.733c-2.295,14.272,10.861,21.784,23.447,21.595c14.03-0.21,27.299-9.509,27.572-24.342
					c0.09-4.839-7.411-4.83-7.5,0c-0.194,10.505-9.65,16.162-19.265,16.809c-8.046,0.541-18.468-3.085-16.886-12.923
					c1.537-9.561,12.655-13.66,21.032-15.174c3.851-0.695,8.463-0.764,11.929,1.28c3.678,2.169,1.889,7.419,0.722,10.484
					C552.903,333.224,560.156,335.164,561.858,330.69L561.858,330.69z"/>
			</g>
		</g>
		<g>
			<path fill="#7F3F98" d="M461.703,98.898c-2.631,11.281-13.908,18.295-25.188,15.664c-11.283-2.631-18.296-13.91-15.663-25.188
				c2.629-11.285,13.908-18.297,25.188-15.666C457.321,76.341,464.332,87.617,461.703,98.898z"/>
			<path fill="#7F3F98" d="M452.805,137.878c-2.422,10.379-12.795,16.83-23.176,14.41c-10.377-2.422-16.83-12.797-14.411-23.176
				c2.421-10.379,12.799-16.828,23.173-14.408C448.774,117.126,455.224,127.498,452.805,137.878z"/>
			<path fill="#7F3F98" d="M445.191,171.314c-1.893,8.123-10.012,13.17-18.137,11.273c-8.118-1.891-13.168-10.01-11.274-18.133
				c1.895-8.123,10.014-13.166,18.134-11.275C442.038,155.074,447.087,163.193,445.191,171.314z"/>
			<g>
				<g>
					<path fill="#452F8B" d="M454.402,69.483c-10.953-9.116-24.825-8.817-34.349,2.198c-7.939,9.185-11.293,24.135-4.01,34.654
						c8.163,11.792,26.837,13.522,35.709,1.839c8.699-11.458,7.883-30.39-3.174-40.049c-3.625-3.167-8.952,2.115-5.303,5.303
						c8.063,7.045,8.7,19.808,3.527,28.76c-5.363,9.279-18.972,8.036-24.734-0.289c-5.143-7.429-1.97-17.708,2.854-24.381
						c6.146-8.504,16.307-9.282,24.177-2.732C452.788,77.856,458.124,72.58,454.402,69.483L454.402,69.483z"/>
				</g>
			</g>
			<g>
				<g>
					<path fill="#452F8B" d="M445.238,118.634c-2.754-5.482-7.081-10.301-13.626-10.353c-6.044-0.048-11.232,4.786-14.658,9.252
						c-7.725,10.071-13.016,26.083-4.076,36.967c9.029,10.993,23.223,6.488,31.528-2.839c9.276-10.417,11.611-26.429,0.925-36.698
						c-3.485-3.351-8.796,1.946-5.303,5.303c7.494,7.202,5.664,17.797-0.338,25.393c-5.111,6.468-14.279,11.519-20.897,4.282
						c-6.515-7.121-1.833-18.593,2.482-25.572c2.02-3.269,4.959-6.868,8.683-8.231c4.423-1.62,7.118,2.926,8.804,6.282
						C440.933,126.743,447.402,122.944,445.238,118.634L445.238,118.634z"/>
				</g>
			</g>
			<g>
				<g>
					<path fill="#452F8B" d="M436.802,154.287c-20.035-14.335-44.208,23.029-25.144,36.855
						c20.228,14.67,38.616-20.253,28.252-36.492c-2.593-4.062-9.087-0.305-6.477,3.785c5.388,8.44-2.559,33.996-15.311,27.949
						c-14.747-6.993,1.434-35.251,14.894-25.621C436.959,163.583,440.698,157.075,436.802,154.287L436.802,154.287z"/>
				</g>
			</g>
		</g>
		<g>
			<g>
				<path fill="#B94126" d="M320.203,175.451c-9.18-12.431-24.304-17.631-37.439-7.601c-11.051,8.438-16.115,23.809-9.593,36.539
					c7.636,14.901,30.103,21.368,43.516,10.894c13.171-10.286,15.424-30.388,4.588-43.08c-1.614-1.892-3.661-3.416-5.702-4.812
					c-4.003-2.739-7.749,3.763-3.785,6.477c11.092,7.592,11.548,23.155,3.05,32.947c-9.385,10.815-26.957,6.202-34.324-4.743
					c-6.048-8.986-1.776-20.615,5.586-27.321c9.206-8.385,20.772-4.798,27.628,4.486
					C316.566,183.082,323.08,179.347,320.203,175.451L320.203,175.451z"/>
			</g>
		</g>
		<g>
			<path fill="#8DC63F" d="M489.391,216.13c0,0-23.388-25.495-9.322-40.384c0,0,22.463,20.269,18.359,36.624
				c0,0,36.182-26.902,48.436-6.442c0,0-5.811,27.978-35.938,25.242c0,0,40.084,4.202,38.324,27.689c0,0-34.424,3.412-42.624-21.538
				"/>
			<path fill="#BE1E2D" d="M453.214,203.684c-9.474,7.976-48.038,75.906-25.579,96.171c22.458,20.268,89.743-21.047,92.875-28.646
				C530.125,247.888,472.37,187.554,453.214,203.684z"/>
			<g>
				<g>
					<path fill="#89241B" d="M467.522,201.902c14.055,15.899,33.281,26.364,47.495,42.214c5.761,6.423,11.691,15.197,9.255,24.228
						c-2.066,7.662-11.578,10.838-18.253,12.903c-9.026,2.792-18.389,4.34-27.448,7.02c-8.342,2.467-15.656,6.887-23.306,10.901
						c-6.319,3.316-13.358,7.197-20.605,7.817c-7.012,0.601-9.14-5.094-9.75-11.189c-1.574-15.71,3.882-32.479,9.594-46.892
						c6.233-15.729,15.488-31.116,28.864-41.747c3.786-3.009-1.559-8.278-5.303-5.303c-18.584,14.769-29.512,38.018-36.044,60.333
						c-3.172,10.836-5.443,22.276-4.611,33.608c0.485,6.619,2.625,14.05,9.023,17.218c5.812,2.879,12.756,1.171,18.524-0.905
						c7.781-2.8,15.062-6.942,22.31-10.87c16.103-8.723,34.927-8.871,51.285-16.844c7.126-3.474,12.793-9.625,13.655-17.729
						c1.007-9.471-3.857-17.834-9.497-25.016c-13.977-17.798-35.011-28.223-49.886-45.05
						C469.616,192.968,464.332,198.293,467.522,201.902L467.522,201.902z"/>
				</g>
			</g>
			<g>
				<g>
					<path fill="#4B8A3F" d="M493.613,204.01c-7.645-7.152-5.445-17.922-3.135-26.999c-1.836,0.747-3.673,1.494-5.509,2.241
						c8.818,5.301,14.59,16.285,13.438,26.552c-0.282,2.512,2.596,4.151,4.747,3.616c16.608-4.13,31.979-8.832,49.32-7.481
						c-1.25-1.25-2.5-2.5-3.75-3.75c-0.256,13.564-18.305,18.984-26.644,27.064c-2.224,2.154-0.828,5.244,1.654,6.268
						c5.361,2.209,10.906,4.05,15.974,6.902c5.406,3.043,8.911,7.934,11.765,13.312c1.079-1.881,2.159-3.762,3.238-5.643
						c-9.604,0.907-21.743,0.475-27.16-8.876c-2.423-4.183-8.905-0.408-6.477,3.785c6.821,11.772,21.204,13.766,33.637,12.591
						c2.843-0.269,4.654-2.974,3.238-5.643c-3.328-6.272-7.537-11.553-13.526-15.441c-5.67-3.684-12.486-5.661-18.694-8.22
						c0.552,2.09,1.103,4.179,1.654,6.268c10.5-10.173,28.515-15.062,28.841-32.367c0.041-2.163-1.743-3.594-3.75-3.75
						c-17.994-1.402-34.073,3.462-51.314,7.749c1.582,1.205,3.165,2.411,4.747,3.616c1.438-12.808-6.271-26.486-17.152-33.028
						c-2.051-1.232-4.915-0.093-5.509,2.241c-2.996,11.772-4.689,25.171,5.064,34.296
						C491.838,212.613,497.152,207.321,493.613,204.01L493.613,204.01z"/>
				</g>
			</g>
		</g>
		<g>
			<g>
				<path fill="#4B8A3F" d="M140.519,246.48c-0.792,1.046-2.241,1.419-1.824,1.443c-1.235-0.07,0.471,0.149,0.848,0.26
					c1.77,0.519,3.016,1.136,4.661,1.923c5.119,2.448,10.035,5.336,14.909,8.232c13.625,8.1,26.863,16.861,39.998,25.727
					c12.386,8.36,24.666,16.89,36.731,25.706c3.492,2.552,6.991,5.109,10.342,7.847c0.757,0.618,1.528,1.243,2.197,1.959
					c-1.022-1.095-0.467-2.679-0.952-0.808c-2.3,8.875-9.284,17.512-16.12,23.664c-11.865,10.679-27.597,13.879-42.976,10.341
					c-29.708-6.835-53.572-32.567-58.357-62.671C127.532,274.72,132.461,259.448,140.519,246.48c2.561-4.12-3.93-7.883-6.476-3.785
					c-11.624,18.705-15.427,40.311-8.338,61.388c4.656,13.845,13.397,26.322,23.794,36.478
					c10.632,10.384,25.766,17.386,40.238,20.164c15.577,2.989,31.339-0.691,43.826-10.462c8.759-6.854,15.753-16.081,20.008-26.354
					c1.014-2.447,2.421-6.012,0.948-8.547c-1.221-2.101-3.743-3.642-5.601-5.088c-22.889-17.811-47.272-34.012-71.722-49.576
					c-8.876-5.65-17.841-11.27-27.21-16.075c-4.224-2.167-12.089-7.014-15.943-1.927
					C131.121,246.552,137.639,250.283,140.519,246.48z"/>
			</g>
		</g>
	</g>
	<g opacity="0.5">
		<g>
			<line fill="none" stroke="#000000" stroke-miterlimit="10" x1="97.442" y1="515.234" x2="103.442" y2="515.234"/>
			
				<line fill="none" stroke="#000000" stroke-miterlimit="10" stroke-dasharray="12.1392,12.1392" x1="115.582" y1="515.234" x2="619.358" y2="515.234"/>
			<line fill="none" stroke="#000000" stroke-miterlimit="10" x1="625.428" y1="515.234" x2="631.428" y2="515.234"/>
		</g>
	</g>
	<g opacity="0.5">
		<g>
			<line fill="none" stroke="#000000" stroke-miterlimit="10" x1="97.284" y1="532.234" x2="103.284" y2="532.234"/>
			
				<line fill="none" stroke="#000000" stroke-miterlimit="10" stroke-dasharray="12.1392,12.1392" x1="115.423" y1="532.234" x2="619.2" y2="532.234"/>
			<line fill="none" stroke="#000000" stroke-miterlimit="10" x1="625.27" y1="532.234" x2="631.27" y2="532.234"/>
		</g>
	</g>
	<g opacity="0.5">
		<g>
			<line fill="none" stroke="#000000" stroke-miterlimit="10" x1="97.919" y1="460.234" x2="103.919" y2="460.234"/>
			
				<line fill="none" stroke="#000000" stroke-miterlimit="10" stroke-dasharray="12.1392,12.1392" x1="116.059" y1="460.234" x2="619.836" y2="460.234"/>
			<line fill="none" stroke="#000000" stroke-miterlimit="10" x1="625.905" y1="460.234" x2="631.905" y2="460.234"/>
		</g>
	</g>
	<g opacity="0.5">
		<g>
			<line fill="none" stroke="#000000" stroke-miterlimit="10" x1="97.919" y1="388.234" x2="103.919" y2="388.234"/>
			
				<line fill="none" stroke="#000000" stroke-miterlimit="10" stroke-dasharray="12.1392,12.1392" x1="116.059" y1="388.234" x2="619.836" y2="388.234"/>
			<line fill="none" stroke="#000000" stroke-miterlimit="10" x1="625.905" y1="388.234" x2="631.905" y2="388.234"/>
		</g>
	</g>
	<g opacity="0.5">
		<g>
			<line fill="none" stroke="#000000" stroke-miterlimit="10" x1="97.761" y1="477.234" x2="103.761" y2="477.234"/>
			
				<line fill="none" stroke="#000000" stroke-miterlimit="10" stroke-dasharray="12.1392,12.1392" x1="115.9" y1="477.234" x2="619.678" y2="477.234"/>
			<line fill="none" stroke="#000000" stroke-miterlimit="10" x1="625.747" y1="477.234" x2="631.747" y2="477.234"/>
		</g>
	</g>
	<polygon fill="#FFFFFF" points="169.5,584.277 170.75,577.527 176.5,568.277 181,573.777 181.25,585.527 	"/>
	<rect x="172" y="573.777" fill="none" width="9.5" height="12.25"/>
	<text transform="matrix(1 0 0 1 172 584.4165)" font-family="'OpenSans-Semibold'" font-size="14">3</text>
	<g>
		<rect x="527.525" y="564.187" fill="none" width="157" height="21.5"/>
		<text transform="matrix(1 0 0 1 527.5254 582.4272)" font-family="'OpenSans'" font-size="24">½x</text>
		<polygon fill="#FFFFFF" points="534.833,582.61 536.083,575.86 541.833,566.61 546.333,572.11 546.583,583.86 		"/>
		<rect x="537.333" y="572.11" fill="none" width="9.5" height="12.25"/>
		<text transform="matrix(1 0 0 1 537.333 582.7495)" font-family="'OpenSans-Semibold'" font-size="14">3</text>
	</g>
</g>
</svg>
