<?xml version="1.0" encoding="utf-8"?>
<!-- Generator: Adobe Illustrator 16.0.0, SVG Export Plug-In . SVG Version: 6.00 Build 0)  -->
<!DOCTYPE svg PUBLIC "-//W3C//DTD SVG 1.1//EN" "http://www.w3.org/Graphics/SVG/1.1/DTD/svg11.dtd">
<svg version="1.1" id="Layer_1" xmlns="http://www.w3.org/2000/svg" xmlns:xlink="http://www.w3.org/1999/xlink" x="0px" y="0px"
	 width="555.994px" height="555.994px" viewBox="-45 -51 555.994 555.994" enable-background="new -45 -51 555.994 555.994"
	 xml:space="preserve">
<g id="Layer_2">
</g>
<path fill="#FFFFFF" d="M4.238,177.392c0,0-30.237,60.598,23.761,101.094c0,0,51.016,36.285,73.505-1.355L4.238,177.392z"/>
<polygon fill="#FFFFFF" points="98.495,53.497 129.993,53.497 143.778,70.127 167.491,44.498 190.08,35.66 202.195,57.611 
	207.285,90.309 246.986,116.494 231.988,141.993 207.989,141.993 215.488,203.489 195.99,197.49 180.773,186.392 173.491,213.989 
	152.492,222.988 132.993,213.989 131.493,189.99 134.685,167.801 95.581,171.521 68.067,158.122 71.496,140.493 90.995,125.493 
	114.054,118.662 95.495,102.995 86.495,77.496 "/>
<polygon fill="#FFFFFF" points="315.557,2.949 300.225,2.949 284.891,22.282 293.557,41.616 284.225,74.949 288.891,92.949 
	277.557,109.616 285.557,125.616 302.225,119.616 306.891,92.949 "/>
<polygon fill="#FFFFFF" points="359.586,150.827 355.164,113.949 367.557,122.282 370.891,143.616 418.918,132.886 417.557,144.282 
	398.223,161.616 421.557,180.282 395.557,186.282 398.889,205.616 372.891,222.282 300.225,247.615 291.557,234.281 "/>
<polygon fill="#FFFFFF" points="425.557,246.949 428.889,226.949 451.557,219.616 468.223,228.949 454.223,256.281 430.275,257.791 
	400.223,280.949 386.889,271.615 392.223,256.281 "/>
<g>
	<path fill="#BE1E2D" d="M84.933,445.908c-1.491,0-2.844-0.592-4.059-1.768h-0.236c-0.902,0-2,0.061-3.295,0.178
		c-1.725,0.156-2.805,0.234-3.234,0.234c-2.668,0-4.924-0.605-6.766-1.822c-2.158-1.412-3.236-3.373-3.236-5.885
		c0-2.746,1.567-4.744,4.707-6.002l5.941-1.174c1.098-0.197,3.039-0.59,5.824-1.18c0.078-0.234,0.117-0.41,0.117-0.527
		c0-3.373-1.156-5.061-3.471-5.061c-1.256,0-2.941,0.883-5.06,2.646l-4.472,4l-1.234-0.469c-0.706-0.746-1.178-1.689-1.413-2.824
		c0.667-1.885,2.274-3.697,4.825-5.441c2.549-1.746,4.824-2.619,6.824-2.619c0.275,0,1.608,0.256,4,0.766
		c3.414,0.746,5.657,1.764,6.737,3.059c1.077,1.295,1.618,3.668,1.618,7.117c0,0.707-0.08,2.414-0.236,5.121
		c-0.117,2.039-0.176,3.727-0.176,5.061c0-0.158,0.117,0.998,0.354,3.469c0.038,0.393,0.059,0.729,0.059,1.004
		c0,1.41-1.021,2.117-3.061,2.117H84.933L84.933,445.908z M79.755,434.434c-1.137,0-2.646,0.258-4.529,0.768
		c-2.117,0.549-3.492,1.137-4.118,1.766l-0.411,0.41c-0.471,0.473-0.707,0.785-0.707,0.943c0,0.9,1.686,1.352,5.06,1.352
		c0.667,0,1.608-0.117,2.824-0.354c1.373-0.234,2.216-0.49,2.53-0.766c0.312-0.271,0.471-1.039,0.471-2.293
		C80.874,435.043,80.501,434.434,79.755,434.434z"/>
	<path fill="#BE1E2D" d="M103.024,420.256c2.426-1.516,4.057-2.273,4.891-2.273c3.071,0,4.607,1.1,4.607,3.297l-0.171,1.309
		l-1.251,0.738c-0.189,0-0.635-0.131-1.338-0.396c-0.701-0.266-1.185-0.396-1.449-0.396c-1.783,0-3.262,2.16-4.437,6.482
		c-0.909,3.336-1.364,6.312-1.364,8.93c0,0.682,0.057,1.555,0.17,2.615c0.152,1.441,0.229,2.312,0.229,2.615
		c0,1.289-0.816,1.936-2.445,1.936c-4.096,0-6.143-0.973-6.143-2.912c0-0.459,0.075-1.133,0.229-2.029
		c0.15-0.895,0.227-1.57,0.227-2.025v-4.971c0-6.242-0.398-10.773-1.195-13.592c0.721-1.066,2.787-1.6,6.199-1.6
		C101.868,417.98,102.948,418.74,103.024,420.256z"/>
	<path fill="#BE1E2D" d="M124.179,420.256c2.428-1.516,4.059-2.273,4.892-2.273c3.071,0,4.607,1.1,4.607,3.297l-0.171,1.309
		l-1.251,0.738c-0.19,0-0.636-0.131-1.337-0.396c-0.702-0.266-1.186-0.396-1.449-0.396c-1.783,0-3.262,2.16-4.437,6.482
		c-0.911,3.336-1.364,6.312-1.364,8.93c0,0.682,0.057,1.555,0.17,2.615c0.151,1.441,0.228,2.312,0.228,2.615
		c0,1.289-0.815,1.936-2.446,1.936c-4.094,0-6.143-0.973-6.143-2.912c0-0.459,0.076-1.133,0.229-2.029
		c0.151-0.895,0.229-1.57,0.229-2.025v-4.971c0-6.242-0.399-10.773-1.195-13.592c0.72-1.066,2.787-1.6,6.199-1.6
		C123.022,417.98,124.104,418.74,124.179,420.256z"/>
	<path fill="#BE1E2D" d="M155.661,445.908c-1.492,0-2.845-0.592-4.061-1.768h-0.234c-0.903,0-2.001,0.061-3.295,0.178
		c-1.727,0.156-2.805,0.234-3.236,0.234c-2.668,0-4.922-0.605-6.766-1.822c-2.158-1.412-3.236-3.373-3.236-5.885
		c0-2.746,1.568-4.744,4.707-6.002l5.941-1.174c1.098-0.197,3.041-0.59,5.825-1.18c0.078-0.234,0.118-0.41,0.118-0.527
		c0-3.373-1.157-5.061-3.471-5.061c-1.256,0-2.941,0.883-5.061,2.646l-4.471,4l-1.236-0.469c-0.705-0.746-1.176-1.689-1.412-2.824
		c0.666-1.885,2.274-3.697,4.825-5.441c2.55-1.746,4.824-2.619,6.825-2.619c0.273,0,1.607,0.256,4,0.766
		c3.412,0.746,5.656,1.764,6.736,3.059c1.078,1.295,1.618,3.668,1.618,7.117c0,0.707-0.08,2.414-0.235,5.121
		c-0.118,2.039-0.177,3.727-0.177,5.061c0-0.158,0.118,0.998,0.353,3.469c0.039,0.393,0.06,0.729,0.06,1.004
		c0,1.41-1.021,2.117-3.06,2.117H155.661L155.661,445.908z M150.482,434.434c-1.138,0-2.646,0.258-4.528,0.768
		c-2.118,0.549-3.492,1.137-4.119,1.766l-0.412,0.41c-0.471,0.473-0.707,0.785-0.707,0.943c0,0.9,1.688,1.352,5.061,1.352
		c0.666,0,1.607-0.117,2.824-0.354c1.373-0.234,2.216-0.49,2.529-0.766c0.314-0.271,0.471-1.039,0.471-2.293
		C151.601,435.043,151.228,434.434,150.482,434.434z"/>
	<path fill="#BE1E2D" d="M190.549,443.199c-0.04,1.059-1.492,1.59-4.354,1.59c-0.785,0-1.727-0.139-2.824-0.412
		c-1.373-0.352-2.06-0.842-2.06-1.469c0-1.062,0.104-2.295,0.313-3.707c0.334-2.158,0.502-3.375,0.502-3.648
		c0.084-0.627,0.127-1.273,0.127-1.941v-2c0-6.197-1.244-9.295-3.73-9.295c-3.672,0-5.508,5.014-5.508,15.041
		c0,1.756,0.158,3.729,0.471,5.912l-0.646,1.17c-1.021,0.232-1.846,0.352-2.471,0.352h-0.941c-3.178,0-4.766-0.742-4.766-2.227
		c0-1.211,0.057-2.441,0.176-3.689c0.354-3.709,0.529-5.76,0.529-6.152v-1.639c0-4.844-0.314-8.709-0.941-11.6
		c0.312-0.898,1.097-1.426,2.348-1.58h3.17c0.627,0,2.055,0.412,4.286,1.232c-0.196,0,0.998-0.115,3.581-0.35
		c0.431-0.039,0.762-0.062,0.997-0.062c4.344,0,7.425,0.885,9.245,2.646c1.821,1.768,2.729,4.807,2.729,9.121v2.59
		c0,0.115,0,0.842,0,2.176L190.549,443.199z"/>
	<path fill="#BE1E2D" d="M220.022,429.373c0,1.846,0.099,4.277,0.294,7.297l0.472,7.295c0.038,0.627,0.059,1.922,0.059,3.883
		c0,2.863-1.353,5.08-4.06,6.648c-2.196,1.295-4.844,1.941-7.941,1.941c-8.119,0-12.885-1.688-14.297-5.059
		c0.393-0.629,1.02-1.158,1.883-1.59c0.861-0.432,1.666-0.648,2.412-0.648c0.195,0,1.441,0.641,3.735,1.914s3.971,1.912,5.03,1.912
		c1.922,0,3.275-0.527,4.06-1.588c0.626-0.906,0.941-2.354,0.941-4.354c0-1.885-1.021-2.824-3.06-2.824
		c-0.705,0-1.922,0.078-3.646,0.234c-0.434,0.039-0.766,0.059-1.002,0.059c-6.627,0-9.941-3.646-9.941-10.943
		c0-3.84,0.783-7.332,2.353-10.471c1.96-3.92,4.667-5.883,8.118-5.883c0.824,0,1.707,0.137,2.648,0.41
		c2.274,0.67,3.549,1.002,3.824,1.002c0.117,0,0.578-0.188,1.382-0.559c0.804-0.375,1.402-0.561,1.795-0.561
		c1.726,0,3.726,0.312,6.001,0.938l0.354,1.062C220.494,422.197,220.022,425.492,220.022,429.373z M211.904,425.08
		c-0.117-2.156-0.824-3.236-2.117-3.236c-1.845,0-3.413,1.668-4.708,5c-1.138,2.904-1.705,5.514-1.705,7.826
		c0,4.471,1.196,6.707,3.589,6.707c1.566,0,2.804-0.939,3.705-2.824c0.745-1.488,1.119-3.119,1.119-4.883v-0.236
		c0.117-2.783,0.176-4.922,0.176-6.412v-0.764C211.963,426.102,211.943,425.709,211.904,425.08z"/>
	<path fill="#BE1E2D" d="M244.791,445.084c-2.668,0.744-4.668,1.117-6,1.117c-9.143,0-13.711-3.852-13.711-11.555
		c0-2.633,0.53-5.465,1.59-8.49c1.176-3.42,2.666-5.797,4.471-7.133c0.98-0.746,2.627-1.121,4.941-1.121
		c3.568,0,6.609,0.826,9.119,2.477c2.943,1.889,4.414,4.525,4.414,7.906c0,3.146-0.611,5.703-1.826,7.67
		c-1.451,2.398-3.646,3.6-6.588,3.6c-0.902,0-2.246-0.195-4.029-0.59c-1.785-0.393-3.131-0.59-4.031-0.59
		c-0.117,0-0.176,0.102-0.176,0.295c0,2.354,1.783,3.531,5.354,3.531c1.021,0,2.512-0.275,4.473-0.824
		c1.961-0.547,3.451-0.824,4.473-0.824c1.568,0,2.354,0.531,2.354,1.59S248.006,444.182,244.791,445.084z M239.023,421.904
		c-1.293,0-2.588,1.396-3.883,4.195c-1.1,2.4-1.647,4.432-1.647,6.084c0,1.023,0.471,1.852,1.413,2.482
		c0.824,0.551,1.764,0.826,2.824,0.826c1.371,0,2.51-1.143,3.412-3.426c0.744-1.893,1.117-3.803,1.117-5.732
		c0-1.143-0.254-2.127-0.766-2.955C240.908,422.396,240.082,421.904,239.023,421.904z"/>
	<path fill="#BE1E2D" d="M293.445,444.789c-2.434,0-4.59-0.295-6.473-0.883l-0.941-1.295c0.666-3.139,1-7.156,1-12.061
		c0-5.139-0.863-7.707-2.588-7.707c-2.275,0-3.883,2.203-4.824,6.611c-0.588,2.771-0.883,5.775-0.883,9.014
		c0,1.248,0.078,2.77,0.234,4.562c-0.586,1.17-2.352,1.758-5.293,1.758c-1.375,0-2.453-0.371-3.236-1.111l-0.354-0.525
		c-0.117-0.234-0.176-0.471-0.176-0.703c0-0.781,0.096-1.658,0.293-2.635c0.473-2.381,0.707-3.82,0.707-4.328v-2.635
		c0-6.553-1.197-9.83-3.592-9.83c-2,0-3.41,2.148-4.232,6.445c-0.473,2.486-0.707,5.324-0.707,8.52c0,1.854,0.078,3.688,0.234,5.5
		l-0.766,1.006c-0.627,0-1.559,0.049-2.795,0.148c-1.234,0.1-2.168,0.148-2.795,0.148c-1.646,0-2.471-0.574-2.471-1.715
		c0-1.771,0.078-3.939,0.236-6.5c0.352-5.752,0.529-9.375,0.529-10.871c0-2.207-0.314-4.139-0.941-5.793
		c0.744-1.221,2.096-1.832,4.059-1.832c2.51,0,4.334,0.393,5.473,1.176l0.293,0.707c2.98-0.549,4.863-0.824,5.648-0.824
		c1.49,0,2.883,0.256,4.178,0.766c0.156,0.08,0.51,0.234,1.059,0.471l2.707,1.178l4.354-1.766c1.646-0.666,3.395-0.998,5.238-0.998
		c3.215,0,5.52,0.715,6.91,2.145c1.393,1.434,2.09,3.756,2.09,6.973c0,0.354-0.021,1.373-0.061,3.059v2
		c0,0.471-0.059,0.844-0.176,1.119c0,0.273,0,0.352,0,0.234c0,0.273,0.037,0.861,0.117,1.764l0.412,4.824
		c0.037,0.473,0.059,1.061,0.059,1.768c0,0.586-0.266,1.086-0.795,1.5C294.652,444.582,294.07,444.789,293.445,444.789z"/>
	<path fill="#BE1E2D" d="M319.449,445.084c-2.668,0.744-4.668,1.117-6,1.117c-9.143,0-13.711-3.852-13.711-11.555
		c0-2.633,0.531-5.465,1.59-8.49c1.178-3.42,2.666-5.797,4.471-7.133c0.98-0.746,2.627-1.121,4.941-1.121
		c3.568,0,6.609,0.826,9.119,2.477c2.943,1.889,4.414,4.525,4.414,7.906c0,3.146-0.609,5.703-1.826,7.67
		c-1.449,2.398-3.646,3.6-6.588,3.6c-0.902,0-2.246-0.195-4.029-0.59c-1.785-0.393-3.129-0.59-4.031-0.59
		c-0.117,0-0.176,0.102-0.176,0.295c0,2.354,1.783,3.531,5.354,3.531c1.021,0,2.512-0.275,4.473-0.824
		c1.961-0.547,3.451-0.824,4.473-0.824c1.568,0,2.354,0.531,2.354,1.59S322.664,444.182,319.449,445.084z M313.682,421.904
		c-1.293,0-2.588,1.396-3.883,4.195c-1.098,2.4-1.645,4.432-1.645,6.084c0,1.023,0.471,1.852,1.412,2.482
		c0.822,0.551,1.764,0.826,2.822,0.826c1.371,0,2.512-1.143,3.412-3.426c0.744-1.893,1.117-3.803,1.117-5.732
		c0-1.143-0.254-2.127-0.764-2.955C315.566,422.396,314.74,421.904,313.682,421.904z"/>
	<path fill="#BE1E2D" d="M354.455,443.199c-0.041,1.059-1.492,1.59-4.355,1.59c-0.783,0-1.727-0.139-2.822-0.412
		c-1.371-0.352-2.061-0.842-2.061-1.469c0-1.062,0.105-2.295,0.314-3.707c0.334-2.158,0.502-3.375,0.502-3.648
		c0.082-0.627,0.125-1.273,0.125-1.941v-2c0-6.197-1.242-9.295-3.73-9.295c-3.67,0-5.506,5.014-5.506,15.041
		c0,1.756,0.156,3.729,0.471,5.912l-0.646,1.17c-1.021,0.232-1.844,0.352-2.469,0.352h-0.941c-3.178,0-4.766-0.742-4.766-2.227
		c0-1.211,0.059-2.441,0.176-3.689c0.354-3.709,0.529-5.76,0.529-6.152v-1.639c0-4.844-0.314-8.709-0.941-11.6
		c0.311-0.898,1.096-1.426,2.348-1.58h3.17c0.627,0,2.055,0.412,4.285,1.232c-0.195,0,0.998-0.115,3.582-0.35
		c0.432-0.039,0.764-0.062,0.998-0.062c4.342,0,7.424,0.885,9.244,2.646c1.82,1.768,2.729,4.807,2.729,9.121v2.59
		c0,0.115,0,0.842,0,2.176L354.455,443.199z"/>
	<path fill="#BE1E2D" d="M375.895,422.963c-1.531,0.273-3.027,0.51-4.482,0.705c-0.324,0.314-0.486,1.688-0.486,4.119
		c0,3.293,0.1,6.373,0.295,9.236l0.119,6.471c0.037,1.02-1.199,1.531-3.715,1.531c-1.471,0-2.98-0.434-4.525-1.295
		c-0.193-0.588-0.291-1.529-0.291-2.826c0,0.354,0-0.02,0-1.115v-4.648c0-0.273,0-0.768,0-1.471l0.236-10.119l-0.236-0.176
		l-2.352,0.115c-1.334,0.082-2.453-0.41-3.355-1.471c0.271-1.098,0.895-1.844,1.863-2.234l2.562-0.707
		c0.854-0.234,1.279-0.744,1.279-1.529c0,0.551-0.154-1.588-0.471-6.412c0.039-0.666,0.062-1.215,0.062-1.646
		c0-1.961,1.486-2.941,4.469-2.941h0.883c2.785,0,4.176,0.746,4.176,2.234c0,0.748-0.057,1.354-0.176,1.826l-0.41,5.115
		c0,0.98,0,1.609,0,1.885c0,0.863,0.725,1.293,2.176,1.293c1.686,0,2.844,0.963,3.469,2.883L375.895,422.963z"/>
	<path fill="#BE1E2D" d="M394.986,445.143c-0.514,0-1.258-0.051-2.236-0.146c-0.98-0.098-1.725-0.146-2.234-0.146
		c-2.434,0-4.746-0.178-6.943-0.529c-3.686-0.588-5.527-1.607-5.527-3.061c0-0.941,0.295-1.744,0.883-2.412
		c0.588-0.666,1.332-0.998,2.236-0.998c3.447,2.273,6.152,3.41,8.113,3.41c0.553,0,1.275-0.156,2.182-0.471
		c1.096-0.352,1.646-0.725,1.646-1.117c0-0.471-1.531-1.236-4.59-2.295c-1.217-0.432-3.061-1.059-5.531-1.883
		c-2.625-1.529-3.938-3.766-3.938-6.707c0-2.783,0.566-5.314,1.703-7.59c1.412-2.861,3.41-4.293,6-4.293
		c0.824,0,2,0.156,3.529,0.469l3.412,0.707c2.746,0.551,4.617,1.412,5.617,2.59c1,1.176,1.502,3.135,1.502,5.883
		c0,1.688-0.236,2.902-0.707,3.646c-0.588,0.941-1.668,1.412-3.234,1.412c-2.787,0-4.178-1.939-4.178-5.824v-1.412
		c0-2.197-0.391-3.293-1.176-3.293c-0.943,0-1.824,0.961-2.648,2.881c-0.705,1.688-1.061,3.08-1.061,4.178
		c0,2.117,1.219,3.729,3.652,4.824c1.135,0.51,3.389,1.549,6.762,3.117c2.434,1.139,3.648,2.453,3.648,3.943
		c0,1.293-0.844,2.488-2.529,3.59C397.809,444.633,396.359,445.143,394.986,445.143z"/>
</g>
<g>
	<path fill="#BE1E2D" d="M421.479,359.592c-2.375-0.521-2.127,7.303-10.473,18.207c-2.949,2.654-7.285,5.402-12.766,5.607
		c-7.025,0.258-11.709-4.945-14.314-9.123c-4.762-7.648-6.328-14.471-6.328-14.471s13.184-2.6,19.602-9.367
		c8.715-9.189,9.633-25.637-5.941-26.75c-21.537-1.539-34.299,19.887-34.299,35.424c-0.146-0.021-0.725,8.293,3.48,16.688
		c1.32,2.959,4.053,6.295,4.811,7.252c0.76,0.957,5.545,5.713,8.363,7.332c3.334,1.916,7.082,2.666,9.5,3.25
		c7.832,1,15.629,0.174,22.586-3.617c3.01-1.641,9.473-7.484,13.27-14.936C422.027,369.088,425.99,360.582,421.479,359.592z
		 M398.664,331.209c2.479,2.189,0.494,11.867-4.76,16.287c-7.633,6.42-16.691,6.869-16.824,6.941
		C377.199,350.312,387.676,321.52,398.664,331.209z"/>
	<path fill="#BE1E2D" d="M361.51,375.078c-3.5,4.062-8.688,8.312-13.188,8.688c-4.291,0.357-7.941-5.951-9.328-8.85
		c-5.08-10.611-6.254-24.314-5.773-35.746c0.117-2.762,0.459-3.143,0.459-3.143s10.676-9.553,17.416-20.387
		c7.697-12.373,21.91-47.436-0.023-57.584c-22.672-10.488-31.197,29.648-35.193,44.559c-1.219,4.594-4.764,19.566-4.619,36.805
		c-2.521,1.938-5.041,3.797-7.475,5.436c-3.646-21.676-40.689-22.904-47.451-4.197c1.572-4.35,10.189-21.451,12.152-25.895
		c4.289-9.74,8.439-20.338,9.982-30.938c1.502-10.297,1.652-24.322-5.58-28.375c-8.295-4.641-17.377-0.865-22.02,4.934
		c-9.09,11.318-16.068,30.828-17.561,49.35c-2.191,27.17,3.946,50.604,3.946,50.604s-8.657,19.857-13.261,19.281
		c-6.533-0.818-3.829-26.385-3.273-30.779c0.539-4.275,1.767-11.473,1.389-16.656c-0.444-6.1-19.127,7.727-19.237,13.539
		c-0.11,5.811,1.125,17.748-5.981,29.229c-4.001,6.461-7.962,4.01-10.867-1.557c-3.621-10.285-4.547-23.609-4.015-33.582
		c0.271-5.273,1.124-9.037,1.124-9.037s7.256-8.781,10.365-13.76c7.727-12.354,28.516-49.494,6.36-58.316
		c-23.208-9.24-31.199,29.65-35.194,44.561c-0.806,3.031-2.62,10.615-3.724,20.363c-18.022-5.188-40.26,5.328-45.238,30.637
		c-1.772,9.014,0.75,18.514,1.994,21.633c-1.201,1.395-5.577,6.248-11.354,7.248c-5.16,0.893-10.869-3.055-15.076-8.422
		c-5.582-7.121-6.357-14.531-6.357-14.531s13.241-2.609,19.685-9.406c8.753-9.23,9.673-25.746-5.967-26.863
		c-19.686-1.408-32.067,16.285-34.136,31.242c-3.916-0.729-7.151-1.719-10.105-4.24c-4.9-4.182-8.348-10.543-7.968-17.248
		c0.329-5.83,4.395-15.021,10.362-17.455c6.191-2.523,11.709,0.539,11.616-0.996c-0.308-5.006-10.329-4.801-14.834-1.934
		c-6.302,4.01-9.968,9.516-11.042,16.973c-1.934,13.43,3.973,23.646,17.139,28.137c1.75,0.596,3.316,1.137,4.447,1.533
		c-0.165,2.014-0.162,9.779,4.215,18.088c2.017,3.828,5.105,9.271,13.5,13.555c7,3.57,12.485,3.664,20.888,1.143
		c6.487-1.945,14.696-9.607,16.987-11.654l0,0c11.26,22.301,36,12.332,44.854-7.506c1.952,7.201,4.871,13.609,9.558,17.326
		c1.062,1.094,2.236,1.926,3.531,2.355c0.725,0.242,1.438,0.395,2.143,0.498c0.096,0.025,0.178,0.068,0.273,0.092
		c0.686,0.16,1.422,0.145,2.18,0c8.165-0.502,14.843-9.334,18.869-16.061c0,0,1.684,13.404,7.991,15.496
		c4.554,1.498,7.122,1.123,10.925-0.236c9.805-3.508,17.166-21.295,20.544-26.938c4.02,5.584,1.975,4.861,5.945,6.188
		c1.254,0.418,3.16-0.125,3.25-1.205c0.09-1.076-0.15-2.682-0.598-4.299c-0.096-1.666,0.043-6.355,3.082-15.195
		c2.68-5.76,6.525-10.832,11.969-14.436c12.914-8.557,23.846,7.275,19.889,17.832c0,0-8.295,3.77-12.631,6.596
		c-8.117,5.297-17.508,14.494-12.061,23.871c4.428,7.617,19.574,11.305,27.287,6.453c10.943-6.889,17.441-15.559,17.443-40.395
		c2.504-1.486,5-3.082,7.422-4.734c0.133,1.812,0.295,3.637,0.529,5.467c2.705,21.137,8.855,48.787,35.305,40.674
		c5.389-1.652,13.248-8.541,17.738-13.574C363.947,377.967,362.406,376.65,361.51,375.078z M355.072,272.027
		c2.545,1.479,2.078,15.896-3.014,27.48c-8.188,18.619-13.725,25.283-18.059,28.174C333.68,313.555,350.414,269.324,355.072,272.027
		z M203.861,272.672c4.658,2.705-13.387,40.043-19.22,46.605C184.642,308.434,199.203,269.967,203.861,272.672z M106.063,331.461
		c2.492,2.199,0.497,11.918-4.779,16.355c-7.664,6.449-16.762,6.898-16.896,6.971C84.507,350.646,95.03,321.729,106.063,331.461z
		 M144.1,377.127c-7.771-2.432-8.592-11.605-7.384-22.473c0.963-8.668,6.205-15.879,8.672-19.477
		c6.371-9.293,14.225-6.443,14.86-6.08c0.009,0.586,0.026,1.205,0.054,1.852c-0.424,6.844-0.391,14.346,0.578,21.922
		c0.522,4.078,1.111,8.533,1.93,12.957C158.334,371.473,148.749,378.578,144.1,377.127z M259.248,293.568
		c0.305-0.936,11.303-31.799,13.566-25.871c3.539,9.324-2.096,24.17-5.078,33.158c-2.393,7.262-13.25,30.814-13.688,31.045
		C253.561,318.545,255.084,306.283,259.248,293.568z M266.246,384.051c-5.398-1.133-3.842-8.209,1.908-13.533
		c5.178-4.799,14.693-9.098,15.191-8.951C281.68,367.787,276.057,386.104,266.246,384.051z"/>
	<path fill="#BE1E2D" d="M204.063,314.982c-0.571,6.889,6.599,10.701,12.625,7.385c5.957-3.277,7.04-8.73,7.759-14.932
		c-0.179,1.549-0.24-0.885-0.057-0.25C221.6,293.244,204.835,305.686,204.063,314.982z"/>
</g>
<g>
	<path fill="#8DC63F" d="M107.987,284.975c13.52-6.287,23.875-17.857,30.027-31.342c1.217-2.668,0.83-5.479-1.273-7.576
		c-6.131-6.123-13.189-10.852-21.389-13.646c-0.393-0.133-0.771-0.205-1.139-0.23c-13.436-8.61-26.832-17.245-40.049-26.229
		c-18.412-12.51-36.742-25.219-56.357-35.795c-2.469-1.332-6.275-0.479-7.447,2.271c-10.559,24.754-8.547,51.967,5.283,75.025
		c12.047,20.088,32.635,36.018,55.686,40.965C83.479,291.023,96.647,290.248,107.987,284.975z"/>
</g>
<path fill="#FFDE17" d="M126.737,114.46c0,0-46.51-22.213-24.484-52.672c0,0,27.072-22.9,51.656,9.84
	c0,0,8.541-36.324,38.634-23.994c0,0,36.961,10.34,14.939,40.801c0,0,39.69-3.988,43.526,9.943
	c3.834,13.932,13.111,43.541-34.153,36.189c0,0,38.452,25.621,29.776,40.965c-8.676,15.338-34.032,39.297-55.786,8.75
	c0,0-4.756,42-42.372,26.582c0,0-26.711-21.592-9.332-44.684c0,0-54.408,15.107-57.613-12.627
	C78.319,125.823,95.175,118.351,126.737,114.46z"/>
<circle fill="#F26522" cx="173.633" cy="131.919" r="23.493"/>
<path fill="#7F3F98" d="M457.693,264.23c-10.082,5.707-22.881,2.162-28.586-7.918c-5.711-10.082-2.162-22.881,7.914-28.584
	c10.082-5.71,22.883-2.166,28.59,7.916C471.318,245.725,467.773,258.521,457.693,264.23z"/>
<path fill="#7F3F98" d="M422.992,284.09c-9.275,5.252-21.049,1.99-26.299-7.283c-5.25-9.271-1.988-21.049,7.281-26.303
	c9.275-5.25,21.051-1.984,26.301,7.287C435.527,267.068,432.268,278.838,422.992,284.09z"/>
<g>
	<path fill="#EEAF21" d="M116.048,111.43c-15.721-5.959-28.231-28.432-23.426-44.739c2.954-10.026,13.985-15.081,23.758-13.276
		c9.582,1.77,17.654,9.373,20.166,18.707c0.717,2.662,4.33,3.726,6.268,1.654c5.885-6.284,11.568-12.74,17.896-18.591
		c6.496-6.003,14.591-12.274,23.796-12.632c8.977-0.349,15.729,6.919,17.689,15.059c2.367,9.82-0.318,21.027-2.143,30.703
		c-0.484,2.572,1.695,5.65,4.613,4.613c8.732-3.104,18.117-3.98,26.33,0.979c6.339,3.828,10.056,10.75,11.456,17.833
		c1.299,6.575-0.068,14.142-4.398,19.368c-5.663,6.833-14.771,7.807-23.056,6.836c-3.904-0.458-4.836,5.199-1.893,6.988
		c9.805,5.958,19.537,13.97,22.4,25.594c1.854,7.527-0.99,15.211-6.262,20.633c-5.32,5.471-12.926,7.995-20.447,7.425
		c-9.602-0.729-16.949-8.126-21.547-15.978c-2.059-3.518-6.543-1.575-6.988,1.893c-2.07,16.151-13.331,39.556-33.169,33.147
		c-21.121-6.823-15.541-33.386-12.408-49.846c0.449-2.369-1.031-4.743-3.617-4.747c-9.052-0.013-18.072,1.103-27.126,1.213
		c-8.683,0.106-19.468-0.143-26.407-6.137c-8.414-7.27-4.684-18.769,2.178-25.367c9.094-8.746,23.125-12.651,35.34-13.967
		c4.756-0.513,4.806-8.018,0-7.5c-21.557,2.322-61.585,17.998-46.984,46.826c5.037,9.947,17.453,12.571,27.514,13.398
		c11.85,0.975,23.648-0.983,35.486-0.967c-1.205-1.582-2.41-3.165-3.615-4.747c-2.219,11.663-4.338,23.446-2.596,35.316
		c1.777,12.127,10.064,20.468,21.492,24.159c24.451,7.899,38.915-21.292,41.413-40.783c-2.328,0.631-4.658,1.262-6.988,1.893
		c5.92,10.109,15.162,18.315,27.182,19.602c9.844,1.054,19.547-2.679,26.592-9.53c7.273-7.073,10.121-17.181,8.379-27.045
		c-2.447-13.854-14.707-24.078-26.035-30.962c-0.631,2.33-1.262,4.659-1.893,6.988c10.338,1.212,21.219-0.941,28.357-9.033
		c6.277-7.114,7.842-16.833,6.451-25.958c-1.395-9.149-6.809-17.429-14.398-22.619c-9.646-6.595-22.189-5.889-32.736-2.139
		c1.537,1.538,3.074,3.075,4.613,4.613c3.66-19.412,8.016-48.205-17.205-54.648c-21.415-5.471-40.058,19.448-52.569,32.812
		c2.09,0.552,4.178,1.103,6.268,1.654c-6.744-25.064-43.553-34.875-56.754-9.46c-10.718,20.633,7.046,50.421,27.029,57.995
		C118.585,120.379,120.524,113.127,116.048,111.43L116.048,111.43z"/>
</g>
<g>
	<path fill="#452F8B" d="M474.387,238.779c-0.648-13.31-9.062-22.801-22.549-23.627c-11.416-0.699-24.479,5.753-29.199,16.471
		c-5.902,13.4,3.295,30.092,17.883,31.654c15.791,1.689,31.279-14.461,30.92-29.701c-0.113-4.828-7.613-4.84-7.5,0
		c0.275,11.658-10.961,22.234-22.459,22.25c-10.598,0.016-15.947-13.936-11.422-22.354c3.924-7.302,13.127-10.875,21.029-10.845
		c9.592,0.038,15.348,6.919,15.797,16.151C467.121,243.592,474.623,243.615,474.387,238.779L474.387,238.779z"/>
</g>
<g>
	<path fill="#452F8B" d="M432.053,265.387c2.223-5.846,2.725-12.545-2.006-17.289c-4.145-4.16-10.934-4.664-16.434-4.168
		c-12.572,1.135-27.643,8.023-29.848,21.732c-2.293,14.273,10.861,21.785,23.447,21.596c14.031-0.211,27.299-9.51,27.572-24.342
		c0.09-4.84-7.41-4.83-7.5,0c-0.193,10.504-9.65,16.162-19.264,16.809c-8.047,0.541-18.469-3.084-16.887-12.924
		c1.537-9.561,12.656-13.658,21.033-15.174c3.85-0.693,8.463-0.764,11.928,1.281c3.678,2.168,1.889,7.418,0.723,10.484
		C423.098,267.92,430.35,269.859,432.053,265.387L432.053,265.387z"/>
</g>
<path fill="#7F3F98" d="M331.898,33.595c-2.631,11.281-13.908,18.295-25.189,15.664c-11.283-2.631-18.295-13.91-15.662-25.188
	c2.629-11.285,13.908-18.297,25.189-15.666C327.516,11.038,334.527,22.313,331.898,33.595z"/>
<path fill="#7F3F98" d="M323,72.575c-2.422,10.379-12.795,16.83-23.176,14.41c-10.377-2.422-16.83-12.797-14.412-23.176
	c2.422-10.379,12.799-16.828,23.174-14.408C318.969,51.823,325.418,62.194,323,72.575z"/>
<path fill="#7F3F98" d="M315.387,106.011c-1.893,8.123-10.012,13.17-18.137,11.273c-8.119-1.891-13.168-10.01-11.275-18.133
	c1.896-8.123,10.016-13.166,18.137-11.275C312.232,89.771,317.281,97.89,315.387,106.011z"/>
<g>
	<path fill="#452F8B" d="M324.598,4.18c-10.953-9.116-24.824-8.817-34.35,2.198c-7.939,9.185-11.293,24.135-4.01,34.654
		c8.164,11.792,26.838,13.522,35.709,1.839c8.699-11.458,7.883-30.39-3.174-40.049c-3.625-3.167-8.951,2.115-5.303,5.303
		c8.064,7.045,8.701,19.808,3.527,28.76c-5.363,9.279-18.971,8.036-24.734-0.289c-5.143-7.429-1.969-17.708,2.854-24.381
		c6.146-8.504,16.307-9.282,24.178-2.732C322.982,12.553,328.318,7.276,324.598,4.18L324.598,4.18z"/>
</g>
<g>
	<path fill="#452F8B" d="M315.434,53.331c-2.754-5.482-7.082-10.301-13.627-10.353c-6.043-0.048-11.23,4.786-14.658,9.252
		c-7.725,10.071-13.016,26.083-4.074,36.967c9.027,10.993,23.223,6.488,31.527-2.839c9.275-10.417,11.611-26.429,0.926-36.698
		c-3.484-3.351-8.795,1.946-5.305,5.303c7.494,7.202,5.664,17.797-0.338,25.393c-5.109,6.468-14.277,11.519-20.896,4.282
		c-6.516-7.121-1.834-18.593,2.482-25.572c2.021-3.269,4.959-6.868,8.684-8.231c4.424-1.62,7.117,2.926,8.805,6.282
		C311.127,61.439,317.598,57.641,315.434,53.331L315.434,53.331z"/>
</g>
<g>
	<path fill="#452F8B" d="M306.996,88.983c-20.035-14.335-44.207,23.029-25.143,36.855c20.227,14.67,38.615-20.253,28.252-36.492
		c-2.594-4.062-9.088-0.305-6.477,3.785c5.387,8.44-2.559,33.996-15.312,27.949c-14.748-6.993,1.436-35.251,14.895-25.621
		C307.154,98.28,310.893,91.771,306.996,88.983L306.996,88.983z"/>
</g>
<g>
	<path fill="#B94126" d="M190.398,110.147c-9.18-12.431-24.304-17.631-37.44-7.601c-11.051,8.438-16.115,23.809-9.592,36.539
		c7.635,14.901,30.103,21.368,43.515,10.894c13.172-10.286,15.424-30.388,4.588-43.08c-1.613-1.892-3.66-3.416-5.701-4.812
		c-4.004-2.739-7.75,3.763-3.785,6.477c11.092,7.592,11.547,23.155,3.049,32.947c-9.385,10.815-26.956,6.202-34.323-4.743
		c-6.049-8.986-1.777-20.615,5.586-27.321c9.205-8.385,20.772-4.798,27.628,4.486C186.762,117.778,193.275,114.044,190.398,110.147
		L190.398,110.147z"/>
</g>
<path fill="#8DC63F" d="M359.586,150.827c0,0-23.389-25.495-9.322-40.384c0,0,22.463,20.269,18.359,36.624
	c0,0,36.18-26.902,48.434-6.442c0,0-5.811,27.978-35.938,25.242c0,0,40.084,4.202,38.324,27.689c0,0-34.426,3.412-42.623-21.538"/>
<path fill="#BE1E2D" d="M323.408,138.381c-9.473,7.976-48.037,75.906-25.578,96.17c22.457,20.27,89.742-21.046,92.873-28.645
	C400.318,182.585,342.564,122.251,323.408,138.381z"/>
<g>
	<path fill="#89241B" d="M337.717,136.599c14.057,15.899,33.281,26.364,47.494,42.214c5.762,6.423,11.691,15.197,9.256,24.228
		c-2.066,7.662-11.578,10.838-18.252,12.903c-9.025,2.792-18.389,4.34-27.449,7.02c-8.342,2.467-15.654,6.888-23.305,10.901
		c-6.32,3.316-13.359,7.197-20.604,7.816c-7.014,0.602-9.143-5.094-9.75-11.189c-1.574-15.709,3.881-32.478,9.594-46.891
		c6.23-15.729,15.488-31.116,28.863-41.747c3.785-3.009-1.561-8.278-5.305-5.303c-18.584,14.769-29.512,38.018-36.043,60.333
		c-3.172,10.836-5.443,22.276-4.611,33.608c0.484,6.619,2.625,14.049,9.023,17.217c5.812,2.879,12.756,1.172,18.523-0.904
		c7.781-2.801,15.062-6.941,22.311-10.869c16.104-8.724,34.926-8.872,51.283-16.845c7.127-3.474,12.793-9.625,13.656-17.729
		c1.006-9.471-3.857-17.834-9.498-25.016c-13.975-17.798-35.01-28.223-49.885-45.05C339.811,127.665,334.527,132.99,337.717,136.599
		L337.717,136.599z"/>
</g>
<g>
	<path fill="#4B8A3F" d="M363.809,138.707c-7.645-7.152-5.443-17.922-3.135-26.999c-1.836,0.747-3.674,1.494-5.51,2.241
		c8.818,5.301,14.59,16.285,13.438,26.552c-0.279,2.512,2.598,4.151,4.748,3.616c16.607-4.13,31.979-8.832,49.318-7.481
		c-1.25-1.25-2.5-2.5-3.75-3.75c-0.256,13.564-18.305,18.984-26.645,27.064c-2.225,2.154-0.826,5.244,1.654,6.268
		c5.361,2.209,10.906,4.05,15.975,6.902c5.404,3.043,8.91,7.934,11.766,13.312c1.078-1.881,2.158-3.762,3.238-5.643
		c-9.605,0.907-21.744,0.475-27.16-8.876c-2.424-4.183-8.906-0.408-6.479,3.785c6.82,11.771,21.203,13.766,33.639,12.591
		c2.842-0.269,4.652-2.974,3.236-5.643c-3.328-6.272-7.537-11.553-13.525-15.441c-5.67-3.684-12.486-5.661-18.693-8.22
		c0.551,2.09,1.102,4.179,1.654,6.268c10.5-10.173,28.514-15.062,28.84-32.367c0.041-2.163-1.742-3.594-3.75-3.75
		c-17.994-1.402-34.072,3.462-51.312,7.749c1.582,1.205,3.164,2.411,4.746,3.616c1.438-12.808-6.27-26.486-17.152-33.028
		c-2.051-1.232-4.914-0.093-5.508,2.241c-2.996,11.772-4.689,25.171,5.064,34.296C362.033,147.31,367.348,142.018,363.809,138.707
		L363.809,138.707z"/>
</g>
<g>
	<path fill="#4B8A3F" d="M10.714,181.177c-0.792,1.046-2.241,1.419-1.824,1.443c-1.235-0.07,0.471,0.149,0.848,0.26
		c1.77,0.519,3.017,1.136,4.662,1.923c5.119,2.448,10.035,5.336,14.908,8.232c13.625,8.1,26.863,16.861,39.998,25.727
		c12.385,8.36,24.666,16.891,36.73,25.705c3.492,2.553,6.992,5.109,10.343,7.848c0.757,0.619,1.528,1.244,2.196,1.959
		c-1.021-1.094-0.467-2.678-0.951-0.809c-2.301,8.875-9.284,17.514-16.12,23.664c-11.864,10.68-27.597,13.879-42.976,10.342
		C28.819,280.637,4.956,254.904,0.171,224.8C-2.273,209.417,2.655,194.145,10.714,181.177c2.561-4.12-3.93-7.883-6.476-3.785
		c-11.624,18.705-15.426,40.31-8.338,61.387c4.656,13.844,13.397,26.322,23.794,36.477c10.633,10.385,25.766,17.387,40.238,20.164
		c15.576,2.99,31.339-0.689,43.826-10.461c8.759-6.854,15.753-16.082,20.008-26.354c1.014-2.447,2.42-6.014,0.947-8.547
		c-1.221-2.102-3.742-3.643-5.601-5.088c-22.889-17.812-47.272-34.013-71.722-49.577c-8.876-5.65-17.842-11.27-27.211-16.075
		c-4.223-2.167-12.089-7.014-15.942-1.927C1.315,181.249,7.833,184.979,10.714,181.177z"/>
</g>
</svg>
