<?xml version="1.0" encoding="utf-8"?>
<!-- Generator: Adobe Illustrator 16.0.0, SVG Export Plug-In . SVG Version: 6.00 Build 0)  -->
<!DOCTYPE svg PUBLIC "-//W3C//DTD SVG 1.1//EN" "http://www.w3.org/Graphics/SVG/1.1/DTD/svg11.dtd">
<svg version="1.1" xmlns="http://www.w3.org/2000/svg" xmlns:xlink="http://www.w3.org/1999/xlink" x="0px" y="0px" width="612px"
	 height="756px" viewBox="0 0 612 756" enable-background="new 0 0 612 756" xml:space="preserve">
<g id="Layer_2">
</g>
<g id="Layer_1">
	<rect x="550.668" y="607.334" fill="none" width="45.332" height="20.666"/>
	<text transform="matrix(1 0 0 1 550.668 625.5742)" font-family="'OpenSans'" font-size="24">½x</text>
	<rect x="276.169" y="616.334" fill="none" width="157" height="21.5"/>
	<text transform="matrix(1 0 0 1 276.1689 634.5742)" font-family="'OpenSans'" font-size="24">6½x</text>
	<rect x="276.169" y="705.834" fill="none" width="157" height="21.5"/>
	<text transform="matrix(1 0 0 1 276.1689 724.0742)" font-family="'OpenSans'" font-size="24">7½x</text>
	<path fill="#FFFFFF" d="M78.457,264.368c0,0-30.237,60.598,23.761,101.095c0,0,51.016,36.285,73.505-1.356L78.457,264.368z"/>
	<polygon fill="#FFFFFF" points="172.714,140.474 204.212,140.474 217.997,157.104 241.71,131.475 264.299,122.637 276.414,144.588 
		281.504,177.285 321.206,203.471 306.207,228.97 282.208,228.97 289.707,290.466 270.209,284.467 254.992,273.368 247.71,300.966 
		226.711,309.965 207.212,300.966 205.712,276.967 208.903,254.777 169.8,258.497 142.286,245.099 145.715,227.47 165.214,212.47 
		188.272,205.639 169.714,189.972 160.714,164.473 	"/>
	<polygon fill="#FFFFFF" points="389.775,89.926 374.442,89.926 359.109,109.259 367.775,128.593 358.442,161.926 363.109,179.926 
		351.775,196.593 359.775,212.593 376.442,206.593 381.109,179.926 	"/>
	<polygon fill="#FFFFFF" points="433.805,237.804 429.383,200.926 441.775,209.259 445.109,230.593 493.136,219.862 
		491.774,231.259 472.44,248.593 495.774,267.259 469.774,273.259 473.106,292.593 447.109,309.259 374.442,334.593 
		365.775,321.259 	"/>
	<polygon fill="#FFFFFF" points="499.774,333.926 503.106,313.926 525.774,306.593 542.44,315.926 528.44,343.259 504.493,344.768 
		474.44,367.926 461.106,358.593 466.44,343.259 	"/>
	<g>
		<path fill="#BE1E2D" d="M159.151,532.885c-1.491,0-2.844-0.591-4.059-1.766h-0.236c-0.902,0-2,0.059-3.295,0.176
			c-1.725,0.157-2.805,0.236-3.234,0.236c-2.668,0-4.924-0.606-6.766-1.824c-2.158-1.412-3.236-3.372-3.236-5.883
			c0-2.746,1.567-4.745,4.707-6.002l5.941-1.175c1.098-0.196,3.039-0.589,5.824-1.179c0.078-0.234,0.117-0.411,0.117-0.528
			c0-3.373-1.156-5.06-3.471-5.06c-1.256,0-2.941,0.883-5.06,2.646l-4.472,4l-1.234-0.469c-0.706-0.745-1.178-1.688-1.413-2.824
			c0.667-1.884,2.274-3.696,4.825-5.441c2.549-1.747,4.824-2.62,6.824-2.62c0.275,0,1.608,0.257,4,0.767
			c3.414,0.745,5.657,1.763,6.737,3.059c1.077,1.294,1.618,3.667,1.618,7.117c0,0.707-0.08,2.414-0.236,5.12
			c-0.117,2.039-0.176,3.727-0.176,5.06c0-0.157,0.117,0.999,0.354,3.47c0.038,0.393,0.059,0.729,0.059,1.003
			c0,1.41-1.021,2.117-3.061,2.117H159.151z M153.974,521.411c-1.137,0-2.646,0.257-4.529,0.766
			c-2.117,0.55-3.492,1.138-4.118,1.766l-0.411,0.41c-0.471,0.473-0.707,0.786-0.707,0.943c0,0.901,1.686,1.352,5.06,1.352
			c0.667,0,1.608-0.116,2.824-0.353c1.373-0.235,2.216-0.491,2.53-0.765c0.312-0.273,0.471-1.039,0.471-2.294
			C155.093,522.021,154.72,521.411,153.974,521.411z"/>
		<path fill="#BE1E2D" d="M177.243,507.233c2.426-1.517,4.057-2.275,4.891-2.275c3.071,0,4.607,1.1,4.607,3.298l-0.171,1.309
			l-1.251,0.738c-0.189,0-0.635-0.132-1.338-0.397c-0.701-0.265-1.185-0.397-1.449-0.397c-1.783,0-3.262,2.161-4.437,6.484
			c-0.909,3.335-1.364,6.312-1.364,8.928c0,0.682,0.057,1.555,0.17,2.616c0.152,1.442,0.229,2.313,0.229,2.615
			c0,1.289-0.816,1.935-2.445,1.935c-4.096,0-6.143-0.971-6.143-2.912c0-0.458,0.075-1.133,0.229-2.028
			c0.15-0.895,0.227-1.571,0.227-2.026v-4.97c0-6.243-0.398-10.774-1.195-13.592c0.721-1.066,2.787-1.6,6.199-1.6
			C176.087,504.958,177.167,505.717,177.243,507.233z"/>
		<path fill="#BE1E2D" d="M198.397,507.233c2.428-1.517,4.059-2.275,4.892-2.275c3.071,0,4.607,1.1,4.607,3.298l-0.171,1.309
			l-1.251,0.738c-0.19,0-0.636-0.132-1.337-0.397c-0.702-0.265-1.186-0.397-1.449-0.397c-1.783,0-3.262,2.161-4.437,6.484
			c-0.911,3.335-1.364,6.312-1.364,8.928c0,0.682,0.057,1.555,0.17,2.616c0.151,1.442,0.228,2.313,0.228,2.615
			c0,1.289-0.815,1.935-2.446,1.935c-4.094,0-6.143-0.971-6.143-2.912c0-0.458,0.076-1.133,0.229-2.028
			c0.151-0.895,0.229-1.571,0.229-2.026v-4.97c0-6.243-0.399-10.774-1.195-13.592c0.72-1.066,2.787-1.6,6.199-1.6
			C197.241,504.958,198.323,505.717,198.397,507.233z"/>
		<path fill="#BE1E2D" d="M229.88,532.885c-1.492,0-2.845-0.591-4.061-1.766h-0.234c-0.903,0-2.001,0.059-3.295,0.176
			c-1.727,0.157-2.805,0.236-3.236,0.236c-2.668,0-4.922-0.606-6.766-1.824c-2.158-1.412-3.236-3.372-3.236-5.883
			c0-2.746,1.568-4.745,4.707-6.002l5.941-1.175c1.098-0.196,3.041-0.589,5.825-1.179c0.078-0.234,0.118-0.411,0.118-0.528
			c0-3.373-1.157-5.06-3.471-5.06c-1.256,0-2.941,0.883-5.061,2.646l-4.471,4l-1.236-0.469c-0.705-0.745-1.176-1.688-1.412-2.824
			c0.666-1.884,2.274-3.696,4.825-5.441c2.55-1.747,4.824-2.62,6.825-2.62c0.273,0,1.607,0.257,4,0.767
			c3.412,0.745,5.656,1.763,6.736,3.059c1.078,1.294,1.618,3.667,1.618,7.117c0,0.707-0.08,2.414-0.235,5.12
			c-0.118,2.039-0.177,3.727-0.177,5.06c0-0.157,0.118,0.999,0.353,3.47c0.039,0.393,0.06,0.729,0.06,1.003
			c0,1.41-1.021,2.117-3.06,2.117H229.88z M224.701,521.411c-1.138,0-2.646,0.257-4.528,0.766c-2.118,0.55-3.492,1.138-4.119,1.766
			l-0.412,0.41c-0.471,0.473-0.707,0.786-0.707,0.943c0,0.901,1.688,1.352,5.061,1.352c0.666,0,1.607-0.116,2.824-0.353
			c1.373-0.235,2.216-0.491,2.529-0.765c0.314-0.273,0.471-1.039,0.471-2.294C225.819,522.021,225.446,521.411,224.701,521.411z"/>
		<path fill="#BE1E2D" d="M264.768,530.177c-0.04,1.059-1.492,1.59-4.354,1.59c-0.785,0-1.727-0.139-2.824-0.412
			c-1.373-0.352-2.06-0.843-2.06-1.47c0-1.061,0.104-2.295,0.313-3.707c0.334-2.158,0.502-3.374,0.502-3.648
			c0.084-0.627,0.127-1.273,0.127-1.942v-1.999c0-6.197-1.244-9.296-3.73-9.296c-3.672,0-5.508,5.014-5.508,15.042
			c0,1.755,0.158,3.728,0.471,5.911l-0.646,1.17c-1.021,0.233-1.846,0.352-2.471,0.352h-0.941c-3.178,0-4.766-0.742-4.766-2.226
			c0-1.211,0.057-2.441,0.176-3.69c0.354-3.709,0.529-5.76,0.529-6.151v-1.639c0-4.844-0.314-8.71-0.941-11.6
			c0.312-0.898,1.097-1.426,2.348-1.581h3.17c0.627,0,2.055,0.412,4.286,1.234c-0.196,0,0.998-0.116,3.581-0.351
			c0.431-0.039,0.762-0.061,0.997-0.061c4.344,0,7.425,0.883,9.245,2.646c1.821,1.767,2.729,4.806,2.729,9.12v2.59
			c0,0.116,0,0.842,0,2.176L264.768,530.177z"/>
		<path fill="#BE1E2D" d="M294.241,516.351c0,1.845,0.099,4.276,0.294,7.297l0.472,7.295c0.038,0.627,0.059,1.921,0.059,3.883
			c0,2.862-1.353,5.079-4.06,6.648c-2.196,1.295-4.844,1.94-7.941,1.94c-8.119,0-12.885-1.686-14.297-5.058
			c0.393-0.629,1.02-1.158,1.883-1.59c0.861-0.432,1.666-0.647,2.412-0.647c0.195,0,1.441,0.639,3.735,1.914
			c2.294,1.272,3.971,1.911,5.03,1.911c1.922,0,3.275-0.528,4.06-1.588c0.626-0.905,0.941-2.354,0.941-4.354
			c0-1.883-1.021-2.824-3.06-2.824c-0.705,0-1.922,0.079-3.646,0.235c-0.434,0.039-0.766,0.059-1.002,0.059
			c-6.627,0-9.941-3.646-9.941-10.943c0-3.841,0.783-7.333,2.353-10.472c1.96-3.92,4.667-5.883,8.118-5.883
			c0.824,0,1.707,0.137,2.648,0.411c2.274,0.669,3.549,1.002,3.824,1.002c0.117,0,0.578-0.187,1.382-0.559
			c0.804-0.374,1.402-0.561,1.795-0.561c1.726,0,3.726,0.314,6.001,0.939l0.354,1.061
			C294.713,509.174,294.241,512.47,294.241,516.351z M286.123,512.057c-0.117-2.156-0.824-3.235-2.117-3.235
			c-1.845,0-3.413,1.668-4.708,5c-1.138,2.904-1.705,5.513-1.705,7.826c0,4.471,1.196,6.706,3.589,6.706
			c1.566,0,2.804-0.939,3.705-2.823c0.745-1.49,1.119-3.119,1.119-4.883v-0.236c0.117-2.784,0.176-4.922,0.176-6.413v-0.764
			C286.182,513.078,286.162,512.686,286.123,512.057z"/>
		<path fill="#BE1E2D" d="M319.01,532.061c-2.668,0.744-4.668,1.117-6,1.117c-9.143,0-13.711-3.851-13.711-11.555
			c0-2.632,0.53-5.464,1.59-8.489c1.176-3.42,2.666-5.797,4.471-7.134c0.98-0.746,2.627-1.12,4.941-1.12
			c3.568,0,6.609,0.825,9.119,2.477c2.943,1.888,4.414,4.525,4.414,7.905c0,3.148-0.611,5.703-1.826,7.67
			c-1.451,2.398-3.646,3.6-6.588,3.6c-0.902,0-2.246-0.196-4.029-0.589c-1.785-0.393-3.131-0.59-4.031-0.59
			c-0.117,0-0.176,0.101-0.176,0.295c0,2.353,1.783,3.53,5.354,3.53c1.02,0,2.51-0.274,4.471-0.824
			c1.961-0.547,3.451-0.824,4.473-0.824c1.568,0,2.354,0.532,2.354,1.59S322.225,531.158,319.01,532.061z M313.242,508.881
			c-1.293,0-2.588,1.397-3.883,4.196c-1.1,2.401-1.646,4.432-1.646,6.084c0,1.024,0.471,1.852,1.412,2.482
			c0.824,0.552,1.764,0.827,2.824,0.827c1.371,0,2.51-1.142,3.412-3.427c0.744-1.891,1.117-3.802,1.117-5.731
			c0-1.143-0.254-2.128-0.766-2.956C315.127,509.372,314.301,508.881,313.242,508.881z"/>
		<path fill="#BE1E2D" d="M367.664,531.767c-2.434,0-4.59-0.295-6.473-0.883l-0.941-1.295c0.666-3.138,1-7.156,1-12.06
			c0-5.139-0.863-7.708-2.588-7.708c-2.275,0-3.883,2.204-4.824,6.612c-0.588,2.771-0.883,5.774-0.883,9.013
			c0,1.249,0.078,2.77,0.234,4.563c-0.586,1.17-2.352,1.757-5.293,1.757c-1.375,0-2.453-0.371-3.236-1.111l-0.354-0.526
			c-0.117-0.234-0.176-0.47-0.176-0.703c0-0.78,0.096-1.658,0.293-2.634c0.473-2.38,0.707-3.821,0.707-4.329v-2.633
			c0-6.554-1.197-9.831-3.59-9.831c-2,0-3.412,2.148-4.234,6.446c-0.473,2.485-0.707,5.324-0.707,8.518
			c0,1.854,0.078,3.688,0.234,5.501l-0.764,1.006c-0.627,0-1.559,0.049-2.795,0.149c-1.234,0.098-2.168,0.147-2.795,0.147
			c-1.646,0-2.471-0.573-2.471-1.715c0-1.771,0.078-3.938,0.236-6.5c0.352-5.751,0.529-9.375,0.529-10.871
			c0-2.206-0.314-4.138-0.941-5.792c0.744-1.222,2.096-1.832,4.059-1.832c2.51,0,4.334,0.393,5.473,1.175l0.293,0.707
			c2.98-0.548,4.863-0.824,5.648-0.824c1.49,0,2.883,0.256,4.178,0.765c0.156,0.08,0.51,0.235,1.059,0.472l2.707,1.178l4.352-1.767
			c1.648-0.665,3.395-0.998,5.238-0.998c3.215,0,5.52,0.716,6.912,2.146c1.391,1.433,2.088,3.755,2.088,6.971
			c0,0.354-0.02,1.374-0.059,3.06v2c0,0.471-0.059,0.844-0.176,1.118c0,0.274,0,0.353,0,0.235c0,0.274,0.037,0.862,0.117,1.764
			l0.412,4.824c0.037,0.472,0.059,1.061,0.059,1.767c0,0.587-0.266,1.087-0.795,1.5C368.871,531.56,368.289,531.767,367.664,531.767
			z"/>
		<path fill="#BE1E2D" d="M393.668,532.061c-2.668,0.744-4.668,1.117-6,1.117c-9.143,0-13.711-3.851-13.711-11.555
			c0-2.632,0.531-5.464,1.59-8.489c1.178-3.42,2.666-5.797,4.471-7.134c0.98-0.746,2.627-1.12,4.941-1.12
			c3.568,0,6.609,0.825,9.119,2.477c2.943,1.888,4.414,4.525,4.414,7.905c0,3.148-0.609,5.703-1.826,7.67
			c-1.449,2.398-3.646,3.6-6.588,3.6c-0.902,0-2.246-0.196-4.029-0.589c-1.785-0.393-3.129-0.59-4.031-0.59
			c-0.117,0-0.176,0.101-0.176,0.295c0,2.353,1.783,3.53,5.354,3.53c1.02,0,2.51-0.274,4.471-0.824
			c1.961-0.547,3.451-0.824,4.473-0.824c1.568,0,2.354,0.532,2.354,1.59S396.883,531.158,393.668,532.061z M387.9,508.881
			c-1.293,0-2.588,1.397-3.883,4.196c-1.098,2.401-1.646,4.432-1.646,6.084c0,1.024,0.471,1.852,1.412,2.482
			c0.824,0.552,1.764,0.827,2.824,0.827c1.371,0,2.51-1.142,3.412-3.427c0.744-1.891,1.117-3.802,1.117-5.731
			c0-1.143-0.254-2.128-0.764-2.956C389.785,509.372,388.959,508.881,387.9,508.881z"/>
		<path fill="#BE1E2D" d="M428.674,530.177c-0.041,1.059-1.492,1.59-4.355,1.59c-0.785,0-1.727-0.139-2.824-0.412
			c-1.371-0.352-2.059-0.843-2.059-1.47c0-1.061,0.104-2.295,0.314-3.707c0.334-2.158,0.502-3.374,0.502-3.648
			c0.082-0.627,0.125-1.273,0.125-1.942v-1.999c0-6.197-1.242-9.296-3.73-9.296c-3.67,0-5.506,5.014-5.506,15.042
			c0,1.755,0.156,3.728,0.471,5.911l-0.648,1.17c-1.02,0.233-1.844,0.352-2.469,0.352h-0.941c-3.178,0-4.766-0.742-4.766-2.226
			c0-1.211,0.059-2.441,0.176-3.69c0.354-3.709,0.529-5.76,0.529-6.151v-1.639c0-4.844-0.314-8.71-0.941-11.6
			c0.312-0.898,1.096-1.426,2.348-1.581h3.17c0.627,0,2.055,0.412,4.285,1.234c-0.195,0,0.998-0.116,3.582-0.351
			c0.432-0.039,0.764-0.061,0.998-0.061c4.342,0,7.424,0.883,9.244,2.646c1.82,1.767,2.73,4.806,2.73,9.12v2.59
			c0,0.116,0,0.842,0,2.176L428.674,530.177z"/>
		<path fill="#BE1E2D" d="M450.113,509.939c-1.533,0.274-3.029,0.51-4.484,0.705c-0.324,0.315-0.486,1.687-0.486,4.119
			c0,3.294,0.1,6.374,0.295,9.237l0.119,6.47c0.037,1.021-1.199,1.531-3.715,1.531c-1.471,0-2.98-0.433-4.525-1.295
			c-0.193-0.587-0.291-1.529-0.291-2.825c0,0.354,0-0.019,0-1.116v-4.647c0-0.274,0-0.768,0-1.471l0.236-10.119l-0.236-0.177
			l-2.352,0.115c-1.334,0.082-2.453-0.41-3.354-1.469c0.271-1.098,0.893-1.844,1.863-2.236l2.561-0.706
			c0.855-0.235,1.281-0.744,1.281-1.529c0,0.55-0.156-1.588-0.471-6.412c0.039-0.666,0.061-1.215,0.061-1.647
			c0-1.961,1.488-2.942,4.469-2.942h0.883c2.785,0,4.176,0.746,4.176,2.235c0,0.747-0.057,1.354-0.176,1.825l-0.41,5.117
			c0,0.98,0,1.608,0,1.883c0,0.864,0.725,1.294,2.176,1.294c1.686,0,2.844,0.962,3.469,2.883L450.113,509.939z"/>
		<path fill="#BE1E2D" d="M469.204,532.119c-0.512,0-1.256-0.051-2.236-0.147c-0.98-0.098-1.725-0.146-2.234-0.146
			c-2.434,0-4.746-0.177-6.943-0.53c-3.685-0.588-5.528-1.606-5.528-3.059c0-0.942,0.295-1.744,0.883-2.412
			c0.588-0.667,1.332-0.999,2.236-0.999c3.448,2.274,6.153,3.411,8.114,3.411c0.553,0,1.275-0.157,2.182-0.472
			c1.096-0.351,1.646-0.725,1.646-1.117c0-0.47-1.531-1.236-4.59-2.295c-1.217-0.431-3.061-1.059-5.531-1.882
			c-2.626-1.53-3.938-3.766-3.938-6.707c0-2.784,0.566-5.314,1.703-7.59c1.412-2.862,3.411-4.294,6.001-4.294
			c0.824,0,2,0.156,3.529,0.47l3.412,0.707c2.746,0.55,4.617,1.411,5.617,2.589c1,1.176,1.502,3.136,1.502,5.883
			c0,1.688-0.236,2.903-0.707,3.646c-0.588,0.942-1.668,1.413-3.234,1.413c-2.787,0-4.178-1.94-4.178-5.825v-1.412
			c0-2.196-0.391-3.293-1.176-3.293c-0.943,0-1.824,0.961-2.648,2.881c-0.705,1.688-1.061,3.081-1.061,4.178
			c0,2.117,1.219,3.728,3.652,4.824c1.135,0.511,3.389,1.55,6.762,3.117c2.434,1.14,3.648,2.454,3.648,3.943
			c0,1.294-0.844,2.49-2.529,3.59C472.026,531.609,470.577,532.119,469.204,532.119z"/>
	</g>
	<g>
		<path fill="#BE1E2D" d="M495.696,446.568c-2.375-0.521-2.127,7.302-10.473,18.207c-2.949,2.654-7.285,5.402-12.766,5.607
			c-7.025,0.258-11.709-4.944-14.314-9.123c-4.761-7.648-6.327-14.47-6.327-14.47s13.183-2.6,19.601-9.367
			c8.715-9.19,9.633-25.637-5.941-26.751c-21.538-1.539-34.3,19.888-34.3,35.425c-0.146-0.022-0.725,8.292,3.48,16.687
			c1.322,2.959,4.053,6.295,4.812,7.252s5.545,5.712,8.363,7.332c3.334,1.917,7.082,2.667,9.499,3.25
			c7.832,1,15.629,0.173,22.586-3.617c3.01-1.64,9.473-7.484,13.271-14.935C496.245,456.064,500.208,447.559,495.696,446.568z
			 M472.882,418.186c2.48,2.19,0.494,11.868-4.76,16.287c-7.631,6.42-16.69,6.869-16.823,6.941
			C451.418,437.289,461.894,408.495,472.882,418.186z"/>
		<path fill="#BE1E2D" d="M435.729,462.055c-3.5,4.062-8.688,8.312-13.188,8.688c-4.291,0.357-7.941-5.952-9.328-8.849
			c-5.08-10.613-6.254-24.316-5.773-35.747c0.117-2.762,0.459-3.143,0.459-3.143s10.674-9.552,17.416-20.387
			c7.697-12.372,21.91-47.435-0.025-57.583c-22.672-10.488-31.197,29.649-35.193,44.558c-1.219,4.594-4.764,19.566-4.619,36.806
			c-2.521,1.937-5.041,3.797-7.475,5.434c-3.645-21.675-40.689-22.903-47.451-4.197c1.572-4.349,10.191-21.45,12.154-25.894
			c4.289-9.741,8.438-20.337,9.982-30.937c1.502-10.298,1.652-24.322-5.58-28.375c-8.295-4.642-17.377-0.865-22.02,4.933
			c-9.09,11.318-16.068,30.829-17.561,49.35c-2.191,27.17,3.945,50.604,3.945,50.604s-8.656,19.857-13.26,19.28
			c-6.533-0.817-3.829-26.385-3.273-30.778c0.539-4.277,1.767-11.474,1.389-16.658c-0.444-6.099-19.127,7.728-19.237,13.539
			c-0.11,5.811,1.125,17.748-5.981,29.229c-4.001,6.462-7.962,4.011-10.867-1.556c-3.621-10.286-4.547-23.61-4.015-33.582
			c0.271-5.274,1.124-9.037,1.124-9.037s7.256-8.781,10.365-13.76c7.727-12.354,28.516-49.494,6.36-58.316
			c-23.208-9.24-31.199,29.649-35.194,44.56c-0.806,3.032-2.62,10.615-3.724,20.364c-18.022-5.189-40.26,5.328-45.238,30.636
			c-1.772,9.013,0.75,18.514,1.994,21.632c-1.201,1.395-5.577,6.248-11.354,7.249c-5.16,0.893-10.869-3.055-15.076-8.422
			c-5.582-7.122-6.357-14.531-6.357-14.531s13.241-2.61,19.685-9.407c8.753-9.229,9.673-25.745-5.967-26.863
			c-19.686-1.407-32.067,16.286-34.136,31.243c-3.916-0.729-7.151-1.72-10.105-4.24c-4.9-4.182-8.348-10.543-7.968-17.249
			c0.329-5.83,4.395-15.021,10.362-17.455c6.191-2.523,11.709,0.539,11.616-0.996c-0.308-5.006-10.329-4.8-14.834-1.933
			c-6.302,4.01-9.968,9.515-11.042,16.972c-1.934,13.429,3.973,23.647,17.139,28.137c1.75,0.595,3.316,1.137,4.447,1.533
			c-0.165,2.013-0.162,9.779,4.215,18.088c2.017,3.827,5.105,9.272,13.5,13.555c7,3.57,12.485,3.664,20.888,1.143
			c6.487-1.947,14.696-9.608,16.987-11.655l0,0c11.26,22.3,36,12.333,44.854-7.507c1.952,7.203,4.871,13.611,9.558,17.327
			c1.062,1.095,2.236,1.926,3.531,2.356c0.725,0.242,1.438,0.395,2.143,0.498c0.096,0.025,0.178,0.068,0.273,0.091
			c0.686,0.161,1.422,0.146,2.18,0c8.165-0.501,14.843-9.334,18.869-16.061c0,0,1.684,13.405,7.991,15.497
			c4.554,1.499,7.122,1.123,10.925-0.237c9.805-3.508,17.166-21.295,20.545-26.937c4.018,5.585,1.973,4.862,5.945,6.188
			c1.254,0.417,3.16-0.125,3.25-1.205c0.09-1.077-0.15-2.683-0.598-4.3c-0.096-1.665,0.043-6.354,3.082-15.195
			c2.68-5.759,6.525-10.832,11.969-14.436c12.914-8.555,23.846,7.276,19.889,17.832c0,0-8.295,3.771-12.631,6.596
			c-8.117,5.298-17.508,14.495-12.061,23.872c4.428,7.618,19.574,11.305,27.287,6.453c10.943-6.888,17.441-15.559,17.443-40.395
			c2.504-1.486,5-3.081,7.422-4.734c0.133,1.813,0.295,3.636,0.529,5.466c2.705,21.137,8.855,48.788,35.305,40.675
			c5.389-1.653,13.248-8.541,17.738-13.574C438.166,464.943,436.625,463.628,435.729,462.055z M429.291,359.005
			c2.545,1.479,2.078,15.896-3.014,27.48c-8.188,18.62-13.725,25.283-18.059,28.173
			C407.898,400.531,424.633,356.301,429.291,359.005z M278.08,359.648c4.658,2.706-13.387,40.044-19.22,46.606
			C258.86,395.409,273.422,356.943,278.08,359.648z M180.282,418.438c2.492,2.199,0.497,11.919-4.779,16.356
			c-7.664,6.448-16.762,6.898-16.896,6.97C158.726,437.622,169.249,408.705,180.282,418.438z M218.318,464.104
			c-7.771-2.432-8.592-11.606-7.384-22.473c0.963-8.667,6.205-15.878,8.672-19.477c6.371-9.292,14.225-6.443,14.86-6.08
			c0.009,0.587,0.026,1.206,0.054,1.852c-0.424,6.845-0.391,14.347,0.578,21.922c0.522,4.079,1.111,8.533,1.93,12.957
			C232.553,458.448,222.968,465.555,218.318,464.104z M333.467,380.545c0.305-0.934,11.303-31.799,13.566-25.871
			c3.539,9.324-2.096,24.17-5.078,33.159c-2.393,7.261-13.25,30.815-13.688,31.045C327.779,405.521,329.303,393.26,333.467,380.545z
			 M340.465,471.027c-5.398-1.133-3.842-8.209,1.908-13.534c5.178-4.798,14.693-9.096,15.191-8.951
			C355.898,454.765,350.275,473.081,340.465,471.027z"/>
		<path fill="#BE1E2D" d="M278.282,401.96c-0.571,6.888,6.599,10.7,12.625,7.384c5.957-3.277,7.04-8.731,7.759-14.932
			c-0.179,1.55-0.24-0.883-0.057-0.249C295.818,380.221,279.054,392.662,278.282,401.96z"/>
	</g>
	<g>
		<g>
			<path fill="#8DC63F" d="M182.206,371.95c13.52-6.287,23.875-17.857,30.027-31.34c1.217-2.668,0.83-5.48-1.273-7.578
				c-6.131-6.123-13.189-10.85-21.389-13.645c-0.393-0.133-0.771-0.205-1.139-0.232c-13.436-8.609-26.832-17.244-40.049-26.229
				c-18.412-12.51-36.742-25.219-56.357-35.795c-2.469-1.332-6.275-0.479-7.447,2.271c-10.559,24.754-8.547,51.967,5.283,75.025
				c12.047,20.088,32.635,36.018,55.686,40.965C157.698,378.001,170.866,377.226,182.206,371.95z"/>
		</g>
		<path fill="#FFDE17" d="M200.956,201.437c0,0-46.51-22.213-24.484-52.672c0,0,27.072-22.9,51.656,9.84
			c0,0,8.541-36.324,38.634-23.994c0,0,36.961,10.34,14.939,40.801c0,0,39.689-3.988,43.525,9.943
			c3.834,13.932,13.111,43.541-34.152,36.189c0,0,38.451,25.621,29.775,40.965c-8.676,15.338-34.031,39.297-55.785,8.75
			c0,0-4.756,42-42.372,26.582c0,0-26.711-21.592-9.332-44.684c0,0-54.408,15.107-57.613-12.627
			C152.538,212.8,169.394,205.327,200.956,201.437z"/>
		<circle fill="#F26522" cx="247.852" cy="218.896" r="23.493"/>
		<path fill="#7F3F98" d="M531.911,351.207c-10.082,5.707-22.879,2.163-28.586-7.917c-5.709-10.082-2.162-22.882,7.916-28.584
			c10.082-5.711,22.881-2.166,28.588,7.915S541.991,345.499,531.911,351.207z"/>
		<path fill="#7F3F98" d="M497.21,371.067c-9.275,5.252-21.049,1.989-26.299-7.284c-5.25-9.272-1.988-21.049,7.283-26.302
			c9.275-5.251,21.049-1.985,26.299,7.286C509.745,354.045,506.485,365.815,497.21,371.067z"/>
		<g>
			<path fill="#EEAF21" d="M190.267,198.406c-15.721-5.959-28.231-28.432-23.426-44.739c2.954-10.026,13.985-15.081,23.758-13.276
				c9.582,1.77,17.654,9.373,20.166,18.707c0.717,2.662,4.33,3.726,6.268,1.654c5.885-6.284,11.568-12.74,17.896-18.591
				c6.496-6.003,14.591-12.274,23.796-12.632c8.977-0.349,15.729,6.919,17.689,15.059c2.367,9.82-0.318,21.027-2.143,30.703
				c-0.484,2.572,1.695,5.65,4.613,4.613c8.732-3.105,18.117-3.981,26.33,0.979c6.338,3.828,10.055,10.75,11.455,17.833
				c1.299,6.575-0.068,14.142-4.398,19.368c-5.662,6.833-14.77,7.807-23.055,6.836c-3.904-0.458-4.836,5.199-1.893,6.988
				c9.805,5.958,19.537,13.97,22.4,25.594c1.854,7.527-0.99,15.211-6.262,20.633c-5.32,5.471-12.926,7.995-20.447,7.425
				c-9.602-0.729-16.949-8.126-21.547-15.978c-2.059-3.518-6.543-1.575-6.988,1.893c-2.07,16.151-13.331,39.556-33.169,33.147
				c-21.121-6.823-15.541-33.386-12.408-49.846c0.449-2.369-1.031-4.743-3.617-4.747c-9.052-0.013-18.072,1.103-27.126,1.213
				c-8.683,0.106-19.468-0.143-26.407-6.137c-8.414-7.27-4.684-18.769,2.178-25.367c9.094-8.746,23.125-12.651,35.34-13.967
				c4.756-0.513,4.806-8.018,0-7.5c-21.557,2.322-61.585,17.998-46.984,46.826c5.037,9.947,17.453,12.571,27.514,13.398
				c11.85,0.975,23.648-0.983,35.486-0.967c-1.205-1.582-2.41-3.165-3.615-4.747c-2.219,11.663-4.338,23.446-2.596,35.316
				c1.777,12.127,10.064,20.468,21.492,24.159c24.451,7.899,38.915-21.292,41.413-40.783c-2.328,0.631-4.658,1.262-6.988,1.893
				c5.92,10.109,15.162,18.315,27.182,19.602c9.844,1.054,19.547-2.679,26.592-9.53c7.273-7.073,10.121-17.181,8.379-27.045
				c-2.447-13.854-14.707-24.078-26.035-30.962c-0.631,2.33-1.262,4.659-1.893,6.988c10.338,1.212,21.219-0.941,28.357-9.033
				c6.277-7.114,7.842-16.833,6.451-25.958c-1.395-9.149-6.809-17.429-14.398-22.619c-9.646-6.595-22.189-5.889-32.736-2.139
				c1.537,1.538,3.074,3.075,4.613,4.613c3.66-19.412,8.016-48.205-17.205-54.648c-21.415-5.471-40.058,19.448-52.569,32.812
				c2.09,0.552,4.178,1.103,6.268,1.654c-6.744-25.064-43.553-34.875-56.754-9.46c-10.718,20.633,7.046,50.421,27.029,57.995
				C192.804,207.355,194.743,200.104,190.267,198.406L190.267,198.406z"/>
		</g>
		<g>
			<path fill="#452F8B" d="M548.604,325.756c-0.648-13.309-9.062-22.801-22.549-23.627c-11.416-0.699-24.479,5.753-29.199,16.472
				c-5.902,13.4,3.295,30.091,17.883,31.653c15.791,1.69,31.279-14.46,30.92-29.7c-0.113-4.828-7.613-4.84-7.5,0
				c0.275,11.658-10.961,22.233-22.459,22.249c-10.598,0.016-15.947-13.935-11.422-22.354c3.924-7.301,13.127-10.875,21.029-10.844
				c9.592,0.038,15.348,6.92,15.797,16.151C541.339,330.569,548.841,330.593,548.604,325.756L548.604,325.756z"/>
		</g>
		<g>
			<path fill="#452F8B" d="M506.271,352.363c2.223-5.846,2.725-12.544-2.006-17.29c-4.145-4.159-10.934-4.663-16.434-4.167
				c-12.572,1.134-27.641,8.023-29.846,21.733c-2.294,14.272,10.861,21.784,23.447,21.595c14.031-0.21,27.299-9.509,27.572-24.342
				c0.09-4.839-7.41-4.83-7.5,0c-0.193,10.505-9.65,16.162-19.264,16.809c-8.047,0.541-18.469-3.085-16.887-12.923
				c1.537-9.561,12.656-13.66,21.033-15.174c3.85-0.695,8.463-0.764,11.928,1.28c3.678,2.169,1.889,7.419,0.723,10.484
				C497.315,354.897,504.567,356.837,506.271,352.363L506.271,352.363z"/>
		</g>
		<g>
			<path fill="#7F3F98" d="M406.117,120.571c-2.631,11.281-13.908,18.295-25.189,15.664c-11.283-2.631-18.295-13.91-15.662-25.188
				c2.629-11.285,13.908-18.297,25.188-15.666C401.734,98.015,408.746,109.29,406.117,120.571z"/>
			<path fill="#7F3F98" d="M397.219,159.552c-2.422,10.379-12.795,16.83-23.176,14.41c-10.377-2.422-16.83-12.797-14.412-23.176
				c2.422-10.379,12.799-16.828,23.174-14.408C393.188,138.8,399.637,149.171,397.219,159.552z"/>
			<path fill="#7F3F98" d="M389.605,192.987c-1.893,8.123-10.012,13.17-18.137,11.273c-8.119-1.891-13.168-10.01-11.275-18.133
				c1.895-8.123,10.014-13.166,18.135-11.275C386.451,176.747,391.5,184.866,389.605,192.987z"/>
			<g>
				<path fill="#452F8B" d="M398.816,91.156c-10.953-9.116-24.826-8.817-34.35,2.198c-7.939,9.185-11.293,24.135-4.01,34.654
					c8.164,11.792,26.838,13.522,35.709,1.839c8.699-11.458,7.883-30.39-3.174-40.049c-3.625-3.167-8.951,2.115-5.303,5.303
					c8.064,7.045,8.701,19.808,3.527,28.76c-5.363,9.279-18.971,8.036-24.734-0.289c-5.143-7.429-1.969-17.708,2.854-24.381
					c6.146-8.504,16.307-9.282,24.178-2.732C397.201,99.529,402.537,94.253,398.816,91.156L398.816,91.156z"/>
			</g>
			<g>
				<path fill="#452F8B" d="M389.652,140.308c-2.754-5.482-7.082-10.301-13.627-10.353c-6.043-0.048-11.232,4.786-14.658,9.252
					c-7.725,10.071-13.016,26.083-4.076,36.967c9.029,10.993,23.223,6.488,31.529-2.839c9.275-10.417,11.611-26.429,0.924-36.698
					c-3.484-3.351-8.795,1.946-5.303,5.303c7.494,7.202,5.664,17.797-0.338,25.393c-5.111,6.468-14.279,11.519-20.896,4.282
					c-6.516-7.121-1.834-18.593,2.482-25.572c2.02-3.269,4.959-6.868,8.682-8.231c4.424-1.62,7.119,2.926,8.805,6.282
					C385.346,148.416,391.816,144.617,389.652,140.308L389.652,140.308z"/>
			</g>
			<g>
				<path fill="#452F8B" d="M381.215,175.96c-20.035-14.335-44.207,23.029-25.143,36.855c20.227,14.67,38.615-20.253,28.252-36.492
					c-2.594-4.062-9.088-0.305-6.477,3.785c5.387,8.44-2.559,33.996-15.311,27.949c-14.748-6.993,1.434-35.251,14.893-25.621
					C381.373,185.257,385.111,178.748,381.215,175.96L381.215,175.96z"/>
			</g>
		</g>
		<g>
			<path fill="#B94126" d="M264.617,197.124c-9.18-12.431-24.304-17.631-37.44-7.601c-11.051,8.438-16.115,23.809-9.592,36.539
				c7.635,14.901,30.103,21.368,43.515,10.894c13.172-10.286,15.424-30.388,4.588-43.08c-1.613-1.892-3.66-3.416-5.701-4.812
				c-4.004-2.739-7.75,3.763-3.785,6.477c11.092,7.592,11.547,23.155,3.049,32.947c-9.385,10.815-26.956,6.202-34.323-4.743
				c-6.049-8.986-1.777-20.615,5.586-27.321c9.205-8.385,20.772-4.798,27.628,4.486C260.98,204.755,267.494,201.021,264.617,197.124
				L264.617,197.124z"/>
		</g>
		<g>
			<path fill="#8DC63F" d="M433.805,237.804c0,0-23.389-25.495-9.322-40.384c0,0,22.463,20.269,18.359,36.624
				c0,0,36.179-26.902,48.433-6.442c0,0-5.811,27.978-35.937,25.242c0,0,40.083,4.202,38.323,27.689c0,0-34.424,3.412-42.622-21.538
				"/>
			<path fill="#BE1E2D" d="M397.627,225.357c-9.473,7.976-48.037,75.906-25.578,96.171c22.457,20.268,89.741-21.047,92.872-28.646
				C474.536,269.562,416.783,209.228,397.627,225.357z"/>
			<g>
				<path fill="#89241B" d="M411.936,223.575c14.055,15.899,33.281,26.364,47.493,42.214c5.762,6.423,11.691,15.197,9.256,24.228
					c-2.066,7.662-11.577,10.838-18.251,12.903c-9.027,2.792-18.389,4.34-27.449,7.02c-8.342,2.467-15.656,6.887-23.305,10.901
					c-6.32,3.316-13.359,7.197-20.605,7.817c-7.012,0.601-9.141-5.094-9.75-11.189c-1.574-15.71,3.881-32.479,9.594-46.892
					c6.232-15.729,15.488-31.116,28.863-41.747c3.787-3.009-1.559-8.278-5.303-5.303c-18.584,14.769-29.512,38.018-36.043,60.333
					c-3.172,10.836-5.443,22.276-4.611,33.608c0.484,6.619,2.625,14.05,9.023,17.218c5.812,2.879,12.756,1.171,18.523-0.905
					c7.781-2.8,15.062-6.942,22.311-10.87c16.102-8.723,34.926-8.871,51.282-16.844c7.127-3.474,12.793-9.625,13.656-17.729
					c1.006-9.471-3.857-17.834-9.498-25.016c-13.974-17.798-35.009-28.223-49.884-45.05
					C414.029,214.642,408.746,219.967,411.936,223.575L411.936,223.575z"/>
			</g>
			<g>
				<path fill="#4B8A3F" d="M438.027,225.684c-7.645-7.152-5.445-17.922-3.135-26.999c-1.836,0.747-3.674,1.494-5.51,2.241
					c8.818,5.301,14.59,16.285,13.438,26.552c-0.281,2.512,2.596,4.151,4.748,3.616c16.606-4.13,31.978-8.832,49.317-7.481
					c-1.25-1.25-2.5-2.5-3.75-3.75c-0.256,13.564-18.305,18.984-26.643,27.064c-2.225,2.154-0.828,5.244,1.654,6.268
					c5.361,2.209,10.906,4.05,15.973,6.902c5.406,3.043,8.912,7.934,11.766,13.312c1.078-1.881,2.158-3.762,3.238-5.643
					c-9.605,0.907-21.744,0.475-27.16-8.876c-2.424-4.183-8.906-0.408-6.477,3.785c6.82,11.772,21.203,13.766,33.637,12.591
					c2.842-0.269,4.654-2.974,3.238-5.643c-3.328-6.272-7.537-11.553-13.527-15.441c-5.67-3.684-12.486-5.661-18.693-8.22
					c0.551,2.09,1.102,4.179,1.654,6.268c10.5-10.173,28.514-15.062,28.84-32.367c0.041-2.163-1.742-3.594-3.75-3.75
					c-17.994-1.402-34.072,3.462-51.312,7.749c1.582,1.205,3.164,2.411,4.746,3.616c1.438-12.808-6.27-26.486-17.152-33.028
					c-2.051-1.232-4.914-0.093-5.508,2.241c-2.996,11.772-4.689,25.171,5.064,34.296
					C436.252,234.286,441.566,228.994,438.027,225.684L438.027,225.684z"/>
			</g>
		</g>
		<g>
			<path fill="#4B8A3F" d="M84.933,268.153c-0.792,1.046-2.241,1.419-1.824,1.443c-1.235-0.07,0.471,0.149,0.848,0.26
				c1.77,0.519,3.017,1.136,4.662,1.923c5.119,2.448,10.035,5.336,14.908,8.232c13.625,8.1,26.863,16.861,39.998,25.727
				c12.385,8.36,24.666,16.89,36.73,25.706c3.492,2.552,6.992,5.109,10.343,7.847c0.757,0.618,1.528,1.243,2.196,1.959
				c-1.021-1.095-0.467-2.679-0.951-0.808c-2.301,8.875-9.284,17.512-16.12,23.664c-11.864,10.679-27.597,13.879-42.976,10.341
				c-29.709-6.835-53.572-32.567-58.357-62.671C71.945,296.394,76.874,281.121,84.933,268.153c2.561-4.12-3.93-7.883-6.476-3.785
				c-11.624,18.705-15.427,40.311-8.338,61.388c4.656,13.845,13.397,26.322,23.794,36.478
				c10.633,10.384,25.766,17.386,40.238,20.164c15.576,2.989,31.339-0.691,43.826-10.462c8.759-6.854,15.753-16.081,20.008-26.354
				c1.014-2.447,2.42-6.012,0.947-8.547c-1.221-2.101-3.742-3.642-5.601-5.088c-22.889-17.811-47.272-34.012-71.722-49.576
				c-8.876-5.65-17.842-11.27-27.211-16.075c-4.223-2.167-12.089-7.014-15.942-1.927C75.534,268.226,82.052,271.956,84.933,268.153z
				"/>
		</g>
	</g>
	
		<rect x="66.378" y="71.812" opacity="0.5" fill="none" stroke="#000000" stroke-miterlimit="10" stroke-dasharray="12" width="483.25" height="483.25"/>
	
		<rect x="30.006" y="35.44" opacity="0.5" fill="none" stroke="#000000" stroke-miterlimit="10" stroke-dasharray="12" width="555.994" height="555.994"/>
	<polyline fill="none" stroke="#000000" stroke-width="2" stroke-miterlimit="10" points="585.75,555.256 585.75,591.485 
		549.084,591.485 549.084,554.188 	"/>
	<rect x="31.194" y="607.334" fill="none" width="45.332" height="20.666"/>
	<text transform="matrix(1 0 0 1 31.1943 625.5742)" font-family="'OpenSans'" font-size="24">½x</text>
	<polyline fill="none" stroke="#000000" stroke-width="2" stroke-miterlimit="10" points="66.276,555.256 66.276,591.485 
		29.61,591.485 29.61,554.188 	"/>
	<polyline fill="none" stroke="#000000" stroke-width="2" stroke-miterlimit="10" points="548.762,555.26 548.762,591.489 
		66.096,591.489 66.096,554.191 	"/>
	<polyline fill="none" stroke="#000000" stroke-width="2" stroke-miterlimit="10" points="586,648.274 586,685 29.096,685 
		29.096,647.191 	"/>
	
		<rect x="30.006" y="35.44" opacity="0.5" fill="none" stroke="#000000" stroke-miterlimit="10" stroke-dasharray="12" width="555.994" height="648.989"/>
</g>
</svg>
