<?xml version="1.0" encoding="utf-8"?>
<!-- Generator: Adobe Illustrator 16.0.0, SVG Export Plug-In . SVG Version: 6.00 Build 0)  -->
<!DOCTYPE svg PUBLIC "-//W3C//DTD SVG 1.1//EN" "http://www.w3.org/Graphics/SVG/1.1/DTD/svg11.dtd">
<svg version="1.1" id="Layer_1" xmlns="http://www.w3.org/2000/svg" xmlns:xlink="http://www.w3.org/1999/xlink" x="0px" y="0px"
	 width="555.994px" height="555.995px" viewBox="-34 -46 555.994 555.995" enable-background="new -34 -46 555.994 555.995"
	 xml:space="preserve">
<rect x="-34" y="-46" fill="#F16522" width="555.994" height="555.995"/>
<g id="Layer_2">
</g>
<g id="Layer_1_1_">
	<path fill="#FFFFFF" d="M15.238,182.392c0,0-30.237,60.599,23.761,101.095c0,0,51.016,36.285,73.505-1.355L15.238,182.392z"/>
	<polygon fill="#FFFFFF" points="109.495,58.497 140.993,58.497 154.778,75.127 178.491,49.498 201.08,40.66 213.195,62.611 
		218.285,95.309 257.987,121.494 242.988,146.993 218.989,146.993 226.488,208.489 206.99,202.49 191.773,191.392 184.491,218.989 
		163.492,227.988 143.993,218.989 142.493,194.99 145.685,172.801 106.581,176.521 79.067,163.122 82.496,145.493 101.995,130.493 
		125.054,123.662 106.495,107.995 97.495,82.496 	"/>
	<polygon fill="#FFFFFF" points="326.556,7.949 311.224,7.949 295.891,27.282 304.557,46.616 295.224,79.949 299.891,97.949 
		288.557,114.616 296.557,130.616 313.224,124.616 317.89,97.949 	"/>
	<polygon fill="#FFFFFF" points="370.585,155.827 366.164,118.949 378.556,127.282 381.89,148.616 429.917,137.886 428.556,149.282 
		409.222,166.616 432.556,185.282 406.556,191.282 409.888,210.616 383.89,227.282 311.224,252.616 302.557,239.282 	"/>
	<polygon fill="#FFFFFF" points="436.556,251.95 439.888,231.949 462.556,224.616 479.222,233.95 465.222,261.282 441.275,262.792 
		411.222,285.95 397.888,276.616 403.222,261.282 	"/>
	<g>
		<path fill="#FFFFFF" d="M95.933,450.909c-1.491,0-2.844-0.592-4.059-1.768h-0.236c-0.902,0-2,0.061-3.295,0.178
			c-1.725,0.156-2.805,0.234-3.234,0.234c-2.668,0-4.924-0.605-6.766-1.822c-2.158-1.412-3.236-3.373-3.236-5.885
			c0-2.746,1.567-4.744,4.707-6.002l5.941-1.174c1.098-0.197,3.039-0.59,5.824-1.18c0.078-0.234,0.117-0.41,0.117-0.527
			c0-3.373-1.156-5.061-3.471-5.061c-1.256,0-2.941,0.883-5.06,2.646l-4.472,4l-1.234-0.469c-0.706-0.746-1.178-1.689-1.413-2.824
			c0.667-1.885,2.274-3.697,4.825-5.441c2.549-1.746,4.824-2.619,6.824-2.619c0.275,0,1.608,0.256,4,0.766
			c3.414,0.746,5.657,1.764,6.737,3.059c1.077,1.295,1.618,3.668,1.618,7.117c0,0.707-0.08,2.414-0.236,5.121
			c-0.117,2.039-0.176,3.727-0.176,5.061c0-0.158,0.117,0.998,0.354,3.469c0.038,0.393,0.059,0.729,0.059,1.004
			c0,1.41-1.021,2.117-3.061,2.117H95.933L95.933,450.909z M90.755,439.434c-1.137,0-2.646,0.258-4.529,0.768
			c-2.117,0.549-3.492,1.137-4.118,1.766l-0.411,0.41c-0.471,0.473-0.707,0.785-0.707,0.943c0,0.9,1.686,1.352,5.06,1.352
			c0.667,0,1.608-0.117,2.824-0.354c1.373-0.234,2.216-0.49,2.53-0.766c0.312-0.271,0.471-1.039,0.471-2.293
			C91.874,440.043,91.501,439.434,90.755,439.434z"/>
		<path fill="#FFFFFF" d="M114.024,425.256c2.426-1.516,4.057-2.273,4.891-2.273c3.071,0,4.607,1.1,4.607,3.297l-0.171,1.309
			l-1.251,0.738c-0.189,0-0.635-0.131-1.338-0.396c-0.701-0.266-1.185-0.396-1.449-0.396c-1.783,0-3.262,2.16-4.437,6.482
			c-0.909,3.336-1.364,6.312-1.364,8.93c0,0.682,0.057,1.555,0.17,2.615c0.152,1.441,0.229,2.312,0.229,2.615
			c0,1.289-0.816,1.936-2.445,1.936c-4.096,0-6.143-0.973-6.143-2.912c0-0.459,0.075-1.133,0.229-2.029
			c0.15-0.895,0.227-1.57,0.227-2.025v-4.971c0-6.242-0.398-10.773-1.195-13.592c0.721-1.066,2.787-1.6,6.199-1.6
			C112.868,422.981,113.948,423.741,114.024,425.256z"/>
		<path fill="#FFFFFF" d="M135.179,425.256c2.428-1.516,4.059-2.273,4.892-2.273c3.071,0,4.607,1.1,4.607,3.297l-0.171,1.309
			l-1.251,0.738c-0.19,0-0.636-0.131-1.337-0.396c-0.702-0.266-1.186-0.396-1.449-0.396c-1.783,0-3.262,2.16-4.437,6.482
			c-0.911,3.336-1.364,6.312-1.364,8.93c0,0.682,0.057,1.555,0.17,2.615c0.151,1.441,0.228,2.312,0.228,2.615
			c0,1.289-0.815,1.936-2.446,1.936c-4.094,0-6.143-0.973-6.143-2.912c0-0.459,0.076-1.133,0.229-2.029
			c0.151-0.895,0.229-1.57,0.229-2.025v-4.971c0-6.242-0.399-10.773-1.195-13.592c0.72-1.066,2.787-1.6,6.199-1.6
			C134.022,422.981,135.104,423.741,135.179,425.256z"/>
		<path fill="#FFFFFF" d="M166.661,450.909c-1.492,0-2.845-0.592-4.061-1.768h-0.234c-0.903,0-2.001,0.061-3.295,0.178
			c-1.727,0.156-2.805,0.234-3.236,0.234c-2.668,0-4.922-0.605-6.766-1.822c-2.158-1.412-3.236-3.373-3.236-5.885
			c0-2.746,1.568-4.744,4.707-6.002l5.941-1.174c1.098-0.197,3.041-0.59,5.825-1.18c0.078-0.234,0.118-0.41,0.118-0.527
			c0-3.373-1.157-5.061-3.471-5.061c-1.256,0-2.941,0.883-5.061,2.646l-4.471,4l-1.236-0.469c-0.705-0.746-1.176-1.689-1.412-2.824
			c0.666-1.885,2.274-3.697,4.825-5.441c2.55-1.746,4.824-2.619,6.825-2.619c0.273,0,1.607,0.256,4,0.766
			c3.412,0.746,5.656,1.764,6.736,3.059c1.078,1.295,1.618,3.668,1.618,7.117c0,0.707-0.08,2.414-0.235,5.121
			c-0.118,2.039-0.177,3.727-0.177,5.061c0-0.158,0.118,0.998,0.353,3.469c0.039,0.393,0.06,0.729,0.06,1.004
			c0,1.41-1.021,2.117-3.06,2.117H166.661L166.661,450.909z M161.482,439.434c-1.138,0-2.646,0.258-4.528,0.768
			c-2.118,0.549-3.492,1.137-4.119,1.766l-0.412,0.41c-0.471,0.473-0.707,0.785-0.707,0.943c0,0.9,1.688,1.352,5.061,1.352
			c0.666,0,1.607-0.117,2.824-0.354c1.373-0.234,2.216-0.49,2.529-0.766c0.314-0.271,0.471-1.039,0.471-2.293
			C162.601,440.043,162.228,439.434,161.482,439.434z"/>
		<path fill="#FFFFFF" d="M201.549,448.2c-0.04,1.059-1.492,1.59-4.354,1.59c-0.785,0-1.727-0.139-2.824-0.412
			c-1.373-0.352-2.06-0.842-2.06-1.469c0-1.062,0.104-2.295,0.313-3.707c0.334-2.158,0.502-3.375,0.502-3.648
			c0.084-0.627,0.127-1.273,0.127-1.941v-2c0-6.197-1.244-9.295-3.73-9.295c-3.672,0-5.508,5.014-5.508,15.041
			c0,1.756,0.158,3.729,0.471,5.912l-0.646,1.17c-1.021,0.232-1.846,0.352-2.471,0.352h-0.941c-3.178,0-4.766-0.742-4.766-2.227
			c0-1.211,0.057-2.441,0.176-3.689c0.354-3.709,0.529-5.76,0.529-6.152v-1.639c0-4.844-0.314-8.709-0.941-11.6
			c0.312-0.898,1.097-1.426,2.348-1.58h3.17c0.627,0,2.055,0.412,4.286,1.232c-0.196,0,0.998-0.115,3.581-0.35
			c0.431-0.039,0.762-0.062,0.997-0.062c4.344,0,7.425,0.885,9.245,2.646c1.821,1.768,2.729,4.807,2.729,9.121v2.59
			c0,0.115,0,0.842,0,2.176L201.549,448.2z"/>
		<path fill="#FFFFFF" d="M231.022,434.374c0,1.846,0.099,4.277,0.294,7.297l0.472,7.295c0.038,0.627,0.059,1.922,0.059,3.883
			c0,2.863-1.353,5.08-4.06,6.648c-2.196,1.295-4.844,1.941-7.941,1.941c-8.119,0-12.885-1.688-14.297-5.059
			c0.393-0.629,1.02-1.158,1.883-1.59c0.861-0.432,1.666-0.648,2.412-0.648c0.195,0,1.441,0.641,3.735,1.914s3.971,1.912,5.03,1.912
			c1.922,0,3.275-0.527,4.06-1.588c0.626-0.906,0.941-2.354,0.941-4.354c0-1.885-1.021-2.824-3.06-2.824
			c-0.705,0-1.922,0.078-3.646,0.234c-0.434,0.039-0.766,0.059-1.002,0.059c-6.627,0-9.941-3.646-9.941-10.943
			c0-3.84,0.783-7.332,2.353-10.471c1.96-3.92,4.667-5.883,8.118-5.883c0.824,0,1.707,0.137,2.648,0.41
			c2.274,0.67,3.549,1.002,3.824,1.002c0.117,0,0.578-0.188,1.382-0.559c0.804-0.375,1.402-0.561,1.795-0.561
			c1.726,0,3.726,0.312,6.001,0.938l0.354,1.062C231.494,427.198,231.022,430.493,231.022,434.374z M222.904,430.081
			c-0.117-2.156-0.824-3.236-2.117-3.236c-1.845,0-3.413,1.668-4.708,5c-1.138,2.904-1.705,5.514-1.705,7.826
			c0,4.471,1.196,6.707,3.589,6.707c1.566,0,2.804-0.939,3.705-2.824c0.745-1.488,1.119-3.119,1.119-4.883v-0.236
			c0.117-2.783,0.176-4.922,0.176-6.412v-0.764C222.963,431.102,222.943,430.709,222.904,430.081z"/>
		<path fill="#FFFFFF" d="M255.791,450.084c-2.668,0.744-4.668,1.117-6,1.117c-9.143,0-13.71-3.852-13.71-11.555
			c0-2.633,0.53-5.465,1.59-8.49c1.176-3.42,2.666-5.797,4.471-7.133c0.98-0.746,2.627-1.121,4.94-1.121
			c3.568,0,6.609,0.826,9.119,2.477c2.943,1.889,4.414,4.525,4.414,7.906c0,3.146-0.611,5.703-1.826,7.67
			c-1.451,2.398-3.646,3.6-6.588,3.6c-0.902,0-2.246-0.195-4.029-0.59c-1.784-0.393-3.131-0.59-4.03-0.59
			c-0.117,0-0.176,0.102-0.176,0.295c0,2.354,1.783,3.531,5.354,3.531c1.021,0,2.511-0.275,4.472-0.824
			c1.961-0.547,3.451-0.824,4.473-0.824c1.568,0,2.354,0.531,2.354,1.59S259.005,449.182,255.791,450.084z M250.023,426.905
			c-1.293,0-2.588,1.396-3.883,4.195c-1.1,2.4-1.646,4.432-1.646,6.084c0,1.023,0.471,1.852,1.412,2.482
			c0.824,0.551,1.764,0.826,2.824,0.826c1.371,0,2.51-1.143,3.412-3.426c0.744-1.893,1.117-3.803,1.117-5.732
			c0-1.143-0.254-2.127-0.766-2.955C251.908,427.397,251.082,426.905,250.023,426.905z"/>
		<path fill="#FFFFFF" d="M304.445,449.79c-2.434,0-4.59-0.295-6.473-0.883l-0.941-1.295c0.666-3.139,1-7.156,1-12.061
			c0-5.139-0.863-7.707-2.588-7.707c-2.275,0-3.883,2.203-4.824,6.611c-0.588,2.771-0.883,5.775-0.883,9.014
			c0,1.248,0.078,2.77,0.234,4.562c-0.586,1.17-2.352,1.758-5.293,1.758c-1.375,0-2.453-0.371-3.236-1.111l-0.354-0.525
			c-0.117-0.234-0.176-0.471-0.176-0.703c0-0.781,0.096-1.658,0.293-2.635c0.473-2.381,0.707-3.82,0.707-4.328v-2.635
			c0-6.553-1.197-9.83-3.591-9.83c-2,0-3.411,2.148-4.233,6.445c-0.473,2.486-0.707,5.324-0.707,8.52c0,1.854,0.078,3.688,0.234,5.5
			l-0.765,1.006c-0.627,0-1.56,0.049-2.795,0.148c-1.234,0.1-2.168,0.148-2.796,0.148c-1.646,0-2.471-0.574-2.471-1.715
			c0-1.771,0.078-3.939,0.236-6.5c0.352-5.752,0.529-9.375,0.529-10.871c0-2.207-0.314-4.139-0.941-5.793
			c0.744-1.221,2.096-1.832,4.059-1.832c2.511,0,4.334,0.393,5.474,1.176l0.293,0.707c2.979-0.549,4.862-0.824,5.647-0.824
			c1.49,0,2.883,0.256,4.179,0.766c0.155,0.08,0.51,0.234,1.059,0.471l2.707,1.178l4.353-1.766c1.647-0.666,3.395-0.998,5.238-0.998
			c3.215,0,5.52,0.715,6.911,2.145c1.392,1.434,2.089,3.756,2.089,6.973c0,0.354-0.021,1.373-0.061,3.059v2
			c0,0.471-0.059,0.844-0.176,1.119c0,0.273,0,0.352,0,0.234c0,0.273,0.037,0.861,0.117,1.764l0.412,4.824
			c0.037,0.473,0.059,1.061,0.059,1.768c0,0.586-0.266,1.086-0.795,1.5C305.652,449.583,305.07,449.79,304.445,449.79z"/>
		<path fill="#FFFFFF" d="M330.449,450.084c-2.668,0.744-4.668,1.117-6,1.117c-9.143,0-13.711-3.852-13.711-11.555
			c0-2.633,0.531-5.465,1.59-8.49c1.178-3.42,2.666-5.797,4.471-7.133c0.98-0.746,2.627-1.121,4.941-1.121
			c3.568,0,6.609,0.826,9.119,2.477c2.943,1.889,4.414,4.525,4.414,7.906c0,3.146-0.609,5.703-1.826,7.67
			c-1.449,2.398-3.646,3.6-6.588,3.6c-0.902,0-2.246-0.195-4.029-0.59c-1.785-0.393-3.129-0.59-4.031-0.59
			c-0.117,0-0.176,0.102-0.176,0.295c0,2.354,1.783,3.531,5.354,3.531c1.021,0,2.512-0.275,4.473-0.824
			c1.961-0.547,3.451-0.824,4.473-0.824c1.568,0,2.354,0.531,2.354,1.59S333.664,449.182,330.449,450.084z M324.681,426.905
			c-1.293,0-2.588,1.396-3.883,4.195c-1.098,2.4-1.645,4.432-1.645,6.084c0,1.023,0.471,1.852,1.412,2.482
			c0.822,0.551,1.764,0.826,2.822,0.826c1.371,0,2.512-1.143,3.412-3.426c0.744-1.893,1.117-3.803,1.117-5.732
			c0-1.143-0.254-2.127-0.764-2.955C326.566,427.397,325.74,426.905,324.681,426.905z"/>
		<path fill="#FFFFFF" d="M365.455,448.2c-0.041,1.059-1.492,1.59-4.355,1.59c-0.783,0-1.727-0.139-2.822-0.412
			c-1.371-0.352-2.061-0.842-2.061-1.469c0-1.062,0.105-2.295,0.314-3.707c0.334-2.158,0.502-3.375,0.502-3.648
			c0.082-0.627,0.125-1.273,0.125-1.941v-2c0-6.197-1.242-9.295-3.73-9.295c-3.67,0-5.506,5.014-5.506,15.041
			c0,1.756,0.156,3.729,0.471,5.912l-0.646,1.17c-1.021,0.232-1.844,0.352-2.469,0.352h-0.941c-3.178,0-4.766-0.742-4.766-2.227
			c0-1.211,0.059-2.441,0.176-3.689c0.354-3.709,0.529-5.76,0.529-6.152v-1.639c0-4.844-0.314-8.709-0.941-11.6
			c0.311-0.898,1.096-1.426,2.348-1.58h3.17c0.627,0,2.055,0.412,4.285,1.232c-0.195,0,0.998-0.115,3.582-0.35
			c0.432-0.039,0.764-0.062,0.998-0.062c4.342,0,7.424,0.885,9.244,2.646c1.82,1.768,2.729,4.807,2.729,9.121v2.59
			c0,0.115,0,0.842,0,2.176L365.455,448.2z"/>
		<path fill="#FFFFFF" d="M386.894,427.963c-1.531,0.273-3.027,0.51-4.482,0.705c-0.324,0.314-0.486,1.688-0.486,4.119
			c0,3.293,0.1,6.373,0.295,9.236l0.119,6.471c0.037,1.02-1.199,1.531-3.715,1.531c-1.471,0-2.98-0.434-4.525-1.295
			c-0.193-0.588-0.291-1.529-0.291-2.826c0,0.354,0-0.02,0-1.115v-4.648c0-0.273,0-0.768,0-1.471l0.236-10.119l-0.236-0.176
			l-2.352,0.115c-1.334,0.082-2.453-0.41-3.355-1.471c0.271-1.098,0.895-1.844,1.863-2.234l2.562-0.707
			c0.854-0.234,1.279-0.744,1.279-1.529c0,0.551-0.154-1.588-0.471-6.412c0.039-0.666,0.062-1.215,0.062-1.646
			c0-1.961,1.486-2.941,4.469-2.941h0.883c2.785,0,4.176,0.746,4.176,2.234c0,0.748-0.057,1.354-0.176,1.826l-0.41,5.115
			c0,0.98,0,1.609,0,1.885c0,0.863,0.725,1.293,2.176,1.293c1.686,0,2.844,0.963,3.469,2.883L386.894,427.963z"/>
		<path fill="#FFFFFF" d="M405.986,450.143c-0.514,0-1.258-0.051-2.236-0.146c-0.98-0.098-1.725-0.146-2.234-0.146
			c-2.434,0-4.746-0.178-6.943-0.529c-3.686-0.588-5.527-1.607-5.527-3.061c0-0.941,0.295-1.744,0.883-2.412
			c0.588-0.666,1.332-0.998,2.236-0.998c3.447,2.273,6.152,3.41,8.113,3.41c0.553,0,1.275-0.156,2.182-0.471
			c1.096-0.352,1.646-0.725,1.646-1.117c0-0.471-1.531-1.236-4.59-2.295c-1.217-0.432-3.061-1.059-5.531-1.883
			c-2.625-1.529-3.938-3.766-3.938-6.707c0-2.783,0.566-5.314,1.703-7.59c1.412-2.861,3.41-4.293,6-4.293
			c0.824,0,2,0.156,3.529,0.469l3.412,0.707c2.746,0.551,4.617,1.412,5.617,2.59c1,1.176,1.502,3.135,1.502,5.883
			c0,1.688-0.236,2.902-0.707,3.646c-0.588,0.941-1.668,1.412-3.234,1.412c-2.787,0-4.178-1.939-4.178-5.824v-1.412
			c0-2.197-0.391-3.293-1.176-3.293c-0.943,0-1.824,0.961-2.648,2.881c-0.705,1.688-1.061,3.08-1.061,4.178
			c0,2.117,1.219,3.729,3.652,4.824c1.135,0.51,3.389,1.549,6.762,3.117c2.434,1.139,3.648,2.453,3.648,3.943
			c0,1.293-0.844,2.488-2.529,3.59C408.808,449.633,407.359,450.143,405.986,450.143z"/>
	</g>
	<g>
		<path fill="#FFFFFF" d="M432.478,364.592c-2.375-0.521-2.127,7.302-10.473,18.207c-2.949,2.654-7.285,5.402-12.766,5.607
			c-7.025,0.258-11.709-4.945-14.314-9.123c-4.762-7.648-6.328-14.471-6.328-14.471s13.184-2.6,19.602-9.367
			c8.715-9.189,9.633-25.637-5.941-26.751c-21.537-1.538-34.299,19.888-34.299,35.425c-0.146-0.021-0.725,8.293,3.48,16.688
			c1.32,2.959,4.053,6.295,4.811,7.252c0.76,0.957,5.545,5.712,8.363,7.332c3.334,1.916,7.082,2.666,9.5,3.25
			c7.832,1,15.629,0.174,22.586-3.617c3.01-1.641,9.473-7.484,13.27-14.936C433.027,374.088,436.99,365.583,432.478,364.592z
			 M409.664,336.209c2.479,2.189,0.494,11.867-4.76,16.287c-7.633,6.42-16.691,6.869-16.824,6.94
			C388.199,355.312,398.675,326.519,409.664,336.209z"/>
		<path fill="#FFFFFF" d="M372.509,380.079c-3.5,4.062-8.688,8.312-13.188,8.688c-4.291,0.357-7.941-5.952-9.328-8.85
			c-5.08-10.612-6.254-24.315-5.773-35.746c0.117-2.762,0.459-3.144,0.459-3.144s10.676-9.552,17.416-20.387
			c7.697-12.372,21.91-47.435-0.023-57.583c-22.672-10.488-31.197,29.648-35.193,44.559c-1.219,4.594-4.764,19.565-4.619,36.805
			c-2.521,1.938-5.041,3.797-7.475,5.435c-3.646-21.675-40.689-22.903-47.451-4.196c1.572-4.35,10.19-21.451,12.153-25.895
			c4.289-9.741,8.438-20.338,9.982-30.938c1.502-10.298,1.651-24.322-5.58-28.375c-8.295-4.642-17.377-0.865-22.021,4.934
			c-9.09,11.318-16.067,30.828-17.561,49.35c-2.191,27.17,3.945,50.604,3.945,50.604s-8.656,19.857-13.26,19.281
			c-6.533-0.818-3.829-26.386-3.273-30.779c0.539-4.276,1.767-11.473,1.389-16.657c-0.444-6.099-19.127,7.728-19.237,13.539
			s1.125,17.748-5.981,29.229c-4.001,6.461-7.962,4.01-10.867-1.557c-3.621-10.286-4.547-23.609-4.015-33.582
			c0.271-5.273,1.124-9.037,1.124-9.037s7.256-8.781,10.365-13.76c7.727-12.354,28.516-49.494,6.36-58.316
			c-23.208-9.24-31.199,29.649-35.194,44.561c-0.806,3.031-2.62,10.615-3.724,20.363c-18.022-5.188-40.26,5.328-45.238,30.637
			c-1.772,9.013,0.75,18.514,1.994,21.632c-1.201,1.396-5.577,6.248-11.354,7.249c-5.16,0.893-10.869-3.055-15.076-8.422
			c-5.582-7.122-6.357-14.531-6.357-14.531s13.241-2.609,19.685-9.407c8.753-9.229,9.673-25.745-5.967-26.862
			c-19.686-1.408-32.067,16.285-34.136,31.242c-3.916-0.729-7.151-1.72-10.105-4.24c-4.9-4.182-8.348-10.543-7.968-17.248
			c0.329-5.83,4.395-15.021,10.362-17.455c6.191-2.523,11.709,0.539,11.616-0.996c-0.308-5.006-10.329-4.801-14.834-1.934
			c-6.302,4.01-9.968,9.516-11.042,16.973c-1.934,13.429,3.973,23.646,17.139,28.137c1.75,0.596,3.316,1.137,4.447,1.533
			c-0.165,2.013-0.162,9.779,4.215,18.088c2.017,3.827,5.105,9.271,13.5,13.555c7,3.57,12.485,3.664,20.888,1.143
			c6.487-1.946,14.696-9.607,16.987-11.654l0,0c11.26,22.301,36,12.332,44.854-7.507c1.952,7.202,4.871,13.61,9.558,17.327
			c1.062,1.094,2.236,1.926,3.531,2.355c0.725,0.242,1.438,0.395,2.143,0.498c0.096,0.025,0.178,0.068,0.273,0.092
			c0.686,0.16,1.422,0.145,2.18,0c8.165-0.502,14.843-9.334,18.869-16.062c0,0,1.684,13.405,7.991,15.497
			c4.554,1.498,7.122,1.123,10.925-0.236c9.805-3.509,17.166-21.296,20.545-26.938c4.019,5.584,1.974,4.861,5.945,6.188
			c1.254,0.417,3.159-0.125,3.25-1.205c0.09-1.076-0.15-2.683-0.599-4.3c-0.096-1.665,0.043-6.354,3.082-15.194
			c2.68-5.76,6.525-10.832,11.969-14.437c12.914-8.556,23.847,7.276,19.89,17.832c0,0-8.295,3.771-12.631,6.596
			c-8.117,5.298-17.509,14.495-12.062,23.872c4.428,7.617,19.574,11.305,27.287,6.453c10.943-6.889,17.441-15.559,17.443-40.395
			c2.504-1.486,5-3.082,7.422-4.734c0.133,1.812,0.295,3.636,0.529,5.466c2.705,21.138,8.855,48.788,35.305,40.675
			c5.389-1.652,13.248-8.541,17.738-13.574C374.947,382.967,373.406,381.651,372.509,380.079z M366.072,277.028
			c2.545,1.479,2.078,15.896-3.014,27.48c-8.188,18.619-13.725,25.283-18.059,28.173
			C344.679,318.555,361.414,274.325,366.072,277.028z M214.861,277.672c4.658,2.705-13.387,40.043-19.22,46.605
			C195.642,313.433,210.203,274.967,214.861,277.672z M117.063,336.461c2.492,2.199,0.497,11.918-4.779,16.355
			c-7.664,6.448-16.762,6.898-16.896,6.971C95.507,355.646,106.03,326.729,117.063,336.461z M155.1,382.127
			c-7.771-2.433-8.592-11.606-7.384-22.474c0.963-8.667,6.205-15.878,8.672-19.477c6.371-9.292,14.225-6.443,14.86-6.08
			c0.009,0.587,0.026,1.206,0.054,1.853c-0.424,6.844-0.391,14.346,0.578,21.922c0.522,4.078,1.111,8.532,1.93,12.957
			C169.334,376.472,159.749,383.579,155.1,382.127z M270.248,298.568c0.305-0.935,11.303-31.799,13.566-25.87
			c3.539,9.323-2.096,24.17-5.078,33.158c-2.393,7.262-13.25,30.814-13.688,31.045C264.561,323.545,266.083,311.284,270.248,298.568
			z M277.246,389.051c-5.397-1.133-3.842-8.209,1.908-13.534c5.178-4.798,14.693-9.097,15.191-8.951
			C292.68,372.788,287.057,391.104,277.246,389.051z"/>
		<path fill="#FFFFFF" d="M215.063,319.983c-0.571,6.889,6.599,10.7,12.625,7.385c5.957-3.277,7.04-8.731,7.759-14.933
			c-0.179,1.55-0.24-0.884-0.057-0.249C232.6,298.245,215.835,310.686,215.063,319.983z"/>
	</g>
	<g>
		<g>
			<path fill="#8DC63F" d="M118.987,289.974c13.52-6.287,23.875-17.856,30.027-31.341c1.217-2.668,0.83-5.479-1.273-7.577
				c-6.131-6.123-13.189-10.851-21.389-13.646c-0.393-0.133-0.771-0.205-1.139-0.231c-13.436-8.609-26.832-17.244-40.049-26.229
				c-18.412-12.51-36.742-25.219-56.357-35.795c-2.469-1.332-6.275-0.479-7.447,2.271c-10.559,24.754-8.547,51.967,5.283,75.026
				c12.047,20.088,32.635,36.018,55.686,40.965C94.479,296.024,107.647,295.249,118.987,289.974z"/>
		</g>
		<path fill="#FFDE17" d="M137.737,119.46c0,0-46.51-22.213-24.484-52.672c0,0,27.072-22.9,51.656,9.84
			c0,0,8.541-36.324,38.634-23.994c0,0,36.961,10.34,14.939,40.801c0,0,39.689-3.988,43.525,9.943
			c3.834,13.932,13.111,43.541-34.152,36.189c0,0,38.451,25.621,29.775,40.965c-8.676,15.338-34.031,39.297-55.786,8.75
			c0,0-4.756,42-42.372,26.582c0,0-26.711-21.592-9.332-44.684c0,0-54.408,15.107-57.613-12.627
			C89.319,130.823,106.175,123.351,137.737,119.46z"/>
		<circle fill="#F26522" cx="184.633" cy="136.919" r="23.493"/>
		<path fill="#7F3F98" d="M468.693,269.23c-10.082,5.707-22.881,2.163-28.586-7.917c-5.711-10.082-2.162-22.882,7.914-28.584
			c10.082-5.711,22.883-2.166,28.59,7.915S478.773,263.522,468.693,269.23z"/>
		<path fill="#7F3F98" d="M433.992,289.09c-9.275,5.252-21.049,1.99-26.299-7.283c-5.25-9.271-1.988-21.049,7.281-26.303
			c9.275-5.25,21.051-1.984,26.301,7.287C446.527,272.068,443.267,283.838,433.992,289.09z"/>
		<g>
			<path fill="#EEAF21" d="M127.048,116.43c-15.721-5.959-28.231-28.432-23.426-44.739c2.954-10.026,13.985-15.081,23.758-13.276
				c9.582,1.77,17.654,9.373,20.166,18.707c0.717,2.662,4.33,3.726,6.268,1.654c5.885-6.284,11.568-12.74,17.896-18.591
				c6.496-6.003,14.591-12.274,23.796-12.632c8.977-0.349,15.729,6.919,17.689,15.059c2.367,9.82-0.318,21.027-2.143,30.703
				c-0.484,2.572,1.695,5.65,4.613,4.613c8.732-3.104,18.117-3.98,26.33,0.979c6.338,3.828,10.055,10.75,11.456,17.833
				c1.299,6.575-0.068,14.142-4.398,19.368c-5.662,6.833-14.77,7.807-23.055,6.836c-3.904-0.458-4.836,5.199-1.893,6.988
				c9.805,5.958,19.537,13.97,22.399,25.594c1.854,7.527-0.989,15.211-6.261,20.633c-5.32,5.471-12.926,7.995-20.447,7.425
				c-9.602-0.729-16.949-8.126-21.547-15.978c-2.059-3.518-6.543-1.575-6.988,1.893c-2.07,16.151-13.331,39.556-33.169,33.147
				c-21.121-6.823-15.541-33.386-12.408-49.846c0.449-2.369-1.031-4.743-3.617-4.747c-9.052-0.013-18.072,1.103-27.126,1.213
				c-8.683,0.106-19.468-0.143-26.407-6.137c-8.414-7.27-4.684-18.769,2.178-25.367c9.094-8.746,23.125-12.651,35.34-13.967
				c4.756-0.513,4.806-8.018,0-7.5c-21.557,2.322-61.585,17.998-46.984,46.826c5.037,9.947,17.453,12.571,27.514,13.398
				c11.85,0.975,23.648-0.983,35.486-0.967c-1.205-1.582-2.41-3.165-3.615-4.747c-2.219,11.663-4.338,23.446-2.596,35.316
				c1.777,12.127,10.064,20.468,21.492,24.159c24.451,7.899,38.915-21.292,41.413-40.783c-2.328,0.631-4.658,1.262-6.988,1.893
				c5.92,10.109,15.162,18.315,27.182,19.602c9.844,1.054,19.547-2.679,26.591-9.53c7.273-7.073,10.121-17.181,8.379-27.045
				c-2.446-13.854-14.707-24.078-26.034-30.962c-0.631,2.33-1.262,4.659-1.893,6.988c10.338,1.212,21.218-0.941,28.357-9.033
				c6.277-7.114,7.842-16.833,6.451-25.958c-1.395-9.149-6.809-17.429-14.398-22.619c-9.646-6.595-22.189-5.889-32.736-2.139
				c1.537,1.538,3.074,3.075,4.613,4.613c3.66-19.412,8.016-48.205-17.205-54.648c-21.415-5.471-40.058,19.448-52.569,32.812
				c2.09,0.552,4.178,1.103,6.268,1.654c-6.744-25.064-43.553-34.875-56.754-9.46c-10.718,20.633,7.046,50.421,27.029,57.995
				C129.585,125.379,131.524,118.127,127.048,116.43L127.048,116.43z"/>
		</g>
		<g>
			<path fill="#452F8B" d="M485.386,243.779c-0.648-13.309-9.062-22.801-22.549-23.627c-11.416-0.699-24.479,5.753-29.199,16.472
				c-5.902,13.4,3.295,30.092,17.883,31.653c15.791,1.69,31.279-14.46,30.92-29.7c-0.113-4.828-7.613-4.84-7.5,0
				c0.275,11.658-10.961,22.233-22.459,22.25c-10.598,0.016-15.947-13.936-11.422-22.354c3.924-7.301,13.127-10.875,21.029-10.844
				c9.592,0.038,15.348,6.919,15.797,16.152C478.121,248.592,485.623,248.616,485.386,243.779L485.386,243.779z"/>
		</g>
		<g>
			<path fill="#452F8B" d="M443.052,270.387c2.223-5.846,2.725-12.545-2.006-17.29c-4.145-4.159-10.934-4.663-16.434-4.167
				c-12.572,1.134-27.643,8.023-29.848,21.732c-2.293,14.272,10.861,21.784,23.447,21.596c14.031-0.211,27.299-9.51,27.572-24.342
				c0.09-4.84-7.41-4.83-7.5,0c-0.193,10.504-9.65,16.162-19.264,16.809c-8.047,0.541-18.469-3.085-16.887-12.924
				c1.537-9.561,12.656-13.659,21.033-15.174c3.85-0.694,8.463-0.764,11.928,1.281c3.678,2.168,1.889,7.418,0.723,10.483
				C434.097,272.92,441.349,274.86,443.052,270.387L443.052,270.387z"/>
		</g>
		<g>
			<path fill="#7F3F98" d="M342.898,38.595c-2.631,11.281-13.908,18.295-25.189,15.664c-11.283-2.631-18.295-13.91-15.662-25.188
				c2.629-11.285,13.908-18.297,25.189-15.666C338.515,16.038,345.527,27.313,342.898,38.595z"/>
			<path fill="#7F3F98" d="M334,77.575c-2.422,10.379-12.795,16.83-23.176,14.41c-10.377-2.422-16.83-12.797-14.412-23.176
				c2.422-10.379,12.799-16.828,23.174-14.408C329.968,56.823,336.417,67.194,334,77.575z"/>
			<path fill="#7F3F98" d="M326.386,111.011c-1.893,8.123-10.012,13.17-18.137,11.273c-8.119-1.891-13.168-10.01-11.274-18.133
				c1.896-8.123,10.015-13.166,18.136-11.275C323.232,94.771,328.281,102.89,326.386,111.011z"/>
			<g>
				<path fill="#452F8B" d="M335.597,9.18c-10.953-9.116-24.824-8.817-34.35,2.198c-7.938,9.185-11.293,24.135-4.01,34.654
					c8.164,11.792,26.838,13.522,35.709,1.839c8.699-11.458,7.883-30.39-3.174-40.049c-3.625-3.167-8.951,2.115-5.303,5.303
					c8.064,7.045,8.701,19.808,3.527,28.76c-5.363,9.279-18.971,8.036-24.734-0.289c-5.143-7.429-1.969-17.708,2.854-24.381
					c6.146-8.504,16.307-9.282,24.178-2.732C333.982,17.553,339.318,12.276,335.597,9.18L335.597,9.18z"/>
			</g>
			<g>
				<path fill="#452F8B" d="M326.433,58.331c-2.754-5.482-7.082-10.301-13.627-10.353c-6.043-0.048-11.23,4.786-14.657,9.252
					c-7.726,10.071-13.017,26.083-4.075,36.967c9.028,10.993,23.223,6.488,31.527-2.839c9.275-10.417,11.611-26.429,0.926-36.698
					c-3.484-3.351-8.795,1.946-5.305,5.303c7.494,7.202,5.664,17.797-0.338,25.393c-5.109,6.468-14.277,11.519-20.896,4.282
					c-6.516-7.121-1.834-18.593,2.482-25.572c2.021-3.269,4.958-6.868,8.683-8.231c4.424-1.62,7.117,2.926,8.805,6.282
					C322.126,66.439,328.597,62.641,326.433,58.331L326.433,58.331z"/>
			</g>
			<g>
				<path fill="#452F8B" d="M317.996,93.983c-20.035-14.335-44.207,23.029-25.143,36.855c20.227,14.67,38.615-20.253,28.252-36.492
					c-2.594-4.062-9.088-0.305-6.477,3.785c5.387,8.44-2.559,33.996-15.312,27.949c-14.748-6.993,1.435-35.251,14.894-25.621
					C318.154,103.28,321.892,96.771,317.996,93.983L317.996,93.983z"/>
			</g>
		</g>
		<g>
			<path fill="#B94126" d="M201.398,115.147c-9.18-12.431-24.304-17.631-37.44-7.601c-11.051,8.438-16.115,23.809-9.592,36.539
				c7.635,14.901,30.103,21.368,43.515,10.894c13.172-10.286,15.424-30.388,4.588-43.08c-1.613-1.892-3.66-3.416-5.701-4.812
				c-4.004-2.739-7.75,3.763-3.785,6.477c11.092,7.592,11.547,23.155,3.049,32.947c-9.385,10.815-26.956,6.202-34.323-4.743
				c-6.049-8.986-1.777-20.615,5.586-27.321c9.205-8.385,20.772-4.798,27.628,4.486
				C197.762,122.778,204.275,119.044,201.398,115.147L201.398,115.147z"/>
		</g>
		<g>
			<path fill="#8DC63F" d="M370.585,155.827c0,0-23.389-25.495-9.322-40.384c0,0,22.463,20.269,18.359,36.624
				c0,0,36.18-26.902,48.434-6.442c0,0-5.811,27.978-35.938,25.242c0,0,40.084,4.202,38.324,27.689c0,0-34.426,3.412-42.623-21.538"
				/>
			<path fill="#BE1E2D" d="M334.408,143.381c-9.473,7.976-48.037,75.906-25.578,96.17c22.457,20.269,89.742-21.046,92.873-28.645
				C411.318,187.585,353.564,127.251,334.408,143.381z"/>
			<g>
				<path fill="#89241B" d="M348.716,141.599c14.057,15.899,33.281,26.364,47.494,42.214c5.762,6.423,11.691,15.197,9.256,24.228
					c-2.066,7.662-11.578,10.838-18.252,12.903c-9.025,2.792-18.389,4.34-27.449,7.02c-8.342,2.467-15.654,6.887-23.305,10.902
					c-6.32,3.315-13.359,7.196-20.604,7.816c-7.014,0.602-9.143-5.094-9.75-11.189c-1.574-15.709,3.881-32.479,9.594-46.892
					c6.23-15.729,15.488-31.116,28.863-41.747c3.785-3.009-1.561-8.278-5.305-5.303c-18.584,14.769-29.512,38.018-36.043,60.333
					c-3.172,10.836-5.442,22.276-4.61,33.609c0.483,6.618,2.625,14.049,9.022,17.217c5.812,2.879,12.756,1.172,18.523-0.904
					c7.781-2.801,15.062-6.941,22.311-10.87c16.104-8.723,34.926-8.871,51.283-16.844c7.127-3.474,12.793-9.625,13.656-17.729
					c1.006-9.471-3.857-17.834-9.498-25.016c-13.975-17.798-35.01-28.223-49.885-45.05
					C350.81,132.665,345.527,137.99,348.716,141.599L348.716,141.599z"/>
			</g>
			<g>
				<path fill="#4B8A3F" d="M374.808,143.707c-7.645-7.152-5.443-17.922-3.135-26.999c-1.836,0.747-3.674,1.494-5.51,2.241
					c8.818,5.301,14.59,16.285,13.438,26.552c-0.279,2.512,2.598,4.151,4.748,3.616c16.607-4.13,31.979-8.832,49.318-7.481
					c-1.25-1.25-2.5-2.5-3.75-3.75c-0.256,13.564-18.305,18.984-26.645,27.064c-2.225,2.154-0.826,5.244,1.654,6.268
					c5.361,2.209,10.906,4.05,15.975,6.902c5.404,3.043,8.91,7.934,11.766,13.312c1.078-1.881,2.158-3.762,3.238-5.643
					c-9.605,0.907-21.744,0.475-27.16-8.876c-2.424-4.183-8.906-0.408-6.479,3.785c6.82,11.771,21.203,13.766,33.639,12.591
					c2.842-0.269,4.652-2.974,3.236-5.643c-3.328-6.272-7.537-11.553-13.525-15.441c-5.67-3.684-12.486-5.661-18.693-8.22
					c0.551,2.09,1.102,4.179,1.654,6.268c10.5-10.173,28.514-15.062,28.84-32.367c0.041-2.163-1.742-3.594-3.75-3.75
					c-17.994-1.402-34.072,3.462-51.312,7.749c1.582,1.205,3.164,2.411,4.746,3.616c1.438-12.808-6.27-26.486-17.152-33.028
					c-2.051-1.232-4.914-0.093-5.508,2.241c-2.996,11.772-4.689,25.171,5.064,34.296
					C373.033,152.31,378.347,147.018,374.808,143.707L374.808,143.707z"/>
			</g>
		</g>
		<g>
			<path fill="#4B8A3F" d="M21.714,186.177c-0.792,1.046-2.241,1.419-1.824,1.443c-1.235-0.07,0.471,0.149,0.848,0.26
				c1.77,0.519,3.017,1.136,4.662,1.923c5.119,2.448,10.035,5.336,14.908,8.232c13.625,8.1,26.863,16.861,39.998,25.727
				c12.385,8.36,24.666,16.89,36.73,25.706c3.492,2.553,6.992,5.109,10.343,7.848c0.757,0.618,1.528,1.243,2.196,1.959
				c-1.021-1.095-0.467-2.679-0.951-0.809c-2.301,8.875-9.284,17.513-16.12,23.664c-11.864,10.68-27.597,13.879-42.976,10.342
				c-29.709-6.835-53.572-32.567-58.357-62.671C8.727,214.417,13.655,199.145,21.714,186.177c2.561-4.12-3.93-7.883-6.476-3.785
				C3.614,201.097-0.188,222.702,6.9,243.779c4.656,13.845,13.397,26.322,23.794,36.478c10.633,10.385,25.766,17.387,40.238,20.164
				c15.576,2.99,31.339-0.69,43.826-10.461c8.759-6.854,15.753-16.082,20.008-26.354c1.014-2.446,2.42-6.013,0.947-8.547
				c-1.221-2.101-3.742-3.642-5.601-5.088c-22.889-17.811-47.272-34.012-71.722-49.576c-8.876-5.65-17.842-11.27-27.211-16.075
				c-4.223-2.167-12.089-7.014-15.942-1.927C12.315,186.249,18.833,189.979,21.714,186.177z"/>
		</g>
	</g>
</g>
<path fill="#FFFFFF" d="M-1132.951,237.394c0,0-30.237,60.598,23.761,101.095c0,0,51.016,36.285,73.505-1.356L-1132.951,237.394z"/>
<polygon fill="#FFFFFF" points="-1038.694,113.5 -1007.196,113.5 -993.411,130.129 -969.698,104.5 -947.109,95.663 
	-934.994,117.614 -929.904,150.311 -890.202,176.497 -905.201,201.996 -929.2,201.996 -921.701,263.492 -941.199,257.493 
	-956.416,246.394 -963.698,273.992 -984.697,282.991 -1004.196,273.992 -1005.696,249.993 -1002.504,227.803 -1041.608,231.523 
	-1069.122,218.125 -1065.693,200.496 -1046.194,185.496 -1023.135,178.665 -1041.694,162.998 -1050.694,137.499 "/>
<polygon fill="#FFFFFF" points="-821.632,62.952 -836.965,62.952 -852.298,82.285 -843.632,101.619 -852.965,134.952 
	-848.298,152.952 -859.632,169.619 -851.632,185.619 -834.965,179.619 -830.298,152.952 "/>
<polygon fill="#FFFFFF" points="-777.603,210.83 -782.025,173.952 -769.632,182.285 -766.298,203.619 -718.272,192.888 
	-719.633,204.285 -738.967,221.619 -715.633,240.285 -741.633,246.285 -738.301,265.619 -764.298,282.285 -836.965,307.619 
	-845.632,294.285 "/>
<polygon fill="#FFFFFF" points="-711.633,306.952 -708.301,286.952 -685.633,279.619 -668.967,288.952 -682.967,316.285 
	-706.915,317.793 -736.967,340.952 -750.301,331.619 -744.967,316.285 "/>
<g>
	<path fill="#FFFFFF" d="M-1052.256,505.911c-1.491,0-2.844-0.591-4.059-1.766h-0.236c-0.902,0-2,0.059-3.295,0.176
		c-1.725,0.157-2.805,0.236-3.234,0.236c-2.668,0-4.924-0.606-6.766-1.824c-2.158-1.412-3.236-3.372-3.236-5.883
		c0-2.746,1.567-4.745,4.707-6.002l5.941-1.175c1.098-0.196,3.039-0.589,5.824-1.179c0.078-0.234,0.117-0.411,0.117-0.528
		c0-3.373-1.156-5.06-3.471-5.06c-1.256,0-2.941,0.883-5.06,2.646l-4.472,4l-1.234-0.469c-0.706-0.745-1.178-1.688-1.413-2.824
		c0.667-1.884,2.274-3.696,4.825-5.441c2.549-1.747,4.824-2.62,6.824-2.62c0.275,0,1.608,0.257,4,0.767
		c3.414,0.745,5.657,1.763,6.737,3.059c1.077,1.294,1.618,3.667,1.618,7.117c0,0.707-0.08,2.414-0.236,5.12
		c-0.117,2.039-0.176,3.727-0.176,5.06c0-0.157,0.117,0.999,0.354,3.47c0.038,0.393,0.059,0.729,0.059,1.003
		c0,1.41-1.021,2.117-3.061,2.117H-1052.256z M-1057.434,494.437c-1.137,0-2.646,0.257-4.529,0.766
		c-2.117,0.55-3.492,1.138-4.118,1.766l-0.411,0.41c-0.471,0.473-0.707,0.786-0.707,0.943c0,0.901,1.686,1.352,5.06,1.352
		c0.667,0,1.608-0.116,2.824-0.353c1.373-0.235,2.216-0.491,2.53-0.765c0.312-0.273,0.471-1.039,0.471-2.294
		C-1056.315,495.046-1056.688,494.437-1057.434,494.437z"/>
	<path fill="#FFFFFF" d="M-1034.165,480.259c2.426-1.517,4.057-2.275,4.891-2.275c3.071,0,4.607,1.1,4.607,3.298l-0.171,1.309
		l-1.251,0.738c-0.189,0-0.635-0.132-1.338-0.397c-0.701-0.265-1.185-0.397-1.449-0.397c-1.783,0-3.262,2.161-4.437,6.484
		c-0.909,3.335-1.364,6.312-1.364,8.928c0,0.682,0.057,1.555,0.17,2.616c0.152,1.442,0.229,2.313,0.229,2.615
		c0,1.289-0.816,1.935-2.445,1.935c-4.096,0-6.143-0.971-6.143-2.912c0-0.458,0.075-1.133,0.229-2.028
		c0.15-0.895,0.227-1.571,0.227-2.026v-4.97c0-6.243-0.398-10.774-1.195-13.592c0.721-1.066,2.787-1.6,6.199-1.6
		C-1035.321,477.984-1034.241,478.743-1034.165,480.259z"/>
	<path fill="#FFFFFF" d="M-1013.01,480.259c2.428-1.517,4.059-2.275,4.892-2.275c3.071,0,4.607,1.1,4.607,3.298l-0.171,1.309
		l-1.251,0.738c-0.19,0-0.636-0.132-1.337-0.397c-0.702-0.265-1.186-0.397-1.449-0.397c-1.783,0-3.262,2.161-4.437,6.484
		c-0.911,3.335-1.364,6.312-1.364,8.928c0,0.682,0.057,1.555,0.17,2.616c0.151,1.442,0.228,2.313,0.228,2.615
		c0,1.289-0.815,1.935-2.446,1.935c-4.094,0-6.143-0.971-6.143-2.912c0-0.458,0.076-1.133,0.229-2.028
		c0.151-0.895,0.229-1.571,0.229-2.026v-4.97c0-6.243-0.399-10.774-1.195-13.592c0.72-1.066,2.787-1.6,6.199-1.6
		C-1014.167,477.984-1013.084,478.743-1013.01,480.259z"/>
	<path fill="#FFFFFF" d="M-981.528,505.911c-1.492,0-2.845-0.591-4.061-1.766h-0.234c-0.903,0-2.001,0.059-3.295,0.176
		c-1.727,0.157-2.805,0.236-3.236,0.236c-2.668,0-4.922-0.606-6.766-1.824c-2.158-1.412-3.236-3.372-3.236-5.883
		c0-2.746,1.568-4.745,4.707-6.002l5.941-1.175c1.098-0.196,3.041-0.589,5.825-1.179c0.078-0.234,0.118-0.411,0.118-0.528
		c0-3.373-1.157-5.06-3.471-5.06c-1.256,0-2.941,0.883-5.061,2.646l-4.471,4l-1.236-0.469c-0.705-0.745-1.176-1.688-1.412-2.824
		c0.666-1.884,2.274-3.696,4.825-5.441c2.55-1.747,4.824-2.62,6.825-2.62c0.273,0,1.607,0.257,4,0.767
		c3.412,0.745,5.656,1.763,6.736,3.059c1.078,1.294,1.618,3.667,1.618,7.117c0,0.707-0.08,2.414-0.235,5.12
		c-0.118,2.039-0.177,3.727-0.177,5.06c0-0.157,0.118,0.999,0.353,3.47c0.039,0.393,0.06,0.729,0.06,1.003
		c0,1.41-1.021,2.117-3.06,2.117H-981.528z M-986.707,494.437c-1.138,0-2.646,0.257-4.528,0.766
		c-2.118,0.55-3.492,1.138-4.119,1.766l-0.412,0.41c-0.471,0.473-0.707,0.786-0.707,0.943c0,0.901,1.688,1.352,5.061,1.352
		c0.666,0,1.607-0.116,2.824-0.353c1.373-0.235,2.216-0.491,2.529-0.765c0.314-0.273,0.471-1.039,0.471-2.294
		C-985.588,495.046-985.961,494.437-986.707,494.437z"/>
	<path fill="#FFFFFF" d="M-946.64,503.203c-0.04,1.059-1.492,1.59-4.354,1.59c-0.785,0-1.727-0.139-2.824-0.412
		c-1.373-0.352-2.06-0.843-2.06-1.47c0-1.061,0.104-2.295,0.313-3.707c0.334-2.158,0.502-3.374,0.502-3.648
		c0.084-0.627,0.127-1.273,0.127-1.942v-1.999c0-6.197-1.244-9.296-3.73-9.296c-3.672,0-5.508,5.014-5.508,15.042
		c0,1.755,0.158,3.728,0.471,5.911l-0.646,1.17c-1.021,0.233-1.846,0.352-2.471,0.352h-0.941c-3.178,0-4.766-0.742-4.766-2.226
		c0-1.211,0.057-2.441,0.176-3.69c0.354-3.709,0.529-5.76,0.529-6.151v-1.639c0-4.844-0.314-8.71-0.941-11.6
		c0.312-0.898,1.097-1.426,2.348-1.581h3.17c0.627,0,2.055,0.412,4.286,1.234c-0.196,0,0.998-0.116,3.581-0.351
		c0.431-0.039,0.762-0.061,0.997-0.061c4.344,0,7.425,0.883,9.245,2.646c1.821,1.767,2.729,4.806,2.729,9.12v2.59
		c0,0.116,0,0.842,0,2.176L-946.64,503.203z"/>
	<path fill="#FFFFFF" d="M-917.167,489.376c0,1.845,0.099,4.276,0.294,7.297l0.472,7.295c0.038,0.627,0.059,1.921,0.059,3.883
		c0,2.862-1.353,5.079-4.06,6.648c-2.196,1.295-4.844,1.94-7.941,1.94c-8.119,0-12.885-1.686-14.297-5.058
		c0.393-0.629,1.02-1.158,1.883-1.59c0.861-0.432,1.666-0.647,2.412-0.647c0.195,0,1.441,0.639,3.735,1.914
		c2.294,1.272,3.971,1.911,5.03,1.911c1.922,0,3.275-0.528,4.06-1.588c0.626-0.905,0.941-2.354,0.941-4.354
		c0-1.883-1.021-2.824-3.06-2.824c-0.705,0-1.922,0.079-3.646,0.235c-0.434,0.039-0.766,0.059-1.002,0.059
		c-6.627,0-9.941-3.646-9.941-10.943c0-3.841,0.783-7.333,2.353-10.472c1.96-3.92,4.667-5.883,8.118-5.883
		c0.824,0,1.707,0.137,2.648,0.411c2.274,0.669,3.549,1.002,3.824,1.002c0.117,0,0.578-0.187,1.382-0.559
		c0.804-0.374,1.402-0.561,1.795-0.561c1.726,0,3.726,0.314,6.001,0.939l0.354,1.061
		C-916.695,482.2-917.167,485.496-917.167,489.376z M-925.285,485.083c-0.117-2.156-0.824-3.235-2.117-3.235
		c-1.845,0-3.413,1.668-4.708,5c-1.138,2.904-1.705,5.513-1.705,7.826c0,4.471,1.196,6.706,3.589,6.706
		c1.566,0,2.804-0.939,3.705-2.823c0.745-1.49,1.119-3.119,1.119-4.883v-0.236c0.117-2.784,0.176-4.922,0.176-6.413v-0.764
		C-925.226,486.104-925.246,485.711-925.285,485.083z"/>
	<path fill="#FFFFFF" d="M-892.398,505.086c-2.668,0.744-4.668,1.117-6,1.117c-9.143,0-13.711-3.851-13.711-11.555
		c0-2.632,0.53-5.464,1.59-8.489c1.176-3.42,2.666-5.797,4.471-7.134c0.98-0.746,2.627-1.12,4.941-1.12
		c3.568,0,6.609,0.825,9.119,2.477c2.943,1.888,4.414,4.525,4.414,7.905c0,3.148-0.611,5.703-1.826,7.67
		c-1.451,2.398-3.646,3.6-6.588,3.6c-0.902,0-2.246-0.196-4.029-0.589c-1.785-0.393-3.131-0.59-4.031-0.59
		c-0.117,0-0.176,0.101-0.176,0.295c0,2.353,1.783,3.53,5.354,3.53c1.02,0,2.51-0.274,4.471-0.824
		c1.961-0.547,3.451-0.824,4.473-0.824c1.568,0,2.354,0.532,2.354,1.59S-889.183,504.184-892.398,505.086z M-898.166,481.907
		c-1.293,0-2.588,1.397-3.883,4.196c-1.1,2.401-1.646,4.432-1.646,6.084c0,1.024,0.471,1.852,1.412,2.482
		c0.824,0.552,1.764,0.827,2.824,0.827c1.371,0,2.51-1.142,3.412-3.427c0.744-1.891,1.117-3.802,1.117-5.731
		c0-1.143-0.254-2.128-0.766-2.956C-896.281,482.398-897.107,481.907-898.166,481.907z"/>
	<path fill="#FFFFFF" d="M-843.744,504.792c-2.434,0-4.59-0.295-6.473-0.883l-0.941-1.295c0.666-3.138,1-7.156,1-12.06
		c0-5.139-0.863-7.708-2.588-7.708c-2.275,0-3.883,2.204-4.824,6.612c-0.588,2.771-0.883,5.774-0.883,9.013
		c0,1.249,0.078,2.77,0.234,4.563c-0.586,1.17-2.352,1.757-5.293,1.757c-1.375,0-2.453-0.371-3.236-1.111l-0.354-0.526
		c-0.117-0.234-0.176-0.47-0.176-0.703c0-0.78,0.096-1.658,0.293-2.634c0.473-2.38,0.707-3.821,0.707-4.329v-2.633
		c0-6.554-1.197-9.831-3.59-9.831c-2,0-3.412,2.148-4.234,6.446c-0.473,2.485-0.707,5.324-0.707,8.518
		c0,1.854,0.078,3.688,0.234,5.501l-0.764,1.006c-0.627,0-1.559,0.049-2.795,0.149c-1.234,0.098-2.168,0.147-2.795,0.147
		c-1.646,0-2.471-0.573-2.471-1.715c0-1.771,0.078-3.938,0.236-6.5c0.352-5.751,0.529-9.375,0.529-10.871
		c0-2.206-0.314-4.138-0.941-5.792c0.744-1.222,2.096-1.832,4.059-1.832c2.51,0,4.334,0.393,5.473,1.175l0.293,0.707
		c2.98-0.548,4.863-0.824,5.648-0.824c1.49,0,2.883,0.256,4.178,0.765c0.156,0.08,0.51,0.235,1.059,0.472l2.707,1.178l4.352-1.767
		c1.648-0.665,3.395-0.998,5.238-0.998c3.215,0,5.52,0.716,6.912,2.146c1.391,1.433,2.088,3.755,2.088,6.971
		c0,0.354-0.02,1.374-0.059,3.06v2c0,0.471-0.059,0.844-0.176,1.118c0,0.274,0,0.353,0,0.235c0,0.274,0.037,0.862,0.117,1.764
		l0.412,4.824c0.037,0.472,0.059,1.061,0.059,1.767c0,0.587-0.266,1.087-0.795,1.5
		C-842.537,504.585-843.119,504.792-843.744,504.792z"/>
	<path fill="#FFFFFF" d="M-817.74,505.086c-2.668,0.744-4.668,1.117-6,1.117c-9.143,0-13.711-3.851-13.711-11.555
		c0-2.632,0.531-5.464,1.59-8.489c1.178-3.42,2.666-5.797,4.471-7.134c0.98-0.746,2.627-1.12,4.941-1.12
		c3.568,0,6.609,0.825,9.119,2.477c2.943,1.888,4.414,4.525,4.414,7.905c0,3.148-0.609,5.703-1.826,7.67
		c-1.449,2.398-3.646,3.6-6.588,3.6c-0.902,0-2.246-0.196-4.029-0.589c-1.785-0.393-3.129-0.59-4.031-0.59
		c-0.117,0-0.176,0.101-0.176,0.295c0,2.353,1.783,3.53,5.354,3.53c1.02,0,2.51-0.274,4.471-0.824
		c1.961-0.547,3.451-0.824,4.473-0.824c1.568,0,2.354,0.532,2.354,1.59S-814.525,504.184-817.74,505.086z M-823.507,481.907
		c-1.293,0-2.588,1.397-3.883,4.196c-1.098,2.401-1.646,4.432-1.646,6.084c0,1.024,0.471,1.852,1.412,2.482
		c0.824,0.552,1.764,0.827,2.824,0.827c1.371,0,2.51-1.142,3.412-3.427c0.744-1.891,1.117-3.802,1.117-5.731
		c0-1.143-0.254-2.128-0.764-2.956C-821.623,482.398-822.449,481.907-823.507,481.907z"/>
	<path fill="#FFFFFF" d="M-782.734,503.203c-0.041,1.059-1.492,1.59-4.355,1.59c-0.785,0-1.727-0.139-2.824-0.412
		c-1.371-0.352-2.059-0.843-2.059-1.47c0-1.061,0.104-2.295,0.314-3.707c0.334-2.158,0.502-3.374,0.502-3.648
		c0.082-0.627,0.125-1.273,0.125-1.942v-1.999c0-6.197-1.242-9.296-3.73-9.296c-3.67,0-5.506,5.014-5.506,15.042
		c0,1.755,0.156,3.728,0.471,5.911l-0.648,1.17c-1.02,0.233-1.844,0.352-2.469,0.352h-0.941c-3.178,0-4.766-0.742-4.766-2.226
		c0-1.211,0.059-2.441,0.176-3.69c0.354-3.709,0.529-5.76,0.529-6.151v-1.639c0-4.844-0.314-8.71-0.941-11.6
		c0.312-0.898,1.096-1.426,2.348-1.581h3.17c0.627,0,2.055,0.412,4.285,1.234c-0.195,0,0.998-0.116,3.582-0.351
		c0.432-0.039,0.764-0.061,0.998-0.061c4.342,0,7.424,0.883,9.244,2.646c1.82,1.767,2.73,4.806,2.73,9.12v2.59
		c0,0.116,0,0.842,0,2.176L-782.734,503.203z"/>
	<path fill="#FFFFFF" d="M-761.294,482.965c-1.533,0.274-3.029,0.51-4.484,0.705c-0.324,0.315-0.486,1.687-0.486,4.119
		c0,3.294,0.1,6.374,0.295,9.237l0.119,6.47c0.037,1.021-1.199,1.531-3.715,1.531c-1.471,0-2.98-0.433-4.525-1.295
		c-0.193-0.587-0.291-1.529-0.291-2.825c0,0.354,0-0.019,0-1.116v-4.647c0-0.274,0-0.768,0-1.471l0.236-10.119l-0.236-0.177
		l-2.352,0.115c-1.334,0.082-2.453-0.41-3.354-1.469c0.271-1.098,0.893-1.844,1.863-2.236l2.561-0.706
		c0.855-0.235,1.281-0.744,1.281-1.529c0,0.55-0.156-1.588-0.471-6.412c0.039-0.666,0.061-1.215,0.061-1.647
		c0-1.961,1.488-2.942,4.469-2.942h0.883c2.785,0,4.176,0.746,4.176,2.235c0,0.747-0.057,1.354-0.176,1.825l-0.41,5.117
		c0,0.98,0,1.608,0,1.883c0,0.864,0.725,1.294,2.176,1.294c1.686,0,2.844,0.962,3.469,2.883L-761.294,482.965z"/>
	<path fill="#FFFFFF" d="M-742.204,505.145c-0.512,0-1.256-0.051-2.236-0.147c-0.98-0.098-1.725-0.146-2.234-0.146
		c-2.434,0-4.746-0.177-6.943-0.53c-3.685-0.588-5.528-1.606-5.528-3.059c0-0.942,0.295-1.744,0.883-2.412
		c0.588-0.667,1.332-0.999,2.236-0.999c3.448,2.274,6.153,3.411,8.114,3.411c0.553,0,1.275-0.157,2.182-0.472
		c1.096-0.351,1.646-0.725,1.646-1.117c0-0.47-1.531-1.236-4.59-2.295c-1.217-0.431-3.061-1.059-5.531-1.882
		c-2.626-1.53-3.938-3.766-3.938-6.707c0-2.784,0.566-5.314,1.703-7.59c1.412-2.862,3.411-4.294,6.001-4.294
		c0.824,0,2,0.156,3.529,0.47l3.412,0.707c2.746,0.55,4.617,1.411,5.617,2.589c1,1.176,1.502,3.136,1.502,5.883
		c0,1.688-0.236,2.903-0.707,3.646c-0.588,0.942-1.668,1.413-3.234,1.413c-2.787,0-4.178-1.94-4.178-5.825v-1.412
		c0-2.196-0.391-3.293-1.176-3.293c-0.943,0-1.824,0.961-2.648,2.881c-0.705,1.688-1.061,3.081-1.061,4.178
		c0,2.117,1.219,3.728,3.652,4.824c1.135,0.511,3.389,1.55,6.762,3.117c2.434,1.14,3.648,2.454,3.648,3.943
		c0,1.294-0.844,2.49-2.529,3.59C-739.381,504.635-740.831,505.145-742.204,505.145z"/>
</g>
<g>
	<path fill="#FFFFFF" d="M-715.711,419.594c-2.375-0.521-2.127,7.302-10.473,18.207c-2.949,2.654-7.285,5.402-12.766,5.607
		c-7.025,0.258-11.709-4.944-14.314-9.123c-4.761-7.648-6.327-14.47-6.327-14.47s13.183-2.6,19.601-9.367
		c8.715-9.19,9.633-25.637-5.941-26.751c-21.538-1.539-34.3,19.888-34.3,35.425c-0.146-0.022-0.725,8.292,3.48,16.687
		c1.322,2.959,4.053,6.295,4.812,7.252s5.545,5.712,8.363,7.332c3.334,1.917,7.082,2.667,9.499,3.25
		c7.832,1,15.629,0.173,22.586-3.617c3.01-1.64,9.473-7.484,13.271-14.935C-715.163,429.09-711.2,420.584-715.711,419.594z
		 M-738.526,391.211c2.48,2.19,0.494,11.868-4.76,16.287c-7.631,6.42-16.69,6.869-16.823,6.941
		C-759.99,410.315-749.514,381.521-738.526,391.211z"/>
	<path fill="#FFFFFF" d="M-775.679,435.081c-3.5,4.062-8.688,8.312-13.188,8.688c-4.291,0.357-7.941-5.952-9.328-8.849
		c-5.08-10.613-6.254-24.316-5.773-35.747c0.117-2.762,0.459-3.143,0.459-3.143s10.674-9.552,17.416-20.387
		c7.697-12.372,21.91-47.435-0.025-57.583c-22.672-10.488-31.197,29.649-35.193,44.558c-1.219,4.594-4.764,19.566-4.619,36.806
		c-2.521,1.937-5.041,3.797-7.475,5.434c-3.645-21.675-40.689-22.903-47.451-4.197c1.572-4.349,10.191-21.45,12.154-25.894
		c4.289-9.741,8.438-20.337,9.982-30.937c1.502-10.298,1.652-24.322-5.58-28.375c-8.295-4.642-17.377-0.865-22.02,4.933
		c-9.09,11.318-16.068,30.829-17.561,49.35c-2.191,27.17,3.945,50.604,3.945,50.604s-8.656,19.857-13.26,19.28
		c-6.533-0.817-3.829-26.385-3.273-30.778c0.539-4.277,1.767-11.474,1.389-16.658c-0.444-6.099-19.127,7.728-19.237,13.539
		c-0.11,5.811,1.125,17.748-5.981,29.229c-4.001,6.462-7.962,4.011-10.867-1.556c-3.621-10.286-4.547-23.61-4.015-33.582
		c0.271-5.274,1.124-9.037,1.124-9.037s7.256-8.781,10.365-13.76c7.727-12.354,28.516-49.494,6.36-58.316
		c-23.208-9.24-31.199,29.649-35.194,44.56c-0.806,3.032-2.62,10.615-3.724,20.364c-18.022-5.189-40.26,5.328-45.238,30.636
		c-1.772,9.013,0.75,18.514,1.994,21.632c-1.201,1.395-5.577,6.248-11.354,7.249c-5.16,0.893-10.869-3.055-15.076-8.422
		c-5.582-7.122-6.357-14.531-6.357-14.531s13.241-2.61,19.685-9.407c8.753-9.229,9.673-25.745-5.967-26.863
		c-19.686-1.407-32.067,16.286-34.136,31.243c-3.916-0.729-7.151-1.72-10.105-4.24c-4.9-4.182-8.348-10.543-7.968-17.249
		c0.329-5.83,4.395-15.021,10.362-17.455c6.191-2.523,11.709,0.539,11.616-0.996c-0.308-5.006-10.329-4.8-14.834-1.933
		c-6.302,4.01-9.968,9.515-11.042,16.972c-1.934,13.429,3.973,23.647,17.139,28.137c1.75,0.595,3.316,1.137,4.447,1.533
		c-0.165,2.013-0.162,9.779,4.215,18.088c2.017,3.827,5.105,9.272,13.5,13.555c7,3.57,12.485,3.664,20.888,1.143
		c6.487-1.947,14.696-9.608,16.987-11.655l0,0c11.26,22.3,36,12.333,44.854-7.507c1.952,7.203,4.871,13.611,9.558,17.327
		c1.062,1.095,2.236,1.926,3.531,2.356c0.725,0.242,1.438,0.395,2.143,0.498c0.096,0.025,0.178,0.068,0.273,0.091
		c0.686,0.161,1.422,0.146,2.18,0c8.165-0.501,14.843-9.334,18.869-16.061c0,0,1.684,13.405,7.991,15.497
		c4.554,1.499,7.122,1.123,10.925-0.237c9.805-3.508,17.166-21.295,20.545-26.937c4.018,5.585,1.973,4.862,5.945,6.188
		c1.254,0.417,3.16-0.125,3.25-1.205c0.09-1.077-0.15-2.683-0.598-4.3c-0.096-1.665,0.043-6.354,3.082-15.195
		c2.68-5.759,6.525-10.832,11.969-14.436c12.914-8.555,23.846,7.276,19.889,17.832c0,0-8.295,3.771-12.631,6.596
		c-8.117,5.298-17.508,14.495-12.061,23.872c4.428,7.618,19.574,11.305,27.287,6.453c10.943-6.888,17.441-15.559,17.443-40.395
		c2.504-1.486,5-3.081,7.422-4.734c0.133,1.813,0.295,3.636,0.529,5.466c2.705,21.137,8.855,48.788,35.305,40.675
		c5.389-1.653,13.248-8.541,17.738-13.574C-773.242,437.969-774.783,436.654-775.679,435.081z M-782.117,332.031
		c2.545,1.479,2.078,15.896-3.014,27.48c-8.188,18.62-13.725,25.283-18.059,28.173
		C-803.509,373.557-786.775,329.327-782.117,332.031z M-933.328,332.674c4.658,2.706-13.387,40.044-19.22,46.606
		C-952.547,368.435-937.986,329.969-933.328,332.674z M-1031.125,391.463c2.492,2.199,0.497,11.919-4.779,16.356
		c-7.664,6.448-16.762,6.898-16.896,6.97C-1052.682,410.648-1042.159,381.731-1031.125,391.463z M-993.089,437.129
		c-7.771-2.432-8.592-11.606-7.384-22.473c0.963-8.667,6.205-15.878,8.672-19.477c6.371-9.292,14.225-6.443,14.86-6.08
		c0.009,0.587,0.026,1.206,0.054,1.852c-0.424,6.845-0.391,14.347,0.578,21.922c0.522,4.079,1.111,8.533,1.93,12.957
		C-978.855,431.474-988.44,438.581-993.089,437.129z M-877.941,353.571c0.305-0.934,11.303-31.799,13.566-25.871
		c3.539,9.324-2.096,24.17-5.078,33.159c-2.393,7.261-13.25,30.815-13.688,31.045C-883.628,378.547-882.105,366.286-877.941,353.571
		z M-870.943,444.053c-5.398-1.133-3.842-8.209,1.908-13.534c5.178-4.798,14.693-9.096,15.191-8.951
		C-855.509,427.791-861.132,446.107-870.943,444.053z"/>
	<path fill="#FFFFFF" d="M-933.125,374.986c-0.571,6.888,6.599,10.7,12.625,7.384c5.957-3.277,7.04-8.731,7.759-14.932
		c-0.179,1.55-0.24-0.883-0.057-0.249C-915.589,353.247-932.354,365.688-933.125,374.986z"/>
</g>
<g>
	<g>
		<path fill="#8BC53F" d="M-1029.202,344.976c13.52-6.287,23.875-17.857,30.027-31.34c1.217-2.668,0.83-5.48-1.273-7.578
			c-6.131-6.123-13.189-10.85-21.389-13.645c-0.393-0.133-0.771-0.205-1.139-0.232c-13.436-8.609-26.832-17.244-40.049-26.229
			c-18.412-12.51-36.742-25.219-56.357-35.795c-2.469-1.332-6.275-0.479-7.447,2.271c-10.559,24.754-8.547,51.967,5.283,75.025
			c12.047,20.088,32.635,36.018,55.686,40.965C-1053.709,351.027-1040.542,350.251-1029.202,344.976z"/>
	</g>
	<path fill="#FFDD15" d="M-1010.452,174.462c0,0-46.51-22.213-24.484-52.672c0,0,27.072-22.9,51.656,9.84
		c0,0,8.541-36.324,38.634-23.994c0,0,36.961,10.34,14.939,40.801c0,0,39.689-3.988,43.525,9.943
		c3.834,13.932,13.111,43.541-34.152,36.189c0,0,38.451,25.621,29.775,40.965c-8.676,15.338-34.031,39.297-55.785,8.75
		c0,0-4.756,42-42.372,26.582c0,0-26.711-21.592-9.332-44.684c0,0-54.408,15.107-57.613-12.627
		C-1058.87,185.826-1042.014,178.353-1010.452,174.462z"/>
	<circle fill="#F16522" cx="-963.556" cy="191.921" r="23.493"/>
	<path fill="#7F3F97" d="M-679.497,324.233c-10.082,5.707-22.879,2.163-28.586-7.917c-5.709-10.082-2.162-22.882,7.916-28.584
		c10.082-5.711,22.881-2.166,28.588,7.915S-669.417,318.525-679.497,324.233z"/>
	<path fill="#7F3F97" d="M-714.198,344.093c-9.275,5.252-21.049,1.989-26.299-7.284c-5.25-9.272-1.988-21.049,7.283-26.302
		c9.275-5.251,21.049-1.985,26.299,7.286C-701.663,327.071-704.922,338.841-714.198,344.093z"/>
	<g>
		<path fill="#EEAE21" d="M-1021.141,171.432c-15.721-5.959-28.231-28.432-23.426-44.739c2.954-10.026,13.985-15.081,23.758-13.276
			c9.582,1.77,17.654,9.373,20.166,18.707c0.717,2.662,4.33,3.726,6.268,1.654c5.885-6.284,11.568-12.74,17.896-18.591
			c6.496-6.003,14.591-12.274,23.796-12.632c8.977-0.349,15.729,6.919,17.689,15.059c2.367,9.82-0.318,21.027-2.143,30.703
			c-0.484,2.572,1.695,5.65,4.613,4.613c8.732-3.105,18.117-3.981,26.33,0.979c6.338,3.828,10.055,10.75,11.455,17.833
			c1.299,6.575-0.068,14.142-4.398,19.368c-5.662,6.833-14.77,7.807-23.055,6.836c-3.904-0.458-4.836,5.199-1.893,6.988
			c9.805,5.958,19.537,13.97,22.4,25.594c1.854,7.527-0.99,15.211-6.262,20.633c-5.32,5.471-12.926,7.995-20.447,7.425
			c-9.602-0.729-16.949-8.126-21.547-15.978c-2.059-3.518-6.543-1.575-6.988,1.893c-2.07,16.151-13.331,39.556-33.169,33.147
			c-21.121-6.823-15.541-33.386-12.408-49.846c0.449-2.369-1.031-4.743-3.617-4.747c-9.052-0.013-18.072,1.103-27.126,1.213
			c-8.683,0.106-19.468-0.143-26.407-6.137c-8.414-7.27-4.684-18.769,2.178-25.367c9.094-8.746,23.125-12.651,35.34-13.967
			c4.756-0.513,4.806-8.018,0-7.5c-21.557,2.322-61.585,17.998-46.984,46.826c5.037,9.947,17.453,12.571,27.514,13.398
			c11.85,0.975,23.648-0.983,35.486-0.967c-1.205-1.582-2.41-3.165-3.615-4.747c-2.219,11.663-4.338,23.446-2.596,35.316
			c1.777,12.127,10.064,20.468,21.492,24.159c24.451,7.899,38.915-21.292,41.413-40.783c-2.328,0.631-4.658,1.262-6.988,1.893
			c5.92,10.109,15.162,18.315,27.182,19.602c9.844,1.054,19.547-2.679,26.592-9.53c7.273-7.073,10.121-17.181,8.379-27.045
			c-2.447-13.854-14.707-24.078-26.035-30.962c-0.631,2.33-1.262,4.659-1.893,6.988c10.338,1.212,21.219-0.941,28.357-9.033
			c6.277-7.114,7.842-16.833,6.451-25.958c-1.395-9.149-6.809-17.429-14.398-22.619c-9.646-6.595-22.189-5.889-32.736-2.139
			c1.537,1.538,3.074,3.075,4.613,4.613c3.66-19.412,8.016-48.205-17.205-54.648c-21.415-5.471-40.058,19.448-52.569,32.812
			c2.09,0.552,4.178,1.103,6.268,1.654c-6.744-25.064-43.553-34.875-56.754-9.46c-10.718,20.633,7.046,50.421,27.029,57.995
			C-1018.604,180.381-1016.665,173.129-1021.141,171.432L-1021.141,171.432z"/>
	</g>
	<g>
		<path fill="#452F8B" d="M-662.803,298.782c-0.648-13.309-9.062-22.801-22.549-23.627c-11.416-0.699-24.479,5.753-29.199,16.472
			c-5.902,13.4,3.295,30.091,17.883,31.653c15.791,1.69,31.279-14.46,30.92-29.7c-0.113-4.828-7.613-4.84-7.5,0
			c0.275,11.658-10.961,22.233-22.459,22.249c-10.598,0.016-15.947-13.935-11.422-22.354c3.924-7.301,13.127-10.875,21.029-10.844
			c9.592,0.038,15.348,6.92,15.797,16.151C-670.069,303.595-662.567,303.619-662.803,298.782L-662.803,298.782z"/>
	</g>
	<g>
		<path fill="#452F8B" d="M-705.137,325.389c2.223-5.846,2.725-12.544-2.006-17.29c-4.145-4.159-10.934-4.663-16.434-4.167
			c-12.572,1.134-27.641,8.023-29.846,21.733c-2.294,14.272,10.861,21.784,23.447,21.595c14.031-0.21,27.299-9.509,27.572-24.342
			c0.09-4.839-7.41-4.83-7.5,0c-0.193,10.505-9.65,16.162-19.264,16.809c-8.047,0.541-18.469-3.085-16.887-12.923
			c1.537-9.561,12.656-13.66,21.033-15.174c3.85-0.695,8.463-0.764,11.928,1.28c3.678,2.169,1.889,7.419,0.723,10.484
			C-714.092,327.923-706.84,329.863-705.137,325.389L-705.137,325.389z"/>
	</g>
	<g>
		<path fill="#7F3F97" d="M-805.291,93.597c-2.631,11.281-13.908,18.295-25.189,15.664c-11.283-2.631-18.295-13.91-15.662-25.188
			c2.629-11.285,13.908-18.297,25.188-15.666C-809.673,71.041-802.662,82.316-805.291,93.597z"/>
		<path fill="#7F3F97" d="M-814.189,132.578c-2.422,10.379-12.795,16.83-23.176,14.41c-10.377-2.422-16.83-12.797-14.412-23.176
			c2.422-10.379,12.799-16.828,23.174-14.408C-818.22,111.826-811.771,122.197-814.189,132.578z"/>
		<path fill="#7F3F97" d="M-821.802,166.013c-1.893,8.123-10.012,13.17-18.137,11.273c-8.119-1.891-13.168-10.01-11.275-18.133
			c1.895-8.123,10.014-13.166,18.135-11.275C-824.957,149.773-819.908,157.892-821.802,166.013z"/>
		<g>
			<path fill="#452F8B" d="M-812.591,64.182c-10.953-9.116-24.826-8.817-34.35,2.198c-7.939,9.185-11.293,24.135-4.01,34.654
				c8.164,11.792,26.838,13.522,35.709,1.839c8.699-11.458,7.883-30.39-3.174-40.049c-3.625-3.167-8.951,2.115-5.303,5.303
				c8.064,7.045,8.701,19.808,3.527,28.76c-5.363,9.279-18.971,8.036-24.734-0.289c-5.143-7.429-1.969-17.708,2.854-24.381
				c6.146-8.504,16.307-9.282,24.178-2.732C-814.207,72.555-808.871,67.279-812.591,64.182L-812.591,64.182z"/>
		</g>
		<g>
			<path fill="#452F8B" d="M-821.755,113.333c-2.754-5.482-7.082-10.301-13.627-10.353c-6.043-0.048-11.232,4.786-14.658,9.252
				c-7.725,10.071-13.016,26.083-4.076,36.967c9.029,10.993,23.223,6.488,31.529-2.839c9.275-10.417,11.611-26.429,0.924-36.698
				c-3.484-3.351-8.795,1.946-5.303,5.303c7.494,7.202,5.664,17.797-0.338,25.393c-5.111,6.468-14.279,11.519-20.896,4.282
				c-6.516-7.121-1.834-18.593,2.482-25.572c2.02-3.269,4.959-6.868,8.682-8.231c4.424-1.62,7.119,2.926,8.805,6.282
				C-826.062,121.442-819.591,117.643-821.755,113.333L-821.755,113.333z"/>
		</g>
		<g>
			<path fill="#452F8B" d="M-830.193,148.986c-20.035-14.335-44.207,23.029-25.143,36.855c20.227,14.67,38.615-20.253,28.252-36.492
				c-2.594-4.062-9.088-0.305-6.477,3.785c5.387,8.44-2.559,33.996-15.311,27.949c-14.748-6.993,1.434-35.251,14.893-25.621
				C-830.035,158.283-826.296,151.774-830.193,148.986L-830.193,148.986z"/>
		</g>
	</g>
	<g>
		<path fill="#B94126" d="M-946.791,170.15c-9.18-12.431-24.304-17.631-37.44-7.601c-11.051,8.438-16.115,23.809-9.592,36.539
			c7.635,14.901,30.103,21.368,43.515,10.894c13.172-10.286,15.424-30.388,4.588-43.08c-1.613-1.892-3.66-3.416-5.701-4.812
			c-4.004-2.739-7.75,3.763-3.785,6.477c11.092,7.592,11.547,23.155,3.049,32.947c-9.385,10.815-26.956,6.202-34.323-4.743
			c-6.049-8.986-1.777-20.615,5.586-27.321c9.205-8.385,20.772-4.798,27.628,4.486C-950.427,177.781-943.914,174.046-946.791,170.15
			L-946.791,170.15z"/>
	</g>
	<g>
		<path fill="#8BC53F" d="M-777.603,210.83c0,0-23.389-25.495-9.322-40.384c0,0,22.463,20.269,18.359,36.624
			c0,0,36.179-26.902,48.433-6.442c0,0-5.811,27.978-35.937,25.242c0,0,40.083,4.202,38.323,27.689c0,0-34.424,3.412-42.622-21.538"
			/>
		<path fill="#BE1E2D" d="M-813.781,198.383c-9.473,7.976-48.037,75.906-25.578,96.171c22.457,20.268,89.741-21.047,92.872-28.646
			C-736.872,242.587-794.625,182.253-813.781,198.383z"/>
		<g>
			<path fill="#88241B" d="M-799.472,196.601c14.055,15.899,33.281,26.364,47.493,42.214c5.762,6.423,11.691,15.197,9.256,24.228
				c-2.066,7.662-11.577,10.838-18.251,12.903c-9.027,2.792-18.389,4.34-27.449,7.02c-8.342,2.467-15.656,6.887-23.305,10.901
				c-6.32,3.316-13.359,7.197-20.605,7.817c-7.012,0.601-9.141-5.094-9.75-11.189c-1.574-15.71,3.881-32.479,9.594-46.892
				c6.232-15.729,15.488-31.116,28.863-41.747c3.787-3.009-1.559-8.278-5.303-5.303c-18.584,14.769-29.512,38.018-36.043,60.333
				c-3.172,10.836-5.443,22.276-4.611,33.608c0.484,6.619,2.625,14.05,9.023,17.218c5.812,2.879,12.756,1.171,18.523-0.905
				c7.781-2.8,15.062-6.942,22.311-10.87c16.102-8.723,34.926-8.871,51.282-16.844c7.127-3.474,12.793-9.625,13.656-17.729
				c1.006-9.471-3.857-17.834-9.498-25.016c-13.974-17.798-35.009-28.223-49.884-45.05
				C-797.378,187.667-802.662,192.993-799.472,196.601L-799.472,196.601z"/>
		</g>
		<g>
			<path fill="#4A893F" d="M-773.38,198.709c-7.645-7.152-5.445-17.922-3.135-26.999c-1.836,0.747-3.674,1.494-5.51,2.241
				c8.818,5.301,14.59,16.285,13.438,26.552c-0.281,2.512,2.596,4.151,4.748,3.616c16.606-4.13,31.978-8.832,49.317-7.481
				c-1.25-1.25-2.5-2.5-3.75-3.75c-0.256,13.564-18.305,18.984-26.643,27.064c-2.225,2.154-0.828,5.244,1.654,6.268
				c5.361,2.209,10.906,4.05,15.973,6.902c5.406,3.043,8.912,7.934,11.766,13.312c1.078-1.881,2.158-3.762,3.238-5.643
				c-9.605,0.907-21.744,0.475-27.16-8.876c-2.424-4.183-8.906-0.408-6.477,3.785c6.82,11.772,21.203,13.766,33.637,12.591
				c2.842-0.269,4.654-2.974,3.238-5.643c-3.328-6.272-7.537-11.553-13.527-15.441c-5.67-3.684-12.486-5.661-18.693-8.22
				c0.551,2.09,1.102,4.179,1.654,6.268c10.5-10.173,28.514-15.062,28.84-32.367c0.041-2.163-1.742-3.594-3.75-3.75
				c-17.994-1.402-34.072,3.462-51.312,7.749c1.582,1.205,3.164,2.411,4.746,3.616c1.438-12.808-6.27-26.486-17.152-33.028
				c-2.051-1.232-4.914-0.093-5.508,2.241c-2.996,11.772-4.689,25.171,5.064,34.296C-775.156,207.312-769.841,202.02-773.38,198.709
				L-773.38,198.709z"/>
		</g>
	</g>
	<g>
		<path fill="#4A893F" d="M-1126.475,241.179c-0.792,1.046-2.241,1.419-1.824,1.443c-1.235-0.07,0.471,0.149,0.848,0.26
			c1.77,0.519,3.017,1.136,4.662,1.923c5.119,2.448,10.035,5.336,14.908,8.232c13.625,8.1,26.863,16.861,39.998,25.727
			c12.385,8.36,24.666,16.89,36.73,25.706c3.492,2.552,6.992,5.109,10.343,7.847c0.757,0.618,1.528,1.243,2.196,1.959
			c-1.021-1.095-0.467-2.679-0.951-0.808c-2.301,8.875-9.284,17.512-16.12,23.664c-11.864,10.679-27.597,13.879-42.976,10.341
			c-29.709-6.835-53.572-32.567-58.357-62.671C-1139.462,269.419-1134.534,254.147-1126.475,241.179
			c2.561-4.12-3.93-7.883-6.476-3.785c-11.624,18.705-15.427,40.311-8.338,61.388c4.656,13.845,13.397,26.322,23.794,36.478
			c10.633,10.384,25.766,17.386,40.238,20.164c15.576,2.989,31.339-0.691,43.826-10.462c8.759-6.854,15.753-16.081,20.008-26.354
			c1.014-2.447,2.42-6.012,0.947-8.547c-1.221-2.101-3.742-3.642-5.601-5.088c-22.889-17.811-47.272-34.012-71.722-49.576
			c-8.876-5.65-17.842-11.27-27.211-16.075c-4.223-2.167-12.089-7.014-15.942-1.927
			C-1135.874,241.251-1129.356,244.982-1126.475,241.179z"/>
	</g>
</g>
</svg>
