<?xml version="1.0" encoding="utf-8"?>
<!-- Generator: Adobe Illustrator 18.1.0, SVG Export Plug-In . SVG Version: 6.00 Build 0)  -->
<!DOCTYPE svg PUBLIC "-//W3C//DTD SVG 1.1//EN" "http://www.w3.org/Graphics/SVG/1.1/DTD/svg11.dtd">
<svg version="1.1" id="Layer_1" xmlns="http://www.w3.org/2000/svg" xmlns:xlink="http://www.w3.org/1999/xlink" x="0px" y="0px"
	 viewBox="0 0 2119.8 2399.3" enable-background="new 0 0 2119.8 2399.3" xml:space="preserve">
<path fill="#4672B8" d="M1057.6,1943.9c-9.6-5.3-17.7-9.6-25.6-14.1c-15.9-9-31.8-18.1-47.6-27.2c-10.7-6.1-20-14.1-29.5-21.8
	c-8.9-7.2-19.8-11-30.7-5c-11.3,6.2-23.7,8.6-35.6,12.5c-22.2,7.1-44.5,13.8-66.8,20.7c-10.8,3.3-22,5.5-32.4,9.9
	c-23,9.7-47.4,12.8-71.4,17.9c-21.9,4.6-43.9,7.7-66.3,8.8c-4.3,0.2-8.7,0.5-12.9,0c-20.1-2.4-40.6-3.3-60.1-8.2
	c-15.5-3.9-30-12.5-40-26.5c-1.2-1.6-2-3.6-3.5-4.8c-10.4-8.7-12.7-20.6-13.9-33.1c-0.6-6.3-1.6-12.5-2.2-18.8
	c-0.3-2.6-0.7-5.5,0.1-7.9c3.7-11.3,5.7-23.1,12.3-33.5c12.2-19.1,30.1-27.3,51.6-29.7c6.2-0.7,12.4-2.1,18.6-3.2
	c7.5-1.4,15-2.8,22.5-4.2c9.8-1.9,19.6-3.8,29.4-5.7c18.6-3.5,37.2-1.8,55.8,0.1c25.8,2.6,51.8,4.5,76.4,13.9
	c9,3.4,17.8,7.3,26.6,11.4c25.3,11.9,50.9,23.3,75.6,36.3c11.8,6.2,21.4,4.9,32.8,0.1c25.5-10.6,63-27.3,89.6-34.6
	c28.2-7.7,56.1-16,84.2-24c29.8-8.4,59.7-16.4,89.3-25.1c27.1-7.9,53.9-17.1,81-24.8c33.9-9.6,68.1-18.5,102.2-27.4
	c30.9-8.1,61.8-16,92.8-23.6c13.2-3.2,26.7-5.4,40.1-8.1c30.9-6.3,61.7-13.9,92.9-18.7c32.2-5,64.8-7.7,97.2-10.6
	c11.8-1.1,23.9-0.4,35.8,0.1c3.8,0.2,7.9,1.7,11.3,3.6c6.4,3.6,6.5,9.6-0.1,13c-5.2,2.7-11,4.6-16.8,5.9
	c-58.2,12.7-116.5,25.1-174.7,37.9c-25.3,5.6-50.6,11.6-75.8,17.8c-41.3,10.2-82.6,20.6-123.7,31.4c-22.2,5.8-44.1,12.7-66.2,19
	c-16.6,4.8-33.4,9.1-50,14c-36,10.7-71.9,21.8-108,32.6c-33.2,9.9-75.3,19.2-107.4,32c-17.6,7-35.9,12.2-53.8,18.4
	c-3.3,1.1-6.3,3.1-11.1,5.5c5.6,5,9.8,9.1,14.3,12.7c28.9,22.8,60.9,40.4,93.2,57.8c8,4.3,14.6,4.7,23.2,0.6
	c11.3-5.4,23.7-8.4,35.7-12.3c23.7-7.8,47.2-16.4,71.2-23.2c33.3-9.4,67.3-15.7,101.9-18.6c26.6-2.2,53.2-3.8,79.8-2.8
	c26.2,0.9,52.7,1.2,77.7,11.2c20,8.1,38.2,18.7,50.6,37.3c10.6,16,9.6,25-1.4,40.3c-9.8,13.8-21.6,26.2-37.5,33.7
	c-7.2,3.4-13.2,9.6-20.6,12c-14.8,4.8-30,9.2-45.4,11.3c-21.7,3-43.7,3.8-65.7-0.1c-6.4-1.1-13.2-0.3-19.8-0.5
	c-6.3-0.2-12.6-0.4-18.9-1c-24-2.5-47-8.7-69.6-16.9c-23.2-8.4-46.2-16.9-68.6-27.3c-7.8-3.6-16.3-6-24.7-7.7
	c-4.2-0.8-9.2,0.5-13.4,2.1c-18.1,6.7-35.8,14.6-54.1,20.6c-29.9,9.8-56.7,26.2-85.9,37.5c-4,1.5-7.6,4-13,7
	c7.2,5.1,13.2,10.1,19.9,13.9c18.4,10.6,37.2,20.7,55.8,31.1c8.1,4.5,16.3,9,24.2,13.9c6.3,4,11.6,3.6,18.6,0.4
	c22.7-10.4,46.2-18.2,71.8-19.2c16-0.7,31.9-1.9,47.8-0.5c5.2,0.4,10.3,2.1,15.4,3.4c3.9,1,7.6,2.6,11.5,3.2
	c15.3,2.6,28,10.3,39.7,19.8c16.9,13.7,15.7,30.7-1.7,43.8c-13.8,10.4-29.4,12.4-45.5,11.1c-14.5-1.2-29.2-3.2-43.3-6.8
	c-16.7-4.3-33.6-8.7-48.7-17.7c-4.4-2.6-8.7-2.8-13.2-0.5c-15.7,8.1-32.1,14.9-46.8,24.5c-11,7.2-19.7,17.8-29.3,27
	c-1.4,1.3-2.3,3.3-3,5.1c-4.1,10.2-8.2,20.4-12.2,30.6c-3.6,9.5-2.2,16.2,5.7,22c9.1,6.6,18.6,12.7,28.2,18.6c2.7,1.7,6.3,2.1,9.4,3
	c3,0.9,6,1.8,8.8,4.5c-2.1,0.2-4.2,0.7-6.2,0.4c-15.1-2.1-28.4-9.7-41.6-16.2c-11.7-5.8-16.7-17.4-15.6-31.1
	c0.5-6.6-0.4-13.3,0.1-19.9c0.5-6.5,1-13.4,3.4-19.4c5.9-14.8,10.8-30.1,20.4-43.1c4.3-5.9,9-11.5,13.7-17
	c5.4-6.2,11-12.2,17.3-19.2c-14.1-7.4-27.3-14.3-40.4-21.3c-17.3-9.2-35.4-17.3-51.6-28.1c-15.2-10.1-27.6-10.8-43.9-1.5
	c-22.1,12.8-45.8,23-69.5,32.6c-13.8,5.6-28.9,7.8-44,7.8c-4.8,0-9.6-1.8-14.3-2.9c-4.2-1-8.2-2.6-12.4-3.5c-5-1.1-8.3-3.9-10.8-8.1
	c-7.9-13.3-7.5-27-1.6-40.8c9.1-21.1,26.6-30.9,48.1-34.3c25.5-4.1,50.5-0.7,74.7,8c5.6,2,10.3,0.7,15.2-1.6
	c26.2-12.4,52.3-24.9,78.6-37c13.6-6.3,27.6-11.7,41.2-17.9C1040.8,1953.1,1048.4,1948.7,1057.6,1943.9z M894.1,1839.5
	c-4.8-2.3-7.7-3.7-10.7-5.1c-24.4-11.5-48.5-23.3-73.1-34.2c-13.9-6.2-28.3-11.7-43-15.8c-25.8-7.1-52.5-8.4-79-10.1
	c-16.1-1-31.9,0.9-47.6,4c-16.9,3.4-33.8,6.9-50.7,10.3c-1.9,0.4-4,0.6-6,0.6c-14,0-25.7,6.3-36.5,14.3c-2.9,2.1-5.9,4.7-7.5,7.9
	c-8.2,16.4-16.2,32.8-12.2,52.3c2.9,14.2,3.2,28.4,16,39.4c11.5,9.8,23.6,15.1,38,13.7c12.5-1.2,24.8-4.6,37.2-6.8
	c17.7-3,35.3-5.9,53-8.6c18.1-2.7,36.2-5.3,53.3-12.3c3.7-1.5,7.5-2.6,11.4-3.6c22.9-5.5,46-10.1,68.6-16.5
	c27.8-7.9,55.3-17.1,82.8-25.9C889.8,1842.6,891,1841.5,894.1,1839.5z M1132.5,1966.4c0.1,0.7,0.1,1.4,0.2,2.2
	c26.6,10.3,53.3,20.3,79.7,31c19.2,7.8,38.4,15.1,59.1,17.4c11.5,1.3,22.6,5.4,34.6,4c7.2-0.8,14.5,0.1,21.8,0.4
	c12.9,0.6,25.8,1.9,38.8,1.9c34,0.1,65.9-7,94.4-26.8c13.4-9.3,24.6-20.3,33.5-33.7c5.6-8.5,6.9-17.8,1.2-27.3
	c-12.7-21.4-32.3-32.2-55.9-35.9c-29.6-4.7-59.2-0.2-88.4,3.7c-23.6,3.2-46.9,9.3-70.2,14.9c-44.4,10.7-87.7,24.7-130.3,41.1
	C1144.8,1961.8,1138.7,1964.1,1132.5,1966.4z M1124.8,2130.5c3.5,2.4,5.4,4.3,7.7,5.1c8.7,3.4,17.3,6.9,26.2,9.5
	c24.3,7.2,48.9,12.3,74.6,10.7c12.5-0.8,22.1-7.2,30.3-15.6c7.7-7.9,7.4-16.7,0.1-24.8c-11.4-12.6-26.2-14.7-42.1-12.9
	c-22.9,2.6-44.9,9.2-66.8,16.2C1145.1,2121.8,1135.8,2126.1,1124.8,2130.5z M896.6,2019c-4.8-1.9-7.2-3.1-9.7-3.8
	c-20.4-5.8-41.1-6.8-62.1-4.1c-9.8,1.3-18.7,4.7-26.8,10c-16.6,10.7-23.3,31.1-16.6,49.4c2.1,5.7,4.2,7,9.7,4.6
	c7.9-3.4,15.6-7.3,23.2-11.3c22.9-12,45.7-24.2,68.5-36.4C886.8,2025.1,890.6,2022.6,896.6,2019z"/>
<path fill="#4672B8" d="M1002.3,747.2c-7.4-1.4-13.7-2.2-19.7-3.7c-18.6-4.7-37.2-9.6-55.8-14.6c-8.4-2.3-15.3-0.8-21.8,5.4
	c-7.2,6.9-14.8,13.4-23.1,19c-5.9,4-12.9,6.9-19.9,8.7c-8,2.1-14.1-3.1-19-8.7c-4.9-5.5-4.5-12.6-0.5-19.4
	c6.9-11.7,18.1-16.3,30.7-18.2c12.1-1.9,13.4-3.4,14.5-15.6c1.2-14.2,3-28.4,4.6-42.6c2-17.4,4.3-34.8,6.1-52.2
	c0.7-6.9,0.2-13.9,1-20.8c1.5-13.5,2.7-27.1,5.5-40.4c2.2-10.3,6.6-20.1,10.1-30.2c0.2-0.6,0.7-1.1,1.2-1.6c4.1-4.7,7.8-11,15.1-9.7
	c7,1.3,8.2,8,9.9,13.8c6.4,22.6,7.2,45.5,6.1,68.9c-1.3,28.4-6.4,56.1-10.6,84.1c-2.1,13.8-6.7,27-13,39.6c-1.5,2.9-2.7,5.9-4.4,9.8
	c28.6,7.8,56,16.5,85.3,21.3c4.4-11.3,9.4-21.8,12.5-32.9c7.4-26,18-50.7,29.3-75.2c8-17.2,16.1-34.3,24.1-51.5
	c1-2.1,1.8-4.3,3.2-6.2c0.8-1.1,2.5-1.6,3.9-2.4c0.7,1.6,2.4,3.5,2.1,4.8c-1.5,6.1-3.2,12.3-5.6,18.1c-11,25.9-17.4,53-23.6,80.3
	c-3.9,17.2-8.5,34.2-12.4,51.4c-1.5,6.4-1.8,13-2.9,20.6c21.7,5.4,41.1,0.5,59.9-9.1c2.5,5.3,0.2,7.5-3,8.8
	c-15.6,6.3-31.4,11-48.5,8.3c-7.4-1.2-8.1-0.7-9.2,6.3c-4,25.3-7.2,50.7-12.2,75.7c-4.8,24.4-11.4,48.5-17.1,72.8
	c-1,4.2-2.5,8.4-2.5,12.6c0.1,5.8-3,8.4-7.7,10.2c-11.9,4.7-23-0.6-23.4-11.3c-0.2-5,0.1-10,0.8-14.9c3.4-23.3,8.2-46.5,10.4-69.9
	c1.9-20.6,9.7-39.9,11.3-60.4c0.4-4.8,3.4-9.3,4.8-14.1C1000.1,757.5,1001,752.7,1002.3,747.2z M846,742c0,11.5,6,15.5,14.3,11.6
	c3.9-1.8,8-3.5,11.4-6.1c2.5-1.8,4.8-4.6,6-7.5c1.5-3.6,2-7.7,2.8-11.6c1-5.2-0.6-7.4-5.4-6.8c-9.5,1.1-18.2,4.3-24.5,11.8
	C848.2,736.4,846.9,740.3,846,742z"/>
<path fill="#4672B8" d="M1431.8,700.5c12.4,5.5,23,11,34.2,15c10.9,3.9,22.3,6.2,34.8,9.6c1.8-5.8,3.7-11,5.1-16.3
	c3.8-13.8,6.8-27.8,11.3-41.3c5.4-16.3,12.1-32.3,18.2-48.4c2.8-7.5,5.6-15,8.5-22.4c1.3-3.2,3-6.2,4.7-9.8
	c5.4,2.9,4.5,6.7,3.9,10.1c-2.4,14.8-5.2,29.5-7.2,44.3c-2.7,20.1-4.7,40.3-7,60.4c-0.9,7.8-2.1,15.6-3.2,23.9
	c14.1,2.2,23.1-7.9,35.1-10.8c-0.8,1.5-1.2,3.7-2.4,4.4c-8.5,5-16.3,11.5-26.7,12.9c-7.4,1-7.9,1.8-8.8,9.6
	c-3.9,31.7-7.6,63.5-11.6,95.2c-1.8,14.2-4,28.3-5.9,42.5c-0.4,3.3-0.2,6.7-0.6,10c-0.5,4.2-1.5,8.4-2.1,12.6
	c-1.1,7.2-2.8,14.4-3,21.7c-0.1,6-2.3,10.1-6.6,13.8c-2.5,2.2-13.1,2.7-18.7,2.9c-12.6,0.4-17.5-5.4-16.3-18
	c0.8-7.9,2.7-15.8,3.6-23.7c2.7-23.1,4.3-46.4,8-69.4c4.3-26.9,10.3-53.5,15.6-80.3c1.1-5.8,2.7-11.4,4.2-17.8
	c-6.6-1.9-11.9-3.9-17.4-4.9c-13.2-2.5-25.5-6.9-37.3-13.5c-3-1.7-6.9-2.3-10.4-2.7c-4.3-0.5-7.6,1.2-9.7,5.4
	c-2.7,5.7-5.9,11.1-8.9,16.7c-5.5,10.3-13.9,16.1-25.7,17.9c-6,1-11.1,2.6-16.8-1.7c-11.2-8.5-13.4-15.7-7.6-28.4
	c4.2-9.2,10.2-15.9,20.6-18.7c12.3-3.4,12.9-4.8,13.7-17.2c1.4-21.5,1.8-43.2,4.2-64.6c2.4-20.8,6.3-41.4,10.4-61.9
	c2-10,6.2-19.6,9.4-29.3c1.2-3.6,2.7-6.9,7.4-6.8c4.8,0.2,8.5,2.3,9.9,7c1.9,6.3,4.2,12.7,4.9,19.3c3.8,38.2,4.4,76.5-3.4,114.3
	c-1.9,9.1-5.3,17.8-7.9,26.7C1433.5,692.6,1432.7,696.4,1431.8,700.5z M1395.3,705.4c-14.6,0.5-27.3,13.3-27,26
	c0.1,4.8,4,8.8,9.5,9.8c4.8,0.9,9.5-1.4,11-6.2c1.7-5.3,3-10.8,4.2-16.3C1394,714.5,1394.6,710,1395.3,705.4z"/>
<path fill="#4672B8" d="M1120.6,835.2c1-16.2,2.2-34.1,3.2-52c1-17.6,3-35,7.1-52.1c5.6-23.2,10.8-46.5,16.3-69.8
	c6.1-25.8,17-49.5,30.8-72c4-6.5,7.5-13.3,11.7-19.7c9.3-14.3,20.8-25.5,38.7-28.7c7.1-1.2,13.8-4.8,20.6-7.5
	c10.5-4.1,20.8-3,31.2,0.7c18.4,6.6,33,18,44.5,34c12.9,18,22.3,37.1,22.5,59.7c0.1,18.3-0.6,36.6-5,54.5
	c-4.7,19.1-8.9,38.3-14.3,57.1c-7,24.3-16.4,47.7-28.3,70.1c-8.8,16.4-16.3,33.5-25,49.9c-6.5,12.3-13.5,24.4-21,36.2
	c-5.4,8.4-11.8,16.1-18,23.9c-12.3,15.8-29.1,18.4-47.6,15.7c-7.5-1.1-15.4-1-22.5-3.4c-7-2.3-14.7-5.6-19.7-10.8
	c-9.9-10.2-18.7-21.7-21.4-36.4c-0.9-5.2-1-10.6-1.4-15.9C1122.1,858.2,1121.4,847.6,1120.6,835.2z M1237.2,556.9
	c-11.1-3.5-10.9-3.3-17,4.4c-6.3,8-28,65.1-31.3,82.7c-1.6,8.5-2.1,17.2-3.4,25.7c-4.4,27.6-9.1,55.1-13.3,82.6
	c-1.5,10.2-1.6,20.6-3,30.7c-3.7,25-6.5,50.1-2.6,75.4c0.3,1.9,0.1,4-0.2,5.9c-2.9,15.3-0.1,29.7,5.8,43.9
	c8.8,21,37.8,27.8,53.7,11.6c9.7-9.9,17.8-21.4,26.1-32.7c12.3-16.7,20.9-35.4,29.9-54c11.7-24.3,24.5-48,33.5-73.5
	c10.3-29.3,17.7-59.4,23.2-89.7c5.5-30.3,6.3-60.5-12.1-88.5c-9.9-15.1-20.5-27.9-36.6-36.8c-19-10.4-36.6-9-54.1,2
	C1236.3,550.1,1236.6,552.9,1237.2,556.9z"/>
<path fill="#FED700" d="M894.1,1839.5c-3.1,1.9-4.3,3.1-5.8,3.6c-27.6,8.7-55,18-82.8,25.9c-22.6,6.4-45.7,11-68.6,16.5
	c-3.9,0.9-7.7,2.1-11.4,3.6c-17.1,6.9-35.2,9.5-53.3,12.3c-17.7,2.7-35.4,5.6-53,8.6c-12.4,2.1-24.7,5.6-37.2,6.8
	c-14.4,1.4-26.5-4-38-13.7c-12.8-10.9-13.1-25.2-16-39.4c-4-19.5,4-35.9,12.2-52.3c1.5-3.1,4.6-5.7,7.5-7.9
	c10.9-8,22.5-14.3,36.5-14.3c2,0,4-0.2,6-0.6c16.9-3.4,33.8-6.9,50.7-10.3c15.7-3.1,31.5-5.1,47.6-4c26.6,1.7,53.3,3,79,10.1
	c14.7,4.1,29,9.6,43,15.8c24.6,10.9,48.8,22.8,73.1,34.2C886.4,1835.8,889.3,1837.2,894.1,1839.5z"/>
<path fill="#FED700" d="M1132.5,1966.4c6.2-2.3,12.3-4.7,18.5-7c42.6-16.5,85.9-30.4,130.3-41.1c23.3-5.6,46.5-11.7,70.2-14.9
	c29.2-3.9,58.8-8.4,88.4-3.7c23.6,3.7,43.3,14.5,55.9,35.9c5.6,9.5,4.4,18.9-1.2,27.3c-8.9,13.4-20.1,24.5-33.5,33.7
	c-28.6,19.8-60.5,26.9-94.4,26.8c-12.9,0-25.8-1.3-38.8-1.9c-7.3-0.3-14.7-1.2-21.8-0.4c-12,1.3-23-2.7-34.6-4
	c-20.7-2.3-40-9.6-59.1-17.4c-26.4-10.7-53.1-20.7-79.7-31C1132.6,1967.9,1132.6,1967.2,1132.5,1966.4z"/>
<path fill="#FED700" d="M1124.8,2130.5c11-4.4,20.3-8.7,30-11.8c21.8-7,43.8-13.6,66.8-16.2c15.9-1.8,30.7,0.3,42.1,12.9
	c7.4,8.1,7.6,17-0.1,24.8c-8.2,8.4-17.7,14.8-30.3,15.6c-25.6,1.6-50.3-3.4-74.6-10.7c-8.9-2.6-17.5-6.1-26.2-9.5
	C1130.2,2134.8,1128.3,2132.9,1124.8,2130.5z"/>
<path fill="#FED700" d="M896.6,2019c-6,3.6-9.7,6.2-13.7,8.3c-22.8,12.2-45.6,24.4-68.5,36.4c-7.6,4-15.4,7.8-23.2,11.3
	c-5.5,2.4-7.7,1.1-9.7-4.6c-6.7-18.3,0.1-38.7,16.6-49.4c8.1-5.2,17-8.7,26.8-10c21-2.7,41.7-1.7,62.1,4.1
	C889.4,2015.8,891.7,2017,896.6,2019z"/>
<g>
	<path fill="#4672B8" d="M1989,306.5c-3.4-15.5-10.5-29.4-17.5-43.4c-2.1-4.3-4.1-8.4-2.7-13.3c6.3-21.3,3.5-42.2-2.7-62.9
		c-5.7-18.9-15.2-35.9-27.3-51.5c-3.2-4.1-6.6-8.2-10.3-11.8c-4.3-4.1-10.1-7.1-13.8-11.6c-0.8-0.3-1.4-0.9-1.9-1.5
		c-0.7-0.4-1.2-0.9-1.6-1.5c-3.4-2-6.5-4.6-10-6.6c-5.1-2.9-10.5-5.5-16-7.6c-7.8-2.9-15.9-3.9-24.1-4.7c-7.1,0.3-14.1,1.7-21.1,4.1
		c-0.2,0.2-0.4,0.3-0.6,0.5c0.9,0.5,1.7,1.1,2.7,1.5c1.5,0.6,3.1,1.1,4.7,1.5c0.6,0,1.2,0.1,1.7,0.1c0.7-0.1,1.5-0.2,2.2-0.2
		c5.1-1.4,10.8-1.6,16.2-1.3c3.1,0.2,6,0.8,8.8,1.6c8,1.3,16.1,5.3,23.1,9.1c7,3.9,14,9,20,14.5c5.8,3.7,10.3,8.7,14.6,14
		c15.3,18.9,25.3,40.3,31.2,64c3.5,14.2,4.4,28.2,1.2,42.4c-0.5,2-1.6,3.9-2.6,6.4c-1.7-1.4-2.9-2.1-3.7-3.1
		c-7.8-9.8-17.2-16.9-29.2-21.4c-19.6-7.3-38.7-8.9-58.2-0.7c-8.6,3.6-17.7,6.3-25.5,11.2c-8,5.1-15.8,11-20.4,20
		c-8.5,16.8-7.2,34.3-2.3,51.4c6.3,21.9,20.5,35,44.6,35.7c23.6,0.7,45.7-1.8,62.4-21.6c12.6-15,26.9-28.7,32.6-48.4
		c0.7-2.3,1.8-4.4,3.6-8.6c10.8,21.1,20.2,40.6,20.6,62.8c0.3,14.9-0.2,29.9-1.5,44.8c-2.1,23.5-6.4,46.6-15.8,68.6
		c-8.6,20.3-18.5,39.7-32.9,56.6c-1.7,2-3.2,4.2-4.7,6.4c-20.6,30.8-46.6,55.3-81.1,70.1c-11.6,5-22.6,11.3-34.4,15.5
		c-8,2.8-17,2.6-25.4,4.6c-31.5,7.8-62.7,5.9-93.6-3.3c-3.9-1.2-7.6-3.5-11.3-5.2c0.2-0.5-13.7-6.7-24.3-13.1
		c-14.8-9-28-20.1-39.8-33c-16.7-18.2-27.5-40-37.3-62.2c-5.2-11.7-7-24.4-6.9-37.7s1.5-16.6,2.2-25.5c1.1-12.8,7.1-61.6,11.1-69
		c2.3-4.3,3.6-9.2,5.5-13.8c2.8-6.9,6.5-12.9,14.4-15.4c2.6-0.8,4.9-3,8.4-5.3c-7.8-3.5-9.2-9.4-10-15.8c-1.2-9.9-2.4-19.8-4.2-29.7
		c-1.5-8.8-3.2-17.7-5.9-26.2c-2.6-8.3-7.1-9.7-14.6-6.4c-8.3,3.6-13.2,10.5-15.4,18.7c-3.8,14.4-13.6,22.2-26.5,27.4
		c-3.7,1.5-7.1,3.6-10.6,5.4c-10,5.1-19.9,10.8-30.2,15.2c-9.5,4.1-15.7-0.9-14.8-11.1c0.2-2.3,0.4-4.7,0.8-7
		c2.5-15.3-3-28.9-9.1-42.2c-4.3-9.3-12.7-12-20.5-6.8c-10.5,6.9-21.8,13.5-22.5,28.4c-0.1,2.2-2,4.4-2.1,6.6
		c-0.7,8.1-4.8,16.9,0.9,24.2c7.5,9.8,15.9,19,29.5,20.4c3.2,0.3,6.3,1.5,10.6,2.5c-3,6.9-5.4,13-8.3,18.8c-4.8,9.5-9.5,19-15.1,28
		c-5.5,9-15.2,11.4-24.8,13.1c-2.4,0.4-6-1.5-7.9-3.5c-3.1-3.3-6.2-7.2-7.7-11.5c-7.4-22.1-8.2-44.3-0.7-66.6
		c2.2-6.6,3.2-13.5,4.3-20.4c0.9-5.6-1.4-9.7-7.4-11.4c-8.2,4.3-14.1,10.9-18.6,18.9c-2.3,4.1-4.6,8.1-7.3,11.9
		c-11.4,16.3-16.8,34.4-16.4,54.3c0.2,8.1-2.2,15.3-7.9,20.8c-5.9,5.8-12.3,11.2-19.1,15.8c-9.6,6.5-16.5,4.4-22.3-5.5
		c-1-1.7-1.9-3.5-2.5-5.4c-7.7-24.9-7.6-50-2.6-76.7c-1.9-0.9-4.8-2.2-7.6-3.7c-2-1-4.2-2-5.6-3.6c-6.7-8.3-12.9-16.9-14.7-27.9
		c-1-6.2-2.9-12.3-4.9-18.3c-3.7-11.2-10.1-20.3-21.4-24.8c-2.1-0.8-5.7-0.9-7.2,0.4c-5.1,4.3-9.7,9.2-10.2,16.5
		c-0.9,13.6-1.8,27.1,1.2,40.7c1.1,4.8,0.4,10.8-1.6,15.4c-5.8,13.8-12.6,27.1-19.1,40.6c-0.6,1.2-1.4,2.2-2.2,3.3
		c-5.5,7.8-11.5,15.4-16.5,23.6c-6,9.8-14.3,16.6-24.4,21.4c-7.1,3.4-11.3,2.1-14.3-5.3c-2.2-5.5-4.1-11.4-4.6-17.3
		c-1.2-13.6-1.5-27.2-1.9-40.9c-0.3-10.9-1.1-21.3-13.8-25.4c-0.2-0.1-0.3-0.6-0.7-1.3c0.5-1.7,1.1-3.7,1.2-4c-3-2.2-5.6-3.3-7-5.3
		c-8.9-12.8-17.5-25.8-26.4-38.6c-6.1-8.8-6.3-8.7-7.4-17.1c-1.3,0.7-3.1,1.1-3.2,1.9c-1,5.6-5.2,9-8.4,13.1c-1.6,2-2.6,4.6-3.3,7.1
		c-2.7,9-0.9,18,2.3,26.4c2.1,5.3,2.8,10.4,1.4,15.6c-2.8,10.6-5.8,21.1-9.3,31.4c-2.1,6.3-6.2,11.9-7.9,18.3
		c-3,10.9-10,19.5-15.9,28.6c-4.3,6.6-10.3,12.2-16.4,17.4c-9.9,8.4-23,8.1-29.4-0.7c-9.6-13.2-11.1-28.9-11.3-44.7
		c0-1.6,1.1-3.1,1.6-4.7c2.7-8.5,6.3-16.9,7.9-25.6c2-11.3,4-23.1-3.5-33.7c-3.8-5.3-10.9-9-16.2-6c-7.1,4.1-15.5,8.4-19.5,15
		c-7,11.6-14.1,23.7-13.7,38.8c0.4,17.3-1.5,34.6,8.6,50.2c-15,20.2-34.2,34-56.6,43.5c-17.7,7.5-35.6,14.4-53.6,21.3
		c-18,6.8-36.3,12.9-54.2,19.9c-18.2,7.2-36.2,14.9-54.2,22.7c-8.8,3.8-17.3,8.5-26.1,12.5c-16.7,7.7-31.8,18.1-45.8,29.8
		c-9.6,8.1-17.9,17.8-26.9,26.7c-23.2,23-38.9,50.2-46.5,82.1c-3.5,14.9-5.8,29.9-7,45.2c-1.4,17.2-0.7,33.9,6.6,49.7
		c4.4,9.6,8.7,19.7,15,28c5.9,7.8,14.3,13.7,21.8,20.2c11.5,10,25.4,15.8,39,22c24.2,10.9,48.3,10.7,71.8-2.7
		c3.6-2,6.8-4.6,10.2-6.9c-0.3-0.7-0.6-1.4-0.9-2.1c-2,0.2-4.2,0-6,0.8c-4.6,1.9-9,4.4-13.5,6.4c-9.8,4.5-20.2,7.3-31,5.9
		c-19.8-2.5-35.5-12-46.9-28.8c-6.3-9.2-9.5-19.5-13.2-29.8c-8.4-23.2-12-46.9-9.8-71.5c0.7-7.9,2-15.8,2.3-23.8
		c0.9-18.7,8.1-35.3,15.8-51.9c3.2-6.9,6.2-13.9,8.1-21.2c1.5-5.9,3.3-11.2,7.9-15.6c4.3-4.1,7.6-9.2,11.6-13.6
		c8.2-9.1,15.2-20.1,25.1-26.7c19.5-13.1,40.3-24.3,61.1-35.1c13.8-7.2,28.5-12.7,43-18.5c24-9.6,48.2-18.9,72.3-28.3
		c12.3-4.8,25-9.1,37-14.7c15.6-7.4,30.4-16.2,41.1-30.4c1.9-2.5,4.8-4.4,5.9-5.3c12.3,5.3,23.2,10.1,34.2,14.6
		c9.7,4,19.6,6.8,29.6,0.3c0.8-0.5,1.9-0.5,2.9-0.6c5.9-0.8,10.9-3.5,14.5-8c6.9-8.5,13.9-17,19.9-26.1c6.2-9.4,10.4-19.9,14.4-30.6
		c4.8-12.8,9.9-25.4,12.3-38.9c0.2-1.4,1.6-2.7,2.4-4c5.4,2.3,10.2,4.5,15.1,6.5c20.5,8.4,15.5,10,11.8,25.1
		c-3.9,16.1-6.7,31.8,1.9,47.3c0.8,1.4,1,3.2,1.9,4.6c1.2,1.9,2.5,3.9,4.2,5.4c9.2,7.8,19,14.2,32.1,10.8c1.9-0.5,4,0.2,6,0
		c2.6-0.4,5.4-0.6,7.7-1.8c10.2-5.4,21.3-9.8,26.2-21.7c0.5-1.2,1.8-1.9,2.5-3.1c7.2-12.2,14.9-24.2,21.5-36.8
		c6.6-12.5,12.1-25.5,18-38.1c12.2,7.7,23.6,14.9,36.3,23c-0.9,4.3-1.4,10-3.4,15.1c-6.1,15.7-6.7,31.7-3.6,47.9
		c3,15.1,17.9,27.9,32.9,26.7c23.6-1.9,45-8.9,57.6-31.4c0.4-0.8,1.5-1.2,2.8-2.3c2.1,2.6,4.2,5.1,6.2,7.6c4.4,5.4,9.7,8.2,17,8.9
		c15,1.4,29.9,2.3,44.5-2.4c6.6-2.1,13.7-4.3,17.1-11.1c7.6-15.1,15.4-30.2,21.9-45.8c3.2-7.8,7.6-11.4,15.6-13
		c10.4-2.1,22.8-0.5,28.9-12.7c14.7-8.6,29.4-17.3,44.7-26.3c1.1,17,10.1,30.1,19.3,43.4c-3.8,5.3-6.8,10.5-10.8,14.9
		c-8.5,9.5-15.9,19.7-20.6,31.6c-5.2,13.2-11.5,26.4-14.3,40.2c-3.5,17.1-4.7,34.6-3.6,52.4c1.3,19.7,6.1,38.5,14.8,55.5
		c10,19.5,25.2,35.9,40.8,51.4c17.3,17.2,39.9,24.7,62,32.6c12.8,4.6,26.2,7.6,39.5,10.1c12.4,2.3,25.1,4,37.6,4
		c19.2,0,38.5-1.5,57.4-5.4c11-2.2,22.1-4.7,32.8-8c6.6-2,12.4-6.2,18.8-8.9c26.7-11.1,51.1-25.7,71-47.1
		c9.9-10.7,18.7-22.3,27.1-34.4c9.4-13.7,19.6-26.8,27.1-41.7c9.4-18.5,17.1-37.5,20.1-58.2c1.9-12.8,4.4-25.6,5.5-38.4
		C1993.2,344.2,1993,325.3,1989,306.5z M1958.9,268.4c-3.7,11.6-8.7,22.5-18.3,31.2c-7.3,6.5-12.6,15.3-19.1,22.7
		c-6.9,7.7-16.5,11.6-26.1,13.6c-4.9,1.1-11.4-2.3-16.3-5.2c-3.7-2.2-6.8-6.4-8.7-10.4c-5.4-11.1-8.2-23.1-9.5-35.4
		c-0.6-5.6-0.1-11.3-0.1-16.9c-0.1,0-0.3,0-0.4,0c0-4,0.2-8,0-12c-0.6-11,4.7-18.3,14.1-22.9c6.8-3.3,13.7-6.5,20.7-9.2
		c3-1.1,6.5-1.4,9.7-1c7.2,0.8,14.4,2.3,21.6,3.5c0.7,0.1,1.5,0,1.9,0.3c10.8,8.4,24.7,13,31.7,26.4
		C1963.1,258.9,1960.4,263.8,1958.9,268.4z M993.9,274c4.5-2.8,7.7,0.2,8.9,3.9c1.7,5.6,2.9,11.7,2.6,17.4
		c-0.4,7.4-2.6,14.7-4.1,22.1c-0.9,0-1.9,0-2.8,0C996.9,303.1,995.4,288.8,993.9,274z M1483.5,274.6c-8.9-7.3-14.8-14.7-17.9-24
		c-0.4-1.2-1.4-2.4-1.5-3.6c-0.6-4-3.7-8.4,0.7-11.9c2.8-2.2,8.1,0.3,10.8,6.3C1480.1,251.4,1485,261.6,1483.5,274.6z"/>
	<path fill="#FED700" d="M1860.3,268c0-4,0.2-8,0-12c-0.6-11,4.7-18.3,14.1-22.9c6.8-3.3,13.7-6.5,20.7-9.2c3-1.1,6.5-1.4,9.7-1
		c7.2,0.8,14.4,2.3,21.6,3.5c0.7,0.1,1.5,0,1.9,0.3c10.8,8.4,24.7,13,31.7,26.4c3,5.8,0.4,10.7-1.1,15.3
		c-3.7,11.6-8.7,22.5-18.3,31.2c-7.3,6.5-12.6,15.3-19.1,22.7c-6.9,7.7-16.5,11.6-26.1,13.6c-4.9,1.1-11.4-2.3-16.3-5.2
		c-3.7-2.2-6.8-6.4-8.7-10.4c-5.4-11.1-8.2-23.1-9.5-35.4c-0.6-5.6-0.1-11.3-0.1-16.9C1860.6,268,1860.5,268,1860.3,268z"/>
	<path fill="#FED700" d="M1483.5,274.6c-8.9-7.3-14.8-14.7-17.9-24c-0.4-1.2-1.4-2.4-1.5-3.6c-0.6-4-3.7-8.4,0.7-11.9
		c2.8-2.2,8.1,0.3,10.8,6.3C1480.1,251.4,1485,261.6,1483.5,274.6z"/>
	<path fill="#FED700" d="M998.4,317.4c-1.5-14.3-3-28.6-4.5-43.4c4.5-2.8,7.7,0.2,8.9,3.9c1.7,5.6,2.9,11.7,2.6,17.4
		c-0.4,7.4-2.6,14.7-4.1,22.1C1000.3,317.4,999.3,317.4,998.4,317.4z"/>
</g>
<g>
	<path fill="#4672B8" d="M1418,1323.4c3-2,6-3.5,8.1-5.7c20.4-21.6,42.5-41.7,57.3-69.5c-17.8-5.6-35.2-2.5-53.4,0.5
		c1.5-5.6,6-5.8,9.4-6.2c9.3-0.9,18.6-1,27.9-1.4c0.3,0,0.7,0.1,1,0.1c16.4,1.5,14.7,0.8,24-13.6c1.2-1.9,1.8-4.3,3.1-6.2
		c2.3-3.3,6.1-5.1,9.5-2.9c1.8,1.2,2.6,5.1,2.5,7.7c-0.3,4.9-1.6,9.7-2.7,15.3c27.1-0.6,53.2-1.1,79.2-1.6c0,0.9,0.1,1.8,0.1,2.6
		c-27.1,1.4-54.1,2.9-81.9,4.4c-4,13.2-8.5,25.4-11.3,38c-3.7,16.8-6.2,33.9-9,51c-0.4,2.5,0,5.3,0.7,7.8c2.5,8.5,8,12.2,16.6,10.5
		c6.2-1.2,12.2-3.2,16.7-8.5c-1.6-4.7-2.9-9.5-4.7-14c-5.2-12.8-0.3-23.9,7.2-33.3c6.1-7.6,14.6-13.3,22.3-19.6
		c2.3-1.8,5.2-2.9,8.1-3.8c8.8-2.9,12.2-0.7,14.3,8.1c2.7,11.2-0.7,21.2-6.1,30.5c-3.5,6-8.5,11-12.6,16.6c-3.1,4.1-8.2,8-4.1,13.9
		c3.5,5.1,9.4,5.8,14.4,3.9c8.2-3.3,16.1-7.6,23.9-11.9c3-1.7,3.6-4.9,3.5-8.7c-0.2-16.3,5.9-29.1,21.4-36.1
		c5.7-2.6,11.2-6.2,17.1-8c6.2-1.9,12.9-3,19.4-2.9c7,0.1,9,6.4,12.5,13.7c-3.4-1.6-5-2.3-6.5-3.2c-1.3-0.8-2.5-2-4.5-3.6
		c-1,2.3-1.7,4-2.5,5.7c-10.5,1.2-21.9,11-24.1,21.6c-1.4,6.5-2.2,13.2-2.3,19.8c-0.2,12.1,8.1,17.1,19.5,12.5
		c11.2-4.5,18.9-13.4,26.9-21.8c1.4-1.5,1.4-5,1.1-7.5c-1.9-18.6,4.1-35.4,10.9-52.1c3-7.3,5.4-14.9,8.3-22.2
		c1.6-3.9,3.2-8,5.7-11.4c7.3-10,15-19.6,27.4-23.8c9-3.1,13-0.3,11.7,9.1c-1.4,9.5-3.3,19.1-6.8,27.9c-5,12.6-12,24.4-17.6,36.9
		c-2.9,6.6-5.5,13.6-6.7,20.7c-1.9,11.8-3.7,23.7-0.6,35.6c3.6,13.6,12.8,20.4,27,20.5c30.6,0.3,50.6-17.3,67.2-40.2
		c2.8-3.9,2.8-9.9,4.3-15.9c1.4,1.6,3.5,2.9,3.4,4c-0.4,4.2-0.5,8.9-2.5,12.4c-12,21.2-30.2,35.7-53.4,42.2
		c-11.2,3.2-23.7,3.9-35-2.2c-0.3-0.2-0.6-0.4-0.9-0.4c-17.4-0.9-27.9-12.5-38.3-24.4c-0.6-0.7-1.5-1.2-3-2.4
		c-3.2,3.2-6.6,6.3-9.7,9.7c-15.8,17-37.4,17.1-54.7,7.4c-4.2-2.4-7.8-6-11.7-9c-6,3.3-11.7,6.7-17.6,9.7
		c-7.6,3.9-15.6,5.6-24.1,3.5c-3.9-1-7.8-1.9-11.7-2.8c-5-1.2-9.4-0.9-14.1,2.3c-6,4.2-12.9,6.4-20.6,6.8c-5.8,0.3-11.4,2.6-17,4
		c-5.3-3.8-10.8-8-16.5-11.9c-9.4-6.4-14-14.9-12.1-26.4c1.5-9.4,3-18.8,4.6-28.6c-1.1,0.6-3,1-4.1,2.2c-9.2,9.6-18.6,19-27.1,29.2
		c-2.6,3.1-2.6,8.5-3.4,12.9c-1.1,6.1-1.1,12.5-2.8,18.4c-3.6,12-14.7,14.6-24.8,17.2c-2.9,0.7-7.8-3.3-10.6-6.2
		c-1.3-1.3-0.2-5.5,0.6-8.1c1.2-3.8,2.3-8,4.8-10.8c5-5.7,4.9-11.2,2-17.5c-3.6-7.8-7.1-15.6-11.4-25c-7.5,7.6-14.2,13.5-19.9,20.3
		c-6.7,7.9-15.1,13.1-24.1,17.4c-10.9,5.3-20.6-0.1-29.6-5.8c-3.6-2.2-6.2-6-10-9.7c-6.3,3.9-13,7.5-19.1,11.9
		c-5.9,4.2-11.8,4.3-17.9,1.7c-6.1-2.6-11.9-5.9-17.9-8.6c-6.7-2.9-13.4-5.4-15.5-13c-4.7,3.5-8.7,6.9-13.1,9.8
		c-5,3.2-10.2,6.2-15.6,8.6c-4.7,2-9.3,1.5-14.1-1.8c-5.3-3.8-11.6-6.2-18.4-9.7c-10.8,9.2-22.3,19-34.3,29.3
		c1.2,5.2,2.2,11.2,4.1,16.8c3.9,11.3,2.1,21.6-4.6,31.2c-4,5.7-7.7,11.7-12,17.2c-5.7,7.2-14.5,7.6-20.7,0.8
		c-3.3-3.6-6.1-8-7.9-12.5c-6.4-16.3-5-32.6,0.7-48.8c1.4-4,2.7-8.1,4.3-12.9c-10.9-3.2-23-2.2-29.7-13.6c-5.2,3.3-9.8,6.4-14.6,9.2
		c-9.2,5.4-18.4,6.8-28.4,1.4c-5.8-3.1-12.2-5.2-18.9-8c-7.1,4-14.8,8.5-22.6,12.8c-9.2,5.1-18.4,3-26.3-2.4
		c-7.6-5.2-10.6-13.4-9.4-22.8c0.2-1.6,0.4-3.4,1.1-4.9c5.5-13,3.8-17.5-11.6-24.2c-8.5,14.7-19.6,27.3-31.8,39.2
		c-8.6,8.4-19.2,11.6-30.6,12.8c-1.9,0.2-3.9-1.2-7.9-2.6c3.6-1.6,5.2-2.7,6.9-3c14.5-2.2,26.3-9,35.9-20
		c5.9-6.8,11.9-13.5,17.2-20.7c4.5-6.1,5.9-12.8,2.7-20.7c-1.6-3.9-1.3-9.3-0.1-13.5c2.8-9.9,12.5-13.3,20.3-6.6
		c5.4,4.6,9.4,11,13.4,17c4.7,7.2,8.5,15,13.1,22.3c2.5,4,2.6,7.5,1.3,12.1c-2.1,8-3.1,16.3-3.7,24.5c-0.4,5.9,3.2,8.5,9.1,6.5
		c6.8-2.4,13.6-5.4,18.8-11.5c-1.2-2.4-2.4-4.7-3.4-7.1c-6.6-14.8-0.5-27.4,7.3-39.3c7.7-11.7,17.9-20.5,32.2-23.5
		c8.4-1.8,11.7,1,11.8,9.5c0.2,14-6,25.3-15.1,34.8c-7.1,7.3-7.2,15.4-6.1,23.9c1.1,8.6,9.2,13.4,17,9.9c6.5-3,12.5-7.4,18.3-11.7
		c1.8-1.3,2.6-4.4,3.2-6.8c2.5-10.6,4.4-21.4,7.2-31.9c0.8-2.9,3.6-5.5,5.8-7.8c4.9-4.9,10.4-9.2,14.8-14.5
		c3.2-3.8,6.5-5.1,11.2-4.7c4.9,0.4,9.9,0.3,14.8,0.1c8.3-0.2,11.7,4.1,8,11.1c-1.7-0.9-3.3-1.9-5.2-3c-0.7,0.6-1.5,1.1-2,1.8
		c-4.9,6.6-9.8,13.3-14.7,19.9c-1.4,1.8-3.3,3.5-4,5.6c-3.7,11.4-7.1,22.8-10.4,34.3c-0.9,3.1-1.5,7,3.1,8.2c3.8,1,6-1.1,7.8-4.6
		c6.2-12.4,12.6-24.7,19.2-36.9c2-3.7,4.6-7.5,7.8-10.3c6.6-5.9,14.2-3.4,15.2,5.3c0.7,5.5,0.2,11.4-1.4,16.7
		c-3,10.5-7.1,20.7-10.8,31.1c-0.5,1.5-0.8,3.1-1.5,5.9c3.2-1.2,5.6-1.5,7.2-2.8c9.2-7.6,18.3-15.4,27.2-23.4
		c1.5-1.3,2.5-4.1,2.3-6.2c-0.8-12.4,4.6-23.3,7.8-34.7c2.8-9.9,10.6-15,20.1-17.5c7.3-1.9,11.6,1.3,11.6,9c0,3.6-1,7.2-1.9,10.8
		c-3.2,13.6-6.6,27.2-9.6,40.8c-0.5,2.4,0.3,5,0.6,7.5c2.8-0.3,5.9,0.1,8.2-1.1c14.8-8,26-19,29.8-36.3c1.5-6.7,4.6-13.1,7.6-19.4
		c3-6.3,8.1-10.5,14.9-12.4c6.6-1.8,10.6,0.5,11,7.4c0.3,5.2-0.7,10.6-2.1,15.6c-2.4,8.6-5.7,17-8.5,25.6c-0.8,2.5-1.3,5.2-1.7,7.8
		c-2.1,15.2,0.7,13.9,12.1,18.6c1.9,0.8,4.9,0.9,6.7,0c7.6-4,14.9-8.5,21.4-12.2c-0.7-9.4-1.6-17.5-1.9-25.6
		c-0.4-8.7,3.6-16.3,8-23.2c7.4-11.8,17.9-19.4,32.3-20.8c8.5-0.8,13.6,3.2,13,11.6c-0.3,3.9-1.2,8.2-3.2,11.4
		c-4.8,7.5-10.1,14.8-16,21.5c-5.4,6.1-10.3,11.7-10.2,20.8c0.1,7.5,4.6,12.4,8.7,17.3c1.5,1.8,6.9,1.3,10,0.3
		c4.3-1.4,8.7-3.8,12.1-6.8c9.6-8.2,18.9-16.8,27.9-25.7c1.7-1.7,2.1-5.3,2-8c-0.3-6.3-1.7-12.6-1.7-18.9c-0.1-8.9,4.1-16,11.8-20.8
		c8.6-5.3,18-0.2,18.1,10c0.1,3.2-0.7,6.7-1.9,9.7c-2,4.7-1.7,8.6,0.9,13.2C1407.9,1302.8,1412.6,1312.7,1418,1323.4z
		 M1123.9,1361.5c-10.6,16-18.5,48.4-14.7,60.1c10.1-5.5,14.6-15.3,18.9-24.3C1133.6,1385.6,1128.2,1374.3,1123.9,1361.5z
		 M1537.1,1328.2c18.1-10.3,27.2-36,18.3-49c-9.2,3.6-13.6,11.3-15.3,20.1C1538.3,1308.2,1538.1,1317.4,1537.1,1328.2z
		 M1322.8,1296.3c11.4-8.5,17.2-20.8,14.8-31.7C1329.9,1274.1,1326.4,1284.6,1322.8,1296.3z M1719.9,1219.4
		c-0.7-0.2-1.4-0.4-2.1-0.6c-1.3,2.9-3.1,5.7-4,8.7c-3.3,11.3-6.4,22.7-9.4,34.1c-0.1,0.3,0.5,0.7,1.1,1.5
		C1710.6,1248.3,1720.2,1235.5,1719.9,1219.4z M1039,1271.9c-8.9,15.8-11.6,24.2-10.6,31.7C1037.8,1294.7,1039.9,1283.8,1039,1271.9
		z M1394.7,1353.7c-2.2,3.5-4.3,6-5.2,8.8c-0.5,1.6,1.2,3.8,1.9,5.7c1.9-0.9,4.5-1.2,5.6-2.7
		C1399.3,1362.2,1398.9,1358.6,1394.7,1353.7z M1394.5,1276.8c0.9-0.1,1.7-0.2,2.6-0.3c1.3-3.7,3-7.5-3.9-12.2
		C1393.7,1269.8,1394.1,1273.3,1394.5,1276.8z"/>
	<path fill="#4672B8" d="M605.5,1329.3c-4.3,5.3-8,9.2-10.9,13.5c-2.9,4.4-6.7,6.2-11.8,5.9c-13.7-0.9-27.3-2-36.3-13.2
		c-8.3,5.5-15.8,10.8-23.6,15.7c-6.5,4.1-13.6,4.6-21.1,2.4c-13.1-3.9-24.4-10.3-32.1-22.4c-5.5,2.2-8.1,6.5-10.5,10.7
		c-5.5,9.8-13.6,12.2-24.4,10.9c-18.2-2.2-23.2-5.7-20-29.5c1.4-10.3,5.7-20.3,9-31.5c-6.7,4-12.1,8.8-16.9,14.3
		c-2.9,3.2-5.4,6.8-8.3,10c-8.8,9.9-18,19.5-23.5,31.8c-1.6,3.6-4.1,6.9-6.4,10.1c-2.5,3.6-6,5.2-10.4,4c-4.1-1.2-7-3.8-7.9-8.1
		c-0.6-2.7-0.9-5.5-1.3-8.1c-1.9-0.2-2.7-0.5-3.2-0.3c-16.6,10.5-35.3,10.6-53.9,10.6c-8.1,0-15.7-2.7-22.1-8
		c-7.2-5.9-14.9-10.8-20.3-18.9c-8.6-12.9-9.6-26.5-3.7-39.9c4.2-9.5,11.5-17.7,17.6-26.4c1.1-1.5,3.1-2.5,5-3.2
		c5.3-2.2,8.5,0.2,8.3,5.8c0,0.7,0,1.4-0.3,2c-8.4,18.3,0.8,36,2.7,53.8c0.9,8.1,7.2,14.9,13.9,20.1c1.5,1.2,3.6,2,5.5,2.2
		c17.6,1.9,34.4-0.2,49.5-10.4c5-3.4,8.5-7.7,11-13.6c13.1-31.2,22.7-64,41.5-92.6c5.8-8.9,12.3-17.4,18.7-25.8
		c2.2-2.8,5.2-5.1,8.1-7.3c4.2-3.3,8.6-7.3,14.3-4.2c5.2,2.7,4.4,8.2,4.9,13.2c1,11.4-1.8,21.5-7.6,31.3
		c-10.1,17.2-19.3,34.9-32,50.5c-3.4,4.1-5.3,9.5-7.8,14.3c0.6,0.5,1.2,1,1.7,1.5c1.8-1,3.8-1.8,5.3-3.1
		c8.5-7.5,16.8-15.2,25.3-22.6c4.6-4,10.1-7.9,16.2-4.9c6.4,3.1,7.8,10.1,6.5,16.5c-2.3,11.7-5.7,23.1-8.7,34.7
		c-1.6,6-3.3,11.9-4.8,17.3c4.4,4.1,7.2,2.5,9.9,0.2c6.4-5.3,12.8-10.5,19-16c1.6-1.4,2.7-3.8,3.5-5.9c4.8-13,12.2-24.2,22.5-33.6
		c6.4-5.9,13.5-9.5,21.7-11.6c8.1-2.1,11.8-0.1,15.4,9.6c-2.3,0.2-4.5,0.1-6.6,0.6c-6.1,1.3-9.7,5.3-12.4,11
		c-5.6,11.6-8.7,23.9-9.2,36.5c-0.6,16.2,7.1,20.6,21.2,12.4c5.9-3.4,11-8.3,15-11.5c0-9.2-0.6-16.5,0.2-23.6
		c1.7-15.6,12.7-24.9,24.7-32.9c2.2-1.5,7.2-1.3,9.1,0.3c1.8,1.5,1.7,5.9,1.7,9c0,2.2-0.8,4.7-1.9,6.7c-5.7,10.7-5.4,22.5-5.9,34
		c-0.1,2.9,0.1,6.1,1,8.9c2.7,9.3,10.6,12,17.6,5.4c10.7-10.1,18-22,21.4-37c2.9-12.4,9.5-24,19.7-32.7c4.5-3.7,12.3,0.6,13.9,7.9
		c0.7,3.2,0.4,6.6,0,9.9c-1.1,8.6-2.7,17.1-3.8,25.7c-1.3,10.5-1.6,21,1.2,31.9c12.4-5.5,19.8-15.4,27.5-24.8
		c7.8-9.4,15.5-18.8,23.5-28.5c-2.1-2.2-3.5-3.5-4.8-5c-4-4.8-4.2-9.6-0.5-13.4c3.5-3.6,9.3-4.4,13.6-1c4.1,3.2,7.6,7.3,12.3,12
		c3.2-2.8,6.4-5.3,9.4-8.2c7-6.9,15.4-10.2,25.1-10.5c6.6-0.2,14.1,4.8,16.5,10.7c2.2,5.3,1.5,9.1-3.2,13.3
		c-7.5,6.8-15.8,12.2-26.8,13.5c-3.9,12.6-3.8,25.4,0.1,38c4.2,13.8,17.4,16.1,27.3,11.2c11.5-5.6,21.5-13.1,30.8-21.9
		c5.7-5.3,12-10.1,19.1-16.1c0.7,6.9-3,9.2-5.7,11.7c-9.9,8.9-19.7,17.9-30.2,25.9c-8.4,6.4-18.1,12.4-29.1,11
		c-8.7-1.1-17.3-4.5-25.5-7.9c-5.7-2.4-10.9-6.3-16-10.1c-7.6-5.6-10.9-21.2-7.2-32.3c1.6-4.7,3.6-9.3,5.1-14.1
		c0.4-1.3-0.1-4.1-0.7-4.3c-1.6-0.5-3.7,0-5.4,0.4c-0.8,0.2-1.6,1.3-2,2.2c-6.1,14.2-18.8,23.1-28,34.9
		c-6.7,8.6-14.3,16.5-21.8,24.4c-6.8,7.1-14.2,6.5-21.9,0.1C613.7,1348.4,610.7,1339.6,605.5,1329.3z M439.3,1196.8
		c-7.5,6.9-24.5,53.8-24.7,67.2c6.7-11.5,12.4-22.4,19.1-32.6C440.6,1220.9,440.9,1209.8,439.3,1196.8z M758.4,1279.8
		c-10.6-0.9-18.4,4.1-23.9,15.2C743.7,1291,751.7,1287.6,758.4,1279.8z"/>
	<path fill="#FED700" d="M1123.9,1361.5c4.3,12.8,9.7,24.1,4.2,35.8c-4.3,9-8.7,18.9-18.9,24.3
		C1105.4,1409.9,1113.2,1377.4,1123.9,1361.5z"/>
	<path fill="#FED700" d="M1537.1,1328.2c1-10.8,1.2-20,3-28.9c1.7-8.9,6.1-16.5,15.3-20.1
		C1564.3,1292.2,1555.2,1317.9,1537.1,1328.2z"/>
	<path fill="#FED700" d="M1322.8,1296.3c3.5-11.7,7.1-22.2,14.8-31.7C1340.1,1275.5,1334.2,1287.8,1322.8,1296.3z"/>
	<path fill="#FED700" d="M1719.9,1219.4c0.3,16.1-9.3,28.9-14.4,43.8c-0.6-0.9-1.2-1.3-1.1-1.5c3.1-11.4,6.1-22.8,9.4-34.1
		c0.9-3,2.6-5.8,4-8.7C1718.5,1219,1719.2,1219.2,1719.9,1219.4z"/>
	<path fill="#FED700" d="M1039,1271.9c0.9,11.9-1.3,22.8-10.6,31.7C1027.4,1296.1,1030.1,1287.7,1039,1271.9z"/>
	<path fill="#FED700" d="M1394.7,1353.7c4.3,4.9,4.6,8.6,2.3,11.8c-1.1,1.5-3.7,1.9-5.6,2.7c-0.7-1.9-2.4-4.1-1.9-5.7
		C1390.3,1359.6,1392.5,1357.2,1394.7,1353.7z"/>
	<path fill="#FED700" d="M1394.5,1276.8c-0.4-3.5-0.7-7-1.3-12.5c6.9,4.8,5.3,8.5,3.9,12.2
		C1396.2,1276.6,1395.3,1276.7,1394.5,1276.8z"/>
	<path fill="#FED700" d="M439.3,1196.8c1.6,13,1.3,24.1-5.6,34.6c-6.7,10.2-12.4,21.1-19.1,32.6
		C414.8,1250.6,431.8,1203.7,439.3,1196.8z"/>
	<path fill="#FED700" d="M758.4,1279.8c-6.7,7.8-14.7,11.3-23.9,15.2C740,1283.9,747.8,1278.9,758.4,1279.8z"/>
</g>
<path fill="#FED700" d="M846,742c0.9-1.8,2.2-5.6,4.6-8.6c6.3-7.5,15.1-10.7,24.5-11.8c4.8-0.6,6.4,1.7,5.4,6.8
	c-0.7,3.9-1.2,8-2.8,11.6c-1.2,2.9-3.5,5.6-6,7.5c-3.5,2.5-7.5,4.2-11.4,6.1C852,757.5,846,753.5,846,742z"/>
<path fill="#FED700" d="M1395.3,705.4c-0.8,4.6-1.3,9-2.3,13.4c-1.2,5.5-2.5,11-4.2,16.3c-1.6,4.8-6.2,7.1-11,6.2
	c-5.5-1-9.3-5.1-9.5-9.8C1368.1,718.8,1380.7,706,1395.3,705.4z"/>
<g>
	<path fill="#4672B8" d="M679.1,1556.1c-12.5,7.8-24.8,15.7-37.5,23.2c-11.9,7.1-24.4,5.8-37.5,2.1c-9.2-2.6-14.6-8.5-20.1-14.9
		c-3.9-4.6-5.6-9.8-5.8-15.7c-0.3-10,1.8-19.6,5.3-29c1.1-2.9,2.1-5.8,3.7-10c-2.5,1.1-3.7,1.5-4.8,2.1c-6.4,3.7-12.5,7.8-19.1,11
		c-2.6,1.2-6.5,1.1-9.5,0.3c-6.6-1.7-10.5,0.2-14.6,5.1c-7.3,8.9-15.6,17.1-23.7,25.5c-1.8,1.9-4.2,3.2-6.2,4.9
		c-9.5,8.3-20.2,5.9-30.7,2.5c-2.5-0.8-4.7-3.5-6.3-5.8c-2.5-3.5-4.3-7.4-6.8-11.7c-1.5,0.9-2.8,1.4-3.8,2.3
		c-7.4,7.4-14.6,14.9-22,22.3c-3.7,3.7-5.2,8-5.6,13c-0.8,9.3-1.8,18.6-3.6,27.7c-3.6,18.3-14.7,31.6-32,40.5
		c-4.2,2.2-8.4,4.5-12.9,6.1c-8.9,3.2-11.4,2.5-17.4-4.3c-1.5-1.7-2.8-3.7-4.1-5.4c0.8-2.1,2.1-3.9,2.1-5.7
		c-0.3-8.1,4.5-13.6,10.1-18.9c6.8-6.4,13.4-12.9,19.8-19.7c1.8-2,3.6-4.8,3.6-7.3c0-10.1-0.6-20.2-1.1-30.3
		c-0.1-1.3-0.6-2.6-1.2-5.1c-3.9,2.4-7.3,4.1-10.2,6.4c-4.1,3.3-8.5,3.6-13.6,3c-15.2-2-25.8-10.8-35.1-21.2
		c-2.3-2.5-2.8-6.7-3.4-10.3c-0.5-2.7,0.2-5.6,0.4-10.1c-3.2,2.3-5.3,4-7.6,5.5c-8.9,5.8-17.4,12.2-26.8,17
		c-17,8.7-35.5,9.9-53.6,3.6c-14.3-5-31-22.6-21.6-42.5c7.8-16.4,17.7-30.8,35.2-39.3c5.5-2.6,12-3.8,18.1-4.8
		c4.2-0.7,4.9,0.3,6.9,5.8c-3.5,0.6-7.2,0.8-10.5,2c-7.2,2.7-12.6,7-16.5,13.7c-9.8,17-11.2,33.6,0.4,50.5c4.6,6.7,10.8,9.7,19.1,9
		c8.3-0.7,15.8-3.6,23.1-7.1c14.8-7,27-17.1,38.8-27.6c4.1-3.6,6.4-8.8,10-12.9c10.7-12.2,24.9-18.4,41.6-20
		c6.8-0.7,12.7,0.7,16.1,7.1c-3.9,2.2-3.9,2.2-9.9,1.1c-1.5,2.9-2.6,5.9-7.7,3.7c-4.8-2.1-7.7,2.3-10.2,5.2c-5,5.7-9,12.1-10.2,19.4
		c-1.6,9.7-4.3,19.4-1.9,29.4c0.7,2.7,0,5.8,3.9,7c0.3,0.1,0.3,1,0.5,1.6c0.5,1.6,0.5,4.2,1.6,4.7c1.9,1,4.9,1.6,6.8,0.9
		c4.1-1.7,8.5-3.7,11.4-6.8c5-5.2,9.7-10.2,11-18.4c1.5-9.7,7.2-18.9,11.6-28.1c1.8-3.8,5.5-6.3,10.3-5.6c4.9,0.7,6.8,4.4,7.5,8.6
		c0.5,2.5,0.9,5,0.9,7.6c0.2,11.9,0.3,23.7,0.5,35.6c0,2.4,0.6,4.8,1.1,8.5c2.8-1.9,4.5-2.9,5.9-4.1c2-1.7,3.6-3.9,5.7-5.4
		c13.9-9.7,18.4-23.7,20.9-38.7c0.5-3.2,1.8-5.5,4.4-7.9c4.9-4.5,9.4-9.5,13.6-14.6c4.3-5.3,9.7-7.9,16.6-6.1
		c4.1,1,9.4-1.3,12.2,3.1c-1.9,5.3-3.3,10.4-5.4,15.2c-1.4,3.3-3.5,6.4-5.8,9.3c-7.7,9.9-10.8,21.2-12.4,33.1
		c-0.4,3.3-0.6,6.8-0.3,10.1c0.5,4.2,3,5.7,6.9,3.6c5.2-2.8,10.4-6,14.5-9.9c7.9-7.7,15-16.1,22.5-24.1c3.3-3.6,3-6.4-0.5-10.3
		c-2.9-3.2-4.8-7.9-5.3-12.1c-1.6-12.9,6.9-19.3,20.2-15.6c2,0.5,4,2.6,5,4.4c2.5,4.5,2.1,9.3,0.5,14c-0.6,1.9-1.7,3.7-2,5.6
		c-0.9,5.7,1.9,8,7.9,6.4c11-2.9,18.7-9.8,25.9-17.6c8.4-9,13.3-19.9,19.5-30.1c2.6-4.2,0.9-7.7-4.2-7.8
		c-15.1-0.4-30.3-0.4-45.5-0.1c-5,0.1-9.9,0.9-14.9-0.3c0.5-4.5,3.7-4.5,6.2-4.6c17.9-0.3,35.8-0.8,53.7-0.6
		c10.5,0.1,12.6-0.2,15.2-10.2c1.5-5.8,5.4-9.2,9.4-12.9c1.2-1.1,3-1.9,4.7-2.4c8-2.5,11.6-0.4,11.8,7.5c0.2,4.4-1,8.9-1.6,13.3
		c-0.3,2.4-0.6,4.8-1,7.5c10.9,1.7,20.9,1.9,30.7,0.3c10.1-1.6,20.3-3.3,30.2-5.7c9.6-2.3,19.3-5,28.5-8.4
		c8.9-3.3,17.2-7.8,25.8-11.7c0.4,0.5,0.8,0.9,1.1,1.4c-0.6,1.1-0.8,2.7-1.7,3.3c-7,4.7-13.6,9.9-22.6,11.9
		c-11.4,2.6-22.2,7.4-33.6,10.2c-14.3,3.5-28.9,5.8-43.9,5.8c-2.7,0-5.4,0.4-8.2,0.7c-5.8,0.6-9.6,2.6-12,8.4
		c-4.8,11.7-11.5,22.7-16.3,34.4c-5.7,14.2-11.5,28.5-12.6,43.9c-1.1,14.7,7.8,23.8,24.1,19.3c4.5-1.3,8.7-3.7,12.9-5.7
		c10.1-5,20.1-10.2,30.4-15c1.6-0.8,4.2,0.2,6.3,0.3C679.1,1554.7,679.1,1555.4,679.1,1556.1z M397.5,1611.3
		c-8.1,7.1-16.9,13.5-20.9,23.4c-1.3,3.3-1.8,7-1.9,10.5c0,3.9,3.7,6.4,7.4,4.9c3.1-1.2,6.5-3.3,8.3-5.8
		C397.1,1634.5,399.6,1623.5,397.5,1611.3z M533.4,1508.6c3.7,3,6.2,5,8.9,7.2c3.2-5,3.3-5.1,2.3-6.5
		C542.2,1505.9,539,1506.8,533.4,1508.6z"/>
	<path fill="#4672B8" d="M1471.7,1554.3c-7.6,4.8-14.3,9.6-21.5,13.5c-8.4,4.5-17.2,5-25.7-0.5c-0.3-0.2-0.5-0.4-0.8-0.4
		c-16.4-2.6-20.1-14.5-23-27.1c-0.1-0.5-0.7-0.9-1.6-1.9c-3.6,2.3-7.1,4.7-10.8,6.9c-5.6,3.4-10.9,7.2-16.8,10
		c-10.9,5.1-23-1.2-24.4-12.4c-0.2-1.4,0.8-2.9,1.3-4.6c5.1,0.9,5.7,4.5,7.2,7.5c3.5,6.8,8.6,9.1,15.4,5.2
		c9.8-5.5,19.1-11.9,28-18.6c2.7-2,4.3-6.2,5-9.6c2-10.3,5.5-19.8,10-29.5c6-13,14.2-24.5,21.5-36.6c3.2-5.3,7.7-10,12.3-14.5
		c1.8-1.8,6.3-3.5,7.8-2.7c2.6,1.6,5.5,5.3,5.4,7.9c-0.3,6.4-1.7,12.8-3.7,18.9c-1.4,4.2-4.2,8.1-6.8,11.9c-6.8,9.8-11.5,20.2-13,32
		c-0.9,7.2-4,14.1-5.2,21.3c-1,5.8-1,11.8-1.2,17.7c0,1.9,0.6,3.9,1.3,5.8c3.5,9.1,9.2,11.1,18.4,6.7c7.4-3.6,13.3-8.7,18.1-15
		c1-1.3,1.9-3,2.1-4.6c1.8-13.7,9.4-24.8,18.7-34.9c2.3-2.5,5.2-4.7,8.2-6.5c1.5-0.9,4.9-1.5,5.7-0.7c1.4,1.4,1.8,3.9,1.8,6
		c-0.1,2.2-1.3,4.3-1.8,6.5c-2.2,9-4.6,18-6.4,27.2c-0.7,3.5,0,7.3,0.5,10.9c0.6,4.1,3.8,5.8,7.8,4.4c1.6-0.6,3.2-1.7,4.4-2.9
		c8.9-8.5,16.5-17.9,22.5-28.4c2.7-4.8,1.9-6.8-3.3-9.5c-13-6.6-17.5-11.6-5.9-26.1c3.6-4.5,9.4-7.5,13.8-10.9
		c6.9,2.4,7.5,7.2,7.6,11.6c0.2,5.9-0.7,11.8-1,17.7c-0.4,6.4,1.9,8.7,8.5,7c16.8-4.2,29.3-12.9,33.3-29.7
		c1.1-4.5,11.5-11.8,16.4-11.5c6,0.3,11.1,6.4,8.4,11.5c-3.1,5.9-1.3,10.9,0.6,16.2c3.2,8.8,6.7,17.5,10.1,26.3
		c15.1-5.4,49.2-46.4,50.8-62c-15.4,1-30.7,0.7-45.8-2.5c-14.5-3.1-29.3-5.3-45.6-8.2c5.3-4.1,9.6-2.5,13.5-2
		c16.2,2.3,32.3,4.7,48.4,7.5c10.5,1.8,20.6,0.6,30.7-1.6c5.7-1.2,7.9-5.8,10.7-9.7c4.2-5.8,7.8-12,12.2-17.8c1.9-2.5,4.9-4.3,8.2-7
		c6.6,10.6-2.8,19.1-0.9,28.5c7.8,1.5,14.9-1.2,22-3.1c22.2-6,44.9-9.7,68.1-10.4c3.3-0.1,6.7,0.4,10,0.4c6.1,0,11.3,1.9,15.6,6
		c1.4,1.4,3.4,2.2,5,3.3c28.7-12.7,56.8-25.9,85.6-37.6c19-7.7,32.8-20.6,46.7-34c15.7-15.2,25.4-33.4,31.6-53.4
		c1.7-5.6,3-11.3-1.1-16.7c-0.4-0.5-0.6-1.7-0.3-2.2c4.9-7.1-1.9-11.2-5.9-14c-11.9-8.6-25.3-12.9-40.8-9.1
		c-13.8,3.3-23.2,10.8-29.7,22.6c-5.4,9.9-10.4,19.7-11.2,30.9c-0.1,1.1-0.3,2.3-0.3,3.4c0.3,14.7,4.7,19.1,21.4,17.3
		c3.3-0.3,6.6-3.2,10.9-0.2c-7.5,6.3-15.6,7.3-24.4,5c-14-3.7-24.2-12.6-31.1-23.7c-4.6-7.5-2.4-16.5,2-24.3c0.8-1.5,2.4-2.6,3.2-4
		c6.6-11.8,17.1-19.4,30.2-24.1c13-4.7,26.3-9.9,40.4-8.7c21.6,1.9,36,7.5,41.4,24.8c2.7,8.6,1.1,17.5-1.6,25.9
		c-6.9,20.9-17.1,40-34.2,55.7c-10.4,9.5-19.7,19.9-32.7,26.4c-10.9,5.5-22.2,10.1-33.4,15.2c-17.9,8.1-35.9,16.1-53.8,24.2
		c-2.7,1.2-5,3-8.2,4.8c1.6,4,3.5,7.5,4.4,11.3c1.2,4.9,2.6,10,2.4,14.9c-0.3,6.5-3.3,11.9-11.1,13.9c-3.4,0.9-6.5,3.1-9.8,4.4
		c-7.8,2.9-16.2-2.6-15.3-10.4c0.7-5.8,1.9-11.7,6.5-16.4c5.5-5.7,6.9-12.3,4.5-19.6c-1.7-5.2-3.7-7.4-9.6-7.3
		c-11.8,0.2-23.7,0.2-35.3,1.7c-11.6,1.5-23,4.8-34.5,7.4c-7.3,1.7-14,4.7-21.8,5.1c-5.2,0.3-9.8,3.7-11.6,9.3
		c-5.2,15.4-8.9,30.9-7.9,47.2c0.2,3.9-0.6,7.9-0.4,11.8c0.4,7.6,0.7,15.2,2.1,22.7c2.6,14.3,21.4,25.3,37.9,22.2
		c8.5-1.6,17.1-3.2,25.7-4.7c1-0.2,2.1-0.2,3.1-0.3c0.2,0.5,0.4,1.1,0.6,1.6c-5.1,2.1-10,5.2-15.3,6.2c-19.2,3.4-38.1,2.3-55.9-6
		c-4.3-2-8.6-4.3-12.5-6.9c-14.5-9.9-16.6-24.2-15.7-39.3c0.5-8.1,1.6-16.1,1.2-24.7c-1.8,2-3.6,4.1-5.6,6
		c-9.1,9-17.9,18.3-27.4,26.9c-3.8,3.4-4.8,6.8-4,11.3c0.9,5.3,1.9,10.6,2.6,15.9c0.8,6.5-1.3,12.2-6.5,16.7
		c-1.8,1.5-3.2,3.3-4.7,5.2c-5,6.5-12.1,7.1-19.5,5.3c-9.1-2.2-12.6-8.8-9.1-17c1.7-3.9,4.6-7.3,6.4-11.1c1.3-2.7,2.8-5.9,2.2-8.5
		c-2.7-11.9-6-23.6-9.3-35.4c-0.5-1.9-1.5-3.7-2.6-6.5c-2.3,0.9-4.6,1.3-6.2,2.5c-10.6,8-22,14-35.3,12.9
		c-8.9,12.4-17.2,24-25.7,35.6c-3.5,4.8-8.8,7.8-14.8,6.7C1490.6,1560.5,1480.2,1559.6,1471.7,1554.3z M1597.4,1557
		c-5.5,4.1-7.7,9.4-8.2,15.3c-0.3,3.3,3.6,7.3,7.3,7.5c4.5,0.3,5.5-2.8,6-6C1603.5,1567.8,1602.3,1562.2,1597.4,1557z
		 M1807.1,1491.3c11-1.7,13-10.4,4.8-21.3C1803.5,1478.4,1802.4,1483.4,1807.1,1491.3z M1447.7,1471.3c7-7.2,8.3-11.7,6.6-21.1
		C1451.8,1458,1449.8,1464.7,1447.7,1471.3z"/>
	<path fill="#4672B8" d="M1046,1583.6c7.1-6.6,13.4-13.7,15.6-23.2c1.2-5.1,1.1-9.4-4.4-12.5c-4.6-2.7-8.9-5.9-13.5-8.6
		c-4.1-2.4-7.4-5.5-7.3-10.1c0.1-4.4,3.6-6.8,7.8-8.4c5.2-2,9.6-0.7,13.1,3.1c3.1,3.5,6.2,7.1,8.7,10.9c2.6,3.9,5.7,4.8,10,3.2
		c2.3-0.8,4.5-1.7,6.8-2.3c10.4-2.8,17.1-8.9,20.3-18.6c1.8-5.4,6.3-8.9,11.4-11.6c5.6-2.9,9.7-1.3,10.7,4.6
		c0.8,4.4,1.1,9.1,0.3,13.4c-2.7,13.9-6,27.6-9.1,41.4c-1.5,6.7-1.3,9.5,1.6,16.9c1.3,0,3,0.4,4.1-0.1c8.1-4.3,16.9-7.6,22.7-14.8
		c7.9-9.9,16.2-19.7,23.7-29.9c3.2-4.4,3.2-4.4,5.5-15.3c-0.2-0.7,9.6-24.1,13-35.4c1.3-4.2,4.1-8.1,6.9-11.6c3.1-4,3.9-8,2.7-13.6
		c-17.1-1-34.1-7.5-51.6-0.5c-8,3.2-12.9,7.7-13,16.4c-0.1,7.3-5.3,12.3-11.8,12.5c-11.4,0.4-16.6-6.8-12.1-16.6
		c3.5-7.7,10.8-11.2,18.2-14.4c17.1-7.5,34.9-8.5,53.3-4.8c7.4,1.5,15,2.1,22.9,3.2c4.4-5.4,8.5-11,13.3-16
		c2.9-3.1,6.5-5.8,10.3-7.8c3.7-1.9,6.7-0.3,7.2,3.6c0.4,2.7,0,5.7-0.7,8.3c-1.4,4.6-3.4,9-5,13.6c-2.1,6-1,8.8,5.8,9.9
		c11.7,1.9,23.4,3.1,35.2,4.1c5.4,0.4,11,0.2,16.3-0.9c5.2-1.1,10.1-3.5,15-5.6c2.6-1.1,4.9-2.7,7.3-4.1c0.4,0.5,0.8,0.9,1.3,1.4
		c-0.7,1-1.1,2.3-2,2.9c-4.3,2.6-8.7,5.3-13.4,7.2c-3.8,1.5-8,2-12.2,2.5c-5.1,0.6-10.3,1.1-15.4,0.7c-11.5-0.9-22.9-2.3-34.3-3.6
		c-7.6-0.9-8.5-0.7-10.8,5.8c-6.1,17.4-12.9,34.6-17.5,52.3c-2.9,11.1-3.8,23-2.8,34.4c1.5,18.4,21.3,26.5,37.6,17.1
		c9.3-5.4,17.3-12.3,24.4-20c1.1-1.2,2.4-2.4,4.8-3.1c-0.4,1.3-0.4,2.8-1.2,4c-7.1,10.8-16.4,19.5-28.9,24.8
		c-3.4,1.4-7.6,2-11.4,1.9c-17.2-0.4-32.5-6.5-47-14.6c-2.8-1.6-4.9-5-6.1-8c-2.2-5.8-3.4-11.8-5.6-19.6c-3.5,4.1-6.4,6.9-8.4,10.1
		c-6.8,11-16.7,19.1-27.3,26.7c-10,7.2-20.9,8.3-30.5-3.2c-8.1-9.8-9.5-19.8-8.9-31c0.1-2.5,0.6-5,1.1-9.1
		c-5.2,2.5-9.3,4.4-13.3,6.4c-2.1,1-4.1,2.4-6.4,3c-3.5,0.9-4.7,3.1-5.5,6c-1,3.8-2.1,7.6-3.2,11.4c-2.1,7.6-7.2,13.6-12.8,19
		c-8.6,8.5-25,10.2-36.2,4.5c-5.1-2.6-10.2-5-15.3-7.6c-11.3-5.8-18.5-14.4-20.7-26.4c-0.4-2.2-0.9-4.4-1.4-6.6
		c0-0.2-0.4-0.3-1.4-0.8c-11.1,9.5-22.1,19.7-37.3,23.8c-0.4-0.5-0.8-1-1.2-1.5c1.1-0.9,2.1-2.2,3.5-2.8c11.7-5.7,21.8-13.1,31-21.8
		c4.1-3.9,6-8.4,6.3-13.6c0.8-13.9,4.8-26.8,10.1-40c5-12.4,13.2-22.5,20.5-33.4c4.4-6.6,10.6-11.6,19.1-13.3
		c5.4-1.1,9.3,0.7,10.1,5.7c0.6,4.1,0.6,8.7-0.9,12.4c-3.9,9.7-7.3,20-13.5,28.4c-9,12.1-9.5,25.4-9.5,38.9c0,10.6,2,21.3,3.3,31.9
		c1.1,9.1,8.2,15,14.4,21.1c4.1,4,7.2,2.9,13.9-2.7L1046,1583.6z M1021.2,1489c7.7-8,11.3-17.6,13.6-27.8c0.6-2.8,0.6-5.6-4.4-7
		C1025.1,1465.4,1022.7,1477,1021.2,1489z"/>
	<path fill="#4672B8" d="M889.7,1552.7c-2.7,2.4-5.1,5-8.1,7c-5.3,3.7-10.8,7.2-16.4,10.5c-2.7,1.6-6,3.5-9,3.4
		c-9.9-0.2-20-0.5-29.7-2.3c-4.5-0.9-8.5-5.2-12.3-8.3c-2.9-2.4-5.1-5.5-7.8-8.4c-7,3.7-13.3,7.6-20.2,10.4
		c-6,2.5-12.4,4.5-18.8,5.4c-9.9,1.4-17.3-3.5-22-11c-9.2-14.9-10.1-30,1.3-44.3c4.3-5.4,8.8-11.1,14.6-14.8
		c6.5-4.2,14.4-7.2,22.1-9.2c9.2-2.4,19.1,3.3,22,11.2c0.4,1.1,0.6,2.2,0.6,3.3c0,0.8-0.5,1.5-1.3,3.9c-1.8-2.6-3.2-4.2-4.1-5.9
		c-2.3-4.1-5.5-7-10.7-6.5c-5.1,0.4-9.1,2.5-10.8,7.6c-3.2,9.9-7,19.5-4.9,30.3c1.2,6,0.9,12.3,2,18.4c0.9,5.3,3.3,6.7,8.2,4.5
		c6.7-3,13.2-6.7,18.9-11.1c2.3-1.8,2.4-6.1,3.4-9.3c1.8-5.9,3.1-12.1,5.5-17.8c3.2-7.6,10-11.6,18.6-13.4c4.5-0.9,7.3,0.4,8.2,4.4
		c0.7,3,1.1,6.2,0.8,9.2c-1.1,11.5-2.5,23-3.7,34.4c-1,9.4,4.6,14.9,15,13.9c4.1-0.4,8.3-1.8,11.9-3.7c8.4-4.3,16.5-9.2,24.7-13.8
		C888.4,1551.4,889.1,1552.1,889.7,1552.7z"/>
	<path fill="#FED700" d="M1046.2,1583.4c-3.7-0.2-7.4-0.4-12-0.6c2.5-3.8,6-3.7,9-3.9c4.2-0.4,4.1,2.1,2.8,4.8
		C1046,1583.6,1046.2,1583.4,1046.2,1583.4z"/>
	<path fill="#FED700" d="M397.5,1611.3c2.2,12.2-0.4,23.2-7.1,33c-1.8,2.6-5.2,4.6-8.3,5.8c-3.7,1.5-7.4-1.1-7.4-4.9
		c0-3.5,0.5-7.3,1.9-10.5C380.6,1624.8,389.4,1618.4,397.5,1611.3z"/>
	<path fill="#FED700" d="M533.4,1508.6c5.6-1.8,8.8-2.6,11.2,0.7c1,1.4,0.9,1.5-2.3,6.5C539.6,1513.6,537.1,1511.6,533.4,1508.6z"/>
	<path fill="#FED700" d="M1597.4,1557c4.8,5.2,6.1,10.8,5.1,16.9c-0.5,3.2-1.5,6.3-6,6c-3.7-0.3-7.6-4.2-7.3-7.5
		C1589.7,1566.4,1592,1561.1,1597.4,1557z"/>
	<path fill="#FED700" d="M1807.1,1491.3c-4.7-7.9-3.5-12.9,4.8-21.3C1820.1,1481,1818.1,1489.6,1807.1,1491.3z"/>
	<path fill="#FED700" d="M1021.2,1489c1.5-12,3.9-23.6,9.2-34.8c5,1.4,5,4.2,4.4,7C1032.5,1471.4,1028.9,1481,1021.2,1489z"/>
</g>
<path fill="#FED700" d="M1235.8,546.7c17.6-11,35.1-12.4,54.1-2c16.1,8.8,26.7,21.7,36.6,36.8c18.4,28,17.6,58.2,12.1,88.5
	c-5.5,30.4-13,60.5-23.2,89.7c-9,25.5-21.8,49.2-33.5,73.5c-9,18.6-17.6,37.3-29.9,54c-8.3,11.2-16.4,22.7-26.1,32.7
	c-15.9,16.2-44.9,9.4-53.7-11.6c-6-14.2-8.7-28.6-5.8-43.9c0.4-1.9,0.5-4,0.2-5.9c-3.9-25.3-1-50.3,2.6-75.4
	c1.5-10.2,1.5-20.6,3-30.7c4.2-27.6,8.9-55.1,13.3-82.6c1.4-8.5,1.8-17.2,3.4-25.7c3.3-17.6,24.9-74.8,31.3-82.7
	C1226.3,553.5,1236.3,550.1,1235.8,546.7z"/>
<g>
	<path fill="#4672B8" d="M528.6,1091.4c1.9-3.5,3.8-6.9,5.5-10.5c0.8-1.7,1-3.8,2-5.4c11-17.3,21.9-34.6,33.2-51.6
		c2.3-3.5,4.5-8.6,10-7.7c5.4,0.9,7.3,5.9,9,10.4c1,2.7,1.8,5.5,2.2,8.4c1.9,14.5,4.5,28.8,3.7,43.7c-0.6,13,0.9,26.2,1.8,39.3
		c0.6,8.2,4.1,9.8,11.4,5.7c2-1.1,3.9-2.2,5.8-3.4c8-5.1,9.2-7.7,6.4-16.6c-3.6-11.5-1.1-22.9,0.8-34.1c1.4-8.4,2.9-17.2,6.2-24.9
		c3-6.8,8.5-12.6,13.2-18.6c2.8-3.5,6-6.7,9.5-9.5c7.9-6.3,13.6-4.8,18.5,4.3c3.7,6.8,4,14.3,3.6,21.5c-0.5,11.7-3.3,22.8-10.4,32.5
		c-2.8,3.9-5.3,8-8.1,11.9c-6.8,9.7-4.4,26.4,4.9,33.7c6.8,5.3,15.2,4.8,22.8-1.7c10.5-9.1,19.1-19.8,26.4-31.5
		c1.6-2.5,3.4-4.8,5.1-7.2c0.7,0.3,1.3,0.7,2,1c-0.3,2,0,4.2-0.9,5.8c-8.5,16.5-20.2,30.3-35.5,40.9c-2.4,1.7-6,2.6-9,2.3
		c-11.8-1.1-23.5-2.6-35.2-4.4c-2.6-0.4-4.9-2.7-7.8-4.4c-1.6,1-3.5,2.1-5.1,3.5c-11.2,9.4-24.7,9.7-38.1,8.8
		c-10.7-0.7-19.1-9.7-20.7-21c-1.9-14-2-28,0.5-42.1c1.4-7.9,1.2-16.2,1.9-26.4c-3.7,6.2-6.6,10.7-9.1,15.3
		c-10.5,19.4-20.8,38.8-31.4,58.1c-2.1,3.9-5.1,7.3-7.8,10.8c-1.9,2.6-4,5-6.5,8c-2.5-2.7-5.5-5.3-10.7-5.5
		c-6.6-0.3-8.4-3.6-8.5-10.2c-0.3-13-0.7-26.1-1.3-39.1c-0.1-2-1-4-1.9-7.2c-3,3.6-5.8,6-7.1,9c-5.3,12-14.8,20.8-22.9,30.6
		c-9,10.9-20.6,10.5-31.8,2.3c-11.1-8.2-17-19.2-23.9-30.4c-8.1-13.2-8.6-27-8.7-41.2c-0.1-11.1,1.3-22.3,1.7-33.4
		c0.1-3.3-0.6-6.7-1.1-11.1c-7.9,2.1-14.7,3.8-21.4,5.7c-16.9,4.8-33.6,10.6-50.7,14.1c-9.4,1.9-19.9,1.6-29.5-0.3
		c-17.6-3.4-34.3-10-49.8-19.2c-16.5-9.8-24.8-25.4-31.1-42.4c-2.5-6.8-3.1-14.2-4.9-21.2c-2.3-9.3,0-18.4,0.9-27.5
		c0.2-1.9,0.3-3.8,0.5-6.7c-5-1.1-9.9-2.7-14.8-3.2c-14-1.4-24.6-10.2-36.7-15.9c-0.3-0.1-0.6-0.3-0.8-0.6
		c-11.9-16-27-30.2-27.2-52.5c-0.1-14,6.9-38.1,14.6-50.2c7.8-12.2,17.6-21.9,30.2-28.8c4.2-2.3,8.5-4.2,14.5-1.4
		c-2.1,1.6-3.4,2.8-4.8,3.6c-8.1,4.6-15.9,9.5-21.4,17.4c-8.9,12.9-8.5,27.1-6.7,41.6c2,15.2,9.5,28.4,15.4,42.1
		c2.7,6.4,7,12.2,11.3,17.7c4,5,8.9,9,15.6,10.6c4.6,1.1,8.9,3.2,14.6,5.4c1.4-2.4,3.2-5.2,4.8-8c7-12.9,13.6-26,21.1-38.6
		c3-5.1,8-9,11.8-13.7c1.9-2.3,3.1-5.2,4.4-7.3c4.1-2.6,8.3-4.8,12-7.6c8.9-6.8,19.1-8.8,29.8-8.8c4.9,0,8.2,3.2,10.7,7.2
		c8.1,13,8.1,26.3-0.4,38.8c-11.1,16.3-25.4,29.6-41.7,40.6c-3.1,2.1-6.9,3.4-10.6,4.3c-8.3,2.2-9.7,3.2-9.5,11.6
		c0.2,9.3,0.6,18.6,2.1,27.8c2.8,16.7,6.1,33.3,14.5,48.4c11,19.9,28.2,29.5,50.3,28.7c12.6-0.5,25.3-3.6,37.6-6.6
		c12.7-3.1,25-7.8,37.6-11.2c8.3-2.2,12.1-7.8,13.7-15.5c1.8-8.7,3.6-17.5,4.7-26.3c1.4-11.1,5.8-20.9,11.1-30.5
		c2.1-3.7,5.2-7.9,9.6-6.5c3.4,1.1,6.9,4.8,8.5,8.3c3.1,6.7,4.2,14,3,21.6c-1.1,6.9-1.3,14-1.8,21c-0.1,1.5,0.7,3,1.3,5.6
		c10.2-3.8,20.1-7.2,29.7-11.1c30.6-12.4,62.1-22.3,93.9-30.4c22.2-5.6,44.3-12.5,67.5-14.8c15.8-1.6,31.4,0.3,47,0.7
		c11.2,0.3,22.5,0.4,33.5,2.2c11.3,1.8,22.4,5.2,33.4,8.5c4.4,1.3,5.7,5.4,4.1,11.2c-10.5-8.7-23.1-9.8-34.8-13
		c-5.4-1.5-11.4-1-17.2-1.3c-19.2-0.8-38.4-2-57.5-2.1c-18.3-0.1-36.2,3.9-53.6,9.5c-4.5,1.4-9.4,1.8-14,3c-8,2.1-16,4.4-23.9,6.9
		c-18.2,5.9-36.5,11.7-54.6,18.1c-14.5,5.1-28.5,11.2-43,16.3c-8.8,3.1-13.6,7.8-13.7,18c-0.1,15-2.2,30-2.9,45
		c-0.9,19,0.7,37.8,5,56.3c0.9,4,2.5,8,4.5,11.6c3.3,5.9,6.7,6.7,11.4,1.8c7.3-7.6,14-15.8,20.6-24c3.2-3.9,5.4-8.7,8.5-12.7
		c9.3-12,14-25.6,15.4-40.7c0.4-5,2.8-9.7,3.7-14.7c1.6-8.5,1.3-17.5,4.3-25.4c3-7.8,9.1-14.4,13.7-21.6c2.8-4.3,5.2-9.9,11.4-8.3
		c6.1,1.6,6.2,7.4,6.1,12.7c0,1.9,0.4,4-0.2,5.7c-5.5,17.1-2.6,35-4.5,52.4c-1.7,15.5-2.8,31.1-4,46.7c-0.3,4.3,0.4,8.6,0.6,12.9
		C527.3,1091,528,1091.2,528.6,1091.4z M247.5,884.2c7.7,1.3,11.9,0.4,17.7-4.2c7.9-6.4,16.1-12.7,23.3-19.8
		c7.7-7.6,15-15.9,16.8-27.2c1.3-8.1-2.8-21.1-7.9-22.2c-8.3-1.9-15.8,0.4-21.5,7.2c-0.4,0.5-0.9,0.9-1.3,1.4
		C258.4,837.7,251.5,860,247.5,884.2z M649.1,1077.5c14.8-14.8,20.4-43.1,10.9-55.5C651.7,1029,644.7,1064.6,649.1,1077.5z"/>
	<path fill="#4672B8" d="M832,1060.8c-6.6,8.1-13.6,16-19.7,24.5c-7,9.8-15.9,17.5-25.2,24.8c-3.2,2.5-8.1,2.9-13.1,2.8
		c0.7-1.1,1.2-2.6,2.2-3.2c13.9-8.4,25.1-19.5,34.7-32.6c7.5-10.3,16.5-19.6,24.3-29.7c3.3-4.2,5.4-9.3,7.9-14c1.1-2,1.6-4.2,2.8-6
		c1.8-2.7,4.1-5.2,7.9-4.2c4.1,1,5.5,4.4,5.9,8c0.7,6.4,0.8,12.8,1.2,19.1c0.3,3.7,0.8,7.4,3,11.8c2.7-3.4,5.3-6.8,8-10.2
		c6.7-8.5,13.2-17.3,20.4-25.4c3.3-3.7,7.8-6.6,12.2-9c6-3.2,12.1-2.2,16.9,2.5c4.9,4.8,8.8,10.4,6.9,17.8c-1,4-2.8,7.8-4.7,11.5
		c-4.9,9.6-10.4,18.9-15,28.7c-2.2,4.7-3,10.1-4.5,15.4c2.2,0.6,3.5,1.3,3.9,1c10.9-8,23.2-14.4,28.1-28.9
		c3.7-10.9,10.5-20.5,20-27.7c6.9-5.2,13.5-10.9,20.6-15.8c5-3.5,10.8-6,17.2-4.3c1.7,0.4,3,2.9,4.4,4.4c-1.5,1.3-3.1,3.7-4.6,3.7
		c-15.6,0-21.5,11.5-26.1,23c-3.3,8.4-4.4,17.9-5.6,27c-0.7,4.9,0.1,10.2,0.9,15.2c1,5.8,2.8,6.9,8.5,6.6
		c11.2-0.6,21.1-10.1,21.8-21.4c0.9-13.5,6.4-25.3,13.6-36.5c3.4-5.3,9.9-8.3,12.8-6.2c4.8,3.4,3.7,8.6,2.7,13.2
		c-2.5,11.4-3.6,22.8-1.9,34.3c0.5,3.4,1.8,6.8,2.8,10.1c1.4,4.9,5.3,6.2,9.8,6c7.6-0.3,14.6-7.3,16.3-14.9
		c4.2-18.3,10.8-35.7,26.2-47.7c6.9-5.4,15.2-9.4,23.3-13c6.1-2.7,10.6-0.1,13.6,6.5c-2.8,0.7-5.9,0.7-8,2.1c-3.5,2.6-8,5.5-9.3,9.2
		c-5.8,16.9-13.4,33.4-13.4,51.8c0,2.9,0.4,7.1,2.2,8.6c3.4,2.8,7.7,0.7,10.3-2.2c4-4.4,8.2-9,10.7-14.3c5.1-11,9.5-22.3,18-31.4
		c1.1-1.2,2-2.5,3.3-3.5c5.1-4,9.2-2.9,10.3,3.7c1.7,10.4,3.3,20.9,1.1,31.5c-1.9,9.3-3.2,18.7-5,29.2c12.9-4.3,22.4-11.5,31.5-19.9
		c-1.3-2.8-2.5-5.1-3.4-7.4c-0.8-2.1-2.1-4.5-1.6-6.4c2.5-8.6,2-18,7.9-25.7c5.2-6.7,8.9-14.9,14.7-20.9
		c6.2-6.3,13.7-11.6,21.5-15.9c7.9-4.4,11.8-1.6,12.9,7.4c1.2,10.5-0.3,20.3-7.7,28.7c-5.7,6.4-10.6,13.6-15.6,20.6
		c-4.8,6.7-3.9,20.8,1.6,27c4.4,5,10.4,4.5,16,3.7c4-0.6,8.2-2.2,11.6-4.4c9.6-6.3,19.2-12.8,28.2-19.9c8.8-7,13.4-16.8,15.8-27.8
		c0.3-1.2,0.7-2.3,1.2-4c6.3,2,4.8,6.6,3.7,10c-1.6,5.1-3.4,10.6-6.7,14.8c-13.2,17-30.1,29.6-50.1,37.3c-12.4,4.8-25.1,2.9-36-6.2
		c-2.9-2.4-6.3-4.3-9.3-6.3c-11.4,7-22.4,13.3-33,20.4c-2.9,1.9-5.6,5.7-6.2,9.1c-4.1,21.8-15.5,40.5-24.4,60.3
		c-4.6,10.3-13.6,16.2-21.9,22.4c-10,7.6-23.6,0.2-24.9-12.3c-0.9-9.3,2.4-17.7,6.2-25.9c5.8-12.5,12.3-24.7,24.5-32.5
		c1.5-1,3.2-2.7,3.5-4.3c1.5-7.8,2.4-15.6,3.6-23.2c-1-0.6-1.6-1.3-2-1.2c-9.4,3.5-17.5,2.6-25.2-4.9c-4.5-4.4-11.1-6.6-18.5-10.8
		c-7.1,4.1-15.7,10.1-27.2,8.3c-10-1.6-20.7-0.2-27.3-10.6c-2.6,1.8-4.8,2.7-6.1,4.3c-7.1,8.2-16.5,11.8-26.7,13.5
		c-13.8,2.3-24.3-3.8-29.8-16.6c-1-2.3-2-4.7-3.2-7.4c-8,3-12.9,9.5-19,14.3c-4.7,3.7-8.9,9.1-15.7,3.6c-0.6-0.5-1.9-0.4-2.8-0.1
		c-3.6,1.3-7.3,1.5-9.7-1.6c-2.5-3.2-5.1-6.9-5.8-10.7c-0.8-4.5-0.2-9.6,0.7-14.2c2.5-12.3,10.4-21.9,16.9-32.1
		c5.1-8,10.6-15.7,16.6-24.5c-7.4,0.8-11.9,4.9-15.8,9.3c-6.1,7-11.7,14.4-17.4,21.7c-3.7,4.8-7.4,9.6-10.8,14.6
		c-3.6,5.3-6.7,10.8-7,17.6c-1.1,23.7-4.1,47.2-8.5,70.5c-2.5,13.3-5.9,26.1-15.5,36.5c-2.5,2.8-3.9,6.6-5.9,9.9
		c-6.9,10.9-16.7,14.8-28.7,10.9c-5.5-1.8-9.1-6.1-9.4-12.1c-0.2-3.8,0.4-7.7,1.2-11.4c4.5-20.5,13.6-39.2,24.2-57.2
		c4.5-7.7,7-15.9,8.5-24.3c2.8-15.3,4.7-30.8,6.9-46.3C832.9,1061.3,832.4,1061.1,832,1060.8z M819.8,1146c-0.8-0.2-1.5-0.5-2.3-0.7
		c-1.7,3.6-2.8,7.7-5.1,10.8c-8.2,11.2-10,24.7-13.8,37.5c-1.7,5.8,0.1,10.7,3.3,11.8c3.6,1.3,8.9-1.7,11.4-6.7
		c1-1.9,1.9-4.2,1.9-6.3c0.1-9.3,2.1-18.4,3.2-27.6C819.3,1158.4,819.4,1152.2,819.8,1146z M1088.4,1148.2
		c-14,13.4-21,28.3-23.5,45.4c-0.1,0.6,0,1.3,0,1.9c0.2,3.3,0.8,7.3,4.4,7.4c2.6,0.1,6.2-2.2,7.6-4.5c2-3.4,2-7.9,3.7-11.5
		C1086,1175.2,1087.4,1162.8,1088.4,1148.2z M1193.3,1062.9c14.6-14.7,21.1-23.5,15.1-39.6
		C1200.7,1035.8,1198.1,1048.9,1193.3,1062.9z"/>
	<path fill="#4672B8" d="M1500.1,1105.7c7.2-6,14.8-11.8,20.4-19.5c1.2-1.7,1.5-4.2,1.8-6.3c1.9-12.3,6.9-23.4,13.9-33.4
		c6.2-8.9,15.7-14.1,25.1-18.8c8.2-4.1,13.3-1.4,16.5,7.4c-2.7-0.7-5-1.3-8.1-2.2c-1.7,3.2-4.2,6.4-5.1,9.9c-2.5,9.9-4.5,20-6.4,30
		c-1.3,6.9-2.1,13.9-2.7,20.9c-0.4,5-1.9,11.9,3.3,13.8c3.8,1.3,10.2-1.2,13.9-4c5.5-4.2,10.2-9.8,14.2-15.5
		c6.3-9.1,13.6-17.8,15.8-30c-2.6-1.7-5.1-3.6-7.8-5c-10.3-5.3-13.3-18.1-5.9-27.3c3.2-4,7-7.2,12.6-8.1c8.3-1.3,11.7,0.3,12.5,8.6
		c0.5,4.9-0.9,10.1-1.8,15.1c-1,5.5-2.1,10.9,4.1,14.6c7.4-0.5,13.1-3.9,17-10.6c3.7-6.3,7.9-12.4,11.7-18.7
		c3.2-5.3,7.3-9.8,13-12.3c6.9-3,11.5,0,11.4,7.5c0,3.1-1,6.3-2,9.3c-5.3,16.4-11.2,32.7-16,49.2c-1.5,5.3-1.5,11.4-0.5,16.9
		c1.3,6.5,6,8.4,10.6,4.1c15.4-14.8,32.6-28.8,35.2-52c1.4-12.7,8.6-21.7,16.7-30.3c1.9-2,6.4-3.8,8.4-2.8c2.5,1.2,5.2,5.3,5.2,8.1
		c-0.2,10.5-1.5,21-2.5,31.5c-1,10.2-2.7,20.3-3.1,30.5c-0.6,15.2,7.7,22.6,26.5,23.4c19.9,0.8,36.4-8.6,50.6-22.1
		c1.6-1.5,3-3.5,4.8-4.7c17.3-12.1,21.6-30.4,23-49.6c0.6-7.8-0.9-16-2.6-23.8c-2.4-11-12.4-17.5-22.2-14.8c-3.7,1-7.8,3.7-9.8,6.8
		c-7.6,11.9-8.4,25.3-5.7,38.8c0.4,2.2,2.6,4.2,4.1,6.2c1.1,1.5,2.6,2.8,3.7,4.2c0.3,0.4,0,1.2-0.1,2.7c-9.8-1.8-18.8-5.4-27-10.6
		c-2.2-1.4-3.9-5.5-3.9-8.3c0.1-6.3,0.3-13,2.3-18.9c4.3-12.4,25.6-26.1,38.8-26.1c10.6,0,21.5,9.2,24.4,19.9
		c5.6,21.1,1.3,41.3-5.8,61.1c-0.5,1.5-1.4,2.9-2.4,4.1c-14.5,17.8-32.9,30.2-54.7,37c-13.6,4.2-27.3,3.2-40.3-2.9
		c-1.7-0.8-3.5-1.8-5.3-2.3c-17.6-5.5-20.8-11.6-29.4-28.9c-2.9,3.4-5.5,6.4-8.2,9.4c-5.6,6.1-11.2,12.2-16.9,18.3
		c-5.4,5.7-12,5.5-18.7,3.2c-7.8-2.6-14.1-7.7-19-14.1c-1.8-2.3-2.6-5.8-2.8-8.9c-0.6-7.6-0.6-15.2-0.8-23.6c-2.7,0-5.5,0.2-8.2,0.1
		c-2.5-0.1-5-0.6-7.8-1c-4.6,8.1-8.7,16.4-13.7,24.1c-6.2,9.7-13,19-22.7,25.7c-11.1,7.7-19.4,7.2-30.8-0.7
		c-6.8-4.7-13.8-8.8-18.2-18c-8.5,7.8-16.4,14.6-23.7,22c-2.1,2-3.1,5.5-3.8,8.5c-1.7,7.5-2.8,15.1-4.3,22.6
		c-3.8,18.1-11.2,34.6-21.8,49.7c-5.2,7.5-13,12.1-21.4,15c-11.9,4.1-22.3-7-19.8-20.2c1.5-7.9,5.8-14.1,11.2-19.7
		c4.2-4.4,8.2-9,12.5-13.3c5.9-6.1,7.7-13.7,8.6-21.8c0.8-7.6,1.9-15.1,2.9-22.7c0.6-5,1.3-10,2.1-16.1
		c-6.3,5.7-11.4,10.6-16.8,15.3c-19.5,16.9-49.6,6.3-54.5-19.2c-1-5.2-1.3-10.6-2.1-17.6c-4.9,4.7-8.9,8.5-13,12.3
		c-10.8,10-22,19.5-36.2,24.3c-4.5,1.5-9.6,4.1-15.7-0.8c4.9-1.6,8.8-3.2,12.9-4.2c9.4-2.2,16.8-7.8,24.1-13.5
		c17.6-13.6,33.8-28.4,42.2-50c2.1-5.4,6.5-10.1,10.3-14.8c2.4-2.9,5.7-6,9.9-3.8c4.2,2.1,7.1,6,6.8,10.8
		c-0.4,7.3-1.1,14.7-2.6,21.9c-2.2,10.3-5.5,20.4-7.9,30.6c-1.1,4.9-1.8,10.2-1.6,15.2c0.4,10.2,7.7,14.3,16.5,9.1
		c6-3.6,12.1-7.7,16.6-12.9c10.2-11.8,19.5-24.2,24.3-39.7c2.7-8.6,8.6-16.3,13.3-24.2c1.8-3.1,4.4-6,8.5-4.6c4,1.4,4.4,5.4,4.2,8.9
		c-1,12.1-2.2,24.2-3.6,36.3c-1.1,9.8-2.5,19.6-3.8,29.4C1498.4,1104.7,1499.3,1105.2,1500.1,1105.7z M1456.9,1161.1
		c-0.8-0.3-1.6-0.5-2.4-0.8c-5.4,5.9-11.3,11.3-15.9,17.7c-3,4.2-5,9.7-5.9,14.8c-1.1,6.1,2.5,10.7,7.4,11.7c5.1,1,9.2-1.8,11.1-8.1
		c1.3-4.6,2.3-9.3,3-14C1455.3,1175.4,1456,1168.3,1456.9,1161.1z"/>
	<path fill="#FED700" d="M247.5,884.2c4-24.2,10.8-46.5,27.1-64.9c0.4-0.5,0.9-0.9,1.3-1.4c5.7-6.8,13.3-9,21.5-7.2
		c5.2,1.2,9.3,14.1,7.9,22.2c-1.9,11.4-9.1,19.6-16.8,27.2c-7.2,7.2-15.4,13.4-23.3,19.8C259.5,884.6,255.3,885.5,247.5,884.2z"/>
	<path fill="#FED700" d="M649.1,1077.5c-4.4-12.9,2.6-48.5,10.9-55.5C669.5,1034.4,663.9,1062.7,649.1,1077.5z"/>
	<path fill="#FED700" d="M819.8,1146c-0.4,6.2-0.5,12.5-1.3,18.7c-1.1,9.2-3.1,18.3-3.2,27.6c0,2.1-0.9,4.4-1.9,6.3
		c-2.6,5-7.9,8-11.4,6.7c-3.2-1.1-5.1-6-3.3-11.8c3.8-12.8,5.7-26.2,13.8-37.5c2.3-3.2,3.4-7.2,5.1-10.8
		C818.3,1145.5,819,1145.7,819.8,1146z"/>
	<path fill="#FED700" d="M1088.4,1148.2c-1,14.6-2.4,27-7.8,38.7c-1.7,3.7-1.6,8.2-3.7,11.5c-1.4,2.3-5,4.6-7.6,4.5
		c-3.7-0.1-4.3-4.1-4.4-7.4c0-0.6-0.1-1.3,0-1.9C1067.5,1176.5,1074.5,1161.6,1088.4,1148.2z"/>
	<path fill="#FED700" d="M1193.3,1062.9c4.8-13.9,7.4-27.1,15.1-39.6C1214.4,1039.3,1207.9,1048.1,1193.3,1062.9z"/>
	<path fill="#FED700" d="M1456.9,1161.1c-0.9,7.1-1.6,14.3-2.7,21.3c-0.7,4.7-1.7,9.5-3,14c-1.9,6.3-6,9.2-11.1,8.1
		c-4.9-1-8.5-5.6-7.4-11.7c1-5.2,2.9-10.6,5.9-14.8c4.6-6.4,10.5-11.9,15.9-17.7C1455.3,1160.6,1456.1,1160.9,1456.9,1161.1z"/>
</g>
<g>
	<path fill="#4672B8" d="M648.9,310.8c-6.5,18.1-21.2,24.7-37.2,16.6c-0.9,1.7-1.9,3.3-2.6,5.1c-2.5,5.9-6.4,9.6-13.2,10.1
		c-3.1,0.2-6.2,1.6-9.2,2.4c-8.9,2.5-14.8-1.3-15.9-10.6c-0.3-2.4-0.2-4.9-0.3-7.7c-2.9,0.1-5.6,0.1-8.8,0.2
		c-0.1,3.8,0.1,7.6-0.5,11.4c-0.9,6.3-2.4,12.5-3.5,18.8c-0.5,2.7-1.9,4.4-4.7,5.2c-3,0.9-5.9,2.5-8.8,3.8c-7.8,3.6-15,0.5-18.2-7.3
		c-1.9-4.7-2.5-9.2-1.5-14.1c0.4-2,1.3-3.9,1.9-5.9c-0.7-0.3-1.3-0.6-2-0.8c-3.4,0.7-6.8,1.3-9.8,1.9c-1.6,5.2-2.8,10-4.5,14.6
		c-1.4,3.7-4,6.7-7.8,8.3c-3.3,1.4-3.8,3.8-3.6,7.2c0.5,7.7,0.4,15.5,0.3,23.2c0,3.8-1.9,6.5-5.3,8.2c-2.7,1.3-5.3,2.7-8,3.8
		c-4.4,1.7-8.4,1.2-11.6-2.8c-2.1-2.6-4.6-4.8-7.9-8.2c-1.5,7.5-4.1,13.2,1.2,19.1c4.9,5.5,5.4,15.4,1.2,21
		c-1.3,1.7-4.1,3.3-6.1,3.2c-1.4-0.1-3.8-3.2-3.7-4.9c0.6-8.6-5.4-10.5-11.6-12.5c-3-1-5.9-2.3-9.9-3.8c-0.1,3-0.2,5.6-0.3,8.1
		c-0.5,6.6-0.9,13.2-1.8,19.7c-0.3,1.9-2,3.6-3.5,6c-2.4-3.3-1.4-5.8-0.8-8.1c2-7.7,2-15.4,1.5-23.2c-0.2-3.2-1-5.7-4.1-8
		c-3.6-2.6-6.5-6.4-8.7-10.3c-1.4-2.5-1.6-6.2-1.1-9.2c0.8-4.6,4.3-5.7,8.2-3.1c1.5,1,2.6,2.5,3.9,3.8c1.2,1.3,2.2,3.3,3.7,4
		c7.9,3.4,15.9,6.6,24.7,10.1c2.1-8.9,4.2-16.8,4.1-25c-0.1-5,0.5-9.6,3-13.9c0.9-1.6,2.7-3.6,4.2-3.7c2.7-0.2,4.8,2.1,4.9,4.8
		c0.4,10.6,8,17,13.7,24.4c0.8,1,2.1,1.5,3.9,2.7c0.9-2.3,2.2-4.1,2.2-5.9c0-6.6-0.3-13.2-0.6-19.8c-0.1-2.7-1.8-3.9-4.6-4
		c-2.5-0.1-5.6-0.2-7.1-1.7c-1.9-1.8-3.4-5.1-3.3-7.7c0.1-3.9,2.3-7.6,6.2-9.2c1.1-0.4,3.2,0.3,4.2,1.2c1.9,1.6,3.3,3.7,4.9,5.6
		c3,3.6,4.7,3.7,7.6,0.3c4.2-4.9,5.1-10.6,4.4-16.7c-0.5-3.8-1.3-7.6-2-11.6c5.4-2.1,10.1,0.5,14.9,1.3c3.8,0.6,7.5,2,11.3,2.2
		c3.9,0.2,5.8,2.1,6.8,5.5c1.3,4.4,2.4,8.8,3.9,13.1c1.5,4.2,3.8,7.8,9.5,9c1.2-3.1,3-6.2,3.3-9.4c0.7-7.2,0.7-14.6,0.8-21.8
		c0-1.1-0.4-2.5-1.2-3.1c-4.8-4.3-2.9-9-1.4-13.9c5.2,0.1,9.3,2,13.5,3.8c4.6,2,9.2,4.1,14,5.3c3.6,0.9,5.5,2.6,7,5.7
		c1.5,3,3.2,6.1,5.5,8.4c3.2,3.3,6.8,3.1,9.3-0.6c3.9-5.9,7.4-11.5,4.5-19.6c-2-5.7-1.3-12.6-1.1-18.9c0.1-3.2,1.9-6.1,5.2-7.5
		c3.6-1.4,6.6,0.6,8.5,3c3.1,4.1,5.7,8.7,8,13.4c2.5,5.1,4,10.7,6.4,15.9c2,4.5,4.9,4.7,7.3,0.5c3.7-6.3,5.5-12.8,3.8-20.3
		c-1.5-6.6-1.9-13.5-2.6-20.3c-0.2-1.8-0.2-3.9,0.7-5.3c1.1-1.7,3-3.7,4.8-4c1.2-0.2,3.2,2.1,4.2,3.7c4.7,7.5,9.1,15.2,13.8,22.8
		c0.9,1.5,2.5,2.5,4.3,4.3c3.4-2.8,6.4-5.7,9.7-7.9c6.1-4,12.4-7.7,18.7-11.3c2.2-1.2,4.7-1.6,6.8,1.8c-1.6,0.8-2.9,1.6-4.3,1.9
		c-10.4,2.8-17.6,10.3-25.2,17.2c-2.3,2.1-2.4,4.7-0.8,7.5c5.1,8.8,6.4,18.4,6.3,28.4c-0.1,3.3-0.4,6.3-2.4,9
		c-0.8,1.1-1.1,2.5-1.7,3.7c-1.1,2.3-2,4.6-3.3,6.8c-2.7,4.4-7.4,7-10.7,6c-5-1.5-6.5-5.7-6.8-10.1c-0.7-9.7-2.9-19.4,0.2-29.2
		c0.4-1.4-0.3-3.6-1.2-5C653.3,315.7,651.2,313.6,648.9,310.8z M661.2,328.2c-3.5,9.5-0.7,17.7,0.4,25.8c0.4,2.9,3.5,3.8,5.7,1.9
		c1.4-1.3,2.7-3.3,2.9-5.1C671.2,341.9,667.3,335.1,661.2,328.2z"/>
	<path fill="#4672B8" d="M339.7,513.5c0.4,0.6,1,1.1,1.1,1.7c0.4,2.2,0.6,4.5,0.9,6.6c-6.8,3.4-6.8,3.4-15.9-3.9
		c-0.6,3-1.1,5.6-1.5,8.2c-1.3,7.1-9,14.6-16,14.9c-2.5,0.1-5-1.5-8.1-2.5c-0.8,3.7-1.6,7.4-2.4,10.9c-2.8,0.4-4.1-0.4-4-2.8
		c0-1.4,0.3-2.7,0.4-4.1c0.6-5.7,0-11-3-16.4c-4.2-7.7-3.7-12.1-0.3-19c3.6-0.7,5.8,1.4,8,3.9c3.8,4.2,7.7,8.4,11.6,12.6
		c1.2,1.3,2.7,2.2,4.5,3.6c1.3-1.6,2.8-2.6,3.1-3.9c1.2-6.9,3.1-13.7-1.3-20.6c-1.7-2.7-2.1-6.5-2.1-9.8c0-4.8,3.7-7,8-4.8
		c2.6,1.3,4.8,3.4,7.1,5.3c1.2,0.9,2.3,2,4.4,3.9c0.7-3.2,1.5-5.5,1.7-7.8c0.3-3.2-0.1-6.4,0.1-9.6c0.3-6.4,5.6-8.9,10.9-5.2
		c2.8,1.9,5.2,4.4,8.7,7.4c0.7-2.2,1.6-3.7,1.7-5.2c0.4-5,0.2-10.1,0.7-15c0.9-9.1,6.7-11.6,14.2-6.1c3.3,2.4,6,5.6,8.8,8.5
		c2.5,2.6,4.8,5.3,7.9,8.7c1.8-3.7,3.1-6.6,4.6-9.8c2.8,5.4,2.3,13.5-0.6,16.4c-4.5,4.5-12.4,5.8-17.6,2.5c-2.4-1.6-4.4-3.8-6.4-5.9
		c-1.8-1.9-3.4-4.1-5.7-6.9c-1.8,5.4-0.5,9.9-0.4,14.2c0.1,4.8,0.9,9.5,1,14.2c0,2.5,0.6,5.6-3.1,6.8c-3.7,1.2-7.2,0.6-9.9-2.6
		c-1.9-2.2-3.5-4.8-5.3-7.1c-0.8-1-1.8-2-3.7-4.1c-0.4,5.2-0.6,9.2-1,13.1c-0.3,3.4-0.7,6.7-1.1,10.1c-0.9-1-1.9-2-2.8-3.1
		c-0.4,0.4-0.7,0.9-1.1,1.3C336.3,513.6,337.3,514.6,339.7,513.5z"/>
	<path fill="#4672B8" d="M296,590.8c-10.7-1.9-20.4-3-29.9-5.3c-14.1-3.5-24.6-12.5-33.4-23.7c-7-8.9-10-19.4-11.7-30.3
		c-2-12.6-2.2-25.1,2.3-37.2c1.4-3.8,3.3-7.6,5.4-11c1-1.7,3.2-2.6,6.2-4.8c-0.2,3.2,0.1,4.8-0.4,6.1c-5.2,14.3-4.4,28.6-1.5,43.2
		c4,19.6,14.8,34.5,30.8,46c4.9,3.5,10.1,6.1,16.2,7c3.6,0.5,7.1,1.7,10.7,2.6C294.5,584.2,295.8,586.7,296,590.8z"/>
	<path fill="#4672B8" d="M681.9,195.5c2.9-3.5,6.4-2.6,9.8-2.2c9,1.1,17.3,4.6,25.1,8.8c9.1,4.8,17.4,10.8,23.6,19.4
		c10.4,14.4,15.9,30.2,12.7,48c-1.4,7.8-4.2,15.3-6.6,22.9c-1,3.2-2.6,3.9-7,3.6c-1-3.2,0.1-6.2,1.3-9.1c8.6-21,2.6-39.7-9.1-57.5
		c-8.1-12.3-20.1-19.7-32.6-26.5c-3.3-1.8-7.4-2.2-11.2-3.1C685.5,199.2,682.9,199,681.9,195.5z"/>
	<path fill="#4672B8" d="M674.7,253.7c-3.9,1.3-6.5,0.3-9.2-3.3c-4.2-5.6-6.9-11.6-8.4-18.4c-0.6-3.1-2.3-5.9-3.5-8.9
		c-0.5-1.3-1.2-2.5-1.5-3.8c-1.2-4.2-0.2-7.6,2.5-9.2c2.9-1.7,8.2-0.8,10.7,2c1.1,1.2,2.1,2.5,2.6,4c3,8.8,6.2,17.6,8.8,26.5
		C678.1,247.5,677.6,247.7,674.7,253.7z"/>
	<path fill="#4672B8" d="M268.4,482c4.1-3.5,8.6-2.7,12.7,2.3c2.7,3.2,1.9,11.6-1.4,14.1c-3.5,2.6-11.6,1.4-14.5-2.1
		C261.9,492.1,263.1,486.5,268.4,482z"/>
	<path fill="#4672B8" d="M683.8,276.4c-2.8,2.4-10.3,2-12.8-0.6c-2.8-3-2.3-9.5,1-12.4c3.3-2.9,9.6-2.3,12.2,1.2
		C686.9,268.1,686.7,274,683.8,276.4z"/>
	<path fill="#4672B8" d="M661.2,328.2c6.1,7,10.1,13.8,9,22.5c-0.2,1.8-1.5,3.9-2.9,5.1c-2.2,2-5.3,1.1-5.7-1.9
		C660.4,345.8,657.7,337.6,661.2,328.2z"/>
</g>
</svg>
