<?xml version="1.0" encoding="utf-8"?>
<!-- Generator: Adobe Illustrator 16.0.0, SVG Export Plug-In . SVG Version: 6.00 Build 0)  -->
<!DOCTYPE svg PUBLIC "-//W3C//DTD SVG 1.1//EN" "http://www.w3.org/Graphics/SVG/1.1/DTD/svg11.dtd">
<svg version="1.1" xmlns="http://www.w3.org/2000/svg" xmlns:xlink="http://www.w3.org/1999/xlink" x="0px" y="0px" width="360px"
	 height="360px" viewBox="0 0 360 360" enable-background="new 0 0 360 360" xml:space="preserve">
<g id="map">
</g>
<g id="Layer_5">
	<rect x="-45" y="-41" fill="#FFFFFF" width="459" height="459"/>
	<rect x="0" fill="#FFF200" width="360" height="360"/>
</g>
<g id="parks" display="none">
	<rect x="83.318" y="171.714" display="inline" fill="#FFFFFF" width="24.349" height="40.622"/>
	<rect x="224.333" y="171.714" display="inline" fill="#FFFFFF" width="24.349" height="40.622"/>
	<rect x="307.666" y="171.714" display="inline" fill="#FFFFFF" width="67.334" height="40.622"/>
	<rect x="126.17" y="262.382" display="inline" fill="#FFFFFF" width="82.633" height="106.621"/>
</g>
<g id="notsomain_streets" display="none">
	
		<line display="inline" fill="none" stroke="#EC008C" stroke-width="6" stroke-miterlimit="10" x1="-19.666" y1="51.002" x2="365" y2="51.002"/>
	<polyline display="inline" fill="none" stroke="#EC008C" stroke-width="6" stroke-miterlimit="10" points="107.667,-17.284 
		107.667,217.002 123.667,259.67 	"/>
	<polyline display="inline" fill="none" stroke="#EC008C" stroke-width="6" stroke-miterlimit="10" points="-25,259.67 
		339.667,259.67 360,271.851 392.333,271.851 	"/>
	<polyline display="inline" fill="none" stroke="#EC008C" stroke-width="6" stroke-miterlimit="10" points="208.803,257.002 
		224.333,219.669 224.333,-12.998 	"/>
	
		<line display="inline" fill="none" stroke="#EC008C" stroke-width="6" stroke-miterlimit="10" x1="-14.333" y1="215.669" x2="386.333" y2="215.669"/>
	
		<line display="inline" fill="none" stroke="#EC008C" stroke-width="6" stroke-miterlimit="10" x1="47.153" y1="86.338" x2="107.667" y2="86.338"/>
	
		<line display="inline" fill="none" stroke="#EC008C" stroke-width="6" stroke-miterlimit="10" x1="249.667" y1="165.417" x2="339" y2="-25.664"/>
	
		<line display="inline" fill="none" stroke="#EC008C" stroke-width="6" stroke-miterlimit="10" x1="-52.333" y1="333.002" x2="79.854" y2="333.002"/>
	
		<line display="inline" fill="none" stroke="#EC008C" stroke-width="6" stroke-miterlimit="10" x1="-14.333" y1="124.002" x2="367.667" y2="124.002"/>
	
		<line display="inline" fill="none" stroke="#EC008C" stroke-width="6" stroke-miterlimit="10" x1="165.82" y1="171.714" x2="165.82" y2="259.67"/>
</g>
<g id="main_streets" display="none">
	
		<line display="inline" fill="#FFFFFF" stroke="#27AAE1" stroke-width="10" stroke-miterlimit="10" x1="-40.75" y1="167.306" x2="360.424" y2="167.306"/>
	
		<line display="inline" fill="#FFFFFF" stroke="#27AAE1" stroke-width="10" stroke-miterlimit="10" x1="-2.073" y1="-21.63" x2="82.318" y2="167.306"/>
	
		<line display="inline" fill="#FFFFFF" stroke="#27AAE1" stroke-width="10" stroke-miterlimit="10" x1="165.82" y1="-17.284" x2="165.82" y2="171.714"/>
	
		<line display="inline" fill="#FFFFFF" stroke="#27AAE1" stroke-width="10" stroke-miterlimit="10" x1="303.743" y1="363.169" x2="303.743" y2="-32.334"/>
	
		<line display="inline" fill="#FFFFFF" stroke="#27AAE1" stroke-width="10" stroke-miterlimit="10" x1="252.73" y1="171.714" x2="252.73" y2="371.987"/>
	
		<line display="inline" fill="#FFFFFF" stroke="#27AAE1" stroke-width="10" stroke-miterlimit="10" x1="81.854" y1="170.77" x2="81.854" y2="362.225"/>
	<polyline display="inline" fill="none" stroke="#27AAE1" stroke-width="10" stroke-miterlimit="10" points="31.005,50.187 
		166.45,-9.032 491.42,134.56 	"/>
	
		<line display="inline" fill="#FFFFFF" stroke="#27AAE1" stroke-width="10" stroke-miterlimit="10" x1="11.837" y1="363.169" x2="11.837" y2="-2.104"/>
	
		<line display="inline" fill="#FFFFFF" stroke="#27AAE1" stroke-width="10" stroke-miterlimit="10" x1="79.854" y1="315.003" x2="-19.666" y2="266.497"/>
	
		<line display="inline" fill="#FFFFFF" stroke="#27AAE1" stroke-width="10" stroke-miterlimit="10" x1="252.73" y1="315.003" x2="491.42" y2="204.336"/>
</g>
<g id="things_outlined" display="none">
	<path display="inline" fill="#27AAE1" d="M493.523,208.872l-4.207-9.072l-180.573,83.722V172.306h51.681v-10h-51.681V59.308
		l180.656,79.825l4.041-9.146l-184.697-81.61v-80.71h-10v76.291L175.985-10.285l22.569-18.153l-6.268-7.792l-23.555,18.946h-6.076
		l-26.942-16.775l-5.285,8.489l25.315,15.762L32.711,43.984L16.837,8.446v-10.55h-4.712L2.493-23.669l-9.131,4.078L6.837,10.579
		v151.728H-40.75v10H6.837v101.546l-24.313-11.85l-4.381,8.988l28.694,13.985v78.192h10v-73.318l60.017,29.252v43.122h10V172.306
		H247.73v199.681h10v-53.791l41.013-19.016v63.988h10v-68.625L493.523,208.872z M16.837,162.306V32.967l57.771,129.339H16.837z
		 M76.854,172.306v135.672l-60.017-29.252v-106.42H76.854z M298.743,172.306v115.852l-41.013,19.015V172.306H298.743z
		 M298.743,162.306H170.82V-1.635L298.743,54.89V162.306z M160.82-1.114v163.42h-75.26L36.789,53.114L160.82-1.114z"/>
	<g display="inline">
		<path fill="#EC008C" d="M360.83,268.851l-20.333-12.181H212.189l15.144-36.402v-1.599h159v-6h-159v-85.667h36.982l-17.366,37.145
			l5.436,2.541l18.554-39.686h96.729v-6h-93.924l31.323-67H365v-6h-57.128l33.846-72.396l-5.436-2.541l-35.034,74.937h-73.915v-61
			h-6v61H110.667v-65.286h-6v65.286H-19.666v6h124.333v29.336H47.153v6h57.514v31.664h-119v6h119v85.667h-119v6h119.421
			l14.25,38.001H-25v6h363.837l20.333,12.181h33.163v-6H360.83z M221.333,219.069l-15.3,36.78l1.972,0.82H168.82v-38.001h52.513
			V219.069z M298.443,54.002l-31.323,67h-39.787v-67H298.443z M110.667,54.002h110.667v67H110.667V54.002z M110.667,127.002h110.667
			v85.667H168.82v-40.955h-6v40.955h-52.154V127.002z M111.496,218.669h51.325v38.001h-37.075L111.496,218.669z"/>
		<rect x="-52.333" y="330.002" fill="#EC008C" width="132.188" height="6"/>
	</g>
	<path display="inline" fill="#262262" d="M287.212,155.498c0,7.565-13.698,26.923-13.698,26.923s-13.698-19.358-13.698-26.923
		s6.134-13.698,13.698-13.698S287.212,147.932,287.212,155.498z"/>
	<rect x="282.082" y="195.806" display="inline" fill="#262262" width="14.116" height="13.898"/>
	<rect x="58.473" y="195.806" display="inline" fill="#262262" width="14.116" height="13.898"/>
	<rect x="76.26" y="136.914" display="inline" fill="#262262" width="14.116" height="13.898"/>
	<rect x="83.318" y="171.714" display="inline" fill="#FFFFFF" width="24.349" height="40.622"/>
	<rect x="224.333" y="171.714" display="inline" fill="#FFFFFF" width="24.349" height="40.622"/>
	<rect x="307.666" y="171.714" display="inline" fill="#FFFFFF" width="67.334" height="40.622"/>
	<rect x="126.17" y="262.382" display="inline" fill="#FFFFFF" width="82.633" height="106.621"/>
</g>
<g id="pins_and_metro" display="none">
	<path display="inline" fill="#262262" d="M287.212,155.498c0,7.565-13.698,26.923-13.698,26.923s-13.698-19.358-13.698-26.923
		s6.134-13.698,13.698-13.698S287.212,147.932,287.212,155.498z"/>
	<rect x="282.082" y="195.806" display="inline" fill="#262262" width="14.116" height="13.898"/>
	<g display="inline">
		<path fill="#FFFFFF" d="M285.004,198.619h1.962l2.174,3.498l2.175-3.498h1.962v8.272h-1.797v-5.401l-2.328,3.534h-0.047
			l-2.305-3.498v5.365h-1.796V198.619z"/>
	</g>
	<rect x="58.473" y="195.806" display="inline" fill="#262262" width="14.116" height="13.898"/>
	<g display="inline">
		<path fill="#FFFFFF" d="M61.395,198.619h1.962l2.174,3.498l2.175-3.498h1.962v8.272H67.87v-5.401l-2.328,3.534h-0.047
			l-2.305-3.498v5.365h-1.796V198.619z"/>
	</g>
	<rect x="76.26" y="136.914" display="inline" fill="#262262" width="14.116" height="13.898"/>
	<g display="inline">
		<path fill="#FFFFFF" d="M79.182,139.728h1.962l2.174,3.498l2.175-3.498h1.962V148h-1.797v-5.401l-2.328,3.534h-0.047l-2.305-3.498
			V148h-1.796V139.728z"/>
	</g>
	<circle display="inline" fill="#FFFFFF" cx="273.334" cy="155.333" r="5.666"/>
</g>
<g id="all_the_things_on_yellow">
	<g>
		<path fill="#FFFFFF" d="M378.698,260.952l-4.389-8.985l-20.496,8.87l-11.549-6.605l-31.747,0.642l-0.768-37.994l77.574-1.565
			l-0.121-5.999l-77.574,1.566l-0.006-0.333l66.243-1.338l-0.82-40.613l-14.573,0.294l-0.189-9.406l-51.671,1.043l-0.712-35.297
			l58.911-1.189l-0.121-5.999l-58.911,1.189l-1.245-61.682l68.104,27.425l3.855-9.226l-59.336-23.76l43.515-0.878l-0.121-5.999
			l-56.245,1.135l-0.038-1.863l31.545-71.184l-5.486-2.431l-26.344,59.449l-1.299-64.292l-9.997,0.202l1.539,76.275l-72.032-30.105
			l-0.513-25.396l-5.999,0.121l0.46,22.745L172.398-9.348l22.198-18.605l-6.424-7.664l-23.168,19.418l-6.074,0.123l-27.275-16.228
			l-5.113,8.594l25.628,15.248L107.5,12.152l-0.548-27.179l-5.999,0.121l0.602,29.802L30.249,47.801l-16.588-35.21L13.448,2.043
			L8.736,2.139L-1.329-19.228l-9.047,4.261L3.706,14.925l0.755,37.416l-26.498,0.535l0.121,5.999L4.583,58.34l1.352,66.986
			l-21.167,0.427l0.121,5.999l21.167-0.427l0.713,35.297l-47.577,0.96l0.202,9.998l47.577-0.96l0.815,40.355l-21.167,0.427
			l0.121,5.999l21.167-0.428l0.767,37.994l-31.831,0.643l0.121,5.998l7.198-0.145l-3.887,8.401l28.97,13.403l0.909,45.016
			l-59.159,1.194l0.121,5.999l59.159-1.194l0.548,27.161l9.998-0.201l-0.548-27.162l60.005-1.211l0.529,26.217l9.998-0.201
			l-2.01-99.535l39.308-0.793l2.146,106.312l82.616-1.668l-2.146-106.312l38.92-0.786l2.206,109.296l9.998-0.202l-1.086-53.78
			l40.621-19.84l1.291,63.976l9.998-0.202l-1.385-68.61l46.509-22.715l3.51,2.007l33.156-0.669l-0.121-5.999l-28.168,0.569
			L378.698,260.952z M300.52,255.074l-41.005,0.828l-0.767-37.993l41.004-0.828L300.52,255.074z M258.627,211.91l-0.814-40.354
			l9.237-0.187c3.431,5.487,6.747,9.98,6.747,9.98s3.132-4.624,6.338-10.245l18.682-0.377l0.814,40.354L258.627,211.91z
			 M209.8,256.906l-39.177,0.791l-0.767-37.994l52.502-1.06l0.008,0.4l-14.555,37.082L209.8,256.906z M75.664,139.833l0.092,4.568
			l-6.759-14.348l34.868-0.704l0.712,35.297l-19.102,0.385l-5.365-11.388l9.947-0.201l-0.281-13.896L75.664,139.833z M295.85,53.085
			l-29.686,66.987l-39.778,0.803l-1.353-66.986l69.388-1.401L295.85,53.085z M263.481,126.128l-15.79,35.63l-20.473,0.414
			l-0.712-35.297L263.481,126.128z M170.005,128.015l50.502-1.02l0.713,35.297l-50.503,1.02L170.005,128.015z M220.387,120.997
			l-50.502,1.02l-1.353-66.986l50.502-1.02L220.387,120.997z M159.886,122.218l-50.144,1.013l-1.352-66.986l50.144-1.013
			L159.886,122.218z M160.007,128.217l0.713,35.297l-50.144,1.012l-0.712-35.297L160.007,128.217z M102.984,85.695l-54.367,1.098
			L34.924,57.728l67.467-1.362L102.984,85.695z M103.105,91.694l0.639,31.657l-37.547,0.758L51.417,92.738L103.105,91.694z
			 M87.779,215.026l17.808-0.359l0.007,0.333l-17.809,0.359L87.779,215.026z M110.778,174.524l52.143-1.053l0.815,40.355
			l-52.144,1.053L110.778,174.524z M169.735,213.705l-0.814-40.355l52.501-1.06l0.815,40.354L169.735,213.705z M228.229,212.19
			l20.394-0.411l0.007,0.333l-20.394,0.411L228.229,212.19z M298.615,160.73L285.2,161c1.085-2.667,1.784-5.084,1.748-6.845
			c-0.152-7.563-6.409-13.571-13.972-13.418c-7.562,0.153-13.571,6.408-13.419,13.972c0.035,1.76,0.831,4.147,2.022,6.769
			l-7.266,0.146l15.789-35.63l27.799-0.561L298.615,160.73z M272.786,119.939l23.916-53.968l1.079,53.463L272.786,119.939z
			 M280.724,46.764l-55.812,1.126l-0.498-24.661L280.724,46.764z M218.362,20.7l0.551,27.312l-50.502,1.02l-1.001-49.627
			L218.362,20.7z M157.421,0.127l0.992,49.106l-50.144,1.012l-0.548-27.183L157.421,0.127z M102.271,50.367l-56.174,1.134
			l55.679-25.694L102.271,50.367z M14.156,37.107l7.018,14.897l-6.714,0.136L14.156,37.107z M14.581,58.138l9.394-0.189
			l31.272,66.382l-39.314,0.793L14.581,58.138z M58.047,130.275l16.479,34.979l-57.759,1.166l-0.713-35.297L58.047,130.275z
			 M16.968,176.418l60.005-1.211l0.814,40.355l-60.004,1.211L16.968,176.418z M17.904,222.771l60.005-1.212l0.767,37.993
			l-60.005,1.212L17.904,222.771z M-14.146,267.429l22.94-0.464l0.226,11.181L-14.146,267.429z M20.151,334.082l-0.811-40.144
			l60.595,28.034l0.22,10.897L20.151,334.082z M79.711,310.852l-60.595-28.035l-0.324-16.053l60.005-1.212L79.711,310.852z
			 M88.674,259.352l-0.767-37.993l18.23-0.368l15.014,37.705L88.674,259.352z M112.543,220.86l51.314-1.035l0.767,37.993
			l-37.067,0.748L112.543,220.86z M213.983,256.821l14.405-36.7l-0.032-1.599l20.394-0.411l0.768,37.993L213.983,256.821z
			 M260.534,306.395l-0.898-44.493l41.005-0.828l0.515,25.483L260.534,306.395z M311.06,281.719l-0.421-20.848l30.088-0.607
			l6.569,3.757L311.06,281.719z"/>
		
			<rect x="282.881" y="194.306" transform="matrix(-0.0202 -0.9998 0.9998 -0.0202 94.3721 495.2099)" fill="#FFFFFF" width="13.898" height="14.116"/>
		
			<rect x="59.317" y="198.819" transform="matrix(-0.0202 -0.9998 0.9998 -0.0202 -138.2304 276.2892)" fill="#FFFFFF" width="13.898" height="14.116"/>
	</g>
	<g>
		<path fill="#F05130" d="M357.83,264.849l-20.333-12.181H209.189l15.144-36.402v-1.599h159v-6h-159V123h36.982l-17.366,37.145
			l5.436,2.541L267.938,123h96.729v-6h-93.924l31.323-67H362v-6h-57.128l33.846-72.396l-5.436-2.541L298.248,44h-73.915v-61h-6v61
			H107.667v-65.286h-6V44H-22.666v6h124.333v29.336H44.153v6h57.514V117h-119v6h119v85.667h-119v6h119.421l14.25,38.001H-28v6
			h363.837l20.333,12.181h33.163v-6H357.83z M218.333,215.067l-15.3,36.78l1.972,0.82H165.82v-38.001h52.513V215.067z M295.443,50
			l-31.323,67h-39.787V50H295.443z M107.667,50h110.667v67H107.667V50z M107.667,123h110.667v85.667H165.82v-40.954h-6v40.954
			h-52.154V123z M108.496,214.667h51.325v38.001h-37.074L108.496,214.667z"/>
		<rect x="-55.333" y="326" fill="#F05130" width="132.188" height="6"/>
	</g>
	<g>
		<path fill="#0C4168" d="M61.353,192.602V206.5h14.116v-13.898H61.353z M72.547,203.688H70.75v-5.401l-2.328,3.534h-0.047
			l-2.305-3.498v5.365h-1.796v-8.272h1.962l2.174,3.498l2.175-3.498h1.962V203.688z"/>
		<path fill="#0C4168" d="M79.853,134.352v13.898h14.116v-13.898H79.853z M91.047,145.438H89.25v-5.401l-2.328,3.534h-0.047
			l-2.305-3.498v5.365h-1.796v-8.272h1.962l2.174,3.498l2.175-3.498h1.962V145.438z"/>
		<path fill="#0C4168" d="M285.978,190.856v13.898h14.116v-13.898H285.978z M297.172,201.942h-1.797v-5.401l-2.328,3.534H293
			l-2.305-3.498v5.365h-1.796v-8.272h1.962l2.174,3.498l2.175-3.498h1.962V201.942z"/>
		<path fill="#0C4168" d="M275.441,135.352c-7.564,0-13.697,6.132-13.697,13.698s13.697,26.923,13.697,26.923
			s13.699-19.358,13.699-26.923S283.006,135.352,275.441,135.352z M281.131,157.004l-5.689-4.133l-5.688,4.133l2.174-6.687
			l-5.688-4.133h7.031l2.172-6.687l2.173,6.687h7.032l-5.688,4.133L281.131,157.004z"/>
	</g>
	<path fill="#3AC1CC" d="M385.289,264.033L381,255l-64.206,27.766l-1.014-111.21l51.679-0.471l-0.092-10l-51.678,0.471
		L314.75,58.562L382,88l3.957-9.183L314.65,47.63l-0.735-80.707l-9.999,0.091l0.694,76.288L181.363-9.818l22.403-18.358
		l-6.338-7.734l-23.382,19.16l-6.076,0.055l-27.093-16.529l-5.208,8.537l25.458,15.531L38.59,45.754L22.393,10.363l-0.096-10.55
		l-4.712,0.042L7.756-21.621l-9.093,4.161l13.75,30.045l1.383,151.721l-47.585,0.434l0.091,10l47.585-0.434l0.926,101.542
		l-24.42-11.627l-4.299,9.027l28.82,13.724l0.713,78.189l10-0.092l-0.668-73.315l60.281,28.704l0.393,43.12l10-0.091L93.9,173.578
		l160.869-1.466l1.82,216.979l9.999-0.091l-0.49-71.096l40.838-19.389l0.583,63.985l10-0.091l-0.625-68.622L385.289,264.033z
		 M23.795,164.216L22.617,34.882l58.947,128.807L23.795,164.216z M83.901,173.669l1.237,135.667l-60.281-28.704l-0.97-106.416
		L83.901,173.669z M305.78,171.646l1.056,115.848l-40.837,19.388l-1.229-134.861L305.78,171.646z M305.689,161.647l-127.917,1.166
		L176.278-1.121l128.433,55.356L305.689,161.647z M166.283-0.509l1.49,163.413l-75.257,0.686L42.751,54.847L166.283-0.509z"/>
	<rect x="47.905" y="124.618" fill="none" width="41.011" height="21.467"/>
	<text transform="matrix(1 0 0 1 47.9048 131.188)"><tspan x="0" y="0" fill="#0C4168" font-family="'GothamBold'" font-size="9">Farragut </tspan><tspan x="0" y="10.8" fill="#0C4168" font-family="'GothamBold'" font-size="9">North</tspan></text>
	<rect x="30.399" y="181.868" fill="none" width="41.011" height="21.468"/>
	<text transform="matrix(1 0 0 1 30.3989 188.4375)"><tspan x="0" y="0" fill="#0C4168" font-family="'GothamBold'" font-size="9">Farragut </tspan><tspan x="0" y="10.801" fill="#0C4168" font-family="'GothamBold'" font-size="9">West</tspan></text>
	<rect x="304.398" y="180.123" fill="none" width="59.936" height="21.467"/>
	<text transform="matrix(1 0 0 1 304.3984 186.6934)"><tspan x="0" y="0" fill="#0C4168" font-family="'GothamBold'" font-size="9">McPherson</tspan><tspan x="0" y="10.8" fill="#0C4168" font-family="'GothamBold'" font-size="9">Square</tspan></text>
	<rect x="16.398" y="165.473" fill="none" width="55.012" height="9.333"/>
	<text transform="matrix(1 0 0 1 16.3984 172.0425)" fill="#0C4168" font-family="'GothamBold'" font-size="9">K St.</text>
	<g>
		<path fill="#0C4168" d="M88.611,265.026l-0.271-1.099l1.135-0.287l0.54,1.809v0.945h-6.345v-1.368H88.611z"/>
		<path fill="#0C4168" d="M88.773,270.796v-2.962h1.196v4.536h-1.043l-5.256-2.826v-1.565L88.773,270.796z"/>
		<path fill="#0C4168" d="M83.589,275.034c0-0.21,0.023-0.4,0.068-0.571s0.124-0.318,0.238-0.441
			c0.113-0.123,0.262-0.219,0.445-0.288c0.184-0.068,0.416-0.104,0.697-0.104h2.286v-0.575h1.171v0.575h1.232v1.368h-1.232v1.134
			h-1.171v-1.134h-2.068c-0.313,0-0.47,0.147-0.47,0.441c0,0.239,0.061,0.465,0.18,0.675h-1.098
			c-0.084-0.145-0.151-0.303-0.202-0.477C83.615,275.463,83.589,275.262,83.589,275.034z"/>
		<path fill="#0C4168" d="M90.24,277.14v1.368h-2.436c0.103,0.078,0.201,0.164,0.295,0.257c0.093,0.093,0.177,0.196,0.249,0.311
			s0.13,0.24,0.172,0.378c0.043,0.138,0.064,0.294,0.064,0.468c0,0.522-0.16,0.926-0.478,1.211
			c-0.317,0.284-0.756,0.427-1.313,0.427h-3.123v-1.367h2.684c0.323,0,0.567-0.072,0.732-0.217c0.164-0.144,0.246-0.348,0.246-0.611
			c0-0.265-0.082-0.473-0.246-0.626c-0.165-0.152-0.409-0.229-0.732-0.229h-2.684v-1.368H90.24z"/>
		<path fill="#0C4168" d="M83.581,287.841c0-0.48,0.082-0.951,0.247-1.413s0.419-0.882,0.761-1.26l0.98,0.818
			c-0.234,0.288-0.42,0.584-0.559,0.887c-0.137,0.303-0.207,0.635-0.207,0.995c0,0.287,0.053,0.511,0.158,0.67
			s0.25,0.238,0.437,0.238h0.019c0.09,0,0.169-0.017,0.238-0.049c0.068-0.033,0.133-0.097,0.193-0.19
			c0.06-0.093,0.119-0.223,0.18-0.388s0.123-0.381,0.189-0.646c0.078-0.318,0.164-0.607,0.261-0.866
			c0.096-0.259,0.214-0.478,0.355-0.658c0.141-0.181,0.316-0.32,0.526-0.42s0.471-0.148,0.783-0.148h0.018
			c0.288,0,0.548,0.053,0.779,0.16c0.23,0.107,0.43,0.258,0.598,0.452c0.168,0.193,0.297,0.425,0.387,0.693
			c0.091,0.27,0.136,0.566,0.136,0.89c0,0.462-0.069,0.887-0.207,1.273c-0.138,0.388-0.337,0.743-0.595,1.066l-1.043-0.72
			c0.191-0.282,0.343-0.558,0.454-0.828c0.11-0.27,0.167-0.54,0.167-0.81c0-0.271-0.053-0.473-0.158-0.607s-0.235-0.203-0.391-0.203
			H88.27c-0.103,0-0.19,0.02-0.266,0.059s-0.143,0.11-0.202,0.213c-0.061,0.102-0.117,0.242-0.172,0.419
			c-0.054,0.178-0.117,0.401-0.188,0.673c-0.084,0.318-0.179,0.603-0.284,0.853c-0.104,0.25-0.23,0.46-0.377,0.632
			c-0.147,0.171-0.32,0.301-0.518,0.388c-0.198,0.087-0.436,0.131-0.711,0.131h-0.019c-0.312,0-0.589-0.057-0.833-0.17
			c-0.242-0.113-0.446-0.271-0.611-0.474c-0.165-0.203-0.291-0.444-0.378-0.726S83.581,288.183,83.581,287.841z"/>
		<path fill="#0C4168" d="M83.589,292.836c0-0.211,0.023-0.401,0.068-0.572s0.124-0.317,0.238-0.44
			c0.113-0.123,0.262-0.22,0.445-0.288c0.184-0.069,0.416-0.104,0.697-0.104h2.286v-0.576h1.171v0.576h1.232v1.368h-1.232v1.134
			h-1.171V292.8h-2.068c-0.313,0-0.47,0.146-0.47,0.44c0,0.24,0.061,0.465,0.18,0.675h-1.098c-0.084-0.144-0.151-0.303-0.202-0.477
			S83.589,293.063,83.589,292.836z"/>
		<path fill="#0C4168" d="M85.11,294.888v1.448h-1.439v-1.448H85.11z"/>
	</g>
	<g>
		<path fill="#0C4168" d="M260.768,270.156l-0.27-1.098l1.134-0.288l0.54,1.809v0.945h-6.345v-1.368H260.768z"/>
		<path fill="#0C4168" d="M255.719,275.098c0-0.511,0.084-0.954,0.25-1.332c0.167-0.378,0.396-0.721,0.688-1.026l0.997,0.837
			c-0.217,0.24-0.385,0.48-0.504,0.72c-0.12,0.24-0.181,0.501-0.181,0.783c0,0.324,0.075,0.581,0.227,0.77
			c0.15,0.189,0.367,0.283,0.651,0.283h0.018c0.271,0,0.482-0.104,0.634-0.31c0.15-0.207,0.226-0.476,0.226-0.806
			c0-0.198-0.022-0.386-0.067-0.562c-0.045-0.178-0.101-0.341-0.166-0.491l0.53-0.801l3.105,0.181v3.877h-1.215v-2.689l-1.098-0.072
			c0.03,0.126,0.056,0.252,0.076,0.378s0.031,0.276,0.031,0.45c0,0.307-0.039,0.593-0.116,0.861
			c-0.078,0.268-0.198,0.503-0.359,0.705c-0.162,0.202-0.37,0.361-0.624,0.476c-0.255,0.115-0.559,0.172-0.912,0.172h-0.018
			c-0.336,0-0.637-0.057-0.903-0.172c-0.266-0.114-0.493-0.276-0.682-0.484c-0.189-0.209-0.334-0.462-0.437-0.76
			C255.77,275.786,255.719,275.457,255.719,275.098z"/>
		<path fill="#0C4168" d="M255.746,280.264c0-0.211,0.022-0.401,0.067-0.572s0.124-0.317,0.238-0.44s0.263-0.22,0.445-0.288
			c0.184-0.069,0.416-0.104,0.698-0.104h2.285v-0.576h1.171v0.576h1.232v1.368h-1.232v1.134h-1.171v-1.134h-2.068
			c-0.312,0-0.469,0.146-0.469,0.44c0,0.24,0.06,0.465,0.18,0.675h-1.098c-0.085-0.144-0.152-0.303-0.203-0.477
			S255.746,280.491,255.746,280.264z"/>
		<path fill="#0C4168" d="M262.396,282.369v1.368h-2.436c0.103,0.078,0.201,0.163,0.295,0.256c0.094,0.094,0.177,0.197,0.249,0.311
			c0.073,0.114,0.13,0.24,0.173,0.378c0.042,0.139,0.063,0.294,0.063,0.469c0,0.521-0.159,0.925-0.478,1.21
			c-0.317,0.285-0.756,0.428-1.313,0.428h-3.123v-1.368h2.685c0.322,0,0.566-0.072,0.731-0.216c0.164-0.144,0.247-0.348,0.247-0.612
			c0-0.264-0.083-0.473-0.247-0.625c-0.165-0.153-0.409-0.229-0.731-0.229h-2.685v-1.368H262.396z"/>
		<path fill="#0C4168" d="M255.737,293.069c0-0.479,0.082-0.95,0.247-1.413c0.165-0.462,0.419-0.882,0.761-1.26l0.98,0.819
			c-0.233,0.288-0.42,0.583-0.558,0.887c-0.138,0.303-0.207,0.634-0.207,0.994c0,0.288,0.053,0.512,0.157,0.671
			c0.105,0.158,0.251,0.238,0.437,0.238h0.019c0.09,0,0.169-0.017,0.238-0.05c0.068-0.033,0.134-0.097,0.193-0.189
			c0.06-0.094,0.12-0.223,0.18-0.388c0.061-0.166,0.123-0.381,0.189-0.646c0.078-0.319,0.165-0.607,0.261-0.866
			s0.215-0.479,0.355-0.659s0.316-0.32,0.526-0.419c0.21-0.1,0.472-0.149,0.783-0.149h0.019c0.287,0,0.547,0.054,0.778,0.161
			c0.23,0.107,0.431,0.258,0.599,0.451c0.168,0.194,0.297,0.426,0.387,0.694s0.135,0.565,0.135,0.89
			c0,0.462-0.069,0.887-0.207,1.273s-0.336,0.742-0.594,1.066l-1.044-0.72c0.191-0.282,0.343-0.559,0.454-0.828
			c0.111-0.271,0.167-0.54,0.167-0.811c0-0.27-0.053-0.472-0.158-0.607c-0.104-0.135-0.235-0.202-0.391-0.202h-0.019
			c-0.102,0-0.19,0.02-0.266,0.059s-0.143,0.109-0.202,0.212c-0.061,0.103-0.117,0.242-0.171,0.42
			c-0.055,0.178-0.117,0.401-0.189,0.672c-0.084,0.319-0.179,0.604-0.283,0.853c-0.105,0.25-0.231,0.461-0.378,0.632
			c-0.147,0.172-0.319,0.301-0.518,0.389c-0.198,0.087-0.436,0.131-0.711,0.131h-0.019c-0.312,0-0.589-0.057-0.832-0.17
			s-0.447-0.271-0.612-0.475c-0.165-0.202-0.291-0.444-0.378-0.726C255.78,293.724,255.737,293.412,255.737,293.069z"/>
		<path fill="#0C4168" d="M255.746,298.064c0-0.21,0.022-0.4,0.067-0.571s0.124-0.318,0.238-0.441s0.263-0.219,0.445-0.288
			c0.184-0.068,0.416-0.104,0.698-0.104h2.285v-0.575h1.171v0.575h1.232v1.368h-1.232v1.134h-1.171v-1.134h-2.068
			c-0.312,0-0.469,0.147-0.469,0.441c0,0.239,0.06,0.465,0.18,0.675h-1.098c-0.085-0.145-0.152-0.303-0.203-0.477
			C255.771,298.493,255.746,298.292,255.746,298.064z"/>
		<path fill="#0C4168" d="M257.267,300.116v1.449h-1.439v-1.449H257.267z"/>
	</g>
	<g>
		<path fill="#0C4168" d="M55.348,38.651l2.636-1.161c0.73-0.321,1.376-0.373,1.938-0.155c0.475,0.185,0.833,0.551,1.075,1.1
			l0.007,0.017c0.205,0.467,0.258,0.898,0.16,1.292c-0.098,0.395-0.302,0.741-0.609,1.04l2.315,1.439l-1.483,0.653l-2.048-1.301
			l-0.016,0.007l-0.98,0.431l0.812,1.845l-1.269,0.559L55.348,38.651z M59.134,40.327c0.313-0.138,0.521-0.317,0.623-0.539
			s0.099-0.457-0.01-0.704l-0.007-0.017c-0.12-0.274-0.299-0.441-0.535-0.501c-0.236-0.06-0.511-0.021-0.823,0.117l-1.261,0.555
			l0.729,1.655L59.134,40.327z"/>
		<path fill="#0C4168" d="M61.062,35.84l1.252-0.551l0.981,2.229c0.03-0.125,0.068-0.25,0.116-0.373s0.109-0.241,0.184-0.353
			c0.075-0.113,0.167-0.216,0.276-0.31c0.11-0.094,0.244-0.177,0.403-0.247c0.478-0.21,0.911-0.227,1.301-0.051
			c0.388,0.176,0.695,0.52,0.92,1.03l1.258,2.858l-1.251,0.551l-1.082-2.457c-0.13-0.295-0.295-0.49-0.493-0.583
			c-0.198-0.093-0.418-0.086-0.66,0.02c-0.242,0.107-0.399,0.266-0.473,0.479c-0.073,0.212-0.045,0.466,0.085,0.762l1.082,2.457
			l-1.252,0.551L61.062,35.84z"/>
		<path fill="#0C4168" d="M71.051,38.739c-0.341,0.149-0.683,0.229-1.026,0.24c-0.342,0.01-0.665-0.042-0.967-0.154
			c-0.302-0.112-0.574-0.281-0.817-0.506c-0.243-0.224-0.435-0.495-0.575-0.813l-0.007-0.016c-0.14-0.319-0.211-0.644-0.212-0.974
			c-0.002-0.331,0.059-0.647,0.181-0.95c0.122-0.303,0.302-0.579,0.541-0.828c0.237-0.25,0.529-0.45,0.875-0.603
			c0.34-0.15,0.682-0.23,1.025-0.24c0.343-0.009,0.666,0.042,0.968,0.155s0.575,0.282,0.817,0.505
			c0.243,0.225,0.435,0.495,0.575,0.813l0.007,0.017c0.14,0.318,0.21,0.643,0.212,0.974c0.001,0.33-0.06,0.647-0.182,0.95
			c-0.122,0.303-0.302,0.579-0.541,0.828C71.689,38.385,71.396,38.586,71.051,38.739z M70.592,37.652
			c0.181-0.08,0.328-0.182,0.44-0.307c0.112-0.125,0.194-0.265,0.245-0.418c0.05-0.153,0.069-0.314,0.058-0.482
			c-0.012-0.168-0.054-0.335-0.126-0.5l-0.007-0.017c-0.073-0.165-0.168-0.308-0.287-0.429c-0.119-0.122-0.256-0.215-0.41-0.282
			c-0.154-0.067-0.317-0.102-0.488-0.105c-0.172-0.003-0.343,0.033-0.513,0.108c-0.182,0.08-0.328,0.183-0.44,0.307
			c-0.113,0.125-0.194,0.264-0.244,0.417c-0.051,0.153-0.07,0.314-0.058,0.483s0.054,0.335,0.127,0.5l0.007,0.017
			c0.072,0.165,0.168,0.308,0.287,0.429c0.119,0.122,0.256,0.216,0.41,0.282c0.153,0.067,0.315,0.102,0.484,0.106
			C70.244,37.766,70.417,37.729,70.592,37.652z"/>
		<path fill="#0C4168" d="M76.159,36.47c-0.258,0.114-0.529,0.174-0.814,0.182c-0.285,0.007-0.564-0.045-0.837-0.158
			c-0.272-0.112-0.527-0.285-0.764-0.519c-0.237-0.233-0.437-0.534-0.599-0.902l-0.007-0.017c-0.162-0.368-0.249-0.718-0.26-1.05
			c-0.012-0.332,0.03-0.637,0.129-0.913c0.098-0.276,0.246-0.517,0.444-0.722c0.198-0.205,0.429-0.366,0.692-0.482
			c0.335-0.148,0.64-0.203,0.915-0.167c0.274,0.036,0.525,0.11,0.751,0.221l-0.958-2.175l1.252-0.551l2.647,6.013l-1.251,0.551
			l-0.279-0.634c-0.062,0.276-0.172,0.529-0.33,0.76C76.732,36.137,76.489,36.325,76.159,36.47z M76.012,35.266
			c0.149-0.065,0.274-0.155,0.378-0.27c0.104-0.115,0.18-0.246,0.229-0.396c0.049-0.15,0.069-0.312,0.061-0.489
			s-0.053-0.355-0.133-0.536l-0.007-0.017c-0.08-0.182-0.182-0.334-0.306-0.46c-0.124-0.126-0.258-0.221-0.401-0.286
			c-0.144-0.064-0.292-0.098-0.447-0.099c-0.155,0-0.306,0.032-0.454,0.097c-0.148,0.065-0.274,0.155-0.378,0.269
			c-0.104,0.115-0.181,0.247-0.233,0.398s-0.074,0.313-0.066,0.486c0.007,0.173,0.052,0.354,0.135,0.541l0.007,0.017
			c0.08,0.181,0.182,0.334,0.306,0.46c0.124,0.125,0.259,0.22,0.405,0.284c0.146,0.063,0.296,0.096,0.45,0.096
			C75.712,35.364,75.864,35.332,76.012,35.266z"/>
		<path fill="#0C4168" d="M82.006,33.915c-0.329,0.145-0.66,0.225-0.991,0.24c-0.331,0.015-0.645-0.034-0.94-0.146
			c-0.295-0.113-0.562-0.282-0.799-0.509c-0.237-0.226-0.431-0.509-0.581-0.85l-0.007-0.017C78.55,32.32,78.473,32,78.457,31.672
			c-0.017-0.327,0.026-0.637,0.126-0.93c0.1-0.293,0.257-0.56,0.47-0.798c0.213-0.238,0.481-0.428,0.806-0.571
			c0.368-0.162,0.716-0.236,1.042-0.223c0.327,0.013,0.628,0.092,0.905,0.235c0.276,0.145,0.521,0.341,0.733,0.592
			c0.212,0.251,0.387,0.533,0.524,0.846c0.021,0.049,0.043,0.102,0.065,0.159c0.021,0.056,0.042,0.116,0.064,0.178l-3.073,1.353
			c0.187,0.259,0.406,0.42,0.66,0.482s0.52,0.031,0.8-0.092c0.209-0.092,0.38-0.21,0.513-0.354c0.134-0.144,0.253-0.334,0.358-0.57
			l0.997,0.318c-0.096,0.35-0.259,0.663-0.492,0.939C82.724,33.513,82.407,33.739,82.006,33.915z M81.645,30.907
			c-0.162-0.263-0.36-0.446-0.595-0.549c-0.236-0.102-0.485-0.095-0.749,0.021c-0.263,0.116-0.439,0.295-0.526,0.537
			c-0.087,0.241-0.093,0.516-0.016,0.823L81.645,30.907z"/>
		<path fill="#0C4168" d="M85.042,25.578l1.269-0.559l2.539,5.766l-1.269,0.559L85.042,25.578z"/>
		<path fill="#0C4168" d="M91.743,29.608c-0.313,0.138-0.657,0.226-1.031,0.262c-0.374,0.037-0.759,0.005-1.158-0.095l0.172-1.059
			c0.319,0.07,0.618,0.095,0.895,0.078c0.278-0.017,0.521-0.072,0.729-0.164c0.181-0.08,0.301-0.169,0.359-0.266
			c0.059-0.098,0.066-0.196,0.022-0.296l-0.007-0.016c-0.029-0.066-0.079-0.113-0.15-0.141c-0.071-0.028-0.157-0.041-0.258-0.039
			c-0.101,0.001-0.213,0.01-0.338,0.025c-0.124,0.016-0.255,0.031-0.393,0.045c-0.172,0.024-0.352,0.039-0.536,0.044
			c-0.185,0.006-0.362-0.014-0.533-0.06s-0.329-0.125-0.474-0.239c-0.145-0.113-0.265-0.277-0.359-0.491l-0.007-0.017
			c-0.099-0.225-0.144-0.443-0.135-0.653s0.06-0.408,0.152-0.593c0.092-0.185,0.222-0.35,0.391-0.497
			c0.168-0.146,0.365-0.269,0.59-0.368c0.28-0.123,0.584-0.203,0.912-0.24c0.328-0.036,0.648-0.027,0.96,0.025l-0.097,1.076
			c-0.275-0.029-0.534-0.036-0.775-0.018s-0.441,0.062-0.601,0.132c-0.154,0.067-0.256,0.147-0.308,0.238
			c-0.051,0.092-0.058,0.181-0.019,0.27l0.007,0.016c0.027,0.061,0.075,0.103,0.145,0.128c0.07,0.024,0.155,0.04,0.255,0.044
			c0.101,0.004,0.213,0.003,0.337-0.006c0.124-0.009,0.255-0.021,0.393-0.035c0.176-0.018,0.358-0.028,0.547-0.03
			c0.189-0.001,0.369,0.02,0.539,0.062c0.17,0.043,0.328,0.119,0.473,0.226c0.145,0.105,0.262,0.261,0.352,0.464l0.007,0.017
			c0.109,0.247,0.16,0.478,0.153,0.694c-0.006,0.216-0.062,0.415-0.165,0.598c-0.103,0.183-0.245,0.349-0.425,0.498
			C92.188,29.379,91.979,29.505,91.743,29.608z"/>
		<path fill="#0C4168" d="M91.703,22.35l1.252-0.551l2.647,6.013l-1.252,0.551L91.703,22.35z"/>
		<path fill="#0C4168" d="M98.069,26.824c-0.209,0.092-0.417,0.15-0.627,0.173c-0.209,0.023-0.408,0.007-0.596-0.047
			c-0.188-0.055-0.358-0.148-0.512-0.281c-0.153-0.132-0.278-0.308-0.375-0.528l-0.007-0.016c-0.107-0.242-0.155-0.47-0.145-0.685
			c0.011-0.214,0.068-0.414,0.175-0.598c0.106-0.184,0.253-0.353,0.446-0.506c0.191-0.153,0.419-0.287,0.683-0.403
			c0.225-0.1,0.429-0.169,0.61-0.21c0.182-0.041,0.365-0.068,0.548-0.084l-0.033-0.074c-0.116-0.263-0.284-0.428-0.503-0.496
			c-0.22-0.067-0.486-0.032-0.799,0.105c-0.242,0.107-0.446,0.221-0.611,0.343c-0.167,0.122-0.334,0.267-0.502,0.433l-0.734-0.818
			c0.196-0.21,0.411-0.407,0.646-0.589c0.235-0.182,0.539-0.355,0.912-0.52c0.346-0.152,0.66-0.24,0.942-0.262
			s0.538,0.011,0.767,0.1c0.237,0.092,0.447,0.241,0.629,0.446c0.182,0.205,0.338,0.455,0.469,0.752l1.127,2.562l-1.211,0.533
			l-0.21-0.478c-0.078,0.237-0.203,0.455-0.372,0.65C98.615,26.523,98.376,26.688,98.069,26.824z M98.067,25.792
			c0.296-0.131,0.502-0.307,0.618-0.528c0.115-0.222,0.123-0.447,0.021-0.678l-0.098-0.222c-0.132-0.001-0.271,0.012-0.419,0.041
			c-0.147,0.03-0.299,0.078-0.452,0.146c-0.27,0.119-0.458,0.264-0.565,0.436c-0.107,0.172-0.118,0.357-0.031,0.555l0.007,0.017
			c0.075,0.17,0.196,0.274,0.364,0.312C97.679,25.907,97.864,25.882,98.067,25.792z"/>
		<path fill="#0C4168" d="M99.712,20.73l1.252-0.551l0.278,0.631c0.03-0.125,0.068-0.25,0.116-0.373s0.109-0.241,0.184-0.354
			c0.075-0.112,0.167-0.215,0.276-0.31c0.11-0.094,0.244-0.176,0.403-0.246c0.478-0.21,0.911-0.228,1.3-0.052
			c0.388,0.177,0.695,0.52,0.92,1.03l1.259,2.859l-1.252,0.551l-1.082-2.457c-0.13-0.295-0.295-0.49-0.493-0.583
			s-0.418-0.086-0.66,0.021c-0.242,0.106-0.399,0.266-0.473,0.478c-0.073,0.212-0.045,0.467,0.085,0.762l1.082,2.457l-1.252,0.552
			L99.712,20.73z"/>
		<path fill="#0C4168" d="M108.637,22.171c-0.258,0.113-0.529,0.174-0.814,0.182c-0.286,0.007-0.564-0.045-0.837-0.158
			c-0.271-0.113-0.526-0.286-0.764-0.519s-0.437-0.534-0.599-0.902l-0.007-0.016c-0.162-0.368-0.249-0.718-0.261-1.051
			c-0.012-0.332,0.031-0.637,0.129-0.913c0.098-0.275,0.246-0.517,0.444-0.722c0.198-0.205,0.429-0.366,0.692-0.481
			c0.335-0.147,0.64-0.203,0.915-0.167c0.275,0.036,0.526,0.11,0.751,0.221l-0.957-2.175l1.251-0.551l2.648,6.013l-1.252,0.551
			l-0.279-0.634c-0.062,0.277-0.172,0.53-0.33,0.76C109.21,21.838,108.966,22.025,108.637,22.171z M108.491,20.967
			c0.148-0.065,0.274-0.156,0.377-0.271c0.104-0.114,0.18-0.246,0.229-0.396c0.048-0.15,0.069-0.312,0.06-0.488
			c-0.009-0.177-0.053-0.355-0.133-0.536l-0.007-0.017c-0.08-0.182-0.182-0.335-0.306-0.46s-0.258-0.221-0.401-0.286
			c-0.143-0.064-0.292-0.097-0.447-0.099c-0.154,0-0.305,0.032-0.454,0.097s-0.274,0.155-0.378,0.27
			c-0.103,0.114-0.181,0.247-0.232,0.397c-0.052,0.151-0.074,0.313-0.066,0.486c0.008,0.174,0.053,0.354,0.135,0.541l0.007,0.016
			c0.08,0.181,0.182,0.335,0.306,0.46c0.124,0.126,0.259,0.22,0.405,0.284c0.146,0.064,0.296,0.096,0.45,0.097
			C108.191,21.064,108.342,21.032,108.491,20.967z"/>
		<path fill="#0C4168" d="M114.371,12.615l1.169-0.515l5.028,4.719l-1.326,0.584l-1.096-1.062l-2.438,1.074l0.042,1.525
			l-1.293,0.569L114.371,12.615z M117.199,15.421l-1.589-1.533l0.057,2.207L117.199,15.421z"/>
		<path fill="#0C4168" d="M118.987,12.244l1.326-0.583l2.291,2.522l-0.306-3.396l1.302-0.573l0.221,5.214l-1.137,0.5L118.987,12.244
			z"/>
		<path fill="#0C4168" d="M128.404,13.488c-0.329,0.145-0.66,0.225-0.991,0.239c-0.332,0.015-0.645-0.034-0.94-0.146
			s-0.562-0.282-0.799-0.509c-0.237-0.226-0.431-0.509-0.581-0.85l-0.007-0.017c-0.138-0.313-0.215-0.633-0.231-0.96
			c-0.016-0.328,0.026-0.637,0.126-0.93c0.1-0.293,0.257-0.56,0.47-0.797c0.213-0.239,0.481-0.429,0.806-0.571
			c0.368-0.162,0.715-0.236,1.042-0.223c0.327,0.014,0.629,0.092,0.905,0.235c0.276,0.145,0.521,0.341,0.733,0.592
			c0.212,0.251,0.386,0.533,0.524,0.846c0.022,0.049,0.043,0.102,0.065,0.158s0.042,0.116,0.064,0.178l-3.073,1.353
			c0.186,0.259,0.406,0.419,0.66,0.481c0.253,0.062,0.52,0.031,0.8-0.092c0.209-0.092,0.38-0.21,0.513-0.354
			c0.133-0.144,0.253-0.334,0.358-0.571l0.996,0.318c-0.095,0.351-0.259,0.663-0.491,0.939
			C129.122,13.085,128.805,13.311,128.404,13.488z M128.043,10.48c-0.161-0.264-0.36-0.446-0.595-0.549
			c-0.236-0.103-0.485-0.096-0.748,0.02c-0.264,0.116-0.439,0.295-0.527,0.537c-0.086,0.241-0.092,0.516-0.015,0.823L128.043,10.48z
			"/>
		<path fill="#0C4168" d="M130.688,10.791l1.326-0.583l0.58,1.318l-1.326,0.583L130.688,10.791z"/>
	</g>
	<g>
		<path fill="#0C4168" d="M279.229,302.543l1.135-0.589l4.407,2.081l-1.788-3.442l1.215-0.631l2.904,5.589l-1.047,0.544
			l-4.554-2.146l1.847,3.553l-1.214,0.631L279.229,302.543z"/>
		<path fill="#0C4168" d="M290.394,303.963c-0.319,0.166-0.644,0.268-0.973,0.303c-0.33,0.036-0.646,0.008-0.947-0.085
			c-0.302-0.094-0.579-0.245-0.831-0.457c-0.251-0.21-0.463-0.479-0.635-0.811L287,302.897c-0.158-0.304-0.256-0.618-0.293-0.944
			c-0.037-0.325-0.014-0.638,0.066-0.937c0.082-0.3,0.221-0.575,0.418-0.825c0.197-0.252,0.452-0.46,0.768-0.623
			c0.355-0.186,0.698-0.282,1.025-0.289c0.327-0.008,0.634,0.052,0.919,0.177c0.284,0.126,0.541,0.307,0.771,0.544
			c0.226,0.236,0.419,0.506,0.576,0.81c0.025,0.048,0.05,0.1,0.076,0.154c0.023,0.055,0.05,0.112,0.074,0.174l-2.979,1.548
			c0.202,0.246,0.433,0.393,0.689,0.438c0.258,0.046,0.521-0.002,0.793-0.144c0.201-0.105,0.365-0.233,0.488-0.385
			c0.124-0.152,0.231-0.351,0.321-0.593l1.015,0.254c-0.072,0.354-0.216,0.678-0.43,0.968
			C291.085,303.515,290.783,303.761,290.394,303.963z M289.841,300.985c-0.179-0.253-0.389-0.422-0.631-0.51
			c-0.241-0.088-0.489-0.065-0.745,0.067c-0.255,0.133-0.419,0.322-0.491,0.569c-0.069,0.246-0.058,0.521,0.038,0.823
			L289.841,300.985z"/>
		<path fill="#0C4168" d="M290.635,298.278l1.23-0.639l2.036,2.239l-0.551-3.031l1.046-0.543l2.176,2.196l-0.65-2.97l1.206-0.627
			l0.908,5.007l-1.095,0.569l-2.188-2.2l0.526,3.063l-1.086,0.563L290.635,298.278z"/>
		<path fill="#0C4168" d="M303.039,294.472l-3.908-2.27l1.438-0.747l2.5,1.551l0.192-2.949l1.396-0.727l-0.4,4.478l1.157,2.228
			l-1.23,0.64L303.039,294.472z"/>
		<path fill="#0C4168" d="M310.352,293.592c-0.331,0.172-0.667,0.274-1.008,0.306c-0.342,0.033-0.667,0.003-0.977-0.091
			c-0.308-0.093-0.591-0.244-0.848-0.452s-0.466-0.467-0.626-0.775l-0.008-0.016c-0.161-0.309-0.252-0.628-0.274-0.958
			c-0.023-0.329,0.018-0.649,0.119-0.96c0.103-0.31,0.265-0.597,0.486-0.86c0.221-0.264,0.499-0.483,0.834-0.658
			c0.331-0.171,0.666-0.273,1.008-0.306c0.343-0.031,0.667-0.001,0.976,0.092c0.31,0.094,0.593,0.245,0.849,0.453
			c0.258,0.207,0.466,0.466,0.627,0.774l0.008,0.016c0.161,0.309,0.252,0.629,0.273,0.959c0.023,0.329-0.017,0.649-0.119,0.96
			c-0.103,0.31-0.264,0.597-0.486,0.86C310.965,293.199,310.686,293.418,310.352,293.592z M309.823,292.538
			c0.176-0.091,0.315-0.203,0.42-0.335c0.104-0.131,0.177-0.276,0.217-0.432c0.039-0.157,0.049-0.318,0.026-0.486
			c-0.022-0.167-0.076-0.331-0.159-0.49l-0.008-0.016c-0.083-0.159-0.188-0.296-0.314-0.41c-0.126-0.113-0.269-0.198-0.426-0.255
			c-0.159-0.056-0.324-0.081-0.495-0.073c-0.172,0.008-0.34,0.056-0.504,0.142c-0.177,0.092-0.316,0.203-0.421,0.335
			c-0.104,0.131-0.176,0.275-0.216,0.431c-0.041,0.157-0.05,0.319-0.027,0.485c0.023,0.169,0.075,0.332,0.159,0.492l0.008,0.016
			c0.083,0.159,0.188,0.296,0.313,0.409c0.128,0.114,0.27,0.199,0.428,0.256c0.157,0.057,0.322,0.081,0.49,0.074
			C309.482,292.675,309.653,292.627,309.823,292.538z"/>
		<path fill="#0C4168" d="M311.279,287.552l1.214-0.631l0.448,0.862c-0.029-0.356,0.017-0.678,0.138-0.964
			c0.122-0.286,0.368-0.516,0.738-0.688l0.66,1.271l-0.064,0.033c-0.404,0.211-0.658,0.499-0.763,0.863s-0.022,0.807,0.246,1.323
			l0.821,1.58l-1.214,0.631L311.279,287.552z"/>
		<path fill="#0C4168" d="M313.813,284.268l1.213-0.63l1.614,3.106l0.612-2.297l1.453-0.756l-0.753,2.533l3.034,1.719l-1.391,0.723
			l-2.026-1.168l-0.191,0.667l0.677,1.302l-1.214,0.63L313.813,284.268z"/>
		<path fill="#0C4168" d="M323.085,279.703l1.134-0.589l5.321,4.385l-1.286,0.668l-1.161-0.987l-2.364,1.229l0.14,1.519
			l-1.255,0.651L323.085,279.703z M326.088,282.321l-1.685-1.427l0.199,2.199L326.088,282.321z"/>
		<path fill="#0C4168" d="M327.666,279.036l1.286-0.669l2.449,2.371l-0.524-3.371l1.263-0.656l0.555,5.19l-1.101,0.572
			L327.666,279.036z"/>
		<path fill="#0C4168" d="M337.145,279.67c-0.32,0.166-0.644,0.267-0.973,0.303c-0.33,0.036-0.646,0.008-0.948-0.085
			c-0.302-0.095-0.578-0.245-0.83-0.457c-0.252-0.211-0.463-0.48-0.636-0.812l-0.008-0.016c-0.157-0.303-0.255-0.617-0.292-0.943
			s-0.015-0.638,0.065-0.938c0.082-0.299,0.221-0.574,0.419-0.824c0.196-0.252,0.452-0.46,0.767-0.623
			c0.356-0.186,0.699-0.282,1.026-0.289c0.327-0.009,0.633,0.052,0.918,0.176c0.285,0.127,0.541,0.307,0.771,0.545
			c0.227,0.236,0.419,0.506,0.577,0.81c0.025,0.048,0.05,0.1,0.075,0.154c0.024,0.055,0.05,0.112,0.075,0.173l-2.979,1.549
			c0.203,0.245,0.434,0.392,0.689,0.437c0.258,0.047,0.521-0.002,0.793-0.143c0.202-0.105,0.365-0.233,0.489-0.386
			c0.123-0.152,0.23-0.35,0.321-0.593l1.015,0.254c-0.073,0.355-0.216,0.678-0.431,0.969
			C337.835,279.222,337.533,279.468,337.145,279.67z M336.591,276.691c-0.179-0.252-0.389-0.422-0.63-0.51
			c-0.241-0.087-0.489-0.064-0.745,0.068s-0.419,0.322-0.491,0.568c-0.07,0.247-0.059,0.521,0.038,0.823L336.591,276.691z"/>
		<path fill="#0C4168" d="M339.25,276.831l1.285-0.668l0.664,1.277l-1.286,0.668L339.25,276.831z"/>
	</g>
	<g>
		<path fill="#0C4168" d="M199.57,1.037l1.382,0.566l0.525,3.092l2.541-1.837l1.383,0.565l-2.385,5.831l-1.266-0.518l1.558-3.807
			l-2.66,1.819l-0.034-0.013l-0.616-3.131l-1.546,3.782l-1.269-0.519L199.57,1.037z"/>
		<path fill="#0C4168" d="M205.515,10.373c-0.21-0.087-0.397-0.196-0.559-0.331c-0.163-0.134-0.29-0.289-0.381-0.462
			c-0.092-0.173-0.143-0.361-0.153-0.563c-0.011-0.203,0.029-0.415,0.119-0.637l0.008-0.016c0.1-0.244,0.229-0.437,0.392-0.579
			c0.161-0.141,0.345-0.238,0.55-0.29c0.208-0.052,0.432-0.062,0.676-0.031c0.242,0.031,0.496,0.102,0.765,0.21
			c0.226,0.094,0.419,0.191,0.574,0.294c0.156,0.103,0.302,0.215,0.441,0.336l0.03-0.075c0.109-0.266,0.111-0.502,0.007-0.707
			s-0.314-0.372-0.631-0.501c-0.244-0.1-0.467-0.167-0.672-0.202c-0.201-0.035-0.423-0.054-0.66-0.06l0.079-1.097
			c0.289-0.005,0.579,0.013,0.872,0.056c0.295,0.043,0.631,0.142,1.008,0.295c0.35,0.143,0.631,0.308,0.843,0.496
			c0.212,0.187,0.364,0.394,0.46,0.621c0.099,0.234,0.138,0.489,0.116,0.762s-0.092,0.56-0.216,0.86l-1.059,2.59l-1.226-0.501
			l0.198-0.482c-0.228,0.108-0.47,0.169-0.727,0.184C206.111,10.556,205.826,10.5,205.515,10.373z M206.257,9.654
			c0.299,0.123,0.568,0.149,0.809,0.079c0.239-0.071,0.406-0.224,0.502-0.457l0.092-0.225c-0.091-0.096-0.197-0.187-0.32-0.273
			c-0.123-0.085-0.263-0.161-0.419-0.224c-0.272-0.111-0.508-0.146-0.706-0.104c-0.198,0.042-0.339,0.163-0.421,0.363l-0.007,0.017
			c-0.07,0.173-0.062,0.332,0.028,0.478C205.904,9.456,206.05,9.57,206.257,9.654z"/>
		<path fill="#0C4168" d="M210.747,12.512c-0.317-0.129-0.619-0.316-0.904-0.559c-0.287-0.244-0.531-0.543-0.735-0.899l0.882-0.611
			c0.171,0.278,0.361,0.51,0.564,0.698c0.205,0.188,0.413,0.325,0.625,0.411c0.184,0.075,0.33,0.1,0.44,0.074
			c0.112-0.025,0.188-0.088,0.229-0.188l0.007-0.017c0.026-0.066,0.026-0.135-0.004-0.206s-0.08-0.141-0.151-0.212
			c-0.071-0.072-0.156-0.146-0.253-0.226c-0.1-0.079-0.2-0.162-0.306-0.25c-0.139-0.108-0.271-0.227-0.405-0.356
			c-0.132-0.128-0.24-0.27-0.326-0.425c-0.087-0.155-0.139-0.324-0.158-0.506c-0.018-0.183,0.018-0.383,0.105-0.6l0.006-0.017
			c0.095-0.228,0.219-0.411,0.377-0.551c0.157-0.139,0.335-0.241,0.532-0.303c0.196-0.062,0.407-0.083,0.628-0.063
			c0.224,0.02,0.447,0.076,0.675,0.168c0.284,0.116,0.552,0.279,0.806,0.49c0.254,0.211,0.472,0.447,0.649,0.708l-0.841,0.677
			c-0.171-0.218-0.346-0.409-0.524-0.57c-0.182-0.162-0.353-0.274-0.513-0.34c-0.156-0.063-0.284-0.083-0.386-0.056
			c-0.103,0.027-0.171,0.084-0.207,0.173l-0.006,0.016c-0.024,0.062-0.022,0.126,0.008,0.193c0.031,0.068,0.08,0.139,0.146,0.215
			c0.066,0.076,0.145,0.156,0.237,0.239c0.094,0.083,0.192,0.169,0.298,0.258c0.136,0.113,0.269,0.238,0.401,0.373
			c0.134,0.135,0.243,0.279,0.33,0.431c0.087,0.153,0.142,0.318,0.167,0.497c0.023,0.178-0.008,0.371-0.09,0.576l-0.008,0.017
			c-0.102,0.25-0.232,0.448-0.394,0.593c-0.16,0.146-0.34,0.245-0.543,0.298c-0.203,0.053-0.421,0.065-0.653,0.039
			S210.986,12.61,210.747,12.512z"/>
		<path fill="#0C4168" d="M214.929,14.223c-0.317-0.129-0.618-0.315-0.904-0.559s-0.531-0.543-0.736-0.899l0.883-0.612
			c0.172,0.279,0.359,0.511,0.564,0.699c0.206,0.188,0.415,0.325,0.626,0.411c0.183,0.075,0.329,0.1,0.44,0.074
			s0.188-0.089,0.228-0.189l0.008-0.017c0.027-0.066,0.025-0.135-0.003-0.205c-0.029-0.071-0.081-0.142-0.152-0.213
			c-0.071-0.071-0.155-0.146-0.253-0.225c-0.098-0.079-0.2-0.163-0.307-0.251c-0.137-0.107-0.271-0.226-0.403-0.355
			c-0.134-0.129-0.241-0.27-0.326-0.425c-0.086-0.155-0.14-0.324-0.159-0.507c-0.019-0.183,0.018-0.383,0.105-0.599l0.007-0.017
			c0.093-0.228,0.219-0.412,0.376-0.551c0.158-0.14,0.335-0.241,0.531-0.303c0.197-0.062,0.408-0.083,0.629-0.064
			c0.223,0.02,0.447,0.076,0.676,0.169c0.283,0.116,0.552,0.279,0.806,0.49s0.471,0.447,0.649,0.708l-0.841,0.676
			c-0.171-0.218-0.347-0.408-0.526-0.57c-0.182-0.161-0.351-0.274-0.513-0.34c-0.154-0.064-0.284-0.083-0.384-0.056
			c-0.104,0.027-0.172,0.084-0.208,0.173l-0.006,0.017c-0.025,0.061-0.023,0.126,0.008,0.193s0.079,0.139,0.145,0.215
			c0.066,0.076,0.147,0.155,0.239,0.238c0.092,0.083,0.19,0.169,0.298,0.258c0.135,0.114,0.269,0.238,0.401,0.374
			c0.133,0.135,0.242,0.278,0.328,0.43c0.089,0.153,0.143,0.318,0.167,0.497c0.026,0.178-0.005,0.37-0.089,0.576l-0.007,0.017
			c-0.102,0.25-0.233,0.447-0.394,0.592c-0.159,0.146-0.341,0.245-0.543,0.297c-0.204,0.053-0.422,0.066-0.654,0.039
			C215.402,14.383,215.167,14.32,214.929,14.223z"/>
		<path fill="#0C4168" d="M218.81,15.811c-0.211-0.086-0.396-0.197-0.559-0.331c-0.162-0.135-0.289-0.289-0.381-0.462
			c-0.091-0.173-0.143-0.362-0.154-0.563c-0.011-0.202,0.03-0.415,0.12-0.637l0.008-0.016c0.1-0.245,0.229-0.437,0.392-0.579
			s0.346-0.238,0.551-0.29c0.207-0.053,0.431-0.063,0.674-0.031c0.244,0.031,0.497,0.102,0.765,0.21
			c0.229,0.094,0.419,0.191,0.575,0.294s0.303,0.215,0.441,0.336l0.03-0.075c0.109-0.267,0.111-0.502,0.008-0.707
			c-0.105-0.205-0.314-0.372-0.631-0.501c-0.245-0.1-0.469-0.167-0.672-0.202s-0.424-0.055-0.661-0.061l0.079-1.097
			c0.288-0.005,0.579,0.013,0.872,0.056c0.294,0.043,0.631,0.141,1.007,0.295c0.35,0.143,0.632,0.308,0.843,0.496
			c0.213,0.187,0.365,0.394,0.461,0.621c0.099,0.234,0.137,0.489,0.115,0.762c-0.021,0.273-0.092,0.56-0.214,0.86l-1.061,2.59
			l-1.225-0.501l0.198-0.483c-0.227,0.109-0.469,0.17-0.727,0.185C219.405,15.995,219.121,15.938,218.81,15.811z M219.552,15.092
			c0.299,0.123,0.568,0.15,0.808,0.079c0.239-0.07,0.409-0.222,0.503-0.456l0.092-0.224c-0.09-0.096-0.197-0.187-0.32-0.273
			c-0.124-0.086-0.263-0.161-0.419-0.225c-0.272-0.111-0.508-0.146-0.706-0.104c-0.198,0.042-0.339,0.163-0.42,0.363l-0.008,0.016
			c-0.07,0.172-0.062,0.332,0.028,0.479C219.198,14.894,219.346,15.009,219.552,15.092z"/>
		<path fill="#0C4168" d="M224.576,18.189c-0.334-0.137-0.617-0.324-0.854-0.563c-0.237-0.239-0.415-0.505-0.534-0.797
			c-0.12-0.292-0.183-0.603-0.184-0.931c-0.002-0.328,0.062-0.651,0.191-0.967l0.007-0.017c0.129-0.316,0.311-0.593,0.542-0.828
			c0.232-0.236,0.495-0.417,0.786-0.543c0.292-0.127,0.606-0.194,0.942-0.198c0.337-0.006,0.676,0.062,1.021,0.203
			c0.422,0.173,0.744,0.383,0.969,0.63c0.223,0.247,0.392,0.529,0.508,0.85l-1.116,0.516c-0.083-0.208-0.183-0.389-0.299-0.54
			c-0.116-0.152-0.289-0.274-0.517-0.367c-0.16-0.065-0.319-0.093-0.477-0.083c-0.156,0.011-0.306,0.051-0.448,0.123
			c-0.143,0.071-0.27,0.169-0.384,0.295c-0.113,0.125-0.202,0.272-0.271,0.438l-0.007,0.017c-0.07,0.172-0.11,0.343-0.117,0.516
			c-0.01,0.171,0.014,0.333,0.067,0.485s0.139,0.289,0.251,0.41c0.113,0.12,0.256,0.216,0.428,0.286
			c0.21,0.087,0.413,0.119,0.606,0.098c0.193-0.021,0.396-0.072,0.612-0.153l0.435,1.053c-0.314,0.15-0.642,0.245-0.981,0.284
			C225.412,18.442,225.02,18.371,224.576,18.189z"/>
		<path fill="#0C4168" d="M229.754,13.092l1.266,0.518l-0.922,2.254c0.11-0.066,0.228-0.125,0.349-0.176
			c0.122-0.051,0.249-0.089,0.382-0.113c0.134-0.024,0.272-0.03,0.415-0.017c0.144,0.014,0.296,0.052,0.458,0.119
			c0.481,0.197,0.795,0.498,0.939,0.899c0.143,0.402,0.108,0.862-0.103,1.378l-1.183,2.891l-1.265-0.518l1.016-2.485
			c0.122-0.298,0.148-0.553,0.077-0.759c-0.071-0.207-0.228-0.36-0.473-0.46c-0.245-0.1-0.47-0.103-0.675-0.008
			c-0.202,0.095-0.365,0.292-0.487,0.59l-1.017,2.484l-1.266-0.518L229.754,13.092z"/>
		<path fill="#0C4168" d="M233.904,21.984c-0.483-0.198-0.796-0.497-0.939-0.899s-0.11-0.862,0.102-1.377l1.183-2.892l1.267,0.518
			l-1.018,2.485c-0.122,0.299-0.147,0.552-0.076,0.759c0.07,0.207,0.229,0.36,0.473,0.46c0.244,0.101,0.469,0.103,0.673,0.008
			c0.203-0.094,0.366-0.291,0.489-0.591l1.016-2.484l1.267,0.519l-1.826,4.464l-1.268-0.518l0.262-0.638
			c-0.11,0.065-0.228,0.124-0.349,0.175c-0.122,0.052-0.248,0.09-0.382,0.114c-0.133,0.023-0.271,0.028-0.415,0.016
			C234.218,22.09,234.065,22.051,233.904,21.984z"/>
		<path fill="#0C4168" d="M239.72,24.384c-0.332-0.137-0.62-0.319-0.861-0.546c-0.239-0.229-0.422-0.488-0.545-0.779
			c-0.125-0.291-0.189-0.6-0.19-0.928c-0.003-0.328,0.068-0.664,0.209-1.008l0.005-0.018c0.131-0.316,0.308-0.594,0.531-0.833
			c0.226-0.239,0.478-0.424,0.758-0.555c0.28-0.132,0.579-0.204,0.899-0.215c0.32-0.013,0.644,0.048,0.971,0.183
			c0.373,0.152,0.666,0.352,0.885,0.595c0.218,0.244,0.37,0.516,0.46,0.814c0.087,0.299,0.115,0.612,0.082,0.939
			c-0.034,0.327-0.115,0.648-0.244,0.964c-0.021,0.05-0.042,0.102-0.068,0.157c-0.024,0.055-0.053,0.111-0.085,0.17l-3.106-1.271
			c-0.057,0.313-0.02,0.584,0.112,0.809c0.13,0.226,0.338,0.396,0.62,0.512c0.212,0.086,0.416,0.128,0.612,0.124
			c0.196-0.005,0.416-0.05,0.659-0.139l0.462,0.938c-0.316,0.174-0.656,0.274-1.017,0.298S240.126,24.549,239.72,24.384z
			 M241.634,22.035c0.076-0.3,0.07-0.569-0.019-0.81c-0.09-0.241-0.268-0.416-0.535-0.525c-0.267-0.108-0.517-0.112-0.75-0.006
			c-0.234,0.105-0.436,0.292-0.603,0.56L241.634,22.035z"/>
		<path fill="#0C4168" d="M244.229,26.198c-0.195-0.08-0.363-0.172-0.504-0.279c-0.142-0.107-0.247-0.235-0.318-0.388
			c-0.07-0.152-0.104-0.326-0.098-0.521c0.007-0.195,0.062-0.423,0.169-0.685l0.865-2.116l-0.533-0.218l0.443-1.083l0.532,0.218
			l0.467-1.141l1.268,0.518l-0.468,1.142l1.05,0.429l-0.444,1.083l-1.049-0.429l-0.783,1.914c-0.118,0.291-0.042,0.49,0.23,0.602
			c0.222,0.09,0.453,0.121,0.691,0.089l-0.414,1.016c-0.165,0.024-0.337,0.026-0.518,0.007
			C244.636,26.337,244.44,26.285,244.229,26.198z"/>
		<path fill="#0C4168" d="M247.688,27.612c-0.197-0.08-0.363-0.173-0.505-0.279c-0.141-0.106-0.247-0.235-0.318-0.388
			c-0.071-0.152-0.104-0.326-0.098-0.521s0.062-0.424,0.169-0.685l0.865-2.115l-0.534-0.219l0.443-1.083l0.533,0.218l0.467-1.141
			l1.266,0.519l-0.465,1.141l1.048,0.429l-0.443,1.083l-1.049-0.429l-0.784,1.914c-0.117,0.291-0.04,0.491,0.231,0.602
			c0.221,0.092,0.452,0.121,0.692,0.09l-0.415,1.016c-0.165,0.023-0.339,0.025-0.519,0.007
			C248.094,27.751,247.896,27.699,247.688,27.612z"/>
		<path fill="#0C4168" d="M251.197,29.059c-0.315-0.13-0.617-0.316-0.904-0.56c-0.286-0.244-0.53-0.543-0.736-0.9l0.883-0.611
			c0.172,0.279,0.36,0.511,0.565,0.699s0.413,0.325,0.625,0.411c0.184,0.075,0.331,0.1,0.441,0.073
			c0.109-0.025,0.187-0.089,0.228-0.189l0.007-0.015c0.028-0.068,0.025-0.137-0.004-0.207c-0.029-0.07-0.08-0.141-0.151-0.213
			c-0.071-0.071-0.155-0.146-0.253-0.225c-0.098-0.079-0.198-0.162-0.305-0.251c-0.138-0.108-0.273-0.227-0.404-0.355
			c-0.133-0.128-0.241-0.27-0.327-0.426c-0.086-0.154-0.138-0.323-0.158-0.506c-0.02-0.182,0.016-0.382,0.105-0.599l0.007-0.017
			c0.093-0.227,0.218-0.411,0.375-0.55c0.157-0.14,0.336-0.241,0.533-0.303c0.197-0.062,0.406-0.083,0.629-0.064
			c0.222,0.021,0.447,0.076,0.674,0.169c0.283,0.116,0.554,0.279,0.807,0.489c0.253,0.211,0.47,0.448,0.648,0.708l-0.841,0.678
			c-0.17-0.218-0.346-0.409-0.524-0.57c-0.182-0.162-0.352-0.274-0.515-0.34c-0.155-0.064-0.282-0.083-0.384-0.056
			c-0.102,0.026-0.171,0.084-0.207,0.173l-0.007,0.016c-0.024,0.062-0.021,0.126,0.01,0.194c0.03,0.067,0.078,0.139,0.144,0.215
			c0.065,0.076,0.146,0.155,0.239,0.238c0.091,0.083,0.191,0.169,0.298,0.258c0.134,0.115,0.269,0.238,0.4,0.374
			c0.132,0.135,0.243,0.278,0.33,0.431s0.142,0.317,0.167,0.497c0.022,0.178-0.007,0.371-0.091,0.575l-0.006,0.017
			c-0.103,0.25-0.234,0.448-0.395,0.593s-0.341,0.244-0.543,0.297c-0.204,0.053-0.422,0.066-0.655,0.039
			C251.673,29.219,251.436,29.157,251.197,29.059z"/>
		<path fill="#0C4168" d="M260.88,26.066l1.185,0.484l0.097,6.895l-1.344-0.548l0.004-1.526l-2.466-1.008l-1.068,1.089l-1.309-0.535
			L260.88,26.066z M260.827,30.05l-0.001-2.208l-1.55,1.574L260.827,30.05z"/>
		<path fill="#0C4168" d="M264.353,29.131l1.342,0.549l-0.224,3.399l2.23-2.578l1.317,0.538l-3.598,3.779l-1.149-0.469
			L264.353,29.131z"/>
		<path fill="#0C4168" d="M270,36.768c-0.334-0.136-0.619-0.317-0.861-0.545c-0.24-0.228-0.422-0.487-0.547-0.779
			c-0.124-0.29-0.188-0.599-0.188-0.928c-0.003-0.327,0.065-0.665,0.207-1.009l0.007-0.016c0.13-0.317,0.306-0.594,0.531-0.833
			c0.224-0.24,0.476-0.424,0.757-0.557c0.28-0.131,0.581-0.203,0.9-0.215c0.317-0.012,0.642,0.049,0.97,0.183
			c0.372,0.152,0.667,0.351,0.887,0.595c0.215,0.246,0.368,0.517,0.458,0.815c0.088,0.299,0.115,0.611,0.082,0.939
			c-0.032,0.327-0.114,0.648-0.244,0.965c-0.02,0.049-0.043,0.102-0.068,0.156c-0.026,0.055-0.054,0.111-0.083,0.169l-3.109-1.271
			c-0.057,0.314-0.02,0.584,0.112,0.809c0.132,0.226,0.339,0.396,0.623,0.512c0.21,0.086,0.414,0.128,0.609,0.123
			c0.197-0.004,0.417-0.05,0.659-0.138l0.463,0.938c-0.317,0.174-0.657,0.273-1.017,0.298C270.787,37.005,270.404,36.935,270,36.768
			z M271.912,34.42c0.078-0.299,0.071-0.568-0.019-0.81c-0.088-0.241-0.267-0.416-0.533-0.524c-0.267-0.109-0.517-0.111-0.751-0.007
			c-0.235,0.105-0.436,0.292-0.604,0.561L271.912,34.42z"/>
		<path fill="#0C4168" d="M273.526,36.539l1.341,0.548l-0.545,1.333l-1.342-0.549L273.526,36.539z"/>
	</g>
	<g>
		<path fill="#0C4168" d="M17.959,31.066c-0.183-0.424-0.276-0.852-0.278-1.281c-0.003-0.431,0.072-0.835,0.225-1.215
			c0.153-0.38,0.378-0.722,0.678-1.027c0.3-0.306,0.656-0.548,1.069-0.727l0.017-0.007c0.414-0.178,0.833-0.271,1.258-0.278
			c0.425-0.007,0.831,0.063,1.218,0.209c0.387,0.147,0.738,0.37,1.055,0.672c0.316,0.301,0.571,0.675,0.764,1.121
			c0.116,0.27,0.2,0.527,0.252,0.769c0.053,0.242,0.08,0.471,0.081,0.686c0,0.214-0.02,0.423-0.063,0.625
			c-0.044,0.202-0.103,0.398-0.178,0.587l-1.283-0.407c0.106-0.314,0.167-0.612,0.181-0.897c0.015-0.284-0.041-0.572-0.167-0.864
			c-0.105-0.242-0.248-0.446-0.431-0.613c-0.183-0.166-0.389-0.288-0.619-0.365c-0.23-0.077-0.471-0.11-0.724-0.099
			c-0.253,0.011-0.503,0.07-0.751,0.177l-0.017,0.007c-0.248,0.107-0.464,0.25-0.648,0.427c-0.185,0.178-0.328,0.375-0.431,0.593
			c-0.102,0.217-0.156,0.45-0.164,0.699c-0.007,0.248,0.042,0.496,0.15,0.744c0.142,0.33,0.324,0.583,0.543,0.76
			c0.22,0.176,0.483,0.332,0.791,0.468l-0.469,1.163c-0.224-0.08-0.434-0.172-0.629-0.277c-0.196-0.105-0.38-0.233-0.553-0.384
			c-0.172-0.151-0.331-0.33-0.476-0.535C18.214,31.591,18.081,31.348,17.959,31.066z"/>
		<path fill="#0C4168" d="M20.304,36.495c-0.147-0.341-0.225-0.684-0.233-1.027c-0.008-0.343,0.046-0.666,0.161-0.967
			c0.115-0.3,0.285-0.572,0.511-0.813c0.226-0.242,0.499-0.431,0.818-0.569l0.017-0.007c0.319-0.138,0.645-0.207,0.975-0.206
			c0.331,0.001,0.646,0.064,0.948,0.189c0.303,0.124,0.577,0.306,0.824,0.546c0.248,0.24,0.446,0.533,0.596,0.88
			c0.147,0.341,0.225,0.684,0.233,1.027c0.007,0.343-0.046,0.665-0.161,0.966c-0.116,0.302-0.286,0.573-0.512,0.814
			c-0.226,0.242-0.499,0.431-0.818,0.569l-0.016,0.007c-0.32,0.138-0.645,0.206-0.976,0.206c-0.33-0.001-0.646-0.064-0.949-0.188
			c-0.301-0.125-0.576-0.307-0.824-0.546C20.652,37.136,20.453,36.842,20.304,36.495z M21.393,36.044
			c0.078,0.182,0.179,0.329,0.304,0.442c0.124,0.113,0.263,0.195,0.416,0.247c0.153,0.051,0.314,0.072,0.482,0.062
			c0.169-0.011,0.336-0.052,0.5-0.124l0.017-0.007c0.165-0.071,0.308-0.166,0.432-0.284c0.121-0.118,0.216-0.254,0.284-0.407
			c0.068-0.154,0.104-0.316,0.108-0.488c0.004-0.172-0.031-0.343-0.104-0.514c-0.079-0.182-0.18-0.329-0.304-0.442
			c-0.124-0.113-0.262-0.195-0.415-0.247c-0.153-0.051-0.314-0.072-0.482-0.062c-0.169,0.011-0.336,0.052-0.501,0.124l-0.017,0.007
			c-0.165,0.071-0.309,0.166-0.43,0.284c-0.123,0.119-0.218,0.253-0.285,0.407c-0.067,0.153-0.104,0.315-0.11,0.484
			S21.316,35.868,21.393,36.044z"/>
		<path fill="#0C4168" d="M26.262,37.853l0.542,1.256l-0.634,0.273c0.125,0.031,0.25,0.071,0.373,0.119
			c0.123,0.048,0.24,0.111,0.352,0.186c0.112,0.076,0.215,0.169,0.308,0.279c0.093,0.11,0.175,0.245,0.244,0.405
			c0.207,0.479,0.221,0.912,0.042,1.301c-0.179,0.387-0.524,0.691-1.037,0.913l-2.868,1.237l-0.542-1.255l2.465-1.064
			c0.296-0.128,0.492-0.292,0.586-0.489c0.094-0.197,0.089-0.417-0.016-0.66c-0.104-0.242-0.263-0.4-0.475-0.476
			c-0.211-0.075-0.466-0.049-0.762,0.079l-2.464,1.064l-0.542-1.256L26.262,37.853z"/>
		<path fill="#0C4168" d="M28.485,43.001l0.542,1.256l-0.634,0.273c0.125,0.031,0.25,0.07,0.373,0.119
			c0.123,0.049,0.24,0.111,0.352,0.187c0.112,0.076,0.214,0.168,0.308,0.278c0.093,0.11,0.175,0.245,0.244,0.405
			c0.207,0.479,0.221,0.913,0.042,1.3c-0.179,0.388-0.524,0.692-1.037,0.913l-2.867,1.238l-0.542-1.256l2.465-1.064
			c0.296-0.128,0.492-0.292,0.586-0.488c0.094-0.198,0.089-0.417-0.016-0.66c-0.105-0.243-0.263-0.402-0.475-0.477
			c-0.211-0.076-0.466-0.049-0.762,0.08l-2.465,1.064l-0.542-1.256L28.485,43.001z"/>
		<path fill="#0C4168" d="M27.086,52.202c-0.143-0.331-0.22-0.662-0.233-0.992c-0.013-0.332,0.039-0.645,0.154-0.939
			c0.114-0.294,0.286-0.56,0.514-0.795c0.229-0.235,0.513-0.427,0.854-0.575l0.017-0.006c0.314-0.136,0.634-0.211,0.962-0.224
			c0.327-0.015,0.637,0.03,0.929,0.132c0.293,0.103,0.557,0.261,0.793,0.477c0.237,0.214,0.425,0.484,0.566,0.81
			c0.159,0.369,0.231,0.717,0.216,1.043c-0.016,0.328-0.097,0.628-0.243,0.903c-0.146,0.276-0.344,0.519-0.597,0.729
			c-0.252,0.21-0.535,0.383-0.849,0.519c-0.05,0.021-0.103,0.042-0.159,0.063c-0.056,0.021-0.116,0.042-0.178,0.063L28.5,50.327
			c-0.26,0.184-0.422,0.403-0.486,0.656c-0.064,0.253-0.035,0.52,0.086,0.801c0.09,0.208,0.207,0.381,0.35,0.515
			c0.144,0.135,0.333,0.255,0.568,0.363l-0.325,0.994c-0.35-0.098-0.662-0.263-0.936-0.498
			C27.483,52.923,27.259,52.604,27.086,52.202z M30.096,51.863c0.264-0.16,0.449-0.357,0.553-0.592
			c0.105-0.235,0.1-0.484-0.015-0.749c-0.114-0.264-0.292-0.441-0.532-0.53c-0.242-0.088-0.516-0.096-0.824-0.021L30.096,51.863z"/>
		<path fill="#0C4168" d="M29.269,57.26c-0.143-0.331-0.214-0.665-0.216-1c-0.002-0.336,0.057-0.651,0.176-0.944
			c0.119-0.292,0.291-0.557,0.52-0.792c0.228-0.236,0.5-0.422,0.813-0.558l0.017-0.007c0.314-0.136,0.636-0.207,0.967-0.211
			c0.331-0.006,0.645,0.048,0.942,0.162s0.568,0.285,0.812,0.517c0.244,0.23,0.439,0.518,0.587,0.859
			c0.18,0.419,0.264,0.794,0.251,1.127c-0.014,0.332-0.09,0.654-0.232,0.962l-1.157-0.411c0.086-0.208,0.142-0.406,0.164-0.596
			s-0.015-0.397-0.113-0.623c-0.068-0.16-0.163-0.291-0.282-0.393c-0.119-0.102-0.255-0.178-0.406-0.226
			c-0.151-0.049-0.312-0.068-0.48-0.058s-0.335,0.051-0.501,0.123l-0.016,0.007c-0.171,0.074-0.32,0.169-0.446,0.285
			c-0.125,0.117-0.223,0.249-0.29,0.396c-0.068,0.146-0.103,0.302-0.107,0.468c-0.004,0.165,0.031,0.333,0.104,0.503
			c0.091,0.209,0.212,0.375,0.365,0.494c0.153,0.12,0.335,0.227,0.545,0.319l-0.426,1.057c-0.33-0.113-0.629-0.274-0.899-0.484
			C29.689,58.025,29.459,57.7,29.269,57.26z"/>
		<path fill="#0C4168" d="M31.075,61.372c-0.084-0.194-0.139-0.377-0.166-0.552c-0.026-0.175-0.012-0.341,0.045-0.5
			c0.056-0.158,0.153-0.306,0.294-0.441c0.141-0.136,0.34-0.259,0.599-0.372l2.099-0.906l-0.229-0.529l1.075-0.464l0.228,0.529
			l1.133-0.489l0.542,1.256l-1.132,0.489l0.449,1.042l-1.075,0.463l-0.45-1.041l-1.898,0.82c-0.287,0.125-0.373,0.321-0.256,0.591
			c0.096,0.22,0.24,0.403,0.433,0.548l-1.007,0.436c-0.135-0.1-0.26-0.218-0.375-0.358C31.268,61.755,31.165,61.581,31.075,61.372z"
			/>
		<path fill="#0C4168" d="M38.026,60.694l0.571,1.321l-1.116,0.482l-0.571-1.322L38.026,60.694z M36.437,61.418l0.542,1.256
			l-4.429,1.913l-0.542-1.256L36.437,61.418z"/>
		<path fill="#0C4168" d="M33.864,67.901c-0.143-0.331-0.215-0.664-0.216-1c-0.002-0.336,0.057-0.651,0.176-0.944
			c0.118-0.293,0.291-0.557,0.52-0.793c0.228-0.236,0.499-0.421,0.813-0.557l0.017-0.007c0.314-0.136,0.636-0.206,0.968-0.212
			c0.331-0.006,0.644,0.049,0.941,0.162c0.298,0.114,0.568,0.286,0.812,0.518c0.244,0.23,0.439,0.517,0.587,0.859
			c0.18,0.418,0.264,0.794,0.251,1.127c-0.014,0.332-0.091,0.653-0.232,0.962l-1.158-0.412c0.086-0.207,0.142-0.405,0.164-0.595
			c0.023-0.189-0.014-0.397-0.112-0.623c-0.069-0.16-0.163-0.291-0.282-0.393c-0.119-0.102-0.255-0.177-0.406-0.226
			c-0.152-0.049-0.312-0.068-0.48-0.058c-0.169,0.011-0.335,0.052-0.501,0.124l-0.016,0.007c-0.171,0.074-0.32,0.169-0.446,0.285
			s-0.223,0.249-0.291,0.395c-0.067,0.146-0.103,0.303-0.106,0.467c-0.004,0.166,0.031,0.333,0.104,0.504
			c0.091,0.209,0.213,0.374,0.366,0.494c0.153,0.121,0.335,0.227,0.545,0.319l-0.426,1.057c-0.33-0.113-0.629-0.274-0.899-0.484
			C34.285,68.667,34.055,68.342,33.864,67.901z"/>
		<path fill="#0C4168" d="M35.651,71.992c-0.208-0.479-0.221-0.912-0.042-1.3c0.178-0.388,0.524-0.692,1.036-0.913l2.868-1.238
			l0.542,1.255l-2.465,1.064c-0.296,0.128-0.492,0.292-0.586,0.489s-0.088,0.417,0.016,0.66c0.105,0.242,0.263,0.401,0.474,0.476
			c0.212,0.075,0.466,0.049,0.763-0.08l2.465-1.064l0.542,1.256l-4.429,1.913l-0.542-1.256l0.633-0.273
			c-0.125-0.031-0.25-0.071-0.373-0.119c-0.123-0.048-0.24-0.11-0.352-0.186c-0.111-0.076-0.214-0.169-0.308-0.279
			C35.801,72.288,35.719,72.152,35.651,71.992z"/>
		<path fill="#0C4168" d="M37.892,77.162c-0.084-0.193-0.138-0.377-0.165-0.552c-0.026-0.174-0.012-0.341,0.044-0.499
			c0.056-0.158,0.154-0.306,0.295-0.441c0.141-0.136,0.34-0.26,0.599-0.372l2.099-0.906l-0.228-0.528L41.61,73.4l0.228,0.528
			l1.132-0.489l0.543,1.256l-1.132,0.489l0.45,1.041l-1.075,0.464l-0.449-1.041l-1.899,0.82c-0.287,0.124-0.373,0.321-0.256,0.591
			c0.095,0.22,0.238,0.403,0.432,0.548l-1.008,0.435c-0.134-0.099-0.259-0.218-0.375-0.357
			C38.086,77.545,37.982,77.371,37.892,77.162z"/>
		<path fill="#0C4168" d="M46.61,81.142l0.507,1.173l-4.755,4.995l-0.574-1.331l1.069-1.089L41.8,82.444l-1.526,0.031l-0.561-1.298
			L46.61,81.142z M43.784,83.949l1.544-1.578l-2.208,0.042L43.784,83.949z"/>
		<path fill="#0C4168" d="M46.947,85.76l0.575,1.33l-2.539,2.272l3.398-0.281l0.564,1.306L43.73,90.57l-0.492-1.14L46.947,85.76z"/>
		<path fill="#0C4168" d="M45.637,95.168c-0.143-0.331-0.22-0.661-0.233-0.993c-0.012-0.331,0.039-0.644,0.154-0.939
			c0.115-0.294,0.286-0.56,0.515-0.795c0.228-0.235,0.513-0.427,0.854-0.575l0.017-0.007c0.314-0.136,0.634-0.21,0.962-0.224
			c0.328-0.014,0.637,0.03,0.93,0.133c0.292,0.102,0.557,0.26,0.793,0.476c0.237,0.215,0.425,0.485,0.565,0.81
			c0.159,0.37,0.231,0.717,0.216,1.044c-0.016,0.327-0.097,0.628-0.242,0.903c-0.146,0.275-0.345,0.518-0.598,0.729
			c-0.252,0.209-0.535,0.382-0.85,0.518c-0.049,0.021-0.103,0.042-0.159,0.064c-0.056,0.021-0.116,0.042-0.178,0.062l-1.331-3.083
			c-0.26,0.184-0.423,0.404-0.486,0.656c-0.065,0.253-0.036,0.52,0.085,0.801c0.091,0.209,0.207,0.381,0.35,0.515
			c0.143,0.135,0.333,0.255,0.568,0.363l-0.325,0.993c-0.35-0.098-0.662-0.263-0.936-0.498
			C46.035,95.888,45.811,95.569,45.637,95.168z M48.647,94.828c0.265-0.16,0.449-0.357,0.554-0.592
			c0.104-0.234,0.099-0.484-0.015-0.748c-0.114-0.265-0.292-0.442-0.532-0.53c-0.241-0.089-0.515-0.096-0.823-0.022L48.647,94.828z"
			/>
		<path fill="#0C4168" d="M48.317,97.471l0.575,1.33l-1.322,0.57l-0.575-1.33L48.317,97.471z"/>
	</g>
	<g>
		<path fill="#0C4168" d="M167.611,68.848l-0.27-1.098l1.134-0.288l0.54,1.809v0.945h-6.345v-1.368H167.611z"/>
		<path fill="#0C4168" d="M162.562,74.094c0-0.414,0.057-0.765,0.171-1.053s0.282-0.543,0.504-0.765
			c0.228-0.228,0.526-0.409,0.896-0.544c0.369-0.135,0.866-0.203,1.49-0.203h0.018c0.486,0,0.939,0.056,1.359,0.167
			c0.42,0.111,0.783,0.281,1.089,0.509s0.547,0.516,0.725,0.864c0.177,0.348,0.266,0.756,0.266,1.224
			c0,0.216-0.015,0.414-0.045,0.594c-0.03,0.18-0.074,0.348-0.134,0.504c-0.06,0.156-0.133,0.306-0.219,0.45
			s-0.183,0.285-0.291,0.423l-1.067-0.729c0.078-0.103,0.148-0.201,0.211-0.297c0.063-0.096,0.116-0.195,0.158-0.297
			s0.075-0.21,0.099-0.324c0.024-0.114,0.036-0.237,0.036-0.369c0-0.198-0.038-0.371-0.113-0.518
			c-0.076-0.147-0.178-0.273-0.308-0.378s-0.285-0.188-0.466-0.248s-0.375-0.102-0.58-0.126c0.102,0.156,0.195,0.334,0.279,0.536
			c0.083,0.201,0.126,0.457,0.126,0.77c0,0.312-0.044,0.603-0.131,0.873s-0.214,0.504-0.382,0.702
			c-0.168,0.198-0.376,0.354-0.625,0.468c-0.249,0.114-0.539,0.171-0.869,0.171h-0.018c-0.324,0-0.62-0.062-0.886-0.185
			c-0.267-0.123-0.497-0.291-0.688-0.504c-0.192-0.213-0.341-0.467-0.446-0.761C162.615,74.754,162.562,74.437,162.562,74.094z
			 M163.759,74.045c0,0.343,0.086,0.61,0.26,0.8s0.394,0.285,0.663,0.285h0.018c0.269,0,0.488-0.098,0.659-0.294
			c0.17-0.195,0.255-0.465,0.255-0.809c0-0.343-0.083-0.61-0.251-0.8c-0.167-0.19-0.385-0.285-0.653-0.285h-0.018
			c-0.269,0-0.491,0.098-0.667,0.293C163.847,73.432,163.759,73.702,163.759,74.045z"/>
		<path fill="#0C4168" d="M162.589,79.243c0-0.21,0.022-0.401,0.067-0.572c0.045-0.171,0.125-0.318,0.239-0.441
			c0.114-0.123,0.262-0.219,0.445-0.288s0.416-0.104,0.698-0.104h2.286v-0.576h1.17v0.576h1.233v1.368h-1.233v1.134h-1.17v-1.134
			h-2.068c-0.313,0-0.469,0.147-0.469,0.441c0,0.24,0.06,0.465,0.18,0.675h-1.098c-0.084-0.144-0.152-0.303-0.203-0.477
			C162.615,79.671,162.589,79.47,162.589,79.243z"/>
		<path fill="#0C4168" d="M169.24,81.348v1.368h-2.436c0.103,0.078,0.201,0.164,0.295,0.256c0.093,0.093,0.176,0.197,0.249,0.311
			c0.073,0.114,0.13,0.24,0.172,0.378c0.042,0.138,0.063,0.294,0.063,0.468c0,0.522-0.159,0.925-0.477,1.21
			c-0.318,0.285-0.756,0.427-1.314,0.427h-3.123v-1.368h2.685c0.323,0,0.567-0.072,0.731-0.216c0.165-0.144,0.247-0.348,0.247-0.612
			s-0.083-0.473-0.247-0.625s-0.409-0.229-0.731-0.229h-2.685v-1.368H169.24z"/>
		<path fill="#0C4168" d="M162.58,92.049c0-0.48,0.083-0.951,0.248-1.413c0.165-0.462,0.418-0.882,0.76-1.26l0.981,0.819
			c-0.234,0.288-0.42,0.583-0.558,0.887c-0.138,0.303-0.207,0.634-0.207,0.995c0,0.288,0.053,0.511,0.158,0.67
			c0.105,0.159,0.25,0.238,0.437,0.238h0.018c0.09,0,0.169-0.017,0.238-0.049c0.069-0.033,0.134-0.097,0.194-0.19
			c0.06-0.093,0.12-0.223,0.18-0.388c0.06-0.166,0.123-0.381,0.189-0.646c0.078-0.319,0.165-0.607,0.261-0.866
			c0.096-0.259,0.214-0.478,0.355-0.659c0.141-0.181,0.316-0.32,0.526-0.419c0.21-0.1,0.471-0.149,0.783-0.149h0.018
			c0.288,0,0.547,0.053,0.778,0.161s0.431,0.258,0.599,0.452s0.297,0.425,0.387,0.694c0.09,0.269,0.135,0.566,0.135,0.89
			c0,0.462-0.069,0.887-0.207,1.273c-0.138,0.387-0.336,0.743-0.594,1.066l-1.044-0.72c0.192-0.282,0.343-0.558,0.455-0.828
			c0.111-0.27,0.167-0.54,0.167-0.81s-0.053-0.472-0.158-0.607c-0.105-0.135-0.235-0.203-0.391-0.203h-0.018
			c-0.102,0-0.19,0.02-0.266,0.059s-0.143,0.11-0.203,0.212c-0.06,0.102-0.117,0.242-0.171,0.419
			c-0.054,0.178-0.117,0.401-0.189,0.672c-0.084,0.319-0.179,0.603-0.284,0.853c-0.105,0.25-0.231,0.46-0.378,0.632
			s-0.319,0.301-0.518,0.388c-0.198,0.087-0.435,0.131-0.711,0.131h-0.018c-0.312,0-0.589-0.057-0.833-0.17
			c-0.243-0.113-0.447-0.271-0.612-0.474s-0.291-0.444-0.378-0.726C162.624,92.703,162.58,92.391,162.58,92.049z"/>
		<path fill="#0C4168" d="M162.589,97.044c0-0.21,0.022-0.401,0.067-0.572c0.045-0.171,0.125-0.318,0.239-0.441
			c0.114-0.123,0.262-0.219,0.445-0.288s0.416-0.104,0.698-0.104h2.286v-0.576h1.17v0.576h1.233v1.368h-1.233v1.134h-1.17v-1.134
			h-2.068c-0.313,0-0.469,0.147-0.469,0.441c0,0.24,0.06,0.465,0.18,0.675h-1.098c-0.084-0.144-0.152-0.303-0.203-0.477
			C162.615,97.473,162.589,97.271,162.589,97.044z"/>
		<path fill="#0C4168" d="M164.11,99.096v1.449h-1.44v-1.449H164.11z"/>
	</g>
	<g>
		<path fill="#0C4168" d="M307.299,126.023l-0.271-1.099l1.135-0.287l0.54,1.809v0.945h-6.345v-1.368H307.299z"/>
		<path fill="#0C4168" d="M303.717,131.802v-3.078l0.981-0.226l4.005,3.456v1.17h-3.861v0.846h-1.125v-0.846h-1.358v-1.322H303.717z
			 M304.842,131.802h1.962l-1.962-1.674V131.802z"/>
		<path fill="#0C4168" d="M302.276,136.661c0-0.21,0.023-0.4,0.068-0.571s0.124-0.317,0.238-0.44
			c0.113-0.123,0.262-0.22,0.445-0.289c0.184-0.068,0.416-0.104,0.697-0.104h2.286v-0.575h1.171v0.575h1.232v1.369h-1.232v1.133
			h-1.171v-1.133h-2.068c-0.313,0-0.47,0.146-0.47,0.44c0,0.239,0.061,0.465,0.18,0.675h-1.098
			c-0.084-0.145-0.151-0.303-0.202-0.477S302.276,136.89,302.276,136.661z"/>
		<path fill="#0C4168" d="M308.928,138.767v1.369h-2.436c0.103,0.078,0.201,0.163,0.295,0.256c0.093,0.094,0.177,0.197,0.249,0.311
			c0.072,0.114,0.13,0.24,0.172,0.378c0.043,0.138,0.064,0.294,0.064,0.468c0,0.522-0.16,0.926-0.478,1.211
			s-0.756,0.428-1.313,0.428h-3.123v-1.368h2.684c0.323,0,0.567-0.072,0.732-0.216c0.164-0.145,0.246-0.348,0.246-0.612
			s-0.082-0.473-0.246-0.626c-0.165-0.152-0.409-0.229-0.732-0.229h-2.684v-1.369H308.928z"/>
		<path fill="#0C4168" d="M302.269,149.468c0-0.48,0.082-0.951,0.247-1.413s0.419-0.882,0.761-1.26l0.98,0.819
			c-0.234,0.287-0.42,0.583-0.559,0.887c-0.137,0.303-0.207,0.634-0.207,0.994c0,0.287,0.053,0.512,0.158,0.67
			c0.105,0.159,0.25,0.238,0.437,0.238h0.019c0.09,0,0.169-0.016,0.238-0.049c0.068-0.033,0.133-0.097,0.193-0.189
			c0.06-0.094,0.119-0.223,0.18-0.389c0.061-0.165,0.123-0.381,0.189-0.645c0.078-0.319,0.164-0.607,0.261-0.867
			c0.096-0.258,0.214-0.478,0.355-0.658c0.141-0.181,0.316-0.32,0.526-0.42s0.471-0.148,0.783-0.148h0.018
			c0.288,0,0.548,0.053,0.779,0.16c0.23,0.107,0.43,0.258,0.598,0.452s0.297,0.425,0.387,0.694c0.091,0.269,0.136,0.565,0.136,0.889
			c0,0.463-0.069,0.887-0.207,1.273c-0.138,0.388-0.337,0.743-0.595,1.066l-1.043-0.719c0.191-0.283,0.343-0.559,0.454-0.828
			c0.11-0.271,0.167-0.541,0.167-0.811s-0.053-0.473-0.158-0.607s-0.235-0.203-0.391-0.203h-0.019c-0.103,0-0.19,0.02-0.266,0.059
			s-0.143,0.11-0.202,0.213c-0.061,0.102-0.117,0.242-0.172,0.42c-0.054,0.178-0.117,0.4-0.188,0.672
			c-0.084,0.318-0.179,0.604-0.284,0.853c-0.104,0.25-0.23,0.46-0.377,0.632c-0.147,0.172-0.32,0.301-0.518,0.389
			c-0.198,0.086-0.436,0.131-0.711,0.131h-0.019c-0.312,0-0.589-0.057-0.833-0.17c-0.242-0.113-0.446-0.271-0.611-0.475
			s-0.291-0.444-0.378-0.726C302.312,150.122,302.269,149.81,302.269,149.468z"/>
		<path fill="#0C4168" d="M302.276,154.463c0-0.21,0.023-0.401,0.068-0.571c0.045-0.172,0.124-0.318,0.238-0.441
			c0.113-0.123,0.262-0.219,0.445-0.288s0.416-0.104,0.697-0.104h2.286v-0.575h1.171v0.575h1.232v1.368h-1.232v1.134h-1.171v-1.134
			h-2.068c-0.313,0-0.47,0.146-0.47,0.441c0,0.239,0.061,0.465,0.18,0.674h-1.098c-0.084-0.144-0.151-0.303-0.202-0.477
			S302.276,154.69,302.276,154.463z"/>
		<path fill="#0C4168" d="M303.798,156.515v1.449h-1.439v-1.449H303.798z"/>
	</g>
	<g>
		<path fill="#0C4168" d="M309.099,316.723l-0.271-1.099l1.135-0.287l0.54,1.809v0.945h-6.345v-1.368H309.099z"/>
		<path fill="#0C4168" d="M305.517,322.501v-3.078l0.981-0.226l4.005,3.456v1.17h-3.861v0.846h-1.125v-0.846h-1.358v-1.322H305.517z
			 M306.642,322.501h1.962l-1.962-1.674V322.501z"/>
		<path fill="#0C4168" d="M304.076,327.36c0-0.21,0.023-0.4,0.068-0.571s0.124-0.317,0.238-0.44c0.113-0.123,0.262-0.22,0.445-0.289
			c0.184-0.068,0.416-0.104,0.697-0.104h2.286v-0.575h1.171v0.575h1.232v1.369h-1.232v1.133h-1.171v-1.133h-2.068
			c-0.313,0-0.47,0.146-0.47,0.44c0,0.239,0.061,0.465,0.18,0.675h-1.098c-0.084-0.145-0.151-0.303-0.202-0.477
			S304.076,327.589,304.076,327.36z"/>
		<path fill="#0C4168" d="M310.728,329.466v1.369h-2.436c0.103,0.078,0.201,0.163,0.295,0.256c0.093,0.094,0.177,0.197,0.249,0.311
			c0.072,0.114,0.13,0.24,0.172,0.378c0.043,0.138,0.064,0.294,0.064,0.468c0,0.522-0.16,0.926-0.478,1.211
			s-0.756,0.428-1.313,0.428h-3.123v-1.368h2.684c0.323,0,0.567-0.072,0.732-0.216c0.164-0.145,0.246-0.348,0.246-0.612
			s-0.082-0.473-0.246-0.626c-0.165-0.152-0.409-0.229-0.732-0.229h-2.684v-1.369H310.728z"/>
		<path fill="#0C4168" d="M304.068,340.167c0-0.48,0.082-0.951,0.247-1.413s0.419-0.882,0.761-1.26l0.98,0.819
			c-0.234,0.287-0.42,0.583-0.559,0.887c-0.137,0.303-0.207,0.634-0.207,0.994c0,0.287,0.053,0.512,0.158,0.67
			c0.105,0.159,0.25,0.238,0.437,0.238h0.019c0.09,0,0.169-0.016,0.238-0.049c0.068-0.033,0.133-0.097,0.193-0.189
			c0.06-0.094,0.119-0.223,0.18-0.389c0.061-0.165,0.123-0.381,0.189-0.645c0.078-0.319,0.164-0.607,0.261-0.867
			c0.096-0.258,0.214-0.478,0.355-0.658c0.141-0.181,0.316-0.32,0.526-0.42s0.471-0.148,0.783-0.148h0.018
			c0.288,0,0.548,0.053,0.779,0.16c0.23,0.107,0.43,0.258,0.598,0.452s0.297,0.425,0.387,0.694c0.091,0.269,0.136,0.565,0.136,0.889
			c0,0.463-0.069,0.887-0.207,1.273c-0.138,0.388-0.337,0.743-0.595,1.066l-1.043-0.719c0.191-0.283,0.343-0.559,0.454-0.828
			c0.11-0.271,0.167-0.541,0.167-0.811s-0.053-0.473-0.158-0.607s-0.235-0.203-0.391-0.203h-0.019c-0.103,0-0.19,0.02-0.266,0.059
			s-0.143,0.11-0.202,0.213c-0.061,0.102-0.117,0.242-0.172,0.42c-0.054,0.178-0.117,0.4-0.188,0.672
			c-0.084,0.318-0.179,0.604-0.284,0.853c-0.104,0.25-0.23,0.46-0.377,0.632c-0.147,0.172-0.32,0.301-0.518,0.389
			c-0.198,0.086-0.436,0.131-0.711,0.131h-0.019c-0.312,0-0.589-0.057-0.833-0.17c-0.242-0.113-0.446-0.271-0.611-0.475
			s-0.291-0.444-0.378-0.726C304.111,340.821,304.068,340.509,304.068,340.167z"/>
		<path fill="#0C4168" d="M304.076,345.162c0-0.21,0.023-0.401,0.068-0.571c0.045-0.172,0.124-0.318,0.238-0.441
			c0.113-0.123,0.262-0.219,0.445-0.288s0.416-0.104,0.697-0.104h2.286v-0.575h1.171v0.575h1.232v1.368h-1.232v1.134h-1.171v-1.134
			h-2.068c-0.313,0-0.47,0.146-0.47,0.441c0,0.239,0.061,0.465,0.18,0.674h-1.098c-0.084-0.144-0.151-0.303-0.202-0.477
			S304.076,345.39,304.076,345.162z"/>
		<path fill="#0C4168" d="M305.598,347.214v1.449h-1.439v-1.449H305.598z"/>
	</g>
	<rect x="181.666" y="165.473" fill="none" width="28" height="9.333"/>
	<text transform="matrix(1 0 0 1 181.666 172.0425)" fill="#0C4168" font-family="'GothamBold'" font-size="9">K St.</text>
	<g>
		<path fill="#0C4168" d="M227.166,44.868l1.494-0.045l1.735,2.611l1.574-2.713l1.493-0.046l0.193,6.297l-1.366,0.042l-0.127-4.111
			l-1.689,2.744l-0.036,0.001l-1.836-2.609l0.125,4.084l-1.367,0.042L227.166,44.868z"/>
		<path fill="#0C4168" d="M240.118,50.863c-0.479,0.015-0.953-0.053-1.42-0.204c-0.467-0.15-0.895-0.391-1.283-0.721l0.788-1.005
			c0.296,0.225,0.597,0.402,0.903,0.53s0.641,0.188,1.001,0.177c0.288-0.009,0.509-0.068,0.666-0.178
			c0.155-0.11,0.23-0.258,0.225-0.444V49c-0.003-0.09-0.023-0.168-0.058-0.236c-0.035-0.068-0.101-0.131-0.196-0.188
			c-0.095-0.057-0.227-0.113-0.392-0.168c-0.168-0.055-0.385-0.111-0.652-0.169c-0.32-0.068-0.612-0.146-0.873-0.234
			c-0.263-0.088-0.484-0.2-0.67-0.335c-0.185-0.135-0.329-0.306-0.435-0.513c-0.105-0.207-0.164-0.466-0.173-0.778l-0.001-0.018
			c-0.009-0.287,0.037-0.549,0.138-0.783c0.1-0.234,0.244-0.438,0.433-0.612c0.188-0.174,0.416-0.31,0.681-0.408
			c0.267-0.099,0.562-0.152,0.886-0.163c0.461-0.014,0.889,0.042,1.279,0.168c0.391,0.126,0.752,0.313,1.084,0.562l-0.688,1.065
			c-0.286-0.183-0.567-0.326-0.841-0.429c-0.273-0.103-0.544-0.15-0.814-0.142s-0.47,0.067-0.603,0.176
			c-0.132,0.109-0.194,0.242-0.19,0.397l0.001,0.018c0.003,0.102,0.025,0.19,0.066,0.264c0.042,0.074,0.114,0.139,0.219,0.196
			c0.104,0.057,0.245,0.109,0.424,0.158c0.179,0.048,0.405,0.104,0.678,0.168c0.322,0.074,0.608,0.16,0.861,0.257
			c0.253,0.098,0.468,0.217,0.643,0.358c0.176,0.142,0.311,0.31,0.403,0.506c0.095,0.195,0.145,0.431,0.153,0.707v0.018
			c0.01,0.312-0.038,0.591-0.145,0.837c-0.105,0.246-0.257,0.455-0.454,0.626c-0.197,0.171-0.436,0.304-0.714,0.4
			C240.77,50.8,240.46,50.853,240.118,50.863z"/>
		<path fill="#0C4168" d="M245.11,50.702c-0.211,0.006-0.401-0.01-0.574-0.05c-0.171-0.04-0.321-0.115-0.447-0.225
			c-0.127-0.11-0.228-0.255-0.302-0.437c-0.074-0.181-0.116-0.412-0.125-0.694l-0.07-2.284l-0.575,0.018l-0.036-1.17l0.576-0.018
			l-0.038-1.232l1.367-0.042l0.038,1.232l1.133-0.035l0.036,1.17l-1.133,0.035l0.063,2.067c0.009,0.312,0.161,0.464,0.454,0.456
			c0.24-0.007,0.463-0.074,0.67-0.201l0.034,1.097c-0.143,0.089-0.298,0.161-0.471,0.217S245.338,50.695,245.11,50.702z"/>
		<path fill="#0C4168" d="M247.114,49.119l1.448-0.044l0.044,1.439l-1.448,0.044L247.114,49.119z"/>
	</g>
	<g>
		<path fill="#0C4168" d="M114.04,48.325l1.493-0.046l1.737,2.611l1.574-2.713l1.494-0.046l0.193,6.297l-1.368,0.042l-0.126-4.111
			l-1.689,2.744l-0.036,0.001l-1.836-2.609l0.125,4.084l-1.368,0.042L114.04,48.325z"/>
		<path fill="#0C4168" d="M126.991,54.321c-0.479,0.015-0.953-0.054-1.42-0.204c-0.467-0.15-0.894-0.392-1.282-0.722l0.788-1.005
			c0.295,0.225,0.596,0.402,0.904,0.531c0.307,0.128,0.64,0.188,1,0.176c0.287-0.009,0.509-0.068,0.665-0.178
			c0.155-0.11,0.23-0.258,0.225-0.443l0-0.018c-0.002-0.09-0.021-0.169-0.057-0.237s-0.101-0.131-0.196-0.188
			c-0.095-0.057-0.226-0.113-0.393-0.167c-0.167-0.055-0.384-0.111-0.651-0.169c-0.321-0.068-0.612-0.146-0.874-0.234
			c-0.262-0.088-0.484-0.2-0.669-0.335s-0.33-0.307-0.436-0.514c-0.106-0.207-0.163-0.466-0.173-0.778l0-0.018
			c-0.009-0.288,0.037-0.549,0.137-0.783c0.101-0.234,0.245-0.438,0.433-0.612s0.416-0.31,0.682-0.408
			c0.266-0.099,0.562-0.152,0.885-0.162c0.461-0.014,0.888,0.042,1.279,0.167c0.391,0.126,0.752,0.313,1.084,0.562l-0.688,1.065
			c-0.288-0.183-0.568-0.326-0.842-0.429c-0.273-0.103-0.545-0.15-0.814-0.142c-0.27,0.008-0.471,0.067-0.603,0.176
			c-0.131,0.109-0.195,0.242-0.19,0.397l0,0.018c0.003,0.102,0.025,0.189,0.067,0.264c0.041,0.074,0.114,0.139,0.218,0.196
			c0.104,0.057,0.246,0.109,0.425,0.158s0.405,0.105,0.678,0.168c0.321,0.074,0.608,0.16,0.861,0.258
			c0.253,0.097,0.467,0.217,0.643,0.358s0.311,0.31,0.404,0.505c0.093,0.195,0.144,0.431,0.152,0.707l0.001,0.018
			c0.009,0.312-0.039,0.591-0.145,0.837c-0.106,0.246-0.258,0.455-0.455,0.626c-0.198,0.171-0.435,0.305-0.714,0.4
			C127.643,54.257,127.333,54.31,126.991,54.321z"/>
		<path fill="#0C4168" d="M131.983,54.159c-0.21,0.006-0.401-0.01-0.574-0.05c-0.172-0.04-0.321-0.115-0.448-0.225
			c-0.126-0.11-0.228-0.255-0.302-0.436c-0.074-0.181-0.116-0.413-0.125-0.694l-0.07-2.285l-0.576,0.018l-0.036-1.17l0.575-0.018
			l-0.038-1.232l1.368-0.042l0.038,1.232l1.133-0.035l0.036,1.17l-1.133,0.035l0.063,2.067c0.01,0.313,0.162,0.464,0.455,0.456
			c0.24-0.007,0.463-0.074,0.669-0.2l0.033,1.097c-0.141,0.089-0.298,0.161-0.47,0.217C132.411,54.12,132.211,54.152,131.983,54.159
			z"/>
		<path fill="#0C4168" d="M133.988,52.576l1.448-0.044l0.044,1.439l-1.448,0.044L133.988,52.576z"/>
	</g>
</g>
</svg>
