<?xml version="1.0" encoding="utf-8"?>
<!-- Generator: Adobe Illustrator 16.0.0, SVG Export Plug-In . SVG Version: 6.00 Build 0)  -->
<!DOCTYPE svg PUBLIC "-//W3C//DTD SVG 1.1//EN" "http://www.w3.org/Graphics/SVG/1.1/DTD/svg11.dtd">
<svg version="1.1" id="Layer_1" xmlns="http://www.w3.org/2000/svg" xmlns:xlink="http://www.w3.org/1999/xlink" x="0px" y="0px"
	 width="2500px" height="1000px" viewBox="0 0 2500 1000" enable-background="new 0 0 2500 1000" xml:space="preserve">
<g>
	<g>
		<path fill-rule="evenodd" clip-rule="evenodd" fill="#F05130" d="M1432.143,675.616c40.551,40.576,80.824,80.875,121.256,121.331
			c-5.971,6.454-12.074,12.505-18.256,18.445c-6.627,6.367-12.916,13.087-19.838,19.521c-10.438-10.452-20.646-20.68-30.857-30.903
			c-10.227-10.236-20.457-20.47-30.688-30.703c-10.232-10.233-20.459-20.473-30.703-30.693
			c-10.23-10.206-20.412-20.461-30.762-30.742c-0.975,0.546-1.766,0.879-2.43,1.379c-6.779,5.082-13.676,10.006-20.76,14.644
			c-7.5,4.909-15.128,9.625-22.74,14.36c-8.57,5.332-17.346,10.318-26.254,15.059c-9.565,5.091-19.166,10.125-28.875,14.935
			c-10.041,4.974-20.18,9.758-30.37,14.42c-7.579,3.468-15.316,6.588-22.96,9.915c-0.998,0.435-1.814,0.486-2.825,0.043
			c-9.458-4.146-18.946-8.225-28.408-12.364c-3.309-1.448-6.607-2.932-9.844-4.535c-10.599-5.249-21.228-10.446-31.73-15.884
			c-8.956-4.636-17.842-9.424-26.599-14.426c-8-4.569-15.86-9.396-23.642-14.332c-7.148-4.533-14.128-9.331-21.14-14.076
			c-2.681-1.813-5.234-3.816-7.866-5.704c-1.403-1.005-2.735-2.134-4.229-2.802c-1.461,0.408-2.188,1.473-3.053,2.337
			c-7.063,7.046-14.109,14.11-21.163,21.167c-16.139,16.146-32.281,32.286-48.417,48.434
			c-13.314,13.325-26.624,26.654-39.925,39.991c-2.376,2.382-4.613,4.909-7.076,7.195c-4.172,3.874-9.188,5.757-14.887,5.98
			c-4.784,0.188-9.471-0.073-13.815-2.326c-8.128-4.216-13.278-10.668-14.748-19.847c-0.137-0.86-0.39-1.701-0.513-2.562
			c-0.123-0.859-0.29-1.746-0.196-2.595c0.758-6.844,3.159-12.827,7.842-18.152c4.032-4.586,8.399-8.812,12.58-13.229
			c4.113-4.346,8.51-8.42,12.74-12.656c7.931-7.943,15.815-15.933,23.747-23.876c8.02-8.03,16.081-16.02,24.107-24.043
			c7.673-7.669,15.317-15.368,22.991-23.038c5.204-5.201,10.438-10.371,15.655-15.56c1.224-1.218,2.492-2.407,3.345-4.059
			c-2.345-2.796-4.622-5.427-6.808-8.131c-8.113-10.036-14.958-20.845-19.634-32.925c-1.884-4.867-3.302-9.868-4-15.077
			c-0.577-4.303-1.525-8.554-2.146-12.852c-0.782-5.41-1.373-10.847-2.096-16.266c-0.591-4.436-1.248-8.856-1.578-13.329
			c-0.255-3.46-0.93-6.887-1.332-10.34c-0.172-1.481-0.028-2.999-0.194-4.481c-0.428-3.822-0.956-7.634-1.424-11.451
			c-0.09-0.74-0.067-1.493-0.129-2.237c-0.156-1.858-0.332-3.715-0.496-5.573c-0.087-0.991-0.159-1.986-0.25-2.978
			c-0.194-2.104-0.404-4.207-0.593-6.312c-0.089-0.992-0.133-1.988-0.219-2.981c-0.171-1.982-0.353-3.964-0.54-5.945
			c-0.023-0.246-0.13-0.485-0.149-0.732c-0.343-4.466-0.679-8.933-1.017-13.398c-0.112-1.491-0.229-2.982-0.336-4.473
			c-0.142-1.988-0.244-3.98-0.419-5.965c-0.503-5.703-1.033-11.404-1.56-17.105c-0.034-0.371-0.161-0.735-0.181-1.106
			c-0.272-5.223-0.51-10.447-0.809-15.668c-0.121-2.111-0.368-4.215-0.563-6.321c-0.023-0.246-0.113-0.488-0.127-0.735
			c-0.311-5.468-0.603-10.937-0.925-16.404c-0.138-2.36-0.331-4.719-0.507-7.077c-0.027-0.373-0.12-0.741-0.139-1.113
			c-0.305-6.096-0.586-12.191-0.908-18.286c-0.132-2.486-0.344-4.969-0.529-7.453c-0.037-0.496-0.15-0.989-0.173-1.486
			c-0.289-6.474-0.546-12.947-0.86-19.419c-0.138-2.859-0.407-5.713-0.58-8.571c-0.113-1.865-0.14-3.735-0.242-5.602
			c-0.179-3.234-0.381-6.467-0.585-9.7c-0.04-0.621-0.169-1.237-0.195-1.859c-0.287-6.976-0.528-13.952-0.853-20.926
			c-0.18-3.857-0.504-7.707-0.745-11.561c-0.093-1.492-0.182-2.987-0.188-4.481c-0.019-4.614,0.048-9.228-0.745-13.809
			c-0.231-1.336-0.153-2.739-0.094-4.108c0.065-1.487-0.485-2.571-1.544-3.619c-5.763-5.702-11.457-11.475-17.184-17.215
			c-11.1-11.124-22.205-22.244-33.312-33.363c-4.495-4.5-8.958-9.032-13.522-13.461c-1.469-1.426-2.547-3.027-3.386-4.858
			c-7.769-16.986-15.542-33.969-23.335-50.944c-4.569-9.952-9.174-19.887-13.761-29.831c-0.341-0.739-0.663-1.487-1.243-2.788
			c0.981,0.401,1.422,0.512,1.788,0.742c8.539,5.369,17.055,10.773,25.604,16.125c12.248,7.666,24.524,15.286,36.777,22.943
			c4.331,2.706,8.649,5.431,12.928,8.216c1.032,0.671,1.932,1.572,2.811,2.449c11.915,11.895,23.818,23.801,35.717,35.711
			c8.814,8.822,17.614,17.659,26.429,26.479c0.876,0.877,1.812,1.693,2.722,2.54c142.545,0,285.014,0,427.594,0
			c1.24-1.179,2.508-2.371,3.762-3.575c5.752-5.531,11.521-11.047,17.248-16.604c4.207-4.082,8.363-8.215,12.535-12.333
			c10.918-10.772,21.846-21.535,32.732-32.339c1.533-1.522,3.238-2.606,5.238-3.436c11.957-4.961,23.871-10.033,35.812-15.029
			c6.312-2.64,12.67-5.169,18.98-7.809c9.412-3.937,18.797-7.941,28.203-11.889c8.484-3.56,16.982-7.088,25.48-10.615
			c0.652-0.271,1.352-0.419,2.275-0.698c-0.264,0.538-0.35,0.896-0.568,1.124c-6.568,6.832-13.156,13.644-19.729,20.472
			c-12.885,13.388-25.75,26.796-38.646,40.172c-4.85,5.028-9.803,9.954-14.648,14.985c-11.072,11.493-22.1,23.032-33.166,34.531
			c-3.633,3.774-7.35,7.464-10.992,11.228c-5.811,6.001-11.582,12.038-17.383,18.049c-2.943,3.051-5.865,6.121-8.887,9.094
			c-1.693,1.668-2.711,3.433-2.486,5.938c0.152,1.715-0.191,3.474-0.291,5.215c-0.211,3.732-0.422,7.466-0.609,11.2
			c-0.145,2.863-0.238,5.729-0.381,8.592c-0.1,1.992-0.357,3.984-0.346,5.975c0.027,4.372-0.094,8.728-0.732,13.061
			c-0.145,0.982-0.162,1.99-0.158,2.986c0.02,4.242,0.027,8.479-0.662,12.688c-0.199,1.222-0.166,2.488-0.17,3.734
			c-0.014,3.741-0.217,7.463-0.508,11.199c-0.564,7.201-0.715,14.435-1.068,21.653c-0.098,1.986-0.307,3.969-0.475,5.951
			c-0.043,0.497-0.162,0.988-0.186,1.484c-0.322,6.469-0.621,12.938-0.955,19.406c-0.096,1.863-0.273,3.723-0.422,5.583
			c-0.029,0.372-0.119,0.741-0.133,1.113c-0.178,5.104-0.42,10.196-0.916,15.287c-0.324,3.334-0.043,6.719-0.76,10.046
			c-0.232,1.08-0.098,2.237-0.164,3.357c-0.135,2.237-0.291,4.473-0.441,6.709c-0.1,1.492-0.189,2.985-0.305,4.478
			c-0.188,2.482-0.389,4.963-0.592,7.444c-0.029,0.373-0.111,0.741-0.137,1.114c-0.371,5.34-0.732,10.68-1.109,16.02
			c-0.096,1.366-0.236,2.729-0.367,4.093c-0.117,1.24-0.346,2.478-0.348,3.718c-0.002,2.378-0.078,4.738-0.652,7.06
			c-0.029,0.12-0.045,0.245-0.053,0.37c-0.322,4.592-0.639,9.186-0.965,13.778c-0.08,1.117-0.186,2.233-0.287,3.349
			c-0.148,1.609-0.295,3.22-0.459,4.827c-0.164,1.605-0.346,3.21-0.529,4.814c-0.043,0.37-0.154,0.734-0.182,1.106
			c-0.311,4.089-0.541,8.187-0.932,12.268c-0.367,3.828-0.914,7.64-1.354,11.461c-0.113,0.989-0.111,1.989-0.18,2.983
			c-0.059,0.868-0.111,1.737-0.219,2.601c-0.441,3.578-0.904,7.154-1.355,10.731c-0.418,3.328-0.812,6.658-1.246,9.983
			c-0.434,3.327-0.9,6.65-1.355,9.974c-0.287,2.088-0.523,4.184-0.883,6.259c-0.699,4.029-1.467,8.045-2.209,12.067
			c-1.02,5.54-3.029,10.754-5.297,15.874c-4.68,10.559-10.99,20.083-18.357,28.939
			C1436.164,670.652,1434.301,672.971,1432.143,675.616z M1006.928,288.663c0,1.457-0.041,2.559,0.008,3.657
			c0.142,3.234,0.349,6.467,0.475,9.703c0.31,7.972,0.582,15.944,0.892,23.916c0.043,1.119,0.25,2.23,0.328,3.351
			c0.156,2.235,0.3,4.474,0.407,6.713c0.41,8.587,0.8,17.177,1.206,25.765c0.158,3.359,0.324,6.721,0.51,10.078
			c0.116,2.115,0.271,4.228,0.419,6.341c0.131,1.861,0.321,3.72,0.409,5.584c0.337,7.217,0.642,14.436,0.967,21.653
			c0.022,0.497,0.122,0.989,0.16,1.487c0.151,1.983,0.327,3.967,0.432,5.953c0.333,6.342,0.634,12.685,0.958,19.027
			c0.025,0.496,0.146,0.987,0.188,1.483c0.166,1.983,0.36,3.966,0.468,5.952c0.318,5.845,0.595,11.692,0.903,17.538
			c0.032,0.621,0.189,1.234,0.244,1.854c0.152,1.736,0.282,3.474,0.419,5.211c0.196,2.479,0.388,4.96,0.587,7.44
			c0.069,0.869,0.177,1.735,0.232,2.605c0.354,5.59,0.693,11.182,1.049,16.771c0.19,2.983,0.388,5.966,0.615,8.944
			c0.095,1.242,0.293,2.476,0.417,3.717c0.456,4.576,0.965,9.148,1.33,13.732c0.365,4.588,0.581,9.188,0.867,13.782
			c0.016,0.247,0.082,0.492,0.106,0.74c0.207,2.102,0.397,4.205,0.617,6.305c0.116,1.111,0.279,2.218,0.42,3.327
			c0.125,0.986,0.293,1.97,0.367,2.96c0.303,4.092,0.572,8.187,0.869,12.279c0.037,0.494,0.191,0.979,0.255,1.472
			c0.159,1.229,0.311,2.46,0.439,3.693c0.115,1.114,0.169,2.233,0.296,3.345c0.408,3.583,0.857,7.162,1.251,10.745
			c0.366,3.334,0.592,6.686,1.037,10.009c0.709,5.298,1.546,10.581,2.333,15.87c0.292,1.965,0.648,3.921,0.874,5.893
			c0.594,5.182,1.391,10.317,2.878,15.332c2.144,7.234,5.727,13.771,9.725,20.101c6.226,9.856,14.032,18.425,22.225,26.627
			c6.429,6.436,13.239,12.481,20.338,18.182c12.543,10.07,25.659,19.346,39.225,27.981c9.141,5.817,18.465,11.326,27.868,16.719
			c13.625,7.813,27.529,15.088,41.62,21.992c10.724,5.256,21.637,10.132,32.535,15.02c3.27,1.466,6.447,3.238,9.892,4.098
			c1.177-0.457,2.244-0.816,3.266-1.273c7.61-3.402,15.247-6.75,22.809-10.257c13.447-6.232,26.709-12.828,39.801-19.79
			c13.312-7.079,26.415-14.505,39.234-22.428c8.574-5.301,16.985-10.855,25.207-16.709c12.498-8.899,24.615-18.232,35.775-28.796
			c6.164-5.833,12.127-11.821,17.574-18.341c5.449-6.521,10.371-13.381,14.324-20.909c2.492-4.746,4.525-9.657,5.826-14.902
			c1.408-5.681,1.922-11.489,2.922-17.227c0.533-3.058,0.879-6.147,1.27-9.229c0.467-3.699,0.877-7.406,1.336-11.107
			c0.365-2.961,0.791-5.916,1.148-8.878c0.445-3.704,0.9-7.409,1.256-11.122c0.355-3.71,0.588-7.431,0.889-11.145
			c0.029-0.369,0.184-0.728,0.227-1.097c0.184-1.604,0.355-3.208,0.518-4.814c0.15-1.484,0.285-2.97,0.422-4.455
			c0.115-1.238,0.234-2.477,0.326-3.717c0.311-4.217,0.607-8.434,0.922-12.649c0.027-0.369,0.188-0.728,0.227-1.098
			c0.172-1.606,0.346-3.214,0.467-4.825c0.082-1.117-0.078-2.273,0.141-3.356c0.572-2.838,0.645-5.693,0.635-8.565
			c-0.004-0.744,0.109-1.488,0.18-2.23c0.531-5.573,1.07-11.146,1.59-16.72c0.059-0.618-0.01-1.247,0.018-1.87
			c0.047-0.995,0.125-1.988,0.191-2.982c0.184-2.734,0.365-5.469,0.557-8.202c0.078-1.117,0.182-2.233,0.268-3.351
			c0.479-6.205,1.016-12.407,1.414-18.617c0.365-5.718,0.582-11.443,0.869-17.167c0.012-0.248,0.072-0.493,0.092-0.742
			c0.207-2.979,0.422-5.959,0.609-8.94c0.078-1.243-0.068-2.522,0.168-3.729c0.699-3.584,0.646-7.196,0.65-10.812
			c0-0.996-0.043-2.015,0.141-2.984c0.65-3.46,0.607-6.95,0.605-10.442c0-1.121-0.068-2.27,0.139-3.358
			c0.699-3.707,0.678-7.444,0.674-11.188c-0.002-1.121-0.086-2.27,0.117-3.358c0.742-3.957,0.691-7.944,0.691-11.937
			c0.002-1.121,0.061-2.242,0.119-3.362c0.201-3.856,0.428-7.711,0.617-11.568c0.072-1.494-0.115-3.023,0.137-4.48
			c0.713-4.084,0.693-8.193,0.725-12.31c0.014-1.742,0.15-3.483,0.264-5.223c0.215-3.356,0.488-6.711,0.666-10.069
			c0.133-2.488-0.004-4.998,0.25-7.471c0.482-4.723,0.709-9.445,0.658-14.192c-0.021-2.115,0.162-4.233,0.27-6.351
			c0.049-0.996,0.191-1.988,0.205-2.984c0.018-1.251-0.52-1.885-1.75-1.954c-1.617-0.093-3.242-0.083-4.863-0.083
			c-148.574-0.002-297.149-0.002-445.723-0.001c-1.372,0-2.746-0.029-4.116,0.026
			C1008.813,288.298,1008.097,288.479,1006.928,288.663z M980.057,794.486c0.857-0.724,1.656-1.308,2.347-1.999
			c3.873-3.877,7.704-7.796,11.579-11.671c8.543-8.544,17.119-17.058,25.655-25.607c7.657-7.671,15.268-15.385,22.922-23.058
			c4.047-4.057,8.156-8.052,12.213-12.101c4.674-4.663,9.337-9.34,13.965-14.051c0.653-0.665,1.635-1.229,1.475-2.487
			c-6.571-5.849-13.158-11.713-19.853-17.673c-0.551,0.43-1.18,0.823-1.693,1.334c-2.474,2.46-4.906,4.962-7.373,7.428
			c-22.822,22.813-45.649,45.624-68.474,68.436c-3.26,3.258-6.53,6.506-9.769,9.785c-0.848,0.858-1.977,1.584-1.898,3.012
			C963.429,778.656,977.746,792.86,980.057,794.486z M1509.15,771.937c-5.941,5.933-11.918,11.894-17.881,17.87
			c-0.332,0.333-0.533,0.798-0.836,1.266c0.293,0.481,0.473,0.969,0.807,1.302c7.74,7.735,15.498,15.456,23.268,23.163
			c0.24,0.238,0.648,0.306,1.143,0.524c0.453-0.343,0.986-0.655,1.408-1.077c5.625-5.63,11.238-11.271,16.836-16.928
			c0.238-0.242,0.307-0.653,0.441-0.953C1532.324,794.339,1511.709,773.701,1509.15,771.937z M1533.031,236.997
			c2.018-0.232,2.844-1.769,3.932-2.878c8.115-8.263,16.184-16.57,24.283-24.85c5.664-5.787,11.355-11.544,17.018-17.333
			c0.762-0.778,1.426-1.651,2.285-2.655c-1.314-0.432-2.113,0.032-3.01,0.407c-16.279,6.796-32.568,13.57-48.881,20.283
			c-1.316,0.542-2.41,1.25-3.379,2.235c-2.795,2.842-5.592,5.68-8.371,8.536c-0.137,0.141-0.105,0.445-0.186,0.833
			c1.83,1.826,4.547,2.328,6.598,3.932c1.961,1.535,4.1,2.87,5.523,4.974C1530.291,232.621,1531.643,234.827,1533.031,236.997z
			 M1417.748,690.405c0.924,0.959,1.6,1.681,2.297,2.381c4.309,4.317,8.627,8.629,12.936,12.947
			c4.924,4.938,9.84,9.885,14.768,14.819c7.652,7.664,15.316,15.318,22.971,22.981c7.393,7.4,14.773,14.812,22.178,22.2
			c0.586,0.586,1.309,1.035,2.039,1.603c1.697-1.712,3.6-2.95,4.564-5.169c-0.32-0.465-0.539-0.917-0.875-1.252
			c-24.906-24.932-49.822-49.854-74.748-74.766c-0.242-0.242-0.635-0.334-1.131-0.581
			C1420.881,686.771,1419.457,688.448,1417.748,690.405z M1402.766,703.428c0.666,0.818,1.088,1.432,1.602,1.952
			c4.91,4.962,9.83,9.915,14.762,14.855c7.838,7.851,15.686,15.69,23.531,23.533c6.434,6.433,12.869,12.864,19.309,19.294
			c5.645,5.637,11.285,11.278,16.953,16.891c0.502,0.497,1.199,0.795,1.812,1.189c1.838-1.145,3.15-2.555,4.357-4.378
			c-1.033-1.1-1.938-2.112-2.895-3.07c-9.426-9.438-18.865-18.865-28.293-28.304c-13.305-13.32-26.6-26.65-39.904-39.97
			c-1.674-1.677-3.367-3.334-5.086-4.963c-1.088-1.032-1.77-1.031-2.906-0.036C1404.98,701.321,1404.002,702.276,1402.766,703.428z
			 M1510.045,264.011c-0.369-0.561-0.578-1.029-0.916-1.368c-5.641-5.634-11.291-11.257-16.963-16.857
			c-0.316-0.312-0.848-0.409-1.43-0.675c-6.943,6.726-13.812,13.394-20.322,20.426c-0.117,0.127-0.045,0.431-0.078,0.915
			c5.879,0.525,11.809-0.156,17.77,0.373c0.135,0.661,0.314,1.135,0.311,1.606c-0.012,1.617-0.066,3.233-0.143,4.849
			c-0.17,3.606-0.377,7.212-0.539,10.819c-0.025,0.598-0.027,1.27,0.77,1.481C1491.039,283.737,1507.518,267.285,1510.045,264.011z
			 M927.708,226.154c2.966-0.287,5.407-1.329,7.427-3.32c1.687-1.662,3.242-3.476,5.045-4.998c2.922-2.466,4.246-5.673,5.029-9.357
			c-1.19-0.838-2.277-1.663-3.419-2.397c-2.514-1.616-5.058-3.186-7.587-4.778c-2.844-1.792-5.687-3.586-8.526-5.384
			c-1.17-0.74-2.29-0.848-3.438,0.09c-2.012,1.644-4.059,3.246-6.02,4.809C917.089,203.872,924.724,220.701,927.708,226.154z
			 M1003.35,266.143c-0.028-0.223,0.029-0.528-0.096-0.654c-15.013-15.118-30.037-30.224-45.073-45.319
			c-0.601-0.603-1.323-1.086-2.098-1.713c-1.61,1.943-2.539,4.083-3.576,6.074c1.756,2.405,38.292,39.107,41.795,42.011
			c2.775,0,5.636,0.007,8.496-0.018C1002.983,266.522,1003.166,266.276,1003.35,266.143z M936.748,237.538
			c3.155,3.178,5.95,6.01,8.761,8.826c7.656,7.669,15.316,15.335,22.98,22.995c4.846,4.844,9.698,9.681,14.564,14.503
			c0.484,0.48,0.932,1.257,2.122,0.542c0-1.068,0.023-2.299-0.004-3.528c-0.102-4.481-0.098-4.493-3.37-7.782
			c-10.277-10.329-20.559-20.652-30.851-30.968c-2.287-2.292-4.63-4.529-6.93-6.809c-0.807-0.8-1.684-1.045-2.693-0.47
			C939.936,235.642,938.562,236.469,936.748,237.538z M937.424,799.479c-0.756,0.62-1.358,1.061-1.898,1.567
			c-6.069,5.681-6.548,15.294,1.65,21.301c5.349,3.919,12.05,3.222,17.179-1.168c0.553-0.474,1.061-1.105,1.333-1.768
			c0.204-0.499,0.116-1.207-0.065-1.746c-0.145-0.433-0.611-0.766-0.96-1.118c-5.179-5.212-10.359-10.423-15.548-15.625
			C938.679,800.487,938.177,800.119,937.424,799.479z M1501.607,235.986c2.455,3.251,15.824,16.514,18.395,18.209
			c1.758-2.468,2.092-5.229,1.766-8.113c-0.393-3.468-1.879-6.388-4.566-8.677c-2.639-2.249-5.627-3.71-9.129-3.654
			C1505.734,233.787,1503.377,234.124,1501.607,235.986z M965.981,808.546c1.527-1.351,3.267-2.519,4.435-4.538
			c-3.008-3.479-6.376-6.428-9.494-9.612c-3.106-3.175-6.157-6.419-9.706-9.417c-0.859,0.791-1.593,1.424-2.278,2.106
			c-0.764,0.761-1.482,1.566-2.185,2.314C948.889,792.296,963.005,806.33,965.981,808.546z"/>
		<path fill-rule="evenodd" clip-rule="evenodd" fill="#F05130" d="M1101.749,665.059c-0.135-0.641-0.372-1.24-0.373-1.84
			c-0.013-13.717-0.003-27.435,0.024-41.151c0.001-0.468,0.223-0.936,0.364-1.488c0.542-0.142,1.007-0.368,1.473-0.368
			c91.905,0.016,183.81,0.047,275.716,0.097c0.332,0,0.664,0.281,1.061,0.459c0.1,0.481,0.287,0.963,0.287,1.444
			c0.021,13.592,0.027,27.185,0.018,40.778c0,0.606-0.17,1.212-0.285,1.984c-0.75,0.124-1.453,0.302-2.166,0.344
			c-0.994,0.06-1.994,0.021-2.992,0.021c-89.414,0-178.829,0.002-268.244-0.01C1105.036,665.328,1103.415,665.541,1101.749,665.059z
			"/>
		<path fill-rule="evenodd" clip-rule="evenodd" fill="#F05130" d="M1379.949,552.407c0.564,3.377,0.547,41.118-0.031,44.371
			c-0.637,0.124-1.338,0.338-2.049,0.382c-1.119,0.069-2.244,0.027-3.367,0.027c-89.182,0.001-178.363,0.001-267.545,0.001
			c-1.611,0-3.222,0-4.546,0c-1.286-1.116-1.051-2.302-1.06-3.385c-0.033-4.241-0.016-8.481-0.016-12.723
			c0-8.232-0.008-16.465,0.007-24.696c0.002-1.35-0.184-2.738,0.369-3.855c0.269-0.214,0.355-0.303,0.458-0.359
			c0.107-0.061,0.232-0.127,0.35-0.127c91.424-0.04,182.848-0.074,274.273-0.104c0.746,0,1.494,0.031,2.238,0.091
			C1379.26,552.047,1379.479,552.206,1379.949,552.407z"/>
		<path fill-rule="evenodd" clip-rule="evenodd" fill="#F05130" d="M1102.428,432.659c-0.155-1.238-0.328-1.968-0.327-2.699
			c0.024-32.058,0.062-64.115,0.119-96.173c0-0.346,0.255-0.69,0.485-1.273c1.046,0,2.156,0,3.266,0
			c12.226,0,24.454-0.156,36.676,0.044c12.283,0.201,23.58,3.888,33.311,11.409c8.408,6.499,13.983,15.125,16.74,25.461
			c1.554,5.826,2.136,11.809,1.526,17.765c-1.493,14.569-7.724,26.585-19.751,35.378c-7.093,5.187-14.96,8.159-23.596,9.545
			c-3.235,0.52-6.426,0.699-9.662,0.701c-11.477,0.008-22.954,0.008-34.431-0.004
			C1105.432,432.812,1104.079,432.72,1102.428,432.659z M1124.339,413.189c0.615,0.096,1.338,0.304,2.062,0.308
			c4.982,0.024,9.967,0.062,14.948-0.023c2.233-0.038,4.515-0.115,6.683-0.59c4.911-1.075,9.394-3.213,13.377-6.303
			c1.071-0.832,2.078-1.802,2.923-2.86c4.643-5.812,7.384-12.331,7.156-19.903c-0.1-3.346,0.011-6.699-0.988-9.977
			c-2.143-7.033-5.951-12.842-12.208-16.854c-4.707-3.019-9.866-4.602-15.494-4.572c-4.983,0.024-9.966,0-14.948,0.008
			c-1.227,0.002-2.453,0.048-3.5,0.07c-1.017,1.516-0.753,2.925-0.758,4.27c-0.028,6.603-0.013,13.204-0.013,19.807
			c0,10.713-0.013,21.426,0.016,32.139C1123.599,410.17,1123.285,411.714,1124.339,413.189z"/>
		<path fill-rule="evenodd" clip-rule="evenodd" fill="#F05130" d="M1214.641,403.384c2.827,1.854,5.258,3.577,7.812,5.093
			c4.067,2.412,8.199,4.676,12.892,5.763c5.274,1.222,10.518,1.903,15.854,0.456c3.943-1.07,7.065-3.006,8.24-7.25
			c0.869-3.137-0.246-6.688-2.967-8.589c-2.881-2.014-6.065-3.448-9.439-4.404c-5.607-1.589-11.249-3.058-16.856-4.646
			c-5.053-1.433-9.801-3.522-14.165-6.513c-6.211-4.257-9.307-10.212-9.889-17.576c-0.177-2.229-0.197-4.486-0.099-6.722
			c0.397-8.965,4.596-15.915,11.701-21.13c5.116-3.754,10.906-5.859,17.304-6.18c1.863-0.093,3.717-0.516,5.575-0.51
			c12.925,0.039,24.755,3.599,35.293,11.194c0.601,0.434,1.202,0.868,1.917,1.384c-3.83,5.604-7.399,10.826-11.008,16.107
			c-1.559-0.296-2.627-1.15-3.764-1.843c-3.834-2.336-7.783-4.388-12.071-5.824c-5.071-1.699-10.224-1.973-15.447-1.304
			c-1.841,0.236-3.526,1.1-5.073,2.211c-4.341,3.123-4.036,9.992-0.682,12.829c1.854,1.568,3.927,2.613,6.205,3.296
			c4.391,1.316,8.796,2.578,13.196,3.863c5.495,1.604,10.922,3.373,16.168,5.708c4.328,1.926,7.826,4.853,10.811,8.411
			c2.439,2.908,3.898,6.318,4.334,10.136c0.196,1.728,0.686,3.445,0.687,5.167c0.007,8.26-2.311,15.712-8.052,21.861
			c-0.843,0.902-1.83,1.688-2.826,2.425c-5.109,3.786-10.876,5.801-17.132,6.903c-3.724,0.656-7.403,0.848-11.135,0.854
			c-0.499,0.001-1.005,0.048-1.496-0.017c-9.924-1.288-19.619-3.367-28.363-8.549c-1.924-1.14-3.76-2.438-5.571-3.754
			c-1.501-1.092-2.906-2.315-4.531-3.624C1206.104,413.42,1210.341,408.578,1214.641,403.384z"/>
		<path fill-rule="evenodd" clip-rule="evenodd" fill="#F05130" d="M1381.852,346.41c-4.121,5.559-8.848,10.343-13.299,15.617
			c-0.756-0.508-1.484-0.926-2.131-1.448c-2.814-2.276-5.713-4.419-8.949-6.073c-2.891-1.479-5.86-2.653-9.15-2.915
			c-1.604-0.127-3.193-0.747-4.779-0.714c-8.403,0.172-15.864,2.652-21.68,9.101c-4.646,5.152-7.334,11.067-8.252,18.001
			c-1.301,9.816,1.066,18.53,7.027,26.283c3.675,4.78,8.643,7.857,14.398,9.519c5.757,1.662,11.58,1.326,17.314-0.215
			c1.781-0.478,3.551-1.225,5.131-2.176c2.875-1.729,5.609-3.693,8.388-5.58c1.122-0.763,2.207-1.579,3.451-2.474
			c4.794,4.301,9.11,8.897,13.661,13.588c-1.738,1.722-3.182,3.238-4.717,4.655c-6.948,6.413-15.093,10.281-24.398,12.104
			c-5.965,1.168-11.908,0.967-17.859,0.772c-2.939-0.096-5.894-0.952-8.762-1.749c-10.152-2.819-18.606-8.438-25.252-16.514
			c-5.621-6.833-8.979-14.802-10.627-23.567c-0.982-5.227-0.967-10.453-0.58-15.625c0.418-5.576,2.082-10.972,4.428-16.118
			c2.449-5.38,5.66-10.239,9.715-14.517c4.337-4.577,9.535-8,15.206-10.681c4.503-2.128,9.253-3.35,14.212-4.126
			c4.243-0.665,8.457-0.76,12.66-0.553c12.984,0.637,24.518,4.97,33.998,14.132C1381.264,345.388,1381.416,345.747,1381.852,346.41z
			"/>
		<path fill-rule="evenodd" clip-rule="evenodd" fill="#F05130" d="M1301.087,488.098c1.071-0.067,2.142-0.189,3.213-0.192
			c6.862-0.019,13.724,0.001,20.587-0.019c1.354-0.004,2.706-0.121,4.143-0.189c3.477-9.072,5.941-18.275,9.336-27.951
			c0.645,1.8,1.064,2.902,1.436,4.021c2.426,7.311,4.891,14.611,7.219,21.953c0.459,1.442,1.186,2.102,2.605,2.137
			c0.998,0.025,1.996,0.036,2.994,0.036c6.488,0.004,12.977-0.01,19.463,0.014c1.201,0.005,2.451-0.231,3.887,0.493
			c-0.404,0.486-0.631,0.898-0.977,1.15c-6.227,4.56-12.466,9.099-18.703,13.644c-0.303,0.221-0.604,0.443-0.9,0.671
			c-1.89,1.451-1.92,1.462-1.204,3.729c1.795,5.685,3.618,11.36,5.437,17.039c0.859,2.691,1.73,5.38,2.739,8.511
			c-3.317-1.514-5.649-3.755-8.249-5.569c-2.555-1.782-5.041-3.658-7.559-5.491c-2.612-1.901-5.225-3.8-7.982-5.806
			c-4.334,2.53-7.971,5.776-11.979,8.475c-3.879,2.611-7.502,5.597-12.08,8.77c0.52-1.813,0.752-2.739,1.049-3.644
			c2.244-6.844,4.503-13.684,6.752-20.524c0.117-0.355,0.165-0.733,0.293-1.083c1.245-3.443,0.221-3.41-1.771-4.856
			c-6.147-4.468-12.273-8.967-18.403-13.459c-0.497-0.363-0.965-0.768-1.445-1.152
			C1301.02,488.568,1301.054,488.333,1301.087,488.098z"/>
		<path fill-rule="evenodd" clip-rule="evenodd" fill="#F05130" d="M1137.768,459.792c0.646,1.749,1.014,2.661,1.324,3.594
			c2.432,7.307,4.854,14.616,7.276,21.927c0.746,2.252,1.004,2.493,3.431,2.56c2.243,0.06,4.489,0.022,6.733,0.023
			c5.238,0.002,10.476-0.012,15.713,0.014c0.942,0.005,1.882,0.164,3.312,0.298c-2.373,2.71-5.091,4.183-7.503,6.014
			c-2.476,1.88-5.056,3.623-7.532,5.503c-2.458,1.867-5.154,3.44-7.462,5.771c1.078,4.621,2.846,8.994,4.152,13.501
			c1.301,4.487,3,8.859,4.33,13.99c-1.364-0.768-2.242-1.152-2.997-1.704c-6.131-4.482-12.234-9.003-18.362-13.489
			c-0.69-0.506-1.477-0.881-2.333-1.383c-4.128,2.411-7.696,5.526-11.57,8.198c-3.774,2.603-7.429,5.379-11.085,8.041
			c-1.048-0.696-0.646-1.435-0.439-2.075c2.284-7.094,4.59-14.18,6.893-21.268c0.27-0.829,0.613-1.638,0.816-2.481
			c0.252-1.049-0.021-1.881-0.99-2.572c-4.057-2.893-8.068-5.852-12.09-8.794c-3.009-2.202-6.007-4.417-8.947-6.579
			c0.311-1.293,1.211-0.955,1.855-0.958c7.357-0.032,14.715-0.015,22.072-0.033c1.347-0.004,2.694-0.111,4.102-0.173
			C1131.857,478.686,1134.395,469.612,1137.768,459.792z"/>
		<path fill-rule="evenodd" clip-rule="evenodd" fill="#F05130" d="M1214.226,532.898c2.954-9.344,6.186-18.279,8.729-27.525
			c-7.327-5.914-15.111-10.826-22.212-16.521c0.315-1.242,1.207-0.929,1.86-0.932c7.104-0.03,14.209-0.017,21.314-0.025
			c5.481-0.007,4.828,0.201,6.443-4.668c2.268-6.835,4.487-13.686,6.743-20.524c0.182-0.552,0.481-1.064,0.689-1.515
			c1.088,0.017,1.134,0.726,1.311,1.273c2.101,6.492,4.174,12.995,6.289,19.484c0.609,1.869,1.331,3.703,1.904,5.286
			c1.618,0.923,3.019,0.645,4.363,0.65c6.606,0.031,13.213,0.009,19.818,0.02c1.23,0.003,2.46,0.07,3.625,0.106
			c0.37,1.168-0.441,1.532-0.984,1.934c-6.107,4.507-12.227,8.998-18.369,13.456c-2.625,1.903-2.713,1.941-1.664,5.208
			c1.859,5.798,3.77,11.579,5.656,17.369c0.652,2.003,1.309,4.004,1.93,6.018c0.057,0.188-0.128,0.452-0.24,0.809
			c-2.558-1.054-4.503-2.984-6.682-4.54c-5.057-3.611-10.04-7.328-15.066-10.982c-1.356-0.986-1.892-0.978-3.348,0.084
			c-5.02,3.661-10.015,7.358-15.033,11.023c-1.906,1.393-3.841,2.745-5.781,4.09
			C1215.264,532.654,1214.902,532.685,1214.226,532.898z"/>
	</g>
	<g>
		<path fill-rule="evenodd" clip-rule="evenodd" fill="#46C2CB" d="M1420.143,686.616c40.551,40.576,80.824,80.875,121.256,121.331
			c-5.971,6.454-12.074,12.505-18.256,18.445c-6.627,6.367-12.916,13.087-19.838,19.521c-10.438-10.452-20.646-20.68-30.857-30.903
			c-10.227-10.236-20.457-20.47-30.688-30.703c-10.232-10.233-20.459-20.473-30.703-30.693
			c-10.23-10.206-20.412-20.461-30.762-30.742c-0.975,0.546-1.766,0.879-2.43,1.379c-6.779,5.082-13.675,10.006-20.76,14.644
			c-7.5,4.909-15.128,9.625-22.74,14.36c-8.57,5.332-17.346,10.318-26.254,15.059c-9.565,5.091-19.166,10.125-28.875,14.935
			c-10.041,4.974-20.18,9.758-30.37,14.42c-7.579,3.468-15.316,6.588-22.96,9.915c-0.998,0.435-1.814,0.486-2.825,0.043
			c-9.458-4.146-18.946-8.225-28.408-12.364c-3.309-1.448-6.607-2.932-9.844-4.535c-10.599-5.249-21.228-10.446-31.73-15.884
			c-8.956-4.636-17.842-9.424-26.599-14.426c-8-4.569-15.86-9.396-23.642-14.332c-7.148-4.533-14.128-9.331-21.14-14.076
			c-2.681-1.813-5.234-3.816-7.866-5.704c-1.403-1.005-2.735-2.134-4.229-2.802c-1.461,0.408-2.188,1.473-3.053,2.337
			c-7.063,7.046-14.109,14.11-21.163,21.167c-16.139,16.146-32.281,32.286-48.417,48.434
			c-13.314,13.325-26.624,26.654-39.925,39.991c-2.376,2.382-4.613,4.909-7.076,7.195c-4.172,3.874-9.188,5.757-14.887,5.98
			c-4.784,0.188-9.471-0.073-13.815-2.326c-8.128-4.216-13.278-10.668-14.748-19.847c-0.137-0.86-0.39-1.701-0.513-2.562
			c-0.123-0.859-0.29-1.746-0.196-2.595c0.758-6.844,3.159-12.827,7.842-18.152c4.032-4.586,8.399-8.812,12.58-13.229
			c4.113-4.346,8.51-8.42,12.74-12.656c7.931-7.943,15.815-15.933,23.747-23.876c8.02-8.03,16.081-16.02,24.107-24.043
			c7.673-7.669,15.317-15.368,22.991-23.038c5.204-5.201,10.438-10.371,15.655-15.56c1.224-1.218,2.492-2.407,3.345-4.059
			c-2.345-2.796-4.622-5.427-6.808-8.131c-8.113-10.036-14.958-20.845-19.634-32.925c-1.884-4.867-3.302-9.868-4-15.077
			c-0.577-4.303-1.525-8.554-2.146-12.852c-0.782-5.41-1.373-10.847-2.096-16.266c-0.591-4.436-1.248-8.856-1.578-13.329
			c-0.255-3.46-0.93-6.887-1.332-10.34c-0.172-1.481-0.028-2.999-0.194-4.481c-0.428-3.822-0.956-7.634-1.424-11.451
			c-0.09-0.74-0.067-1.493-0.129-2.237c-0.156-1.858-0.332-3.715-0.496-5.573c-0.087-0.991-0.159-1.986-0.25-2.978
			c-0.194-2.104-0.404-4.207-0.593-6.312c-0.089-0.992-0.133-1.988-0.219-2.981c-0.171-1.982-0.353-3.964-0.54-5.945
			c-0.023-0.246-0.13-0.485-0.149-0.732c-0.343-4.466-0.679-8.933-1.017-13.398c-0.112-1.491-0.229-2.982-0.336-4.473
			c-0.142-1.988-0.244-3.98-0.419-5.965c-0.503-5.703-1.033-11.404-1.56-17.105c-0.034-0.371-0.161-0.735-0.181-1.106
			c-0.272-5.223-0.51-10.447-0.809-15.668c-0.121-2.111-0.368-4.215-0.563-6.321c-0.023-0.246-0.113-0.488-0.127-0.735
			c-0.311-5.468-0.603-10.937-0.925-16.404c-0.138-2.36-0.331-4.719-0.507-7.077c-0.027-0.373-0.12-0.741-0.139-1.113
			c-0.305-6.096-0.586-12.191-0.908-18.286c-0.132-2.486-0.344-4.969-0.529-7.453c-0.037-0.496-0.15-0.989-0.173-1.486
			c-0.289-6.474-0.546-12.947-0.86-19.419c-0.138-2.859-0.407-5.713-0.58-8.571c-0.113-1.865-0.14-3.735-0.242-5.602
			c-0.179-3.234-0.381-6.467-0.585-9.7c-0.04-0.621-0.169-1.237-0.195-1.859c-0.287-6.976-0.528-13.952-0.853-20.926
			c-0.18-3.857-0.504-7.707-0.745-11.561c-0.093-1.492-0.182-2.987-0.188-4.481c-0.019-4.614,0.048-9.228-0.745-13.809
			c-0.231-1.336-0.153-2.739-0.094-4.108c0.065-1.487-0.485-2.571-1.544-3.619c-5.763-5.702-11.457-11.475-17.184-17.215
			c-11.1-11.124-22.205-22.244-33.312-33.363c-4.495-4.5-8.958-9.032-13.522-13.461c-1.469-1.426-2.547-3.027-3.386-4.858
			c-7.769-16.986-15.542-33.969-23.335-50.944c-4.569-9.952-9.174-19.887-13.761-29.831c-0.341-0.739-0.663-1.487-1.243-2.788
			c0.981,0.401,1.422,0.512,1.788,0.742c8.539,5.369,17.055,10.773,25.604,16.125c12.248,7.666,24.524,15.286,36.777,22.943
			c4.331,2.706,8.649,5.431,12.928,8.216c1.032,0.671,1.932,1.572,2.811,2.449c11.915,11.895,23.818,23.801,35.717,35.711
			c8.814,8.822,17.614,17.659,26.429,26.479c0.876,0.877,1.812,1.693,2.722,2.54c142.545,0,285.014,0,427.594,0
			c1.24-1.179,2.508-2.371,3.762-3.575c5.752-5.531,11.521-11.047,17.248-16.604c4.207-4.082,8.363-8.215,12.535-12.333
			c10.918-10.772,21.846-21.535,32.732-32.339c1.533-1.522,3.238-2.606,5.238-3.436c11.957-4.961,23.871-10.033,35.812-15.029
			c6.312-2.64,12.67-5.169,18.98-7.809c9.412-3.937,18.797-7.941,28.203-11.889c8.484-3.56,16.982-7.088,25.48-10.615
			c0.652-0.271,1.352-0.419,2.275-0.698c-0.264,0.538-0.35,0.896-0.568,1.124c-6.568,6.832-13.156,13.644-19.729,20.472
			c-12.885,13.388-25.75,26.796-38.646,40.172c-4.85,5.028-9.803,9.954-14.648,14.985c-11.072,11.493-22.1,23.032-33.166,34.531
			c-3.633,3.774-7.35,7.464-10.992,11.228c-5.811,6.001-11.582,12.038-17.383,18.049c-2.943,3.051-5.865,6.121-8.887,9.094
			c-1.693,1.668-2.711,3.433-2.486,5.938c0.152,1.715-0.191,3.474-0.291,5.215c-0.211,3.732-0.422,7.466-0.609,11.2
			c-0.145,2.863-0.238,5.729-0.381,8.592c-0.1,1.992-0.357,3.984-0.346,5.975c0.027,4.372-0.094,8.728-0.732,13.061
			c-0.145,0.982-0.162,1.99-0.158,2.986c0.02,4.242,0.027,8.479-0.662,12.688c-0.199,1.222-0.166,2.488-0.17,3.734
			c-0.014,3.741-0.217,7.463-0.508,11.199c-0.564,7.201-0.715,14.435-1.068,21.653c-0.098,1.986-0.307,3.969-0.475,5.951
			c-0.043,0.497-0.162,0.988-0.186,1.484c-0.322,6.469-0.621,12.938-0.955,19.406c-0.096,1.863-0.273,3.723-0.422,5.583
			c-0.029,0.372-0.119,0.741-0.133,1.113c-0.178,5.104-0.42,10.196-0.916,15.287c-0.324,3.334-0.043,6.719-0.76,10.046
			c-0.232,1.08-0.098,2.237-0.164,3.357c-0.135,2.237-0.291,4.473-0.441,6.709c-0.1,1.492-0.189,2.985-0.305,4.478
			c-0.188,2.482-0.389,4.963-0.592,7.444c-0.029,0.373-0.111,0.741-0.137,1.114c-0.371,5.34-0.732,10.68-1.109,16.02
			c-0.096,1.366-0.236,2.729-0.367,4.093c-0.117,1.24-0.346,2.478-0.348,3.718c-0.002,2.378-0.078,4.738-0.652,7.06
			c-0.029,0.12-0.045,0.245-0.053,0.37c-0.322,4.592-0.639,9.186-0.965,13.778c-0.08,1.117-0.186,2.233-0.287,3.349
			c-0.148,1.609-0.295,3.22-0.459,4.827c-0.164,1.605-0.346,3.21-0.529,4.814c-0.043,0.37-0.154,0.734-0.182,1.106
			c-0.311,4.089-0.541,8.187-0.932,12.268c-0.367,3.828-0.914,7.64-1.354,11.461c-0.113,0.989-0.111,1.989-0.18,2.983
			c-0.059,0.868-0.111,1.737-0.219,2.601c-0.441,3.578-0.904,7.154-1.355,10.731c-0.418,3.328-0.812,6.658-1.246,9.983
			c-0.434,3.327-0.9,6.65-1.355,9.974c-0.287,2.088-0.523,4.184-0.883,6.259c-0.699,4.029-1.467,8.045-2.209,12.067
			c-1.02,5.54-3.029,10.754-5.297,15.874c-4.68,10.559-10.99,20.083-18.357,28.939
			C1424.164,681.652,1422.301,683.971,1420.143,686.616z M994.928,299.663c0,1.457-0.041,2.559,0.008,3.657
			c0.142,3.234,0.349,6.467,0.475,9.703c0.31,7.972,0.582,15.944,0.892,23.916c0.043,1.119,0.25,2.23,0.328,3.351
			c0.156,2.235,0.3,4.474,0.407,6.713c0.41,8.587,0.8,17.177,1.206,25.765c0.158,3.359,0.324,6.721,0.51,10.078
			c0.116,2.115,0.271,4.228,0.419,6.341c0.131,1.861,0.321,3.72,0.409,5.584c0.337,7.217,0.642,14.436,0.967,21.653
			c0.022,0.497,0.122,0.989,0.16,1.487c0.151,1.983,0.327,3.967,0.432,5.953c0.333,6.342,0.634,12.685,0.958,19.027
			c0.025,0.496,0.146,0.987,0.188,1.483c0.166,1.983,0.36,3.966,0.468,5.952c0.318,5.845,0.595,11.692,0.903,17.538
			c0.032,0.621,0.189,1.234,0.244,1.854c0.152,1.736,0.282,3.474,0.419,5.211c0.196,2.479,0.388,4.96,0.587,7.44
			c0.069,0.869,0.177,1.735,0.232,2.605c0.354,5.59,0.693,11.182,1.049,16.771c0.19,2.983,0.388,5.966,0.615,8.944
			c0.095,1.242,0.293,2.476,0.417,3.717c0.456,4.576,0.965,9.148,1.33,13.732c0.365,4.588,0.581,9.188,0.867,13.782
			c0.016,0.247,0.082,0.492,0.106,0.74c0.207,2.102,0.397,4.205,0.617,6.305c0.116,1.111,0.279,2.218,0.42,3.327
			c0.125,0.986,0.293,1.97,0.367,2.96c0.303,4.092,0.572,8.187,0.869,12.279c0.037,0.494,0.191,0.979,0.255,1.472
			c0.159,1.229,0.311,2.46,0.439,3.693c0.115,1.114,0.169,2.233,0.296,3.345c0.408,3.583,0.857,7.162,1.251,10.745
			c0.366,3.334,0.592,6.686,1.037,10.009c0.709,5.298,1.546,10.581,2.333,15.87c0.292,1.965,0.648,3.921,0.874,5.893
			c0.594,5.182,1.391,10.317,2.878,15.332c2.144,7.234,5.727,13.771,9.725,20.101c6.226,9.856,14.032,18.425,22.225,26.627
			c6.429,6.436,13.239,12.481,20.338,18.182c12.543,10.07,25.659,19.346,39.225,27.981c9.141,5.817,18.465,11.326,27.868,16.719
			c13.625,7.813,27.529,15.088,41.62,21.992c10.724,5.256,21.637,10.132,32.535,15.02c3.27,1.466,6.447,3.238,9.892,4.098
			c1.177-0.457,2.244-0.816,3.266-1.273c7.61-3.402,15.247-6.75,22.809-10.257c13.447-6.232,26.709-12.828,39.801-19.79
			c13.312-7.079,26.415-14.505,39.234-22.428c8.574-5.301,16.985-10.855,25.207-16.709c12.498-8.899,24.616-18.232,35.776-28.796
			c6.163-5.833,12.126-11.821,17.573-18.341c5.449-6.521,10.371-13.381,14.324-20.909c2.492-4.746,4.525-9.657,5.826-14.902
			c1.408-5.681,1.922-11.489,2.922-17.227c0.533-3.058,0.879-6.147,1.27-9.229c0.467-3.699,0.877-7.406,1.336-11.107
			c0.365-2.961,0.791-5.916,1.148-8.878c0.445-3.704,0.9-7.409,1.256-11.122c0.355-3.71,0.588-7.431,0.889-11.145
			c0.029-0.369,0.184-0.728,0.227-1.097c0.184-1.604,0.355-3.208,0.518-4.814c0.15-1.484,0.285-2.97,0.422-4.455
			c0.115-1.238,0.234-2.477,0.326-3.717c0.311-4.217,0.607-8.434,0.922-12.649c0.027-0.369,0.188-0.728,0.227-1.098
			c0.172-1.606,0.346-3.214,0.467-4.825c0.082-1.117-0.078-2.273,0.141-3.356c0.572-2.838,0.645-5.693,0.635-8.565
			c-0.004-0.744,0.109-1.488,0.18-2.23c0.531-5.573,1.07-11.146,1.59-16.72c0.059-0.618-0.01-1.247,0.018-1.87
			c0.047-0.995,0.125-1.988,0.191-2.982c0.184-2.734,0.365-5.469,0.557-8.202c0.078-1.117,0.182-2.233,0.268-3.351
			c0.479-6.205,1.016-12.407,1.414-18.617c0.365-5.718,0.582-11.443,0.869-17.167c0.012-0.248,0.072-0.493,0.092-0.742
			c0.207-2.979,0.422-5.959,0.609-8.94c0.078-1.243-0.068-2.522,0.168-3.729c0.699-3.584,0.646-7.196,0.65-10.812
			c0-0.996-0.043-2.015,0.141-2.984c0.65-3.46,0.607-6.95,0.605-10.442c0-1.121-0.068-2.27,0.139-3.358
			c0.699-3.707,0.678-7.444,0.674-11.188c-0.002-1.121-0.086-2.27,0.117-3.358c0.742-3.957,0.691-7.944,0.691-11.937
			c0.002-1.121,0.061-2.242,0.119-3.362c0.201-3.856,0.428-7.711,0.617-11.568c0.072-1.494-0.115-3.023,0.137-4.48
			c0.713-4.084,0.693-8.193,0.725-12.31c0.014-1.742,0.15-3.483,0.264-5.223c0.215-3.356,0.488-6.711,0.666-10.069
			c0.133-2.488-0.004-4.998,0.25-7.471c0.482-4.723,0.709-9.445,0.658-14.192c-0.021-2.115,0.162-4.233,0.27-6.351
			c0.049-0.996,0.191-1.988,0.205-2.984c0.018-1.251-0.52-1.885-1.75-1.954c-1.617-0.093-3.242-0.083-4.863-0.083
			c-148.574-0.002-297.149-0.002-445.723-0.001c-1.372,0-2.746-0.029-4.116,0.026C996.813,299.298,996.097,299.479,994.928,299.663z
			 M968.057,805.486c0.857-0.724,1.656-1.308,2.347-1.999c3.873-3.877,7.704-7.796,11.579-11.671
			c8.543-8.544,17.119-17.058,25.655-25.607c7.657-7.671,15.268-15.385,22.922-23.058c4.047-4.057,8.156-8.052,12.213-12.101
			c4.674-4.663,9.337-9.34,13.965-14.051c0.653-0.665,1.635-1.229,1.475-2.487c-6.571-5.849-13.158-11.713-19.853-17.673
			c-0.551,0.43-1.18,0.823-1.693,1.334c-2.474,2.46-4.906,4.962-7.373,7.428c-22.822,22.813-45.649,45.624-68.474,68.436
			c-3.26,3.258-6.53,6.506-9.769,9.785c-0.848,0.858-1.977,1.584-1.898,3.012C951.429,789.656,965.746,803.86,968.057,805.486z
			 M1497.15,782.937c-5.941,5.933-11.918,11.894-17.881,17.87c-0.332,0.333-0.533,0.798-0.836,1.266
			c0.293,0.481,0.473,0.969,0.807,1.302c7.74,7.735,15.498,15.456,23.268,23.163c0.24,0.238,0.648,0.306,1.143,0.524
			c0.453-0.343,0.986-0.655,1.408-1.077c5.625-5.63,11.238-11.271,16.836-16.928c0.238-0.242,0.307-0.653,0.441-0.953
			C1520.324,805.339,1499.709,784.701,1497.15,782.937z M1521.031,247.997c2.018-0.232,2.844-1.769,3.932-2.878
			c8.115-8.263,16.184-16.57,24.283-24.85c5.664-5.787,11.355-11.544,17.018-17.333c0.762-0.778,1.426-1.651,2.285-2.655
			c-1.314-0.432-2.113,0.032-3.01,0.407c-16.279,6.796-32.568,13.57-48.881,20.283c-1.316,0.542-2.41,1.25-3.379,2.235
			c-2.795,2.842-5.592,5.68-8.371,8.536c-0.137,0.141-0.105,0.445-0.186,0.833c1.83,1.826,4.547,2.328,6.598,3.932
			c1.961,1.535,4.1,2.87,5.523,4.974C1518.291,243.621,1519.643,245.827,1521.031,247.997z M1405.748,701.405
			c0.924,0.959,1.6,1.681,2.297,2.381c4.309,4.317,8.627,8.629,12.936,12.947c4.924,4.938,9.84,9.885,14.768,14.819
			c7.652,7.664,15.316,15.318,22.971,22.981c7.393,7.4,14.773,14.812,22.178,22.2c0.586,0.586,1.309,1.035,2.039,1.603
			c1.697-1.712,3.6-2.95,4.564-5.169c-0.32-0.465-0.539-0.917-0.875-1.252c-24.906-24.932-49.822-49.854-74.748-74.766
			c-0.242-0.242-0.635-0.334-1.131-0.581C1408.881,697.771,1407.457,699.448,1405.748,701.405z M1390.766,714.428
			c0.667,0.818,1.088,1.432,1.602,1.952c4.91,4.962,9.83,9.915,14.762,14.855c7.838,7.851,15.686,15.69,23.531,23.533
			c6.434,6.433,12.869,12.864,19.309,19.294c5.645,5.637,11.285,11.278,16.953,16.891c0.502,0.497,1.199,0.795,1.812,1.189
			c1.838-1.145,3.15-2.555,4.357-4.378c-1.033-1.1-1.938-2.112-2.895-3.07c-9.426-9.438-18.865-18.865-28.293-28.304
			c-13.305-13.32-26.6-26.65-39.904-39.97c-1.674-1.677-3.367-3.334-5.086-4.963c-1.088-1.032-1.77-1.031-2.906-0.036
			C1392.98,712.321,1392.003,713.276,1390.766,714.428z M1498.045,275.011c-0.369-0.561-0.578-1.029-0.916-1.368
			c-5.641-5.634-11.291-11.257-16.963-16.857c-0.316-0.312-0.848-0.409-1.43-0.675c-6.943,6.726-13.812,13.394-20.322,20.426
			c-0.117,0.127-0.045,0.431-0.078,0.915c5.879,0.525,11.809-0.156,17.77,0.373c0.135,0.661,0.314,1.135,0.311,1.606
			c-0.012,1.617-0.066,3.233-0.143,4.849c-0.17,3.606-0.377,7.212-0.539,10.819c-0.025,0.598-0.027,1.27,0.77,1.481
			C1479.039,294.737,1495.518,278.285,1498.045,275.011z M915.708,237.154c2.966-0.287,5.407-1.329,7.427-3.32
			c1.687-1.662,3.242-3.476,5.045-4.998c2.922-2.466,4.246-5.673,5.029-9.357c-1.19-0.838-2.277-1.663-3.419-2.397
			c-2.514-1.616-5.058-3.186-7.587-4.778c-2.844-1.792-5.687-3.586-8.526-5.384c-1.17-0.74-2.29-0.848-3.438,0.09
			c-2.012,1.644-4.059,3.246-6.02,4.809C905.089,214.872,912.724,231.701,915.708,237.154z M991.35,277.143
			c-0.028-0.223,0.029-0.528-0.096-0.654c-15.013-15.118-30.037-30.224-45.073-45.319c-0.601-0.603-1.323-1.086-2.098-1.713
			c-1.61,1.943-2.539,4.083-3.576,6.074c1.756,2.405,38.292,39.107,41.795,42.011c2.775,0,5.636,0.007,8.496-0.018
			C990.983,277.522,991.166,277.276,991.35,277.143z M924.748,248.538c3.155,3.178,5.95,6.01,8.761,8.826
			c7.656,7.669,15.316,15.335,22.98,22.995c4.846,4.844,9.698,9.681,14.564,14.503c0.484,0.48,0.932,1.257,2.122,0.542
			c0-1.068,0.023-2.299-0.004-3.528c-0.102-4.481-0.098-4.493-3.37-7.782c-10.277-10.329-20.559-20.652-30.851-30.968
			c-2.287-2.292-4.63-4.529-6.93-6.809c-0.807-0.8-1.684-1.045-2.693-0.47C927.936,246.642,926.562,247.469,924.748,248.538z
			 M925.424,810.479c-0.756,0.62-1.358,1.061-1.898,1.567c-6.069,5.681-6.548,15.294,1.65,21.301
			c5.349,3.919,12.05,3.222,17.179-1.168c0.553-0.474,1.061-1.105,1.333-1.768c0.204-0.499,0.116-1.207-0.065-1.746
			c-0.145-0.433-0.611-0.766-0.96-1.118c-5.179-5.212-10.359-10.423-15.548-15.625C926.679,811.487,926.177,811.119,925.424,810.479
			z M1489.607,246.986c2.455,3.251,15.824,16.514,18.395,18.209c1.758-2.468,2.092-5.229,1.766-8.113
			c-0.393-3.468-1.879-6.388-4.566-8.677c-2.639-2.249-5.627-3.71-9.129-3.654C1493.734,244.787,1491.377,245.124,1489.607,246.986z
			 M953.981,819.546c1.527-1.351,3.267-2.519,4.435-4.538c-3.008-3.479-6.376-6.428-9.494-9.612
			c-3.106-3.175-6.157-6.419-9.706-9.417c-0.859,0.791-1.593,1.424-2.278,2.106c-0.764,0.761-1.482,1.566-2.185,2.314
			C936.889,803.296,951.005,817.33,953.981,819.546z"/>
		<path fill-rule="evenodd" clip-rule="evenodd" fill="#46C2CB" d="M1089.749,676.059c-0.135-0.641-0.372-1.24-0.373-1.84
			c-0.013-13.717-0.003-27.435,0.024-41.151c0.001-0.468,0.223-0.936,0.364-1.488c0.542-0.142,1.007-0.368,1.473-0.368
			c91.905,0.016,183.81,0.047,275.716,0.097c0.332,0,0.665,0.281,1.061,0.459c0.1,0.481,0.287,0.963,0.287,1.444
			c0.021,13.592,0.027,27.185,0.018,40.778c0,0.606-0.17,1.212-0.285,1.984c-0.75,0.124-1.453,0.302-2.165,0.344
			c-0.995,0.06-1.995,0.021-2.993,0.021c-89.414,0-178.829,0.002-268.244-0.01C1093.036,676.328,1091.415,676.541,1089.749,676.059z
			"/>
		<path fill-rule="evenodd" clip-rule="evenodd" fill="#46C2CB" d="M1367.949,563.407c0.564,3.377,0.548,41.118-0.031,44.371
			c-0.637,0.124-1.338,0.338-2.049,0.382c-1.118,0.069-2.244,0.027-3.366,0.027c-89.183,0.001-178.364,0.001-267.546,0.001
			c-1.611,0-3.222,0-4.546,0c-1.286-1.116-1.051-2.302-1.06-3.385c-0.033-4.241-0.016-8.481-0.016-12.723
			c0-8.232-0.008-16.465,0.007-24.696c0.002-1.35-0.184-2.738,0.369-3.855c0.269-0.214,0.355-0.303,0.458-0.359
			c0.107-0.061,0.232-0.127,0.35-0.127c91.424-0.04,182.848-0.074,274.273-0.104c0.746,0,1.494,0.031,2.238,0.091
			C1367.26,563.047,1367.479,563.206,1367.949,563.407z"/>
		<path fill-rule="evenodd" clip-rule="evenodd" fill="#46C2CB" d="M1090.428,443.659c-0.155-1.238-0.328-1.968-0.327-2.699
			c0.024-32.058,0.062-64.115,0.119-96.173c0-0.346,0.255-0.69,0.485-1.273c1.046,0,2.156,0,3.266,0
			c12.226,0,24.454-0.156,36.676,0.044c12.283,0.201,23.58,3.888,33.311,11.409c8.408,6.499,13.983,15.125,16.74,25.461
			c1.554,5.826,2.136,11.809,1.526,17.765c-1.493,14.569-7.724,26.585-19.751,35.378c-7.093,5.187-14.96,8.159-23.596,9.545
			c-3.235,0.52-6.426,0.699-9.662,0.701c-11.477,0.008-22.954,0.008-34.431-0.004
			C1093.432,443.812,1092.079,443.72,1090.428,443.659z M1112.339,424.189c0.615,0.096,1.338,0.304,2.062,0.308
			c4.982,0.024,9.967,0.062,14.948-0.023c2.233-0.038,4.515-0.115,6.683-0.59c4.911-1.075,9.394-3.213,13.377-6.303
			c1.071-0.832,2.078-1.802,2.923-2.86c4.643-5.812,7.384-12.331,7.156-19.903c-0.1-3.346,0.011-6.699-0.988-9.977
			c-2.143-7.033-5.951-12.842-12.208-16.854c-4.707-3.019-9.866-4.602-15.494-4.572c-4.983,0.024-9.966,0-14.948,0.008
			c-1.227,0.002-2.453,0.048-3.5,0.07c-1.017,1.516-0.753,2.925-0.758,4.27c-0.028,6.603-0.013,13.204-0.013,19.807
			c0,10.713-0.013,21.426,0.016,32.139C1111.599,421.17,1111.285,422.714,1112.339,424.189z"/>
		<path fill-rule="evenodd" clip-rule="evenodd" fill="#46C2CB" d="M1202.641,414.384c2.827,1.854,5.258,3.577,7.812,5.093
			c4.067,2.412,8.199,4.676,12.892,5.763c5.274,1.222,10.518,1.903,15.854,0.456c3.944-1.07,7.066-3.006,8.241-7.25
			c0.869-3.137-0.247-6.688-2.968-8.589c-2.88-2.014-6.065-3.448-9.438-4.404c-5.607-1.589-11.249-3.058-16.856-4.646
			c-5.053-1.433-9.801-3.522-14.165-6.513c-6.211-4.257-9.307-10.212-9.889-17.576c-0.177-2.229-0.197-4.486-0.099-6.722
			c0.397-8.965,4.596-15.915,11.701-21.13c5.116-3.754,10.906-5.859,17.304-6.18c1.863-0.093,3.717-0.516,5.575-0.51
			c12.925,0.039,24.755,3.599,35.293,11.194c0.601,0.434,1.202,0.868,1.917,1.384c-3.83,5.604-7.399,10.826-11.008,16.107
			c-1.559-0.296-2.627-1.15-3.764-1.843c-3.834-2.336-7.783-4.388-12.071-5.824c-5.071-1.699-10.224-1.973-15.447-1.304
			c-1.841,0.236-3.526,1.1-5.073,2.211c-4.341,3.123-4.036,9.992-0.682,12.829c1.854,1.568,3.927,2.613,6.205,3.296
			c4.391,1.316,8.796,2.578,13.196,3.863c5.494,1.604,10.922,3.373,16.168,5.708c4.328,1.926,7.826,4.853,10.811,8.411
			c2.439,2.908,3.898,6.318,4.334,10.136c0.196,1.728,0.686,3.445,0.687,5.167c0.007,8.26-2.311,15.712-8.052,21.861
			c-0.843,0.902-1.83,1.688-2.826,2.425c-5.109,3.786-10.876,5.801-17.132,6.903c-3.724,0.656-7.403,0.848-11.135,0.854
			c-0.499,0.001-1.005,0.048-1.496-0.017c-9.924-1.288-19.619-3.367-28.363-8.549c-1.924-1.14-3.76-2.438-5.571-3.754
			c-1.501-1.092-2.906-2.315-4.531-3.624C1194.104,424.42,1198.341,419.578,1202.641,414.384z"/>
		<path fill-rule="evenodd" clip-rule="evenodd" fill="#46C2CB" d="M1369.852,357.41c-4.121,5.559-8.848,10.343-13.299,15.617
			c-0.756-0.508-1.484-0.926-2.131-1.448c-2.814-2.276-5.713-4.419-8.949-6.073c-2.891-1.479-5.86-2.653-9.15-2.915
			c-1.604-0.127-3.193-0.747-4.779-0.714c-8.403,0.172-15.864,2.652-21.68,9.101c-4.646,5.152-7.334,11.067-8.252,18.001
			c-1.301,9.816,1.066,18.53,7.027,26.283c3.675,4.78,8.643,7.857,14.398,9.519c5.757,1.662,11.58,1.326,17.314-0.215
			c1.781-0.478,3.551-1.225,5.131-2.176c2.875-1.729,5.609-3.693,8.388-5.58c1.122-0.763,2.207-1.579,3.451-2.474
			c4.795,4.301,9.11,8.897,13.662,13.588c-1.739,1.722-3.183,3.238-4.718,4.655c-6.948,6.413-15.093,10.281-24.398,12.104
			c-5.965,1.168-11.908,0.967-17.859,0.772c-2.939-0.096-5.894-0.952-8.762-1.749c-10.152-2.819-18.606-8.438-25.252-16.514
			c-5.621-6.833-8.979-14.802-10.627-23.567c-0.982-5.227-0.967-10.453-0.58-15.625c0.418-5.576,2.082-10.972,4.428-16.118
			c2.449-5.38,5.66-10.239,9.715-14.517c4.337-4.577,9.535-8,15.206-10.681c4.503-2.128,9.253-3.35,14.212-4.126
			c4.243-0.665,8.457-0.76,12.66-0.553c12.984,0.637,24.518,4.97,33.998,14.132C1369.265,356.388,1369.417,356.747,1369.852,357.41z
			"/>
		<path fill-rule="evenodd" clip-rule="evenodd" fill="#46C2CB" d="M1289.087,499.098c1.071-0.067,2.142-0.189,3.213-0.192
			c6.862-0.019,13.724,0.001,20.587-0.019c1.354-0.004,2.706-0.121,4.143-0.189c3.477-9.072,5.941-18.275,9.336-27.951
			c0.645,1.8,1.064,2.902,1.436,4.021c2.426,7.311,4.891,14.611,7.219,21.953c0.459,1.442,1.186,2.102,2.605,2.137
			c0.998,0.025,1.996,0.036,2.994,0.036c6.488,0.004,12.977-0.01,19.463,0.014c1.201,0.005,2.452-0.231,3.888,0.493
			c-0.405,0.486-0.632,0.898-0.978,1.15c-6.227,4.56-12.466,9.099-18.703,13.644c-0.303,0.221-0.604,0.443-0.9,0.671
			c-1.89,1.451-1.92,1.462-1.204,3.729c1.795,5.685,3.618,11.36,5.437,17.039c0.859,2.691,1.73,5.38,2.739,8.511
			c-3.317-1.514-5.649-3.755-8.249-5.569c-2.555-1.782-5.041-3.658-7.559-5.491c-2.612-1.901-5.225-3.8-7.982-5.806
			c-4.334,2.53-7.971,5.776-11.979,8.475c-3.879,2.611-7.502,5.597-12.08,8.77c0.52-1.813,0.752-2.739,1.049-3.644
			c2.244-6.844,4.503-13.684,6.752-20.524c0.117-0.355,0.165-0.733,0.293-1.083c1.245-3.443,0.221-3.41-1.771-4.856
			c-6.147-4.468-12.273-8.967-18.403-13.459c-0.497-0.363-0.965-0.768-1.445-1.152
			C1289.02,499.568,1289.054,499.333,1289.087,499.098z"/>
		<path fill-rule="evenodd" clip-rule="evenodd" fill="#46C2CB" d="M1125.768,470.792c0.646,1.749,1.014,2.661,1.324,3.594
			c2.432,7.307,4.854,14.616,7.276,21.927c0.746,2.252,1.004,2.493,3.431,2.56c2.243,0.06,4.489,0.022,6.733,0.023
			c5.238,0.002,10.476-0.012,15.713,0.014c0.942,0.005,1.882,0.164,3.312,0.298c-2.373,2.71-5.091,4.183-7.503,6.014
			c-2.476,1.88-5.056,3.623-7.532,5.503c-2.458,1.867-5.154,3.44-7.462,5.771c1.078,4.621,2.846,8.994,4.152,13.501
			c1.301,4.487,3,8.859,4.33,13.99c-1.364-0.768-2.242-1.152-2.997-1.704c-6.131-4.482-12.234-9.003-18.362-13.489
			c-0.69-0.506-1.477-0.881-2.333-1.383c-4.128,2.411-7.696,5.526-11.57,8.198c-3.774,2.603-7.429,5.379-11.085,8.041
			c-1.048-0.696-0.646-1.435-0.439-2.075c2.284-7.094,4.59-14.18,6.893-21.268c0.27-0.829,0.613-1.638,0.816-2.481
			c0.252-1.049-0.021-1.881-0.99-2.572c-4.057-2.893-8.068-5.852-12.09-8.794c-3.009-2.202-6.007-4.417-8.947-6.579
			c0.311-1.293,1.211-0.955,1.855-0.958c7.357-0.032,14.715-0.015,22.072-0.033c1.347-0.004,2.694-0.111,4.102-0.173
			C1119.857,489.686,1122.395,480.612,1125.768,470.792z"/>
		<path fill-rule="evenodd" clip-rule="evenodd" fill="#46C2CB" d="M1202.226,543.898c2.954-9.344,6.186-18.279,8.729-27.525
			c-7.327-5.914-15.111-10.826-22.212-16.521c0.315-1.242,1.207-0.929,1.86-0.932c7.104-0.03,14.209-0.017,21.314-0.025
			c5.481-0.007,4.828,0.201,6.443-4.668c2.268-6.835,4.487-13.686,6.743-20.524c0.182-0.552,0.481-1.064,0.689-1.515
			c1.088,0.017,1.134,0.726,1.311,1.273c2.101,6.492,4.174,12.995,6.289,19.484c0.609,1.869,1.331,3.703,1.904,5.286
			c1.618,0.923,3.019,0.645,4.364,0.65c6.606,0.031,13.212,0.009,19.818,0.02c1.23,0.003,2.46,0.07,3.625,0.106
			c0.37,1.168-0.441,1.532-0.984,1.934c-6.107,4.507-12.227,8.998-18.37,13.456c-2.625,1.903-2.712,1.941-1.664,5.208
			c1.86,5.798,3.77,11.579,5.657,17.369c0.653,2.003,1.308,4.004,1.929,6.018c0.058,0.188-0.127,0.452-0.24,0.809
			c-2.557-1.054-4.502-2.984-6.681-4.54c-5.058-3.611-10.04-7.328-15.066-10.982c-1.356-0.986-1.892-0.978-3.348,0.084
			c-5.02,3.661-10.015,7.358-15.033,11.023c-1.906,1.393-3.841,2.745-5.781,4.09
			C1203.264,543.654,1202.902,543.685,1202.226,543.898z"/>
	</g>
</g>
</svg>
