<?xml version="1.0" encoding="utf-8"?>
<!-- Generator: Adobe Illustrator 16.0.0, SVG Export Plug-In . SVG Version: 6.00 Build 0)  -->
<!DOCTYPE svg PUBLIC "-//W3C//DTD SVG 1.1//EN" "http://www.w3.org/Graphics/SVG/1.1/DTD/svg11.dtd">
<svg version="1.1" id="Layer_1" xmlns="http://www.w3.org/2000/svg" xmlns:xlink="http://www.w3.org/1999/xlink" x="0px" y="0px"
	 width="2500px" height="1000px" viewBox="0 0 2500 1000" enable-background="new 0 0 2500 1000" xml:space="preserve">
<g>
	<defs>
		<rect id="SVGID_1_" x="735.609" y="200.279" width="1028.455" height="596.07"/>
	</defs>
	<clipPath id="SVGID_2_">
		<use xlink:href="#SVGID_1_"  overflow="visible"/>
	</clipPath>
	<rect x="757.967" y="208.905" clip-path="url(#SVGID_2_)" fill="#FFFFFF" width="992.458" height="281.141"/>
	<rect x="762.139" y="512.329" clip-path="url(#SVGID_2_)" fill="#FFFFFF" width="980.296" height="281.14"/>
	<polygon clip-path="url(#SVGID_2_)" fill="#FFFFFF" points="809.898,695.437 819.484,727.84 850.502,727.84 825.408,747.869 
		834.993,780.271 809.898,760.245 784.803,780.271 794.389,747.869 769.294,727.84 800.313,727.84 	"/>
	<polygon clip-path="url(#SVGID_2_)" fill="#FFFFFF" points="809.898,467.034 819.484,499.438 850.502,499.438 825.408,519.463 
		834.993,551.867 809.898,531.841 784.803,551.867 794.389,519.463 769.294,499.438 800.313,499.438 	"/>
	<polygon clip-path="url(#SVGID_2_)" fill="#FFFFFF" points="809.898,579.545 819.484,611.947 850.502,611.947 825.408,631.976 
		834.993,664.378 809.898,644.351 784.803,664.378 794.389,631.976 769.294,611.947 800.313,611.947 	"/>
	<g clip-path="url(#SVGID_2_)">
		<text transform="matrix(1 0 0 1 1062.7324 640.793)" fill="#FFFFFF" font-family="'HeadlineOneHPLHS'" font-size="150.4506">MEET UP</text>
	</g>
	<g clip-path="url(#SVGID_2_)">
		<defs>
			<rect id="SVGID_3_" x="735.609" y="200.279" width="1028.455" height="596.07"/>
		</defs>
		<clipPath id="SVGID_4_">
			<use xlink:href="#SVGID_3_"  overflow="visible"/>
		</clipPath>
		<path clip-path="url(#SVGID_4_)" fill="#EF5030" d="M1585.252,622.909c2.302-4.562,3.548-14.478,3.739-29.757
			c0.189-13.289-0.386-22.913-1.726-28.863c-1.151-4.561-2.782-7.337-4.892-8.331c-2.116-0.196-4.131-0.394-6.045-0.597
			c-0.769,0-2.207-0.195-4.317-0.594c-0.769-0.196-1.438,0.197-2.015,1.19c-0.576,0.994-0.769,2.082-0.576,3.272
			c0,14.878,0.095,36.405,0.288,64.57c0,1.784,0.959,3.079,2.88,3.869c0.956,0.399,2.204,0.299,3.74-0.298
			C1580.936,626.979,1583.904,625.489,1585.252,622.909 M1623.239,626.777c0,14.482-6.144,25.69-18.417,33.625
			c-9.021,5.755-18.708,8.63-29.069,8.63c-2.496,0-3.741,1.388-3.741,4.163c0,18.055-0.195,45.133-0.575,81.236
			c0,3.168-1.059,4.855-3.167,5.057c-6.717,0.79-16.885,0.79-30.506,0c-2.494-0.201-3.741-1.486-3.741-3.866l-0.575-235.075
			c0-2.181,1.626-3.37,4.893-3.572c7.864-0.393,20.621-0.294,38.277,0.299c11.319,0,21.676,3.475,31.083,10.416
			c10.358,7.342,15.539,16.564,15.539,27.672V626.777z M1519.637,522.629l-0.575,183.958c0,11.493-2.403,21.602-7.197,30.315
			c-8.25,15.059-22.355,22.586-42.307,22.586c-22.446,0-37.031-5.547-43.745-16.645c-4.604-7.132-6.908-20.899-6.908-41.306V522.629
			c0-1.667,0.334-3.077,1.009-4.224c0.671-1.149,1.583-1.725,2.733-1.725h30.795c3.26,0,4.894,1.485,4.894,4.463v92.541
			c-0.193,54.949-0.288,81.732-0.288,80.342c0,15.472,3.931,23.208,11.801,23.208c6.902,0,10.359-7.736,10.359-23.208V522.629
			c-0.193-3.962,1.055-5.948,3.74-5.948c18.994,0,29.688,0.106,32.091,0.314C1518.436,517.204,1519.637,519.082,1519.637,522.629
			 M1350.992,552.981c0,2.78-1.635,4.166-4.893,4.166c-1.346,0-4.225-0.097-8.637-0.298h-10.362c-4.026,0-6.04,1.493-6.04,4.468
			l0.576,192.211c0,3.181-1.059,4.868-3.168,5.066c-6.907,0.992-17.844,0.894-32.81-0.296c-2.494-0.201-3.739-1.89-3.739-5.068
			l-0.289-192.208c0-2.782-1.149-4.173-3.454-4.173h-21.297c-3.071-0.193-4.604-1.586-4.604-4.164c0,2.184-0.194-1.885-0.574-12.202
			c-0.385-6.744-0.189-11.999,0.574-15.769c0.767-5.158,2.492-7.74,5.181-7.74c23.789-0.193,53.432-0.193,88.931,0
			c2.684,0,4.12,1.787,4.315,5.359C1351.086,534.634,1351.179,544.852,1350.992,552.981 M1243.07,755.622
			c0,2.38-1.541,3.665-4.623,3.866c-26.571,1.387-50.736,1.19-72.492-0.594c-2.122-0.2-3.179-2.082-3.179-5.656V520.847
			c0-2.18,1.053-3.275,3.166-3.275c14.772-0.195,38.659-0.097,71.66,0.299c3.068,0,4.605,1.19,4.605,3.569v16.07
			c-0.193,9.325-0.288,15.227-0.288,17.705c0,2.481-1.046,3.716-3.142,3.716h-32.864c-2.861,0-4.284,1.096-4.284,3.277
			c0,0.993-0.101,8.031-0.288,21.125c-0.195,11.112-0.195,19.442,0,24.993c0,2.187,1.14,3.476,3.425,3.869
			c3.993,0.596,12.839,0.699,26.541,0.298c2.473,0,3.805,1.191,3.992,3.572c0.189,3.57,0.096,10.217-0.288,19.937
			c-0.386,11.307-0.576,17.957-0.576,19.935c0,2.78-1.055,4.167-3.164,4.167h-25.904c-1.918,0-3.069,1.476-3.451,4.417
			c-0.964,8.244-1.151,23.847-0.575,46.809c0,2.554,1.727,4.029,5.178,4.418h31.657c3.069,0,4.605,1.294,4.605,3.868
			C1242.782,735.683,1242.876,747.687,1243.07,755.622 M1152.994,755.622c0,2.38-1.542,3.665-4.624,3.866
			c-26.572,1.387-50.736,1.19-72.492-0.594c-2.125-0.2-3.18-2.082-3.18-5.656V520.847c0-2.18,1.053-3.275,3.166-3.275
			c14.773-0.195,38.659-0.097,71.661,0.299c3.068,0,4.605,1.19,4.605,3.569v16.07c-0.194,9.325-0.288,15.227-0.288,17.705
			c0,2.481-1.049,3.716-3.144,3.716h-32.862c-2.861,0-4.284,1.096-4.284,3.277c0,0.993-0.1,8.031-0.288,21.125
			c-0.195,11.112-0.195,19.442,0,24.993c0,2.187,1.14,3.476,3.425,3.869c3.993,0.596,12.839,0.699,26.54,0.298
			c2.473,0,3.806,1.191,3.993,3.572c0.19,3.57,0.094,10.217-0.288,19.937c-0.386,11.307-0.576,17.957-0.576,19.935
			c0,2.78-1.055,4.167-3.166,4.167h-25.901c-1.918,0-3.069,1.476-3.451,4.417c-0.964,8.244-1.151,23.847-0.575,46.809
			c0,2.554,1.725,4.029,5.179,4.418h31.658c3.067,0,4.604,1.294,4.604,3.868C1152.706,735.683,1152.799,747.687,1152.994,755.622
			 M1060.616,749.942c0,3.38-0.102,5.469-0.29,6.263c-0.574,2.385-1.727,3.68-3.454,3.879c-0.77,0.194-12.663,0-35.686-0.596
			c-3.071,0-4.704-2.184-4.894-6.546c-0.387-5.156-0.48-14.282-0.288-27.376c0-8.728,0.095-20.132,0.288-34.219
			c0.189-13.488,0.287-20.727,0.287-21.722c0-4.167-0.385-6.249-1.15-6.249c-0.962,0-1.825,1.692-2.589,5.072
			c-1.539,7.165-3.36,20.302-5.468,39.398c-2.498,22.887-4.127,37.212-4.894,42.982c-0.77,4.977-2.544,7.76-5.324,8.36
			c-2.785,0.59-6.862,0.894-12.231,0.894c-8.634-0.199-12.858-0.298-12.663-0.298c-1.727,0-3.167-2.789-4.317-8.359
			c-1.922-9.35-3.934-25.366-6.044-48.051c-2.303-21.089-3.74-32.933-4.315-35.517c-0.965-3.98-2.015-5.973-3.166-5.973
			c-0.77,0-1.151,2.099-1.151,6.287c0,47.703,0.093,75.545,0.287,83.527c0.188,5.189-1.252,7.981-4.317,8.383h-33.672
			c-3.073,0-4.797-3.378-5.182-10.142c-0.767-11.733-1.151-28.438-1.151-50.113c0-24.856,0.576-61.249,1.727-109.174
			c0.958-41.16,1.342-63.632,1.152-67.41c-0.194-1.787-0.099-3.376,0.287-4.771c0.576-2.187,1.629-3.182,3.167-2.983
			c10.361,0.794,21.295,0.994,32.809,0.594c1.915,0,3.642,2.184,5.181,6.545c2.108,6.152,11.51,37.301,28.205,93.437
			c1.532,4.961,2.777,7.438,3.741,7.438c1.149,0,2.396-2.491,3.739-7.48c7.098-23.536,16.211-55.055,27.34-94.551
			c1.152-4.185,3.356-6.18,6.62-5.981h30.218c2.685,0,4.03,2.783,4.03,8.352c0.763,34.403,1.532,68.805,2.303,103.205
			C1060.903,683.923,1061.19,724.887,1060.616,749.942 M1764.063,499.03H783.767v281.142h980.297V499.03z"/>
		<path clip-path="url(#SVGID_4_)" fill="#EF5030" d="M980.974,386.468c-2.877-22.611-4.705-33.92-5.468-33.92
			c-0.964,0-2.116,4.864-3.454,14.582c-0.77,6.352-1.538,12.793-2.303,19.338c-0.193,0.596,0.719,1.044,2.735,1.34
			c2.014,0.3,3.885,0.349,5.612,0.151C980.01,387.764,980.974,387.265,980.974,386.468 M1445.467,323.387
			c2.304-6.348,3.453-20.033,3.453-41.062c0-13.093-4.221-19.342-12.662-18.747c-1.918,0.398-3.357,0.594-4.316,0.594
			c-1.729,0-2.591,1.68-2.591,5.036v52.134c0,5.532,1.339,8.396,4.03,8.59c0.959,0.2,2.108,0.2,3.453,0
			C1441.053,329.933,1443.93,327.752,1445.467,323.387 M1568.355,386.468c-2.879-22.611-4.704-33.92-5.468-33.92
			c-0.964,0-2.112,4.864-3.454,14.582c-0.771,6.352-1.537,12.793-2.304,19.338c-0.192,0.596,0.718,1.044,2.734,1.34
			c2.014,0.3,3.887,0.349,5.612,0.151C1567.394,387.764,1568.355,387.265,1568.355,386.468 M1714.264,463.199
			c-0.19,3.595-2.688,5.392-7.48,5.392c1.15,0-11.513,0.202-37.991,0.601c-16.114,0.396-27.341,0.195-33.671-0.594
			c-2.879-0.401-4.316-2.777-4.316-7.142c-0.957-100.771-1.248-176.55-0.865-227.335c0-5.553,1.728-8.036,5.182-7.439
			c4.028,0.594,14.389,0.594,31.082,0c2.491-0.196,3.929,0.794,4.318,2.97c-0.196,1.784-0.289,3.665-0.289,5.643
			c0.573,8.718,0.668,35.561,0.289,80.521c-0.39,48.928-0.289,82.897,0.284,101.908c0.19,4.558,2.398,6.938,6.623,7.134h29.93
			c4.604,0,6.905,1.799,6.905,5.391C1714.454,437.241,1714.454,448.224,1714.264,463.199 M1618.432,468.896
			c0.189,1.19-0.673,1.784-2.592,1.784h-14.963c-7.293-0.2-13.626-0.298-18.996-0.298c-1.728,0-3.936-6.443-6.619-19.341
			c-1.92-9.718-3.358-18.048-4.318-24.994c-0.191-1.386-1.247-2.084-3.163-2.084h-11.226c-1.342,0-2.207,0.707-2.589,2.11
			c-1.729,12.057-4.028,26.025-6.908,41.899c-0.769,1.801-1.63,2.708-2.589,2.708h-35.398c-3.074,0-4.318-1.195-3.743-3.58
			c6.522-40.567,13.046-81.233,19.568-122c12.854-78.351,20.532-117.625,23.026-117.825c10.36-0.594,20.721-0.594,31.08,0
			c2.304,0.2,9.399,39.478,21.298,117.833C1606.438,386.37,1612.483,427.638,1618.432,468.896 M1487.485,470.68
			c-3.647,0.396-14.872,0.298-33.671-0.298c-2.115,0-3.361-2.677-3.741-8.032c-0.965-13.489-1.439-28.465-1.439-44.933
			c0-29.952-5.087-44.932-15.253-44.932c-1.345-0.396-2.496-0.396-3.454,0c-1.346,0.594-2.017,2.779-2.017,6.547
			c0,31.144-0.099,58.521-0.287,82.126c0,5.159-1.057,7.834-3.165,8.033c-10.36,1.19-20.244,1.386-29.643,0.595
			c-2.301-0.199-3.453-3.072-3.453-8.619V232.33c0-3.566,1.736-5.353,5.211-5.353c10.616,0,25.096-0.096,43.438-0.296
			c11.971,0,22.106,2.574,30.409,7.727c9.075,5.745,13.61,13.376,13.61,22.885l-0.287,58.548c0,9.71-2.783,18.031-8.345,24.964
			c-3.839,4.955-8.157,8.321-12.953,10.102c-1.536,0.596-2.303,1.19-2.303,1.787c0,0.398,0.767,0.892,2.303,1.486
			c3.646,1.19,7.482,3.665,11.513,7.431c9.016,8.122,13.526,27.835,13.526,59.141c0,20.01,0.96,34.376,2.876,43.094
			C1491.322,468.201,1490.361,470.48,1487.485,470.68 M1378.414,233.227l-0.577,183.958c0,11.492-2.4,21.6-7.194,30.313
			c-8.252,15.061-22.352,22.588-42.307,22.588c-22.446,0-37.028-5.546-43.745-16.645c-4.604-7.134-6.907-20.9-6.907-41.305V233.227
			c0-1.669,0.332-3.077,1.01-4.228c0.667-1.147,1.581-1.725,2.733-1.725h30.795c3.257,0,4.889,1.489,4.889,4.463v92.543
			c-0.192,54.95-0.285,81.731-0.285,80.34c0,15.473,3.931,23.209,11.8,23.209c6.908,0,10.362-7.736,10.362-23.209V233.227
			c-0.196-3.968,1.05-5.952,3.738-5.952c18.993,0,29.688,0.106,32.089,0.317C1377.213,227.801,1378.414,229.679,1378.414,233.227
			 M1264.158,461.177c0,5.342-0.96,8.015-2.877,8.015h-8.06c-1.725,0-2.976-1.265-3.74-3.785c-0.769-2.523-2.014-5.923-3.741-10.201
			c-3.265,9.328-14.007,13.985-32.234,13.985c-19.763,0-33.672-5.135-41.729-15.398c-7.103-9.075-10.557-24.08-10.361-45.008
			l0.575-120.814c0.19-24.472,4.123-41.058,11.798-49.74c6.908-7.702,19.284-11.55,37.126-11.55
			c21.296,0,35.782,5.536,43.456,16.613c5.756,7.913,8.729,21.266,8.922,40.051c0.577,17.603,0.766,30.562,0.577,38.867
			c0,3.364-1.249,5.044-3.743,5.044c-6.715,0.2-17.172,0.103-31.37-0.298c-2.302,0-3.551-1.478-3.739-4.439
			c-0.389-11.648-0.77-23.197-1.151-34.653c-1.345-15.793-4.893-23.693-10.649-23.693c-7.099,0-10.648,7.823-10.648,23.468v125.047
			c0,3.173,0.958,6.938,2.877,11.29c2.303,5.347,4.987,8.022,8.059,8.022c7.671,0,11.513-10.713,11.513-32.138v-15.173
			c0-2.58-0.77-3.77-2.303-3.571h-6.907c-1.727,0-2.591-0.892-2.591-2.679v-28.866c0-2.972,1.439-4.463,4.317-4.463
			c10.167,0,24.268,0.103,42.305,0.3c2.879,0,4.316,1.68,4.316,5.042V461.177z M1144.438,233.227l-0.576,183.958
			c0,11.492-2.401,21.6-7.193,30.313c-8.254,15.061-22.354,22.588-42.307,22.588c-22.449,0-37.031-5.546-43.744-16.645
			c-4.605-7.134-6.908-20.9-6.908-41.305V233.227c0-1.669,0.334-3.077,1.007-4.228c0.669-1.147,1.583-1.725,2.735-1.725h30.795
			c3.259,0,4.892,1.489,4.892,4.463v92.543c-0.194,54.95-0.288,81.731-0.288,80.34c0,15.473,3.93,23.209,11.799,23.209
			c6.908,0,10.361-7.736,10.361-23.209V233.227c-0.194-3.968,1.051-5.952,3.741-5.952c18.994,0,29.688,0.106,32.088,0.317
			C1143.239,227.801,1144.438,229.679,1144.438,233.227 M1031.051,468.896c0.187,1.19-0.676,1.784-2.59,1.784h-14.967
			c-7.293-0.2-13.625-0.298-18.994-0.298c-1.727,0-3.933-6.443-6.62-19.341c-1.919-9.718-3.356-18.048-4.315-24.994
			c-0.193-1.386-1.25-2.084-3.165-2.084h-11.225c-1.346,0-2.209,0.707-2.591,2.11c-1.727,12.057-4.029,26.025-6.908,41.899
			c-0.768,1.801-1.63,2.708-2.587,2.708h-35.401c-3.071,0-4.317-1.195-3.741-3.58c6.519-40.567,13.045-81.233,19.569-122
			c12.852-78.351,20.529-117.625,23.023-117.825c10.362-0.594,20.723-0.594,31.082,0c2.303,0.2,9.398,39.478,21.298,117.833
			C1019.059,386.37,1025.101,427.638,1031.051,468.896 M904.997,234.129c0-0.183-0.057-0.311-0.066-0.486
			c-0.224,6.142-0.685,82.151-1.371,228.1c0,5.162-1.54,8.044-4.604,8.639c-9.21,1.586-18.9,1.586-29.068,0
			c-3.454-0.595-5.663-2.677-6.62-6.25c-6.332-29.753-13.719-63.475-22.16-101.169c-0.771-2.975-1.921-4.463-3.454-4.463
			c-1.151,0-1.727,2.071-1.727,6.215v42.032c-0.194,23.678-0.288,42.127-0.288,55.346c0,3.952-2.401,6.416-7.195,7.401
			c-3.265,0.79-7.582,1.084-12.95,0.888c-6.908-0.198-10.844-0.296-11.801-0.296c-3.84,0.194-5.85-2.078-6.044-6.824
			c-0.763-27.703-0.957-69.459-0.576-125.265c0.389-54.023,1.057-88.358,2.015-103.004c0.384-4.746,1.629-7.218,3.742-7.418
			c4.605-0.196,10.836-0.196,18.708,0c9.589,0.4,14.77,0.594,15.54,0.594c2.684,0,4.411,2.084,5.181,6.25
			c9.592,48.008,16.306,78.956,20.144,92.839c1.534,5.357,2.778,8.034,3.743,8.034c1.338,0,1.821-3.083,1.438-9.247
			c-0.769-16.115-1.151-46.75-1.151-91.905c0-4.576,1.915-6.761,5.757-6.564h26.765c3.851,0.191,5.806,2.249,5.976,6.07
			C904.957,232.967,904.979,233.101,904.997,234.129 M779.807,461.754c0,4.761-1.537,7.536-4.602,8.332
			c-4.606,1.384-14.68,1.384-30.22,0c-3.839-0.402-5.755-3.571-5.755-9.522c0.381-67.048,0.477-141.639,0.288-223.765
			c0-1.981,0.189-3.766,0.576-5.356c0.574-2.38,1.628-3.571,3.165-3.571c8.247,0,18.707,0.198,31.371,0.594
			c3.26,0.4,4.987,3.175,5.178,8.333V461.754z M1728.066,200.279H735.609V481.42h992.458V200.279z"/>
	</g>
	<path clip-path="url(#SVGID_2_)" fill="#FFFFFF" d="M763.619,723.531l25.094,20.023l-9.586,32.405l25.096-20.028l25.095,20.028
		l-9.585-32.405l25.097-20.023h-31.021l-9.585-32.407l-9.585,32.407H763.619z M819.732,515.151l25.097-20.025h-31.021l-9.585-32.406
		l-9.585,32.406h-31.019l25.094,20.025l-9.586,32.403l25.096-20.025l25.095,20.025L819.732,515.151z M819.732,627.661l25.097-20.026
		h-31.021l-9.585-32.403l-9.585,32.403h-31.019l25.094,20.026l-9.586,32.404l25.096-20.026l25.095,20.026L819.732,627.661z"/>
	<g clip-path="url(#SVGID_2_)">
		<defs>
			<rect id="SVGID_5_" x="735.609" y="200.279" width="1028.455" height="596.07"/>
		</defs>
		<clipPath id="SVGID_6_">
			<use xlink:href="#SVGID_5_"  overflow="visible"/>
		</clipPath>
		<g clip-path="url(#SVGID_6_)">
			<g>
				<defs>
					<rect id="SVGID_7_" x="758.011" y="673.683" width="120.458" height="104.46"/>
				</defs>
				<clipPath id="SVGID_8_">
					<use xlink:href="#SVGID_7_"  overflow="visible"/>
				</clipPath>
				<polygon clip-path="url(#SVGID_8_)" fill="#0C4269" points="818.24,691.127 827.826,723.531 858.845,723.531 833.749,743.555 
					843.335,775.961 818.24,755.932 793.145,775.961 802.73,743.555 777.636,723.531 808.655,723.531 				"/>
			</g>
		</g>
		<g clip-path="url(#SVGID_6_)">
			<g>
				<defs>
					<rect id="SVGID_9_" x="758.011" y="445.278" width="120.458" height="104.458"/>
				</defs>
				<clipPath id="SVGID_10_">
					<use xlink:href="#SVGID_9_"  overflow="visible"/>
				</clipPath>
				<polygon clip-path="url(#SVGID_10_)" fill="#0C4269" points="818.24,462.721 827.826,495.125 858.845,495.125 833.749,515.151 
					843.335,547.555 818.24,527.529 793.145,547.555 802.73,515.151 777.636,495.125 808.655,495.125 				"/>
			</g>
		</g>
		<g clip-path="url(#SVGID_6_)">
			<g>
				<defs>
					<rect id="SVGID_11_" x="758.011" y="557.786" width="120.458" height="104.46"/>
				</defs>
				<clipPath id="SVGID_12_">
					<use xlink:href="#SVGID_11_"  overflow="visible"/>
				</clipPath>
				<polygon clip-path="url(#SVGID_12_)" fill="#0C4269" points="818.24,575.231 827.826,607.635 858.845,607.635 833.749,627.661 
					843.335,660.063 818.24,640.039 793.145,660.063 802.73,627.661 777.636,607.635 808.655,607.635 				"/>
			</g>
		</g>
	</g>
</g>
</svg>
