<?xml version="1.0" encoding="utf-8"?>
<!-- Generator: Adobe Illustrator 16.0.0, SVG Export Plug-In . SVG Version: 6.00 Build 0)  -->
<!DOCTYPE svg PUBLIC "-//W3C//DTD SVG 1.1//EN" "http://www.w3.org/Graphics/SVG/1.1/DTD/svg11.dtd">
<svg version="1.1" id="Layer_1" xmlns="http://www.w3.org/2000/svg" xmlns:xlink="http://www.w3.org/1999/xlink" x="0px" y="0px"
	 width="911.646px" height="548px" viewBox="1588.354 105.5 911.646 548" enable-background="new 1588.354 105.5 911.646 548"
	 xml:space="preserve">
<g>
	<path fill="#FFFFFF" d="M1847.662,200.568c0.526,0.215,0.763,0.275,0.959,0.398c4.583,2.881,9.152,5.781,13.739,8.653
		c6.572,4.113,13.159,8.202,19.735,12.312c2.323,1.452,4.641,2.914,6.937,4.408c0.554,0.36,1.036,0.844,1.508,1.314
		c6.394,6.383,12.781,12.771,19.166,19.162c4.729,4.734,9.452,9.476,14.182,14.209c0.471,0.471,0.973,0.908,1.461,1.363
		c76.489,0,152.938,0,229.446,0c0.666-0.632,1.346-1.272,2.02-1.918c3.086-2.968,6.182-5.928,9.255-8.91
		c2.258-2.19,4.487-4.408,6.727-6.618c5.858-5.78,11.722-11.556,17.563-17.353c0.822-0.817,1.737-1.398,2.811-1.844
		c6.416-2.662,12.81-5.384,19.217-8.064c3.387-1.417,6.799-2.774,10.185-4.19c5.051-2.113,10.087-4.261,15.134-6.38
		c4.553-1.91,9.112-3.803,13.673-5.696c0.35-0.146,0.726-0.225,1.221-0.375c-0.142,0.289-0.188,0.481-0.305,0.603
		c-3.524,3.666-7.06,7.321-10.587,10.985c-6.914,7.184-13.817,14.379-20.737,21.556c-2.603,2.698-5.261,5.341-7.86,8.041
		c-5.941,6.167-11.858,12.359-17.797,18.529c-1.949,2.025-3.943,4.006-5.898,6.025c-3.117,3.22-6.215,6.459-9.327,9.685
		c-1.579,1.637-3.147,3.285-4.769,4.88c-0.908,0.895-1.455,1.842-1.334,3.187c0.082,0.92-0.104,1.864-0.156,2.798
		c-0.113,2.002-0.227,4.006-0.327,6.01c-0.077,1.536-0.128,3.074-0.204,4.61c-0.054,1.069-0.192,2.138-0.186,3.206
		c0.015,2.346-0.051,4.684-0.394,7.009c-0.077,0.527-0.087,1.068-0.085,1.603c0.012,2.276,0.016,4.55-0.354,6.808
		c-0.106,0.656-0.089,1.335-0.092,2.003c-0.007,2.007-0.116,4.005-0.272,6.009c-0.303,3.864-0.384,7.746-0.572,11.619
		c-0.053,1.066-0.165,2.13-0.256,3.194c-0.022,0.267-0.087,0.529-0.1,0.796c-0.173,3.472-0.333,6.942-0.512,10.413
		c-0.052,1-0.147,1.998-0.227,2.996c-0.016,0.199-0.064,0.397-0.071,0.597c-0.096,2.739-0.226,5.471-0.491,8.203
		c-0.175,1.789-0.023,3.605-0.408,5.391c-0.125,0.58-0.053,1.2-0.089,1.801c-0.072,1.2-0.155,2.4-0.236,3.601
		c-0.054,0.8-0.102,1.601-0.164,2.402c-0.101,1.332-0.208,2.663-0.317,3.995c-0.016,0.2-0.059,0.397-0.073,0.597
		c-0.199,2.866-0.393,5.731-0.595,8.597c-0.052,0.733-0.127,1.464-0.197,2.196c-0.062,0.666-0.186,1.33-0.187,1.995
		c-0.001,1.276-0.042,2.542-0.35,3.789c-0.016,0.064-0.024,0.131-0.029,0.199c-0.172,2.464-0.343,4.929-0.518,7.393
		c-0.043,0.6-0.1,1.199-0.154,1.798c-0.079,0.863-0.158,1.728-0.246,2.589s-0.186,1.723-0.283,2.583
		c-0.023,0.199-0.083,0.394-0.099,0.594c-0.166,2.194-0.29,4.393-0.499,6.583c-0.197,2.054-0.491,4.099-0.728,6.149
		c-0.061,0.531-0.059,1.067-0.096,1.601c-0.032,0.465-0.061,0.932-0.118,1.396c-0.236,1.92-0.485,3.839-0.727,5.758
		c-0.225,1.786-0.436,3.573-0.669,5.357c-0.232,1.785-0.482,3.568-0.727,5.352c-0.154,1.121-0.281,2.245-0.475,3.358
		c-0.375,2.162-0.787,4.317-1.186,6.476c-0.547,2.973-1.625,5.771-2.842,8.518c-2.512,5.666-5.897,10.777-9.851,15.529
		c-1.019,1.224-2.019,2.468-3.177,3.887c21.76,21.773,43.37,43.397,65.065,65.107c-3.204,3.462-6.479,6.709-9.796,9.897
		c-3.556,3.415-6.931,7.021-10.645,10.474c-5.602-5.607-11.079-11.097-16.558-16.582c-5.488-5.492-10.978-10.984-16.468-16.475
		c-5.49-5.491-10.979-10.986-16.476-16.471c-5.489-5.476-10.953-10.979-16.507-16.496c-0.522,0.293-0.947,0.472-1.303,0.74
		c-3.639,2.727-7.339,5.369-11.141,7.857c-4.024,2.635-8.118,5.165-12.202,7.706c-4.599,2.86-9.308,5.536-14.088,8.081
		c-5.133,2.731-10.284,5.434-15.494,8.014c-5.388,2.669-10.829,5.236-16.297,7.737c-4.066,1.861-8.219,3.535-12.32,5.321
		c-0.281,0.123-0.537,0.188-0.794,0.188c-0.231,0-0.465-0.053-0.722-0.165c-5.075-2.226-10.167-4.414-15.244-6.636
		c-1.775-0.776-3.545-1.573-5.282-2.433c-5.687-2.817-11.391-5.605-17.026-8.523c-4.806-2.488-9.573-5.057-14.272-7.741
		c-4.293-2.451-8.511-5.042-12.687-7.69c-3.835-2.433-7.581-5.008-11.344-7.553c-1.438-0.973-2.809-2.049-4.221-3.061
		c-0.753-0.54-1.468-1.146-2.27-1.504c-0.784,0.219-1.174,0.79-1.638,1.253c-3.79,3.781-7.571,7.572-11.356,11.358
		c-8.66,8.665-17.322,17.324-25.98,25.99c-7.145,7.15-14.286,14.303-21.424,21.459c-1.274,1.278-2.476,2.635-3.797,3.86
		c-2.238,2.079-4.931,3.09-7.988,3.209c-0.419,0.017-0.838,0.027-1.254,0.027c-2.13,0-4.209-0.264-6.159-1.275
		c-4.361-2.262-7.125-5.725-7.914-10.649c-0.073-0.462-0.209-0.912-0.275-1.375c-0.065-0.461-0.155-0.937-0.104-1.393
		c0.406-3.672,1.694-6.883,4.208-9.74c2.163-2.461,4.507-4.729,6.75-7.099c2.207-2.332,4.566-4.519,6.836-6.791
		c4.256-4.263,8.486-8.55,12.743-12.812c4.304-4.31,8.629-8.596,12.936-12.901c4.118-4.116,8.22-8.247,12.337-12.363
		c2.793-2.791,5.602-5.565,8.4-8.349c0.657-0.654,1.338-1.292,1.795-2.179c-1.258-1.5-2.48-2.911-3.652-4.363
		c-4.354-5.385-8.027-11.185-10.536-17.667c-1.011-2.612-1.771-5.296-2.146-8.091c-0.31-2.309-0.818-4.589-1.151-6.896
		c-0.42-2.903-0.736-5.82-1.125-8.728c-0.316-2.38-0.67-4.752-0.847-7.152c-0.137-1.857-0.499-3.695-0.715-5.549
		c-0.092-0.795-0.015-1.609-0.104-2.404c-0.229-2.051-0.512-4.097-0.764-6.145c-0.048-0.397-0.035-0.801-0.069-1.2
		c-0.083-0.997-0.178-1.994-0.266-2.991c-0.047-0.532-0.085-1.065-0.135-1.598c-0.104-1.129-0.217-2.257-0.317-3.387
		c-0.048-0.533-0.071-1.067-0.117-1.6c-0.092-1.063-0.19-2.127-0.29-3.19c-0.013-0.132-0.07-0.26-0.081-0.393
		c-0.184-2.396-0.363-4.793-0.545-7.189c-0.061-0.8-0.123-1.6-0.181-2.4c-0.076-1.066-0.131-2.135-0.225-3.201
		c-0.27-3.06-0.554-6.119-0.837-9.178c-0.019-0.199-0.087-0.395-0.098-0.594c-0.146-2.803-0.273-5.606-0.434-8.407
		c-0.064-1.133-0.197-2.262-0.303-3.392c-0.012-0.132-0.061-0.262-0.067-0.395c-0.167-2.934-0.324-5.869-0.497-8.803
		c-0.074-1.267-0.177-2.532-0.271-3.797c-0.015-0.2-0.064-0.397-0.075-0.597c-0.163-3.271-0.314-6.542-0.487-9.812
		c-0.07-1.334-0.184-2.667-0.283-4c-0.02-0.266-0.081-0.531-0.093-0.798c-0.155-3.474-0.294-6.947-0.462-10.42
		c-0.073-1.534-0.219-3.065-0.311-4.599c-0.062-1-0.075-2.004-0.131-3.006c-0.096-1.735-0.204-3.47-0.313-5.205
		c-0.021-0.333-0.091-0.664-0.104-0.998c-0.154-3.743-0.283-7.486-0.458-11.229c-0.097-2.069-0.271-4.135-0.399-6.204
		c-0.05-0.801-0.098-1.603-0.101-2.404c-0.011-2.476,0.025-4.952-0.399-7.41c-0.125-0.717-0.083-1.47-0.052-2.204
		c0.035-0.798-0.26-1.38-0.828-1.942c-3.093-3.06-6.147-6.158-9.221-9.238c-5.956-5.969-11.915-11.936-17.875-17.902
		c-2.413-2.415-4.808-4.847-7.256-7.224c-0.788-0.765-1.367-1.624-1.817-2.606c-4.169-9.115-8.34-18.228-12.521-27.337
		c-2.451-5.34-4.923-10.671-7.384-16.007C1848.146,201.668,1847.973,201.267,1847.662,200.568 M2198.785,246.526
		c1.082-0.124,1.525-0.949,2.109-1.544c4.354-4.435,8.685-8.892,13.03-13.335c3.04-3.105,6.093-6.194,9.132-9.301
		c0.409-0.417,0.766-0.886,1.227-1.424c-0.201-0.066-0.381-0.093-0.545-0.093c-0.41,0-0.727,0.168-1.07,0.312
		c-8.735,3.646-17.477,7.281-26.229,10.884c-0.706,0.291-1.293,0.67-1.813,1.199c-1.499,1.525-3.001,3.048-4.491,4.581
		c-0.073,0.076-0.057,0.239-0.101,0.447c0.982,0.979,2.439,1.249,3.541,2.11c1.053,0.824,2.2,1.54,2.963,2.669
		C2197.314,244.178,2198.04,245.362,2198.785,246.526 M1873.969,240.708c1.592-0.154,2.902-0.713,3.985-1.781
		c0.905-0.892,1.74-1.865,2.707-2.682c1.568-1.323,2.278-3.044,2.699-5.021c-0.639-0.449-1.222-0.893-1.835-1.286
		c-1.349-0.867-2.714-1.709-4.071-2.564c-1.525-0.961-3.052-1.924-4.575-2.889c-0.315-0.199-0.624-0.313-0.931-0.313
		c-0.305,0-0.607,0.111-0.913,0.362c-1.08,0.882-2.179,1.742-3.231,2.581C1868.271,228.752,1872.367,237.782,1873.969,240.708
		 M1911.297,262.381c0.98,0,1.973-0.002,2.965-0.01c0.1-0.001,0.198-0.133,0.297-0.205c-0.015-0.12,0.016-0.283-0.052-0.351
		c-8.056-8.112-16.118-16.218-24.187-24.318c-0.322-0.324-0.71-0.583-1.125-0.919c-0.864,1.042-1.362,2.19-1.919,3.259
		c0.942,1.291,20.547,20.985,22.427,22.543C1910.23,262.38,1910.762,262.381,1911.297,262.381 M2191.794,255.755
		c0.942-1.324,1.122-2.806,0.947-4.354c-0.211-1.861-1.009-3.428-2.45-4.656c-1.391-1.184-2.96-1.961-4.794-1.961
		c-0.034,0-0.069,0-0.104,0c-1.255,0.019-2.52,0.2-3.47,1.199C2183.24,247.729,2190.414,254.845,2191.794,255.755 M1904.341,272.12
		c0.128,0,0.28-0.044,0.465-0.155c0-0.573,0.013-1.233-0.002-1.893c-0.055-2.404-0.053-2.411-1.809-4.176
		c-5.515-5.542-11.031-11.082-16.554-16.618c-1.228-1.229-2.484-2.43-3.72-3.653c-0.271-0.269-0.558-0.421-0.866-0.421
		c-0.185,0-0.377,0.054-0.578,0.169c-0.747,0.427-1.483,0.871-2.457,1.444c1.693,1.705,3.192,3.225,4.701,4.736
		c4.107,4.115,8.219,8.229,12.331,12.339c2.6,2.6,5.204,5.195,7.814,7.782C1903.852,271.857,1904.026,272.12,1904.341,272.12
		 M2168.185,262.446c1.133,0,2.268-0.029,3.405-0.029c1.027,0,2.057,0.024,3.088,0.115c0.073,0.354,0.169,0.609,0.167,0.861
		c-0.006,0.868-0.035,1.735-0.076,2.603c-0.092,1.935-0.202,3.87-0.289,5.805c-0.014,0.321-0.015,0.682,0.413,0.795
		c1.359-0.989,10.202-9.817,11.559-11.574c-0.198-0.301-0.311-0.552-0.492-0.734c-3.026-3.023-6.059-6.041-9.103-9.045
		c-0.169-0.167-0.454-0.219-0.767-0.362c-3.727,3.609-7.412,7.187-10.905,10.96c-0.062,0.068-0.024,0.231-0.042,0.491
		C2166.154,262.422,2167.168,262.446,2168.185,262.446 M2039.714,534.473c0.632-0.245,1.204-0.438,1.752-0.684
		c4.084-1.824,8.182-3.622,12.24-5.503c7.216-3.345,14.332-6.884,21.356-10.62c7.144-3.798,14.175-7.783,21.054-12.035
		c4.601-2.844,9.113-5.825,13.526-8.966c6.706-4.774,13.209-9.783,19.196-15.451c3.308-3.13,6.507-6.344,9.43-9.842
		c2.925-3.5,5.565-7.181,7.687-11.22c1.338-2.547,2.429-5.183,3.127-7.997c0.755-3.049,1.031-6.166,1.567-9.244
		c0.286-1.642,0.472-3.299,0.681-4.953c0.252-1.984,0.471-3.974,0.718-5.959c0.195-1.589,0.424-3.174,0.616-4.764
		c0.238-1.987,0.482-3.976,0.674-5.968c0.19-1.991,0.315-3.988,0.477-5.98c0.016-0.198,0.1-0.391,0.122-0.589
		c0.099-0.861,0.19-1.721,0.278-2.583c0.08-0.797,0.152-1.594,0.227-2.391c0.062-0.665,0.125-1.329,0.174-1.995
		c0.168-2.263,0.326-4.525,0.496-6.787c0.014-0.198,0.101-0.391,0.121-0.589c0.092-0.862,0.186-1.725,0.25-2.589
		c0.045-0.6-0.041-1.219,0.076-1.8c0.307-1.523,0.346-3.056,0.341-4.597c-0.002-0.399,0.059-0.798,0.097-1.196
		c0.285-2.99,0.574-5.981,0.854-8.972c0.031-0.331-0.006-0.669,0.01-1.003c0.025-0.534,0.066-1.067,0.102-1.6
		c0.1-1.468,0.196-2.935,0.3-4.401c0.042-0.6,0.097-1.199,0.144-1.798c0.257-3.33,0.545-6.658,0.759-9.99
		c0.196-3.068,0.312-6.141,0.466-9.212c0.007-0.133,0.039-0.265,0.05-0.398c0.11-1.599,0.226-3.197,0.327-4.797
		c0.041-0.667-0.037-1.354,0.09-2.001c0.375-1.923,0.346-3.861,0.349-5.802c0-0.535-0.023-1.081,0.075-1.601
		c0.349-1.857,0.326-3.729,0.325-5.604c0-0.602-0.036-1.218,0.075-1.801c0.374-1.989,0.363-3.995,0.361-6.004
		c-0.001-0.602-0.047-1.218,0.062-1.802c0.397-2.124,0.371-4.263,0.371-6.405c0-0.602,0.032-1.203,0.063-1.804
		c0.108-2.069,0.229-4.138,0.331-6.208c0.038-0.802-0.062-1.622,0.073-2.404c0.383-2.191,0.372-4.396,0.389-6.605
		c0.008-0.935,0.081-1.869,0.143-2.803c0.115-1.801,0.262-3.601,0.357-5.403c0.071-1.335-0.003-2.682,0.134-4.009
		c0.259-2.535,0.381-5.068,0.354-7.615c-0.012-1.135,0.086-2.272,0.145-3.408c0.026-0.535,0.103-1.067,0.109-1.602
		c0.01-0.671-0.279-1.012-0.938-1.048c-0.713-0.042-1.428-0.045-2.143-0.045c-0.155,0-0.312,0-0.467,0
		c-46.699-0.001-93.406-0.001-140.105-0.001c-33.025,0-66.043,0-99.069,0c-0.379,0-0.759-0.004-1.138-0.004
		c-0.357,0-0.714,0.004-1.071,0.018c-0.391,0.015-0.775,0.112-1.402,0.211c0,0.782-0.022,1.373,0.004,1.962
		c0.076,1.735,0.188,3.47,0.256,5.207c0.166,4.278,0.312,8.555,0.478,12.833c0.023,0.6,0.135,1.196,0.177,1.798
		c0.084,1.199,0.16,2.401,0.219,3.602c0.22,4.608,0.429,9.217,0.646,13.826c0.085,1.802,0.174,3.606,0.273,5.408
		c0.062,1.135,0.146,2.269,0.225,3.402c0.07,0.998,0.173,1.996,0.22,2.996c0.181,3.873,0.345,7.747,0.519,11.619
		c0.013,0.267,0.066,0.531,0.086,0.798c0.081,1.064,0.176,2.129,0.232,3.194c0.179,3.403,0.34,6.807,0.514,10.21
		c0.014,0.266,0.078,0.529,0.102,0.796c0.089,1.064,0.192,2.128,0.251,3.194c0.171,3.136,0.319,6.273,0.484,9.411
		c0.017,0.333,0.102,0.662,0.131,0.995c0.081,0.932,0.151,1.864,0.225,2.796c0.105,1.331,0.208,2.662,0.315,3.992
		c0.037,0.467,0.095,0.931,0.124,1.398c0.19,3,0.372,6,0.563,8.999c0.102,1.601,0.208,3.201,0.33,4.8
		c0.051,0.666,0.156,1.328,0.223,1.994c0.245,2.456,0.519,4.908,0.715,7.368c0.195,2.462,0.312,4.931,0.465,7.396
		c0.008,0.133,0.044,0.264,0.057,0.397c0.111,1.127,0.213,2.256,0.331,3.383c0.062,0.597,0.149,1.19,0.226,1.786
		c0.066,0.529,0.157,1.057,0.197,1.588c0.162,2.195,0.307,4.393,0.466,6.589c0.021,0.265,0.103,0.525,0.137,0.79
		c0.085,0.66,0.167,1.32,0.235,1.982c0.062,0.598,0.092,1.198,0.159,1.795c0.22,1.923,0.46,3.843,0.671,5.766
		c0.197,1.789,0.318,3.588,0.557,5.371c0.381,2.843,0.83,5.678,1.252,8.516c0.157,1.054,0.348,2.104,0.47,3.162
		c0.318,2.782,0.746,5.537,1.544,8.227c1.15,3.882,3.073,7.39,5.219,10.787c3.341,5.289,7.529,9.887,11.926,14.288
		c3.449,3.453,7.104,6.697,10.913,9.756c6.73,5.403,13.769,10.382,21.048,15.015c4.905,3.121,9.908,6.078,14.954,8.972
		c7.312,4.192,14.772,8.097,22.333,11.801c5.755,2.82,11.61,5.437,17.459,8.06C2036.16,533.061,2037.865,534.012,2039.714,534.473
		 M2178.344,531.106c0.91-0.919,1.932-1.584,2.449-2.774c-0.172-0.25-0.289-0.491-0.47-0.672
		c-13.364-13.378-26.734-26.751-40.109-40.119c-0.13-0.13-0.341-0.179-0.607-0.312c-1.001,0.646-1.765,1.545-2.683,2.595
		c0.496,0.515,0.858,0.902,1.232,1.278c2.312,2.317,4.63,4.63,6.942,6.947c2.642,2.649,5.28,5.304,7.924,7.951
		c4.106,4.112,8.219,8.22,12.326,12.333c3.968,3.971,7.928,7.947,11.901,11.912C2177.564,530.561,2177.952,530.801,2178.344,531.106
		 M1902.06,545.675c0.46-0.389,0.889-0.702,1.26-1.073c2.078-2.08,4.134-4.183,6.213-6.262c4.584-4.585,9.186-9.154,13.767-13.741
		c4.108-4.116,8.193-8.255,12.3-12.373c2.172-2.177,4.376-4.321,6.554-6.493c2.508-2.502,5.01-5.012,7.493-7.54
		c0.351-0.356,0.878-0.659,0.792-1.334c-3.526-3.139-7.061-6.285-10.653-9.484c-0.296,0.232-0.634,0.442-0.908,0.716
		c-1.327,1.321-2.633,2.663-3.957,3.986c-12.246,12.242-24.495,24.482-36.743,36.723c-1.749,1.749-3.504,3.491-5.242,5.251
		c-0.454,0.46-1.061,0.851-1.018,1.616C1893.137,537.181,1900.819,544.802,1902.06,545.675 M2170.723,538.515
		c0.986-0.615,1.69-1.372,2.338-2.35c-0.555-0.59-1.039-1.133-1.553-1.647c-5.059-5.064-10.123-10.123-15.182-15.188
		c-7.141-7.146-14.274-14.3-21.413-21.447c-0.898-0.9-1.807-1.789-2.729-2.663c-0.294-0.279-0.533-0.418-0.776-0.418
		c-0.238,0-0.481,0.134-0.783,0.398c-0.551,0.483-1.075,0.996-1.739,1.614c0.357,0.439,0.584,0.768,0.859,1.047
		c2.635,2.663,5.275,5.32,7.922,7.972c4.205,4.213,8.417,8.418,12.627,12.627c3.452,3.453,6.905,6.902,10.36,10.354
		c3.029,3.025,6.056,6.052,9.097,9.064C2170.02,538.143,2170.395,538.303,2170.723,538.515 M2189.459,557.253
		c0.242-0.185,0.529-0.353,0.755-0.579c3.019-3.02,6.03-6.048,9.034-9.083c0.128-0.13,0.165-0.351,0.237-0.512
		c-1.079-1.483-12.142-12.558-13.515-13.504c-3.188,3.183-6.396,6.382-9.595,9.589c-0.179,0.178-0.286,0.429-0.449,0.679
		c0.157,0.258,0.254,0.521,0.434,0.699c4.153,4.15,8.315,8.293,12.485,12.429C2188.975,557.099,2189.193,557.136,2189.459,557.253
		 M1894.506,553.219c0.82-0.725,1.754-1.351,2.381-2.435c-1.614-1.866-3.422-3.449-5.095-5.157
		c-1.667-1.704-3.304-3.445-5.208-5.054c-0.461,0.425-0.855,0.764-1.223,1.13c-0.41,0.408-0.795,0.84-1.173,1.242
		C1885.335,544.499,1892.909,552.03,1894.506,553.219 M1883.167,562.004c1.781,0,3.571-0.697,5.101-2.006
		c0.297-0.254,0.569-0.593,0.715-0.949c0.11-0.267,0.062-0.647-0.034-0.937c-0.077-0.231-0.328-0.411-0.515-0.6
		c-2.779-2.797-5.56-5.594-8.344-8.385c-0.234-0.233-0.503-0.431-0.907-0.774c-0.405,0.332-0.729,0.569-1.019,0.841
		c-3.256,3.049-3.514,8.207,0.886,11.43C1880.325,561.559,1881.743,562.004,1883.167,562.004 M1820.77,174.517l14.15,31.733
		l0.28,0.633c0.178,0.402,0.315,0.713,0.458,1.022c0.842,1.825,1.684,3.646,2.525,5.467c1.619,3.505,3.239,7.012,4.851,10.521
		c4.279,9.321,8.543,18.638,12.513,27.318c1.188,2.591,2.797,4.881,4.785,6.812c1.773,1.721,3.505,3.461,5.339,5.303
		c0.589,0.591,1.177,1.182,1.768,1.772c5.957,5.963,11.914,11.929,17.869,17.896c0.987,0.989,1.973,1.981,2.958,2.973
		c1.094,1.1,2.207,2.219,3.329,3.343c0.127,1.047,0.13,2.475,0.134,3.976l0.002,0.706c0.005,1.145,0.063,2.173,0.128,3.211
		c0.05,0.796,0.105,1.587,0.161,2.377c0.089,1.266,0.174,2.461,0.227,3.609c0.11,2.356,0.204,4.779,0.295,7.123
		c0.053,1.344,0.104,2.688,0.159,4.031c0.029,0.697,0.095,1.259,0.142,1.618c0.101,1.61,0.199,3.202,0.287,4.781
		c0.021,0.375,0.033,0.755,0.047,1.134c0.021,0.582,0.045,1.242,0.088,1.949c0.043,0.711,0.096,1.426,0.149,2.142
		c0.061,0.813,0.118,1.583,0.151,2.282c0.106,2.19,0.203,4.432,0.296,6.601c0.054,1.257,0.108,2.514,0.163,3.77
		c0.031,0.663,0.096,1.211,0.146,1.568c0.017,0.231,0.035,0.463,0.054,0.696c0.072,0.937,0.14,1.821,0.184,2.649
		c0.109,2.065,0.21,4.133,0.311,6.2c0.058,1.19,0.115,2.379,0.175,3.569l0.001,0.018v0.018c0.027,0.516,0.077,0.96,0.127,1.327
		l0.033,0.452c0.073,0.947,0.142,1.842,0.192,2.703c0.103,1.747,0.199,3.494,0.296,5.241c0.066,1.179,0.132,2.358,0.198,3.537
		c0.032,0.576,0.096,1.087,0.166,1.521c0.015,0.151,0.03,0.303,0.045,0.454c0.067,0.673,0.131,1.308,0.16,1.816
		c0.099,1.73,0.188,3.517,0.274,5.246c0.051,1.03,0.103,2.06,0.155,3.09c0.036,0.673,0.111,1.258,0.191,1.734l0.033,0.356
		c0.253,2.727,0.505,5.453,0.745,8.18c0.046,0.517,0.083,1.103,0.123,1.722c0.027,0.417,0.054,0.834,0.084,1.25
		c0.04,0.568,0.083,1.14,0.127,1.712l0.057,0.739l0.122,1.621c0.142,1.862,0.282,3.726,0.425,5.588l0.002,0.017l0.001,0.016
		c0.038,0.488,0.1,0.934,0.165,1.319c0.072,0.784,0.145,1.573,0.213,2.363c0.015,0.169,0.024,0.333,0.035,0.496
		c0.025,0.383,0.052,0.766,0.086,1.148c0.06,0.663,0.123,1.326,0.186,1.988c0.046,0.478,0.092,0.955,0.136,1.433
		c0.023,0.256,0.043,0.503,0.062,0.75c0.021,0.264,0.043,0.526,0.066,0.789c0.034,0.394,0.069,0.778,0.104,1.163
		c0.049,0.535,0.097,1.07,0.143,1.605c0.013,0.372,0.036,1.061,0.137,1.886c0.099,0.804,0.199,1.586,0.3,2.369
		c0.148,1.156,0.29,2.254,0.413,3.332c0.001,0.024,0.001,0.048,0.001,0.072c0.005,0.621,0.014,1.56,0.146,2.703
		c0.111,0.952,0.242,1.839,0.358,2.623c0.132,0.89,0.256,1.729,0.301,2.343c0.179,2.421,0.481,4.644,0.772,6.792
		c0.053,0.393,0.106,0.785,0.159,1.177c0.151,1.141,0.292,2.282,0.434,3.422c0.217,1.768,0.442,3.596,0.712,5.46
		c0.192,1.326,0.413,2.545,0.626,3.723c0.198,1.092,0.384,2.123,0.507,3.032c0.499,3.722,1.469,7.41,2.963,11.271
		c2.133,5.511,4.999,10.821,8.697,16.102c-0.519,0.518-1.037,1.034-1.556,1.552c-2.062,2.062-4.122,4.128-6.18,6.193
		c-2.052,2.058-4.103,4.116-6.157,6.17c-1.96,1.958-3.921,3.912-5.883,5.865c-2.356,2.346-4.713,4.693-7.062,7.046
		c-2.159,2.162-4.312,4.33-6.465,6.499c-2.09,2.106-4.182,4.213-6.279,6.313c-0.771,0.772-1.568,1.548-2.412,2.368
		c-1.523,1.482-3.1,3.016-4.684,4.689c-0.719,0.76-1.463,1.522-2.252,2.33c-1.574,1.613-3.203,3.281-4.843,5.146
		c-4.304,4.896-6.859,10.756-7.598,17.418c-0.243,2.199,0.021,3.958,0.146,4.803l0.015,0.104c0.112,0.787,0.257,1.429,0.344,1.812
		l0.004,0.016c1.513,8.987,6.914,16.291,15.23,20.604c3.683,1.911,7.799,2.841,12.581,2.841c0.574,0,1.162-0.013,1.8-0.037
		c6.473-0.253,12.33-2.649,16.938-6.928c1.128-1.047,2.107-2.074,2.972-2.979c0.429-0.451,0.835-0.876,1.206-1.248
		c7.138-7.157,14.276-14.306,21.418-21.453c5.343-5.348,10.688-10.694,16.033-16.04l9.944-9.948l3.499-3.502
		c0.338-0.338,0.676-0.676,1.014-1.014c2.904,1.969,5.898,3.988,8.977,5.94c5,3.171,9.207,5.722,13.24,8.023
		c4.589,2.622,9.423,5.243,14.776,8.016c4.718,2.442,9.503,4.808,14.131,7.095c1.039,0.514,2.079,1.026,3.117,1.541
		c2.154,1.065,4.275,2.01,5.884,2.713c2.43,1.063,4.865,2.12,7.301,3.177c2.646,1.147,5.291,2.296,7.933,3.454
		c2.027,0.889,4.155,1.34,6.323,1.34c2.173,0,4.317-0.456,6.375-1.354c1.457-0.634,2.921-1.254,4.472-1.909
		c2.628-1.113,5.345-2.263,8.073-3.512c6.102-2.792,11.561-5.384,16.686-7.922c5.69-2.819,11.207-5.727,15.854-8.199
		c5.404-2.877,10.278-5.674,14.904-8.552l1.141-0.71c3.711-2.306,7.547-4.691,11.331-7.167c1.058-0.692,2.126-1.408,3.211-2.149
		c0.508,0.509,1.015,1.016,1.518,1.521c2.244,2.247,4.485,4.49,6.729,6.729c4.003,3.993,8,7.992,11.997,11.99l4.467,4.469
		c5.488,5.488,10.977,10.979,16.463,16.471c3.02,3.021,6.039,6.046,9.078,9.091l7.478,7.489l9.511,9.523l9.859-9.164
		c2.32-2.155,4.453-4.301,6.517-6.376c1.482-1.491,2.882-2.898,4.294-4.255c4.189-4.025,7.387-7.258,10.373-10.484l9.111-9.848
		l-9.484-9.489l-24.679-24.694l-31.646-31.667c2.881-4.126,5.25-8.307,7.173-12.646c1.327-2.992,2.958-7.02,3.809-11.645
		c0.107-0.581,0.217-1.166,0.326-1.751c0.294-1.58,0.599-3.214,0.886-4.867c0.187-1.078,0.317-2.08,0.432-2.963
		c0.039-0.292,0.077-0.586,0.117-0.878l0.184-1.337c0.188-1.37,0.378-2.741,0.556-4.112c0.151-1.15,0.293-2.307,0.436-3.464
		c0.08-0.653,0.16-1.305,0.241-1.958l0.255-2c0.16-1.263,0.32-2.525,0.477-3.789c0.1-0.799,0.147-1.514,0.183-2.035l0.007-0.104
		c0.022-0.332,0.038-0.664,0.052-0.996c0.003-0.05,0.005-0.1,0.007-0.15c0.076-0.652,0.159-1.311,0.242-1.969
		c0.172-1.364,0.349-2.775,0.492-4.269c0.157-1.645,0.267-3.227,0.373-4.755c0.034-0.495,0.068-0.99,0.104-1.484
		c0.03-0.197,0.062-0.419,0.091-0.662l0.002-0.014l0.002-0.015c0.104-0.914,0.207-1.829,0.301-2.743
		c0.09-0.891,0.173-1.781,0.254-2.67l0.006-0.064l0.022-0.247c0.05-0.55,0.107-1.173,0.154-1.829
		c0.12-1.697,0.238-3.387,0.355-5.076l0.103-1.466c0.374-1.981,0.46-3.805,0.473-5.395c0.002-0.017,0.004-0.034,0.006-0.051
		c0.044-0.356,0.087-0.714,0.12-1.071l0.033-0.339c0.063-0.656,0.136-1.4,0.191-2.195c0.125-1.764,0.246-3.535,0.368-5.307
		l0.2-2.898c0.029-0.224,0.062-0.504,0.088-0.825l0,0c0.11-1.35,0.22-2.699,0.321-4.049l0,0c0.049-0.618,0.09-1.236,0.129-1.853
		l0.047-0.694l0.059-0.874c0.063-0.942,0.127-1.884,0.184-2.826c0.021-0.352,0.029-0.671,0.034-0.941
		c0.296-1.835,0.342-3.433,0.377-4.658c0.012-0.413,0.025-0.882,0.045-1.082c0.294-3.024,0.434-5.941,0.526-8.457
		c0.021-0.178,0.041-0.379,0.059-0.596c0.019-0.233,0.039-0.478,0.06-0.723c0.066-0.794,0.142-1.694,0.191-2.655
		c0.108-2.095,0.21-4.193,0.312-6.292c0.059-1.202,0.115-2.405,0.176-3.607c0.031-0.229,0.064-0.511,0.092-0.826
		c0.024-0.284,0.047-0.546,0.071-0.807c0.077-0.86,0.166-1.835,0.218-2.895c0.066-1.346,0.119-2.671,0.17-3.954
		c0.101-2.541,0.195-4.94,0.378-7.269c0.207-2.658,0.308-4.896,0.315-7.046v-0.339c0-0.018,0-0.035,0-0.053
		c0.469-3.198,0.458-6.115,0.446-8.491c0.447-3.272,0.492-6.328,0.478-8.655c0.004-0.152,0.036-0.555,0.06-0.851
		c0.037-0.466,0.079-0.995,0.108-1.595c0.04-0.794,0.072-1.586,0.105-2.378c0.031-0.742,0.061-1.483,0.099-2.225
		c0.091-1.796,0.193-3.624,0.294-5.404c0.539-0.556,1.07-1.107,1.594-1.651l0.805-0.836c1.319-1.368,2.639-2.738,3.955-4.109
		c1.783-1.854,3.566-3.709,5.355-5.558c0.877-0.907,1.756-1.798,2.687-2.742c1.058-1.071,2.149-2.18,3.241-3.313
		c2.748-2.857,5.492-5.717,8.236-8.577c3.183-3.318,6.365-6.637,9.556-9.948c1.272-1.321,2.547-2.616,3.896-3.986
		c1.294-1.314,2.631-2.673,3.958-4.048c4.197-4.354,8.388-8.713,12.578-13.072c2.722-2.832,5.445-5.664,8.169-8.495
		c1.511-1.569,3.024-3.138,4.538-4.707c2.02-2.094,4.039-4.188,6.056-6.285l0.016-0.017l0.017-0.017
		c1.671-1.751,2.508-3.529,2.849-4.315l14.044-28.562l-30.715,9.284l-0.152,0.042c-0.506,0.14-1.354,0.375-2.379,0.8
		c-4.463,1.853-9.075,3.767-13.725,5.718c-2.294,0.962-4.585,1.931-6.875,2.9c-2.747,1.161-5.493,2.322-8.244,3.473
		c-1.643,0.687-3.346,1.382-4.995,2.055c-1.693,0.691-3.444,1.405-5.189,2.135c-2.601,1.089-5.198,2.183-7.796,3.277
		c-3.733,1.573-7.595,3.2-11.384,4.772c-2.77,1.149-5.224,2.773-7.293,4.828c-4.764,4.729-9.632,9.529-14.339,14.172l-3.193,3.151
		l-1.622,1.603c-1.649,1.63-3.354,3.315-5.022,4.934c-2.201,2.137-4.465,4.31-6.654,6.412l-0.498,0.478h-218.168
		c-1.568-1.571-3.136-3.142-4.703-4.713c-2.251-2.257-4.502-4.514-6.755-6.768c-7.474-7.481-13.567-13.575-19.178-19.175
		c-0.757-0.755-1.993-1.989-3.762-3.138c-2.602-1.693-5.187-3.317-7.146-4.542c-2.934-1.833-5.869-3.662-8.805-5.491
		c-3.642-2.269-7.284-4.539-10.922-6.815c-2.719-1.702-5.431-3.413-8.144-5.125c-1.855-1.172-3.713-2.344-5.571-3.512
		c-1.331-0.834-2.458-1.258-3.001-1.461c-0.029-0.011-0.065-0.023-0.11-0.042L1820.77,174.517L1820.77,174.517z M1930.943,287.977
		h88.216l129.046,0c-0.034,0.747-0.041,1.42-0.046,2.01c-0.004,0.403-0.007,0.785-0.02,1.022c-0.054,1-0.126,2.025-0.202,3.111
		c-0.051,0.715-0.102,1.429-0.147,2.144l-0.024,0.37c-0.063,0.937-0.135,1.999-0.145,3.206l-0.004,0.453
		c-0.01,1.525-0.02,2.966-0.178,3.872c-0.312,1.805-0.288,3.318-0.275,4.131c0.001,0.049,0.002,0.099,0.003,0.149
		c-0.057,1.137-0.12,2.292-0.184,3.447c-0.047,0.852-0.093,1.704-0.138,2.556l-0.004,0.073c-0.034,0.671-0.077,1.507-0.079,2.436
		l0.001,0.42c0.001,1.338,0.002,2.722-0.133,3.439c-0.347,1.855-0.319,3.391-0.305,4.217l0.003,0.18v0.125
		c0.002,1.285,0.003,2.613-0.12,3.27c-0.346,1.818-0.328,3.362-0.317,4.192l0.001,0.192l0.001,0.333
		c0.001,0.993,0.002,2.229-0.086,2.697c-0.331,1.762-0.321,3.226-0.315,4.015v0.16v0.414c0,1.004,0,2.253-0.09,2.716
		c-0.344,1.754-0.338,3.203-0.335,3.982v0.031c-0.073,1.144-0.153,2.287-0.232,3.43l-0.044,0.623
		c-0.039,0.313-0.075,0.687-0.097,1.11c-0.05,1.002-0.097,2.005-0.143,3.008c-0.097,2.081-0.187,4.047-0.312,6.007
		c-0.144,2.247-0.322,4.484-0.513,6.853c-0.078,0.984-0.156,1.968-0.232,2.952c-0.018,0.219-0.035,0.434-0.053,0.649
		c-0.035,0.417-0.069,0.833-0.099,1.25c-0.078,1.104-0.152,2.214-0.227,3.324l-0.074,1.11l-0.03,0.437
		c-0.034,0.482-0.066,0.964-0.089,1.447c-0.017,0.366-0.021,0.685-0.019,0.941c-0.184,1.953-0.37,3.905-0.557,5.858l-0.24,2.509
		l-0.012,0.105c-0.054,0.485-0.153,1.389-0.147,2.487c0.004,1.216-0.04,1.633-0.066,1.771c-0.339,1.669-0.347,3.089-0.339,3.853
		c-0.029,0.33-0.064,0.687-0.104,1.061c-0.101,0.511-0.192,1.114-0.243,1.799c-0.095,1.264-0.186,2.528-0.276,3.792
		c-0.072,0.996-0.145,1.992-0.218,2.987c-0.035,0.478-0.08,0.957-0.126,1.437l-0.027,0.304l-0.035,0.374
		c-0.058,0.631-0.116,1.262-0.18,1.892c-0.059,0.57-0.118,1.14-0.181,1.711c-0.1,0.498-0.192,1.089-0.246,1.761
		c-0.059,0.724-0.114,1.468-0.17,2.211c-0.093,1.242-0.18,2.415-0.287,3.546c-0.158,1.649-0.36,3.33-0.575,5.109l-0.063,0.523
		c-0.094,0.781-0.199,1.567-0.304,2.353c-0.104,0.789-0.21,1.579-0.307,2.369c-0.115,0.932-0.227,1.875-0.338,2.817
		c-0.121,1.034-0.243,2.068-0.374,3.101c-0.042,0.328-0.083,0.661-0.124,0.993c-0.148,1.197-0.288,2.328-0.46,3.313
		c-0.226,1.29-0.399,2.502-0.568,3.674c-0.245,1.704-0.476,3.314-0.797,4.609c-0.373,1.503-1.007,3.096-1.937,4.868
		c-1.456,2.772-3.433,5.638-6.041,8.76c-2.17,2.597-4.734,5.267-8.314,8.656c-4.77,4.515-10.229,8.899-17.698,14.218
		c-4.03,2.869-8.327,5.717-12.771,8.464c-6.287,3.886-12.916,7.675-20.267,11.583c-6.777,3.605-13.732,7.062-20.673,10.28
		c-2.689,1.246-5.479,2.491-8.2,3.702l-0.255-0.114c-5.654-2.536-10.996-4.932-16.297-7.529c-7.833-3.839-14.876-7.56-21.533-11.376
		c-5.714-3.276-10.291-6.021-14.404-8.639c-7.083-4.508-13.746-9.26-19.804-14.124c-3.52-2.827-6.81-5.767-9.777-8.737
		c-3.358-3.362-7.172-7.401-10.002-11.88c-1.945-3.081-3.033-5.264-3.636-7.299c-0.563-1.897-0.862-4.123-1.061-5.851
		c-0.117-1.017-0.262-1.926-0.39-2.728c-0.048-0.299-0.096-0.598-0.141-0.897c-0.12-0.811-0.242-1.618-0.364-2.426
		c-0.31-2.038-0.601-3.964-0.858-5.89c-0.109-0.812-0.195-1.738-0.287-2.719c-0.069-0.744-0.141-1.513-0.229-2.325
		c-0.127-1.148-0.263-2.296-0.399-3.443c-0.094-0.793-0.188-1.586-0.279-2.379c-0.019-0.165-0.028-0.328-0.04-0.492
		c-0.031-0.382-0.062-0.765-0.102-1.147c-0.091-0.877-0.191-1.678-0.277-2.348c-0.034-0.264-0.072-0.507-0.109-0.718
		c-0.053-0.743-0.104-1.485-0.156-2.229c-0.086-1.224-0.17-2.448-0.261-3.671c-0.062-0.828-0.157-1.506-0.228-2.001
		c-0.015-0.104-0.029-0.207-0.042-0.311c-0.028-0.225-0.059-0.447-0.088-0.669c-0.036-0.271-0.074-0.542-0.103-0.815
		c-0.071-0.679-0.136-1.36-0.201-2.04c-0.04-0.419-0.08-0.839-0.121-1.258c-0.016-0.156-0.033-0.303-0.05-0.44
		c-0.035-0.581-0.069-1.169-0.103-1.757c-0.1-1.725-0.201-3.508-0.347-5.335c-0.156-1.958-0.353-3.864-0.542-5.707
		c-0.066-0.646-0.132-1.292-0.196-1.938c-0.04-0.398-0.088-0.792-0.137-1.186c-0.022-0.175-0.053-0.416-0.06-0.499
		c-0.127-1.664-0.236-3.338-0.317-4.609c-0.101-1.589-0.198-3.174-0.298-4.759c-0.088-1.413-0.176-2.826-0.265-4.239
		c-0.032-0.507-0.076-0.958-0.108-1.287c-0.011-0.108-0.022-0.216-0.031-0.324c-0.075-0.941-0.147-1.862-0.22-2.783l-0.095-1.209
		l-0.059-0.738c-0.057-0.725-0.113-1.45-0.176-2.175l-0.002-0.017l-0.001-0.017c-0.037-0.405-0.083-0.759-0.124-1.035
		c-0.061-1.163-0.119-2.326-0.178-3.489c-0.091-1.799-0.182-3.597-0.279-5.395c-0.057-1.033-0.142-2.007-0.217-2.868l-0.062-0.731
		c-0.028-0.343-0.065-0.646-0.098-0.889c-0.061-1.195-0.121-2.393-0.18-3.59c-0.101-2.032-0.201-4.063-0.308-6.094
		c-0.052-0.968-0.125-1.895-0.19-2.712c-0.021-0.268-0.043-0.537-0.062-0.805c-0.023-0.318-0.054-0.593-0.08-0.807
		c-0.061-1.357-0.12-2.715-0.18-4.074c-0.104-2.377-0.21-4.755-0.32-7.132c-0.041-0.882-0.107-1.682-0.165-2.387
		c-0.025-0.312-0.052-0.625-0.073-0.938l-0.039-0.558c-0.065-0.92-0.127-1.79-0.173-2.632c-0.085-1.545-0.171-3.228-0.269-5.299
		c-0.097-2.064-0.192-4.126-0.289-6.188c-0.117-2.549-0.236-5.098-0.357-7.646c-0.057-1.159-0.129-2.363-0.236-3.909
		c-0.043-0.616-0.107-1.145-0.15-1.495c-0.004-0.034-0.008-0.067-0.012-0.101C1931.078,291.645,1931.01,289.811,1930.943,287.977
		L1930.943,287.977z"/>
	<path fill="#FFFFFF" d="M1968.158,452.159c49.316,0.009,98.632,0.025,147.949,0.052c0.178,0,0.356,0.151,0.568,0.247
		c0.055,0.258,0.154,0.517,0.154,0.774c0.012,7.293,0.015,14.587,0.01,21.882c0,0.325-0.091,0.65-0.152,1.064
		c-0.403,0.067-0.78,0.163-1.162,0.185c-0.229,0.014-0.458,0.018-0.688,0.018c-0.307,0-0.613-0.007-0.919-0.007
		c-12.144,0-24.296,0-36.44,0c-35.835,0-71.663,0-107.499-0.005c-0.401,0-0.806,0.025-1.214,0.025c-0.464,0-0.932-0.033-1.406-0.17
		c-0.072-0.344-0.199-0.666-0.2-0.987c-0.007-7.36-0.001-14.722,0.013-22.081c0.001-0.251,0.12-0.503,0.195-0.799
		C1967.658,452.28,1967.908,452.159,1968.158,452.159 M1968.16,438.208L1968.16,438.208h-0.002c-1.993,0-3.563,0.397-4.627,0.732
		l-7.65,2.013l-1.961,7.677c-0.322,1.053-0.695,2.574-0.699,4.496c-0.016,7.627-0.02,15.07-0.013,22.124
		c0.002,1.728,0.287,3.085,0.552,4.095l1.672,7.95l8.049,2.331c1.673,0.484,3.401,0.72,5.285,0.72c0.35,0,0.697-0.009,1.045-0.02
		c0.065-0.002,0.132-0.005,0.197-0.006c35.826,0.005,71.644,0.005,107.471,0.005h18.221h18.22c0.102,0,0.202,0.001,0.303,0.002
		c0.206,0.002,0.411,0.004,0.616,0.004c0.541,0,1.033-0.014,1.508-0.042c1.188-0.072,2.111-0.25,2.606-0.345l0.079-0.015l9.956-1.66
		l1.481-9.922v-0.002c0.105-0.56,0.322-1.727,0.322-3.233c0.005-7.35,0.002-14.723-0.01-21.904c0-1.634-0.273-2.964-0.505-3.872
		l-1.401-6.694l-6.085-2.734c-2.128-1.096-4.372-1.649-6.683-1.649C2071.168,438.235,2022.772,438.218,1968.16,438.208
		L1968.16,438.208z"/>
	<path fill="#FFFFFF" d="M2114.947,415.524c0.4,0,0.802,0.016,1.201,0.049c0.123,0.009,0.24,0.094,0.493,0.202
		c0.302,1.812,0.294,22.064-0.017,23.81c-0.342,0.066-0.719,0.181-1.1,0.205c-0.272,0.017-0.546,0.021-0.82,0.021
		c-0.328,0-0.657-0.006-0.986-0.006c-47.855,0-95.71,0-143.564,0c-0.865,0-1.729,0-2.439,0c-0.69-0.599-0.564-1.235-0.569-1.816
		c-0.018-2.276-0.009-4.551-0.009-6.827c0-4.417-0.004-8.835,0.004-13.252c0.001-0.724-0.099-1.469,0.198-2.068
		c0.145-0.115,0.19-0.163,0.246-0.193c0.058-0.033,0.124-0.068,0.188-0.068C2016.831,415.559,2065.889,415.54,2114.947,415.524
		 M2114.947,401.573h-0.003h-0.002c-49.059,0.016-98.117,0.034-147.176,0.056c-2.452,0-4.806,0.62-6.99,1.842
		c-1.004,0.561-1.726,1.121-2.197,1.512l-2.366,1.886l-1.379,2.786c-1.77,3.578-1.684,6.805-1.647,8.184l0.003,0.104
		c-0.006,3.264-0.006,6.531-0.004,9.799v3.419l-0.001,1.72c-0.002,1.66-0.004,3.375,0.009,5.094
		c-0.121,6.261,2.857,10.182,5.381,12.37l3.935,3.412h5.206h2.439h143.564c0.118,0,0.236,0.001,0.354,0.002
		c0.211,0.002,0.421,0.004,0.632,0.004c0.612,0,1.143-0.015,1.67-0.047c1.413-0.087,2.51-0.338,3.048-0.461l9.261-1.806l1.677-9.418
		c0.188-1.061,0.447-2.514,0.454-14.317c0.007-11.726-0.245-13.235-0.412-14.233l-1.257-7.533l-6.802-2.906
		c-0.798-0.381-2.622-1.181-5.102-1.375C2116.482,401.604,2115.711,401.573,2114.947,401.573L2114.947,401.573z"/>
	<path fill="#FFFFFF" d="M1981.608,297.75c2.565,0,5.131,0.013,7.696,0.055c6.592,0.107,12.653,2.086,17.875,6.122
		c4.512,3.487,7.504,8.116,8.982,13.663c0.834,3.126,1.146,6.336,0.819,9.533c-0.802,7.817-4.145,14.266-10.599,18.984
		c-3.806,2.783-8.027,4.378-12.661,5.122c-1.735,0.278-3.448,0.375-5.185,0.376c-2.703,0.002-5.407,0.003-8.11,0.003
		c-3.455,0-6.91-0.002-10.365-0.006c-0.726,0-1.452-0.05-2.338-0.082c-0.083-0.665-0.176-1.056-0.176-1.448
		c0.014-17.202,0.034-34.404,0.064-51.606c0-0.186,0.137-0.37,0.26-0.683c0.562,0,1.157,0,1.753,0
		C1973.619,297.781,1977.614,297.75,1981.608,297.75 M1986.541,308.466c-1.317,0-2.634-0.003-3.951-0.003
		c-0.408,0-0.816,0-1.225,0.001c-0.658,0.001-1.316,0.025-1.879,0.038c-0.545,0.813-0.403,1.57-0.406,2.291
		c-0.016,3.543-0.007,7.085-0.007,10.629c0,5.749-0.007,11.497,0.009,17.246c0.002,0.784-0.166,1.612,0.399,2.404
		c0.33,0.051,0.718,0.163,1.106,0.165c1.418,0.007,2.835,0.016,4.252,0.016c1.257,0,2.514-0.007,3.769-0.028
		c1.198-0.021,2.423-0.062,3.587-0.316c2.635-0.577,5.04-1.724,7.178-3.382c0.574-0.447,1.115-0.967,1.568-1.535
		c2.491-3.118,3.962-6.617,3.84-10.68c-0.054-1.796,0.006-3.595-0.53-5.354c-1.149-3.774-3.193-6.891-6.551-9.044
		c-2.502-1.605-5.242-2.454-8.229-2.454c-0.028,0-0.057,0-0.084,0C1988.438,308.464,1987.49,308.466,1986.541,308.466
		 M1981.608,283.798c-2.016,0-4.03,0.008-6.046,0.016c-1.979,0.008-3.959,0.016-5.938,0.016h-1.753h-9.486l-3.359,8.499
		c-0.462,0.996-1.366,3.194-1.366,6.136c-0.028,16.457-0.05,33.342-0.063,51.596c-0.002,1.312,0.16,2.374,0.247,2.944
		c0.011,0.07,0.023,0.148,0.035,0.24l1.469,11.782l11.864,0.435c0.249,0.009,0.482,0.02,0.706,0.03
		c0.627,0.028,1.338,0.062,2.144,0.062c3.445,0.004,6.905,0.005,10.365,0.005c2.706,0,5.413-0.001,8.119-0.003
		c2.672-0.002,5.087-0.183,7.388-0.553c7.007-1.124,13.294-3.693,18.685-7.635c9.396-6.87,15.014-16.837,16.241-28.823
		c0.491-4.787,0.082-9.683-1.217-14.55c-2.271-8.52-7.09-15.818-13.931-21.106c-7.442-5.751-16.495-8.875-26.179-9.033
		C1987.172,283.816,1984.653,283.798,1981.608,283.798L1981.608,283.798z"/>
	<path fill="#FFFFFF" d="M2041.849,297.062c0.007,0,0.014,0,0.021,0c6.936,0.021,13.283,1.932,18.938,6.007
		c0.322,0.233,0.645,0.466,1.028,0.743c-2.055,3.007-3.97,5.81-5.906,8.643c-0.837-0.159-1.41-0.617-2.02-0.989
		c-2.058-1.253-4.177-2.355-6.479-3.125c-1.83-0.613-3.68-0.88-5.549-0.88c-0.908,0-1.822,0.063-2.739,0.181
		c-0.988,0.126-1.892,0.59-2.723,1.187c-2.329,1.676-2.165,5.361-0.366,6.884c0.996,0.841,2.107,1.402,3.33,1.769
		c2.355,0.706,4.72,1.383,7.081,2.073c2.948,0.861,5.86,1.81,8.676,3.063c2.322,1.034,4.199,2.604,5.801,4.514
		c1.31,1.56,2.092,3.39,2.325,5.438c0.105,0.928,0.369,1.849,0.369,2.772c0.004,4.433-1.24,8.431-4.32,11.731
		c-0.453,0.484-0.982,0.906-1.517,1.301c-2.741,2.031-5.836,3.112-9.193,3.704c-1.998,0.352-3.972,0.455-5.975,0.458
		c-0.159,0-0.319,0.009-0.479,0.009c-0.108,0-0.217-0.004-0.323-0.018c-5.325-0.691-10.528-1.807-15.22-4.587
		c-1.033-0.612-2.018-1.308-2.989-2.014c-0.806-0.586-1.56-1.243-2.432-1.945c2.167-2.785,4.441-5.383,6.749-8.17
		c1.517,0.995,2.821,1.919,4.191,2.732c2.183,1.294,4.4,2.51,6.918,3.093c1.699,0.394,3.394,0.683,5.095,0.683
		c1.133,0,2.269-0.128,3.413-0.438c2.115-0.574,3.791-1.613,4.421-3.891c0.467-1.684-0.132-3.589-1.592-4.608
		c-1.546-1.081-3.255-1.851-5.064-2.363c-3.009-0.853-6.036-1.642-9.045-2.494c-2.712-0.769-5.26-1.89-7.602-3.495
		c-3.333-2.284-4.993-5.479-5.306-9.432c-0.095-1.195-0.106-2.407-0.053-3.606c0.212-4.811,2.466-8.54,6.277-11.338
		c2.746-2.014,5.853-3.144,9.286-3.316C2039.87,297.287,2040.858,297.062,2041.849,297.062 M2041.849,283.111
		c-1.44,0-2.638,0.152-3.431,0.253c-0.116,0.015-0.233,0.031-0.35,0.044c-6.125,0.328-11.753,2.345-16.729,5.996
		c-7.433,5.456-11.568,13.053-11.963,21.97c-0.081,1.826-0.052,3.618,0.083,5.327c0.402,5.086,2.092,9.72,4.895,13.594
		c-1.372,1.632-2.777,3.32-4.176,5.117l-8.426,10.828l10.686,8.606c0.232,0.187,0.453,0.37,0.671,0.548
		c0.661,0.544,1.41,1.162,2.3,1.81c1.227,0.891,2.562,1.833,4.089,2.738c7.19,4.262,14.752,5.67,20.536,6.42
		c0.682,0.089,1.382,0.134,2.119,0.134c0.205,0,0.41-0.004,0.616-0.01c3.093-0.01,5.721-0.223,8.256-0.669
		c5.887-1.037,10.819-3.077,15.082-6.235c0.844-0.624,2.131-1.624,3.4-2.981c5.297-5.674,8.089-13.026,8.082-21.271
		c-0.001-1.801-0.265-3.278-0.422-4.162c-0.016-0.091-0.032-0.182-0.048-0.273c-0.557-4.716-2.453-9.115-5.487-12.732
		c-0.498-0.593-1.01-1.163-1.536-1.71l3.258-4.769l7.676-11.23l-11.031-7.958l-0.503-0.363l-0.529-0.382
		c-7.906-5.698-16.997-8.605-27.024-8.641h-0.031H2041.849L2041.849,283.111z"/>
	<path fill="#FFFFFF" d="M2096.919,296.918c0.683,0,1.365,0.019,2.046,0.052c6.968,0.342,13.157,2.667,18.243,7.584
		c0.14,0.134,0.221,0.327,0.454,0.683c-2.211,2.983-4.748,5.55-7.136,8.38c-0.406-0.272-0.796-0.497-1.144-0.776
		c-1.51-1.222-3.065-2.372-4.803-3.259c-1.551-0.793-3.144-1.423-4.909-1.564c-0.839-0.066-1.669-0.384-2.498-0.384
		c-0.022,0-0.044,0-0.066,0c-4.509,0.092-8.513,1.423-11.634,4.884c-2.493,2.764-3.936,5.938-4.428,9.659
		c-0.698,5.267,0.572,9.943,3.771,14.103c1.973,2.565,4.638,4.217,7.726,5.108c1.413,0.408,2.834,0.592,4.255,0.592
		c1.684,0,3.367-0.259,5.036-0.707c0.956-0.257,1.906-0.658,2.754-1.168c1.543-0.928,3.01-1.981,4.501-2.994
		c0.602-0.409,1.184-0.847,1.852-1.328c2.573,2.308,4.888,4.774,7.331,7.292c-0.934,0.924-1.708,1.737-2.532,2.498
		c-3.729,3.441-8.099,5.517-13.092,6.495c-1.98,0.388-3.957,0.494-5.933,0.494c-1.217,0-2.434-0.04-3.65-0.08
		c-1.577-0.052-3.162-0.511-4.701-0.938c-5.448-1.513-9.984-4.528-13.551-8.861c-3.016-3.667-4.818-7.942-5.702-12.646
		c-0.527-2.805-0.519-5.609-0.312-8.384c0.225-2.992,1.117-5.887,2.376-8.649c1.314-2.887,3.037-5.494,5.213-7.79
		c2.328-2.456,5.116-4.293,8.16-5.731c2.416-1.142,4.965-1.798,7.626-2.214C2093.761,297.019,2095.342,296.919,2096.919,296.918
		 M2096.919,282.967c-2.427,0-4.686,0.169-6.907,0.518c-4.292,0.672-8.031,1.778-11.427,3.384
		c-4.919,2.325-8.949,5.187-12.325,8.748c-3.193,3.368-5.812,7.273-7.784,11.606c-2.054,4.506-3.263,9.012-3.591,13.387
		c-0.339,4.529-0.176,8.343,0.512,12.004c1.363,7.25,4.27,13.62,8.64,18.932c5.468,6.643,12.395,11.164,20.592,13.441l0.198,0.055
		c1.942,0.541,4.602,1.281,7.782,1.385l0.04,0.001c1.295,0.042,2.634,0.086,4.064,0.086c3.249,0,5.985-0.24,8.613-0.754
		c7.676-1.504,14.361-4.846,19.873-9.935c0.785-0.725,1.464-1.407,2.119-2.067c0.247-0.249,0.502-0.506,0.771-0.773l9.807-9.718
		l-9.614-9.908c-0.385-0.396-0.766-0.791-1.145-1.184c-2.139-2.215-4.35-4.506-6.883-6.777l-0.803-0.72l1.736-2.062
		c0.725-0.858,1.502-1.73,2.326-2.654c1.666-1.868,3.554-3.985,5.356-6.417l5.794-7.818l-5.267-8.037
		c-0.317-0.529-1.114-1.833-2.486-3.162c-7.347-7.102-16.517-10.966-27.263-11.493C2098.719,282.99,2097.8,282.967,2096.919,282.967
		L2096.919,282.967z M2095.911,321.783c0.046-0.019,0.223-0.083,0.59-0.135c0.413,0.077,0.901,0.156,1.449,0.219
		c0.072,0.034,0.163,0.078,0.275,0.136c0.729,0.372,1.708,1.14,2.382,1.685c0.631,0.509,1.196,0.898,1.623,1.178
		c-0.038,0.028-0.076,0.056-0.114,0.083c-0.35,0.255-0.651,0.475-0.88,0.63c-0.379,0.257-0.77,0.526-1.16,0.795
		c-0.811,0.557-1.582,1.089-2.277,1.527c-0.475,0.104-0.801,0.128-1.003,0.128c-0.208,0-0.319-0.025-0.385-0.044
		c-0.341-0.099-0.499-0.189-0.542-0.216c-0.951-1.242-1.201-2.19-0.993-3.757c0.142-1.072,0.445-1.582,0.958-2.149
		C2095.872,321.819,2095.898,321.795,2095.911,321.783L2095.911,321.783z"/>
	<path fill="#FFFFFF" d="M2094.328,366.054c0.346,0.966,0.57,1.558,0.771,2.158c1.302,3.923,2.624,7.84,3.874,11.78
		c0.246,0.774,0.636,1.128,1.397,1.147c0.535,0.013,1.071,0.019,1.606,0.019c0.455,0,0.911,0,1.366,0
		c1.327,0,2.652-0.001,3.979-0.001c1.7,0,3.398,0.001,5.098,0.008c0.008,0,0.014,0,0.021,0c0.245,0,0.495-0.018,0.753-0.018
		c0.412,0,0.844,0.045,1.313,0.282c-0.218,0.261-0.339,0.481-0.524,0.617c-3.342,2.447-6.689,4.883-10.037,7.321
		c-0.162,0.119-0.324,0.237-0.482,0.36c-1.014,0.778-1.03,0.784-0.646,2c0.964,3.051,1.941,6.096,2.918,9.143
		c0.461,1.444,0.929,2.887,1.47,4.567c-1.78-0.812-3.031-2.015-4.427-2.988c-1.371-0.957-2.705-1.963-4.056-2.947
		c-1.401-1.02-2.804-2.039-4.283-3.115c-2.325,1.357-4.277,3.099-6.428,4.547c-2.082,1.401-4.026,3.003-6.482,4.706
		c0.279-0.973,0.403-1.47,0.563-1.956c1.203-3.672,2.416-7.342,3.623-11.013c0.062-0.19,0.088-0.393,0.157-0.581
		c0.667-1.848,0.118-1.83-0.951-2.606c-3.298-2.397-6.586-4.812-9.875-7.222c-0.267-0.195-0.518-0.413-0.774-0.619
		c0.017-0.127,0.035-0.253,0.053-0.38c0.574-0.035,1.148-0.101,1.724-0.103c1.612-0.004,3.226-0.005,4.839-0.005
		c0.411,0,0.822,0,1.233,0c1.658,0,3.316,0,4.975-0.005c0.728-0.002,1.452-0.065,2.224-0.101
		C2091.184,376.185,2092.506,371.246,2094.328,366.054 M2094.194,324.301l-13.03,37.133c-0.703,2.001-1.32,3.917-1.91,5.774
		c-1.082,0-2.164,0.002-3.245,0.005c-0.919,0.002-1.706,0.064-2.229,0.105c-0.106,0.008-0.213,0.018-0.319,0.024l-11.364,0.704
		l-1.588,11.275l-0.011,0.079c-0.021,0.14-0.04,0.281-0.059,0.422l-1.029,7.8l6.143,4.917l0.11,0.09
		c0.259,0.213,0.651,0.535,1.15,0.9l1.618,1.186c0.514,0.376,1.03,0.755,1.549,1.136c-0.383,1.163-0.766,2.327-1.146,3.491
		c-0.197,0.598-0.346,1.134-0.49,1.652c-0.062,0.223-0.135,0.481-0.226,0.797l-10.797,37.602l32.153-22.284
		c1.396-0.967,2.613-1.878,3.687-2.682c0.408-0.306,0.794-0.595,1.162-0.866c0.156,0.11,0.314,0.222,0.474,0.333
		c0.145,0.101,0.425,0.317,0.696,0.526c1.28,0.987,3.216,2.478,5.92,3.711l28.769,13.127l-9.698-30.099l-0.446-1.383
		c-0.356-1.106-0.686-2.127-1.013-3.149l-0.256-0.799c1.153-0.841,2.305-1.683,3.457-2.526c1.526-1.118,2.521-2.294,3.153-3.126
		l11.076-13.298l-15.663-7.904c-2.339-1.181-4.895-1.779-7.599-1.779c-0.293,0-0.58,0.007-0.865,0.017
		c-0.953-0.003-1.907-0.005-2.86-0.006c-0.094-0.281-0.187-0.562-0.28-0.841c-0.283-0.85-0.565-1.7-0.848-2.55
		c-0.194-0.583-0.382-1.099-0.58-1.644c-0.088-0.242-0.186-0.511-0.297-0.822L2094.194,324.301L2094.194,324.301z"/>
	<path fill="#FFFFFF" d="M1986.688,366.078c0.347,0.938,0.544,1.428,0.71,1.928c1.305,3.921,2.604,7.843,3.904,11.766
		c0.4,1.208,0.539,1.338,1.841,1.374c0.535,0.014,1.069,0.018,1.604,0.018c0.639,0,1.277-0.005,1.916-0.005c0.031,0,0.062,0,0.094,0
		c0.185,0,0.369,0,0.554,0c1.246,0,2.493-0.001,3.739-0.001c1.38,0,2.76,0.001,4.139,0.008c0.506,0.003,1.01,0.088,1.777,0.16
		c-1.273,1.454-2.732,2.244-4.026,3.227c-1.328,1.009-2.713,1.944-4.042,2.953c-1.318,1.002-2.766,1.846-4.004,3.097
		c0.578,2.48,1.527,4.827,2.229,7.245c0.697,2.408,1.609,4.753,2.323,7.507c-0.732-0.412-1.203-0.618-1.608-0.914
		c-3.29-2.405-6.564-4.831-9.854-7.238c-0.369-0.271-0.792-0.473-1.252-0.742c-2.215,1.294-4.129,2.965-6.208,4.399
		c-2.024,1.397-3.986,2.886-5.948,4.315c-0.562-0.374-0.347-0.771-0.235-1.113c1.226-3.808,2.463-7.609,3.698-11.413
		c0.146-0.444,0.329-0.879,0.438-1.331c0.135-0.562-0.011-1.009-0.531-1.38c-2.177-1.552-4.329-3.14-6.487-4.719
		c-1.615-1.182-3.224-2.371-4.802-3.531c0.11-0.457,0.357-0.534,0.612-0.534c0.13,0,0.262,0.02,0.38,0.02c0.001,0,0.002,0,0.004,0
		c3.948-0.017,7.896-0.008,11.844-0.018c0.723-0.002,1.445-0.06,2.201-0.093C1983.516,376.216,1984.877,371.348,1986.688,366.078
		 M1986.205,324.532l-12.713,37.014c-0.676,1.969-1.282,3.846-1.862,5.665c-1.202,0.002-2.404,0.004-3.606,0.009
		c-0.223-0.011-0.475-0.019-0.756-0.019c-6.755,0-12.584,4.613-14.176,11.218l-2.172,9.015l7.471,5.493l1.578,1.162
		c0.785,0.578,1.574,1.16,2.367,1.741c-0.415,1.281-0.829,2.562-1.242,3.844c-2.211,6.496,0.097,13.36,5.764,17.123l8.086,5.368
		l7.845-5.713c0.619-0.451,1.238-0.908,1.859-1.366c0.704-0.519,1.387-1.023,2.056-1.508c0.966,0.71,1.932,1.418,2.898,2.125
		c1.072,0.784,2.003,1.277,2.618,1.604c0.11,0.059,0.234,0.123,0.376,0.203l28.586,16.105l-8.231-31.76
		c-0.534-2.057-1.118-3.83-1.636-5.394c-0.066-0.203-0.133-0.404-0.197-0.601c0.086-0.064,0.172-0.129,0.259-0.195
		c0.118-0.09,0.387-0.276,0.623-0.44c1.357-0.941,3.409-2.363,5.462-4.707l17.983-20.538l-27.179-2.544
		c-0.165-0.016-0.31-0.033-0.441-0.048c-0.591-0.066-1.483-0.167-2.564-0.173c-1.143-0.006-2.285-0.008-3.426-0.009
		c-0.399-1.201-0.799-2.403-1.198-3.604c-0.191-0.577-0.377-1.067-0.572-1.586c-0.083-0.219-0.178-0.47-0.29-0.774L1986.205,324.532
		L1986.205,324.532z"/>
	<path fill="#FFFFFF" d="M2040.359,366.827c0.584,0.009,0.609,0.39,0.704,0.683c1.128,3.484,2.24,6.973,3.374,10.456
		c0.327,1.003,0.715,1.987,1.022,2.836c0.545,0.311,1.044,0.368,1.518,0.368c0.275,0,0.542-0.02,0.805-0.02c0.007,0,0.013,0,0.02,0
		c1.689,0.008,3.38,0.01,5.07,0.01c0.952,0,1.905-0.001,2.858-0.001c0.902,0,1.803,0.001,2.705,0.002
		c0.66,0.001,1.32,0.037,1.945,0.057c0.198,0.626-0.236,0.822-0.527,1.038c-3.277,2.418-6.562,4.828-9.857,7.22
		c-1.409,1.021-1.455,1.042-0.894,2.795c0.999,3.111,2.023,6.213,3.036,9.319c0.35,1.075,0.701,2.149,1.035,3.229
		c0.03,0.101-0.068,0.243-0.129,0.434c-1.372-0.565-2.416-1.601-3.585-2.436c-2.715-1.938-5.388-3.932-8.085-5.893
		c-0.355-0.259-0.605-0.39-0.86-0.39c-0.267,0-0.537,0.143-0.937,0.435c-2.693,1.965-5.374,3.948-8.066,5.915
		c-1.022,0.748-2.061,1.473-3.102,2.195c-0.139,0.095-0.333,0.112-0.696,0.226c1.585-5.014,3.32-9.809,4.685-14.77
		c-3.932-3.174-8.108-5.81-11.919-8.866c0.112-0.444,0.363-0.518,0.622-0.518c0.127,0,0.256,0.018,0.371,0.018
		c0.001,0,0.003,0,0.005,0c3.812-0.016,7.624-0.009,11.437-0.014c0.064,0,0.127,0,0.188,0c0.105,0,0.207,0,0.304,0
		c2.413,0,2.152-0.047,2.966-2.504c1.218-3.668,2.408-7.344,3.619-11.013C2040.088,367.344,2040.248,367.069,2040.359,366.827
		 M2031.496,352.73l-3.744,8.121c-0.312,0.627-0.675,1.401-1.007,2.405c-0.437,1.324-0.868,2.639-1.298,3.954
		c-1.213,0.001-2.425,0.004-3.637,0.008c-0.208-0.009-0.445-0.016-0.709-0.016c-6.683,0-12.5,4.542-14.146,11.043l-2.203,8.696
		l6.998,5.613c1.469,1.179,2.932,2.265,4.37,3.306c-0.561,1.693-1.14,3.444-1.708,5.241l-8.079,25.555l25.384-7.983
		c1.154-0.311,2.81-0.864,4.611-2.106l0.017-0.011l0.016-0.012c1.247-0.865,2.3-1.604,3.385-2.396
		c0.26-0.189,0.519-0.379,0.778-0.569c0.277,0.199,0.554,0.397,0.832,0.595c0.072,0.053,0.299,0.231,0.463,0.361
		c1.174,0.926,3.139,2.477,5.91,3.618l14.021,5.779l4.465-14.055c1.4-3.759,0.948-7.029,0.295-9.156
		c-0.344-1.112-0.688-2.17-1.021-3.193l-0.084-0.258c-0.156-0.478-0.312-0.955-0.467-1.432c0.993-0.73,2.021-1.487,3.085-2.272
		c5.423-3.829,7.64-10.31,5.658-16.563l-2.986-9.424l-9.882-0.306c-0.157-0.004-0.317-0.011-0.479-0.017
		c-0.516-0.02-1.156-0.044-1.865-0.046c-0.918-0.001-1.828-0.002-2.738-0.002h-0.106c-0.41-1.276-0.82-2.553-1.233-3.828
		c-1.854-6.191-7.372-10.399-13.806-10.503L2031.496,352.73L2031.496,352.73z"/>
</g>
<polygon fill="#FFFFFF" points="1832.266,181.466 1856.415,257.134 1891.834,289.333 1919.203,472.868 1866.074,538.876 
	1872.67,571.858 1951.402,516.337 2034.612,551.116 2125.278,516.337 2184.98,571.66 2209.714,546.996 2157.478,477.698 
	2181.627,303.822 2175.318,281.344 2262.125,199.175 2193.17,225.745 2154.795,262.387 1925.349,262.387 1875.734,216.885 "/>
<g>
	<g>
		<path fill="#F05130" d="M2146.795,480.279c21.76,21.773,43.37,43.397,65.065,65.106c-3.204,3.463-6.479,6.71-9.796,9.897
			c-3.556,3.416-6.931,7.022-10.645,10.475c-5.602-5.608-11.079-11.097-16.559-16.582c-5.487-5.493-10.977-10.984-16.467-16.476
			s-10.979-10.985-16.476-16.47c-5.489-5.477-10.953-10.979-16.507-16.497c-0.522,0.293-0.947,0.472-1.304,0.74
			c-3.638,2.728-7.339,5.369-11.14,7.858c-4.024,2.634-8.118,5.165-12.202,7.705c-4.599,2.861-9.308,5.537-14.088,8.082
			c-5.133,2.73-10.284,5.433-15.494,8.013c-5.388,2.67-10.829,5.236-16.297,7.738c-4.066,1.861-8.219,3.535-12.32,5.32
			c-0.535,0.234-0.974,0.262-1.516,0.023c-5.075-2.225-10.167-4.413-15.244-6.636c-1.775-0.776-3.545-1.572-5.282-2.432
			c-5.688-2.817-11.391-5.606-17.026-8.524c-4.806-2.487-9.573-5.057-14.272-7.74c-4.293-2.452-8.511-5.042-12.687-7.69
			c-3.836-2.433-7.581-5.008-11.344-7.554c-1.438-0.973-2.809-2.048-4.221-3.061c-0.753-0.539-1.468-1.146-2.27-1.504
			c-0.784,0.219-1.174,0.79-1.638,1.254c-3.791,3.781-7.571,7.572-11.356,11.358c-8.66,8.664-17.322,17.324-25.98,25.989
			c-7.145,7.151-14.286,14.303-21.424,21.46c-1.274,1.277-2.476,2.634-3.797,3.86c-2.238,2.079-4.931,3.089-7.988,3.209
			c-2.567,0.101-5.082-0.039-7.413-1.248c-4.361-2.262-7.125-5.725-7.914-10.649c-0.073-0.462-0.209-0.913-0.275-1.375
			c-0.065-0.461-0.155-0.938-0.104-1.393c0.406-3.673,1.694-6.883,4.208-9.741c2.163-2.46,4.507-4.728,6.75-7.099
			c2.207-2.331,4.566-4.518,6.836-6.791c4.256-4.262,8.486-8.549,12.743-12.811c4.304-4.311,8.629-8.597,12.936-12.902
			c4.118-4.115,8.22-8.247,12.337-12.362c2.793-2.791,5.602-5.565,8.4-8.349c0.657-0.654,1.338-1.292,1.795-2.179
			c-1.258-1.5-2.48-2.912-3.652-4.363c-4.354-5.385-8.027-11.185-10.536-17.667c-1.011-2.612-1.771-5.296-2.146-8.091
			c-0.31-2.309-0.818-4.589-1.151-6.896c-0.42-2.902-0.737-5.82-1.125-8.728c-0.316-2.38-0.67-4.752-0.847-7.152
			c-0.137-1.857-0.499-3.696-0.715-5.548c-0.092-0.795-0.015-1.609-0.104-2.405c-0.229-2.05-0.512-4.096-0.764-6.144
			c-0.048-0.397-0.035-0.802-0.069-1.201c-0.084-0.998-0.178-1.994-0.266-2.991c-0.047-0.532-0.085-1.065-0.135-1.598
			c-0.104-1.129-0.217-2.258-0.317-3.387c-0.048-0.533-0.072-1.067-0.118-1.599c-0.091-1.064-0.189-2.128-0.29-3.19
			c-0.012-0.132-0.069-0.261-0.08-0.393c-0.184-2.396-0.363-4.793-0.545-7.189c-0.061-0.8-0.123-1.601-0.181-2.401
			c-0.076-1.066-0.131-2.135-0.225-3.201c-0.27-3.06-0.555-6.119-0.837-9.178c-0.019-0.199-0.087-0.395-0.098-0.594
			c-0.146-2.802-0.273-5.606-0.434-8.407c-0.064-1.133-0.197-2.262-0.303-3.392c-0.012-0.132-0.061-0.262-0.067-0.395
			c-0.167-2.934-0.324-5.869-0.497-8.802c-0.074-1.267-0.178-2.532-0.271-3.798c-0.015-0.2-0.064-0.397-0.075-0.597
			c-0.163-3.271-0.314-6.542-0.487-9.812c-0.07-1.334-0.185-2.666-0.283-4c-0.02-0.266-0.081-0.531-0.093-0.797
			c-0.155-3.474-0.294-6.947-0.462-10.42c-0.074-1.534-0.219-3.065-0.311-4.599c-0.062-1-0.075-2.004-0.131-3.006
			c-0.096-1.735-0.204-3.47-0.313-5.205c-0.021-0.333-0.091-0.664-0.104-0.998c-0.154-3.744-0.283-7.486-0.458-11.229
			c-0.097-2.069-0.271-4.135-0.399-6.203c-0.05-0.801-0.098-1.604-0.101-2.405c-0.011-2.476,0.025-4.952-0.4-7.41
			c-0.124-0.717-0.082-1.47-0.051-2.205c0.035-0.798-0.26-1.379-0.828-1.942c-3.093-3.06-6.147-6.158-9.221-9.237
			c-5.957-5.969-11.915-11.937-17.875-17.903c-2.413-2.415-4.808-4.847-7.256-7.223c-0.788-0.765-1.367-1.624-1.817-2.607
			c-4.169-9.115-8.34-18.228-12.521-27.336c-2.451-5.34-4.923-10.671-7.385-16.007c-0.183-0.396-0.355-0.798-0.667-1.496
			c0.527,0.215,0.764,0.275,0.96,0.398c4.582,2.881,9.152,5.781,13.739,8.653c6.572,4.114,13.159,8.203,19.734,12.312
			c2.324,1.452,4.642,2.914,6.938,4.409c0.554,0.36,1.036,0.843,1.508,1.314c6.394,6.383,12.781,12.771,19.166,19.163
			c4.729,4.733,9.451,9.476,14.182,14.208c0.471,0.471,0.973,0.909,1.461,1.363c76.489,0,152.938,0,229.446,0
			c0.666-0.633,1.346-1.272,2.02-1.918c3.086-2.968,6.182-5.928,9.255-8.91c2.257-2.19,4.487-4.408,6.727-6.618
			c5.858-5.78,11.722-11.556,17.563-17.353c0.822-0.816,1.737-1.398,2.811-1.844c6.416-2.662,12.81-5.384,19.217-8.064
			c3.387-1.417,6.799-2.773,10.185-4.19c5.051-2.112,10.087-4.261,15.134-6.38c4.553-1.91,9.112-3.803,13.672-5.696
			c0.351-0.145,0.727-0.225,1.222-0.375c-0.143,0.289-0.188,0.481-0.306,0.603c-3.523,3.666-7.059,7.322-10.586,10.985
			c-6.914,7.184-13.817,14.379-20.737,21.556c-2.603,2.698-5.261,5.342-7.86,8.041c-5.941,6.167-11.859,12.359-17.797,18.529
			c-1.949,2.025-3.944,4.005-5.898,6.025c-3.117,3.22-6.215,6.459-9.327,9.685c-1.579,1.637-3.147,3.285-4.769,4.88
			c-0.909,0.895-1.455,1.842-1.334,3.187c0.081,0.92-0.104,1.864-0.156,2.798c-0.113,2.002-0.227,4.006-0.327,6.01
			c-0.077,1.536-0.128,3.074-0.204,4.61c-0.054,1.069-0.192,2.138-0.186,3.206c0.015,2.346-0.051,4.684-0.394,7.009
			c-0.077,0.527-0.087,1.068-0.085,1.602c0.012,2.276,0.015,4.55-0.354,6.809c-0.106,0.655-0.089,1.335-0.092,2.004
			c-0.007,2.007-0.116,4.005-0.272,6.009c-0.303,3.864-0.384,7.746-0.572,11.619c-0.054,1.066-0.166,2.13-0.256,3.193
			c-0.022,0.267-0.087,0.53-0.1,0.796c-0.173,3.472-0.333,6.943-0.512,10.414c-0.052,1-0.147,1.998-0.227,2.996
			c-0.016,0.2-0.064,0.397-0.071,0.597c-0.097,2.739-0.226,5.472-0.492,8.203c-0.174,1.789-0.022,3.605-0.408,5.391
			c-0.124,0.58-0.052,1.2-0.088,1.802c-0.072,1.2-0.156,2.4-0.236,3.6c-0.054,0.801-0.102,1.602-0.164,2.403
			c-0.101,1.332-0.208,2.663-0.317,3.995c-0.016,0.2-0.059,0.397-0.073,0.598c-0.199,2.865-0.394,5.731-0.596,8.597
			c-0.051,0.733-0.126,1.464-0.196,2.196c-0.062,0.666-0.186,1.33-0.187,1.995c-0.001,1.276-0.042,2.542-0.35,3.789
			c-0.016,0.064-0.024,0.132-0.029,0.199c-0.172,2.464-0.343,4.929-0.518,7.393c-0.043,0.599-0.1,1.198-0.154,1.797
			c-0.079,0.863-0.158,1.728-0.246,2.59c-0.088,0.861-0.186,1.723-0.283,2.583c-0.023,0.199-0.083,0.394-0.099,0.594
			c-0.166,2.194-0.29,4.393-0.5,6.583c-0.196,2.055-0.49,4.1-0.727,6.15c-0.061,0.531-0.059,1.067-0.096,1.601
			c-0.032,0.465-0.061,0.932-0.118,1.396c-0.236,1.92-0.485,3.839-0.728,5.759c-0.224,1.786-0.435,3.572-0.668,5.356
			c-0.232,1.785-0.482,3.568-0.727,5.353c-0.154,1.12-0.281,2.245-0.475,3.358c-0.375,2.162-0.787,4.317-1.186,6.476
			c-0.547,2.972-1.625,5.771-2.842,8.518c-2.512,5.666-5.897,10.777-9.851,15.528
			C2148.953,477.616,2147.953,478.86,2146.795,480.279z M1918.625,272.641c0,0.782-0.022,1.373,0.004,1.962
			c0.076,1.735,0.188,3.47,0.255,5.207c0.167,4.278,0.312,8.556,0.479,12.833c0.023,0.601,0.135,1.197,0.177,1.798
			c0.084,1.199,0.16,2.401,0.218,3.602c0.221,4.608,0.43,9.218,0.647,13.826c0.085,1.802,0.174,3.607,0.273,5.408
			c0.062,1.135,0.146,2.269,0.225,3.403c0.07,0.999,0.173,1.996,0.22,2.997c0.181,3.873,0.345,7.746,0.519,11.619
			c0.013,0.267,0.066,0.531,0.086,0.798c0.081,1.064,0.176,2.128,0.232,3.195c0.178,3.403,0.34,6.806,0.514,10.209
			c0.014,0.267,0.078,0.53,0.102,0.796c0.089,1.064,0.192,2.128,0.251,3.194c0.171,3.136,0.318,6.273,0.484,9.411
			c0.017,0.333,0.101,0.662,0.131,0.994c0.081,0.932,0.151,1.865,0.225,2.796c0.105,1.331,0.208,2.662,0.315,3.993
			c0.036,0.466,0.095,0.931,0.124,1.398c0.19,3,0.372,6,0.563,8.999c0.102,1.601,0.208,3.201,0.329,4.799
			c0.051,0.667,0.157,1.329,0.224,1.995c0.245,2.456,0.519,4.909,0.714,7.369c0.196,2.462,0.312,4.93,0.466,7.396
			c0.008,0.132,0.044,0.264,0.057,0.397c0.111,1.127,0.213,2.256,0.331,3.383c0.062,0.596,0.149,1.19,0.226,1.785
			c0.066,0.529,0.157,1.057,0.196,1.588c0.163,2.196,0.308,4.393,0.467,6.589c0.02,0.265,0.103,0.525,0.137,0.79
			c0.085,0.66,0.167,1.32,0.235,1.982c0.062,0.598,0.091,1.198,0.159,1.795c0.219,1.922,0.46,3.843,0.671,5.766
			c0.197,1.789,0.318,3.587,0.557,5.37c0.381,2.843,0.83,5.678,1.252,8.516c0.157,1.054,0.348,2.104,0.469,3.163
			c0.319,2.781,0.747,5.536,1.545,8.227c1.15,3.882,3.072,7.39,5.218,10.786c3.342,5.289,7.53,9.887,11.927,14.288
			c3.449,3.453,7.104,6.698,10.913,9.756c6.73,5.404,13.769,10.382,21.048,15.015c4.905,3.121,9.908,6.078,14.954,8.972
			c7.312,4.192,14.772,8.096,22.333,11.801c5.755,2.82,11.61,5.437,17.459,8.06c1.754,0.787,3.459,1.737,5.308,2.198
			c0.632-0.245,1.204-0.438,1.752-0.683c4.084-1.825,8.182-3.622,12.24-5.504c7.216-3.344,14.331-6.883,21.356-10.619
			c7.144-3.799,14.175-7.783,21.054-12.035c4.601-2.845,9.113-5.825,13.525-8.966c6.707-4.775,13.208-9.784,19.196-15.452
			c3.309-3.13,6.508-6.344,9.431-9.842c2.925-3.499,5.565-7.18,7.687-11.219c1.338-2.546,2.429-5.182,3.126-7.997
			c0.756-3.049,1.032-6.165,1.568-9.244c0.286-1.641,0.472-3.298,0.681-4.952c0.252-1.985,0.471-3.975,0.717-5.96
			c0.196-1.589,0.425-3.174,0.617-4.764c0.238-1.987,0.482-3.975,0.674-5.968c0.19-1.991,0.315-3.988,0.477-5.98
			c0.016-0.198,0.099-0.391,0.122-0.588c0.099-0.861,0.19-1.722,0.277-2.584c0.081-0.796,0.153-1.593,0.228-2.39
			c0.061-0.665,0.125-1.329,0.174-1.995c0.168-2.263,0.326-4.525,0.496-6.787c0.014-0.198,0.1-0.391,0.121-0.589
			c0.092-0.862,0.186-1.725,0.25-2.589c0.045-0.6-0.041-1.219,0.076-1.801c0.307-1.522,0.346-3.055,0.341-4.596
			c-0.002-0.399,0.059-0.798,0.097-1.196c0.285-2.991,0.574-5.981,0.854-8.973c0.031-0.331-0.006-0.668,0.01-1.003
			c0.024-0.534,0.066-1.067,0.102-1.601c0.1-1.467,0.196-2.935,0.3-4.401c0.042-0.6,0.097-1.199,0.144-1.798
			c0.257-3.329,0.545-6.657,0.759-9.99c0.195-3.068,0.312-6.14,0.466-9.211c0.007-0.133,0.039-0.265,0.05-0.398
			c0.11-1.599,0.226-3.198,0.327-4.798c0.041-0.666-0.037-1.353,0.09-2c0.375-1.923,0.346-3.861,0.349-5.802
			c0-0.534-0.023-1.081,0.075-1.601c0.349-1.856,0.326-3.729,0.325-5.604c0-0.602-0.036-1.218,0.074-1.802
			c0.375-1.989,0.364-3.994,0.362-6.003c-0.002-0.602-0.047-1.218,0.062-1.802c0.397-2.124,0.37-4.263,0.37-6.406
			c0.001-0.602,0.033-1.203,0.064-1.804c0.107-2.069,0.229-4.138,0.331-6.207c0.038-0.802-0.062-1.623,0.073-2.404
			c0.383-2.191,0.372-4.396,0.389-6.605c0.008-0.935,0.081-1.869,0.143-2.803c0.115-1.801,0.262-3.601,0.357-5.403
			c0.071-1.335-0.003-2.682,0.134-4.009c0.258-2.534,0.381-5.068,0.354-7.615c-0.012-1.135,0.086-2.271,0.145-3.408
			c0.025-0.534,0.103-1.066,0.109-1.601c0.01-0.672-0.279-1.012-0.938-1.049c-0.868-0.05-1.74-0.045-2.61-0.045
			c-79.725-0.001-159.449-0.001-239.174,0c-0.736,0-1.474-0.016-2.209,0.014C1919.636,272.444,1919.252,272.542,1918.625,272.641z
			 M1904.206,544.065c0.46-0.389,0.889-0.702,1.26-1.073c2.078-2.08,4.133-4.183,6.213-6.262c4.584-4.586,9.186-9.154,13.767-13.741
			c4.108-4.117,8.192-8.256,12.3-12.374c2.172-2.176,4.376-4.32,6.554-6.493c2.508-2.502,5.01-5.012,7.493-7.54
			c0.351-0.356,0.878-0.659,0.792-1.334c-3.526-3.139-7.062-6.285-10.653-9.483c-0.296,0.231-0.634,0.442-0.909,0.716
			c-1.327,1.32-2.632,2.663-3.956,3.985c-12.246,12.242-24.495,24.482-36.743,36.724c-1.749,1.748-3.504,3.491-5.242,5.251
			c-0.454,0.46-1.061,0.85-1.018,1.616C1895.283,535.57,1902.966,543.192,1904.206,544.065z M2188.117,531.966
			c-3.188,3.183-6.396,6.382-9.595,9.588c-0.179,0.179-0.286,0.429-0.449,0.68c0.157,0.258,0.254,0.52,0.434,0.699
			c4.153,4.149,8.315,8.293,12.485,12.429c0.129,0.128,0.348,0.164,0.613,0.281c0.242-0.184,0.528-0.352,0.755-0.578
			c3.019-3.021,6.03-6.049,9.034-9.084c0.128-0.129,0.165-0.35,0.237-0.511C2200.552,543.985,2189.49,532.912,2188.117,531.966z
			 M2200.932,244.917c1.082-0.125,1.525-0.95,2.109-1.545c4.354-4.434,8.685-8.892,13.03-13.334c3.04-3.105,6.093-6.195,9.132-9.301
			c0.408-0.417,0.766-0.886,1.227-1.424c-0.705-0.232-1.135,0.017-1.615,0.218c-8.735,3.646-17.477,7.282-26.229,10.883
			c-0.706,0.291-1.293,0.671-1.813,1.2c-1.5,1.525-3.001,3.048-4.492,4.581c-0.072,0.075-0.056,0.239-0.1,0.447
			c0.982,0.979,2.439,1.249,3.541,2.109c1.052,0.824,2.199,1.54,2.963,2.669C2199.461,242.568,2200.187,243.752,2200.932,244.917z
			 M2139.07,488.215c0.496,0.515,0.858,0.902,1.232,1.277c2.312,2.317,4.63,4.631,6.942,6.948c2.642,2.649,5.28,5.304,7.924,7.952
			c4.106,4.112,8.219,8.22,12.326,12.332c3.968,3.972,7.928,7.947,11.901,11.912c0.314,0.314,0.702,0.556,1.094,0.86
			c0.91-0.919,1.932-1.583,2.449-2.773c-0.172-0.25-0.289-0.492-0.47-0.672c-13.364-13.379-26.734-26.752-40.11-40.12
			c-0.129-0.13-0.34-0.179-0.606-0.311C2140.752,486.266,2139.987,487.165,2139.07,488.215z M2131.031,495.203
			c0.357,0.439,0.584,0.769,0.859,1.047c2.635,2.663,5.275,5.321,7.922,7.972c4.205,4.213,8.417,8.419,12.627,12.628
			c3.452,3.452,6.905,6.902,10.36,10.354c3.029,3.024,6.056,6.052,9.097,9.063c0.27,0.267,0.645,0.427,0.973,0.639
			c0.986-0.615,1.69-1.372,2.338-2.351c-0.555-0.59-1.039-1.133-1.553-1.646c-5.059-5.064-10.123-10.123-15.183-15.188
			c-7.14-7.147-14.273-14.3-21.412-21.447c-0.898-0.9-1.807-1.789-2.729-2.663c-0.584-0.555-0.95-0.554-1.56-0.02
			C2132.22,494.072,2131.694,494.585,2131.031,495.203z M2188.597,259.412c-0.198-0.301-0.31-0.552-0.491-0.734
			c-3.026-3.023-6.059-6.041-9.103-9.045c-0.169-0.167-0.454-0.22-0.767-0.362c-3.727,3.609-7.412,7.188-10.905,10.961
			c-0.062,0.068-0.024,0.231-0.042,0.491c3.154,0.282,6.337-0.083,9.535,0.2c0.073,0.354,0.169,0.609,0.167,0.862
			c-0.006,0.868-0.035,1.735-0.076,2.602c-0.092,1.935-0.202,3.87-0.289,5.805c-0.014,0.321-0.015,0.682,0.413,0.795
			C2178.398,269.998,2187.241,261.169,2188.597,259.412z M1876.115,239.099c1.592-0.154,2.902-0.713,3.985-1.782
			c0.905-0.892,1.74-1.865,2.707-2.682c1.568-1.323,2.278-3.044,2.699-5.021c-0.639-0.45-1.223-0.892-1.835-1.286
			c-1.349-0.867-2.714-1.709-4.071-2.564c-1.525-0.961-3.052-1.924-4.575-2.889c-0.628-0.397-1.229-0.455-1.845,0.048
			c-1.079,0.883-2.178,1.742-3.23,2.581C1870.417,227.142,1874.514,236.172,1876.115,239.099z M1916.705,260.557
			c-0.015-0.12,0.016-0.283-0.052-0.351c-8.056-8.112-16.118-16.218-24.187-24.318c-0.322-0.324-0.71-0.583-1.125-0.919
			c-0.864,1.042-1.363,2.191-1.919,3.259c0.942,1.291,20.547,20.985,22.427,22.543c1.489,0,3.024,0.004,4.559-0.01
			C1916.508,260.76,1916.606,260.628,1916.705,260.557z M1880.967,245.207c1.692,1.705,3.192,3.225,4.701,4.736
			c4.107,4.115,8.219,8.229,12.331,12.339c2.6,2.599,5.204,5.195,7.814,7.782c0.26,0.257,0.501,0.675,1.139,0.291
			c0-0.573,0.013-1.234-0.002-1.894c-0.055-2.404-0.053-2.411-1.809-4.176c-5.515-5.542-11.032-11.082-16.555-16.617
			c-1.227-1.23-2.484-2.431-3.719-3.654c-0.433-0.429-0.903-0.561-1.444-0.252C1882.677,244.189,1881.94,244.633,1880.967,245.207z
			 M1881.329,546.744c-0.405,0.332-0.729,0.569-1.019,0.84c-3.257,3.049-3.514,8.208,0.886,11.431
			c2.87,2.104,6.466,1.729,9.218-0.627c0.297-0.254,0.569-0.592,0.715-0.948c0.11-0.268,0.062-0.647-0.034-0.938
			c-0.077-0.231-0.328-0.41-0.515-0.6c-2.779-2.797-5.56-5.593-8.344-8.384C1882.002,547.285,1881.733,547.088,1881.329,546.744z
			 M2184.069,244.374c1.317,1.745,8.491,8.861,9.87,9.771c0.943-1.324,1.123-2.806,0.948-4.353c-0.211-1.861-1.009-3.428-2.45-4.656
			c-1.416-1.207-3.02-1.991-4.898-1.961C2186.284,243.194,2185.02,243.375,2184.069,244.374z M1896.652,551.609
			c0.819-0.725,1.754-1.352,2.38-2.435c-1.613-1.867-3.421-3.449-5.095-5.157c-1.666-1.705-3.304-3.445-5.208-5.055
			c-0.46,0.425-0.854,0.765-1.222,1.13c-0.41,0.409-0.795,0.841-1.173,1.242C1887.481,542.89,1895.056,550.421,1896.652,551.609z"/>
		<path fill="#F05130" d="M1969.506,474.614c-0.072-0.344-0.199-0.665-0.2-0.987c-0.007-7.36-0.002-14.722,0.013-22.081
			c0.001-0.251,0.12-0.503,0.195-0.799c0.291-0.076,0.541-0.198,0.791-0.198c49.316,0.009,98.632,0.025,147.948,0.052
			c0.179,0,0.356,0.151,0.569,0.246c0.054,0.258,0.154,0.517,0.154,0.774c0.012,7.294,0.015,14.588,0.01,21.882
			c0,0.325-0.091,0.65-0.153,1.064c-0.402,0.067-0.779,0.162-1.162,0.186c-0.533,0.031-1.069,0.01-1.605,0.01
			c-47.979,0-95.96,0.001-143.939-0.005C1971.27,474.759,1970.399,474.873,1969.506,474.614z"/>
		<path fill="#F05130" d="M2118.788,414.166c0.302,1.812,0.293,22.064-0.017,23.81c-0.342,0.066-0.719,0.181-1.1,0.205
			c-0.601,0.037-1.204,0.015-1.807,0.015c-47.855,0-95.71,0-143.564,0c-0.865,0-1.729,0-2.439,0
			c-0.69-0.598-0.564-1.235-0.569-1.816c-0.018-2.276-0.009-4.551-0.009-6.827c0-4.417-0.004-8.835,0.004-13.252
			c0.001-0.724-0.099-1.469,0.198-2.068c0.145-0.115,0.19-0.163,0.246-0.193c0.058-0.032,0.124-0.068,0.188-0.068
			c49.059-0.021,98.116-0.04,147.175-0.055c0.4,0,0.802,0.016,1.201,0.049C2118.418,413.972,2118.535,414.058,2118.788,414.166z"/>
		<path fill="#F05130" d="M1969.87,349.909c-0.083-0.665-0.177-1.056-0.176-1.448c0.013-17.202,0.034-34.404,0.063-51.606
			c0-0.186,0.138-0.371,0.261-0.683c0.562,0,1.157,0,1.753,0c6.561,0,13.122-0.084,19.68,0.023
			c6.592,0.108,12.653,2.087,17.875,6.122c4.512,3.487,7.504,8.116,8.982,13.663c0.834,3.126,1.146,6.336,0.819,9.533
			c-0.802,7.817-4.145,14.266-10.599,18.984c-3.806,2.783-8.027,4.378-12.661,5.122c-1.735,0.279-3.448,0.375-5.185,0.376
			c-6.159,0.004-12.317,0.004-18.476-0.002C1971.482,349.991,1970.756,349.941,1969.87,349.909z M1981.627,339.461
			c0.331,0.051,0.719,0.163,1.107,0.165c2.673,0.013,5.348,0.033,8.021-0.013c1.198-0.02,2.423-0.061,3.587-0.316
			c2.635-0.577,5.04-1.724,7.178-3.382c0.574-0.446,1.115-0.967,1.568-1.535c2.491-3.119,3.962-6.617,3.84-10.68
			c-0.054-1.795,0.006-3.595-0.53-5.354c-1.149-3.773-3.193-6.891-6.551-9.043c-2.525-1.62-5.294-2.47-8.314-2.454
			c-2.674,0.013-5.348,0-8.021,0.004c-0.658,0.001-1.316,0.026-1.879,0.038c-0.545,0.813-0.403,1.569-0.406,2.291
			c-0.016,3.544-0.007,7.085-0.007,10.629c0,5.749-0.007,11.497,0.009,17.246C1981.23,337.841,1981.062,338.669,1981.627,339.461z"
			/>
		<path fill="#F05130" d="M2030.083,334.2c1.518,0.995,2.822,1.919,4.192,2.733c2.182,1.294,4.4,2.509,6.918,3.093
			c2.83,0.655,5.645,1.021,8.508,0.245c2.115-0.575,3.79-1.614,4.421-3.89c0.466-1.684-0.132-3.589-1.593-4.609
			c-1.545-1.081-3.254-1.85-5.064-2.363c-3.009-0.853-6.036-1.641-9.045-2.493c-2.711-0.769-5.259-1.89-7.601-3.495
			c-3.333-2.284-4.994-5.48-5.307-9.431c-0.095-1.196-0.105-2.407-0.054-3.607c0.214-4.811,2.467-8.54,6.279-11.338
			c2.745-2.015,5.853-3.144,9.285-3.316c1-0.05,1.995-0.277,2.991-0.273c6.937,0.021,13.284,1.931,18.938,6.007
			c0.323,0.232,0.646,0.466,1.028,0.742c-2.055,3.007-3.97,5.81-5.906,8.644c-0.837-0.159-1.41-0.617-2.02-0.989
			c-2.058-1.253-4.177-2.354-6.478-3.125c-2.722-0.912-5.486-1.059-8.289-0.7c-0.988,0.126-1.892,0.59-2.722,1.186
			c-2.33,1.676-2.166,5.362-0.366,6.884c0.995,0.841,2.107,1.402,3.329,1.769c2.356,0.706,4.72,1.383,7.081,2.073
			c2.949,0.861,5.861,1.81,8.676,3.063c2.322,1.034,4.2,2.604,5.801,4.513c1.31,1.561,2.093,3.391,2.326,5.439
			c0.105,0.928,0.368,1.849,0.369,2.773c0.004,4.433-1.24,8.431-4.321,11.73c-0.452,0.484-0.981,0.906-1.517,1.301
			c-2.741,2.032-5.836,3.113-9.192,3.704c-1.999,0.352-3.973,0.455-5.976,0.458c-0.268,0-0.539,0.026-0.803-0.009
			c-5.325-0.691-10.527-1.807-15.219-4.587c-1.033-0.612-2.019-1.309-2.99-2.014c-0.805-0.586-1.56-1.243-2.432-1.945
			C2025.502,339.585,2027.776,336.987,2030.083,334.2z"/>
		<path fill="#F05130" d="M2119.809,303.628c-2.211,2.982-4.748,5.55-7.137,8.38c-0.405-0.272-0.795-0.497-1.143-0.777
			c-1.51-1.221-3.065-2.371-4.803-3.259c-1.551-0.793-3.144-1.423-4.909-1.564c-0.861-0.068-1.714-0.401-2.564-0.383
			c-4.51,0.092-8.513,1.423-11.634,4.884c-2.493,2.765-3.936,5.938-4.428,9.659c-0.698,5.268,0.572,9.943,3.771,14.104
			c1.973,2.565,4.638,4.216,7.726,5.108c3.09,0.892,6.215,0.711,9.291-0.115c0.956-0.257,1.906-0.658,2.754-1.168
			c1.543-0.927,3.009-1.981,4.5-2.994c0.603-0.41,1.185-0.848,1.853-1.328c2.572,2.308,4.888,4.774,7.33,7.292
			c-0.933,0.924-1.708,1.738-2.531,2.498c-3.729,3.441-8.099,5.517-13.092,6.495c-3.2,0.626-6.39,0.519-9.583,0.414
			c-1.577-0.051-3.162-0.511-4.701-0.938c-5.448-1.513-9.984-4.528-13.551-8.861c-3.016-3.667-4.818-7.943-5.702-12.646
			c-0.527-2.805-0.519-5.609-0.312-8.385c0.225-2.992,1.117-5.887,2.376-8.649c1.314-2.887,3.037-5.494,5.213-7.79
			c2.328-2.456,5.116-4.293,8.159-5.731c2.417-1.142,4.966-1.798,7.627-2.214c2.276-0.357,4.538-0.408,6.793-0.297
			c6.968,0.342,13.156,2.667,18.243,7.583C2119.493,303.079,2119.575,303.272,2119.809,303.628z"/>
		<path fill="#F05130" d="M2076.471,379.657c0.574-0.036,1.148-0.102,1.724-0.103c3.683-0.01,7.364,0,11.047-0.01
			c0.727-0.002,1.452-0.065,2.224-0.101c1.865-4.868,3.188-9.807,5.01-14.999c0.346,0.966,0.57,1.557,0.77,2.157
			c1.303,3.923,2.625,7.84,3.875,11.78c0.246,0.773,0.636,1.128,1.397,1.147c0.535,0.013,1.071,0.019,1.606,0.019
			c3.481,0.002,6.964-0.006,10.443,0.008c0.645,0.002,1.315-0.125,2.086,0.265c-0.217,0.26-0.338,0.481-0.523,0.616
			c-3.342,2.447-6.689,4.883-10.037,7.322c-0.162,0.119-0.324,0.238-0.482,0.36c-1.014,0.779-1.03,0.785-0.646,2.001
			c0.964,3.051,1.941,6.096,2.918,9.143c0.461,1.444,0.929,2.887,1.47,4.567c-1.78-0.812-3.031-2.015-4.427-2.988
			c-1.371-0.957-2.705-1.963-4.056-2.947c-1.401-1.021-2.804-2.039-4.283-3.115c-2.325,1.357-4.277,3.099-6.429,4.547
			c-2.081,1.401-4.025,3.003-6.481,4.706c0.279-0.973,0.403-1.469,0.563-1.955c1.203-3.672,2.416-7.342,3.623-11.013
			c0.062-0.19,0.088-0.393,0.157-0.581c0.667-1.848,0.118-1.83-0.951-2.606c-3.298-2.397-6.586-4.812-9.875-7.222
			c-0.267-0.195-0.518-0.412-0.774-0.618C2076.435,379.91,2076.452,379.783,2076.471,379.657z"/>
		<path fill="#F05130" d="M1988.833,364.468c0.347,0.938,0.545,1.428,0.711,1.928c1.305,3.921,2.604,7.843,3.904,11.766
			c0.4,1.208,0.539,1.338,1.841,1.374c1.204,0.032,2.409,0.011,3.613,0.012c2.811,0.001,5.621-0.007,8.432,0.008
			c0.506,0.002,1.01,0.088,1.777,0.16c-1.273,1.454-2.732,2.245-4.026,3.227c-1.329,1.009-2.713,1.944-4.042,2.953
			c-1.318,1.002-2.766,1.846-4.004,3.097c0.578,2.479,1.527,4.826,2.229,7.245c0.697,2.408,1.609,4.753,2.323,7.507
			c-0.732-0.413-1.203-0.619-1.608-0.915c-3.29-2.405-6.564-4.831-9.854-7.238c-0.369-0.271-0.792-0.473-1.252-0.742
			c-2.215,1.293-4.129,2.965-6.208,4.399c-2.025,1.396-3.986,2.887-5.948,4.315c-0.562-0.374-0.347-0.77-0.235-1.114
			c1.226-3.807,2.463-7.609,3.698-11.412c0.146-0.445,0.329-0.879,0.438-1.331c0.135-0.563-0.011-1.01-0.531-1.381
			c-2.177-1.552-4.329-3.14-6.487-4.719c-1.615-1.182-3.224-2.37-4.802-3.53c0.167-0.693,0.65-0.512,0.996-0.514
			c3.948-0.018,7.896-0.008,11.844-0.018c0.723-0.002,1.445-0.059,2.201-0.093C1985.662,374.606,1987.023,369.738,1988.833,364.468z
			"/>
		<path fill="#F05130" d="M2029.86,403.697c1.585-5.015,3.32-9.809,4.685-14.771c-3.932-3.173-8.108-5.809-11.919-8.865
			c0.169-0.666,0.647-0.498,0.998-0.5c3.812-0.016,7.624-0.009,11.437-0.014c2.941-0.003,2.592,0.108,3.457-2.505
			c1.218-3.667,2.408-7.343,3.619-11.013c0.098-0.296,0.258-0.571,0.369-0.813c0.584,0.01,0.609,0.39,0.704,0.684
			c1.127,3.483,2.239,6.973,3.374,10.455c0.327,1.003,0.715,1.987,1.022,2.837c0.868,0.495,1.619,0.346,2.341,0.349
			c3.545,0.017,7.09,0.004,10.634,0.011c0.661,0.001,1.32,0.037,1.945,0.057c0.199,0.627-0.236,0.822-0.527,1.038
			c-3.277,2.418-6.562,4.828-9.856,7.22c-1.409,1.021-1.456,1.042-0.894,2.795c0.998,3.111,2.023,6.212,3.035,9.32
			c0.35,1.075,0.702,2.149,1.036,3.229c0.03,0.101-0.069,0.242-0.129,0.434c-1.373-0.565-2.417-1.601-3.586-2.436
			c-2.713-1.937-5.388-3.932-8.085-5.893c-0.728-0.529-1.015-0.525-1.796,0.045c-2.694,1.964-5.374,3.948-8.066,5.915
			c-1.023,0.748-2.062,1.473-3.103,2.195C2030.418,403.566,2030.224,403.583,2029.86,403.697z"/>
	</g>
	<g>
		<path fill="#46C2CB" d="M2140.355,486.182c21.76,21.773,43.37,43.397,65.066,65.106c-3.204,3.463-6.479,6.71-9.797,9.897
			c-3.556,3.416-6.931,7.022-10.645,10.475c-5.602-5.607-11.078-11.097-16.558-16.582c-5.488-5.493-10.978-10.984-16.468-16.476
			c-5.49-5.49-10.979-10.985-16.475-16.47c-5.489-5.477-10.953-10.979-16.507-16.496c-0.523,0.293-0.948,0.472-1.304,0.74
			c-3.639,2.727-7.339,5.369-11.141,7.857c-4.024,2.634-8.117,5.165-12.202,7.705c-4.599,2.861-9.308,5.537-14.088,8.082
			c-5.133,2.731-10.284,5.433-15.494,8.014c-5.388,2.669-10.829,5.235-16.296,7.737c-4.067,1.861-8.219,3.535-12.32,5.321
			c-0.536,0.233-0.975,0.261-1.517,0.022c-5.075-2.225-10.166-4.413-15.243-6.635c-1.775-0.776-3.546-1.573-5.283-2.433
			c-5.687-2.817-11.391-5.605-17.026-8.523c-4.806-2.488-9.573-5.057-14.272-7.741c-4.293-2.451-8.511-5.042-12.686-7.69
			c-3.836-2.433-7.582-5.008-11.345-7.554c-1.438-0.973-2.808-2.048-4.221-3.06c-0.753-0.54-1.468-1.146-2.269-1.504
			c-0.784,0.219-1.174,0.79-1.639,1.253c-3.79,3.781-7.571,7.572-11.356,11.358c-8.66,8.664-17.321,17.324-25.98,25.99
			c-7.145,7.15-14.286,14.303-21.423,21.459c-1.275,1.278-2.476,2.634-3.798,3.86c-2.238,2.079-4.931,3.09-7.988,3.209
			c-2.566,0.101-5.082-0.039-7.413-1.248c-4.361-2.262-7.125-5.725-7.914-10.649c-0.073-0.462-0.209-0.912-0.274-1.375
			c-0.066-0.461-0.156-0.937-0.105-1.393c0.406-3.673,1.695-6.883,4.208-9.74c2.163-2.461,4.507-4.729,6.75-7.099
			c2.207-2.332,4.566-4.519,6.837-6.792c4.255-4.262,8.485-8.549,12.742-12.811c4.304-4.31,8.629-8.597,12.936-12.901
			c4.118-4.116,8.22-8.247,12.337-12.363c2.793-2.791,5.602-5.565,8.4-8.349c0.657-0.654,1.338-1.292,1.795-2.179
			c-1.258-1.5-2.479-2.912-3.652-4.363c-4.354-5.385-8.026-11.185-10.535-17.667c-1.012-2.611-1.772-5.295-2.146-8.091
			c-0.311-2.309-0.819-4.589-1.152-6.896c-0.42-2.903-0.736-5.821-1.125-8.729c-0.316-2.38-0.669-4.751-0.847-7.152
			c-0.137-1.856-0.499-3.695-0.714-5.548c-0.093-0.795-0.016-1.609-0.104-2.405c-0.229-2.05-0.513-4.096-0.765-6.144
			c-0.048-0.397-0.035-0.801-0.068-1.2c-0.084-0.998-0.179-1.994-0.267-2.991c-0.047-0.532-0.085-1.065-0.134-1.598
			c-0.104-1.129-0.218-2.257-0.318-3.387c-0.048-0.532-0.071-1.067-0.117-1.599c-0.092-1.064-0.19-2.128-0.29-3.19
			c-0.013-0.132-0.069-0.26-0.08-0.393c-0.185-2.396-0.364-4.793-0.546-7.189c-0.061-0.8-0.123-1.601-0.18-2.4
			c-0.077-1.066-0.131-2.136-0.226-3.201c-0.27-3.061-0.554-6.119-0.837-9.178c-0.019-0.199-0.087-0.395-0.097-0.594
			c-0.146-2.803-0.274-5.606-0.435-8.408c-0.064-1.133-0.197-2.261-0.302-3.391c-0.013-0.132-0.062-0.262-0.068-0.395
			c-0.167-2.935-0.324-5.869-0.496-8.803c-0.075-1.267-0.178-2.532-0.272-3.798c-0.015-0.2-0.064-0.397-0.074-0.597
			c-0.164-3.271-0.314-6.542-0.488-9.812c-0.07-1.334-0.184-2.666-0.283-3.999c-0.02-0.267-0.08-0.531-0.093-0.798
			c-0.155-3.474-0.293-6.947-0.462-10.42c-0.073-1.534-0.218-3.065-0.311-4.599c-0.061-1.001-0.075-2.004-0.13-3.006
			c-0.097-1.735-0.205-3.47-0.314-5.205c-0.021-0.333-0.091-0.664-0.104-0.997c-0.154-3.744-0.283-7.487-0.457-11.229
			c-0.097-2.069-0.271-4.135-0.4-6.203c-0.05-0.801-0.098-1.603-0.101-2.405c-0.011-2.476,0.025-4.952-0.399-7.41
			c-0.125-0.717-0.083-1.47-0.051-2.205c0.035-0.798-0.261-1.379-0.829-1.942c-3.092-3.06-6.147-6.157-9.221-9.237
			c-5.956-5.969-11.915-11.936-17.875-17.903c-2.412-2.415-4.808-4.846-7.256-7.223c-0.788-0.765-1.366-1.624-1.817-2.606
			c-4.169-9.115-8.339-18.228-12.521-27.337c-2.451-5.34-4.923-10.671-7.384-16.007c-0.183-0.397-0.356-0.798-0.667-1.496
			c0.526,0.215,0.764,0.274,0.96,0.398c4.582,2.881,9.151,5.781,13.738,8.653c6.572,4.113,13.159,8.202,19.735,12.311
			c2.323,1.452,4.641,2.914,6.937,4.409c0.554,0.36,1.036,0.844,1.509,1.314c6.393,6.383,12.78,12.771,19.165,19.162
			c4.729,4.734,9.452,9.476,14.183,14.209c0.47,0.47,0.972,0.908,1.46,1.363c76.489,0,152.938,0,229.446,0
			c0.666-0.633,1.347-1.272,2.02-1.918c3.086-2.968,6.182-5.928,9.255-8.91c2.258-2.19,4.487-4.408,6.727-6.618
			c5.858-5.78,11.723-11.556,17.563-17.354c0.822-0.816,1.738-1.398,2.811-1.844c6.416-2.662,12.81-5.384,19.217-8.064
			c3.388-1.417,6.799-2.773,10.186-4.19c5.05-2.113,10.086-4.261,15.133-6.38c4.553-1.91,9.112-3.803,13.673-5.696
			c0.35-0.145,0.726-0.225,1.221-0.375c-0.142,0.289-0.188,0.481-0.305,0.604c-3.524,3.666-7.06,7.321-10.587,10.985
			c-6.914,7.184-13.817,14.378-20.737,21.556c-2.603,2.698-5.26,5.341-7.86,8.041c-5.94,6.167-11.858,12.359-17.797,18.529
			c-1.949,2.025-3.943,4.005-5.897,6.025c-3.118,3.22-6.216,6.459-9.328,9.685c-1.579,1.637-3.147,3.285-4.769,4.879
			c-0.908,0.896-1.455,1.842-1.334,3.187c0.082,0.92-0.103,1.864-0.156,2.799c-0.113,2.002-0.227,4.006-0.327,6.01
			c-0.077,1.536-0.128,3.074-0.204,4.61c-0.054,1.069-0.191,2.138-0.186,3.206c0.015,2.346-0.051,4.684-0.393,7.009
			c-0.078,0.526-0.088,1.067-0.086,1.602c0.012,2.276,0.016,4.55-0.354,6.808c-0.106,0.656-0.089,1.335-0.092,2.004
			c-0.007,2.007-0.116,4.005-0.272,6.009c-0.302,3.864-0.383,7.746-0.572,11.619c-0.053,1.066-0.165,2.129-0.256,3.193
			c-0.022,0.267-0.086,0.53-0.1,0.796c-0.172,3.472-0.333,6.943-0.512,10.414c-0.052,1-0.146,1.998-0.227,2.996
			c-0.016,0.2-0.064,0.398-0.071,0.597c-0.096,2.739-0.226,5.472-0.491,8.203c-0.174,1.789-0.023,3.605-0.408,5.391
			c-0.125,0.58-0.053,1.2-0.088,1.802c-0.072,1.2-0.156,2.4-0.236,3.6c-0.055,0.8-0.102,1.602-0.164,2.403
			c-0.102,1.331-0.209,2.663-0.318,3.994c-0.016,0.2-0.059,0.397-0.073,0.598c-0.199,2.865-0.393,5.731-0.595,8.597
			c-0.052,0.733-0.127,1.464-0.197,2.196c-0.062,0.665-0.186,1.33-0.187,1.995c-0.001,1.275-0.042,2.542-0.35,3.788
			c-0.016,0.064-0.024,0.132-0.028,0.199c-0.173,2.464-0.344,4.929-0.519,7.393c-0.043,0.6-0.1,1.198-0.153,1.797
			c-0.08,0.863-0.158,1.728-0.247,2.59c-0.088,0.861-0.186,1.723-0.283,2.583c-0.022,0.198-0.083,0.394-0.098,0.594
			c-0.167,2.194-0.29,4.393-0.5,6.583c-0.197,2.054-0.491,4.1-0.728,6.15c-0.061,0.531-0.059,1.067-0.096,1.601
			c-0.031,0.465-0.06,0.932-0.117,1.396c-0.237,1.92-0.485,3.839-0.728,5.758c-0.225,1.786-0.436,3.573-0.669,5.356
			c-0.232,1.786-0.482,3.569-0.727,5.353c-0.154,1.121-0.281,2.245-0.475,3.358c-0.375,2.162-0.787,4.316-1.186,6.476
			c-0.547,2.973-1.625,5.771-2.842,8.518c-2.512,5.666-5.896,10.777-9.85,15.529
			C2142.514,483.519,2141.514,484.763,2140.355,486.182z M1912.186,278.543c0,0.782-0.021,1.373,0.004,1.963
			c0.077,1.735,0.188,3.47,0.256,5.206c0.166,4.278,0.312,8.556,0.479,12.833c0.022,0.601,0.134,1.197,0.176,1.798
			c0.084,1.199,0.161,2.4,0.219,3.602c0.22,4.608,0.429,9.217,0.646,13.826c0.085,1.802,0.174,3.606,0.273,5.408
			c0.062,1.135,0.146,2.269,0.226,3.402c0.069,0.999,0.172,1.997,0.22,2.997c0.18,3.873,0.344,7.746,0.519,11.619
			c0.012,0.267,0.065,0.53,0.086,0.798c0.08,1.064,0.175,2.128,0.231,3.194c0.179,3.403,0.341,6.807,0.514,10.209
			c0.014,0.266,0.079,0.53,0.102,0.796c0.089,1.064,0.192,2.128,0.251,3.193c0.171,3.137,0.319,6.274,0.484,9.411
			c0.017,0.333,0.102,0.662,0.131,0.995c0.081,0.932,0.151,1.865,0.226,2.796c0.104,1.33,0.208,2.661,0.314,3.992
			c0.037,0.467,0.095,0.931,0.124,1.398c0.19,2.999,0.372,6,0.563,8.999c0.102,1.601,0.208,3.201,0.33,4.799
			c0.051,0.667,0.157,1.329,0.224,1.995c0.244,2.455,0.518,4.908,0.714,7.368c0.195,2.462,0.312,4.931,0.465,7.396
			c0.009,0.133,0.044,0.264,0.057,0.397c0.111,1.127,0.213,2.256,0.331,3.383c0.062,0.596,0.15,1.19,0.226,1.785
			c0.067,0.529,0.157,1.057,0.197,1.588c0.162,2.196,0.307,4.394,0.466,6.589c0.021,0.265,0.103,0.525,0.137,0.79
			c0.086,0.66,0.167,1.32,0.236,1.982c0.062,0.598,0.091,1.198,0.158,1.795c0.22,1.922,0.46,3.843,0.672,5.766
			c0.196,1.789,0.317,3.587,0.557,5.371c0.38,2.843,0.829,5.678,1.251,8.516c0.157,1.054,0.348,2.104,0.47,3.162
			c0.318,2.781,0.746,5.537,1.544,8.227c1.15,3.882,3.073,7.39,5.219,10.786c3.341,5.289,7.529,9.888,11.926,14.288
			c3.449,3.454,7.104,6.697,10.913,9.756c6.73,5.404,13.769,10.382,21.048,15.015c4.906,3.121,9.908,6.078,14.954,8.972
			c7.312,4.192,14.772,8.096,22.333,11.801c5.755,2.82,11.611,5.437,17.459,8.06c1.754,0.787,3.459,1.738,5.308,2.199
			c0.632-0.246,1.204-0.438,1.753-0.684c4.083-1.824,8.182-3.622,12.239-5.504c7.216-3.344,14.332-6.883,21.356-10.619
			c7.145-3.799,14.175-7.783,21.054-12.035c4.601-2.844,9.114-5.824,13.526-8.966c6.706-4.775,13.209-9.783,19.196-15.451
			c3.308-3.131,6.507-6.344,9.431-9.842c2.924-3.5,5.564-7.18,7.686-11.219c1.338-2.547,2.429-5.183,3.127-7.997
			c0.756-3.049,1.031-6.166,1.567-9.244c0.286-1.642,0.472-3.299,0.682-4.953c0.251-1.985,0.471-3.974,0.717-5.959
			c0.196-1.589,0.425-3.174,0.616-4.765c0.238-1.987,0.483-3.975,0.674-5.967c0.19-1.991,0.315-3.988,0.477-5.981
			c0.016-0.198,0.1-0.39,0.122-0.588c0.099-0.861,0.19-1.722,0.278-2.583c0.08-0.796,0.152-1.593,0.227-2.391
			c0.062-0.665,0.125-1.329,0.175-1.995c0.167-2.263,0.325-4.525,0.495-6.787c0.014-0.198,0.101-0.391,0.121-0.589
			c0.093-0.862,0.186-1.724,0.251-2.589c0.044-0.599-0.042-1.219,0.075-1.8c0.307-1.523,0.347-3.055,0.341-4.596
			c-0.002-0.399,0.059-0.798,0.097-1.196c0.285-2.991,0.574-5.981,0.854-8.973c0.031-0.331-0.006-0.669,0.01-1.003
			c0.025-0.534,0.066-1.066,0.102-1.6c0.1-1.467,0.196-2.935,0.3-4.401c0.042-0.599,0.098-1.198,0.144-1.798
			c0.257-3.33,0.545-6.658,0.759-9.99c0.196-3.068,0.312-6.141,0.466-9.212c0.007-0.133,0.039-0.265,0.05-0.398
			c0.111-1.599,0.227-3.197,0.327-4.797c0.042-0.667-0.037-1.353,0.09-2c0.375-1.923,0.347-3.862,0.349-5.802
			c0-0.535-0.023-1.081,0.076-1.601c0.349-1.856,0.325-3.729,0.324-5.603c0-0.602-0.036-1.218,0.075-1.802
			c0.374-1.989,0.363-3.995,0.361-6.003c-0.001-0.602-0.046-1.218,0.062-1.802c0.398-2.124,0.371-4.263,0.371-6.406
			c0.001-0.602,0.033-1.203,0.063-1.804c0.108-2.069,0.229-4.138,0.331-6.207c0.038-0.802-0.062-1.622,0.073-2.404
			c0.383-2.191,0.372-4.396,0.39-6.605c0.008-0.935,0.08-1.869,0.142-2.803c0.115-1.801,0.262-3.601,0.357-5.402
			c0.071-1.335-0.002-2.682,0.134-4.009c0.259-2.535,0.381-5.068,0.354-7.616c-0.012-1.135,0.086-2.271,0.145-3.408
			c0.026-0.535,0.103-1.067,0.11-1.601c0.009-0.671-0.279-1.012-0.939-1.049c-0.868-0.05-1.739-0.044-2.609-0.044
			c-79.725-0.001-159.45-0.001-239.175,0c-0.736,0-1.474-0.016-2.209,0.014C1913.197,278.347,1912.812,278.444,1912.186,278.543z
			 M1897.767,549.968c0.46-0.389,0.889-0.702,1.26-1.073c2.078-2.08,4.134-4.183,6.213-6.262c4.585-4.586,9.187-9.154,13.767-13.741
			c4.108-4.116,8.193-8.255,12.301-12.373c2.171-2.177,4.376-4.321,6.553-6.494c2.508-2.501,5.011-5.012,7.494-7.539
			c0.35-0.356,0.877-0.659,0.791-1.335c-3.526-3.139-7.061-6.285-10.653-9.483c-0.296,0.231-0.634,0.442-0.908,0.716
			c-1.327,1.321-2.633,2.663-3.956,3.986c-12.247,12.243-24.496,24.483-36.743,36.723c-1.75,1.748-3.505,3.491-5.242,5.251
			c-0.455,0.46-1.062,0.851-1.019,1.616C1888.844,541.474,1896.526,549.095,1897.767,549.968z M2181.678,537.868
			c-3.188,3.183-6.395,6.382-9.595,9.589c-0.179,0.178-0.286,0.428-0.449,0.679c0.157,0.258,0.254,0.52,0.434,0.699
			c4.153,4.15,8.316,8.293,12.485,12.429c0.129,0.128,0.348,0.164,0.613,0.282c0.243-0.185,0.529-0.353,0.756-0.579
			c3.018-3.021,6.03-6.048,9.033-9.083c0.128-0.13,0.166-0.351,0.237-0.512C2194.113,549.889,2183.051,538.814,2181.678,537.868z
			 M2194.492,250.819c1.083-0.125,1.526-0.949,2.109-1.544c4.355-4.434,8.685-8.892,13.031-13.334
			c3.039-3.105,6.092-6.194,9.131-9.301c0.409-0.417,0.766-0.886,1.227-1.425c-0.705-0.231-1.134,0.017-1.615,0.218
			c-8.735,3.647-17.477,7.282-26.229,10.884c-0.706,0.291-1.293,0.671-1.813,1.2c-1.499,1.524-3,3.048-4.491,4.58
			c-0.073,0.076-0.057,0.239-0.101,0.447c0.982,0.979,2.44,1.249,3.541,2.109c1.053,0.824,2.2,1.541,2.964,2.669
			C2193.021,248.471,2193.747,249.655,2194.492,250.819z M2132.631,494.117c0.496,0.515,0.859,0.902,1.233,1.278
			c2.312,2.317,4.629,4.63,6.941,6.948c2.642,2.649,5.28,5.304,7.925,7.951c4.105,4.112,8.219,8.22,12.325,12.333
			c3.968,3.971,7.928,7.947,11.901,11.912c0.314,0.313,0.702,0.555,1.094,0.859c0.91-0.919,1.932-1.583,2.449-2.773
			c-0.172-0.25-0.289-0.492-0.47-0.672c-13.364-13.379-26.734-26.752-40.109-40.119c-0.13-0.13-0.341-0.18-0.606-0.312
			C2134.312,492.168,2133.549,493.067,2132.631,494.117z M2124.592,501.105c0.357,0.439,0.584,0.769,0.86,1.047
			c2.635,2.664,5.274,5.321,7.921,7.972c4.206,4.214,8.417,8.419,12.627,12.628c3.452,3.452,6.905,6.902,10.36,10.354
			c3.03,3.025,6.056,6.052,9.098,9.063c0.269,0.267,0.644,0.427,0.973,0.639c0.985-0.615,1.689-1.372,2.337-2.35
			c-0.554-0.59-1.039-1.133-1.553-1.647c-5.058-5.064-10.123-10.123-15.182-15.188c-7.141-7.146-14.274-14.3-21.413-21.447
			c-0.898-0.9-1.807-1.789-2.729-2.663c-0.583-0.555-0.949-0.553-1.559-0.02C2125.78,499.975,2125.256,500.487,2124.592,501.105z
			 M2182.158,265.315c-0.198-0.301-0.311-0.552-0.492-0.734c-3.026-3.023-6.059-6.041-9.102-9.046
			c-0.17-0.167-0.455-0.219-0.768-0.362c-3.726,3.609-7.412,7.188-10.905,10.961c-0.062,0.068-0.023,0.231-0.042,0.491
			c3.155,0.281,6.337-0.084,9.535,0.2c0.073,0.354,0.169,0.609,0.168,0.861c-0.007,0.868-0.036,1.735-0.077,2.603
			c-0.092,1.935-0.202,3.87-0.289,5.805c-0.014,0.321-0.015,0.681,0.413,0.794C2171.959,275.9,2180.802,267.072,2182.158,265.315z
			 M1869.676,245.001c1.592-0.154,2.902-0.713,3.986-1.782c0.905-0.892,1.739-1.865,2.707-2.682
			c1.567-1.323,2.278-3.044,2.698-5.021c-0.639-0.45-1.222-0.893-1.835-1.286c-1.349-0.867-2.714-1.71-4.07-2.564
			c-1.526-0.961-3.053-1.924-4.576-2.889c-0.627-0.397-1.229-0.455-1.844,0.048c-1.08,0.883-2.179,1.742-3.23,2.581
			C1863.979,233.044,1868.075,242.075,1869.676,245.001z M1910.266,266.459c-0.015-0.12,0.016-0.283-0.052-0.351
			c-8.056-8.112-16.117-16.219-24.186-24.318c-0.322-0.324-0.71-0.583-1.126-0.919c-0.864,1.042-1.362,2.191-1.919,3.259
			c0.942,1.291,20.548,20.985,22.427,22.543c1.489,0,3.024,0.004,4.56-0.01C1910.068,266.662,1910.167,266.53,1910.266,266.459z
			 M1874.527,251.109c1.693,1.705,3.192,3.225,4.701,4.736c4.108,4.115,8.219,8.229,12.331,12.339
			c2.601,2.6,5.204,5.195,7.814,7.782c0.261,0.258,0.501,0.675,1.139,0.291c0-0.573,0.013-1.233-0.002-1.893
			c-0.055-2.405-0.052-2.411-1.809-4.176c-5.515-5.542-11.031-11.082-16.554-16.617c-1.228-1.229-2.484-2.43-3.72-3.653
			c-0.433-0.43-0.903-0.561-1.444-0.252C1876.237,250.092,1875.501,250.536,1874.527,251.109z M1874.89,552.646
			c-0.405,0.332-0.729,0.569-1.019,0.841c-3.256,3.049-3.513,8.207,0.886,11.43c2.87,2.104,6.466,1.729,9.219-0.627
			c0.296-0.253,0.569-0.592,0.715-0.948c0.109-0.268,0.062-0.647-0.035-0.937c-0.077-0.231-0.328-0.411-0.515-0.6
			c-2.779-2.798-5.559-5.594-8.344-8.385C1875.563,553.188,1875.294,552.99,1874.89,552.646z M2177.631,250.276
			c1.316,1.745,8.49,8.862,9.87,9.771c0.943-1.324,1.122-2.806,0.947-4.354c-0.211-1.861-1.009-3.428-2.45-4.656
			c-1.416-1.207-3.02-1.991-4.898-1.961C2179.845,249.097,2178.58,249.277,2177.631,250.276z M1890.213,557.512
			c0.82-0.725,1.754-1.352,2.381-2.435c-1.614-1.866-3.422-3.449-5.095-5.157c-1.667-1.704-3.304-3.445-5.208-5.054
			c-0.461,0.424-0.855,0.764-1.223,1.13c-0.41,0.408-0.795,0.84-1.173,1.241C1881.042,548.792,1888.617,556.323,1890.213,557.512z"
			/>
		<path fill="#46C2CB" d="M1963.066,480.517c-0.072-0.344-0.199-0.666-0.2-0.987c-0.007-7.36-0.001-14.722,0.014-22.082
			c0-0.251,0.119-0.503,0.194-0.798c0.291-0.077,0.541-0.198,0.791-0.198c49.316,0.009,98.632,0.025,147.949,0.052
			c0.178,0,0.356,0.151,0.568,0.247c0.055,0.258,0.154,0.517,0.154,0.774c0.012,7.293,0.015,14.588,0.01,21.882
			c0,0.325-0.091,0.649-0.152,1.063c-0.402,0.067-0.78,0.163-1.162,0.186c-0.534,0.031-1.07,0.011-1.606,0.011
			c-47.979,0-95.959,0.001-143.939-0.005C1964.83,480.662,1963.961,480.776,1963.066,480.517z"/>
		<path fill="#46C2CB" d="M2112.349,420.068c0.302,1.812,0.294,22.063-0.017,23.81c-0.342,0.066-0.718,0.181-1.1,0.205
			c-0.6,0.037-1.204,0.015-1.807,0.015c-47.855,0-95.71,0-143.564,0c-0.865,0-1.729,0-2.439,0c-0.69-0.598-0.563-1.235-0.569-1.816
			c-0.017-2.276-0.008-4.55-0.008-6.827c0-4.418-0.005-8.835,0.003-13.252c0.002-0.725-0.098-1.469,0.198-2.068
			c0.145-0.115,0.191-0.163,0.246-0.193c0.058-0.033,0.125-0.068,0.188-0.068c49.059-0.021,98.116-0.04,147.175-0.055
			c0.4,0,0.802,0.016,1.201,0.048C2111.979,419.875,2112.096,419.96,2112.349,420.068z"/>
		<path fill="#46C2CB" d="M1963.431,355.812c-0.083-0.665-0.176-1.056-0.176-1.448c0.014-17.202,0.034-34.404,0.064-51.606
			c0-0.186,0.137-0.371,0.261-0.684c0.561,0,1.156,0,1.752,0c6.561,0,13.122-0.083,19.68,0.024
			c6.592,0.108,12.653,2.086,17.875,6.122c4.512,3.487,7.504,8.116,8.983,13.662c0.833,3.126,1.146,6.337,0.818,9.533
			c-0.802,7.817-4.145,14.265-10.599,18.984c-3.806,2.783-8.027,4.378-12.661,5.122c-1.735,0.279-3.448,0.375-5.185,0.376
			c-6.158,0.004-12.317,0.004-18.476-0.003C1965.043,355.894,1964.316,355.844,1963.431,355.812z M1975.188,345.364
			c0.33,0.051,0.718,0.163,1.106,0.165c2.673,0.013,5.349,0.033,8.021-0.013c1.198-0.021,2.423-0.062,3.587-0.316
			c2.635-0.577,5.04-1.725,7.178-3.382c0.575-0.446,1.115-0.967,1.568-1.535c2.491-3.119,3.962-6.617,3.84-10.68
			c-0.054-1.796,0.006-3.595-0.53-5.354c-1.149-3.774-3.193-6.891-6.551-9.043c-2.525-1.62-5.294-2.47-8.313-2.454
			c-2.675,0.013-5.348,0-8.021,0.004c-0.658,0.001-1.316,0.025-1.878,0.038c-0.546,0.813-0.404,1.569-0.407,2.291
			c-0.015,3.543-0.007,7.085-0.007,10.628c0,5.749-0.007,11.497,0.009,17.246C1974.791,343.744,1974.623,344.572,1975.188,345.364z"
			/>
		<path fill="#46C2CB" d="M2023.645,340.103c1.517,0.995,2.821,1.919,4.191,2.732c2.183,1.294,4.4,2.51,6.918,3.093
			c2.83,0.656,5.645,1.021,8.508,0.245c2.115-0.575,3.791-1.614,4.422-3.891c0.466-1.684-0.133-3.589-1.593-4.609
			c-1.546-1.081-3.255-1.85-5.064-2.363c-3.009-0.853-6.036-1.641-9.045-2.493c-2.712-0.769-5.259-1.89-7.601-3.495
			c-3.333-2.284-4.994-5.48-5.307-9.432c-0.095-1.196-0.105-2.407-0.053-3.606c0.213-4.811,2.466-8.54,6.278-11.339
			c2.745-2.014,5.853-3.144,9.285-3.316c0.999-0.05,1.995-0.277,2.991-0.274c6.936,0.021,13.283,1.932,18.938,6.007
			c0.322,0.232,0.646,0.466,1.028,0.743c-2.055,3.007-3.97,5.809-5.906,8.643c-0.837-0.159-1.41-0.617-2.02-0.989
			c-2.058-1.253-4.177-2.354-6.478-3.125c-2.722-0.912-5.486-1.059-8.289-0.7c-0.988,0.126-1.892,0.59-2.723,1.187
			c-2.329,1.676-2.165,5.362-0.365,6.884c0.995,0.841,2.106,1.402,3.329,1.769c2.356,0.706,4.72,1.383,7.081,2.072
			c2.948,0.861,5.86,1.811,8.676,3.063c2.322,1.033,4.2,2.604,5.801,4.513c1.31,1.561,2.092,3.39,2.326,5.439
			c0.104,0.927,0.368,1.849,0.368,2.772c0.004,4.433-1.24,8.431-4.32,11.73c-0.452,0.484-0.981,0.906-1.517,1.302
			c-2.741,2.031-5.836,3.112-9.193,3.704c-1.998,0.352-3.972,0.455-5.975,0.458c-0.268,0-0.539,0.025-0.803-0.009
			c-5.325-0.691-10.528-1.807-15.22-4.587c-1.032-0.612-2.018-1.309-2.989-2.014c-0.806-0.587-1.56-1.243-2.432-1.945
			C2019.063,345.487,2021.337,342.89,2023.645,340.103z"/>
		<path fill="#46C2CB" d="M2113.369,309.53c-2.211,2.982-4.747,5.55-7.136,8.38c-0.405-0.272-0.796-0.497-1.144-0.777
			c-1.51-1.221-3.065-2.371-4.802-3.259c-1.552-0.793-3.145-1.423-4.91-1.564c-0.86-0.068-1.714-0.401-2.564-0.383
			c-4.509,0.092-8.513,1.423-11.634,4.883c-2.492,2.765-3.935,5.938-4.428,9.66c-0.698,5.267,0.572,9.943,3.771,14.103
			c1.973,2.565,4.638,4.216,7.727,5.108c3.089,0.892,6.214,0.711,9.29-0.115c0.956-0.257,1.906-0.658,2.754-1.168
			c1.543-0.928,3.01-1.981,4.501-2.994c0.602-0.41,1.185-0.847,1.852-1.328c2.573,2.308,4.888,4.774,7.331,7.292
			c-0.934,0.924-1.708,1.737-2.532,2.498c-3.728,3.441-8.099,5.517-13.091,6.496c-3.201,0.626-6.391,0.519-9.584,0.414
			c-1.576-0.052-3.162-0.511-4.701-0.939c-5.448-1.513-9.984-4.528-13.551-8.861c-3.016-3.667-4.818-7.943-5.702-12.646
			c-0.527-2.805-0.519-5.609-0.312-8.384c0.225-2.992,1.117-5.887,2.376-8.649c1.314-2.887,3.038-5.494,5.214-7.79
			c2.327-2.456,5.116-4.292,8.159-5.731c2.416-1.142,4.965-1.797,7.626-2.214c2.277-0.356,4.538-0.408,6.793-0.297
			c6.968,0.342,13.157,2.667,18.244,7.583C2113.055,308.981,2113.137,309.174,2113.369,309.53z"/>
		<path fill="#46C2CB" d="M2070.031,385.56c0.574-0.036,1.149-0.101,1.724-0.103c3.683-0.011,7.365,0,11.047-0.011
			c0.728-0.002,1.452-0.065,2.224-0.101c1.865-4.868,3.188-9.806,5.01-14.999c0.346,0.966,0.57,1.558,0.771,2.157
			c1.302,3.924,2.625,7.841,3.874,11.78c0.246,0.774,0.636,1.128,1.397,1.147c0.536,0.013,1.071,0.02,1.606,0.02
			c3.481,0.002,6.964-0.006,10.444,0.007c0.645,0.003,1.315-0.124,2.086,0.265c-0.217,0.26-0.339,0.481-0.524,0.617
			c-3.342,2.447-6.689,4.883-10.036,7.322c-0.163,0.118-0.324,0.237-0.483,0.36c-1.014,0.779-1.03,0.785-0.646,2
			c0.964,3.051,1.941,6.096,2.918,9.144c0.461,1.444,0.929,2.887,1.47,4.566c-1.78-0.812-3.031-2.015-4.426-2.988
			c-1.372-0.957-2.705-1.963-4.057-2.947c-1.401-1.02-2.804-2.039-4.283-3.115c-2.325,1.357-4.276,3.1-6.428,4.548
			c-2.081,1.401-4.025,3.003-6.482,4.706c0.279-0.973,0.403-1.469,0.563-1.955c1.203-3.672,2.416-7.343,3.623-11.013
			c0.062-0.19,0.088-0.394,0.157-0.581c0.667-1.848,0.118-1.83-0.95-2.605c-3.299-2.397-6.586-4.812-9.876-7.223
			c-0.267-0.194-0.518-0.412-0.774-0.618C2069.995,385.812,2070.014,385.686,2070.031,385.56z"/>
		<path fill="#46C2CB" d="M1982.395,370.371c0.347,0.938,0.544,1.428,0.71,1.928c1.305,3.921,2.605,7.843,3.905,11.766
			c0.399,1.208,0.538,1.337,1.84,1.374c1.204,0.032,2.409,0.011,3.613,0.012c2.811,0.001,5.621-0.007,8.432,0.007
			c0.506,0.003,1.01,0.088,1.777,0.16c-1.273,1.454-2.732,2.244-4.026,3.227c-1.328,1.009-2.713,1.944-4.042,2.953
			c-1.318,1.002-2.765,1.846-4.004,3.097c0.579,2.479,1.527,4.826,2.229,7.245c0.697,2.408,1.609,4.753,2.323,7.507
			c-0.731-0.413-1.203-0.618-1.608-0.915c-3.289-2.405-6.564-4.831-9.853-7.238c-0.37-0.271-0.793-0.473-1.252-0.742
			c-2.216,1.293-4.13,2.965-6.208,4.399c-2.025,1.396-3.987,2.886-5.948,4.315c-0.563-0.374-0.347-0.771-0.236-1.114
			c1.226-3.807,2.463-7.609,3.698-11.413c0.146-0.444,0.33-0.879,0.438-1.331c0.136-0.562-0.011-1.009-0.531-1.38
			c-2.177-1.552-4.329-3.14-6.487-4.719c-1.614-1.182-3.224-2.37-4.801-3.53c0.167-0.694,0.65-0.513,0.995-0.514
			c3.948-0.018,7.896-0.008,11.844-0.018c0.723-0.002,1.445-0.06,2.201-0.093C1979.223,380.509,1980.584,375.641,1982.395,370.371z"
			/>
		<path fill="#46C2CB" d="M2023.422,409.6c1.585-5.014,3.319-9.809,4.684-14.77c-3.932-3.173-8.108-5.809-11.919-8.866
			c0.169-0.666,0.647-0.498,0.998-0.5c3.812-0.016,7.624-0.009,11.438-0.014c2.94-0.003,2.591,0.108,3.457-2.505
			c1.217-3.667,2.407-7.344,3.618-11.013c0.098-0.296,0.258-0.571,0.37-0.813c0.583,0.009,0.608,0.39,0.703,0.683
			c1.128,3.484,2.24,6.974,3.374,10.456c0.328,1.003,0.715,1.987,1.022,2.836c0.868,0.496,1.62,0.346,2.342,0.349
			c3.544,0.017,7.09,0.005,10.634,0.011c0.66,0.002,1.32,0.037,1.945,0.057c0.199,0.627-0.236,0.822-0.527,1.038
			c-3.277,2.418-6.562,4.829-9.857,7.22c-1.409,1.021-1.455,1.042-0.894,2.795c0.999,3.111,2.023,6.212,3.036,9.319
			c0.35,1.075,0.701,2.149,1.035,3.229c0.03,0.101-0.068,0.243-0.129,0.434c-1.372-0.565-2.416-1.601-3.585-2.436
			c-2.715-1.938-5.388-3.932-8.085-5.893c-0.728-0.529-1.015-0.525-1.796,0.045c-2.694,1.964-5.375,3.948-8.067,5.915
			c-1.022,0.748-2.061,1.473-3.102,2.195C2023.979,409.469,2023.785,409.485,2023.422,409.6z"/>
	</g>
</g>
</svg>
