<?xml version="1.0" encoding="utf-8"?>
<!-- Generator: Adobe Illustrator 16.0.0, SVG Export Plug-In . SVG Version: 6.00 Build 0)  -->
<!DOCTYPE svg PUBLIC "-//W3C//DTD SVG 1.1//EN" "http://www.w3.org/Graphics/SVG/1.1/DTD/svg11.dtd">
<svg version="1.1" id="Layer_1" xmlns="http://www.w3.org/2000/svg" xmlns:xlink="http://www.w3.org/1999/xlink" x="0px" y="0px"
	 width="578px" height="320px" viewBox="0 0 578 320" enable-background="new 0 0 578 268" xml:space="preserve">
<g>
	<g>
		<path fill="#FFCF7C" d="M48.318,259.401l-38.934-5.408l36.76-30.398l20.198,2.938L48.318,259.401z M14.161,252.638l33.066,4.592
			l15.976-29.132l-16.468-2.396L14.161,252.638z"/>
	</g>
</g>
<g>
	<g>
		<path fill="#FFCF7C" d="M19.719,258.409l2.175-45.68l35.891,42.417L19.719,258.409z M23.65,217.901l-1.825,38.32l31.934-2.737
			L23.65,217.901z"/>
	</g>
</g>
<g>
	<g>
		<path fill="#FFCF7C" d="M45.84,222.646l-33.27-22.945l31.596-87.392l1.912,0.578l-18.905,77.278L45.84,222.646z M14.975,198.93
			l24.73,17.055L25.04,190.467l14.657-59.917L14.975,198.93z"/>
	</g>
</g>
<g>
	<g>
		<path fill="#FFCF7C" d="M9.942,192.878L27.42,11.545L43.806,92.38L9.942,192.878z M28.125,25.086L13.603,175.753L41.739,92.25
			L28.125,25.086z"/>
	</g>
</g>
<g>
	<g>
		<path fill="#FFCF7C" d="M59.227,259.401l-18.024-32.868l20.198-2.938l36.76,30.398L59.227,259.401z M44.342,228.098l15.976,29.132
			l33.066-4.592L60.81,225.702L44.342,228.098z"/>
	</g>
</g>
<g>
	<g>
		<path fill="#FFCF7C" d="M87.826,258.409l-38.066-3.263l35.891-42.417L87.826,258.409z M53.786,253.484l31.934,2.737l-1.825-38.32
			L53.786,253.484z"/>
	</g>
</g>
<g>
	<g>
		<path fill="#FFCF7C" d="M61.705,222.646l18.667-32.481l-18.905-77.278l1.912-0.578l31.596,87.392L61.705,222.646z M67.848,130.55
			l14.657,59.917L67.84,215.985l24.73-17.055L67.848,130.55z"/>
	</g>
</g>
<g>
	<g>
		<path fill="#FFCF7C" d="M97.603,192.878L63.739,92.38l0.054-0.263l16.332-80.572L97.603,192.878z M65.806,92.25l28.136,83.502
			L79.42,25.086L65.806,92.25z"/>
	</g>
</g>
<g>
	<g>
		<g>
			
				<rect x="47.711" y="182.451" transform="matrix(0.6778 0.7353 -0.7353 0.6778 152.8471 18.1214)" fill="#FFCF7C" width="16.074" height="2"/>
		</g>
	</g>
	<g>
		<g>
			<path fill="#FFCF7C" d="M53.671,225.745l-0.232-0.347l-0.232,0.347l0.103-0.541l-24.204-36.097l10.943-12.936H67.59l10.167,12.96
				l-24.188,36.073L53.671,225.745z M46.666,188.806l6.773,35.713l6.773-35.713l1.965,0.373l-5.182,27.325l18.292-27.281
				l-8.669-11.052H40.976l-9.369,11.076l18.276,27.257l-5.182-27.325L46.666,188.806z"/>
		</g>
	</g>
	<g>
		<g>
			<rect x="30.356" y="188.177" fill="#FFCF7C" width="46.166" height="2"/>
		</g>
	</g>
	<g>
		<g>
			
				<rect x="50.501" y="175.414" transform="matrix(0.7353 0.6777 -0.6777 0.7353 137.958 13.6515)" fill="#FFCF7C" width="2" height="16.074"/>
		</g>
	</g>
</g>
<g>
	<g>
		<path fill="#FFCF7C" d="M46.083,171.373l-9.436-9.436l17.021-25.053l1.135,33.299L46.083,171.373z M39.231,161.693l7.564,7.564
			l5.947-0.811l-0.865-25.369L39.231,161.693z"/>
	</g>
</g>
<g>
	<g>
		<path fill="none" stroke="#FFCF7C" stroke-width="2" stroke-miterlimit="10" d="M39.439,161.648"/>
	</g>
</g>
<g>
	<g>
		<path fill="#FFCF7C" d="M61.378,171.373l-8.72-1.189l1.135-33.299l17.021,25.053L61.378,171.373z M54.719,168.447l5.947,0.811
			l7.564-7.564l-12.646-18.615L54.719,168.447z"/>
	</g>
</g>
<g>
	<g>
		<path fill="#FFCF7C" d="M45.92,108.457l6.776-52.236l28.326-45.932l-0.001,59.145L45.92,108.457z M54.624,56.904l-5.894,45.438
			l30.292-33.676l0.001-51.324L54.624,56.904z"/>
	</g>
</g>
<g>
	<g>
		<path fill="#FFCF7C" d="M61.54,108.457L26.438,69.433l0.09-60.483l28.237,47.278L61.54,108.457z M28.439,68.667l30.291,33.675
			l-5.895-45.445L28.517,16.181L28.439,68.667z"/>
	</g>
</g>
<g>
	<g>
		<g>
			<path fill="#70CDDD" d="M554.44,258.642l-41.026-2.83l18.202-42.006l27.72,4.265L554.44,258.642z M516.374,254.012l36.308,2.504
				l4.436-36.763l-24.28-3.735L516.374,254.012z"/>
		</g>
	</g>
	<g>
		<g>
			<path fill="#70CDDD" d="M560.247,211.393l-30.695-2.193l-16.509-38.042l25.826,9.593L560.247,211.393z M530.903,207.292
				l25.305,1.807l-18.622-26.691l-20.84-7.741L530.903,207.292z"/>
		</g>
	</g>
	<g>
		<g>
			<path fill="#70CDDD" d="M561.246,206.698l-19.417-26.886L560.5,84.964L561.246,206.698z M543.959,179.346l15.249,21.114
				l-0.586-95.6L543.959,179.346z"/>
		</g>
	</g>
	<g>
		<g>
			<path fill="#70CDDD" d="M539.229,179.74l-12.732-31.457L568.61,19.269l1.932,0.502L539.229,179.74z M528.625,148.209
				l9.934,24.543L565.44,35.426L528.625,148.209z"/>
		</g>
	</g>
	<g>
		<g>
			<path fill="#70CDDD" d="M481.41,257.369l-6.353-36.001l51.585-5.653l-19.765,38.117L481.41,257.369z M477.397,223.124
				l5.647,31.999l22.533-3.13l17.569-33.883L477.397,223.124z"/>
		</g>
	</g>
	<g>
		<g>
			<path fill="#70CDDD" d="M473.424,246.376l-35.6-12.118l32.57-11.362L473.424,246.376z M443.963,234.234l27.066,9.214
				l-2.303-17.852L443.963,234.234z"/>
		</g>
	</g>
</g>
<g>
	<g>
		<g>
			<path fill="#70CDDD" d="M456.014,258.642l-4.896-40.571l27.72-4.265l18.202,42.006L456.014,258.642z M453.336,219.753
				l4.436,36.763l36.308-2.504l-16.464-37.994L453.336,219.753z"/>
		</g>
	</g>
	<g>
		<g>
			<path fill="#70CDDD" d="M450.208,211.393l21.378-30.643l25.826-9.593L480.903,209.2L450.208,211.393z M472.868,182.408
				l-18.622,26.691l25.305-1.807l14.157-32.625L472.868,182.408z"/>
		</g>
	</g>
	<g>
		<g>
			<path fill="#70CDDD" d="M449.208,206.698l0.746-121.734l18.671,94.848L449.208,206.698z M451.832,104.86l-0.586,95.6
				l15.249-21.114L451.832,104.86z"/>
		</g>
	</g>
	<g>
		<g>
			<path fill="#70CDDD" d="M471.225,179.74L439.912,19.771l1.932-0.502l42.113,129.014L471.225,179.74z M445.014,35.426
				l26.881,137.326l9.934-24.543L445.014,35.426z"/>
		</g>
	</g>
	<g>
		<g>
			<path fill="#70CDDD" d="M529.044,257.369l-25.467-3.538l-19.765-38.117l51.585,5.653L529.044,257.369z M504.877,251.993
				l22.533,3.13l5.647-31.999l-45.749-5.015L504.877,251.993z"/>
		</g>
	</g>
	<g>
		<g>
			<path fill="#70CDDD" d="M537.03,246.376l3.029-23.48l32.57,11.362L537.03,246.376z M541.727,225.596l-2.303,17.852l27.066-9.214
				L541.727,225.596z"/>
		</g>
	</g>
</g>
<g>
	<g>
		<path fill="#70CDDD" d="M487.845,206.293l18.815-24.836l14.3,24.083L487.845,206.293z M506.459,185.035l-14.519,19.164
			l25.553-0.581L506.459,185.035z"/>
	</g>
</g>
<g>
	<g>
		<path fill="#70CDDD" d="M533.307,169.69l-40.822-2.148l-29.364-91.669L533.307,169.69z M493.969,165.617l35.178,1.852
			L468.665,86.62L493.969,165.617z"/>
	</g>
</g>
<g>
	<g>
		<polygon fill="#70CDDD" points="533.307,169.69 493.174,167.578 493.28,165.581 529.147,167.468 465.092,81.845 466.694,80.647 		
			"/>
	</g>
</g>
<g>
	<g>
		<path fill="#70CDDD" d="M477.813,170.356l70.186-93.818l-29.364,91.669L477.813,170.356z M542.456,87.286l-60.482,80.848
			l35.178-1.852L542.456,87.286z"/>
	</g>
</g>
<g>
	<g>
		<path fill="#70CDDD" d="M504.466,123.553l-12.019-17.673c-1.086-1.147-10.821-12.48,7.381-31.982
			c6.099-6.535,8.913-11.933,8.365-16.046c-0.532-3.99-4.082-6.189-6.935-7.958c-1.127-0.698-2.101-1.302-2.74-1.94l-2.648-2.65
			l3.616,0.978c0.255,0.069,25.448,7.223,22.735,36.391c-0.274,2.944,0.051,4.985,0.965,6.065c0.833,0.984,2.127,1.079,3.27,1.162
			c1.097,0.08,2.23,0.163,2.688,1.194c0.621,1.4-0.363,3.439-7.13,12.101L504.466,123.553z M508.13,52.856
			c1.024,1.294,1.794,2.839,2.046,4.731c0.64,4.801-2.267,10.583-8.886,17.674c-17.698,18.962-7.805,28.848-7.375,29.26l0.139,0.163
			l10.6,15.588l15.816-18.346c1.623-2.08,6.522-8.35,6.813-9.927c-0.237-0.052-0.65-0.082-0.971-0.105
			c-1.304-0.095-3.274-0.239-4.65-1.864c-1.292-1.527-1.76-3.994-1.43-7.543C521.723,66.448,514.549,57.542,508.13,52.856z"/>
	</g>
</g>
<g>
	<g>
		<path fill="#70CDDD" d="M482.499,92.515c-0.484,0-1.215-0.001-4.038-4.865c-1.736-2.992-3.258-6.175-4.175-8.732
			c-8.394-23.381,9.351-43.474,9.531-43.674l1.543,1.269c-4.338,5.784-5.945,11.529-4.776,17.074
			c2.181,10.344,13.353,16.725,13.466,16.788l1.738,0.976l-1.821,0.81c-4.929,2.191-11.325,14.507-10.43,18.535
			c0.102,0.458,0.16,0.984-0.183,1.412l-0.301,0.375L482.499,92.515z M478.364,47.611c-3.608,7.72-6.462,18.746-2.195,30.631
			c1.355,3.777,3.76,8.142,5.343,10.564c0.615-5.575,5.926-14.349,10.152-17.561c-3.258-2.158-11.123-8.194-13.035-17.234
			C478.181,51.894,478.093,49.758,478.364,47.611z"/>
	</g>
</g>
<g>
	<g>
		<path fill="#70CDDD" d="M525.412,70.653l0.152-1.824c0.622-7.453-10.938-19.432-11.054-19.552l-0.185-0.19l-0.066-0.256
			c-3.099-11.952-2.2-22.026,2.67-29.943c6.832-11.104,18.907-13.84,19.418-13.951l5-1.087l-4.224,2.889
			c-3.842,2.628-2.98,5.47,0.919,15.918c1.346,3.605,3.021,8.093,4.802,13.616c6.845,21.218-15.589,33.402-15.816,33.522
			L525.412,70.653z M516.129,48.077c1.479,1.555,10.562,11.381,11.396,19.091c1.909-1.223,5.403-3.727,8.479-7.365
			c5.922-7.005,7.583-14.715,4.938-22.915c-1.768-5.48-3.434-9.944-4.772-13.531c-2.817-7.547-4.485-12.016-2.905-15.307
			c-3.979,1.596-10.456,5.084-14.645,11.907C514.09,27.334,513.252,36.794,516.129,48.077z"/>
	</g>
</g>
<g>
	<g>
		<path fill="#9B1C1F" d="M249.944,258.825h-42.303l-6.589-34.511l21.383-3.12L249.944,258.825z M209.295,256.825h36.709
			l-24.473-33.477l-18.124,2.644L209.295,256.825z"/>
	</g>
</g>
<g>
	<g>
		<path fill="#9B1C1F" d="M220.701,214.624h-28.827v-20.522l22.865-34.217l13.509,21.852L220.701,214.624z M193.874,212.624h25.234
			l7.007-30.534l-11.442-18.508l-20.8,31.126V212.624z"/>
	</g>
</g>
<g>
	<g>
		<path fill="#9B1C1F" d="M160.039,260.211l34.435-37.133l6.888,30.768L160.039,260.211z M193.353,227.228l-27.943,30.133
			l33.532-5.166L193.353,227.228z"/>
	</g>
</g>
<g>
	<g>
		<path fill="#9B1C1F" d="M151.664,254.021h-26.046l24.104-40.508l42.378,5.153L151.664,254.021z M129.135,252.021h21.777
			l36.497-31.911l-36.635-4.455L129.135,252.021z"/>
	</g>
</g>
<g>
	<g>
		<path fill="#9B1C1F" d="M172.908,258.825h-42.303l27.509-37.63l21.383,3.12L172.908,258.825z M134.544,256.825h36.709
			l5.887-30.833l-18.124-2.644L134.544,256.825z"/>
	</g>
</g>
<g>
	<g>
		<path fill="#9B1C1F" d="M153.564,250.146l-18.684-78.067l97.154,54.913L153.564,250.146z M137.894,176.08l17.125,71.552
			l71.92-21.222L137.894,176.08z"/>
	</g>
</g>
<g>
	<g>
		<path fill="#9B1C1F" d="M148.957,176.849l-21.558-52.436l0.021-0.243l5.675-64.751l19.202,46.405l-0.01,0.223L148.957,176.849z
			 M129.434,124.103l17.948,43.656l2.896-61.583l-15.905-38.437L129.434,124.103z"/>
	</g>
</g>
<g>
	<g>
		<path fill="#9B1C1F" d="M188.675,214.624h-28.827l-7.548-32.888l13.509-21.852l22.865,34.217V214.624z M161.441,212.624h25.234
			v-17.916l-20.8-31.126l-11.442,18.508L161.441,212.624z"/>
	</g>
</g>
<g>
	<g>
		<path fill="#9B1C1F" d="M220.51,260.212l-41.322-6.366l6.887-30.768L220.51,260.212z M181.607,252.195l33.532,5.166
			l-27.943-30.133L181.607,252.195z"/>
	</g>
</g>
<g>
	<g>
		<path fill="#9B1C1F" d="M254.931,254.021h-26.046l-40.437-35.355l42.378-5.153L254.931,254.021z M229.636,252.021h21.777
			l-21.64-36.365l-36.635,4.455L229.636,252.021z"/>
	</g>
</g>
<g>
	<g>
		<path fill="#9B1C1F" d="M190.812,191.274l-18.764-44.889L190.832,94.3l17.662,53.052L190.812,191.274z M174.193,146.332
			l16.583,39.674l15.587-38.719l-15.607-46.882L174.193,146.332z"/>
	</g>
</g>
<g>
	<g>
		<path fill="#9B1C1F" d="M190.897,176.115l-12.9-28.672l12.921-33.285l12.143,33.887L190.897,176.115z M180.165,147.387
			l10.698,23.777l10.048-23.188l-10.068-28.098L180.165,147.387z"/>
	</g>
</g>
<g>
	<g>
		<path fill="#9B1C1F" d="M146.024,158.404l-14.533-35.453l4.098-45.872l13.003,29.948L146.024,158.404z M133.526,122.643
			l10.948,26.707l2.097-41.956l-9.69-22.315L133.526,122.643z"/>
	</g>
</g>
<g>
	<g>
		<path fill="#9B1C1F" d="M163.043,210.858l-6.948-26.811l10.382-16.691l18.497,28.117L163.043,210.858z M158.247,184.375
			l6.01,23.189l17.981-12.614l-15.713-23.883L158.247,184.375z"/>
	</g>
</g>
<g>
	<g>
		<path fill="#9B1C1F" d="M217.645,210.858l-21.931-15.386l18.497-28.117l10.382,16.691L217.645,210.858z M198.451,194.95
			l17.981,12.614l6.01-23.189l-8.278-13.309L198.451,194.95z"/>
	</g>
</g>
<g>
	<g>
		<path fill="#9B1C1F" d="M134.818,67.707l26.334-35.52l20.599-4.694l3.591-2.88l15.797-1.528l0.318,1.97l-18.813,4.287
			L134.818,67.707z M162.318,33.972l-16.666,22.48l32.528-26.094L162.318,33.972z"/>
	</g>
</g>
<g>
	<g>
		<polygon fill="#9B1C1F" points="186.235,35.579 184.235,35.579 184.235,8.665 191.442,15.872 190.028,17.286 186.235,13.493 		"/>
	</g>
</g>
<g>
	<g>
		<path fill="#9B1C1F" d="M232.195,176.849l-3.341-71.025l19.202-46.405l5.697,64.994L232.195,176.849z M230.873,106.176
			l2.896,61.583l17.948-43.656l-4.94-56.363L230.873,106.176z"/>
	</g>
</g>
<g>
	<g>
		<path fill="#9B1C1F" d="M235.127,158.404l-2.568-51.376l0.093-0.215l12.911-29.733l4.098,45.872L235.127,158.404z M234.58,107.395
			l2.097,41.956l10.948-26.707l-3.355-37.564L234.58,107.395z"/>
	</g>
</g>
<g>
	<g>
		<path fill="#9B1C1F" d="M246.303,67.682L197.821,28.79l-18.106-3.731l0.298-1.975l15.797,1.528l2.887,2.316l20.615,4.249
			L246.303,67.682z M202.122,29.676l33.408,26.8l-17.372-23.495L202.122,29.676z"/>
	</g>
</g>
<g>
	<g>
		<polygon fill="#9B1C1F" points="196.917,35.579 194.917,35.579 194.917,13.599 191.463,17.265 190.007,15.894 196.917,8.56 		"/>
	</g>
</g>
<g>
	<g>
		<path fill="#9B1C1F" d="M155.246,101.663l-9.6-22.588l9.577-21.97l9.601,21.46L155.246,101.663z M147.824,79.084l7.4,17.412
			l7.422-17.901l-7.399-16.54L147.824,79.084z"/>
	</g>
</g>
<g>
	<g>
		<path fill="#9B1C1F" d="M155.717,89.771c-8.061,0-16.182-3.512-24.139-10.437l-0.886-0.771l0.902-0.751
			c0.408-0.34,10.145-8.314,24.559-8.314c7.917,0,15.697,2.437,23.125,7.243l0.926,0.599l-0.687,0.863
			C179.141,78.674,170.143,89.771,155.717,89.771z M133.835,78.629c7.275,6.067,14.632,9.142,21.882,9.142
			c11.222,0,19.117-7.429,21.491-9.973c-6.799-4.182-13.876-6.301-21.055-6.301C144.958,71.497,136.575,76.689,133.835,78.629z"/>
	</g>
</g>
<g>
	<g>
		<path fill="#9B1C1F" d="M223.224,100.163l-9.578-23.099l9.601-21.46l9.577,21.97L223.224,100.163z M215.824,77.094l7.422,17.901
			l7.4-17.412l-7.423-17.029L215.824,77.094z"/>
	</g>
</g>
<g>
	<g>
		<path fill="#9B1C1F" d="M222.753,88.271C222.753,88.271,222.753,88.271,222.753,88.271c-14.427-0.001-23.425-11.096-23.801-11.569
			l-0.687-0.863l0.926-0.599c7.428-4.807,15.208-7.243,23.125-7.243c14.414,0,24.151,7.975,24.559,8.314l0.902,0.751l-0.886,0.771
			C238.935,84.759,230.813,88.271,222.753,88.271z M201.263,76.297c2.38,2.544,10.293,9.973,21.489,9.974
			c7.25,0,14.606-3.074,21.881-9.141c-2.747-1.939-11.147-7.133-22.317-7.133C215.139,69.997,208.062,72.115,201.263,76.297z"/>
	</g>
</g>
<g>
	<g>
		<path fill="#9B1C1F" d="M172.357,124.896l-13.943-20.392l26.748-23.997L172.357,124.896z M161.055,104.822l10.557,15.44
			l9.695-33.611L161.055,104.822z"/>
	</g>
</g>
<g>
	<g>
		<path fill="#9B1C1F" d="M154.187,174.837l0.575-68.393l16.092,22.989L154.187,174.837z M156.708,112.714l-0.425,50.607
			l12.333-33.597L156.708,112.714z"/>
	</g>
</g>
<g>
	<g>
		<path fill="#9B1C1F" d="M158.595,149.028l0.708-27.629l7.084,8.501L158.595,149.028z M161.167,126.759l-0.292,11.371l3.207-7.873
			L161.167,126.759z"/>
	</g>
</g>
<g>
	<g>
		<path fill="#9B1C1F" d="M170.503,113.523l-5.05-8.656l10.821-9.378L170.503,113.523z M168.017,105.292l1.95,3.344l2.229-6.966
			L168.017,105.292z"/>
	</g>
</g>
<g>
	<g>
		<path fill="#9B1C1F" d="M208.612,125.396l-12.805-44.389l26.748,23.997L208.612,125.396z M199.662,87.151l9.695,33.611
			l10.557-15.44L199.662,87.151z"/>
	</g>
</g>
<g>
	<g>
		<path fill="#9B1C1F" d="M226.783,175.337l-16.667-45.403l16.092-22.989L226.783,175.337z M212.354,130.225l12.333,33.597
			l-0.425-50.607L212.354,130.225z"/>
	</g>
</g>
<g>
	<g>
		<path fill="#9B1C1F" d="M222.375,149.528l-7.793-19.127l7.084-8.501L222.375,149.528z M216.888,130.758l3.207,7.873l-0.292-11.371
			L216.888,130.758z"/>
	</g>
</g>
<g>
	<g>
		<path fill="#9B1C1F" d="M210.467,114.023l-5.771-18.034l10.821,9.378L210.467,114.023z M208.774,102.169l2.229,6.966l1.95-3.344
			L208.774,102.169z"/>
	</g>
</g>
<g>
	<g>
		<path fill="#9B1C1F" d="M155.078,90.588l-3.404-11.572l4.061-9.476l4.084,9.531L155.078,90.588z M153.796,79.142l1.596,5.428
			l2.258-5.483l-1.916-4.469L153.796,79.142z"/>
	</g>
</g>
<g>
	<g>
		<path fill="#9B1C1F" d="M223.392,89.588l-4.742-11.517l4.084-9.531l4.061,9.476L223.392,89.588z M220.819,78.087l2.258,5.483
			l1.596-5.428l-1.939-4.524L220.819,78.087z"/>
	</g>
</g>
<g>
	<g>
		<path fill="#9B1C1F" d="M196.077,76.543L171.99,59.573l26.344-18.279l11.146,10.589L196.077,76.543z M175.48,59.585l19.913,14.029
			l11.597-21.339l-8.854-8.411L175.48,59.585z"/>
	</g>
</g>
<g>
	<g>
		<path fill="#9B1C1F" d="M181.393,76.543L167.99,51.882l11.146-10.589l26.344,18.279L181.393,76.543z M170.48,52.276l11.597,21.339
			l19.913-14.029l-22.656-15.721L170.48,52.276z"/>
	</g>
</g>
<g>
	<g>
		<path fill="#9B1C1F" d="M228.075,250.146l-78.47-23.155l97.154-54.913L228.075,250.146z M154.699,226.409l71.92,21.222
			l17.125-71.552L154.699,226.409z"/>
	</g>
</g>
<g>
	<g>
		<g>
			<g>
				<g>
					<g>
						<path fill="#ACD480" d="M401.41,257.745l-24.056-1.552l24.831-22.504L401.41,257.745z M382.199,254.502l17.278,1.114
							l0.557-17.278L382.199,254.502z"/>
					</g>
				</g>
				<g>
					<g>
						<path fill="#ACD480" d="M365.161,259.521l36.315-139.093l1.963,0.35l-10.7,109.675L365.161,259.521z M400.223,133.145
							l-31.164,119.361l21.756-22.931L400.223,133.145z"/>
					</g>
				</g>
				<g>
					<g>
						<path fill="#ACD480" d="M403.848,105.744l-38.063-26.433l38.387-66.652l8.624,36.651L403.848,105.744z M368.435,78.716
							l33.937,23.567l8.387-52.898l-7.376-31.349L368.435,78.716z"/>
					</g>
				</g>
				<g>
					<g>
						<path fill="#ACD480" d="M379.235,138.22l-20.824-20.823l41.651-8.185L379.235,138.22z M362.479,118.636l16.506,16.505
							l16.507-22.992L362.479,118.636z"/>
					</g>
				</g>
				<g>
					<g>
						<path fill="#ACD480" d="M312.166,253.1l59.143-47.603l-9.376,46.16L312.166,253.1z M368.245,210.53l-50.191,40.397
							l42.234-1.224L368.245,210.53z"/>
					</g>
				</g>
				<g>
					<g>
						<path fill="#ACD480" d="M310.556,249.915l-32.374-19.425l29.47-11.501l33.107,4.318L310.556,249.915z M282.706,230.872
							l27.626,16.575l25.797-22.727l-28.227-3.682L282.706,230.872z"/>
					</g>
				</g>
			</g>
			<g>
				<g>
					<path fill="#ACD480" d="M374.015,199.153l-20.355-2.909l-8.476-29.85l30.315,15.705L374.015,199.153z M355.229,194.449
						l16.977,2.425l1.185-13.614l-25.019-12.961L355.229,194.449z"/>
				</g>
			</g>
			<g>
				<g>
					<path fill="#ACD480" d="M378.56,179.993l-12.668-27.571l32.79-28.695L378.56,179.993z M368.332,152.943l9.996,21.757
						l15.878-44.399L368.332,152.943z"/>
				</g>
			</g>
			<g>
				<g>
					<path fill="#ACD480" d="M344.132,217.687l-40.788-0.815l61.183-16.316L344.132,217.687z M317.543,215.155l25.878,0.517
						l12.939-10.869L317.543,215.155z"/>
				</g>
			</g>
		</g>
		<g>
			<g>
				<g>
					<g>
						<path fill="#ACD480" d="M290.81,257.745l-0.775-24.056l24.831,22.504L290.81,257.745z M292.185,238.338l0.557,17.278
							l17.278-1.114L292.185,238.338z"/>
					</g>
				</g>
				<g>
					<g>
						<path fill="#ACD480" d="M327.059,259.521l-27.578-29.069l-10.7-109.675l1.963-0.35L327.059,259.521z M301.405,229.575
							l21.756,22.931l-31.164-119.361L301.405,229.575z"/>
					</g>
				</g>
				<g>
					<g>
						<path fill="#ACD480" d="M288.372,105.744l-8.947-56.434l8.624-36.651l38.387,66.652L288.372,105.744z M281.461,49.385
							l8.387,52.898l33.937-23.567l-34.947-60.68L281.461,49.385z"/>
					</g>
				</g>
				<g>
					<g>
						<path fill="#ACD480" d="M312.973,138.204l-20.766-28.924l43.017,7.419L312.973,138.204z M296.679,112.081l16.568,23.076
							L331,118L296.679,112.081z"/>
					</g>
				</g>
				<g>
					<g>
						<path fill="#ACD480" d="M380.054,253.1l-49.766-1.442l-9.376-46.16L380.054,253.1z M331.932,249.704l42.234,1.224
							l-50.191-40.397L331.932,249.704z"/>
					</g>
				</g>
				<g>
					<g>
						<path fill="#ACD480" d="M381.664,249.915l-30.203-26.607l33.107-4.318l29.47,11.501L381.664,249.915z M356.091,224.72
							l25.797,22.727l27.626-16.575l-25.196-9.833L356.091,224.72z"/>
					</g>
				</g>
			</g>
			<g>
				<g>
					<path fill="#ACD480" d="M318.205,199.153l-1.484-17.064l31.401-15.7l-9.585,29.858L318.205,199.153z M318.831,183.27
						l1.184,13.604l17-2.429l7.749-24.142L318.831,183.27z"/>
				</g>
			</g>
			<g>
				<g>
					<path fill="#ACD480" d="M313.578,179.762L293.59,123.87l34.796,29.245L313.578,179.762z M297.962,130.157l16.012,44.774
						l11.863-21.347L297.962,130.157z"/>
				</g>
			</g>
			<g>
				<g>
					<path fill="#ACD480" d="M348.087,217.687l-20.395-17.131l61.183,16.316L348.087,217.687z M335.859,204.804l12.939,10.869
						l25.878-0.517L335.859,204.804z"/>
				</g>
			</g>
		</g>
	</g>
</g>
<g>
	<g>
		<path fill="#ACD480" d="M346.436,164.698l-14.161-12.949l29.539-0.791L346.436,164.698z M337.281,153.616l9.171,8.385l9.958-8.897
			L337.281,153.616z"/>
	</g>
</g>
</svg>
