<?xml version="1.0" encoding="utf-8"?>
<!-- Generator: Adobe Illustrator 16.0.0, SVG Export Plug-In . SVG Version: 6.00 Build 0)  -->
<!DOCTYPE svg PUBLIC "-//W3C//DTD SVG 1.1//EN" "http://www.w3.org/Graphics/SVG/1.1/DTD/svg11.dtd">
<svg version="1.1" id="Layer_1" xmlns="http://www.w3.org/2000/svg" xmlns:xlink="http://www.w3.org/1999/xlink" x="0px" y="0px"
	 width="549px" height="108px" viewBox="0 0 549 108" enable-background="new 0 0 549 108" xml:space="preserve">
<g>
	<g>
		<path fill="#754D25" d="M491.37,63.206c-6.096,0-11.887-2.25-17.213-6.688l-0.484-0.405l0.156-0.611
			c0.145-0.56,3.566-13.737,8.334-17.913c0.076-0.067,0.176-0.164,0.297-0.281c1.33-1.284,4.859-4.695,11.182-4.695
			c0.742,0,1.51,0.049,2.281,0.146c4.889,0.611,7.092,1.402,8.131,2.918c0.959,1.4,0.633,3.147,0.215,4.816
			c-0.838,3.348-3.717,4.849-5.262,5.427c1.336,4.523,5.619,12.263,5.666,12.346l0.443,0.799l-0.756,0.514
			C504.142,59.726,498.925,63.206,491.37,63.206z M475.933,55.386c4.818,3.862,10.008,5.82,15.438,5.82
			c5.314,0,9.439-1.92,11.088-2.824c-1.281-2.381-4.789-9.104-5.637-12.915l-0.217-0.976l0.977-0.218
			c0.037-0.008,3.914-0.931,4.748-4.266c0.441-1.77,0.461-2.637,0.074-3.201c-0.633-0.925-2.709-1.562-6.729-2.064
			c-0.689-0.086-1.373-0.13-2.033-0.13c-5.516,0-8.621,3.003-9.791,4.133c-0.152,0.146-0.275,0.265-0.369,0.348
			C479.716,42.391,476.661,52.752,475.933,55.386z"/>
	</g>
	<g>
		<path fill="#754D25" d="M494.798,70.763c-5.068,0-8.193-1.475-11.238-2.912c-2.834-1.337-5.51-2.601-9.762-2.601
			c-9.164,0-16.014-4.96-18.043-9.86c-1.211-2.926-0.725-5.786,1.336-7.847c6.043-6.045,18.289,3.019,18.807,3.407l-1.199,1.6
			c-0.113-0.084-11.367-8.42-16.193-3.593c-1.898,1.899-1.539,4.13-0.902,5.667c1.775,4.287,7.91,8.626,16.195,8.626
			c4.701,0,7.707,1.42,10.615,2.792c3.936,1.857,7.652,3.61,15.715,2.223c9.072-1.564,15.6-2.863,16.961-5.34
			c0.283-0.514,0.568-1.414-0.213-3.29c-0.922-2.213-4.27-4.768-14.936-4.402c-0.289,0.011-0.508,0.018-0.643,0.018v-2
			c0.121,0,0.314-0.007,0.572-0.016c9.484-0.341,15.156,1.563,16.852,5.631c0.836,2.007,0.875,3.649,0.121,5.023
			c-1.801,3.275-8.145,4.583-18.375,6.347C498.325,70.604,496.456,70.763,494.798,70.763z"/>
	</g>
</g>
<g>
	<g>
		<path fill="#ACD480" d="M39.779,67.15c-6.756,0-12.25-5.495-12.25-12.25s5.494-12.25,12.25-12.25c6.754,0,12.25,5.495,12.25,12.25
			S46.533,67.15,39.779,67.15z M39.779,44.65c-5.652,0-10.25,4.598-10.25,10.25s4.598,10.25,10.25,10.25s10.25-4.598,10.25-10.25
			S45.432,44.65,39.779,44.65z"/>
	</g>
	<g>
		<path fill="#ACD480" d="M70.764,67.15c-6.756,0-12.25-5.495-12.25-12.25s5.494-12.25,12.25-12.25c6.754,0,12.25,5.495,12.25,12.25
			S77.518,67.15,70.764,67.15z M70.764,44.65c-5.652,0-10.25,4.598-10.25,10.25s4.598,10.25,10.25,10.25s10.25-4.598,10.25-10.25
			S76.416,44.65,70.764,44.65z"/>
	</g>
	<g>
		<path fill="#ACD480" d="M51.736,55.607l-1.414-1.414c0.107-0.106,2.666-2.586,5.699-2.413c1.643,0.106,3.084,0.951,4.285,2.511
			l-1.586,1.219c-0.846-1.098-1.77-1.665-2.828-1.733C53.76,53.651,51.756,55.589,51.736,55.607z"/>
	</g>
</g>
<g>
	<g>
		<polygon fill="#70CDDD" points="290.414,30.341 290.195,30.644 262.416,69.027 260.795,67.854 288.357,29.773 287.9,24.542 
			283.357,25.901 258.045,65.971 256.355,64.903 282.066,24.199 289.682,21.924 		"/>
	</g>
	<g>
		<path fill="#70CDDD" d="M267.646,72.157l-5.721,4.167l-11.834-8.067l1-7.387L267.646,72.157z M261.889,73.878l2.287-1.667
			l-11.537-7.865l-0.398,2.955L261.889,73.878z"/>
	</g>
	<g>
		<path fill="#70CDDD" d="M254.273,83.614l-8.912-6.075l3.398-1.865l5-7.336l6.312,4.302l-5.025,7.373L254.273,83.614z
			 M249.184,77.723l3.758,2.562l0.23-1.074l4.121-6.045l-3.006-2.05l-4.146,6.081L249.184,77.723z"/>
	</g>
	<g>
		<polygon fill="#70CDDD" points="260.736,67.446 289.389,23.641 289.385,30.057 262.193,68.827 		"/>
	</g>
</g>
<g>
	<g>
		<g>
			<path fill="#FFCF7C" d="M126.329,68.599c-3.871,0-7.629-0.998-11.172-2.966l-0.793-0.44l5.201-11.965l-5.117-13.932l0.594-0.447
				c0.195-0.147,4.861-3.608,11.49-3.608c3.902,0,7.66,1.204,11.172,3.579l0.666,0.451l-5.15,12.879l5.156,13.008l-0.695,0.444
				C137.489,65.724,132.915,68.599,126.329,68.599z M116.929,64.31c3.004,1.52,6.162,2.289,9.4,2.289
				c4.551,0,8.105-1.541,9.561-2.287l-4.822-12.166l4.842-12.107c-2.977-1.857-6.127-2.798-9.377-2.798
				c-4.662,0-8.295,1.938-9.68,2.801l4.867,13.249L116.929,64.31z"/>
		</g>
	</g>
	<g>
		<g>
			<g>
				<path fill="#FFCF7C" d="M126.144,73.48c-11.855,0-21.5-9.645-21.5-21.5s9.645-21.5,21.5-21.5s21.5,9.645,21.5,21.5
					S137.999,73.48,126.144,73.48z M126.144,32.48c-10.752,0-19.5,8.748-19.5,19.5s8.748,19.5,19.5,19.5s19.5-8.748,19.5-19.5
					S136.896,32.48,126.144,32.48z"/>
			</g>
		</g>
		<g>
			<g>
				<path fill="#FFCF7C" d="M119.31,50.314c0,0,5.832,1.666,6,3.166c0.166,1.5-6.334,8.333-7.334,7.5s-2.332,3.778-2.332,3.778
					s17.436,6.41,21.5,0c2.5-3.944-13.334-3.278-6-12.611c4.369-5.562,2.832-4.667,2.832-4.667S107.142,26.647,119.31,50.314z"/>
			</g>
		</g>
		<g>
			<g>
				<path fill="#FFCF7C" d="M109.31,72.118c-1.32,0-2.379-0.39-3.146-1.157c-4.102-4.102,3.596-16.088,13.316-25.81
					c8.658-8.658,17.766-14.475,22.662-14.475c1.322,0,2.381,0.39,3.148,1.157c4.1,4.101-3.596,16.088-13.318,25.81
					C123.315,66.302,114.208,72.118,109.31,72.118z M142.142,33.677c-3.451,0-11.615,4.67-20.541,13.596
					c-11.285,11.285-14.717,20.167-13.316,21.567c0.23,0.23,0.686,0.278,1.025,0.278c3.451,0,11.615-4.67,20.541-13.596
					c11.285-11.286,14.717-20.167,13.318-21.567C142.938,33.725,142.483,33.677,142.142,33.677z"/>
			</g>
		</g>
	</g>
</g>
<g>
	<g>
		<path fill="#ACD6F3" d="M363.586,72.194h-49.652l25.188-38.857L363.586,72.194z M317.613,70.194h42.35l-20.867-33.143
			L317.613,70.194z"/>
	</g>
	<g>
		<path fill="#ACD6F3" d="M338.775,72.193c-7.352,0-13.332-5.981-13.332-13.333s5.98-13.333,13.332-13.333
			s13.334,5.981,13.334,13.333S346.127,72.193,338.775,72.193z M338.775,47.527c-6.248,0-11.332,5.084-11.332,11.333
			s5.084,11.333,11.332,11.333c6.25,0,11.334-5.084,11.334-11.333S345.025,47.527,338.775,47.527z"/>
	</g>
	<g>
		<rect x="338.107" y="35.194" fill="#ACD6F3" width="2" height="35.999"/>
	</g>
</g>
<g>
	<g>
		<path fill="#932A8E" d="M412.439,45.318h-7.625c-0.285,0-0.557-0.121-0.746-0.333s-0.279-0.495-0.248-0.777
			c0.09-0.839,0.047-3.243-1.213-4.252c-0.365-0.292-0.861-0.375-1.436-0.472c-2.225-0.375-4.068-1.159-4.082-6.97
			c-0.092-0.751-0.67-6.544,2.738-10.456c2.004-2.299,4.945-3.465,8.744-3.465h0.107c3.801,0,6.742,1.166,8.744,3.465
			c3.408,3.912,2.832,9.705,2.74,10.456c-0.012,4.84-1.205,5.939-3.547,6.355c-0.75,0.134-1.291,0.229-1.795,0.904
			c-1.744,2.336-1.416,4.272-1.402,4.354c0.055,0.292-0.023,0.598-0.215,0.825C413.016,45.182,412.736,45.318,412.439,45.318z
			 M405.842,43.318h5.559c0.059-1.106,0.412-2.857,1.82-4.741c0.977-1.309,2.174-1.521,3.047-1.676
			c1.143-0.203,1.896-0.337,1.896-4.451c0-0.045,0.002-0.091,0.008-0.136c0.008-0.055,0.713-5.545-2.264-8.951
			c-1.605-1.838-4.037-2.77-7.229-2.77h-0.107c-3.191,0-5.623,0.932-7.229,2.77c-2.975,3.406-2.271,8.896-2.264,8.951
			c0.006,0.045,0.01,0.091,0.01,0.136c0,4.655,1.012,4.826,2.414,5.062c0.742,0.125,1.582,0.267,2.354,0.883
			C405.484,39.698,405.807,41.964,405.842,43.318z"/>
	</g>
	<g>
		<g>
			<path fill="#932A8E" d="M407.34,45.253c-0.553,0-1-0.447-1-1v-2.309c0-0.553,0.447-1,1-1s1,0.447,1,1v2.309
				C408.34,44.806,407.893,45.253,407.34,45.253z"/>
		</g>
		<g>
			<path fill="#932A8E" d="M409.912,45.253c-0.553,0-1-0.447-1-1v-2.309c0-0.553,0.447-1,1-1s1,0.447,1,1v2.309
				C410.912,44.806,410.465,45.253,409.912,45.253z"/>
		</g>
	</g>
	<g>
		<g>
			<path fill="#932A8E" d="M404.273,36.351c-1.969,0-3.57-1.602-3.57-3.57c0-1.97,1.602-3.572,3.57-3.572s3.572,1.603,3.572,3.572
				C407.846,34.749,406.242,36.351,404.273,36.351z M404.273,31.208c-0.865,0-1.57,0.705-1.57,1.572c0,0.866,0.705,1.57,1.57,1.57
				c0.867,0,1.572-0.704,1.572-1.57C405.846,31.913,405.141,31.208,404.273,31.208z"/>
		</g>
		<g>
			<path fill="#932A8E" d="M412.979,36.351c-1.969,0-3.572-1.602-3.572-3.57c0-1.97,1.604-3.572,3.572-3.572s3.57,1.603,3.57,3.572
				C416.549,34.749,414.947,36.351,412.979,36.351z M412.979,31.208c-0.867,0-1.572,0.705-1.572,1.572
				c0,0.866,0.705,1.57,1.572,1.57c0.865,0,1.57-0.704,1.57-1.57C414.549,31.913,413.844,31.208,412.979,31.208z"/>
		</g>
	</g>
	<g>
		<path fill="#932A8E" d="M408.549,39.714c-1.203,0-1.668-0.609-1.84-0.973c-0.562-1.197,0.561-2.755,1.07-3.369l0.701-0.845
			l0.775,0.776c0.449,0.448,1.869,2.014,1.32,3.338C410.373,39.131,409.857,39.714,408.549,39.714z"/>
	</g>
	<g>
		<path fill="#932A8E" d="M415.045,71.098c-2.988,0-3.658-4.919-3.762-5.906l-0.117-1.104h1.111c0.072,0,0.229,0.015,0.438,0.041
			c0.943,0.121,1.41,0.106,1.641,0.061c-0.248-0.676-1.83-3.035-11.365-9.894c-7.531-5.416-11.188-10.539-10.869-15.226
			c0.328-4.818,4.732-7.205,4.918-7.305c0.486-0.26,1.094-0.073,1.354,0.415c0.258,0.487,0.072,1.092-0.414,1.352
			c-0.057,0.03-3.623,1.999-3.863,5.691c-0.254,3.892,3.219,8.542,10.043,13.449c11.631,8.364,12.699,10.874,12.123,12.34
			c-0.439,1.111-1.732,1.251-2.803,1.201c0.324,1.446,0.926,2.885,1.566,2.885l0,0c2.262-0.003,3.641-0.71,4.215-2.161
			c1.176-2.969-1.166-8.148-2.525-9.428c-0.617-0.583-1.285-1.081-1.932-1.563c-1.637-1.222-3.33-2.486-3.773-4.921
			c-0.369-2.031,2.188-3.815,5.426-6.074c2.924-2.039,6.238-4.351,7.152-6.727c1.639-4.261-4.498-7.696-4.561-7.73
			c-0.482-0.267-0.66-0.874-0.395-1.357c0.266-0.484,0.873-0.662,1.355-0.396c0.318,0.173,7.732,4.311,5.467,10.203
			c-1.135,2.947-4.715,5.445-7.875,7.648c-1.773,1.237-4.742,3.308-4.604,4.076c0.303,1.66,1.494,2.55,3.004,3.676
			c0.689,0.516,1.404,1.049,2.105,1.709c1.695,1.595,4.59,7.639,3.014,11.62c-0.617,1.56-2.172,3.421-6.072,3.426H415.045z"/>
	</g>
	<g>
		<path fill="#932A8E" d="M420.367,88.538c-1.186,0-2.373-0.432-4.17-1.086l-0.531-0.192c-0.742-0.27-1.586-0.186-2.361-0.056
			c-0.387,0.066-0.787,0.135-1.188,0.135c-2.992,0-3.969-2.759-4.664-21.025c-0.182-1.397,0.053-3.998,2.123-4.324l0.121-0.019
			l0.123,0.011c0.561,0.05,5.441,0.853,4.365,13.607c-0.42,4.98,0.068,6.348,0.252,6.675c0.346-0.185,1.127-0.998,1.855-2.251
			c1.748-2.994,4.449-3.633,6.578-1.522c0.754,0.746,2,1.211,3.1,1.622c1.496,0.558,2.789,1.039,2.945,2.283
			c0.154,1.234-1.041,2.25-2.355,3.164C423.518,87.676,422.104,88.537,420.367,88.538z M414.541,85.066
			c0.633,0,1.223,0.102,1.805,0.312l0.535,0.193c1.654,0.603,2.652,0.966,3.486,0.966c1.098,0,2.225-0.654,5.053-2.621
			c0.953-0.663,1.311-1.058,1.441-1.242c-0.311-0.212-1.064-0.493-1.588-0.689c-1.227-0.456-2.752-1.025-3.811-2.075
			c-0.461-0.457-0.902-0.688-1.311-0.688c-0.678,0-1.475,0.672-2.131,1.798c-0.713,1.225-2.141,3.281-3.678,3.281
			c-0.504,0-0.959-0.206-1.316-0.595c-0.654-0.712-1.34-2.297-0.834-8.285c0.797-9.452-1.797-11.14-2.418-11.403
			c-0.322,0.26-0.428,1.379-0.332,2.132c0.525,13.655,1.297,19.189,2.674,19.189c0.23,0,0.518-0.049,0.852-0.105
			C413.428,85.154,413.947,85.066,414.541,85.066z"/>
	</g>
	<g>
		<path fill="#932A8E" d="M407.531,71.233c-0.041,0-0.086-0.003-0.129-0.008c-0.289-0.038-7.1-0.958-8.795-4.801
			c-0.768-1.742-0.393-3.716,1.115-5.865c3.301-4.704,4.498-5.692,5.551-5.869c0.783-0.127,1.314,0.255,1.668,0.51
			c0.15,0.108,0.279,0.202,0.404,0.248c2.445,0.888,2.9,7.843,0.959,14.152c0.168,0.206,0.254,0.478,0.219,0.761
			C408.457,70.865,408.027,71.233,407.531,71.233z M405.52,56.655c-0.164,0.064-1.082,0.669-4.16,5.053
			c-1.078,1.537-1.389,2.853-0.922,3.91c0.83,1.881,3.914,2.939,5.957,3.395c1.914-6.205,0.91-11.179,0.213-11.712
			c-0.334-0.114-0.625-0.325-0.838-0.479C405.684,56.759,405.564,56.673,405.52,56.655z"/>
	</g>
	<g>
		<path fill="#932A8E" d="M418.797,57.258l-0.098-0.004c-0.152-0.006-3.734-0.183-6.619-3.21l-1.062-1.116l1.455-0.516
			c0.086-0.031,8.553-3.107,7.521-9.177l-0.088-0.521l0.381-0.367c0.031-0.03,3.113-3.015,3.82-5.488l0.742-2.591l1.127,2.447
			c0.174,0.379,4.23,9.329,0.969,15.434c-1.477,2.766-4.186,4.479-8.049,5.093L418.797,57.258z M414.65,53.652
			c1.809,1.327,3.629,1.561,4.041,1.597c3.154-0.523,5.336-1.884,6.49-4.043c1.924-3.601,0.738-8.665-0.203-11.505
			c-0.99,1.63-2.307,3.068-2.939,3.722C422.652,49.059,417.357,52.352,414.65,53.652z"/>
	</g>
	<g>
		<path fill="#932A8E" d="M398.947,66.831l-0.939-0.44c-5.949-2.789-9.469-6.548-10.459-11.169
			c-1.666-7.771,4.457-15.006,4.719-15.31l1.758-2.046v2.697c0,1.685,2.471,5.71,4.029,7.852l0.475,0.654l-0.539,0.602
			c-1.281,1.427-1.781,2.782-1.484,4.029c0.568,2.383,3.939,4.169,5.189,4.655l1.199,0.467l-0.748,1.048
			c-0.434,0.606-1.943,4.006-2.795,6.007L398.947,66.831z M392.566,42.886c-1.6,2.429-4.086,7.163-3.061,11.926
			c0.805,3.738,3.637,6.868,8.422,9.313c0.523-1.21,1.371-3.13,2.004-4.377c-1.637-0.823-4.682-2.705-5.369-5.578
			c-0.412-1.722,0.066-3.475,1.422-5.218C395.143,47.736,393.438,45.143,392.566,42.886z"/>
	</g>
	<g>
		<path fill="#932A8E" d="M421.244,82.968c-0.139,0-0.279-0.028-0.414-0.09c-0.225-0.103-0.383-0.153-0.486-0.179
			c-0.227,0.211-0.547,0.316-0.877,0.249c-0.541-0.108-0.893-0.635-0.785-1.177c0.029-0.144,0.166-0.634,0.723-0.919
			c0.57-0.294,1.309-0.226,2.254,0.205c0.504,0.229,0.725,0.822,0.496,1.324C421.986,82.75,421.623,82.968,421.244,82.968z"/>
	</g>
	<g>
		<path fill="#932A8E" d="M428.998,86.644c-1.846,0-3.447-1-3.545-1.062c-0.465-0.297-0.604-0.915-0.307-1.381
			c0.297-0.464,0.914-0.601,1.379-0.309l0,0c0.023,0.015,2.352,1.452,3.877,0.309c0.441-0.332,1.066-0.242,1.398,0.2
			c0.332,0.441,0.242,1.068-0.199,1.399C430.766,86.428,429.855,86.644,428.998,86.644z"/>
	</g>
</g>
<g>
	<path fill="#D06C28" d="M190.67,74.849l-1.605-21.168h-5.797l1.715-23.098h25.781l-12.941,19.696h6.885L190.67,74.849z
		 M185.693,51.43h5.457l1.209,15.925l8.471-14.824h-7.182l12.943-19.696h-19.518L185.693,51.43z"/>
</g>
</svg>
