<?xml version="1.0" encoding="utf-8"?>
<!-- Generator: Adobe Illustrator 16.0.0, SVG Export Plug-In . SVG Version: 6.00 Build 0)  -->
<!DOCTYPE svg PUBLIC "-//W3C//DTD SVG 1.1//EN" "http://www.w3.org/Graphics/SVG/1.1/DTD/svg11.dtd">
<svg version="1.1" xmlns="http://www.w3.org/2000/svg" xmlns:xlink="http://www.w3.org/1999/xlink" x="0px" y="0px" width="400px"
	 height="206.667px" viewBox="0 0 400 206.667" enable-background="new 0 0 400 206.667" xml:space="preserve">
<g id="Layer_5">
</g>
<g id="Layer_1">
</g>
<g id="titles">
</g>
<g id="Layer_3" display="none">
</g>
<g id="Layer_4">
	<g>
		<path d="M133.213,99.882c-0.097-0.351-0.259-0.589-0.484-0.722c-0.173-0.108-0.385-0.163-0.63-0.163
			c-0.061,0-0.125,0.003-0.262,0.023l-0.108,0.029c-0.162,0.024-0.324,0.052-0.479,0.084c-0.156,0.032-0.406,0.089-0.748,0.179
			c-3.69,0.958-6.817,3.006-9.293,6.088c-2.516,3.127-3.422,6.134-2.694,8.936c0.38,1.464,1.131,2.518,2.234,3.132
			c0.664,0.368,1.417,0.554,2.238,0.554c0.533,0,1.105-0.079,1.701-0.234c2.223-0.576,4.167-2.233,5.779-4.927
			c1.156-1.94,1.943-4.137,2.35-6.557l1.934,7.447c0.071,0.296,0.229,0.535,0.457,0.693c0.244,0.166,0.557,0.208,0.849,0.13
			c0.283-0.07,0.502-0.245,0.62-0.507c0.09-0.213,0.091-0.478,0.006-0.809L133.213,99.882z M129.528,110.681
			c-1.401,2.881-3.185,4.619-5.301,5.167c-0.375,0.097-0.732,0.146-1.063,0.146c-0.515,0-0.967-0.114-1.383-0.347
			c-0.681-0.383-1.125-1.005-1.356-1.902c-0.574-2.211,0.208-4.644,2.326-7.231c2.156-2.636,4.997-4.425,8.445-5.32l0.166-0.044
			C131.498,104.698,130.882,107.901,129.528,110.681z"/>
		<path d="M166.261,95.274c0.97-0.852,1.798-1.326,2.458-1.408c0.755-0.089,1.354,0.041,1.802,0.407
			c0.456,0.377,0.726,0.959,0.825,1.779c0.069,0.567-0.004,1.052-0.225,1.487c-0.223,0.445-0.654,0.908-1.255,1.356l-0.101,0.065
			c-0.14,0.092-0.244,0.207-0.309,0.339c-0.072,0.144-0.099,0.307-0.078,0.466c0.026,0.222,0.124,0.415,0.285,0.56
			c0.149,0.132,0.322,0.213,0.606,0.197c0.083-0.008,0.166-0.026,0.261-0.055c0.085-0.028,0.175-0.063,0.201-0.09l0.134-0.072
			c0.914-0.527,1.585-1.207,1.995-2.019c0.409-0.812,0.555-1.738,0.433-2.756c-0.151-1.235-0.653-2.202-1.493-2.876
			c-0.841-0.675-1.869-0.951-3.069-0.8c-1,0.122-1.999,0.57-2.967,1.332c-0.811,0.632-1.951,1.842-3.474,3.685l-0.037-0.303
			c-0.147-1.204-0.521-2.118-1.11-2.717c-0.622-0.633-1.439-0.903-2.437-0.775c-0.722,0.088-1.467,0.382-2.217,0.875
			c-0.724,0.477-1.472,1.151-2.245,2.028l-0.046,0.066c-0.113,0.111-0.199,0.244-0.248,0.38c-0.053,0.144-0.068,0.309-0.046,0.5
			c0.021,0.154,0.105,0.374,0.391,0.55c0.155,0.093,0.345,0.137,0.598,0.134c0.121-0.012,0.239-0.051,0.304-0.092
			c0.085-0.042,0.169-0.1,0.184-0.122l0.178-0.127c0.098-0.097,0.245-0.23,0.438-0.407l0.131-0.119
			c1.069-1.022,1.956-1.582,2.636-1.663c0.452-0.054,0.781,0.042,0.997,0.317c0.183,0.234,0.436,0.797,0.6,2.149l1.267,10.396
			c0.036,0.308,0.132,0.531,0.297,0.687c0.104,0.097,0.291,0.213,0.588,0.213c0.051,0,0.105-0.003,0.159-0.01
			c0.284-0.033,0.528-0.162,0.712-0.38c0.183-0.225,0.261-0.484,0.226-0.746l-1.013-8.321
			C164.032,97.534,165.265,96.151,166.261,95.274z"/>
		<path d="M247.476,101.915c-0.396,2.189,0.058,4.244,1.349,6.108c1.293,1.866,3.058,3.015,5.243,3.413
			c0.522,0.095,1.043,0.143,1.547,0.143c1.617,0,3.153-0.491,4.569-1.461c1.854-1.28,3-3.053,3.403-5.27
			c0.409-2.235-0.024-4.3-1.289-6.138c-1.263-1.836-3.046-2.976-5.302-3.387c-2.226-0.402-4.306,0.045-6.144,1.332
			C249.014,97.942,247.878,99.712,247.476,101.915z M260.655,99.829c0.969,1.394,1.285,2.918,0.967,4.661
			c-0.31,1.709-1.149,3.014-2.566,3.991c-1.401,0.964-2.942,1.298-4.608,0.996c-1.644-0.298-2.978-1.171-3.964-2.595
			c-1.003-1.442-1.344-2.949-1.041-4.61c0.302-1.672,1.141-2.969,2.563-3.964c1.083-0.756,2.214-1.124,3.457-1.124
			c0.39,0,0.794,0.038,1.202,0.112C258.381,97.607,259.686,98.436,260.655,99.829z"/>
		<path d="M266.993,99.655l4.122,1.025l-1.951,7.205l-0.061,0.243c-0.539,2.17-0.516,3.79,0.07,4.95
			c0.593,1.168,1.822,1.993,3.655,2.451c0.493,0.124,1.004,0.186,1.518,0.186c0.6,0,1.221-0.085,1.845-0.254
			c1.159-0.313,2.111-0.838,2.857-1.591l0.034-0.04c0.028-0.021,0.063-0.049,0.104-0.082c0.198-0.16,0.331-0.322,0.432-0.578
			c0.062-0.265,0.009-0.519-0.149-0.728c-0.14-0.19-0.342-0.323-0.594-0.387c-0.18-0.042-0.361-0.032-0.521,0.03
			c-0.124,0.047-0.249,0.133-0.402,0.276l-0.146,0.089c-0.857,0.636-1.636,1.042-2.31,1.205c-0.294,0.07-0.604,0.105-0.921,0.105
			c-0.393,0-0.809-0.054-1.238-0.162c-1.208-0.3-1.99-0.824-2.325-1.559c-0.354-0.772-0.323-2.008,0.09-3.672l1.944-7.207
			l6.386,1.589c0.291,0.074,0.536,0.055,0.752-0.056c0.162-0.084,0.373-0.26,0.46-0.616c0.066-0.268,0.029-0.537-0.102-0.77
			c-0.139-0.258-0.355-0.429-0.624-0.495l-6.31-1.572l7.058-23.726c0.077-0.299,0.059-0.563-0.061-0.79
			c-0.085-0.157-0.264-0.363-0.635-0.455c-0.249-0.062-0.498-0.021-0.722,0.113c-0.159,0.094-0.369,0.285-0.46,0.636l-7.157,23.729
			l-4.156-1.033c-0.289-0.074-0.521-0.071-0.743,0.021c-0.171,0.075-0.394,0.248-0.488,0.64c-0.095,0.374,0.008,0.649,0.107,0.808
			C266.492,99.422,266.714,99.584,266.993,99.655z"/>
		<path d="M284.374,104.05l4.053,1.277l-2.392,7.072l-0.073,0.236c-0.675,2.136-0.752,3.754-0.234,4.945
			c0.518,1.205,1.694,2.104,3.496,2.673c0.612,0.194,1.254,0.292,1.907,0.292c0.472,0,0.962-0.051,1.456-0.152
			c1.18-0.245,2.161-0.711,2.941-1.409l0.042-0.043c0.027-0.019,0.063-0.042,0.105-0.074c0.209-0.148,0.351-0.302,0.464-0.536
			c0.087-0.261,0.05-0.53-0.101-0.754c-0.129-0.197-0.316-0.336-0.569-0.418c-0.186-0.056-0.384-0.048-0.516-0.003
			c-0.129,0.04-0.262,0.118-0.427,0.252l-0.147,0.081c-0.899,0.582-1.701,0.938-2.382,1.059c-0.663,0.118-1.379,0.054-2.147-0.188
			c-1.189-0.375-1.939-0.946-2.229-1.699c-0.305-0.79-0.197-2.022,0.315-3.66l2.385-7.074l6.278,1.979
			c0.283,0.088,0.546,0.08,0.74-0.007c0.169-0.07,0.394-0.229,0.508-0.586c0.082-0.256,0.063-0.524-0.053-0.778
			c-0.124-0.264-0.329-0.448-0.596-0.533l-6.215-1.96l7.744-23.517c0.094-0.295,0.091-0.558-0.016-0.795
			c-0.079-0.163-0.247-0.379-0.592-0.483c-0.242-0.079-0.501-0.055-0.733,0.062c-0.167,0.084-0.392,0.261-0.507,0.624l-7.838,23.497
			l-4.065-1.281c-0.282-0.094-0.551-0.097-0.736-0.028c-0.179,0.062-0.418,0.218-0.542,0.618c-0.087,0.288-0.067,0.558,0.062,0.81
			C283.889,103.789,284.1,103.962,284.374,104.05z"/>
		<path d="M310.323,110.303c-2.18-0.838-4.309-0.809-6.312,0.082c-2.002,0.895-3.439,2.448-4.274,4.615
			c-0.89,2.312-0.921,4.458-0.094,6.376c0.827,1.922,2.391,3.337,4.646,4.206c1.271,0.491,2.494,0.741,3.634,0.741l0.172-0.002
			c1.194-0.027,2.472-0.344,3.775-0.932l0.183-0.075c0.133-0.068,0.251-0.148,0.347-0.235c0.118-0.105,0.211-0.242,0.266-0.384
			c0.099-0.242,0.092-0.492-0.022-0.724c-0.106-0.214-0.284-0.374-0.519-0.463c-0.107-0.041-0.218-0.061-0.447-0.057
			c-0.13,0.007-0.264,0.035-0.4,0.085l-0.172,0.031c-1.404,0.501-2.523,0.756-3.342,0.756c-0.799-0.003-1.664-0.181-2.572-0.53
			c-1.808-0.694-3.052-1.762-3.697-3.171c-0.591-1.296-0.63-2.703-0.115-4.287l11.856,4.569c0.383,0.147,0.72,0.16,0.965,0.064
			c0.294-0.106,0.515-0.352,0.656-0.723l0.04-0.102c0.704-1.825,0.609-3.752-0.28-5.728
			C313.73,112.445,312.286,111.062,310.323,110.303z M313.201,118.776l-11.055-4.286c0.688-1.155,1.643-1.956,2.906-2.438
			c1.422-0.542,2.883-0.527,4.372,0.044c1.521,0.588,2.593,1.524,3.275,2.862C313.303,116.144,313.468,117.397,313.201,118.776z"/>
		<path d="M334.846,122.269c-0.36-1.017-1.098-1.789-2.193-2.295c-0.916-0.418-1.997-0.56-3.223-0.421
			c-1.028,0.115-2.636,0.548-4.893,1.318l0.127-0.277c0.507-1.101,0.67-2.077,0.482-2.9c-0.199-0.866-0.761-1.518-1.67-1.937
			c-0.607-0.278-1.321-0.419-2.122-0.419l-0.222,0.003c-0.875,0.026-1.839,0.203-2.977,0.549l-0.062,0.029
			c-0.161,0.033-0.312,0.104-0.419,0.194c-0.123,0.095-0.224,0.227-0.307,0.404c-0.062,0.142-0.104,0.372,0.041,0.661
			c0.099,0.198,0.248,0.347,0.462,0.449c0.11,0.048,0.22,0.073,0.364,0.076c0.062,0,0.131-0.005,0.155-0.012l0.198-0.016
			c0.163-0.036,0.416-0.083,0.77-0.15c1.434-0.307,2.5-0.316,3.116-0.034c0.562,0.258,0.658,0.577,0.683,0.795
			c0.033,0.293-0.047,0.903-0.617,2.144l-4.372,9.515c-0.131,0.281-0.167,0.522-0.11,0.738c0.065,0.243,0.244,0.435,0.537,0.571
			c0.151,0.068,0.307,0.102,0.461,0.102c0.111,0,0.223-0.018,0.329-0.053c0.274-0.09,0.48-0.271,0.595-0.521l3.5-7.613
			c2.194-0.825,3.968-1.354,5.275-1.577c1.261-0.218,2.23-0.186,2.831,0.088c0.7,0.323,1.132,0.747,1.32,1.295
			c0.19,0.555,0.114,1.191-0.232,1.946c-0.231,0.507-0.558,0.893-0.969,1.146c-0.427,0.262-1.036,0.43-1.784,0.496l-0.105,0.003
			c-0.163,0.002-0.313,0.044-0.447,0.125c-0.133,0.082-0.237,0.199-0.318,0.367c-0.114,0.262-0.086,0.482-0.048,0.599
			c0.062,0.231,0.216,0.412,0.413,0.5c0.076,0.038,0.156,0.067,0.228,0.085c0.092,0.026,0.175,0.046,0.239,0.038l0.335,0.012
			c0.979,0,1.847-0.228,2.578-0.677c0.774-0.477,1.384-1.189,1.812-2.118C335.128,124.37,335.208,123.283,334.846,122.269z"/>
		<path d="M109.243,105.197c15.868-8.7,27.898-20.362,22.64-43.685c-0.121-0.539-0.659-0.878-1.195-0.756
			c-0.539,0.122-0.877,0.657-0.756,1.195c4.968,22.03-6.014,32.947-21.431,41.395L99.75,81.5c-0.206-0.513-0.788-0.761-1.301-0.556
			s-0.762,0.788-0.557,1.3l8.835,22.055c-4.495,2.362-9.313,4.551-14.193,6.766l-2.872,1.306c-3.901,1.78-7.258,3.585-10.082,5.41
			L69.459,92.515c-0.206-0.513-0.789-0.761-1.301-0.556c-0.513,0.205-0.762,0.788-0.557,1.3l10.281,25.666
			c-5.44,3.838-8.51,7.757-9.141,11.715c-0.751,4.712,2.305,7.588,2.435,7.708c0.192,0.177,0.434,0.264,0.675,0.264
			c0.269,0,0.536-0.107,0.733-0.319c0.375-0.403,0.352-1.035-0.049-1.412c-0.1-0.093-2.413-2.317-1.812-5.965
			c0.415-2.518,2.288-5.997,7.927-10.077l6.344,15.837c0.157,0.391,0.532,0.628,0.929,0.628c0.124,0,0.25-0.023,0.372-0.072
			c0.513-0.205,0.762-0.788,0.557-1.3l-6.513-16.257c2.644-1.739,5.97-3.576,10.153-5.485l2.869-1.304
			c4.769-2.164,9.569-4.346,14.108-6.735l7.815,19.51c0.157,0.391,0.532,0.628,0.929,0.628c0.124,0,0.25-0.023,0.372-0.072
			c0.513-0.205,0.762-0.788,0.557-1.3L109.243,105.197z"/>
		<path d="M301.421,132.583c-27.274,24.343-71.622,3.47-82.004-3.452c-10.364-6.909-18.862-11.047-25.77-13.383
			c0.172-2.907,0.172-6.351-0.003-10.317c-0.006-0.13-0.742-13.22-1.35-13.875c-0.294-0.319-0.761-0.412-1.156-0.227
			c-0.394,0.184-0.624,0.601-0.569,1.032c0.293,2.312,0.67,6.042,0.922,10.191c-1.008,1.657-3.029,3.59-4.918,4.013
			c-3.817,0.853-7.608-1.554-8.462-5.366c-0.519-2.317,0.388-6.199,1.83-7.836c0.347-0.394,0.309-0.994-0.085-1.341
			c-0.393-0.346-0.994-0.31-1.341,0.085c-1.83,2.079-2.906,6.61-2.258,9.507c0.935,4.176,4.654,7.023,8.767,7.023
			c0.648,0,1.306-0.071,1.963-0.218c1.733-0.388,3.389-1.6,4.654-2.96c0.14,3.256,0.18,6.62,0.027,9.655
			c-16.93-5.113-23.557,1.013-24.502,2.02c-1.347,1.433-1.966,3.45-1.698,5.535c0.347,2.708,2.131,5.258,4.895,6.996
			c2.968,1.868,8.488,3.21,13.597,1.742c3.602-1.033,6.34-3.305,7.919-6.57c0.768-1.588,1.304-3.928,1.605-6.997
			c6.812,2.364,15.048,6.438,24.823,12.956c6.915,4.61,28.529,15.232,50.571,15.231c11.918-0.001,23.965-3.108,33.874-11.951
			c0.412-0.368,0.448-1,0.08-1.412C302.465,132.25,301.832,132.216,301.421,132.583z M190.078,123.966
			c-1.343,2.777-3.587,4.634-6.67,5.519c-4.314,1.24-9.294,0.178-11.98-1.512c-2.256-1.419-3.704-3.445-3.976-5.558
			c-0.193-1.511,0.223-2.9,1.172-3.911c1.76-1.872,5.225-3.436,10.595-3.436c3.349,0,7.435,0.608,12.309,2.127
			C191.282,120.016,190.829,122.414,190.078,123.966z"/>
		<path d="M206.738,64.476c0.488,0.26,1.093,0.077,1.354-0.41c6.114-11.426,20.385-15.747,31.808-9.633
			c11.425,6.113,15.747,20.381,9.634,31.807c-5.154,9.633-16.105,14.215-26.262,11.753l1.649-24.567
			c0.037-0.551-0.38-1.028-0.931-1.064c-0.569-0.05-1.027,0.38-1.065,0.931l-1.62,24.125c-1.214-0.41-2.412-0.92-3.579-1.544
			c-0.488-0.259-1.092-0.077-1.354,0.41c-0.261,0.487-0.077,1.093,0.41,1.354c1.427,0.764,2.895,1.376,4.385,1.845l-1.303,19.4
			c-0.037,0.551,0.38,1.028,0.931,1.064c0.023,0.002,0.046,0.002,0.068,0.002c0.521,0,0.961-0.405,0.997-0.933l1.276-19.009
			c1.866,0.426,3.755,0.643,5.633,0.643c9.109,0,17.938-4.888,22.527-13.466c6.633-12.398,1.943-27.881-10.454-34.514
			c-12.396-6.634-27.881-1.945-34.515,10.454C206.067,63.609,206.251,64.215,206.738,64.476z"/>
		<path d="M150.166,96.715c-1.082-0.649-2.516-0.694-4.382-0.14c-1.899,0.565-3.174,2.017-3.977,3.381l-0.667-2.658
			c-0.134-0.536-0.684-0.859-1.213-0.727c-0.536,0.134-0.861,0.677-0.727,1.213l3.527,14.058c0.113,0.454,0.521,0.757,0.969,0.757
			c0.081,0,0.163-0.01,0.244-0.03c0.536-0.134,0.861-0.677,0.727-1.213l-2.064-8.226c0.011-0.031,0.029-0.056,0.037-0.088
			c0.061-0.229,1.038-3.753,3.714-4.55c1.28-0.381,2.217-0.402,2.782-0.062c0.499,0.299,0.839,0.969,1.07,2.106
			c0.109,0.541,0.634,0.894,1.179,0.781c0.541-0.11,0.891-0.638,0.78-1.179C151.945,99.051,151.498,97.514,150.166,96.715z"/>
	</g>
</g>
</svg>
