<?xml version="1.0" encoding="utf-8"?>
<!-- Generator: Adobe Illustrator 16.0.0, SVG Export Plug-In . SVG Version: 6.00 Build 0)  -->
<!DOCTYPE svg PUBLIC "-//W3C//DTD SVG 1.1//EN" "http://www.w3.org/Graphics/SVG/1.1/DTD/svg11.dtd">
<svg version="1.1" xmlns="http://www.w3.org/2000/svg" xmlns:xlink="http://www.w3.org/1999/xlink" x="0px" y="0px"
	 width="625.333px" height="532.667px" viewBox="0 0 625.333 532.667" enable-background="new 0 0 625.333 532.667"
	 xml:space="preserve">
<g id="Layer_5">
</g>
<g id="Layer_1">
	<polygon fill="none" stroke="#FFCF7B" stroke-width="2" stroke-miterlimit="10" points="90.54,232.817 72.207,230.15 
		37.54,258.817 73.54,263.817 	"/>
	<polygon fill="none" stroke="#FFCF7B" stroke-width="2" stroke-miterlimit="10" points="46.54,262.817 48.54,220.817 
		81.54,259.817 	"/>
	<polygon fill="none" stroke="#FFCF7B" stroke-width="2" stroke-miterlimit="10" points="68.54,224.817 39.54,204.817 
		70.874,118.15 51.874,195.817 	"/>
	<polygon fill="none" stroke="#FFCF7B" stroke-width="2" stroke-miterlimit="10" points="53.54,23.817 37.54,189.817 68.54,97.817 	
		"/>
	<polygon fill="none" stroke="#FFCF7B" stroke-width="2" stroke-miterlimit="10" points="68.54,232.817 86.873,230.15 
		121.54,258.817 85.54,263.817 	"/>
	<polygon fill="none" stroke="#FFCF7B" stroke-width="2" stroke-miterlimit="10" points="112.54,262.817 110.54,220.817 
		77.54,259.817 	"/>
	<polygon fill="none" stroke="#FFCF7B" stroke-width="2" stroke-miterlimit="10" points="90.54,224.817 119.54,204.817 
		88.207,118.15 107.207,195.817 	"/>
	<polygon fill="none" stroke="#FFCF7B" stroke-width="2" stroke-miterlimit="10" points="105.54,23.817 121.54,189.817 
		90.54,97.817 	"/>
	<g>
		<line fill="none" stroke="#FFCF7B" stroke-width="2" stroke-miterlimit="10" x1="86.963" y1="194.862" x2="76.068" y2="183.044"/>
		<polyline fill="none" stroke="#FFCF7B" stroke-width="2" stroke-miterlimit="10" points="86.962,194.494 80.868,226.626 
			102.29,194.679 92.872,182.673 66.279,182.673 56.124,194.679 77.545,226.626 71.451,194.494 		"/>
		<line fill="none" stroke="#FFCF7B" stroke-width="2" stroke-miterlimit="10" x1="102.29" y1="194.679" x2="56.124" y2="194.679"/>
		<line fill="none" stroke="#FFCF7B" stroke-width="2" stroke-miterlimit="10" x1="71.821" y1="194.862" x2="82.716" y2="183.044"/>
	</g>
	<polyline fill="none" stroke="#FFCF7B" stroke-width="2" stroke-miterlimit="10" points="79.54,174.817 72.207,175.817 
		63.707,167.317 78.54,145.483 79.54,174.817 	"/>
	<path fill="none" stroke="#FFCF7B" stroke-width="2" stroke-miterlimit="10" d="M65.207,167.15"/>
	<polyline fill="none" stroke="#FFCF7B" stroke-width="2" stroke-miterlimit="10" points="79.456,174.817 86.79,175.817 
		95.29,167.317 80.456,145.483 79.456,174.817 	"/>
	<polyline fill="none" stroke="#FFCF7B" stroke-width="2" stroke-miterlimit="10" points="79.428,62.064 105.79,19.317 
		105.789,74.552 73.093,110.901 79.428,62.064 	"/>
	<polyline fill="none" stroke="#FFCF7B" stroke-width="2" stroke-miterlimit="10" points="79.567,62.064 53.29,18.067 
		53.206,74.552 85.902,110.901 79.567,62.064 	"/>
	<g>
		<polygon fill="none" stroke="#00FFFF" stroke-width="2" stroke-miterlimit="10" points="579.328,263.081 583.995,224.414 
			557.995,220.414 540.662,260.414 		"/>
		<polygon fill="none" stroke="#00FFFF" stroke-width="2" stroke-miterlimit="10" points="583.995,215.748 555.995,213.748 
			540.662,178.414 563.995,187.081 		"/>
		<polygon fill="none" stroke="#00FFFF" stroke-width="2" stroke-miterlimit="10" points="585.995,209.081 568.662,185.081 
			585.328,100.414 		"/>
		<polygon fill="none" stroke="#00FFFF" stroke-width="2" stroke-miterlimit="10" points="564.662,181.748 595.328,25.081 
			553.328,153.748 		"/>
		<polygon fill="none" stroke="#00FFFF" stroke-width="2" stroke-miterlimit="10" points="550.662,222.414 531.995,258.414 
			507.995,261.748 501.995,227.748 		"/>
		<polygon fill="none" stroke="#00FFFF" stroke-width="2" stroke-miterlimit="10" points="497.995,250.414 495.329,229.748 
			466.662,239.748 		"/>
	</g>
	<g>
		<polygon fill="none" stroke="#00FFFF" stroke-width="2" stroke-miterlimit="10" points="482.661,263.081 477.995,224.414 
			503.995,220.414 521.328,260.414 		"/>
		<polygon fill="none" stroke="#00FFFF" stroke-width="2" stroke-miterlimit="10" points="477.995,215.748 505.995,213.748 
			521.328,178.414 497.995,187.081 		"/>
		<polygon fill="none" stroke="#00FFFF" stroke-width="2" stroke-miterlimit="10" points="475.995,209.081 493.328,185.081 
			476.661,100.414 		"/>
		<polygon fill="none" stroke="#00FFFF" stroke-width="2" stroke-miterlimit="10" points="497.328,181.748 466.661,25.081 
			508.661,153.748 		"/>
		<polygon fill="none" stroke="#00FFFF" stroke-width="2" stroke-miterlimit="10" points="511.328,222.414 529.994,258.414 
			553.994,261.748 559.994,227.748 		"/>
		<polygon fill="none" stroke="#00FFFF" stroke-width="2" stroke-miterlimit="10" points="563.994,250.414 566.661,229.748 
			595.328,239.748 		"/>
	</g>
	<polygon fill="none" stroke="#00FFFF" stroke-width="2" stroke-miterlimit="10" points="544.994,210.081 532.328,188.748 
		515.661,210.748 	"/>
	<polygon fill="none" stroke="#00FFFF" stroke-width="2" stroke-miterlimit="10" points="556.994,174.081 491.661,86.748 
		518.994,172.081 	"/>
	<polyline fill="none" stroke="#00FFFF" stroke-width="2" stroke-miterlimit="10" points="518.994,172.081 556.994,174.081 
		491.661,86.748 	"/>
	<polygon fill="none" stroke="#00FFFF" stroke-width="2" stroke-miterlimit="10" points="505.661,174.747 570.994,87.414 
		543.661,172.747 	"/>
	<path fill="none" stroke="#00FFFF" stroke-width="2" stroke-miterlimit="10" d="M530.328,127.415l-11.333-16.666
		c0,0-11.333-10.667,7.333-30.667s2-23.999-1.333-27.333c0,0,24.667,6.666,22,35.333c-1.577,16.953,16.667-1.333,0,20
		L530.328,127.415z"/>
	<path fill="none" stroke="#00FFFF" stroke-width="2" stroke-miterlimit="10" d="M519.328,76.749c0,0-25-14.001-9-35.334
		c0,0-17.622,19.578-9.333,42.667c2.333,6.5,8,15.332,7.333,12.332C507.171,91.208,514.828,78.749,519.328,76.749z"/>
	<path fill="none" stroke="#00FFFF" stroke-width="2" stroke-miterlimit="10" d="M540.994,54.082c0,0,12.001,12.332,11.334,20.332
		c0,0,22-11.666,15.333-32.332s-11.667-26.334-5.333-30.666C562.327,11.416,531.66,18.082,540.994,54.082z"/>
	<polygon fill="none" stroke="#9B0202" stroke-width="2" stroke-miterlimit="10" points="273.742,263.327 234.236,263.327 
		227.998,230.655 247.751,227.773 	"/>
	<polygon fill="none" stroke="#9B0202" stroke-width="2" stroke-miterlimit="10" points="252.949,187.415 245.672,219.126 
		218.641,219.126 218.641,199.907 240.474,167.235 	"/>
	<polygon fill="none" stroke="#9B0202" stroke-width="2" stroke-miterlimit="10" points="225.919,258.522 219.681,230.655 
		188.492,264.288 	"/>
	<polygon fill="none" stroke="#9B0202" stroke-width="2" stroke-miterlimit="10" points="215.522,224.89 177.056,258.522 
		153.144,258.522 176.016,220.086 	"/>
	<polygon fill="none" stroke="#9B0202" stroke-width="2" stroke-miterlimit="10" points="158.342,263.327 197.848,263.327 
		204.086,230.655 184.333,227.773 	"/>
	<polygon fill="none" stroke="#9B0202" stroke-width="2" stroke-miterlimit="10" points="180.059,254.391 255.254,232.202 
		162.155,179.581 	"/>
	<polygon fill="none" stroke="#9B0202" stroke-width="2" stroke-miterlimit="10" points="173.937,177.806 154.184,129.76 
		159.502,69.081 177.056,111.502 	"/>
	<polygon fill="none" stroke="#9B0202" stroke-width="2" stroke-miterlimit="10" points="179.135,187.415 186.413,219.126 
		213.443,219.126 213.443,199.907 191.61,167.235 	"/>
	<polygon fill="none" stroke="#9B0202" stroke-width="2" stroke-miterlimit="10" points="206.166,258.522 212.403,230.655 
		243.592,264.288 	"/>
	<polygon fill="none" stroke="#9B0202" stroke-width="2" stroke-miterlimit="10" points="216.562,224.89 255.028,258.522 
		278.94,258.522 256.068,220.086 	"/>
	<polygon fill="none" stroke="#9B0202" stroke-width="2" stroke-miterlimit="10" points="216.562,194.142 198.888,151.86 
		216.562,102.854 233.196,152.821 	"/>
	<polygon fill="none" stroke="#9B0202" stroke-width="2" stroke-miterlimit="10" points="216.648,179.142 204.849,152.917 
		216.648,122.521 227.753,153.513 	"/>
	<polygon fill="none" stroke="#9B0202" stroke-width="2" stroke-miterlimit="10" points="171.017,159.379 158.276,128.299 
		162.002,86.581 173.349,112.713 	"/>
	<polygon fill="none" stroke="#9B0202" stroke-width="2" stroke-miterlimit="10" points="182.938,189.713 192.269,174.713 
		209.374,200.713 189.417,214.713 	"/>
	<polygon fill="none" stroke="#9B0202" stroke-width="2" stroke-miterlimit="10" points="249.285,189.713 239.955,174.713 
		222.85,200.713 242.806,214.713 	"/>
	<polygon fill="none" stroke="#9B0202" stroke-width="2" stroke-miterlimit="10" points="166.002,67.581 211.502,31.081 
		227.002,29.581 187.502,38.581 	"/>
	<polyline fill="none" stroke="#9B0202" stroke-width="2" stroke-miterlimit="10" points="211.002,41.081 211.002,16.581 
		216.502,22.081 	"/>
	<polygon fill="none" stroke="#9B0202" stroke-width="2" stroke-miterlimit="10" points="258.75,177.806 278.502,129.76 
		273.184,69.081 255.631,111.502 	"/>
	<polygon fill="none" stroke="#9B0202" stroke-width="2" stroke-miterlimit="10" points="261.67,159.379 274.411,128.299 
		270.684,86.581 259.337,112.713 	"/>
	<polygon fill="none" stroke="#9B0202" stroke-width="2" stroke-miterlimit="10" points="266.684,67.581 221.184,31.081 
		205.684,29.581 244.502,37.581 	"/>
	<polyline fill="none" stroke="#9B0202" stroke-width="2" stroke-miterlimit="10" points="221.684,41.081 221.684,16.581 
		216.502,22.081 	"/>
	<polygon fill="none" stroke="#9B0202" stroke-width="2" stroke-miterlimit="10" points="181.002,65.081 172.502,84.581 
		181.002,104.581 189.502,84.081 	"/>
	<path fill="none" stroke="#9B0202" stroke-width="2" stroke-miterlimit="10" d="M158.002,84.081c0,0,21-17.5,46.5-1
		C204.502,83.081,185.002,107.581,158.002,84.081z"/>
	<polygon fill="none" stroke="#9B0202" stroke-width="2" stroke-miterlimit="10" points="249.002,63.581 257.502,83.081 
		249.002,103.081 240.502,82.581 	"/>
	<path fill="none" stroke="#9B0202" stroke-width="2" stroke-miterlimit="10" d="M272.002,82.581c0,0-21-17.5-46.5-1
		C225.502,81.581,245.002,106.081,272.002,82.581z"/>
	<polygon fill="none" stroke="#9B0202" stroke-width="2" stroke-miterlimit="10" points="185.502,110.165 197.752,128.081 
		209.002,89.081 	"/>
	<polygon fill="none" stroke="#9B0202" stroke-width="2" stroke-miterlimit="10" points="181.502,115.081 195.502,135.081 
		181.002,174.581 	"/>
	<polygon fill="none" stroke="#9B0202" stroke-width="2" stroke-miterlimit="10" points="186.002,129.581 191.002,135.581 
		185.502,149.081 	"/>
	<polygon fill="none" stroke="#9B0202" stroke-width="2" stroke-miterlimit="10" points="192.502,110.581 200.002,104.081 
		196.002,116.581 	"/>
	<polygon fill="none" stroke="#9B0202" stroke-width="2" stroke-miterlimit="10" points="247.002,110.665 234.752,128.581 
		223.502,89.581 	"/>
	<polygon fill="none" stroke="#9B0202" stroke-width="2" stroke-miterlimit="10" points="251.002,115.581 237.002,135.581 
		251.502,175.081 	"/>
	<polygon fill="none" stroke="#9B0202" stroke-width="2" stroke-miterlimit="10" points="246.502,130.081 241.502,136.081 
		247.002,149.581 	"/>
	<polygon fill="none" stroke="#9B0202" stroke-width="2" stroke-miterlimit="10" points="240.002,111.081 232.502,104.581 
		236.502,117.081 	"/>
	<polygon fill="none" stroke="#9B0202" stroke-width="2" stroke-miterlimit="10" points="181.502,77.581 178.502,84.581 
		181.002,93.081 184.502,84.581 	"/>
	<polygon fill="none" stroke="#9B0202" stroke-width="2" stroke-miterlimit="10" points="248.502,76.581 251.502,83.581 
		249.002,92.081 245.502,83.581 	"/>
	<polygon fill="none" stroke="#9B0202" stroke-width="2" stroke-miterlimit="10" points="199.502,65.081 221.502,80.581 
		234.002,57.581 224.002,48.081 	"/>
	<polygon fill="none" stroke="#9B0202" stroke-width="2" stroke-miterlimit="10" points="229.502,65.081 207.502,80.581 
		195.002,57.581 205.002,48.081 	"/>
	<polygon fill="none" stroke="#9B0202" stroke-width="2" stroke-miterlimit="10" points="253.115,254.391 177.919,232.202 
		271.019,179.581 	"/>
	<g>
		<g>
			<g>
				<g>
					<polygon fill="none" stroke="#AADD7E" stroke-width="2" stroke-miterlimit="10" points="426.211,262.183 426.877,241.516 
						405.544,260.85 					"/>
					<polygon fill="none" stroke="#AADD7E" stroke-width="2" stroke-miterlimit="10" points="417.544,235.516 392.877,261.516 
						428.211,126.183 					"/>
					<polygon fill="none" stroke="#AADD7E" stroke-width="2" stroke-miterlimit="10" points="428.877,109.516 437.544,54.85 
						429.544,20.85 392.877,84.516 					"/>
					<polygon fill="none" stroke="#AADD7E" stroke-width="2" stroke-miterlimit="10" points="423.544,116.183 404.877,142.183 
						386.212,123.519 					"/>
					<polygon fill="none" stroke="#AADD7E" stroke-width="2" stroke-miterlimit="10" points="386.877,256.183 395.544,213.516 
						340.877,257.516 					"/>
					<polygon fill="none" stroke="#AADD7E" stroke-width="2" stroke-miterlimit="10" points="364.211,229.516 336.211,254.183 
						306.211,236.183 333.544,225.516 					"/>
				</g>
				<polygon fill="none" stroke="#AADD7E" stroke-width="2" stroke-miterlimit="10" points="398.877,203.516 400.211,188.182 
					372.544,173.849 380.211,200.849 				"/>
				<polygon fill="none" stroke="#AADD7E" stroke-width="2" stroke-miterlimit="10" points="404.211,182.849 422.211,132.516 
					392.879,158.185 				"/>
				<polygon fill="none" stroke="#AADD7E" stroke-width="2" stroke-miterlimit="10" points="386.211,208.182 369.544,222.182 
					336.211,221.516 				"/>
			</g>
			<g>
				<g>
					<polygon fill="none" stroke="#AADD7E" stroke-width="2" stroke-miterlimit="10" points="317.543,262.183 316.877,241.516 
						338.21,260.85 					"/>
					<polygon fill="none" stroke="#AADD7E" stroke-width="2" stroke-miterlimit="10" points="326.21,235.516 350.877,261.516 
						315.543,126.183 					"/>
					<polygon fill="none" stroke="#AADD7E" stroke-width="2" stroke-miterlimit="10" points="314.877,109.516 306.21,54.85 
						314.21,20.85 350.877,84.516 					"/>
					<polygon fill="none" stroke="#AADD7E" stroke-width="2" stroke-miterlimit="10" points="320.21,116.183 338.877,142.183 
						358.879,122.852 					"/>
					<polygon fill="none" stroke="#AADD7E" stroke-width="2" stroke-miterlimit="10" points="356.877,256.183 348.21,213.516 
						402.877,257.516 					"/>
					<polygon fill="none" stroke="#AADD7E" stroke-width="2" stroke-miterlimit="10" points="379.543,229.516 407.543,254.183 
						437.543,236.183 410.21,225.516 					"/>
				</g>
				<polygon fill="none" stroke="#AADD7E" stroke-width="2" stroke-miterlimit="10" points="344.877,203.516 343.543,188.182 
					372.21,173.849 363.543,200.849 				"/>
				<polygon fill="none" stroke="#AADD7E" stroke-width="2" stroke-miterlimit="10" points="339.543,182.849 321.543,132.516 
					352.879,158.852 				"/>
				<polygon fill="none" stroke="#AADD7E" stroke-width="2" stroke-miterlimit="10" points="357.543,208.182 374.21,222.182 
					407.543,221.516 				"/>
			</g>
		</g>
	</g>
	<polygon fill="none" stroke="#AADD7E" stroke-width="2" stroke-miterlimit="10" points="360.545,158.185 384.879,157.533 
		372.212,168.852 	"/>
	<polygon fill="none" stroke="#FFCF7B" stroke-width="2" stroke-miterlimit="10" points="90.54,294.415 72.207,297.082 
		37.54,268.415 73.54,263.415 	"/>
	<polygon fill="none" stroke="#FFCF7B" stroke-width="2" stroke-miterlimit="10" points="46.54,264.415 48.54,306.415 
		81.54,267.415 	"/>
	<polygon fill="none" stroke="#FFCF7B" stroke-width="2" stroke-miterlimit="10" points="68.54,302.415 39.54,322.415 
		70.874,409.082 51.874,331.415 	"/>
	<polygon fill="none" stroke="#FFCF7B" stroke-width="2" stroke-miterlimit="10" points="53.54,503.415 37.54,337.415 
		68.54,429.415 	"/>
	<polygon fill="none" stroke="#FFCF7B" stroke-width="2" stroke-miterlimit="10" points="68.54,294.415 86.873,297.082 
		121.54,268.415 85.54,263.415 	"/>
	<polygon fill="none" stroke="#FFCF7B" stroke-width="2" stroke-miterlimit="10" points="112.54,264.415 110.54,306.415 
		77.54,267.415 	"/>
	<polygon fill="none" stroke="#FFCF7B" stroke-width="2" stroke-miterlimit="10" points="90.54,302.415 119.54,322.415 
		88.207,409.082 107.207,331.415 	"/>
	<polygon fill="none" stroke="#FFCF7B" stroke-width="2" stroke-miterlimit="10" points="105.54,503.415 121.54,337.415 
		90.54,429.415 	"/>
	<g>
		<line fill="none" stroke="#FFCF7B" stroke-width="2" stroke-miterlimit="10" x1="86.963" y1="332.37" x2="76.068" y2="344.188"/>
		<polyline fill="none" stroke="#FFCF7B" stroke-width="2" stroke-miterlimit="10" points="86.962,332.738 80.868,300.606 
			102.29,332.554 92.872,344.56 66.279,344.56 56.124,332.554 77.545,300.606 71.451,332.738 		"/>
		<line fill="none" stroke="#FFCF7B" stroke-width="2" stroke-miterlimit="10" x1="102.29" y1="332.554" x2="56.124" y2="332.554"/>
		<line fill="none" stroke="#FFCF7B" stroke-width="2" stroke-miterlimit="10" x1="71.821" y1="332.37" x2="82.716" y2="344.188"/>
	</g>
	<polyline fill="none" stroke="#FFCF7B" stroke-width="2" stroke-miterlimit="10" points="79.54,352.415 72.207,351.415 
		63.707,359.915 78.54,381.749 79.54,352.415 	"/>
	<path fill="none" stroke="#FFCF7B" stroke-width="2" stroke-miterlimit="10" d="M65.207,360.082"/>
	<polyline fill="none" stroke="#FFCF7B" stroke-width="2" stroke-miterlimit="10" points="79.456,352.415 86.79,351.415 
		95.29,359.915 80.456,381.749 79.456,352.415 	"/>
	<polyline fill="none" stroke="#FFCF7B" stroke-width="2" stroke-miterlimit="10" points="79.428,465.168 105.79,507.915 
		105.789,452.681 73.093,416.331 79.428,465.168 	"/>
	<polyline fill="none" stroke="#FFCF7B" stroke-width="2" stroke-miterlimit="10" points="79.567,465.168 53.29,509.165 
		53.206,452.681 85.902,416.331 79.567,465.168 	"/>
	<g>
		<polygon fill="none" stroke="#00FFFF" stroke-width="2" stroke-miterlimit="10" points="579.328,264.151 583.995,302.818 
			557.995,306.818 540.662,266.818 		"/>
		<polygon fill="none" stroke="#00FFFF" stroke-width="2" stroke-miterlimit="10" points="583.995,311.484 555.995,313.484 
			540.662,348.818 563.995,340.151 		"/>
		<polygon fill="none" stroke="#00FFFF" stroke-width="2" stroke-miterlimit="10" points="585.995,318.151 568.662,342.151 
			585.328,426.818 		"/>
		<polygon fill="none" stroke="#00FFFF" stroke-width="2" stroke-miterlimit="10" points="564.662,345.484 595.328,502.151 
			553.328,373.484 		"/>
		<polygon fill="none" stroke="#00FFFF" stroke-width="2" stroke-miterlimit="10" points="550.662,304.818 531.995,268.818 
			507.995,265.484 501.995,299.484 		"/>
		<polygon fill="none" stroke="#00FFFF" stroke-width="2" stroke-miterlimit="10" points="497.995,276.818 495.329,297.484 
			466.662,287.484 		"/>
	</g>
	<g>
		<polygon fill="none" stroke="#00FFFF" stroke-width="2" stroke-miterlimit="10" points="482.661,264.151 477.995,302.818 
			503.995,306.818 521.328,266.818 		"/>
		<polygon fill="none" stroke="#00FFFF" stroke-width="2" stroke-miterlimit="10" points="477.995,311.484 505.995,313.484 
			521.328,348.818 497.995,340.151 		"/>
		<polygon fill="none" stroke="#00FFFF" stroke-width="2" stroke-miterlimit="10" points="475.995,318.151 493.328,342.151 
			476.661,426.818 		"/>
		<polygon fill="none" stroke="#00FFFF" stroke-width="2" stroke-miterlimit="10" points="497.328,345.484 466.661,502.151 
			508.661,373.484 		"/>
		<polygon fill="none" stroke="#00FFFF" stroke-width="2" stroke-miterlimit="10" points="511.328,304.818 529.994,268.818 
			553.994,265.484 559.994,299.484 		"/>
		<polygon fill="none" stroke="#00FFFF" stroke-width="2" stroke-miterlimit="10" points="563.994,276.818 566.661,297.484 
			595.328,287.484 		"/>
	</g>
	<polygon fill="none" stroke="#00FFFF" stroke-width="2" stroke-miterlimit="10" points="544.994,317.151 532.328,338.484 
		515.661,316.484 	"/>
	<polygon fill="none" stroke="#00FFFF" stroke-width="2" stroke-miterlimit="10" points="556.994,353.151 491.661,440.484 
		518.994,355.151 	"/>
	<polyline fill="none" stroke="#00FFFF" stroke-width="2" stroke-miterlimit="10" points="518.994,355.151 556.994,353.151 
		491.661,440.484 	"/>
	<polygon fill="none" stroke="#00FFFF" stroke-width="2" stroke-miterlimit="10" points="505.661,352.485 570.994,439.818 
		543.661,354.485 	"/>
	<path fill="none" stroke="#00FFFF" stroke-width="2" stroke-miterlimit="10" d="M530.328,399.817l-11.333,16.666
		c0,0-11.333,10.667,7.333,30.667s2,23.999-1.333,27.333c0,0,24.667-6.666,22-35.333c-1.577-16.953,16.667,1.333,0-20
		L530.328,399.817z"/>
	<path fill="none" stroke="#00FFFF" stroke-width="2" stroke-miterlimit="10" d="M519.328,450.483c0,0-25,14.001-9,35.334
		c0,0-17.622-19.578-9.333-42.667c2.333-6.5,8-15.332,7.333-12.332C507.171,436.024,514.828,448.483,519.328,450.483z"/>
	<path fill="none" stroke="#00FFFF" stroke-width="2" stroke-miterlimit="10" d="M540.994,473.15c0,0,12.001-12.332,11.334-20.332
		c0,0,22,11.666,15.333,32.332s-11.667,26.334-5.333,30.666C562.327,515.816,531.66,509.15,540.994,473.15z"/>
	<polygon fill="none" stroke="#9B0202" stroke-width="2" stroke-miterlimit="10" points="273.742,263.905 234.236,263.905 
		227.998,296.577 247.751,299.459 	"/>
	<polygon fill="none" stroke="#9B0202" stroke-width="2" stroke-miterlimit="10" points="252.949,339.817 245.672,308.106 
		218.641,308.106 218.641,327.325 240.474,359.997 	"/>
	<polygon fill="none" stroke="#9B0202" stroke-width="2" stroke-miterlimit="10" points="225.919,268.71 219.681,296.577 
		188.492,262.944 	"/>
	<polygon fill="none" stroke="#9B0202" stroke-width="2" stroke-miterlimit="10" points="215.522,302.343 177.056,268.71 
		153.144,268.71 176.016,307.146 	"/>
	<polygon fill="none" stroke="#9B0202" stroke-width="2" stroke-miterlimit="10" points="158.342,263.905 197.848,263.905 
		204.086,296.577 184.333,299.459 	"/>
	<polygon fill="none" stroke="#9B0202" stroke-width="2" stroke-miterlimit="10" points="180.059,272.842 255.254,295.03 
		162.155,347.651 	"/>
	<polygon fill="none" stroke="#9B0202" stroke-width="2" stroke-miterlimit="10" points="173.937,349.427 154.184,397.473 
		159.502,458.151 177.056,415.73 	"/>
	<polygon fill="none" stroke="#9B0202" stroke-width="2" stroke-miterlimit="10" points="179.135,339.817 186.413,308.106 
		213.443,308.106 213.443,327.325 191.61,359.997 	"/>
	<polygon fill="none" stroke="#9B0202" stroke-width="2" stroke-miterlimit="10" points="206.166,268.71 212.403,296.577 
		243.592,262.944 	"/>
	<polygon fill="none" stroke="#9B0202" stroke-width="2" stroke-miterlimit="10" points="216.562,302.343 255.028,268.71 
		278.94,268.71 256.068,307.146 	"/>
	<polygon fill="none" stroke="#9B0202" stroke-width="2" stroke-miterlimit="10" points="216.562,333.091 198.888,375.372 
		216.562,424.378 233.196,374.411 	"/>
	<polygon fill="none" stroke="#9B0202" stroke-width="2" stroke-miterlimit="10" points="216.648,348.091 204.849,374.315 
		216.648,404.712 227.753,373.72 	"/>
	<polygon fill="none" stroke="#9B0202" stroke-width="2" stroke-miterlimit="10" points="171.017,367.854 158.276,398.934 
		162.002,440.651 173.349,414.52 	"/>
	<polygon fill="none" stroke="#9B0202" stroke-width="2" stroke-miterlimit="10" points="182.938,337.52 192.269,352.52 
		209.374,326.52 189.417,312.52 	"/>
	<polygon fill="none" stroke="#9B0202" stroke-width="2" stroke-miterlimit="10" points="249.285,337.52 239.955,352.52 
		222.85,326.52 242.806,312.52 	"/>
	<polygon fill="none" stroke="#9B0202" stroke-width="2" stroke-miterlimit="10" points="166.002,459.651 211.502,496.151 
		227.002,497.651 187.502,488.651 	"/>
	<polyline fill="none" stroke="#9B0202" stroke-width="2" stroke-miterlimit="10" points="211.002,486.151 211.002,510.651 
		216.502,505.151 	"/>
	<polygon fill="none" stroke="#9B0202" stroke-width="2" stroke-miterlimit="10" points="258.75,349.427 278.502,397.473 
		273.184,458.151 255.631,415.73 	"/>
	<polygon fill="none" stroke="#9B0202" stroke-width="2" stroke-miterlimit="10" points="261.67,367.854 274.411,398.934 
		270.684,440.651 259.337,414.52 	"/>
	<polygon fill="none" stroke="#9B0202" stroke-width="2" stroke-miterlimit="10" points="266.684,459.651 221.184,496.151 
		205.684,497.651 244.502,489.651 	"/>
	<polyline fill="none" stroke="#9B0202" stroke-width="2" stroke-miterlimit="10" points="221.684,486.151 221.684,510.651 
		216.502,505.151 	"/>
	<polygon fill="none" stroke="#9B0202" stroke-width="2" stroke-miterlimit="10" points="181.002,462.151 172.502,442.651 
		181.002,422.651 189.502,443.151 	"/>
	<path fill="none" stroke="#9B0202" stroke-width="2" stroke-miterlimit="10" d="M158.002,443.151c0,0,21,17.5,46.5,1
		C204.502,444.151,185.002,419.651,158.002,443.151z"/>
	<polygon fill="none" stroke="#9B0202" stroke-width="2" stroke-miterlimit="10" points="249.002,463.651 257.502,444.151 
		249.002,424.151 240.502,444.651 	"/>
	<path fill="none" stroke="#9B0202" stroke-width="2" stroke-miterlimit="10" d="M272.002,444.651c0,0-21,17.5-46.5,1
		C225.502,445.651,245.002,421.151,272.002,444.651z"/>
	<polygon fill="none" stroke="#9B0202" stroke-width="2" stroke-miterlimit="10" points="185.502,417.067 197.752,399.151 
		209.002,438.151 	"/>
	<polygon fill="none" stroke="#9B0202" stroke-width="2" stroke-miterlimit="10" points="181.502,412.151 195.502,392.151 
		181.002,352.651 	"/>
	<polygon fill="none" stroke="#9B0202" stroke-width="2" stroke-miterlimit="10" points="186.002,397.651 191.002,391.651 
		185.502,378.151 	"/>
	<polygon fill="none" stroke="#9B0202" stroke-width="2" stroke-miterlimit="10" points="192.502,416.651 200.002,423.151 
		196.002,410.651 	"/>
	<polygon fill="none" stroke="#9B0202" stroke-width="2" stroke-miterlimit="10" points="247.002,416.567 234.752,398.651 
		223.502,437.651 	"/>
	<polygon fill="none" stroke="#9B0202" stroke-width="2" stroke-miterlimit="10" points="251.002,411.651 237.002,391.651 
		251.502,352.151 	"/>
	<polygon fill="none" stroke="#9B0202" stroke-width="2" stroke-miterlimit="10" points="246.502,397.151 241.502,391.151 
		247.002,377.651 	"/>
	<polygon fill="none" stroke="#9B0202" stroke-width="2" stroke-miterlimit="10" points="240.002,416.151 232.502,422.651 
		236.502,410.151 	"/>
	<polygon fill="none" stroke="#9B0202" stroke-width="2" stroke-miterlimit="10" points="181.502,449.651 178.502,442.651 
		181.002,434.151 184.502,442.651 	"/>
	<polygon fill="none" stroke="#9B0202" stroke-width="2" stroke-miterlimit="10" points="248.502,450.651 251.502,443.651 
		249.002,435.151 245.502,443.651 	"/>
	<polygon fill="none" stroke="#9B0202" stroke-width="2" stroke-miterlimit="10" points="199.502,462.151 221.502,446.651 
		234.002,469.651 224.002,479.151 	"/>
	<polygon fill="none" stroke="#9B0202" stroke-width="2" stroke-miterlimit="10" points="229.502,462.151 207.502,446.651 
		195.002,469.651 205.002,479.151 	"/>
	<polygon fill="none" stroke="#9B0202" stroke-width="2" stroke-miterlimit="10" points="253.115,272.842 177.919,295.03 
		271.019,347.651 	"/>
	<g>
		<g>
			<g>
				<g>
					<polygon fill="none" stroke="#AADD7E" stroke-width="2" stroke-miterlimit="10" points="426.211,265.05 426.877,285.717 
						405.544,266.383 					"/>
					<polygon fill="none" stroke="#AADD7E" stroke-width="2" stroke-miterlimit="10" points="417.544,291.717 392.877,265.717 
						428.211,401.05 					"/>
					<polygon fill="none" stroke="#AADD7E" stroke-width="2" stroke-miterlimit="10" points="428.877,417.717 437.544,472.383 
						429.544,506.383 392.877,442.717 					"/>
					<polygon fill="none" stroke="#AADD7E" stroke-width="2" stroke-miterlimit="10" points="423.544,411.05 404.877,385.05 
						386.212,403.714 					"/>
					<polygon fill="none" stroke="#AADD7E" stroke-width="2" stroke-miterlimit="10" points="386.877,271.05 395.544,313.717 
						340.877,269.717 					"/>
					<polygon fill="none" stroke="#AADD7E" stroke-width="2" stroke-miterlimit="10" points="364.211,297.717 336.211,273.05 
						306.211,291.05 333.544,301.717 					"/>
				</g>
				<polygon fill="none" stroke="#AADD7E" stroke-width="2" stroke-miterlimit="10" points="398.877,323.717 400.211,339.051 
					372.544,353.384 380.211,326.384 				"/>
				<polygon fill="none" stroke="#AADD7E" stroke-width="2" stroke-miterlimit="10" points="404.211,344.384 422.211,394.717 
					392.879,369.048 				"/>
				<polygon fill="none" stroke="#AADD7E" stroke-width="2" stroke-miterlimit="10" points="386.211,319.051 369.544,305.051 
					336.211,305.717 				"/>
			</g>
			<g>
				<g>
					<polygon fill="none" stroke="#AADD7E" stroke-width="2" stroke-miterlimit="10" points="317.543,265.05 316.877,285.717 
						338.21,266.383 					"/>
					<polygon fill="none" stroke="#AADD7E" stroke-width="2" stroke-miterlimit="10" points="326.21,291.717 350.877,265.717 
						315.543,401.05 					"/>
					<polygon fill="none" stroke="#AADD7E" stroke-width="2" stroke-miterlimit="10" points="314.877,417.717 306.21,472.383 
						314.21,506.383 350.877,442.717 					"/>
					<polygon fill="none" stroke="#AADD7E" stroke-width="2" stroke-miterlimit="10" points="320.21,411.05 338.877,385.05 
						358.879,404.381 					"/>
					<polygon fill="none" stroke="#AADD7E" stroke-width="2" stroke-miterlimit="10" points="356.877,271.05 348.21,313.717 
						402.877,269.717 					"/>
					<polygon fill="none" stroke="#AADD7E" stroke-width="2" stroke-miterlimit="10" points="379.543,297.717 407.543,273.05 
						437.543,291.05 410.21,301.717 					"/>
				</g>
				<polygon fill="none" stroke="#AADD7E" stroke-width="2" stroke-miterlimit="10" points="344.877,323.717 343.543,339.051 
					372.21,353.384 363.543,326.384 				"/>
				<polygon fill="none" stroke="#AADD7E" stroke-width="2" stroke-miterlimit="10" points="339.543,344.384 321.543,394.717 
					352.879,368.381 				"/>
				<polygon fill="none" stroke="#AADD7E" stroke-width="2" stroke-miterlimit="10" points="357.543,319.051 374.21,305.051 
					407.543,305.717 				"/>
			</g>
		</g>
	</g>
	<polygon fill="none" stroke="#AADD7E" stroke-width="2" stroke-miterlimit="10" points="360.545,369.048 384.879,369.699 
		372.212,358.381 	"/>
</g>
<g id="titles">
</g>
<g id="Layer_3" display="none">
</g>
<g id="Layer_4">
</g>
</svg>
