<?xml version="1.0" encoding="utf-8"?>
<!-- Generator: Adobe Illustrator 16.0.0, SVG Export Plug-In . SVG Version: 6.00 Build 0)  -->
<!DOCTYPE svg PUBLIC "-//W3C//DTD SVG 1.1//EN" "http://www.w3.org/Graphics/SVG/1.1/DTD/svg11.dtd">
<svg version="1.1" id="Layer_1" xmlns="http://www.w3.org/2000/svg" xmlns:xlink="http://www.w3.org/1999/xlink" x="0px" y="0px"
	 width="2500px" height="1000px" viewBox="0 0 2500 1000" enable-background="new 0 0 2500 1000" xml:space="preserve">
<g>
	<path fill="#010101" d="M953.694,353.793c-0.378-1.372-1.013-2.306-1.896-2.825c-0.677-0.421-1.507-0.635-2.466-0.635
		c-0.237,0-0.49,0.011-1.025,0.088l-0.425,0.114c-0.635,0.096-1.27,0.202-1.874,0.333c-0.612,0.122-1.591,0.348-2.929,0.699
		c-14.451,3.752-26.695,11.774-36.389,23.843c-9.851,12.244-13.399,24.019-10.55,34.989c1.488,5.736,4.428,9.858,8.75,12.268
		c2.6,1.438,5.548,2.168,8.765,2.168c2.088,0,4.329-0.31,6.661-0.918c8.704-2.252,16.317-8.745,22.63-19.291
		c4.527-7.599,7.61-16.199,9.201-25.675l7.571,29.158c0.279,1.158,0.895,2.095,1.79,2.715c0.956,0.649,2.18,0.814,3.323,0.509
		c1.109-0.271,1.965-0.956,2.428-1.984c0.352-0.834,0.355-1.871,0.023-3.167L953.694,353.793z M939.267,396.083
		c-5.487,11.28-12.47,18.087-20.756,20.232c-1.469,0.379-2.868,0.569-4.165,0.569c-2.015,0-3.786-0.443-5.415-1.354
		c-2.666-1.503-4.405-3.938-5.312-7.449c-2.249-8.657,0.814-18.183,9.108-28.312c8.443-10.325,19.567-17.33,33.07-20.833l0.65-0.172
		C946.979,372.649,944.567,385.192,939.267,396.083z"/>
	<path fill="#010101" d="M1083.102,335.752c3.797-3.339,7.04-5.189,9.625-5.511c2.956-0.352,5.3,0.16,7.055,1.591
		c1.786,1.479,2.841,3.755,3.231,6.968c0.271,2.218-0.016,4.122-0.88,5.819c-0.872,1.744-2.562,3.557-4.914,5.312l-0.394,0.257
		c-0.547,0.359-0.956,0.811-1.208,1.327c-0.283,0.562-0.386,1.204-0.306,1.823c0.103,0.872,0.485,1.626,1.117,2.195
		c0.585,0.513,1.262,0.833,2.375,0.772c0.325-0.031,0.65-0.104,1.021-0.214c0.333-0.111,0.685-0.253,0.788-0.353l0.524-0.283
		c3.58-2.064,6.207-4.726,7.812-7.907c1.602-3.174,2.172-6.807,1.694-10.792c-0.592-4.833-2.558-8.619-5.847-11.258
		c-3.292-2.646-7.319-3.725-12.019-3.135c-3.916,0.478-7.828,2.232-11.618,5.216c-3.174,2.474-7.64,7.212-13.602,14.428
		l-0.146-1.189c-0.577-4.711-2.042-8.29-4.348-10.638c-2.436-2.479-5.637-3.534-9.541-3.037c-2.826,0.345-5.744,1.499-8.681,3.427
		c-2.833,1.866-5.763,4.505-8.791,7.938l-0.18,0.26c-0.444,0.437-0.78,0.956-0.971,1.492c-0.207,0.562-0.268,1.208-0.18,1.957
		c0.084,0.601,0.413,1.461,1.53,2.153c0.608,0.363,1.35,0.535,2.34,0.523c0.474-0.046,0.937-0.198,1.189-0.359
		c0.333-0.16,0.661-0.39,0.719-0.478l0.696-0.501c0.382-0.379,0.96-0.902,1.717-1.591l0.512-0.467c4.187-4,7.659-6.191,10.321-6.508
		c1.771-0.215,3.059,0.16,3.904,1.238c0.715,0.918,1.706,3.121,2.348,8.417l4.959,40.706c0.142,1.205,0.516,2.08,1.163,2.692
		c0.409,0.378,1.14,0.833,2.302,0.833c0.199,0,0.413-0.015,0.623-0.038c1.113-0.13,2.069-0.635,2.788-1.491
		c0.715-0.879,1.021-1.896,0.883-2.922l-3.965-32.584C1074.375,344.597,1079.202,339.186,1083.102,335.752z"/>
	<path fill="#010101" d="M1401.12,361.755c-1.553,8.569,0.225,16.615,5.281,23.919c5.062,7.308,11.973,11.805,20.53,13.364
		c2.046,0.371,4.084,0.562,6.058,0.562c6.332,0,12.348-1.928,17.893-5.725c7.262-5.013,11.746-11.957,13.326-20.634
		c1.602-8.753-0.096-16.837-5.048-24.034c-4.944-7.192-11.927-11.655-20.761-13.262c-8.715-1.575-16.859,0.176-24.057,5.213
		C1407.143,346.198,1402.695,353.128,1401.12,361.755z M1452.728,353.583c3.794,5.461,5.033,11.43,3.787,18.252
		c-1.213,6.691-4.502,11.805-10.051,15.629c-5.486,3.773-11.521,5.086-18.045,3.9c-6.436-1.171-11.659-4.589-15.521-10.164
		c-3.928-5.645-5.262-11.549-4.076-18.05c1.182-6.55,4.467-11.625,10.038-15.525c4.241-2.96,8.669-4.397,13.536-4.397
		c1.526,0,3.109,0.146,4.708,0.436C1443.822,344.888,1448.931,348.13,1452.728,353.583z"/>
	<path fill="#010101" d="M1477.546,352.902l16.141,4.015l-7.641,28.214l-0.236,0.952c-2.111,8.501-2.02,14.841,0.275,19.384
		c2.321,4.573,7.135,7.801,14.312,9.599c1.932,0.481,3.932,0.727,5.943,0.727c2.348,0,4.779-0.333,7.223-0.995
		c4.539-1.224,8.268-3.28,11.189-6.229l0.134-0.156c0.11-0.084,0.249-0.191,0.405-0.321c0.776-0.627,1.297-1.262,1.69-2.26
		c0.245-1.036,0.034-2.03-0.585-2.849c-0.547-0.742-1.338-1.266-2.325-1.515c-0.704-0.168-1.415-0.13-2.042,0.114
		c-0.486,0.184-0.975,0.521-1.576,1.083l-0.572,0.348c-3.357,2.493-6.406,4.076-9.045,4.719c-1.15,0.271-2.363,0.409-3.605,0.409
		c-1.537,0-3.166-0.21-4.849-0.631c-4.73-1.178-7.794-3.228-9.104-6.104c-1.385-3.024-1.266-7.865,0.352-14.378l7.613-28.221
		l25.005,6.222c1.14,0.287,2.1,0.214,2.944-0.219c0.635-0.328,1.461-1.017,1.801-2.412c0.261-1.052,0.115-2.104-0.396-3.014
		c-0.543-1.01-1.393-1.679-2.444-1.938l-24.706-6.153l27.635-92.903c0.303-1.17,0.23-2.202-0.236-3.094
		c-0.333-0.615-1.033-1.419-2.486-1.782c-0.975-0.24-1.949-0.08-2.825,0.443c-0.624,0.371-1.446,1.113-1.802,2.49l-28.025,92.919
		l-16.275-4.046c-1.131-0.287-2.037-0.279-2.91,0.084c-0.668,0.295-1.541,0.968-1.912,2.505c-0.37,1.461,0.031,2.539,0.422,3.162
		C1475.584,351.992,1476.452,352.627,1477.546,352.902z"/>
	<path fill="#010101" d="M1545.604,370.114l15.87,4.998l-9.364,27.693l-0.287,0.925c-2.643,8.367-2.945,14.699-0.918,19.364
		c2.027,4.719,6.635,8.245,13.689,10.471c2.398,0.757,4.91,1.14,7.469,1.14c1.847,0,3.767-0.199,5.701-0.597
		c4.619-0.96,8.463-2.784,11.518-5.518l0.165-0.169c0.106-0.072,0.249-0.164,0.413-0.286c0.818-0.582,1.373-1.186,1.816-2.104
		c0.34-1.018,0.195-2.072-0.395-2.952c-0.504-0.769-1.238-1.315-2.229-1.637c-0.727-0.218-1.504-0.191-2.02-0.012
		c-0.505,0.157-1.025,0.463-1.671,0.987l-0.577,0.316c-3.522,2.279-6.662,3.672-9.327,4.146c-2.597,0.459-5.399,0.206-8.409-0.737
		c-4.657-1.469-7.594-3.706-8.727-6.65c-1.192-3.094-0.771-7.92,1.236-14.332l9.338-27.701l24.584,7.751
		c1.109,0.349,2.138,0.313,2.898-0.026c0.662-0.275,1.541-0.895,1.988-2.295c0.322-1.006,0.249-2.057-0.206-3.051
		c-0.485-1.033-1.288-1.752-2.333-2.084l-24.336-7.676l30.324-92.089c0.367-1.155,0.355-2.18-0.061-3.112
		c-0.311-0.635-0.968-1.484-2.317-1.89c-0.948-0.313-1.962-0.218-2.872,0.245c-0.654,0.329-1.533,1.021-1.984,2.439l-30.691,92.009
		l-15.92-5.013c-1.104-0.367-2.156-0.383-2.883-0.115c-0.699,0.245-1.637,0.857-2.122,2.421c-0.341,1.128-0.265,2.184,0.241,3.17
		C1543.704,369.093,1544.53,369.77,1545.604,370.114z"/>
	<path fill="#010101" d="M1647.216,394.599c-8.535-3.281-16.871-3.166-24.715,0.321c-7.838,3.503-13.467,9.583-16.736,18.072
		c-3.484,9.052-3.606,17.453-0.367,24.967c3.238,7.525,9.361,13.066,18.19,16.47c4.979,1.924,9.767,2.898,14.229,2.898l0.672-0.008
		c4.678-0.103,9.68-1.346,14.784-3.647l0.715-0.29c0.521-0.269,0.983-0.582,1.357-0.926c0.463-0.409,0.826-0.948,1.04-1.503
		c0.387-0.944,0.359-1.924-0.088-2.834c-0.416-0.841-1.113-1.464-2.03-1.812c-0.421-0.16-0.853-0.237-1.751-0.226
		c-0.51,0.027-1.033,0.138-1.568,0.333l-0.673,0.122c-5.499,1.962-9.882,2.96-13.086,2.96c-3.128-0.016-6.517-0.711-10.072-2.08
		c-7.078-2.716-11.95-6.898-14.478-12.417c-2.313-5.074-2.467-10.584-0.451-16.787l46.427,17.893
		c1.499,0.577,2.818,0.627,3.778,0.252c1.15-0.42,2.016-1.376,2.57-2.829l0.156-0.401c2.757-7.147,2.387-14.692-1.098-22.428
		C1660.558,402.989,1654.902,397.574,1647.216,394.599z M1658.485,427.779l-43.287-16.783c2.691-4.523,6.432-7.655,11.38-9.545
		c5.567-2.126,11.288-2.064,17.12,0.173c5.957,2.302,10.152,5.969,12.825,11.208C1658.883,417.47,1659.529,422.376,1658.485,427.779
		z"/>
	<path fill="#010101" d="M1743.24,441.458c-1.411-3.984-4.298-7.006-8.589-8.99c-3.587-1.641-7.82-2.191-12.619-1.648
		c-4.026,0.451-10.32,2.142-19.158,5.159l0.497-1.083c1.985-4.312,2.624-8.133,1.89-11.356c-0.78-3.392-2.979-5.942-6.539-7.587
		c-2.379-1.086-5.174-1.641-8.311-1.641l-0.867,0.012c-3.426,0.104-7.201,0.795-11.656,2.152l-0.24,0.111
		c-0.631,0.13-1.221,0.409-1.641,0.765c-0.482,0.367-0.875,0.888-1.201,1.583c-0.244,0.551-0.408,1.453,0.161,2.585
		c0.386,0.78,0.972,1.361,1.809,1.759c0.433,0.188,0.86,0.287,1.427,0.299c0.24,0,0.512-0.02,0.607-0.046l0.776-0.062
		c0.639-0.138,1.63-0.328,3.014-0.589c5.613-1.2,9.789-1.239,12.202-0.13c2.199,1.01,2.577,2.256,2.673,3.113
		c0.13,1.146-0.184,3.537-2.417,8.396l-17.119,37.254c-0.513,1.102-0.654,2.046-0.433,2.891c0.257,0.952,0.956,1.702,2.103,2.237
		c0.594,0.264,1.201,0.401,1.806,0.401c0.437,0,0.872-0.072,1.288-0.21c1.075-0.356,1.882-1.06,2.329-2.038l13.706-29.812
		c8.592-3.23,15.536-5.308,20.656-6.176c4.938-0.853,8.734-0.73,11.086,0.349c2.742,1.262,4.432,2.921,5.17,5.07
		c0.746,2.172,0.447,4.665-0.91,7.617c-0.906,1.989-2.184,3.499-3.793,4.489c-1.672,1.025-4.058,1.683-6.986,1.943l-0.414,0.015
		c-0.638,0.008-1.227,0.169-1.75,0.489c-0.521,0.318-0.93,0.78-1.247,1.438c-0.448,1.024-0.337,1.885-0.188,2.344
		c0.245,0.906,0.845,1.614,1.618,1.962c0.297,0.146,0.611,0.26,0.891,0.329c0.359,0.106,0.684,0.183,0.937,0.152l1.312,0.046
		c3.836,0,7.231-0.895,10.096-2.653c3.032-1.866,5.418-4.654,7.094-8.29C1744.345,449.684,1744.659,445.427,1743.24,441.458z"/>
	<path fill="#010101" d="M859.835,374.607c62.136-34.064,109.244-79.734,88.651-171.062c-0.474-2.11-2.581-3.434-4.681-2.96
		c-2.111,0.479-3.434,2.574-2.96,4.681c19.453,86.266-23.548,129.014-83.917,162.091l-34.267-85.542
		c-0.807-2.008-3.086-2.979-5.094-2.176c-2.008,0.803-2.983,3.086-2.18,5.09l34.596,86.36
		c-17.602,9.254-36.469,17.824-55.578,26.492l-11.246,5.117c-15.277,6.971-28.42,14.041-39.479,21.185l-39.632-98.934
		c-0.807-2.012-3.089-2.983-5.093-2.18c-2.008,0.803-2.983,3.082-2.18,5.093l40.259,100.502
		c-21.303,15.029-33.322,30.374-35.792,45.873c-2.94,18.447,9.025,29.713,9.533,30.179c0.753,0.696,1.698,1.032,2.643,1.032
		c1.051,0,2.099-0.42,2.872-1.246c1.468-1.583,1.377-4.054-0.191-5.529c-0.39-0.367-9.449-9.07-7.098-23.357
		c1.625-9.858,8.96-23.482,31.04-39.456l24.84,62.01c0.616,1.53,2.084,2.463,3.637,2.463c0.486,0,0.979-0.092,1.457-0.283
		c2.007-0.803,2.982-3.082,2.18-5.093l-25.502-63.654c10.352-6.814,23.376-14.004,39.758-21.479l11.235-5.104
		c18.672-8.475,37.471-17.018,55.245-26.375l30.603,76.4c0.616,1.529,2.084,2.458,3.637,2.458c0.486,0,0.979-0.092,1.457-0.282
		c2.007-0.804,2.983-3.086,2.18-5.09L859.835,374.607z"/>
	<path fill="#010101" d="M1612.356,481.847c-106.8,95.316-280.455,13.583-321.107-13.521
		c-40.584-27.051-73.86-43.257-100.907-52.404c0.673-11.383,0.673-24.867-0.012-40.4c-0.023-0.508-2.906-51.765-5.285-54.33
		c-1.151-1.251-2.979-1.61-4.527-0.888c-1.541,0.719-2.444,2.352-2.229,4.042c1.147,9.051,2.623,23.663,3.61,39.907
		c-3.946,6.485-11.862,14.057-19.258,15.709c-14.948,3.342-29.792-6.084-33.135-21.009c-2.03-9.074,1.518-24.275,7.167-30.684
		c1.357-1.545,1.208-3.894-0.333-5.255c-1.537-1.354-3.893-1.208-5.25,0.337c-7.167,8.138-11.38,25.881-8.841,37.227
		c3.66,16.355,18.225,27.498,34.328,27.498c2.539,0,5.112-0.275,7.686-0.849c6.788-1.522,13.269-6.268,18.225-11.595
		c0.547,12.749,0.704,25.923,0.107,37.808c-66.292-20.019-92.242,3.966-95.944,7.908c-5.273,5.61-7.697,13.511-6.65,21.671
		c1.358,10.607,8.344,20.588,19.166,27.395c11.621,7.315,33.238,12.573,53.241,6.822c14.103-4.046,24.825-12.94,31.009-25.725
		c3.006-6.221,5.105-15.379,6.287-27.398c26.672,9.258,58.924,25.212,97.201,50.729c27.078,18.057,111.714,59.646,198.026,59.646
		c46.668-0.008,93.84-12.172,132.643-46.798c1.613-1.442,1.754-3.916,0.312-5.529
		C1616.444,480.539,1613.966,480.405,1612.356,481.847z M1176.365,448.101c-5.258,10.875-14.045,18.145-26.118,21.609
		c-16.894,4.856-36.393,0.695-46.913-5.92c-8.833-5.561-14.504-13.491-15.567-21.766c-0.757-5.92,0.872-11.357,4.589-15.315
		c6.891-7.331,20.458-13.453,41.486-13.453c13.113,0,29.112,2.383,48.198,8.333C1181.08,432.632,1179.306,442.024,1176.365,448.101z
		"/>
	<path fill="#010101" d="M1241.602,215.155c1.912,1.017,4.279,0.298,5.3-1.606c23.941-44.741,79.821-61.662,124.551-37.724
		c44.737,23.934,61.662,79.811,37.724,124.551c-20.183,37.72-63.064,55.662-102.834,46.018l6.458-96.195
		c0.146-2.157-1.487-4.023-3.644-4.169c-2.23-0.194-4.023,1.487-4.173,3.645l-6.344,94.472c-4.753-1.606-9.445-3.603-14.015-6.05
		c-1.912-1.017-4.275-0.302-5.3,1.606c-1.021,1.904-0.303,4.279,1.605,5.3c5.587,2.99,11.334,5.392,17.17,7.228L1293,428.192
		c-0.145,2.157,1.488,4.027,3.645,4.168c0.092,0.008,0.18,0.012,0.268,0.012c2.043,0,3.764-1.587,3.904-3.655l4.998-74.438
		c7.308,1.668,14.703,2.521,22.058,2.521c35.67-0.004,70.238-19.139,88.211-52.729c25.973-48.55,7.609-109.175-40.936-135.151
		c-48.542-25.977-109.175-7.613-135.151,40.936C1238.975,211.759,1239.694,214.13,1241.602,215.155z"/>
	<path fill="#010101" d="M1020.079,341.392c-4.237-2.543-9.851-2.719-17.158-0.547c-7.438,2.215-12.428,7.896-15.571,13.239
		l-2.612-10.405c-0.524-2.104-2.677-3.365-4.75-2.845c-2.1,0.523-3.373,2.649-2.845,4.749l13.812,55.047
		c0.443,1.777,2.042,2.963,3.793,2.963c0.317,0,0.638-0.038,0.956-0.118c2.1-0.524,3.373-2.65,2.845-4.749l-8.084-32.21
		c0.042-0.122,0.115-0.222,0.146-0.345c0.237-0.895,4.065-14.699,14.542-17.819c5.013-1.491,8.681-1.575,10.895-0.245
		c1.954,1.171,3.285,3.794,4.191,8.249c0.429,2.114,2.482,3.499,4.616,3.056c2.119-0.429,3.487-2.494,3.055-4.616
		C1027.046,350.539,1025.295,344.521,1020.079,341.392z"/>
</g>
<g>
	<g>
		<path fill="#754E26" d="M1761.885,785.673c-15.244,0-29.723-5.626-43.041-16.726l-1.213-1.011l0.391-1.528
			c0.361-1.402,8.916-34.35,20.842-44.794c0.189-0.169,0.439-0.41,0.742-0.701c3.326-3.213,12.15-11.741,27.961-11.741
			c1.855,0,3.777,0.123,5.703,0.364c12.229,1.528,17.734,3.507,20.332,7.297c2.398,3.502,1.586,7.87,0.541,12.044
			c-2.098,8.371-9.297,12.124-13.16,13.57c3.34,11.312,14.051,30.666,14.168,30.871l1.109,1.998l-1.891,1.287
			C1793.822,776.972,1780.777,785.673,1761.885,785.673z M1723.283,766.117c12.049,9.658,25.027,14.555,38.605,14.555
			c13.289,0,23.604-4.801,27.727-7.062c-3.205-5.953-11.977-22.767-14.096-32.295l-0.543-2.44l2.443-0.544
			c0.092-0.02,9.787-2.33,11.873-10.669c1.104-4.428,1.152-6.594,0.186-8.003c-1.584-2.314-6.775-3.907-16.828-5.162
			c-1.723-0.215-3.434-0.327-5.084-0.327c-13.793,0-21.557,7.512-24.482,10.337c-0.381,0.363-0.688,0.662-0.922,0.869
			C1732.742,733.622,1725.104,759.531,1723.283,766.117z"/>
	</g>
	<g>
		<path fill="#754E26" d="M1770.457,804.571c-12.672,0-20.486-3.689-28.1-7.282c-7.09-3.345-13.781-6.505-24.414-6.505
			c-22.914,0-40.043-12.403-45.117-24.654c-3.029-7.319-1.812-14.472,3.34-19.624c15.111-15.116,45.734,7.551,47.031,8.52l-3,4
			c-0.283-0.21-28.424-21.055-40.492-8.983c-4.744,4.747-3.85,10.327-2.256,14.171c4.439,10.72,19.779,21.57,40.498,21.57
			c11.756,0,19.271,3.55,26.543,6.981c9.842,4.642,19.137,9.028,39.297,5.561c22.688-3.912,39.01-7.16,42.414-13.355
			c0.707-1.284,1.42-3.536-0.533-8.228c-2.305-5.533-10.676-11.922-37.348-11.008c-0.723,0.029-1.271,0.046-1.609,0.046v-5.001
			c0.303,0,0.787-0.018,1.432-0.042c23.713-0.85,37.898,3.91,42.139,14.083c2.09,5.019,2.188,9.126,0.303,12.56
			c-4.504,8.19-20.367,11.463-45.949,15.873C1779.277,804.171,1774.604,804.571,1770.457,804.571z"/>
	</g>
</g>
<g>
	<g>
		<path fill="#ACD480" d="M632.634,795.536c-16.895,0-30.633-13.741-30.633-30.633c0-16.894,13.738-30.632,30.633-30.632
			c16.889,0,30.632,13.738,30.632,30.632C663.267,781.795,649.523,795.536,632.634,795.536z M632.634,739.272
			c-14.135,0-25.631,11.497-25.631,25.631c0,14.132,11.497,25.632,25.631,25.632c14.133,0,25.631-11.5,25.631-25.632
			C658.265,750.77,646.77,739.272,632.634,739.272z"/>
	</g>
	<g>
		<path fill="#ACD480" d="M710.115,795.536c-16.895,0-30.632-13.741-30.632-30.633c0-16.894,13.737-30.632,30.632-30.632
			c16.889,0,30.632,13.738,30.632,30.632C740.748,781.795,727.004,795.536,710.115,795.536z M710.115,739.272
			c-14.133,0-25.631,11.497-25.631,25.631c0,14.132,11.498,25.632,25.631,25.632s25.631-11.5,25.631-25.632
			C735.747,750.77,724.249,739.272,710.115,739.272z"/>
	</g>
	<g>
		<path fill="#ACD480" d="M662.533,766.672l-3.535-3.536c0.266-0.267,6.667-6.467,14.25-6.034c4.108,0.264,7.712,2.376,10.715,6.278
			l-3.967,3.048c-2.115-2.745-4.425-4.164-7.07-4.332C667.594,761.778,662.583,766.625,662.533,766.672z"/>
	</g>
</g>
<g>
	<g>
		<polygon fill="#71CDDD" points="1259.373,703.49 1258.826,704.249 1189.361,800.229 1185.307,797.294 1254.23,702.071 
			1253.088,688.989 1241.727,692.386 1178.431,792.586 1174.205,789.915 1238.499,688.132 1257.541,682.442 		"/>
	</g>
	<g>
		<path fill="#71CDDD" d="M1202.439,808.057l-14.306,10.42l-29.592-20.174l2.501-18.471L1202.439,808.057z M1188.043,812.359
			l5.718-4.169l-28.849-19.668l-0.995,7.39L1188.043,812.359z"/>
	</g>
	<g>
		<path fill="#71CDDD" d="M1168.999,836.706l-22.286-15.192l8.497-4.664l12.503-18.344l15.785,10.759l-12.566,18.438
			L1168.999,836.706z M1156.273,821.973l9.397,6.408l0.575-2.686l10.305-15.116l-7.517-5.126l-10.367,15.206L1156.273,821.973z"/>
	</g>
	<g>
		<polygon fill="#71CDDD" points="1185.16,796.273 1256.809,686.735 1256.799,702.779 1188.803,799.729 		"/>
	</g>
</g>
<g>
	<g>
		<g>
			<path fill="#FFCF7D" d="M849.061,799.16c-9.68,0-19.077-2.496-27.937-7.419l-1.982-1.099l13.005-29.92l-12.795-34.84l1.484-1.116
				c0.488-0.368,12.155-9.022,28.732-9.022c9.757,0,19.154,3.011,27.937,8.949l1.666,1.129l-12.879,32.205l12.894,32.527
				l-1.738,1.108C876.968,791.971,865.53,799.16,849.061,799.16z M825.554,788.435c7.513,3.8,15.409,5.725,23.507,5.725
				c11.38,0,20.268-3.854,23.909-5.72l-12.059-30.422l12.109-30.276c-7.445-4.645-15.321-6.996-23.448-6.996
				c-11.658,0-20.742,4.848-24.207,7.004l12.169,33.13L825.554,788.435z"/>
		</g>
	</g>
	<g>
		<g>
			<g>
				<path fill="#FFCF7D" d="M848.598,811.365c-29.645,0-53.763-24.12-53.763-53.764c0-29.646,24.118-53.763,53.763-53.763
					c29.645,0,53.764,24.117,53.764,53.763C902.362,787.245,878.243,811.365,848.598,811.365z M848.598,708.84
					c-26.886,0-48.762,21.876-48.762,48.762c0,26.887,21.876,48.763,48.762,48.763c26.887,0,48.762-21.876,48.762-48.763
					C897.36,730.716,875.485,708.84,848.598,708.84z"/>
			</g>
		</g>
		<g>
			<g>
				<path fill="#FFCF7D" d="M831.509,753.436c0,0,14.584,4.166,15.004,7.918c0.415,3.75-15.839,20.835-18.34,18.754
					c-2.5-2.085-5.831,9.445-5.831,9.445s43.601,16.029,53.763,0c6.252-9.86-33.343-8.195-15.003-31.535
					c10.924-13.907,7.082-11.668,7.082-11.668S801.082,694.252,831.509,753.436z"/>
			</g>
		</g>
		<g>
			<g>
				<path fill="#FFCF7D" d="M806.503,807.959c-3.301,0-5.949-0.975-7.867-2.895c-10.258-10.256,8.992-40.229,33.298-64.542
					c21.649-21.648,44.426-36.195,56.669-36.195c3.306,0,5.954,0.978,7.872,2.894c10.253,10.254-8.993,40.23-33.303,64.54
					C841.524,793.414,818.751,807.959,806.503,807.959z M888.603,711.832c-8.63,0-29.045,11.68-51.365,34
					c-28.22,28.22-36.802,50.427-33.298,53.929c0.575,0.576,1.714,0.696,2.563,0.696c8.629,0,29.044-11.678,51.365-34
					c28.219-28.22,36.801-50.428,33.303-53.93C890.593,711.951,889.456,711.832,888.603,711.832z"/>
			</g>
		</g>
	</g>
</g>
<g>
	<g>
		<path fill="#ADD6F2" d="M1442.348,808.146h-124.162l62.988-97.164L1442.348,808.146z M1327.389,803.146h105.898l-52.18-82.877
			L1327.389,803.146z"/>
	</g>
	<g>
		<path fill="#ADD6F2" d="M1380.307,808.146c-18.387,0-33.338-14.957-33.338-33.343c0-18.384,14.951-33.339,33.338-33.339
			c18.383,0,33.342,14.955,33.342,33.339C1413.648,793.189,1398.689,808.146,1380.307,808.146z M1380.307,746.467
			c-15.625,0-28.338,12.713-28.338,28.337c0,15.629,12.713,28.342,28.338,28.342c15.629,0,28.342-12.713,28.342-28.342
			C1408.648,759.18,1395.936,746.467,1380.307,746.467z"/>
	</g>
	<g>
		<rect x="1378.635" y="715.624" fill="#ADD6F2" width="5.002" height="90.022"/>
	</g>
</g>
<g>
	<g>
		<path fill="#942C8E" d="M1564.512,740.942h-19.068c-0.713,0-1.395-0.303-1.865-0.835c-0.475-0.527-0.699-1.235-0.621-1.941
			c0.225-2.098,0.117-8.109-3.031-10.633c-0.914-0.729-2.154-0.938-3.594-1.179c-5.562-0.938-10.17-2.899-10.207-17.432
			c-0.229-1.875-1.676-16.363,6.848-26.144c5.012-5.751,12.363-8.667,21.865-8.667h0.266c9.506,0,16.861,2.916,21.867,8.667
			c8.521,9.78,7.082,24.269,6.852,26.144c-0.029,12.103-3.014,14.853-8.869,15.893c-1.875,0.335-3.229,0.571-4.488,2.262
			c-4.361,5.841-3.541,10.682-3.508,10.887c0.137,0.729-0.059,1.494-0.537,2.063
			C1565.951,740.601,1565.254,740.942,1564.512,740.942z M1548.014,735.941h13.902c0.146-2.767,1.027-7.146,4.549-11.855
			c2.443-3.275,5.436-3.803,7.619-4.193c2.859-0.506,4.742-0.84,4.742-11.128c0-0.112,0.004-0.228,0.02-0.34
			c0.02-0.139,1.783-13.865-5.66-22.383c-4.016-4.596-10.096-6.929-18.078-6.929h-0.268c-7.98,0-14.061,2.333-18.078,6.929
			c-7.438,8.518-5.678,22.244-5.66,22.383c0.016,0.112,0.025,0.228,0.025,0.34c0,11.641,2.529,12.065,6.035,12.657
			c1.857,0.312,3.957,0.669,5.889,2.207C1547.119,726.889,1547.926,732.555,1548.014,735.941z"/>
	</g>
	<g>
		<g>
			<path fill="#942C8E" d="M1551.76,740.779c-1.383,0-2.502-1.116-2.502-2.501v-5.775c0-1.382,1.119-2.5,2.502-2.5
				c1.381,0,2.5,1.118,2.5,2.5v5.775C1554.26,739.663,1553.141,740.779,1551.76,740.779z"/>
		</g>
		<g>
			<path fill="#942C8E" d="M1558.191,740.779c-1.383,0-2.5-1.116-2.5-2.501v-5.775c0-1.382,1.117-2.5,2.5-2.5
				c1.381,0,2.5,1.118,2.5,2.5v5.775C1560.691,739.663,1559.572,740.779,1558.191,740.779z"/>
		</g>
	</g>
	<g>
		<g>
			<path fill="#942C8E" d="M1544.092,718.521c-4.926,0-8.93-4.008-8.93-8.928c0-4.929,4.006-8.934,8.93-8.934
				c4.92,0,8.93,4.01,8.93,8.934C1553.023,714.513,1549.014,718.521,1544.092,718.521z M1544.092,705.658
				c-2.164,0-3.928,1.764-3.928,3.932c0,2.166,1.764,3.925,3.928,3.925c2.166,0,3.928-1.759,3.928-3.925
				C1548.023,707.422,1546.26,705.658,1544.092,705.658z"/>
		</g>
		<g>
			<path fill="#942C8E" d="M1565.859,718.521c-4.924,0-8.932-4.008-8.932-8.928c0-4.929,4.01-8.934,8.932-8.934
				s8.928,4.01,8.928,8.934C1574.787,714.513,1570.781,718.521,1565.859,718.521z M1565.859,705.658c-2.166,0-3.93,1.764-3.93,3.932
				c0,2.166,1.764,3.925,3.93,3.925c2.164,0,3.926-1.759,3.926-3.925C1569.785,707.422,1568.023,705.658,1565.859,705.658z"/>
		</g>
	</g>
	<g>
		<path fill="#942C8E" d="M1554.781,726.928c-3.008,0-4.17-1.521-4.6-2.432c-1.406-2.994,1.402-6.889,2.676-8.425l1.754-2.112
			l1.936,1.938c1.125,1.121,4.674,5.035,3.303,8.347C1559.344,725.471,1558.055,726.928,1554.781,726.928z"/>
	</g>
	<g>
		<path fill="#942C8E" d="M1571.025,805.406c-7.473,0-9.146-12.298-9.406-14.769l-0.293-2.76h2.779c0.178,0,0.572,0.039,1.094,0.103
			c2.359,0.303,3.527,0.264,4.104,0.151c-0.619-1.689-4.574-7.587-28.418-24.739c-18.832-13.544-27.979-26.354-27.18-38.074
			c0.82-12.049,11.832-18.017,12.299-18.266c1.215-0.652,2.734-0.186,3.387,1.035c0.645,1.219,0.178,2.73-1.035,3.383
			c-0.145,0.075-9.061,4.998-9.662,14.229c-0.635,9.733,8.049,21.362,25.115,33.631c29.084,20.916,31.754,27.191,30.314,30.857
			c-1.1,2.778-4.332,3.13-7.01,3.003c0.809,3.617,2.316,7.214,3.916,7.214l0,0c5.654-0.007,9.105-1.772,10.539-5.401
			c2.943-7.426-2.916-20.376-6.312-23.578c-1.543-1.457-3.213-2.703-4.832-3.909c-4.094-3.053-8.328-6.215-9.434-12.303
			c-0.924-5.079,5.469-9.541,13.566-15.189c7.312-5.099,15.6-10.882,17.887-16.82c4.098-10.657-11.248-19.248-11.408-19.331
			c-1.203-0.669-1.65-2.186-0.986-3.395c0.664-1.211,2.184-1.655,3.387-0.988c0.797,0.432,19.336,10.778,13.672,25.511
			c-2.838,7.37-11.791,13.617-19.693,19.126c-4.432,3.094-11.855,8.273-11.512,10.193c0.758,4.151,3.736,6.376,7.512,9.191
			c1.725,1.289,3.512,2.623,5.266,4.273c4.236,3.99,11.477,19.102,7.535,29.058c-1.543,3.899-5.43,8.554-15.184,8.568h-0.006
			V805.406z"/>
	</g>
	<g>
		<path fill="#942C8E" d="M1584.336,849.019c-2.969,0-5.936-1.082-10.428-2.716l-1.328-0.48c-1.857-0.675-3.967-0.465-5.906-0.14
			c-0.967,0.163-1.967,0.337-2.969,0.337c-7.482,0-9.924-6.898-11.662-52.574c-0.455-3.494,0.131-9.997,5.309-10.812l0.303-0.049
			l0.307,0.029c1.402,0.124,13.605,2.132,10.914,34.024c-1.051,12.451,0.17,15.875,0.633,16.69c0.863-0.461,2.818-2.495,4.637-5.626
			c4.371-7.487,11.125-9.087,16.449-3.808c1.885,1.863,5.002,3.028,7.752,4.057c3.74,1.395,6.973,2.599,7.363,5.709
			c0.387,3.085-2.602,5.627-5.887,7.912C1592.213,846.862,1588.678,849.016,1584.336,849.019z M1569.766,840.337
			c1.582,0,3.059,0.254,4.514,0.779l1.338,0.48c4.137,1.51,6.633,2.418,8.719,2.418c2.744,0,5.562-1.636,12.635-6.555
			c2.383-1.657,3.277-2.646,3.604-3.105c-0.779-0.53-2.662-1.231-3.971-1.725c-3.07-1.138-6.881-2.562-9.531-5.187
			c-1.152-1.143-2.256-1.719-3.277-1.719c-1.697,0-3.689,1.68-5.33,4.493c-1.783,3.064-5.354,8.205-9.197,8.205
			c-1.26,0-2.398-0.516-3.291-1.487c-1.635-1.78-3.352-5.744-2.086-20.718c1.996-23.637-4.494-27.856-6.047-28.516
			c-0.803,0.649-1.068,3.448-0.83,5.333c1.314,34.145,3.246,47.983,6.689,47.983c0.574,0,1.293-0.122,2.129-0.262
			C1566.982,840.557,1568.281,840.337,1569.766,840.337z"/>
	</g>
	<g>
		<path fill="#942C8E" d="M1552.238,805.744c-0.104,0-0.215-0.006-0.322-0.02c-0.725-0.094-17.756-2.394-21.994-12.006
			c-1.922-4.356-0.984-9.291,2.787-14.666c8.256-11.761,11.248-14.232,13.883-14.677c1.955-0.317,3.285,0.64,4.17,1.277
			c0.375,0.271,0.697,0.506,1.01,0.62c6.115,2.22,7.252,19.612,2.398,35.387c0.42,0.519,0.635,1.197,0.549,1.905
			C1554.553,804.825,1553.479,805.744,1552.238,805.744z M1547.207,769.292c-0.41,0.159-2.705,1.673-10.4,12.635
			c-2.695,3.844-3.475,7.133-2.309,9.778c2.076,4.703,9.789,7.348,14.896,8.49c4.787-15.517,2.277-27.956,0.535-29.289
			c-0.838-0.283-1.562-0.811-2.098-1.197C1547.617,769.551,1547.318,769.336,1547.207,769.292z"/>
	</g>
	<g>
		<path fill="#942C8E" d="M1580.408,770.799l-0.244-0.01c-0.381-0.015-9.338-0.459-16.553-8.027l-2.656-2.791l3.639-1.289
			c0.215-0.078,21.391-7.771,18.809-22.95l-0.221-1.302l0.953-0.916c0.078-0.078,7.785-7.54,9.553-13.724l1.854-6.481l2.82,6.12
			c0.436,0.947,10.576,23.328,2.424,38.594c-3.695,6.918-10.469,11.201-20.127,12.737L1580.408,770.799z M1570.039,761.783
			c4.523,3.315,9.074,3.902,10.105,3.992c7.885-1.307,13.344-4.711,16.227-10.109c4.814-9.004,1.848-21.668-0.504-28.77
			c-2.477,4.075-5.771,7.673-7.352,9.307C1590.049,750.296,1576.809,758.53,1570.039,761.783z"/>
	</g>
	<g>
		<path fill="#942C8E" d="M1530.771,794.737l-2.348-1.101c-14.877-6.975-23.678-16.374-26.154-27.928
			c-4.166-19.433,11.145-37.525,11.799-38.285l4.396-5.116v6.742c0,4.216,6.18,14.281,10.076,19.637l1.189,1.634l-1.35,1.507
			c-3.203,3.567-4.453,6.957-3.711,10.075c1.422,5.959,9.852,10.425,12.977,11.641l2.996,1.168l-1.871,2.62
			c-1.084,1.517-4.855,10.017-6.988,15.021L1530.771,794.737z M1514.816,734.859c-4.002,6.073-10.217,17.912-7.656,29.824
			c2.016,9.346,9.098,17.173,21.061,23.287c1.309-3.025,3.428-7.826,5.01-10.945c-4.092-2.059-11.705-6.764-13.422-13.948
			c-1.031-4.306,0.162-8.688,3.555-13.048C1521.258,746.989,1516.994,740.503,1514.816,734.859z"/>
	</g>
	<g>
		<path fill="#942C8E" d="M1586.527,835.089c-0.346,0-0.697-0.07-1.035-0.225c-0.561-0.256-0.957-0.383-1.215-0.446
			c-0.568,0.527-1.369,0.791-2.193,0.622c-1.354-0.271-2.232-1.59-1.963-2.942c0.072-0.361,0.414-1.587,1.809-2.301
			c1.424-0.732,3.271-0.563,5.637,0.514c1.26,0.573,1.811,2.056,1.24,3.311C1588.385,834.545,1587.475,835.089,1586.527,835.089z"/>
	</g>
	<g>
		<path fill="#942C8E" d="M1605.918,844.283c-4.615,0-8.621-2.5-8.865-2.657c-1.162-0.742-1.512-2.288-0.766-3.452
			c0.742-1.163,2.283-1.505,3.447-0.772l0,0c0.057,0.037,5.881,3.629,9.695,0.772c1.102-0.831,2.664-0.606,3.494,0.498
			c0.83,1.104,0.605,2.671-0.498,3.499C1610.338,843.741,1608.062,844.283,1605.918,844.283z"/>
	</g>
</g>
<g>
	<path fill="#D16D28" d="M1009.953,814.789l-4.014-52.933h-14.496l4.289-57.761h64.469l-32.36,49.252h17.216L1009.953,814.789z
		 M997.506,756.225h13.646l3.023,39.824l21.183-37.069h-17.96l32.365-49.253h-48.806L997.506,756.225z"/>
</g>
</svg>
