<?xml version="1.0" encoding="utf-8"?>
<!-- Generator: Adobe Illustrator 16.0.0, SVG Export Plug-In . SVG Version: 6.00 Build 0)  -->
<!DOCTYPE svg PUBLIC "-//W3C//DTD SVG 1.1//EN" "http://www.w3.org/Graphics/SVG/1.1/DTD/svg11.dtd">
<svg version="1.1" xmlns="http://www.w3.org/2000/svg" xmlns:xlink="http://www.w3.org/1999/xlink" x="0px" y="0px" width="206.5px"
	 height="187px" viewBox="0 0 206.5 187" enable-background="new 0 0 206.5 187" xml:space="preserve">
<g id="Layer_5">
</g>
<g id="Layer_1">
</g>
<g id="titles">
</g>
<g id="Layer_3" display="none">
</g>
<g id="Layer_4">
	<g>
		<g>
			<path fill="#00A99D" stroke="#00A99D" stroke-width="1.1014" stroke-miterlimit="10" d="M57.914,156.318
				c-2.225,0-4.439-0.361-6.555-1.224c-4.611-1.887-6.535-5.244-6.614-5.385c-0.224-0.401-0.08-0.909,0.32-1.133
				s0.908-0.086,1.13,0.315l0,0c0.281,0.497,7.129,12.01,26.794,1.16c2.482-1.368,5.386-3.487,8.751-5.939
				c10.899-7.948,25.832-18.835,42.303-15.222c0.448,0.098,0.732,0.542,0.633,0.99c-0.099,0.451-0.542,0.737-0.991,0.637
				c-15.735-3.451-30.32,7.178-40.968,14.939c-3.408,2.484-6.351,4.633-8.926,6.053C69.429,153.918,63.639,156.318,57.914,156.318z"
				/>
		</g>
		<g>
			<path fill="#00A99D" stroke="#00A99D" stroke-width="1.1014" stroke-miterlimit="10" d="M36.491,111.924
				c-3.354,0-6.675-0.828-9.714-2.454c-0.405-0.215-0.558-0.721-0.338-1.127c0.215-0.404,0.718-0.558,1.123-0.338
				c4.472,2.39,9.604,2.899,14.459,1.428c4.854-1.469,8.842-4.74,11.233-9.211c2.392-4.47,2.899-9.604,1.431-14.46
				c-1.47-4.853-4.739-8.841-9.213-11.232c-9.227-4.939-20.757-1.448-25.691,7.78c-0.219,0.406-0.723,0.558-1.127,0.34
				c-0.406-0.215-0.56-0.721-0.34-1.125C23.682,71.489,36.223,67.69,46.26,73.06c4.861,2.604,8.421,6.942,10.018,12.221
				c1.6,5.276,1.045,10.863-1.556,15.727c-2.603,4.861-6.941,8.422-12.218,10.021C40.524,111.625,38.5,111.924,36.491,111.924z"/>
		</g>
		<g>
			<g>
				<g>
					<path fill="#00A99D" stroke="#00A99D" stroke-width="1.1014" stroke-miterlimit="10" d="M75.407,92.273
						c-2.266,0-4.242-0.8-5.877-2.381c-1.646-1.581-2.476-3.493-2.476-5.682c0-1.871,0.612-3.554,1.814-5.001
						c0.96-1.151,2.167-1.985,3.6-2.486c-0.957-0.34-1.751-0.839-2.369-1.491c-0.854-0.905-1.292-2.005-1.292-3.27
						c0-1.47,0.596-2.74,1.771-3.781c1.161-1.028,2.601-1.549,4.275-1.549c0.851,0,1.672,0.146,2.446,0.44
						c0.778,0.297,1.431,0.708,1.937,1.22l0.051,0.052c0.057,0.058,0.112,0.134,0.153,0.217c0.05,0.098,0.073,0.188,0.073,0.273
						c0,0.146-0.048,0.271-0.141,0.374c-0.161,0.177-0.417,0.235-0.641,0.105c-0.056-0.029-0.111-0.075-0.181-0.144l-0.077-0.08
						c-0.404-0.404-0.93-0.723-1.564-0.95c-0.645-0.232-1.353-0.347-2.105-0.347c-1.368,0-2.532,0.415-3.457,1.232
						c-0.927,0.819-1.379,1.779-1.379,2.93c0,1.266,0.506,2.253,1.543,3.021c1.056,0.778,2.499,1.17,4.282,1.17h0.107
						c0.188,0,0.336,0.041,0.445,0.123c0.136,0.099,0.209,0.249,0.209,0.426c0,0.155-0.05,0.293-0.145,0.402
						c-0.092,0.104-0.217,0.174-0.365,0.206l-0.172,0.005c-0.1,0.009-0.306,0.027-0.597,0.054c-1.635,0.129-2.928,0.497-3.844,1.097
						c-0.977,0.628-1.764,1.476-2.347,2.517c-0.576,1.037-0.871,2.124-0.871,3.229c0,1.85,0.721,3.482,2.141,4.846
						c1.426,1.368,3.125,2.065,5.063,2.065c1.983,0,3.688-0.658,5.065-1.946c1.298-1.216,2.021-2.732,2.158-4.514l-5.916-0.011
						c-0.159,0-0.308-0.06-0.419-0.17c-0.119-0.111-0.179-0.262-0.179-0.435c0-0.238,0.109-0.365,0.198-0.43
						c0.103-0.08,0.234-0.114,0.404-0.114l5.902-0.013c-0.028-0.259-0.064-0.499-0.112-0.717c-0.064-0.297-0.148-0.559-0.243-0.771
						l-0.097-0.261c-0.009-0.041-0.017-0.086-0.017-0.142c0-0.213,0.094-0.347,0.178-0.422c0.08-0.069,0.213-0.15,0.411-0.15
						c0.164,0.017,0.345,0.09,0.472,0.351l0.084,0.14c0.118,0.206,0.221,0.514,0.318,0.944c0.072,0.325,0.131,0.671,0.167,1.028
						l6.962,0.013c0.912,0,1.619-0.14,2.099-0.411c0.431-0.249,0.635-0.559,0.635-0.972c0-0.121-0.015-0.23-0.045-0.343
						c-0.034-0.111-0.089-0.242-0.168-0.385l-0.104-0.226c-0.009-0.039-0.015-0.088-0.015-0.166c0-0.133,0.036-0.245,0.111-0.333
						c0.071-0.077,0.164-0.136,0.282-0.159c0.181-0.002,0.265,0.011,0.34,0.036c0.062,0.028,0.12,0.062,0.175,0.102l0.06,0.045
						l0.039,0.08c0.127,0.12,0.234,0.294,0.333,0.548c0.102,0.267,0.152,0.538,0.152,0.805c0,0.486-0.188,0.938-0.565,1.345
						c-0.204,0.217-0.449,0.415-0.737,0.578c0.312,0.184,0.587,0.435,0.823,0.755c0.409,0.547,0.615,1.162,0.615,1.833v0.318
						c-0.04,0.241-0.092,0.37-0.183,0.465c-0.073,0.082-0.206,0.179-0.42,0.179c-0.176-0.02-0.303-0.08-0.397-0.175
						c-0.109-0.105-0.163-0.243-0.163-0.399v-0.495c0-0.563-0.198-1-0.607-1.336c-0.424-0.351-1.018-0.529-1.77-0.529h-7.443
						c-0.152,2.13-1.007,3.931-2.545,5.361C79.653,91.517,77.686,92.273,75.407,92.273z"/>
				</g>
			</g>
		</g>
		<g>
			<g>
				<g>
					<path fill="#00A99D" stroke="#00A99D" stroke-width="1.1014" stroke-miterlimit="10" d="M108.08,89.17
						c-1.009,0-1.751-0.27-2.211-0.805c-0.459-0.527-0.678-1.359-0.678-2.547v-0.132l0.077-3.853h-2.168
						c-0.164,0-0.314-0.06-0.427-0.174c-0.111-0.112-0.174-0.265-0.174-0.435c0-0.243,0.107-0.37,0.198-0.441
						c0.093-0.073,0.229-0.111,0.402-0.111h2.183l0.205-5.943c0-0.209,0.092-0.349,0.168-0.422c0.111-0.109,0.247-0.166,0.397-0.166
						c0.22,0,0.351,0.093,0.419,0.17c0.098,0.104,0.148,0.25,0.148,0.429l-0.156,5.933h3.355c0.161,0,0.306,0.064,0.42,0.189
						c0.111,0.118,0.168,0.262,0.168,0.421c0,0.216-0.098,0.347-0.18,0.416c-0.101,0.09-0.24,0.135-0.408,0.135h-3.396l-0.071,3.853
						c0,0.887,0.138,1.506,0.407,1.844c0.247,0.318,0.696,0.478,1.336,0.478c0.408,0,0.771-0.079,1.075-0.238
						c0.312-0.164,0.649-0.463,1.009-0.891l0.061-0.062c0.062-0.097,0.118-0.157,0.178-0.204c0.191-0.136,0.493-0.11,0.68,0.043
						c0.125,0.099,0.194,0.245,0.194,0.402c-0.02,0.156-0.073,0.264-0.155,0.378c-0.018,0.02-0.03,0.037-0.043,0.052l-0.021,0.039
						c-0.281,0.471-0.703,0.864-1.263,1.174C109.252,89.013,108.67,89.17,108.08,89.17z"/>
				</g>
			</g>
		</g>
		<g>
			<g>
				<g>
					<path fill="#00A99D" stroke="#00A99D" stroke-width="1.1014" stroke-miterlimit="10" d="M120.21,89.036
						c-0.181,0-0.329-0.058-0.426-0.166c-0.086-0.097-0.131-0.226-0.15-0.389l-0.028-3.853c0-1.098-0.161-1.889-0.488-2.35
						c-0.303-0.437-0.796-0.646-1.508-0.646c-0.458,0-0.936,0.084-1.415,0.25c-0.452,0.157-0.973,0.406-1.54,0.735v5.83
						c0,0.168-0.064,0.313-0.179,0.424c-0.237,0.217-0.644,0.208-0.839,0.006c-0.1-0.107-0.146-0.245-0.146-0.43v-5.142
						c-0.016,0.011-0.034,0.021-0.05,0.032l-0.157,0.067c-0.146,0.101-0.455,0.124-0.639-0.03c-0.099-0.086-0.156-0.216-0.156-0.361
						c0-0.141,0.043-0.34,0.264-0.519l0.105-0.073l0,0c-0.004,0,0.028-0.034,0.323-0.202c0.111-0.062,0.215-0.125,0.31-0.179V67.366
						c0.02-0.198,0.077-0.332,0.183-0.433c0.099-0.095,0.234-0.152,0.402-0.168h0.005c0.21,0,0.365,0.082,0.462,0.229
						c0.073,0.113,0.112,0.256,0.112,0.426v13.958c0.428-0.245,0.852-0.445,1.263-0.594c0.576-0.204,1.107-0.313,1.585-0.313
						c1.148,0,1.996,0.342,2.527,1.018c0.515,0.662,0.764,1.687,0.764,3.136v3.825c0,0.161-0.061,0.303-0.174,0.417
						C120.507,88.976,120.365,89.036,120.21,89.036z"/>
				</g>
			</g>
		</g>
		<g>
			<g>
				<g>
					<path fill="#00A99D" stroke="#00A99D" stroke-width="1.1014" stroke-miterlimit="10" d="M127.258,89.17
						c-1.28,0-2.326-0.404-3.104-1.2c-0.776-0.794-1.173-1.861-1.173-3.176c0-1.234,0.418-2.277,1.237-3.104
						c0.824-0.826,1.869-1.243,3.11-1.243c1.117,0,2.1,0.408,2.917,1.215c0.815,0.809,1.23,1.747,1.23,2.788
						c0,0.284-0.066,0.458-0.2,0.576c-0.123,0.11-0.295,0.168-0.524,0.168h-6.598c0.056,0.826,0.331,1.476,0.843,1.977
						c0.57,0.556,1.366,0.837,2.364,0.837c0.501,0,0.951-0.075,1.338-0.222c0.39-0.15,0.887-0.479,1.476-0.987l0.067-0.045
						c0.052-0.043,0.124-0.093,0.2-0.129c0.24-0.114,0.479-0.066,0.641,0.082c0.105,0.099,0.166,0.236,0.166,0.385
						c0,0.093-0.024,0.179-0.062,0.263c-0.035,0.072-0.082,0.137-0.141,0.204l-0.079,0.07c-0.529,0.54-1.104,0.938-1.685,1.18
						C128.696,89.047,128.019,89.17,127.258,89.17z M124.189,84.032l6.075,0.012c-0.136-0.678-0.441-1.227-0.934-1.67
						c-0.574-0.516-1.261-0.77-2.104-0.77c-0.831,0-1.519,0.258-2.108,0.787C124.62,82.846,124.314,83.383,124.189,84.032z"/>
				</g>
			</g>
		</g>
		<g>
			<g>
				<g>
					<path fill="#00A99D" stroke="#00A99D" stroke-width="1.1014" stroke-miterlimit="10" d="M60.304,117.398
						c-0.228,0-0.402-0.068-0.521-0.209c-0.107-0.129-0.154-0.299-0.154-0.522v-7.984c0-1.046-0.141-1.497-0.261-1.697
						c-0.091-0.148-0.269-0.345-0.755-0.345c-0.527,0-1.261,0.34-2.166,1.02c-0.222,0.157-0.383,0.271-0.484,0.349l-0.133,0.071
						c-0.014,0.018-0.076,0.047-0.134,0.071c-0.185,0.077-0.469,0.045-0.665-0.11c-0.189-0.152-0.228-0.313-0.228-0.428
						c0-0.134,0.025-0.25,0.073-0.351c0.054-0.099,0.125-0.186,0.217-0.258l0.045-0.048c0.658-0.585,1.285-1.028,1.874-1.318
						c1.443-0.717,2.786-0.572,3.489,0.346c0.385,0.497,0.583,1.218,0.583,2.137v0.308c1.342-1.278,2.332-2.104,3.018-2.515
						c0.801-0.484,1.59-0.729,2.347-0.729c0.908,0,1.656,0.295,2.223,0.878c0.572,0.583,0.858,1.354,0.858,2.293
						c0,0.77-0.194,1.452-0.572,2.021c-0.383,0.57-0.948,1.021-1.685,1.33l-0.102,0.043c-0.034,0.017-0.101,0.041-0.176,0.052
						c-0.189,0.032-0.447-0.011-0.596-0.186c-0.1-0.107-0.155-0.26-0.155-0.422c0-0.12,0.034-0.234,0.097-0.329
						c0.061-0.09,0.145-0.161,0.254-0.215l0.078-0.041c0.503-0.283,0.875-0.6,1.09-0.92c0.209-0.318,0.312-0.685,0.312-1.123
						c0-0.631-0.157-1.114-0.472-1.443c-0.312-0.323-0.751-0.482-1.349-0.482c-0.512,0-1.189,0.282-2.007,0.842
						c-0.839,0.571-1.901,1.51-3.164,2.785v6.399c0,0.2-0.08,0.381-0.234,0.522C60.706,117.327,60.517,117.398,60.304,117.398z
						 M58.613,105.944c0.776,0,1.162,0.369,1.351,0.686c0.241,0.4,0.359,1.073,0.359,2.053v7.984c0,0.013,0,0.026,0.002,0.037
						c0.032-0.003,0.041-0.014,0.05-0.02l0.013-8.563c0-0.762-0.146-1.338-0.437-1.715c-0.499-0.647-1.499-0.701-2.629-0.144
						c-0.354,0.176-0.725,0.413-1.111,0.707C57.17,106.284,57.959,105.944,58.613,105.944z M66.826,111.119l0.116,0.336
						l-0.026-0.188l-0.013,0.007l0.011-0.023l-0.011-0.104C66.88,111.13,66.854,111.119,66.826,111.119z M66.256,105.944
						c0.787,0,1.411,0.231,1.854,0.701c0.438,0.458,0.66,1.105,0.66,1.921c0,0.387-0.066,0.748-0.2,1.068
						c0.175-0.376,0.263-0.804,0.263-1.279c0-0.764-0.213-1.355-0.653-1.807c-0.443-0.452-1.008-0.67-1.73-0.67
						c-0.628,0-1.299,0.214-1.989,0.631c-0.105,0.062-0.22,0.14-0.345,0.226C64.95,106.202,65.651,105.944,66.256,105.944z"/>
				</g>
			</g>
		</g>
		<g>
			<g>
				<g>
					<path fill="#00A99D" stroke="#00A99D" stroke-width="1.1014" stroke-miterlimit="10" d="M73.073,100.726
						c0.26,0,0.476,0.09,0.651,0.275c0.177,0.181,0.265,0.394,0.265,0.641c0,0.243-0.091,0.46-0.273,0.644
						c-0.183,0.179-0.394,0.272-0.643,0.272c-0.23,0-0.443-0.097-0.633-0.283c-0.187-0.189-0.279-0.4-0.279-0.633
						c0-0.247,0.093-0.46,0.279-0.641C72.63,100.815,72.843,100.726,73.073,100.726z M73.445,116.663
						c0,0.104-0.043,0.191-0.123,0.273c-0.084,0.077-0.188,0.116-0.31,0.116c-0.125,0-0.206-0.028-0.258-0.089
						c-0.048-0.056-0.069-0.157-0.069-0.301v-10.726c0-0.127,0.039-0.229,0.125-0.299c0.077-0.071,0.176-0.105,0.284-0.105
						c0.109,0,0.195,0.043,0.258,0.125c0.058,0.086,0.093,0.204,0.093,0.361V116.663z"/>
				</g>
			</g>
			<g>
				<g>
					<path fill="#00A99D" stroke="#00A99D" stroke-width="1.1014" stroke-miterlimit="10" d="M73.013,117.398
						c-0.29,0-0.443-0.116-0.527-0.215c-0.099-0.116-0.15-0.288-0.15-0.521v-10.726c0-0.29,0.134-0.465,0.245-0.563
						c0.304-0.265,0.813-0.247,1.053,0.079c0.107,0.145,0.158,0.334,0.158,0.566v10.644c0,0.2-0.079,0.381-0.229,0.524
						C73.413,117.327,73.226,117.398,73.013,117.398z M73.07,105.864l-0.04,0.073v10.726c0,0.015,0.002,0.03,0.002,0.041
						c0.032-0.003,0.041-0.014,0.05-0.02l0.015-10.665C73.097,105.898,73.07,105.864,73.07,105.864z M73.073,102.902
						c-0.327,0-0.624-0.129-0.876-0.383c-0.258-0.256-0.385-0.551-0.385-0.878c0-0.344,0.127-0.646,0.387-0.893
						c0.531-0.514,1.311-0.471,1.777,0.007c0.238,0.251,0.359,0.546,0.359,0.886s-0.125,0.639-0.375,0.887
						C73.714,102.777,73.413,102.902,73.073,102.902z M73.073,101.074c-0.143,0-0.265,0.056-0.39,0.176
						c-0.118,0.114-0.176,0.239-0.176,0.392c0,0.14,0.058,0.265,0.18,0.385c0.259,0.259,0.562,0.232,0.783,0.014
						c0.119-0.119,0.17-0.243,0.17-0.398c0-0.157-0.051-0.286-0.165-0.4C73.365,101.128,73.238,101.074,73.073,101.074z"/>
				</g>
			</g>
		</g>
		<g>
			<g>
				<g>
					<path fill="#00A99D" stroke="#00A99D" stroke-width="1.1014" stroke-miterlimit="10" d="M94.866,117.595
						c-1.679,0-3.149-0.618-4.369-1.833c-1.214-1.218-1.833-2.691-1.833-4.371c0-1.697,0.609-3.171,1.805-4.382
						c1.196-1.211,2.676-1.824,4.397-1.824c1.737,0,3.224,0.604,4.416,1.805c1.191,1.198,1.792,2.679,1.792,4.401
						c0,1.708-0.613,3.186-1.824,4.391C98.039,116.983,96.565,117.595,94.866,117.595z M94.866,105.879
						c-1.549,0-2.825,0.529-3.902,1.62c-1.082,1.089-1.604,2.362-1.604,3.892c0,1.512,0.533,2.781,1.633,3.878
						c1.092,1.098,2.365,1.631,3.874,1.631c1.531,0,2.805-0.529,3.894-1.613c1.09-1.084,1.619-2.359,1.619-3.896
						c0-1.553-0.521-2.833-1.59-3.911C97.719,106.404,96.434,105.879,94.866,105.879z M94.892,116.835
						c-1.478,0-2.767-0.544-3.847-1.615c-1.075-1.071-1.621-2.362-1.621-3.829c0-1.482,0.535-2.769,1.594-3.84
						c1.059-1.067,2.359-1.606,3.874-1.606c1.508,0,2.806,0.526,3.851,1.565c1.045,1.046,1.574,2.35,1.574,3.881
						c0,1.504-0.533,2.803-1.594,3.856C97.662,116.302,96.374,116.835,94.892,116.835z M94.892,106.641
						c-1.34,0-2.443,0.456-3.38,1.4c-0.938,0.944-1.394,2.042-1.394,3.35c0,1.293,0.467,2.386,1.42,3.334
						c0.953,0.951,2.052,1.418,3.354,1.418c1.312,0,2.405-0.456,3.339-1.39c0.936-0.93,1.39-2.031,1.39-3.362
						c0-1.359-0.448-2.468-1.37-3.386C97.326,107.086,96.228,106.641,94.892,106.641z"/>
				</g>
			</g>
		</g>
		<g>
			<g>
				<g>
					<path fill="#00A99D" stroke="#00A99D" stroke-width="1.1014" stroke-miterlimit="10" d="M114.467,117.398
						c-0.263,0-0.422-0.104-0.508-0.185c-0.12-0.118-0.188-0.286-0.206-0.517v-6.875c0-1.143-0.211-1.971-0.62-2.467
						c-0.396-0.476-1.054-0.715-1.959-0.715c-0.751,0-1.561,0.237-2.407,0.71c-0.844,0.472-1.772,1.191-2.767,2.149v7.165
						c0,0.211-0.077,0.396-0.222,0.536c-0.295,0.271-0.813,0.258-1.056,0.006c-0.121-0.129-0.177-0.308-0.177-0.542v-10.704
						c0.021-0.252,0.099-0.428,0.224-0.555c0.129-0.125,0.301-0.198,0.521-0.222h0.005c0.262,0,0.449,0.105,0.569,0.297
						c0.093,0.146,0.136,0.331,0.136,0.562v1.549c0.895-0.766,1.728-1.338,2.482-1.713c0.936-0.462,1.893-0.694,2.846-0.694
						c1.295,0,2.282,0.417,2.932,1.239c0.627,0.796,0.945,1.996,0.945,3.57v6.671c0,0.209-0.073,0.392-0.211,0.529
						C114.854,117.33,114.676,117.398,114.467,117.398z"/>
				</g>
			</g>
		</g>
		<g>
			<g>
				<g>
					<path fill="#00A99D" stroke="#00A99D" stroke-width="1.1014" stroke-miterlimit="10" d="M124.738,117.595
						c-1.833,0-3.325-0.577-4.434-1.711c-1.109-1.133-1.669-2.656-1.669-4.534c0-1.76,0.589-3.25,1.764-4.429
						c1.173-1.177,2.663-1.777,4.44-1.777c1.592,0,2.99,0.585,4.158,1.736c1.168,1.15,1.757,2.488,1.757,3.975v0.078
						c0,0.297-0.086,0.522-0.256,0.673c-0.155,0.14-0.379,0.211-0.685,0.211h-9.716c0.06,1.291,0.481,2.298,1.271,3.069
						c0.846,0.831,2.033,1.257,3.518,1.257c0.744,0,1.409-0.114,1.983-0.334c0.583-0.217,1.312-0.71,2.184-1.456l0.107-0.064
						c0.084-0.075,0.168-0.129,0.251-0.17c0.302-0.14,0.601-0.088,0.803,0.099c0.134,0.127,0.2,0.288,0.2,0.478
						c0,0.112-0.023,0.218-0.073,0.325c-0.043,0.093-0.104,0.179-0.183,0.267l-0.107,0.104c-0.769,0.774-1.585,1.347-2.42,1.69
						C126.801,117.42,125.829,117.595,124.738,117.595z M124.84,105.843c-1.605,0-2.896,0.51-3.947,1.566
						c-1.053,1.058-1.564,2.349-1.564,3.94c0,1.687,0.497,3.051,1.472,4.049c0.975,0.995,2.3,1.501,3.938,1.501
						c0.998,0,1.883-0.159,2.629-0.465c0.748-0.305,1.49-0.826,2.203-1.549l0.094-0.086c0.02-0.025,0.041-0.06,0.05-0.079
						c-0.03,0.038-0.064,0.06-0.122,0.113l-0.119,0.073c-0.927,0.794-1.699,1.304-2.354,1.554c-0.653,0.247-1.404,0.374-2.232,0.374
						c-1.674,0-3.022-0.488-4.006-1.45c-0.989-0.961-1.486-2.282-1.486-3.919v-0.347h10.42c0.175,0,0.223-0.036,0.223-0.036
						c0.004-0.007,0.021-0.052,0.021-0.15v-0.078c0-1.312-0.508-2.449-1.549-3.48C127.462,106.342,126.262,105.843,124.84,105.843z
						 M130.032,111.074l-10.674-0.02l0.039-0.381c0.122-1.365,0.688-2.519,1.687-3.418c1-0.896,2.213-1.353,3.613-1.353
						c1.409,0,2.618,0.442,3.597,1.322c0.977,0.878,1.549,2.046,1.699,3.464L130.032,111.074z M120.135,110.36l9.11,0.02
						c-0.183-1.071-0.663-1.956-1.415-2.636c-0.851-0.759-1.902-1.146-3.133-1.146c-1.222,0-2.282,0.396-3.146,1.177
						C120.768,108.476,120.305,109.325,120.135,110.36z"/>
				</g>
			</g>
		</g>
		<g>
			<g>
				<g>
					<path fill="#00A99D" stroke="#00A99D" stroke-width="1.1014" stroke-miterlimit="10" d="M136.922,126.47
						c-0.228,0-0.402-0.068-0.521-0.206c-0.105-0.132-0.154-0.304-0.154-0.527v-17.054c0-1.046-0.145-1.497-0.261-1.697
						c-0.09-0.148-0.267-0.345-0.753-0.345c-0.531,0-1.263,0.34-2.168,1.02c-0.224,0.157-0.383,0.271-0.486,0.349l-0.134,0.071
						c-0.013,0.018-0.072,0.047-0.129,0.071c-0.195,0.079-0.475,0.045-0.669-0.11c-0.187-0.152-0.226-0.313-0.226-0.428
						c0-0.134,0.021-0.25,0.073-0.351c0.052-0.099,0.124-0.186,0.217-0.258l0.046-0.048c0.664-0.589,1.288-1.028,1.873-1.318
						c1.441-0.717,2.783-0.572,3.489,0.346c0.385,0.497,0.583,1.218,0.583,2.137v0.308c1.34-1.273,2.33-2.102,3.018-2.515
						c0.801-0.484,1.59-0.729,2.348-0.729c0.905,0,1.656,0.295,2.224,0.878c0.568,0.583,0.856,1.354,0.856,2.293
						c0,0.77-0.195,1.452-0.576,2.021c-0.377,0.57-0.947,1.021-1.681,1.33l-0.103,0.043c-0.035,0.017-0.104,0.041-0.173,0.052
						c-0.195,0.032-0.447-0.009-0.6-0.184c-0.099-0.113-0.153-0.262-0.153-0.424c0-0.12,0.035-0.234,0.1-0.329
						c0.058-0.09,0.142-0.161,0.247-0.215l0.077-0.041c0.506-0.283,0.88-0.6,1.093-0.92c0.209-0.314,0.312-0.681,0.312-1.123
						c0-0.642-0.153-1.11-0.47-1.443c-0.31-0.323-0.75-0.482-1.351-0.482c-0.512,0-1.188,0.282-2.005,0.842
						c-0.841,0.571-1.906,1.51-3.164,2.785v15.469c0,0.2-0.084,0.379-0.234,0.522C137.322,126.398,137.133,126.47,136.922,126.47z
						 M143.444,111.119l0.116,0.336l-0.025-0.188l-0.014,0.005l0.014-0.021l-0.016-0.104
						C143.498,111.13,143.473,111.119,143.444,111.119z M145.389,108.566c0,0.389-0.064,0.75-0.197,1.071
						c0.174-0.375,0.262-0.807,0.262-1.282c0-0.762-0.217-1.355-0.658-1.807c-0.44-0.452-1.004-0.67-1.727-0.67
						c-0.629,0-1.298,0.214-1.99,0.631c-0.105,0.064-0.222,0.142-0.351,0.23c0.835-0.536,1.54-0.796,2.145-0.796
						c0.787,0,1.411,0.231,1.853,0.701"/>
				</g>
			</g>
		</g>
		<g>
			<g>
				<g>
					<path fill="#00A99D" stroke="#00A99D" stroke-width="1.1014" stroke-miterlimit="10" d="M89.032,162.305
						c-0.12,0-0.234-0.047-0.338-0.129c-0.073-0.064-0.144-0.15-0.204-0.267l-5.428-10.656l-10.512-20.9L56.479,161.97
						c-0.067,0.082-0.132,0.144-0.198,0.191c-0.258,0.181-0.559,0.118-0.774-0.056c-0.146-0.123-0.224-0.297-0.224-0.495
						c0-0.058,0.007-0.114,0.02-0.161l0.061-0.145l16.576-32.494c0.133-0.286,0.318-0.443,0.54-0.472
						c0.224-0.02,0.533,0.08,0.757,0.463l0.047,0.088l16.393,32.525c0.021,0.047,0.034,0.099,0.034,0.161
						c0,0.181-0.062,0.353-0.183,0.492C89.394,162.219,89.224,162.305,89.032,162.305z M89.032,161.664v0.318V161.664
						L89.032,161.664L89.032,161.664L89.032,161.664z M55.922,161.617c0.005,0.004,0.018,0,0.039-0.026l4.498-8.821L55.922,161.617z
						 M63.984,145.804l-3.08,6.088l0.206-0.4h0.64l0.038-0.058h-0.665L63.984,145.804z"/>
				</g>
			</g>
		</g>
		<g>
			<g>
				<g>
					<path fill="#00A99D" stroke="#00A99D" stroke-width="1.1014" stroke-miterlimit="10" d="M113.396,147.342
						c-0.02-0.189-0.091-0.338-0.211-0.445c-0.109-0.097-0.258-0.159-0.481-0.179c-0.116,0-0.202,0.057-0.268,0.108l-7.691,5.348
						V136.36c0-0.206-0.041-0.372-0.127-0.505c-0.11-0.168-0.273-0.271-0.525-0.256c-0.193,0.017-0.354,0.081-0.469,0.188
						c-0.12,0.114-0.193,0.271-0.215,0.504v19.633c0,0.213,0.056,0.379,0.165,0.495c0.114,0.118,0.271,0.179,0.476,0.179
						c0.248,0,0.404-0.102,0.492-0.186c0.134-0.125,0.203-0.29,0.203-0.488v-2.241c0.326-0.02,8.242-5.737,8.242-5.737
						c0.117-0.054,0.211-0.129,0.275-0.217c0.064-0.086,0.11-0.186,0.129-0.288l0.012-0.05L113.396,147.342z"/>
				</g>
			</g>
		</g>
		<g>
			<g>
				<g>
					<path fill="#00A99D" stroke="#00A99D" stroke-width="1.1014" stroke-miterlimit="10" d="M134.698,158.119
						c-0.899,0-1.799-0.155-2.672-0.458c-0.884-0.31-1.611-0.728-2.151-1.243l-0.148-0.141c-0.129-0.103-0.23-0.245-0.288-0.406
						c-0.032-0.088-0.075-0.258-0.095-0.716v-26.051c0.021-0.228,0.093-0.385,0.213-0.499c0.116-0.107,0.273-0.174,0.474-0.193
						c0.241-0.015,0.411,0.091,0.522,0.261c0.086,0.133,0.127,0.301,0.127,0.508v18.854c0.606-0.384,1.222-0.685,1.828-0.899
						c0.783-0.277,1.586-0.418,2.377-0.418c1.742,0,3.152,0.519,4.188,1.541c1.039,1.023,1.563,2.411,1.563,4.125
						c0,1.595-0.58,2.967-1.727,4.074C137.764,157.56,136.346,158.119,134.698,158.119z M129.996,129.07c0,0-0.009,0.02-0.014,0.064
						v26.01c0.016,0.367,0.048,0.483,0.055,0.51c0.021,0.051,0.056,0.099,0.111,0.142l0.168,0.157
						c0.475,0.456,1.121,0.828,1.918,1.105c0.807,0.279,1.636,0.422,2.464,0.422c1.499,0,2.731-0.486,3.767-1.482
						c1.032-0.996,1.535-2.182,1.535-3.614c0-1.537-0.462-2.772-1.374-3.669c-0.914-0.901-2.173-1.357-3.741-1.357
						c-0.718,0-1.449,0.129-2.164,0.381c-0.084,0.027-0.163,0.058-0.247,0.09c0.007,0,0.015-0.004,0.021-0.004
						c0.744-0.273,1.513-0.409,2.282-0.409c1.525,0,2.779,0.454,3.729,1.349c0.953,0.897,1.437,2.085,1.437,3.521
						c0,1.424-0.521,2.65-1.549,3.645c-1.026,0.989-2.304,1.492-3.794,1.492c-0.785,0-1.568-0.148-2.339-0.435
						c-0.771-0.288-1.478-0.707-2.108-1.245l-0.107-0.097v-26.465c0-0.061-0.008-0.098-0.015-0.123
						C130.009,129.064,129.998,129.068,129.996,129.07z M130.68,155.349c0.544,0.445,1.153,0.794,1.807,1.041
						c0.695,0.263,1.407,0.392,2.113,0.392c1.338,0,2.435-0.431,3.351-1.312c0.91-0.878,1.351-1.921,1.351-3.184
						c0-1.269-0.404-2.271-1.236-3.057c-0.824-0.778-1.93-1.175-3.287-1.175c-0.697,0-1.39,0.125-2.064,0.368
						c-0.644,0.236-1.325,0.598-2.033,1.069V155.349z"/>
				</g>
			</g>
		</g>
		<g>
			<g>
				<g>
					<path fill="#00A99D" stroke="#00A99D" stroke-width="1.1014" stroke-miterlimit="10" d="M165.74,158.126
						c-0.24,0-0.389-0.095-0.467-0.173c-0.111-0.109-0.174-0.267-0.193-0.475l-0.002-6.316c0-1.045-0.189-1.807-0.568-2.263
						c-0.359-0.437-0.965-0.658-1.8-0.658c-0.687,0-1.431,0.217-2.21,0.654c-0.775,0.432-1.63,1.095-2.54,1.977v6.578
						c0,0.195-0.071,0.365-0.204,0.49c-0.27,0.25-0.749,0.239-0.968,0.007c-0.112-0.121-0.164-0.284-0.164-0.497v-9.831
						c0.021-0.236,0.091-0.396,0.209-0.512c0.112-0.114,0.273-0.181,0.476-0.204c0.254-0.011,0.419,0.097,0.526,0.275
						c0.084,0.136,0.125,0.303,0.125,0.517v1.419c0.821-0.701,1.585-1.228,2.28-1.572c0.858-0.426,1.74-0.639,2.618-0.639
						c1.188,0,2.093,0.381,2.687,1.138c0.578,0.729,0.869,1.835,0.869,3.28v6.129c0,0.191-0.066,0.359-0.189,0.486
						C166.096,158.061,165.928,158.126,165.74,158.126z"/>
				</g>
			</g>
		</g>
		<g>
			<g>
				<g>
					<path fill="#00A99D" stroke="#00A99D" stroke-width="1.1014" stroke-miterlimit="10" d="M164.336,118.1
						c-1.536,0-2.874-0.563-3.981-1.671c-1.11-1.108-1.672-2.448-1.672-3.979c0-1.545,0.551-2.887,1.644-3.99
						c1.091-1.104,2.439-1.663,4.01-1.663c1.579,0,2.932,0.555,4.016,1.644c1.085,1.091,1.636,2.439,1.636,4.01
						c0,1.56-0.56,2.903-1.663,3.999C167.223,117.541,165.881,118.1,164.336,118.1z M164.336,107.388
						c-1.428,0-2.601,0.485-3.59,1.484c-0.979,0.991-1.477,2.191-1.477,3.577c0,1.37,0.506,2.57,1.5,3.564
						c0.996,0.991,2.196,1.497,3.566,1.497c1.402,0,2.57-0.486,3.57-1.482c1.003-0.994,1.491-2.166,1.491-3.579
						c0-1.429-0.479-2.605-1.465-3.595C166.965,107.882,165.754,107.388,164.336,107.388z M164.352,117.405
						c-1.339,0-2.516-0.495-3.496-1.472c-0.98-0.979-1.48-2.151-1.48-3.484c0-1.345,0.488-2.52,1.45-3.494
						c0.964-0.97,2.153-1.465,3.526-1.465c1.376,0,2.557,0.482,3.506,1.429c0.953,0.948,1.435,2.136,1.435,3.53
						c0,1.37-0.488,2.549-1.45,3.508C166.879,116.919,165.704,117.405,164.352,117.405z M164.352,108.08
						c-1.229,0-2.244,0.424-3.103,1.288c-0.862,0.874-1.282,1.881-1.282,3.081c0,1.189,0.426,2.189,1.304,3.067
						c0.878,0.875,1.887,1.299,3.081,1.299c1.206,0,2.215-0.415,3.071-1.273c0.862-0.855,1.28-1.869,1.28-3.093
						c0-1.25-0.413-2.266-1.261-3.113C166.605,108.504,165.566,108.08,164.352,108.08z"/>
				</g>
			</g>
		</g>
		<g>
			<path fill="#00A99D" stroke="#00A99D" stroke-width="1.1014" stroke-miterlimit="10" d="M29.758,137.933
				c-0.46,0-0.832-0.374-0.832-0.834V89.768c0-0.458,0.372-0.83,0.832-0.83c0.459,0,0.833,0.372,0.833,0.83v47.331
				C30.591,137.559,30.217,137.933,29.758,137.933z"/>
		</g>
		<g>
			<path fill="#00A99D" stroke="#00A99D" stroke-width="1.1014" stroke-miterlimit="10" d="M133.033,167.391
				c-4.557,0-9.562-1.343-14.888-4.027c-7.86-3.967-13.743-9.527-13.802-9.581c-0.279-0.265-0.288-0.705-0.023-0.98
				c0.262-0.28,0.703-0.288,0.979-0.026c0.226,0.216,22.881,21.453,38.861,9.65c0.309-0.226,0.738-0.161,0.969,0.146
				c0.228,0.31,0.161,0.739-0.146,0.97C141.511,166.108,137.483,167.391,133.033,167.391z"/>
		</g>
		<g>
			<g>
				<path fill="#00A99D" stroke="#00A99D" stroke-width="1.1014" stroke-miterlimit="10" d="M125.897,157.506
					c-0.38,0-0.69-0.31-0.69-0.69v-9.57c0-0.383,0.311-0.692,0.69-0.692c0.384,0,0.692,0.31,0.692,0.692v9.57
					C126.59,157.196,126.281,157.506,125.897,157.506z"/>
			</g>
			<g>
				<path fill="#00A99D" stroke="#00A99D" stroke-width="1.1014" stroke-miterlimit="10" d="M120.628,157.622
					c-3.085,0-5.593-2.508-5.593-5.595c0-3.081,2.508-5.589,5.593-5.589c3.084,0,5.593,2.508,5.593,5.589
					C126.221,155.114,123.712,157.622,120.628,157.622z M120.628,147.824c-2.319,0-4.208,1.886-4.208,4.203
					c0,2.321,1.889,4.207,4.208,4.207c2.321,0,4.207-1.886,4.207-4.207C124.835,149.71,122.949,147.824,120.628,147.824z"/>
			</g>
		</g>
		<g>
			<g>
				<path fill="#00A99D" stroke="#00A99D" stroke-width="1.1014" stroke-miterlimit="10" d="M153.494,158.061
					c-0.383,0-0.694-0.31-0.694-0.692v-9.57c0-0.381,0.312-0.69,0.694-0.69s0.69,0.31,0.69,0.69v9.57
					C154.185,157.751,153.877,158.061,153.494,158.061z"/>
			</g>
			<g>
				<path fill="#00A99D" stroke="#00A99D" stroke-width="1.1014" stroke-miterlimit="10" d="M148.222,158.177
					c-3.085,0-5.595-2.51-5.595-5.59c0-3.087,2.51-5.596,5.595-5.596s5.593,2.509,5.593,5.596
					C153.814,155.667,151.307,158.177,148.222,158.177z M148.222,148.379c-2.318,0-4.205,1.887-4.205,4.208
					c0,2.316,1.887,4.205,4.205,4.205c2.319,0,4.208-1.889,4.208-4.205C152.43,150.266,150.541,148.379,148.222,148.379z"/>
			</g>
		</g>
		<g>
			<path fill="#00A99D" stroke="#00A99D" stroke-width="1.1014" stroke-miterlimit="10" d="M99.531,156.744h-8.925
				c-0.281,0-0.538-0.172-0.644-0.438c-0.103-0.265-0.034-0.563,0.173-0.762l7.313-6.84h-6.679c-0.384,0-0.693-0.311-0.693-0.695
				c0-0.383,0.31-0.692,0.693-0.692h8.435c0.281,0,0.539,0.174,0.645,0.438s0.035,0.563-0.17,0.762l-7.315,6.841h7.167
				c0.386,0,0.695,0.31,0.695,0.694C100.227,156.435,99.917,156.744,99.531,156.744z"/>
		</g>
		<g>
			<path fill="#00A99D" stroke="#00A99D" stroke-width="1.1014" stroke-miterlimit="10" d="M164.785,112.331
				c-0.653,0-1.234-0.151-1.738-0.448c-1.852-1.09-1.821-3.715-1.819-3.824c0.009-0.394,0.331-0.706,0.723-0.706
				c0.005,0,0.009,0,0.016,0c0.396,0.009,0.716,0.336,0.705,0.736c-0.002,0.032-0.009,1.897,1.114,2.556
				c0.906,0.528,2.446,0.193,4.461-0.975c1.067-0.62,2.072-1.248,3.042-1.853c5.262-3.276,9.416-5.868,15.091-2.198
				c0.333,0.22,0.428,0.665,0.213,0.996c-0.218,0.338-0.663,0.433-0.996,0.215c-4.904-3.173-8.527-0.914-13.546,2.212
				c-0.981,0.612-1.994,1.24-3.08,1.873C167.348,111.857,165.949,112.331,164.785,112.331z"/>
		</g>
		<g>
			<path fill="#00A99D" stroke="#00A99D" stroke-width="1.1014" stroke-miterlimit="10" d="M162.516,138.557
				c-7.425,0-13.465-6.04-13.465-13.466c0-0.383,0.309-0.692,0.692-0.692c0.385,0,0.694,0.31,0.694,0.692
				c0,6.662,5.419,12.081,12.078,12.081c6.66,0,12.074-5.419,12.074-12.081V96.546c-0.027-0.431-0.275-4.582,1.728-6.755
				c0.805-0.871,1.851-1.314,3.104-1.314c1.601,0,2.865,0.486,3.765,1.446c1.501,1.596,1.372,3.908,1.365,4.003
				c-0.025,0.385-0.367,0.678-0.737,0.649c-0.383-0.023-0.672-0.354-0.647-0.735c0-0.018,0.093-1.824-0.996-2.978
				c-0.628-0.662-1.554-1-2.749-1c-0.865,0-1.547,0.284-2.082,0.869c-1.384,1.497-1.452,4.645-1.364,5.729l0.005,0.058v28.573
				C175.98,132.517,169.939,138.557,162.516,138.557z"/>
		</g>
		<g>
			<g>
				<path fill="#00A99D" stroke="#00A99D" stroke-width="1.1014" stroke-miterlimit="10" d="M72.477,41.363
					c-0.051-0.195-0.142-0.329-0.269-0.4c-0.093-0.062-0.213-0.092-0.347-0.092c-0.036,0-0.07,0.004-0.146,0.013l-0.061,0.015
					c-0.093,0.016-0.179,0.03-0.267,0.05c-0.086,0.017-0.224,0.05-0.415,0.099c-2.046,0.529-3.779,1.667-5.152,3.377
					c-1.396,1.736-1.899,3.401-1.495,4.957c0.211,0.812,0.627,1.396,1.239,1.737c0.368,0.202,0.787,0.306,1.241,0.306
					c0.295,0,0.615-0.041,0.942-0.131c1.234-0.316,2.312-1.237,3.207-2.729c0.644-1.078,1.078-2.296,1.302-3.636l1.075,4.128
					c0.037,0.163,0.127,0.297,0.252,0.383c0.136,0.095,0.308,0.118,0.471,0.075c0.157-0.041,0.278-0.136,0.345-0.284
					c0.049-0.116,0.049-0.262,0.002-0.447L72.477,41.363z M70.436,47.352c-0.778,1.599-1.768,2.564-2.94,2.868
					c-0.206,0.052-0.406,0.079-0.589,0.079c-0.287,0-0.538-0.064-0.769-0.191c-0.378-0.215-0.626-0.56-0.751-1.056
					c-0.32-1.227,0.114-2.575,1.289-4.01c1.195-1.465,2.771-2.457,4.688-2.951l0.088-0.026
					C71.526,44.035,71.187,45.81,70.436,47.352z"/>
			</g>
			<g>
				<path fill="#00A99D" stroke="#00A99D" stroke-width="1.1014" stroke-miterlimit="10" d="M90.809,38.806
					c0.538-0.469,0.996-0.733,1.364-0.778c0.417-0.052,0.749,0.021,0.998,0.224c0.251,0.211,0.404,0.533,0.458,0.989
					c0.039,0.312-0.002,0.583-0.125,0.824c-0.125,0.247-0.363,0.503-0.696,0.75l-0.057,0.037c-0.075,0.049-0.136,0.113-0.17,0.187
					c-0.038,0.082-0.056,0.173-0.043,0.259c0.016,0.124,0.069,0.232,0.157,0.313c0.084,0.071,0.181,0.116,0.336,0.105
					c0.047-0.004,0.095-0.013,0.144-0.03c0.05-0.015,0.099-0.034,0.112-0.047l0.077-0.041c0.506-0.292,0.878-0.671,1.105-1.121
					c0.227-0.449,0.308-0.963,0.239-1.526c-0.084-0.687-0.363-1.223-0.826-1.597c-0.469-0.374-1.037-0.527-1.703-0.443
					c-0.554,0.067-1.108,0.316-1.648,0.738c-0.447,0.351-1.08,1.021-1.925,2.043l-0.02-0.167c-0.082-0.665-0.29-1.175-0.617-1.508
					c-0.347-0.349-0.798-0.497-1.352-0.429c-0.397,0.048-0.812,0.213-1.229,0.486c-0.4,0.265-0.818,0.637-1.244,1.123l-0.025,0.038
					c-0.064,0.061-0.112,0.134-0.138,0.209c-0.032,0.08-0.039,0.172-0.028,0.277c0.016,0.086,0.061,0.209,0.22,0.306
					c0.086,0.052,0.187,0.075,0.333,0.073c0.064-0.004,0.132-0.028,0.166-0.047c0.047-0.026,0.092-0.059,0.102-0.071l0.096-0.069
					c0.059-0.056,0.139-0.129,0.246-0.226l0.072-0.068c0.594-0.564,1.085-0.874,1.463-0.921c0.25-0.03,0.433,0.025,0.553,0.176
					c0.102,0.13,0.241,0.441,0.334,1.192l0.701,5.767c0.02,0.17,0.071,0.295,0.164,0.381c0.06,0.054,0.161,0.121,0.328,0.121
					c0.026,0,0.057-0.007,0.086-0.007c0.16-0.02,0.295-0.091,0.395-0.213c0.104-0.123,0.148-0.267,0.125-0.413l-0.56-4.614
					C89.572,40.06,90.256,39.292,90.809,38.806z"/>
			</g>
			<g>
				<path fill="#00A99D" stroke="#00A99D" stroke-width="1.1014" stroke-miterlimit="10" d="M135.855,42.49
					c-0.222,1.211,0.032,2.352,0.746,3.386c0.717,1.035,1.697,1.674,2.908,1.896c0.293,0.052,0.579,0.079,0.858,0.079
					c0.899,0,1.749-0.272,2.534-0.811c1.028-0.712,1.665-1.693,1.887-2.923c0.228-1.239-0.014-2.386-0.715-3.403
					c-0.699-1.02-1.69-1.652-2.938-1.878c-1.235-0.224-2.389,0.023-3.41,0.737C136.707,40.285,136.077,41.269,135.855,42.49z
					 M143.165,41.331c0.538,0.772,0.714,1.62,0.538,2.586c-0.175,0.948-0.642,1.673-1.427,2.215
					c-0.778,0.534-1.633,0.719-2.554,0.551c-0.912-0.163-1.654-0.649-2.202-1.438c-0.556-0.798-0.74-1.635-0.575-2.556
					c0.166-0.93,0.633-1.65,1.422-2.201c0.599-0.419,1.229-0.623,1.917-0.623c0.218,0,0.443,0.021,0.665,0.064
					C141.904,40.101,142.627,40.561,143.165,41.331z"/>
			</g>
			<g>
				<path fill="#00A99D" stroke="#00A99D" stroke-width="1.1014" stroke-miterlimit="10" d="M146.68,41.236l2.287,0.57l-1.085,3.992
					l-0.032,0.136c-0.299,1.207-0.283,2.102,0.039,2.747c0.331,0.647,1.014,1.105,2.028,1.361c0.273,0.066,0.558,0.102,0.841,0.102
					c0.334,0,0.678-0.048,1.024-0.141c0.644-0.176,1.168-0.464,1.585-0.882l0.02-0.025c0.013-0.011,0.034-0.026,0.057-0.043
					c0.109-0.091,0.185-0.179,0.238-0.318c0.034-0.15,0.004-0.288-0.082-0.404c-0.077-0.105-0.191-0.184-0.331-0.218
					c-0.099-0.021-0.198-0.017-0.286,0.018c-0.071,0.025-0.138,0.075-0.226,0.152l-0.082,0.052
					c-0.474,0.351-0.907,0.576-1.278,0.667c-0.163,0.039-0.335,0.058-0.512,0.058c-0.219,0-0.447-0.029-0.686-0.088
					c-0.674-0.168-1.108-0.458-1.291-0.864c-0.198-0.429-0.179-1.114,0.05-2.035l1.077-3.999l3.543,0.88
					c0.164,0.041,0.299,0.03,0.418-0.03c0.09-0.047,0.208-0.146,0.254-0.342c0.038-0.148,0.017-0.297-0.057-0.426
					c-0.077-0.143-0.193-0.239-0.346-0.273l-3.498-0.876l3.913-13.158c0.043-0.165,0.034-0.31-0.034-0.438
					c-0.046-0.086-0.145-0.2-0.35-0.252c-0.142-0.032-0.279-0.009-0.404,0.062c-0.084,0.054-0.204,0.159-0.251,0.353l-3.974,13.163
					l-2.304-0.572c-0.161-0.041-0.286-0.041-0.411,0.011c-0.097,0.041-0.219,0.138-0.271,0.354
					c-0.054,0.207,0.004,0.359,0.058,0.448C146.402,41.107,146.527,41.195,146.68,41.236z"/>
			</g>
			<g>
				<path fill="#00A99D" stroke="#00A99D" stroke-width="1.1014" stroke-miterlimit="10" d="M156.318,43.674l2.25,0.71l-1.326,3.919
					l-0.039,0.131c-0.377,1.186-0.418,2.085-0.131,2.745c0.285,0.667,0.938,1.168,1.939,1.484c0.336,0.105,0.695,0.161,1.057,0.161
					c0.262,0,0.535-0.027,0.809-0.086c0.654-0.138,1.198-0.394,1.629-0.781l0.023-0.023c0.015-0.011,0.036-0.023,0.061-0.041
					c0.115-0.084,0.195-0.167,0.256-0.299c0.049-0.144,0.027-0.295-0.057-0.417c-0.068-0.112-0.174-0.188-0.313-0.23
					c-0.105-0.034-0.216-0.03-0.286-0.004c-0.073,0.025-0.145,0.066-0.239,0.142l-0.079,0.043c-0.502,0.323-0.944,0.521-1.323,0.585
					c-0.366,0.067-0.766,0.03-1.189-0.103c-0.658-0.209-1.078-0.525-1.235-0.942c-0.17-0.439-0.109-1.121,0.173-2.028l1.323-3.924
					l3.484,1.095c0.154,0.052,0.299,0.048,0.41,0c0.093-0.041,0.216-0.125,0.28-0.325c0.045-0.144,0.034-0.292-0.028-0.432
					c-0.07-0.146-0.183-0.25-0.333-0.297l-3.446-1.087l4.298-13.044c0.052-0.163,0.05-0.308-0.009-0.441
					c-0.045-0.09-0.14-0.21-0.331-0.267c-0.131-0.045-0.277-0.034-0.406,0.032c-0.091,0.048-0.218,0.145-0.28,0.347l-4.345,13.033
					l-2.257-0.712c-0.156-0.049-0.308-0.052-0.408-0.015c-0.1,0.034-0.232,0.122-0.304,0.344c-0.045,0.159-0.036,0.308,0.034,0.447
					C156.05,43.529,156.168,43.626,156.318,43.674z"/>
			</g>
			<g>
				<path fill="#00A99D" stroke="#00A99D" stroke-width="1.1014" stroke-miterlimit="10" d="M170.714,47.144
					c-1.211-0.465-2.39-0.45-3.502,0.043c-1.11,0.499-1.908,1.357-2.37,2.56c-0.495,1.284-0.512,2.472-0.052,3.536
					c0.458,1.065,1.325,1.853,2.577,2.334c0.705,0.273,1.381,0.411,2.016,0.411l0.094-0.002c0.663-0.013,1.371-0.188,2.096-0.517
					l0.102-0.038c0.072-0.041,0.14-0.087,0.191-0.134c0.066-0.061,0.118-0.134,0.146-0.213c0.056-0.134,0.053-0.271-0.014-0.402
					c-0.058-0.118-0.156-0.206-0.286-0.256c-0.058-0.021-0.122-0.032-0.249-0.032c-0.071,0.004-0.145,0.02-0.22,0.047l-0.097,0.02
					c-0.776,0.277-1.4,0.42-1.853,0.42c-0.444-0.003-0.923-0.102-1.426-0.297c-1.007-0.386-1.695-0.977-2.052-1.76
					c-0.33-0.717-0.349-1.497-0.064-2.377l6.578,2.534c0.21,0.081,0.397,0.09,0.533,0.034c0.163-0.056,0.283-0.191,0.365-0.396
					l0.02-0.061c0.394-1.011,0.338-2.08-0.152-3.175C172.604,48.333,171.803,47.562,170.714,47.144z M172.311,51.842l-6.133-2.377
					c0.383-0.644,0.912-1.085,1.611-1.352c0.787-0.301,1.6-0.292,2.426,0.021c0.846,0.329,1.439,0.85,1.815,1.588
					C172.366,50.383,172.457,51.075,172.311,51.842z"/>
			</g>
			<g>
				<path fill="#00A99D" stroke="#00A99D" stroke-width="1.1014" stroke-miterlimit="10" d="M184.315,53.779
					c-0.202-0.563-0.61-0.991-1.22-1.275c-0.506-0.229-1.105-0.31-1.785-0.23c-0.568,0.064-1.461,0.302-2.715,0.729l0.071-0.152
					c0.279-0.611,0.372-1.153,0.267-1.607c-0.109-0.481-0.42-0.845-0.925-1.075c-0.338-0.155-0.733-0.234-1.177-0.234l-0.125,0.004
					c-0.484,0.013-1.02,0.112-1.652,0.301l-0.032,0.018c-0.088,0.018-0.172,0.061-0.234,0.107c-0.066,0.054-0.12,0.127-0.168,0.227
					c-0.034,0.077-0.056,0.206,0.021,0.365c0.059,0.109,0.138,0.193,0.259,0.25c0.06,0.025,0.12,0.04,0.202,0.043
					c0.032,0,0.073-0.003,0.086-0.007l0.109-0.009c0.091-0.02,0.23-0.047,0.424-0.084c0.8-0.17,1.39-0.174,1.731-0.02
					c0.312,0.143,0.368,0.321,0.377,0.441c0.02,0.163-0.025,0.501-0.34,1.189l-2.427,5.276c-0.071,0.155-0.091,0.289-0.062,0.409
					c0.039,0.134,0.136,0.243,0.3,0.318c0.086,0.036,0.172,0.056,0.256,0.056c0.062,0,0.122-0.011,0.185-0.027
					c0.152-0.052,0.267-0.151,0.329-0.291l1.94-4.223c1.218-0.458,2.2-0.753,2.925-0.873c0.702-0.123,1.239-0.104,1.57,0.05
					c0.39,0.176,0.631,0.413,0.736,0.716c0.104,0.308,0.061,0.66-0.131,1.08c-0.13,0.281-0.311,0.495-0.538,0.635
					c-0.237,0.146-0.577,0.238-0.991,0.275l-0.055,0.002c-0.092,0.002-0.176,0.025-0.252,0.071
					c-0.072,0.043-0.129,0.107-0.176,0.202c-0.062,0.144-0.047,0.267-0.028,0.333c0.037,0.127,0.123,0.226,0.23,0.277
					c0.041,0.02,0.091,0.037,0.129,0.045c0.048,0.018,0.097,0.026,0.132,0.021l0.185,0.007c0.542,0,1.024-0.127,1.431-0.374
					c0.428-0.267,0.768-0.658,1.004-1.173C184.471,54.945,184.516,54.341,184.315,53.779z"/>
			</g>
			<g>
				<path fill="#00A99D" stroke="#00A99D" stroke-width="1.1014" stroke-miterlimit="10" d="M59.184,44.311
					c8.8-4.827,15.475-11.294,12.558-24.23c-0.066-0.299-0.365-0.488-0.667-0.417c-0.297,0.064-0.483,0.363-0.417,0.662
					c2.756,12.219-3.334,18.273-11.885,22.959l-4.855-12.117c-0.114-0.286-0.435-0.424-0.72-0.308
					c-0.284,0.114-0.424,0.437-0.311,0.721l4.902,12.231c-2.495,1.31-5.169,2.527-7.873,3.756l-1.594,0.723
					c-2.164,0.985-4.024,1.987-5.593,3.001l-5.612-14.013c-0.114-0.288-0.439-0.426-0.721-0.31
					c-0.286,0.111-0.422,0.438-0.308,0.723l5.7,14.231c-3.018,2.132-4.722,4.305-5.072,6.499c-0.415,2.613,1.282,4.207,1.354,4.274
					c0.107,0.099,0.243,0.148,0.376,0.148c0.148,0,0.295-0.061,0.405-0.175c0.206-0.226,0.193-0.576-0.024-0.785
					c-0.058-0.054-1.345-1.286-1.009-3.311c0.23-1.394,1.27-3.328,4.395-5.589l3.521,8.788c0.086,0.213,0.293,0.346,0.514,0.346
					c0.071,0,0.141-0.015,0.205-0.041c0.286-0.113,0.424-0.435,0.312-0.721l-3.613-9.017c1.465-0.964,3.312-1.983,5.632-3.042
					l1.592-0.723c2.643-1.203,5.309-2.411,7.825-3.736l4.335,10.819c0.086,0.22,0.297,0.351,0.516,0.351
					c0.066,0,0.138-0.015,0.205-0.04c0.285-0.114,0.423-0.438,0.307-0.724L59.184,44.311z"/>
			</g>
			<g>
				<path fill="#00A99D" stroke="#00A99D" stroke-width="1.1014" stroke-miterlimit="10" d="M165.777,59.499
					c-15.129,13.503-39.729,1.926-45.487-1.912c-5.746-3.833-10.461-6.131-14.29-7.424c0.095-1.615,0.095-3.521-0.002-5.724
					c-0.004-0.071-0.413-7.333-0.751-7.694c-0.161-0.179-0.419-0.23-0.641-0.125c-0.218,0.099-0.345,0.331-0.314,0.57
					c0.161,1.284,0.372,3.354,0.512,5.652c-0.56,0.921-1.682,1.992-2.729,2.227c-2.117,0.474-4.219-0.862-4.693-2.977
					c-0.289-1.287,0.215-3.438,1.015-4.348c0.194-0.217,0.17-0.551-0.045-0.74c-0.218-0.195-0.551-0.174-0.746,0.046
					c-1.014,1.152-1.611,3.665-1.25,5.271c0.517,2.317,2.579,3.896,4.861,3.896c0.359,0,0.726-0.041,1.089-0.119
					c0.961-0.217,1.88-0.891,2.579-1.646c0.079,1.81,0.101,3.672,0.019,5.356c-9.391-2.837-13.067,0.562-13.59,1.121
					c-0.749,0.794-1.093,1.912-0.942,3.069c0.191,1.502,1.181,2.917,2.712,3.879c1.648,1.036,4.709,1.783,7.543,0.966
					c1.996-0.57,3.519-1.831,4.392-3.643c0.429-0.882,0.724-2.179,0.891-3.883c3.777,1.312,8.347,3.571,13.77,7.188
					c3.835,2.558,15.825,8.447,28.051,8.447c6.608,0,13.292-1.723,18.788-6.628c0.228-0.206,0.244-0.553,0.045-0.78
					C166.354,59.314,166.003,59.295,165.777,59.499z M104.019,54.72c-0.746,1.54-1.989,2.572-3.7,3.061
					c-2.39,0.688-5.155,0.1-6.645-0.837c-1.252-0.787-2.052-1.91-2.207-3.082c-0.105-0.841,0.125-1.611,0.652-2.171
					c0.977-1.041,2.897-1.905,5.877-1.905c1.855,0,4.123,0.338,6.827,1.183C104.688,52.529,104.434,53.861,104.019,54.72z"/>
			</g>
			<g>
				<path fill="#00A99D" stroke="#00A99D" stroke-width="1.1014" stroke-miterlimit="10" d="M113.258,21.722
					c0.271,0.148,0.609,0.045,0.753-0.224c3.39-6.338,11.306-8.738,17.642-5.346c6.337,3.393,8.733,11.307,5.343,17.642
					c-2.856,5.345-8.934,7.886-14.565,6.52l0.915-13.625c0.021-0.306-0.211-0.568-0.517-0.59c-0.316-0.027-0.57,0.209-0.592,0.517
					l-0.898,13.38c-0.674-0.226-1.338-0.512-1.984-0.856c-0.271-0.144-0.605-0.04-0.75,0.23c-0.145,0.269-0.043,0.603,0.228,0.749
					c0.79,0.421,1.603,0.764,2.434,1.021l-0.724,10.762c-0.021,0.304,0.209,0.568,0.515,0.588c0.013,0.002,0.023,0.004,0.036,0.004
					c0.291,0,0.536-0.226,0.558-0.519l0.703-10.543c1.039,0.237,2.085,0.355,3.126,0.355c5.053,0,9.949-2.711,12.498-7.467
					c3.676-6.879,1.075-15.464-5.8-19.145c-6.877-3.679-15.466-1.078-19.145,5.799C112.888,21.242,112.991,21.577,113.258,21.722z"
					/>
			</g>
			<g>
				<path fill="#00A99D" stroke="#00A99D" stroke-width="1.1014" stroke-miterlimit="10" d="M81.882,39.605
					c-0.601-0.358-1.396-0.387-2.431-0.079c-1.055,0.316-1.76,1.12-2.207,1.878l-0.368-1.474c-0.075-0.299-0.381-0.479-0.673-0.404
					c-0.297,0.075-0.478,0.376-0.404,0.673l1.957,7.796c0.064,0.252,0.288,0.42,0.538,0.42c0.045,0,0.09-0.005,0.136-0.016
					c0.297-0.073,0.475-0.376,0.402-0.673l-1.145-4.562c0.006-0.018,0.015-0.032,0.021-0.048c0.029-0.129,0.574-2.084,2.061-2.525
					c0.707-0.211,1.229-0.224,1.542-0.034c0.275,0.166,0.465,0.538,0.594,1.166c0.061,0.303,0.351,0.499,0.654,0.437
					c0.299-0.062,0.492-0.353,0.433-0.656C82.867,40.9,82.619,40.049,81.882,39.605z"/>
			</g>
		</g>
		<g>
			<path fill="#00A99D" stroke="#00A99D" stroke-width="1.1014" stroke-miterlimit="10" d="M82.14,118.169
				c-0.084,0-0.165-0.002-0.245-0.007c-2.366-0.133-4.184-2.168-4.055-4.536c0.023-0.384,0.334-0.667,0.733-0.654
				c0.381,0.021,0.673,0.349,0.654,0.731c-0.091,1.603,1.14,2.985,2.742,3.074c1.603,0.088,2.986-1.141,3.074-2.745
				c0.095-1.667-1.018-2.902-2.772-3.076c-2.491-0.243-4.152-1.815-4.038-3.827c0.052-0.957,0.478-1.835,1.194-2.474
				c0.716-0.641,1.646-0.961,2.594-0.905c1.979,0.109,3.496,1.807,3.384,3.786c-0.021,0.383-0.331,0.662-0.729,0.653
				c-0.385-0.021-0.676-0.349-0.656-0.729c0.069-1.216-0.864-2.259-2.075-2.33c-0.581-0.028-1.155,0.166-1.595,0.557
				c-0.438,0.395-0.698,0.932-0.73,1.523c-0.073,1.243,1.047,2.196,2.787,2.366c2.506,0.247,4.16,2.11,4.023,4.534
				C86.3,116.396,84.4,118.169,82.14,118.169z"/>
		</g>
	</g>
</g>
</svg>
