<?xml version="1.0" encoding="utf-8"?>
<!-- Generator: Adobe Illustrator 16.0.0, SVG Export Plug-In . SVG Version: 6.00 Build 0)  -->
<!DOCTYPE svg PUBLIC "-//W3C//DTD SVG 1.1//EN" "http://www.w3.org/Graphics/SVG/1.1/DTD/svg11.dtd">
<svg version="1.1" id="Layer_1" xmlns="http://www.w3.org/2000/svg" xmlns:xlink="http://www.w3.org/1999/xlink" x="0px" y="0px"
	 width="2500px" height="1000px" viewBox="0 0 2500 1000" enable-background="new 0 0 2500 1000" xml:space="preserve">
<g>
	<path fill="#231F20" d="M722.031,595.324v-134.47h-28.567V417.8h85.906c0,9.794-0.172,18.026-0.515,24.69
		c-0.343,6.668-1.265,13.606-2.767,20.813h0.825c5.713-15.235,15.128-27.478,28.257-36.729c13.133-9.248,28.943-13.876,47.45-13.876
		c12.924,0,24.147,1.938,33.672,5.815c9.518,3.877,17.345,9.489,23.466,16.834c6.121,7.346,10.716,16.36,13.777,27.037
		c3.061,10.68,4.587,22.82,4.587,36.422v96.516h25.098v43.056H845.686v-43.056h23.874v-90.598c0-27.613-12.692-41.423-38.068-41.423
		c-16.83,0-29.518,5.342-38.068,16.018c-8.554,10.68-12.831,24.862-12.831,42.546v73.457h25.098v43.056H700.605v-43.056H722.031z"/>
	<path fill="#231F20" d="M1098.408,460.854V417.8h104.474v43.054h-19.997l-74.887,177.525h-63.46l-76.112-177.525H948.43V417.8
		h107.739v43.054h-20.405l39.586,108.556c2.179,5.853,3.607,11.974,4.285,18.364h0.817c0.681-6.937,2.041-13.06,4.081-18.364
		l38.566-108.556H1098.408z"/>
	<path fill="#231F20" d="M1251.944,595.324v-134.47h-28.567V417.8h87.131v177.524h25.098v43.056H1228.07v-43.056H1251.944z
		 M1239.701,344.138c0-7.207,1.6-13.57,4.807-19.079c3.208-5.51,7.779-9.828,13.708-12.958c5.93-3.126,12.925-4.693,20.972-4.693
		c12.138,0,21.721,3.367,28.739,10.101c7.028,6.733,10.537,15.61,10.537,26.629c0,11.158-3.509,20.066-10.537,26.731
		c-7.019,6.668-16.602,9.998-28.739,9.998c-12.145,0-21.759-3.366-28.852-10.1C1243.252,364.033,1239.701,355.156,1239.701,344.138z
		"/>
	<path fill="#231F20" d="M1369.805,417.8v-45.708l58.562-3.265V417.8h58.562v43.054h-58.562v98.002
		c0,10.599,1.021,18.646,3.061,24.144c2.04,5.506,5.338,9.309,9.897,11.415c4.555,2.102,10.981,3.154,19.282,3.154
		c7.346,0,16.797-2.175,28.363-6.53l-2.044,41.782c-20.305,7.104-37.338,10.659-51.103,10.659c-21.394,0-37.746-4.999-49.055-14.998
		c-11.312-9.997-16.965-24.653-16.965-43.973V460.854h-29.792V417.8H1369.805z"/>
	<path fill="#231F20" d="M1713.02,541.456H1561c0.816,17.482,7.449,31.211,19.896,41.169c12.447,9.965,28.938,14.944,49.482,14.944
		c13.06,0,24.792-1.114,35.199-3.354c10.406-2.236,22.205-6.064,35.403-11.487l-2.854,46.816
		c-13.729,4.922-26.878,8.472-39.447,10.66c-12.568,2.183-26.33,3.276-41.279,3.276c-20.385,0-38.219-3.027-53.506-9.079
		c-15.292-6.054-27.796-14.386-37.509-24.997c-9.717-10.61-16.952-22.752-21.711-36.424c-4.755-13.67-7.134-28.396-7.134-44.176
		c0-22.854,4.379-42.986,13.149-60.4c8.766-17.41,21.502-31.048,38.222-40.912c16.717-9.86,36.216-14.794,58.506-14.794
		c35.742,0,62.277,11.835,79.604,35.505C1704.354,471.874,1713.02,502.959,1713.02,541.456z M1560.593,500.849h88.967
		c0-10.202-1.804-18.838-5.407-25.914c-3.608-7.072-8.71-12.447-15.305-16.12c-6.6-3.673-14.455-5.51-23.567-5.51
		c-13.333,0-23.809,4.118-31.424,12.346C1566.236,473.881,1561.816,485.614,1560.593,500.849z"/>
	<path fill="#EB1E4D" d="M1742.917,607.363c0-11.969,3.636-21.286,10.916-27.954c7.276-6.665,16.696-9.999,28.262-9.999
		c11.696,0,21.185,3.334,28.465,9.999c7.277,6.668,10.917,15.985,10.917,27.954c0,11.02-3.539,20.137-10.611,27.344
		c-7.075,7.207-16.666,10.814-28.771,10.814c-11.974,0-21.495-3.607-28.567-10.814
		C1746.451,627.5,1742.917,618.383,1742.917,607.363z"/>
</g>
</svg>
