<?xml version="1.0" encoding="utf-8"?>
<!-- Generator: Adobe Illustrator 16.0.0, SVG Export Plug-In . SVG Version: 6.00 Build 0)  -->
<!DOCTYPE svg PUBLIC "-//W3C//DTD SVG 1.1//EN" "http://www.w3.org/Graphics/SVG/1.1/DTD/svg11.dtd">
<svg version="1.1" id="Layer_1" xmlns="http://www.w3.org/2000/svg" xmlns:xlink="http://www.w3.org/1999/xlink" x="0px" y="0px"
	 width="2500px" height="1000px" viewBox="0 0 2500 1000" enable-background="new 0 0 2500 1000" xml:space="preserve">
<path fill-rule="evenodd" clip-rule="evenodd" fill="#0000A9" d="M1798.887,609.47c2.463-11.737,5.887-23.366,7.229-35.231
	c8.116-71.637-43.346-139.26-114.459-151.08c-19.475-3.236-38.801-2.903-57.989,1.973c-0.907,0.23-1.863,0.267-3.596,0.502
	c0-10.093,0-19.929,0-29.765c70.818,0,141.635,0,212.453,0c-0.106,1.708-0.307,3.417-0.307,5.125
	c-0.016,67.786-0.014,135.571,0.003,203.356c0.001,1.707,0.198,3.414,0.304,5.12C1827.979,609.47,1813.434,609.47,1798.887,609.47z"
	/>
<path fill-rule="evenodd" clip-rule="evenodd" fill="#0000A9" d="M627.525,454.437c10.462,0,20.923,0,32.043,0
	c0,2.52,0,4.566,0,6.612c0.002,18.356-0.039,36.713,0.022,55.07c0.05,15.006,6.995,23.558,21.649,25.348
	c6.333,0.772,13.039,0.387,19.331-0.786c11.564-2.155,17.746-10.104,17.83-21.872c0.135-19.122,0.049-38.244,0.056-57.365
	c0-2.075,0-4.148,0-6.706c10.399,0,20.402,0,30.528,0c0.202,0.477,0.606,0.984,0.605,1.491c-0.034,21.219,0.375,42.456-0.284,63.658
	c-0.946,30.457-19.556,41.455-39.458,45.32c-15.333,2.979-30.833,2.91-46.027-1.098c-19.097-5.035-31.237-16.881-34.584-36.871
	c-0.29-1.729-1.128-3.367-1.711-5.047C627.525,499.606,627.525,477.022,627.525,454.437z"/>
<path fill-rule="evenodd" clip-rule="evenodd" fill="#0000A9" d="M1663.376,609.47c-2.252-3.96-4.504-7.921-6.804-11.968
	c8.558-5.484,16.897-10.83,25.791-16.529c4.324,5.408,8.779,10.984,13.609,17.029c3.292-2.687,6.183-5.046,9.663-7.887
	c-4.647-5.869-8.995-11.358-13.135-16.586c6.038-5.639,12.099-11.301,18.383-17.17c3.726,3.827,8.624,8.857,14.085,14.469
	c3.154-3.895,5.975-7.373,9.334-11.521c-5.507-5.34-10.673-10.352-15.911-15.434c3.783-5.873,7.478-11.607,11.456-17.781
	c5.318,4.178,10.538,8.275,16.603,13.039c1.902-4.127,3.854-7.76,5.168-11.611c0.355-1.043-0.876-3.17-1.976-4.068
	c-4.419-3.609-9.07-6.932-13.722-10.423c1.578-4.886,3.093-9.579,4.827-14.952c5.487,3.304,10.752,6.472,17.064,10.274
	c0.396-5.671,0.947-10.348,0.9-15.018c-0.013-1.29-1.578-2.89-2.836-3.771c-2.338-1.634-4.834-3.258-7.51-4.145
	c-5.715-1.896-7.038-5.632-5.396-11.504c4.551,2.004,9.017,3.971,13.578,5.98c0.779-9.852-3.686-17.027-12.315-19.745
	c-3.916-1.232-7.838-2.171-8.465-7.946c3.076,0.661,6.015,1.293,9.675,2.081c-1.553-2.759-2.703-4.8-3.851-6.841l-0.105,0.11
	c12.354,11.032,17.885,25.379,19.298,41.384c2.01,22.756-6.414,42.688-18.018,61.512c-13.52,21.934-31.605,39.586-52.254,54.76
	c-1.829,1.344-3.549,2.836-5.318,4.261C1677.923,609.47,1670.648,609.47,1663.376,609.47z"/>
<path fill-rule="evenodd" clip-rule="evenodd" fill="#0000A9" d="M1720.796,609.47c-3.707-4.852-7.412-9.703-11.228-14.696
	c6.77-6.027,13.431-11.96,20.301-18.078c2.51,2.85,6.265,7.115,10.664,12.113c2.923-3.467,5.762-6.464,8.069-9.824
	c0.599-0.871-0.004-3.242-0.841-4.305c-3.057-3.885-6.445-7.51-9.759-11.289c4.183-6.49,8.202-12.729,13.1-20.329
	c3.512,4.638,6.816,9.005,10.12,13.37c0.784-0.33,1.568-0.659,2.352-0.988c1.828-4.037,4.016-7.967,5.278-12.172
	c0.408-1.359-1.151-4.141-2.59-5.088c-8.181-5.379-9.824-12.094-5.186-20.609c0.705-1.295,0.834-2.9,1.423-5.074
	c2.13,1.6,3.915,2.885,5.638,4.25c1.78,1.411,3.497,2.9,5.287,4.393c4.803-9.49,3.01-18.033-4.819-23.823
	c-4.007-2.964-4.007-2.964-4.543-12.543c2.865,1.448,5.425,2.741,7.983,4.035c0.444-0.247,0.889-0.492,1.333-0.738
	c-2.621-6.187-5.241-12.375-7.862-18.561l-0.128,0.13c7.387,8.044,9.871,18.168,11.496,28.451
	c3.729,23.595-3.367,44.882-14.89,65.021c-8.679,15.168-19.692,28.531-32.324,40.587c-1.907,1.821-3.624,3.84-5.43,5.768
	C1723.093,609.47,1721.944,609.47,1720.796,609.47z"/>
<path fill-rule="evenodd" clip-rule="evenodd" fill="#0000A9" d="M1728.834,609.47c5.335-4.62,10.67-9.242,16.364-14.175
	c2.049,2.625,5.151,6.602,8.246,10.566c11.065-9.023,11.083-9.852,0.513-24.297c2.157-3.27,4.488-6.694,6.704-10.192
	c2.142-3.38,4.166-6.835,6.661-10.95c3.027,3.68,5.827,7.084,8.641,10.505c7.408-7.942,7.934-13.936,1.381-21.688
	c-2.608-3.088-2.866-5.669-1.468-9.27c1.497-3.854,2.231-8.004,3.652-13.354c2.518,3.346,4.508,5.988,6.497,8.633
	c0.659-0.391,1.317-0.781,1.977-1.173c-0.343-8.974,4.636-18.528-5.28-26.428c-2.452-1.954-2.242-7.247-3.473-11.807
	c2.039,0.407,3.3,0.66,5.486,1.097c-1.854-4.688-3.484-8.806-5.112-12.924c7.449,10.648,10.577,22.641,11.07,35.341
	c0.934,24.104-6.416,45.983-18.837,66.256c-5.054,8.249-11.044,15.924-16.609,23.859
	C1746.442,609.47,1737.639,609.47,1728.834,609.47z"/>
<path fill-rule="evenodd" clip-rule="evenodd" fill="#0000A9" d="M1772.474,609.47c-6.829-7.819-4.152-14.747,1.68-21.718
	c2.382-2.848,3.908-6.41,6.081-10.082c1.689,2.26,3.098,4.141,5.241,7.008c2.484-7.788,8.849-13.781,2.691-21.838
	c-0.71-0.93-0.41-2.938-0.062-4.314c1.313-5.171,2.841-10.289,4.371-15.72c1.094,0.62,2.146,1.217,4.018,2.278
	c0.722-9.002,4.162-17.328-1.65-25.92c-2.146-3.173-1.854-7.995-2.8-12.688c5.305,7.263,8.22,22.243,7.378,32.874
	c-2.045,25.825-11.521,48.838-25.8,70.12C1773.239,609.47,1772.855,609.47,1772.474,609.47z"/>
<path fill-rule="evenodd" clip-rule="evenodd" fill="#0000A9" d="M1778.215,609.47c3.202-6.024,6.404-12.048,9.793-18.425
	c1.208,1.051,2.128,1.851,3.721,3.234c1.816-6.644,6.574-11.928,4.036-19.207c-0.482-1.381,0.415-3.311,0.866-4.936
	c1.969-7.076,4.008-14.133,6.021-21.195c0.586,0.107,1.171,0.217,1.758,0.325c-1.741,9.552-2.742,19.317-5.415,28.601
	c-3.098,10.756-7.664,21.086-11.593,31.603C1784.34,609.47,1781.278,609.47,1778.215,609.47z"/>
<path fill-rule="evenodd" clip-rule="evenodd" fill="#0000A9" d="M1630.072,609.47c5.808-2.845,11.614-5.691,17.909-8.775
	c1.903,3.3,3.481,6.038,5.06,8.775C1645.384,609.47,1637.729,609.47,1630.072,609.47z"/>
<path fill-rule="evenodd" clip-rule="evenodd" fill="#0000A9" d="M1790.848,609.47c3.923-9.073,7.847-18.147,12.29-28.424
	c-2.76,10.192-5.228,19.308-7.696,28.424C1793.91,609.47,1792.379,609.47,1790.848,609.47z"/>
<path fill-rule="evenodd" clip-rule="evenodd" fill="#0000A9" d="M1690.938,609.47c2.564-2.186,5.13-4.372,8.2-6.987
	c1.668,2.629,3.051,4.809,4.433,6.987C1699.358,609.47,1695.148,609.47,1690.938,609.47z"/>
<path fill-rule="evenodd" clip-rule="evenodd" fill="#0000A9" d="M1425.875,564.873c0-37.359,0-73.621,0-110.174
	c1.43-0.169,2.529-0.417,3.628-0.413c21.418,0.086,42.883-0.596,64.235,0.664c10.011,0.59,20.364,3.689,29.572,7.847
	c17.004,7.68,25.196,22.327,26.109,40.673c0.376,7.543,0.112,15.445-1.736,22.707c-5.913,23.223-23.295,34.433-45.387,36.816
	c-21.382,2.307-43.113,1.396-64.69,1.867C1433.835,564.943,1430.061,564.873,1425.875,564.873z M1473.512,477.678
	c-0.037,0.283-0.072,0.565-0.109,0.848c-4.209,0-8.424,0.136-12.626-0.043c-3.291-0.139-4.282,1.262-4.266,4.413
	c0.099,17.792,0.101,35.585,0.001,53.378c-0.018,3.168,0.999,4.459,4.275,4.394c8.031-0.161,16.09,0.301,24.1-0.153
	c25.187-1.428,36.045-15.08,31.682-39.428c-1.923-10.724-8.456-17.656-18.756-20.131
	C1489.906,479.055,1481.626,478.713,1473.512,477.678z"/>
<path fill-rule="evenodd" clip-rule="evenodd" fill="#0000A9" d="M903.286,518.994c0-21.342,0-42.685,0-64.379
	c9.633,0,18.717,0,28.273,0c0,36.598,0,73.004,0,110.163c-7.364,0-14.576,0.229-21.752-0.168c-1.696-0.093-3.463-2.102-4.881-3.541
	c-19.742-20.031-39.453-40.094-59.08-60.24c-1.435-1.472-2.161-3.636-3.216-5.479c-0.818,0.532-1.636,1.062-2.454,1.594
	c0,22.366,0,44.731,0,67.854c-9.356,0-17.892,0.09-26.421-0.127c-0.94-0.023-2.119-1.657-2.666-2.795
	c-0.454-0.941-0.16-2.254-0.16-3.4c-0.004-32.53,0.102-65.06-0.112-97.588c-0.035-5.212,1.56-6.278,6.693-6.868
	c14.454-1.661,25.019,2.833,34.695,14.183c14.243,16.708,30.391,31.79,45.634,47.653c1.275,1.327,1.848,3.329,2.747,5.018
	C901.487,520.246,902.387,519.619,903.286,518.994z"/>
<path fill-rule="evenodd" clip-rule="evenodd" fill="#0000A9" d="M1291.447,478.052c0,7.249,0,13.302,0,20.066
	c20.239,0,40.203,0,60.515,0c0,7.693,0,14.673,0,22.422c-20.178,0-40.147,0-60.787,0c0,6.432-0.32,12.146,0.247,17.769
	c0.126,1.24,3.39,3.07,5.226,3.091c19.318,0.227,38.642,0.143,57.962,0.143c2.812,0.001,5.627,0.001,8.82,0.001
	c0,7.895,0,15.077,0,22.797c-34.131,0-68.233,0-102.817,0c0-36.394,0-72.795,0-109.644c34.062,0,68.019,0,102.436,0
	c0,7.475,0,15.029,0,23.356C1339.449,478.052,1315.673,478.052,1291.447,478.052z"/>
<path fill-rule="evenodd" clip-rule="evenodd" fill="#0000A9" d="M1204.242,454.597c0,7.225-0.08,13.884,0.034,20.54
	c0.056,3.281-1.834,3.669-4.421,3.658c-9.756-0.045-19.524,0.275-29.265-0.123c-5.381-0.219-7.222,1.179-7.145,6.904
	c0.328,24.101,0.138,48.208,0.138,72.313c0,2.062,0,4.122,0,6.579c-10.572,0-20.609,0-31.371,0c0-28.36,0-56.576,0-85.576
	c-13.795,0-26.893,0-40.333,0c0-8.511,0-16.23,0-24.295C1129.221,454.597,1166.243,454.597,1204.242,454.597z"/>
<path fill-rule="evenodd" clip-rule="evenodd" fill="#0000A9" d="M1034.446,454.768c0,36.79,0,73.036,0,109.693
	c-10.343,0-20.386,0-30.916,0c0-36.385,0-72.78,0-109.693C1013.607,454.768,1023.79,454.768,1034.446,454.768z"/>
<path fill-rule="evenodd" clip-rule="evenodd" fill="#0000A9" d="M1706.31,551.016c0.946-1.498,1.701-2.836,2.595-4.074
	c1.438-1.989,2.965-3.912,4.94-6.501c-6.634-5.626-12.979-11.005-19.424-16.472c2.991-4.867,5.875-9.559,9.335-15.188
	c6.892,4.301,13.749,8.581,21.418,13.366c1.692-3.432,3.582-6.477,4.61-9.791c0.34-1.094-1.182-3.454-2.464-4.247
	c-6.003-3.708-12.22-7.071-18.721-10.763c1.184-3.97,2.357-7.911,3.781-12.691c7.611,3.264,14.899,6.387,23.135,9.917
	c0.512-4.292,1.291-8.148,1.259-11.997c-0.013-1.339-1.768-3.266-3.181-3.881c-4.723-2.056-9.544-4.1-14.532-5.274
	c-5.032-1.186-5.97-3.803-4.56-8.906c6.916,2.003,13.628,3.948,20.352,5.896c1.285-8.183-2.294-13.733-9.838-15.343
	c-3.176-0.677-6.471-0.953-9.532-1.96c-2.271-0.747-4.252-2.378-6.362-3.617c0.301-0.688,0.602-1.374,0.9-2.061
	c5.18,0.564,10.357,1.127,16.822,1.832c-4.807-6.397-8.382-12.007-16.596-11.816c-3.415,0.08-6.857-0.992-10.287-1.541
	c0.078-0.639,0.157-1.278,0.235-1.917c1.943-0.299,3.886-0.598,7.512-1.154c-3.766-1.83-6.052-2.941-8.337-4.052
	c0.059-0.23,0.116-0.459,0.175-0.688c2.447,0.841,4.981,1.489,7.328,2.553c25.036,11.358,37.146,37.661,30.533,66.099
	c-4.569,19.654-14.661,36.378-27.221,51.847c-19.317,23.793-42.777,41.984-71.455,53.177c-2.639,1.03-5.338,1.904-8.732,3.108
	c0-9.209-0.188-17.771,0.171-26.309c0.066-1.555,2.373-3.014,4.029-4.971c4.269,8.064,7.915,14.952,11.873,22.432
	c2.5-1.211,4.606-2.23,7.252-3.511c-4.01-7.438-7.779-14.433-11.629-21.575c7.112-4.744,14.074-9.388,21.74-14.502
	c4.912,6.234,9.941,12.615,15.435,19.584c2.991-2.359,5.739-4.525,9.158-7.223c-5.558-6.555-10.814-12.754-16.258-19.176
	c5.007-5.314,9.914-10.523,15.104-16.034C1693.128,539.197,1699.201,544.643,1706.31,551.016z"/>
<path fill-rule="evenodd" clip-rule="evenodd" fill="#0000A9" d="M1639.017,566.361c-2.802-5.689-5.084-10.268-7.317-14.872
	c-3.479-7.167-2.576-10.316,3.934-14.493c2.71-1.738,5.307-3.652,8.296-5.724c5.275,6.698,10.432,13.245,15.993,20.304
	c2.646-2.139,4.924-3.977,7.885-6.369c-5.865-6.676-11.359-12.929-16.638-18.936c3.878-4.039,7.669-7.984,11.721-12.203
	c6.38,5.084,12.778,10.18,19.636,15.643c2.296-2.812,4.41-5.404,7.157-8.771c-6.977-4.934-13.604-9.619-20.717-14.648
	c2.329-3.74,4.69-7.532,7.425-11.921c7.42,3.706,14.68,7.33,22.021,10.995c0.638-0.839,1.179-1.389,1.529-2.039
	c4.22-7.826,4.194-7.985-3.907-11.564c-4.875-2.153-9.822-4.142-15.113-6.361c0.966-2.961,1.886-5.784,3.007-9.226
	c7.577,2.054,14.889,4.035,22.975,6.228c0.515-2.909,1.519-5.662,1.28-8.305c-0.147-1.641-1.919-4.102-3.405-4.487
	c-6.07-1.573-12.311-2.489-18.89-3.721c0.087-1.774,0.167-3.4,0.279-5.668c7.339,0.875,14.26,1.699,21.194,2.524
	c0.519-9.092-0.546-10.506-8.55-11.219c-3.615-0.322-7.29-0.097-10.869-0.603c-1.557-0.22-2.942-1.656-4.405-2.54
	c0.266-0.586,0.531-1.173,0.798-1.759c5.689,0,11.38,0,17.177,0c-1.649-6.743-4.309-8.938-10.189-8.549
	c-3.049,0.202-6.073,0.868-9.118,0.949c-1.568,0.042-3.159-0.738-4.74-1.147c0.047-0.499,0.093-0.998,0.139-1.499
	c3.785-0.757,7.571-1.514,11.357-2.271c0.151-0.491,0.303-0.982,0.454-1.474c-3.62-1.49-7.149-3.834-10.885-4.229
	c-3.605-0.382-7.423,1.246-11.147,1.991c-0.142-0.499-0.281-1-0.423-1.5c1.026-0.788,2.051-1.574,3.716-2.851
	c-3.697-0.595-6.465-1.042-9.785-1.578c25.319-1.789,56.093,15.209,48.846,56.521c-2.695,15.369-9.493,29.022-18.621,41.532
	c-15.866,21.742-36.034,38.273-60.651,49.986c-0.22-1.254-0.431-1.984-0.458-2.723c-0.034-0.924,0.081-1.854,0.071-1.684
	C1633.136,567.506,1635.678,567.012,1639.017,566.361z"/>
<path fill-rule="evenodd" clip-rule="evenodd" fill="#0000A9" d="M1663.889,503.488c-7.666-4.471-14.549-8.483-21.795-12.708
	c1.496-2.423,2.954-4.788,4.859-7.876c7.948,2.843,15.938,5.703,24.408,8.732c1.243-2.333,2.452-4.601,4.193-7.863
	c-8.768-2.521-16.911-4.864-25.042-7.203c-0.1-4.016,1.778-5.434,5.701-4.864c7.16,1.042,14.352,1.859,22.175,2.852
	c0.596-2.678,1.191-5.354,2.006-9.012c-9.339-0.458-18.024-0.882-26.711-1.308c-0.277-0.458-0.555-0.915-0.832-1.372
	c1.412-0.872,2.801-2.45,4.24-2.498c7.598-0.252,15.208-0.118,22.712-0.118c0.696-8.243,0.249-8.871-6.466-8.326
	c-5.328,0.433-10.62,1.29-15.939,1.865c-1.579,0.172-3.192,0.027-4.791,0.027c-0.082-0.794-0.164-1.587-0.244-2.381
	c8.047-1.508,16.094-3.015,24.487-4.586c-1.117-4.468-3.002-6.901-8.014-5.302c-4.91,1.565-9.934,2.783-14.932,4.054
	c-1.404,0.356-2.898,0.361-4.352,0.527c-0.158-0.693-0.316-1.387-0.476-2.082c6.528-2.089,13.057-4.177,20.493-6.557
	c-9.768-9.224-17.028,1.783-25.708,1.173c1.897-1.143,3.748-2.377,5.707-3.404c2.167-1.137,4.435-2.083,6.657-3.112
	c-0.011-0.556-0.023-1.111-0.036-1.667c-3.509-0.183-7.225-1.167-10.469-0.33c-3.447,0.889-6.447,3.508-9.643,5.371
	c-0.383-0.484-0.767-0.969-1.15-1.453c1.596-0.827,3.191-1.653,4.787-2.479c-0.268-0.459-0.535-0.917-0.804-1.375
	c-2.475,0-4.95,0-7.425,0c0.009-0.509,0.018-1.02,0.026-1.529c7.743,0,15.668-1.072,23.193,0.207
	c20.47,3.481,31.136,19.37,27.493,39.809c-3.914,21.958-16.406,38.842-32.534,53.334c-5.742,5.158-12.149,9.578-19.305,15.156
	c0-8.615,0-15.539,0-23.584c3.682,4.578,6.831,8.492,10.366,12.889c2.009-1.66,3.69-3.047,5.791-4.781
	c-5.627-6.035-10.946-11.741-16.447-17.641c2.848-2.426,5.555-4.731,8.92-7.598c5.564,3.918,12.219,8.605,19.256,13.561
	C1659.96,508.051,1661.531,506.226,1663.889,503.488z"/>
<path fill-rule="evenodd" clip-rule="evenodd" fill="#0000A9" d="M1646.687,455.88c-5.295,1.268-10.588,2.536-15.883,3.803
	c-0.187-0.453-0.373-0.906-0.561-1.359c4.186-1.514,8.415-2.918,12.529-4.607c1.311-0.539,2.312-1.832,3.454-2.779
	c-1.566-0.374-3.328-1.396-4.663-0.997c-3.731,1.112-7.286,2.813-10.911,4.283c-0.229-0.458-0.459-0.917-0.688-1.375
	c4.162-2.202,8.324-4.404,13.114-6.938c-5.413-5.378-8.454,2.231-13.639,1.353c2.773-2.023,4.93-3.595,8.071-5.885
	c-2.975-1.035-5.181-1.804-7.387-2.572c-0.011-0.29-0.022-0.579-0.034-0.868c1.031-0.099,2.133-0.484,3.084-0.252
	c11.618,2.843,18.617,13.856,16.845,26.364c-1.74,12.259-8.346,23.938-19.571,34.161c-0.196-1.329-0.411-2.293-0.462-3.266
	c-0.05-0.941,0.07-1.892,0.1-2.497c2.154-0.866,4.132-1.661,7.444-2.993c-3.241-2.057-5.646-2.856-6.776-4.521
	c-0.99-1.458-0.545-3.889-0.686-5.383c4.434-3.35,10.273,5.684,13.795-3.325c-4.875-1.148-9.438-2.223-13.999-3.298
	c0.122-0.778,0.245-1.558,0.368-2.337c3.268,0,6.536,0.039,9.804-0.01c3.221-0.048,7.353,1.269,7.077-5.513
	c-5.521,0.252-11.018,0.503-16.513,0.754c-0.125-0.621-0.251-1.242-0.377-1.864c4.578-0.841,9.208-1.481,13.708-2.628
	c1.61-0.411,2.91-2.043,4.353-3.118C1647.752,457.436,1647.219,456.657,1646.687,455.88z"/>
<path fill-rule="evenodd" clip-rule="evenodd" fill="#0000A9" d="M1765.517,469.514c-3.649-3.364-9.852-4.423-9.945-11.688
	c4.935,2.932,8.219,6.629,9.822,11.812C1765.389,469.644,1765.517,469.514,1765.517,469.514z"/>
<path fill-rule="evenodd" clip-rule="evenodd" fill="#0000A9" d="M1741.593,447.443c-6.575-3.806-13.149-7.611-19.725-11.417
	c7.62,2,14.654,4.999,19.616,11.529C1741.487,447.553,1741.593,447.443,1741.593,447.443z"/>
</svg>
