<?xml version="1.0" encoding="utf-8"?>
<!-- Generator: Adobe Illustrator 16.0.0, SVG Export Plug-In . SVG Version: 6.00 Build 0)  -->
<!DOCTYPE svg PUBLIC "-//W3C//DTD SVG 1.1//EN" "http://www.w3.org/Graphics/SVG/1.1/DTD/svg11.dtd">
<svg version="1.1" id="Layer_1" xmlns="http://www.w3.org/2000/svg" xmlns:xlink="http://www.w3.org/1999/xlink" x="0px" y="0px"
	 width="2500px" height="1000px" viewBox="0 0 2500 1000" enable-background="new 0 0 2500 1000" xml:space="preserve">
<g>
	<path fill="#492C46" d="M1968.806,561.303c-2.235,3.134-4.394,6.328-6.722,9.394c-8.633,11.355-20.186,19.266-31.906,26.999
		c-26.793,17.676-56.438,23.307-87.962,20.85c-6.348-0.495-12.685-1.443-18.954-2.573c-13.335-2.402-20.061-10.362-20.569-23.917
		c-0.041-1.104-0.005-2.21-0.005-4.086c-1.621,1.08-2.756,1.801-3.852,2.571c-15.787,11.092-32.535,20.252-51.361,25.079
		c-8.34,2.138-16.737,4.111-25.503,2.942c-11.947-1.594-20.149-10.65-20.427-22.716c-0.029-1.295-0.004-2.588-0.004-4.581
		c-1.438,0.86-2.361,1.355-3.224,1.938c-17.231,11.621-35.673,20.469-56.25,24.312c-3.976,0.744-8.031,1.225-12.067,1.413
		c-7.41,0.351-11.577-2.515-14.323-9.373c-0.336-0.836-0.661-1.678-1.157-2.942c-0.985,0.637-1.803,1.116-2.567,1.667
		c-16.228,11.67-34.038,13.312-52.729,7.865c-9.552-2.779-13.911-10.242-15.482-19.607c-0.353-2.089-0.573-4.2-0.922-6.803
		c-1.13,0.634-2.085,1.062-2.923,1.656c-17.735,12.574-36.947,21.867-58.375,26.194c-6.391,1.29-12.83,2.096-19.313,0.622
		c-13.728-3.119-21.407-15.58-17.312-29.818c2.528-8.797,6.653-17.153,10.297-25.606c4.893-11.354,10.013-22.606,15.028-33.905
		c0.363-0.816,0.667-1.661,1.192-2.979c-1.551,0.29-2.689,0.491-3.825,0.717c-6.753,1.332-13.473,2.871-20.271,3.913
		c-3.058,0.47-4.498,1.908-5.712,4.57c-5.753,12.624-11.176,25.443-17.769,37.624c-4.402,8.136-10.093,15.718-16.057,22.834
		c-10.288,12.277-23.776,19.332-39.647,21.763c-14.859,2.271-29.694,2.459-44.444-0.741c-2.844-0.617-5.627-1.709-8.289-2.91
		c-7.893-3.562-12.2-9.754-12.991-18.393c-0.137-1.504-0.383-2.996-0.646-5.026c-1.315,0.804-2.327,1.363-3.277,2.014
		c-17.575,12.031-36.433,21.148-57.485,25.259c-6.496,1.268-12.998,2.016-19.633,0.905c-13.497-2.257-20.521-12.982-17.228-26.627
		c3.113-12.899,8.989-24.725,14.525-36.665c6.65-14.343,13.533-28.578,20.076-42.968c1.476-3.247,2.197-6.904,2.829-10.45
		c0.514-2.89-1.413-4.206-4.139-4.454c-5.516-0.502-10.722,2.783-13.369,8.685c-5.436,12.109-10.789,24.258-16.152,36.398
		c-10.603,24.01-21.215,48.013-31.744,72.054c-1.072,2.451-2.424,3.538-5.234,3.517c-16.243-0.134-32.486-0.08-48.73-0.089
		c-0.886-0.002-1.771,0-3.104,0c3.446-8.055,6.734-15.736,10.022-23.418c-0.163-0.188-0.326-0.377-0.489-0.564
		c-0.982,0.515-2.01,0.958-2.942,1.552c-16.304,10.356-33.618,18.312-52.657,22.154c-6.6,1.332-13.249,1.972-19.947,0.769
		c-13.846-2.487-21.115-13.25-16.918-26.875c3.476-11.278,8.108-22.25,12.892-33.065c6.926-15.661,14.534-31.018,21.646-46.598
		c1.402-3.07,2.223-6.518,2.682-9.875c0.438-3.192-1.256-4.695-4.524-4.629c-6.313,0.126-10.719,3.177-13.262,8.969
		c-5.499,12.525-11.02,25.041-16.538,37.559c-10.383,23.552-20.799,47.088-31.116,70.666c-1.089,2.49-2.525,3.463-5.291,3.439
		c-16.04-0.12-32.081-0.062-48.121-0.065c-0.979,0-1.96,0-3.729,0c3.531-8.243,6.804-15.88,10.075-23.518
		c-0.168-0.174-0.336-0.35-0.504-0.523c-0.986,0.555-2.002,1.062-2.956,1.669c-16.298,10.364-33.57,18.436-52.679,22.046
		c-4.071,0.77-8.238,1.218-12.379,1.384c-7.545,0.304-11.747-2.675-14.398-9.71c-0.283-0.751-0.552-1.507-0.934-2.55
		c-0.782,0.467-1.486,0.777-2.062,1.245c-7.908,6.438-17.197,9.273-27.125,10.522c-7.722,0.972-15.382,0.944-22.933-1.179
		c-13.844-3.892-21.256-16.1-19.24-30.358c2.768-19.566,11.247-36.91,20.15-54.116c6.781-13.104,14.714-25.479,24.599-36.506
		c9.196-10.26,20.193-17.479,34.005-19.855c8.198-1.412,16.394-1.275,24.481,0.565c6.608,1.506,11.763,5.31,15.531,11.841
		c0.73-1.408,1.33-2.18,1.544-3.045c0.741-2.999,2.759-4.617,5.652-4.635c11.469-0.07,22.938,0.046,34.406,0.111
		c0.274,0.001,0.548,0.221,1.193,0.499c-0.384,0.98-0.729,1.975-1.153,2.931c-12.307,27.686-24.636,55.364-36.914,83.063
		c-1.186,2.677-2.243,5.438-3.038,8.254c-1.202,4.257,0.737,7.139,5.067,6.758c4.258-0.374,8.687-1.188,12.58-2.871
		c12.956-5.604,23.965-14.078,33.054-24.832c2.894-3.424,5.091-7.586,6.944-11.708c10.508-23.384,20.816-46.859,31.19-70.303
		c1.866-4.218,1.903-4.227,5.912-2.118c9.603,5.047,19.187,10.13,28.853,15.052c1,0.51,2.946,0.563,3.704-0.067
		c7.596-6.354,16.686-8.789,26.158-9.57c7.643-0.63,15.428-0.777,23.051-0.073c11.113,1.026,18.803,10.065,19.365,21.181
		c0.399,7.873-1.108,15.417-4.089,22.562c-6.938,16.64-14.236,33.131-21.329,49.707c-0.992,2.316-1.85,4.73-2.416,7.182
		c-0.762,3.289,1.048,5.971,4.386,5.803c3.972-0.198,8.178-0.612,11.796-2.11c13.813-5.718,25.604-14.443,35.193-25.924
		c2.426-2.904,4.242-6.439,5.805-9.926c10.648-23.766,21.154-47.596,31.707-71.404c2.025-4.569,2.019-4.546,6.297-2.281
		c9.051,4.788,18.153,9.484,27.152,14.366c2.461,1.336,4.332,1.39,6.595-0.473c7.031-5.78,15.631-7.482,24.317-8.627
		c8.47-1.112,16.988-1.533,25.424,0.396c11.703,2.679,18.68,12.895,17.558,24.909c-1.123,12.033-5.598,22.961-10.392,33.821
		c-5.074,11.495-10.235,22.951-15.254,34.473c-1.043,2.392-1.87,4.939-2.342,7.501c-0.569,3.106,1.142,5.351,4.293,5.302
		c3.391-0.055,7.004-0.237,10.107-1.432c14.074-5.423,25.962-14.132,35.936-25.397c1.64-1.851,2.664-4.286,3.792-6.541
		c6.531-13.04,12.671-26.29,19.618-39.104c4.91-9.053,11.76-16.756,20.016-23.092c9.924-7.616,21.191-11.342,33.625-11.534
		c4.348-0.066,8.705,0.514,13.051,0.428c1.772-0.035,3.835-0.643,5.239-1.691c10.556-7.885,22.264-10.298,35.104-7.962
		c9.349,1.701,14.23,7.692,14.022,17.257c-0.144,6.598-1.931,12.788-4.521,18.795c-1.446,3.357-1.329,3.589,2.332,4.402
		c8.446,1.876,16.57,0.511,24.317-2.945c1.757-0.781,2.917-2.908,4.352-4.416c-0.214-0.312-0.426-0.627-0.639-0.938
		c-4.394,0-8.783,0-13.692,0c2.771-6.193,5.268-11.93,7.949-17.577c0.3-0.63,1.64-1.024,2.52-1.072
		c2.633-0.139,5.302-0.276,7.909,0.006c3.294,0.36,4.709-1.359,5.899-4.036c7.489-16.854,15.07-33.667,22.622-50.493
		c6.681-14.884,13.435-29.738,19.989-44.678c1.354-3.086,3.102-4.428,6.571-4.621c16.609-0.928,33.203-2.146,49.806-3.248
		c0.578-0.038,1.165,0.07,2.165,0.139c-15.783,35.582-31.45,70.904-47.312,106.665c5.077,0,9.679,0,14.675,0
		c-0.332,1.094-0.477,1.828-0.771,2.496c-2.045,4.636-4.191,9.229-6.152,13.899c-0.729,1.743-1.678,2.522-3.633,2.417
		c-2.936-0.159-5.899,0.132-8.826-0.092c-2.771-0.212-4.194,0.898-5.301,3.397c-8.242,18.627-16.607,37.198-24.93,55.789
		c-2.981,6.658-5.981,13.31-8.91,19.991c-2.298,5.244-0.73,7.554,4.88,6.464c4.417-0.856,8.851-2.241,12.923-4.147
		c10.383-4.855,19.506-11.648,27.531-19.81c1.929-1.961,3.332-4.584,4.507-7.119c8.33-17.983,17.395-35.524,29.79-51.136
		c5.333-6.714,11.221-12.858,18.521-17.469c14.369-9.072,29.891-10.807,46.183-6.871c5.005,1.207,8.917,4.264,12.027,8.339
		c0.606,0.797,1.212,1.593,2.156,2.835c0.487-1.096,0.883-1.814,1.142-2.582c1.106-3.315,3.487-4.941,6.877-4.954
		c10.653-0.041,21.31,0.006,31.964,0.022c3.434,0.006,2.248,2.037,1.519,3.685c-5.132,11.579-10.312,23.14-15.471,34.708
		c-7.55,16.938-15.127,33.864-22.593,50.839c-1.005,2.279-1.779,4.778-2.033,7.241c-0.363,3.519,1.228,5.397,4.696,5.186
		c3.774-0.232,7.751-0.689,11.205-2.106c14.448-5.924,26.537-15.189,36.329-27.349c1.943-2.415,3.516-5.227,4.801-8.062
		c6.521-14.399,12.896-28.865,19.312-43.315c0.438-0.986,0.774-2.017,1.314-3.438c-4.838,0-9.244,0-14.153,0
		c2.754-6.149,5.269-11.88,7.933-17.539c0.277-0.584,1.445-1.009,2.224-1.05c2.53-0.132,5.101-0.282,7.604,0.003
		c3.578,0.41,5.333-1.263,6.685-4.348c5.402-12.348,10.975-24.621,16.483-36.921c8.533-19.051,17.117-38.081,25.56-57.173
		c1.569-3.554,3.721-5.25,7.777-5.473c16.61-0.909,33.201-2.147,49.802-3.252c0.285-0.019,0.582,0.111,1.328,0.266
		c-15.742,35.505-31.432,70.886-47.328,106.735c5.237,0,9.857,0,15.021,0c-2.75,6.141-5.248,11.868-7.934,17.507
		c-0.309,0.645-1.658,1.075-2.544,1.109c-3.346,0.128-6.7,0.12-10.049,0.025c-1.974-0.056-3.198,0.649-4.022,2.5
		c-11.479,25.726-23.029,51.421-34.483,77.159c-2.076,4.664-0.354,6.943,4.735,6.03c3.943-0.707,7.938-1.77,11.574-3.418
		c12.641-5.729,23.561-13.948,32.729-24.347c2.435-2.761,4.294-6.151,5.891-9.504c4.616-9.697,8.823-19.59,13.445-29.284
		c10.298-21.595,26.484-35.863,50.652-39.815c17.647-2.887,35.332-3.374,52.926,0.358c3.207,0.681,6.355,2.113,9.241,3.721
		c4.784,2.663,7.212,7.072,7.427,12.51c0.574,14.505-2.943,27.929-10.979,40.088c-5.071,7.671-12.433,12.377-20.732,15.815
		c-12.666,5.246-25.996,7.685-39.532,9.164c-5.339,0.584-10.723,0.788-16.05,1.458c-1.379,0.174-3.35,1.156-3.802,2.271
		c-2.615,6.462-5.234,12.968-7.123,19.663c-2.034,7.217,1.083,11.339,8.437,12.317c11.213,1.495,22-0.927,32.708-3.755
		c21.593-5.704,40.834-15.688,56.575-31.783c3.302-3.378,6.094-7.257,9.432-11.277c3.383,3.953,6.761,7.903,10.139,11.854
		C1968.806,560.491,1968.806,560.896,1968.806,561.303z M1392.582,499.07c-1.87,1.64-3.668,2.722-4.77,4.292
		c-1.966,2.802-3.788,5.772-5.177,8.895c-8.023,18.049-15.934,36.146-23.814,54.257c-3.15,7.239-6.244,14.508-9.143,21.85
		c-1.148,2.916-1.315,6.057,1.494,8.372c2.767,2.278,5.694,1.454,8.565,0.122c4.502-2.086,7.18-5.832,9.126-10.191
		c4.006-8.972,7.963-17.965,11.948-26.946c5.506-12.404,10.996-24.815,16.546-37.2c1.379-3.079,1.599-5.708-1.361-8.146
		c-1.057-0.87-1.74-2.545-1.997-3.961C1393.378,506.966,1393.104,503.454,1392.582,499.07z M851.045,588.8
		c0.348,5.816,3.773,8.191,8.926,5.729c1.94-0.93,3.93-2.397,5.107-4.149c2.698-4.013,5.259-8.193,7.259-12.589
		c7.009-15.396,13.763-30.906,20.604-46.379c3.479-7.875,6.991-15.736,10.368-23.655c1.011-2.368,1.562-4.996-0.386-7.198
		c-1.966-2.224-4.596-2.167-7.318-1.678c-5.239,0.938-7.878,4.681-9.833,9.068c-10.762,24.148-21.5,48.308-32.152,72.506
		C852.453,583.101,851.888,586.012,851.045,588.8z M1588.684,588.538c0.361,6.389,4.011,8.739,9.465,5.685
		c1.97-1.104,3.865-2.755,5.132-4.607c2.329-3.412,4.477-7.021,6.161-10.787c10.332-23.114,20.521-46.293,30.736-69.459
		c0.568-1.292,1.126-2.624,1.417-3.996c0.747-3.519-1.571-6.672-5.151-6.754c-4.118-0.095-7.886,1.033-10.334,4.682
		c-1.235,1.843-2.373,3.789-3.275,5.813c-10.521,23.585-21.021,47.18-31.431,70.813
		C1590.197,582.665,1589.576,585.66,1588.684,588.538z M1866.628,543.084c1.634,0,2.649,0.127,3.626-0.019
		c17.651-2.633,32.775-21.528,31.691-39.495c-0.142-2.352-1.301-3.778-3.449-4.444c-4.391-1.359-8.271-0.354-11.35,2.993
		c-1.486,1.616-2.771,3.521-3.729,5.497c-4.983,10.284-9.834,20.632-14.725,30.961
		C1868.057,539.924,1867.451,541.285,1866.628,543.084z M1435.082,493.387c-0.143-0.029-0.283-0.061-0.425-0.092
		c0-0.811,0.099-1.635-0.021-2.427c-0.395-2.66-1.398-4.865-4.382-5.511c-2.811-0.607-6.451,0.669-7.867,2.815
		c-3.406,5.16-0.562,12.904,5.371,14.602c2.484,0.711,4.541,0.09,5.461-2.423C1434.044,498.105,1434.477,495.715,1435.082,493.387z"
		/>
	<path fill="#492C46" d="M914.354,293.273c2.728,0.709,5.452,1.421,8.181,2.126c18.995,4.914,29.093,17.827,32.471,36.531
		c4.324,23.937-5.393,42.112-23.896,56.366c-6.651,5.124-14.58,7.021-22.866,7.061c-10.444,0.05-19.412-7.382-22.931-19.021
		c-3.418-11.306-0.587-21.232,7.418-29.727c5.989-6.357,13.306-10.903,20.965-14.962c2.944-1.561,5.026-3.737,4.528-7.505
		c-0.504-3.819-2.562-6.287-6.113-7.606c-0.19-0.071-0.384-0.133-0.577-0.19c-14.935-4.353-28.289-1.867-39.611,9.227
		c-9.289,9.103-16.823,19.565-22.744,31.075c-10.547,20.5-19.155,41.787-24.675,64.239c-0.192,0.784-0.323,1.586-0.431,2.388
		c-0.325,2.434,0.68,3.674,3.212,3.556c6.282-0.294,12.57-0.511,18.851-0.872c14.483-0.832,28.963-1.722,43.443-2.613
		c1.992-0.124,2.721,0.771,2.708,2.696c-0.044,7.106-0.07,14.213,0.018,21.317c0.027,2.198-0.827,3.135-2.989,3.226
		c-5.777,0.243-11.552,0.601-17.33,0.859c-15.308,0.682-30.616,1.336-45.925,2.002c-0.304,0.013-0.607,0.023-0.913,0.041
		c-8.053,0.436-8.876,1.148-10.828,9.057c-9.896,40.111-19.528,80.298-32.914,119.443c-12.584,36.801-27.479,72.587-47.547,106.04
		c-2.713,4.521-5.591,8.944-8.49,13.351c-2.272,3.452-5.623,5.244-9.713,5.338c-9.891,0.226-13.017-2.146-16.182-11.561
		c-6.036-17.95-11.597-36.091-20.169-53.069c-13.047-25.843-31.89-46.096-57.89-59.274c-10.511-5.327-21.776-8.219-33.481-9.318
		c-16.433-1.543-28.998,9.525-29.394,25.968c-0.112,4.643,0.295,9.3,0.542,13.945c0.044,0.817,0.478,1.617,1.007,3.301
		c0.792-2.183,1.262-3.486,1.737-4.787c4.908-13.418,18.75-22.199,32.23-20.452c14.595,1.893,26.375,14.371,27.896,28.735
		c2.25,21.257-11.769,38.117-26.196,42.86c-8.525,2.802-16.993,2.537-25.335-0.504c-20.003-7.293-31.426-22.105-36.638-42.262
		c-0.884-3.415-1.729-6.84-2.591-10.26c0-7.107,0-14.214,0-21.321c0.537-1.861,1.204-3.698,1.592-5.593
		c5.673-27.726,21.768-46.741,47.88-57.414c0.995-0.406,1.957-0.89,3.241-1.477c-0.981-1.131-1.705-1.936-2.4-2.766
		c-5.514-6.583-8.691-13.87-6.958-22.691c1.989-10.126,11.819-18.146,22.573-18.356c11.54-0.225,21.812,7.164,24.188,17.454
		c1.761,7.628-0.762,14.387-4.371,20.907c-0.652,1.178-1.305,2.355-2.074,3.746c3.234,0.752,6.006,1.296,8.717,2.055
		c2.281,0.639,2.815-0.229,2.885-2.381c0.12-3.726,0.009-7.578,0.943-11.129c2.856-10.859,12.067-17.125,23.803-16.728
		c10.682,0.361,19.881,7.958,22.254,18.373c2.495,10.956-2.745,21.945-12.864,26.97c-1.115,0.554-2.242,1.087-2.833,1.372
		c8.175,8.909,16.808,17.144,23.999,26.484c7.224,9.384,13.011,19.872,19.349,29.754c0.152-0.508,0.46-1.355,0.664-2.229
		c10.431-44.76,20.837-89.526,31.322-134.275c0.533-2.271-0.038-3.066-2.229-2.955c-4.764,0.24-9.524,0.496-14.287,0.73
		c-10.133,0.496-20.271,0.935-30.399,1.507c-2.609,0.146-3.328-0.896-3.274-3.36c0.131-6.188,0.127-12.384,0.004-18.572
		c-0.049-2.469,0.793-3.358,3.304-3.486c17.426-0.898,34.843-1.965,52.269-2.889c2.667-0.143,4.366-1.28,5.423-3.646
		c1.816-4.071,3.708-8.109,5.51-12.187c11.785-26.67,27.017-51.016,47.573-71.923c23.96-24.371,52.235-40.837,85.799-47.918
		c4.625-0.976,9.265-1.88,13.896-2.818C902.577,293.273,908.466,293.273,914.354,293.273z"/>
</g>
</svg>
